<?xml version="1.0" encoding="utf-8"?>
<!-- Generator: Adobe Illustrator 17.1.0, SVG Export Plug-In . SVG Version: 6.00 Build 0)  -->
<!DOCTYPE svg PUBLIC "-//W3C//DTD SVG 1.1//EN" "http://www.w3.org/Graphics/SVG/1.1/DTD/svg11.dtd">
<svg version="1.1" id="Layer_1" xmlns="http://www.w3.org/2000/svg" xmlns:xlink="http://www.w3.org/1999/xlink" x="0px" y="0px"
	 viewBox="870.9 133.1 464.6 792" enable-background="new 870.9 133.1 464.6 792" xml:space="preserve">
<polygon fill="#CCCCCC" points="1221.9,312.2 1221.9,312.2 1221.9,312.9 1207.1,312.9 1207.1,338.9 1212.8,338.9 1212.8,367 
	1232.8,367 1232.8,348.5 1234.5,348.5 1234.5,312.9 1231.8,312.9 1231.8,312.2 "/>
<path fill="#CCCCCC" d="M1182.5,313.1h-2.8v35.4h1.8v18.6h29.7v-26.3h-7.5v-27.6h-11.3v-0.7h-9.9V313.1L1182.5,313.1z M1192.4,314.4
	v-1.2V314.4c-0.5,4.5-4.2,8.1-8.6,8.6h-1.2l0,0l0,0v-9.9v9.9h1.2C1188.2,322.5,1191.9,318.6,1192.4,314.4z"/>
<g>
	<polygon fill="#4A6DB4" points="1099.2,856.5 1099.2,874.8 1113.9,874.8 1113.9,871.2 1113.9,869.6 1113.9,862.4 1113.9,856.5 	"/>
	<text transform="matrix(1 0 0 1 1102.6599 868.6729)" fill="#FFFFFF" font-family="'MyriadPro-Regular'" font-size="12.6781">E</text>
</g>
<g>
	<polygon fill="#4A6DB4" points="1096,180.2 1096,198.5 1110.6,198.5 1110.6,195 1110.6,193.3 1110.6,186.1 1110.6,180 	"/>
	<text transform="matrix(1 0 0 1 1099.4304 192.3964)" fill="#FFFFFF" font-family="'MyriadPro-Regular'" font-size="12.6781">E</text>
</g>
<g>
	<g>
		<path fill="#4A6DB4" d="M1222.2,325.6c-0.9,0-1.5-0.7-1.5-1.5s0.7-1.5,1.5-1.5s1.5,0.7,1.5,1.5
			C1223.6,325,1222.9,325.6,1222.2,325.6z"/>
	</g>
	<path fill="#4A6DB4" d="M1219.3,329.6v3.4c0,0.6-0.4,0.7-0.6,0.7c-0.5,0-0.6-0.1-0.6-0.7v-4.2c0-1.8,0.9-2.4,2.5-2.4h2.6
		c1.5,0,2.5,0.5,2.5,2.4v4.2c0,0.6-0.1,0.7-0.6,0.7c-0.4,0-0.6-0.1-0.6-0.7v-3.4c0-0.4-0.1-0.5-0.4-0.5c0,0-0.4,0-0.4,0.5
		s0,11.3,0,11.3c0,0.7-0.6,0.9-0.9,0.9c-0.4,0-0.9,0-0.9-0.9c0-0.7,0-6.8,0-6.8c0-0.1,0-0.4-0.1-0.4c-0.1,0-0.1,0-0.1,0.4
		c0,0,0,5.9,0,6.8c0,0.8-0.6,0.9-0.9,0.9s-0.9,0-0.9-0.9c0,0,0-11,0-11.3c0-0.4-0.1-0.5-0.4-0.5
		C1219.4,329.1,1219.3,329.1,1219.3,329.6z"/>
</g>
<g>
	<path fill="#4A6DB4" d="M1191.2,325.7c-0.9,0-1.5-0.7-1.5-1.5c0-0.9,0.6-1.5,1.5-1.5c0.7,0,1.5,0.7,1.5,1.5
		C1192.6,325.1,1192,325.7,1191.2,325.7z"/>
	<path fill="#4A6DB4" d="M1192,326.3c1.5,0,1.9,1.1,2.2,1.7l1.2,4.1c0.1,0.5,0,0.7-0.4,0.7c-0.4,0-0.6,0-0.7-0.5l-1.1-3.7
		c0-0.1-0.1-0.4-0.5-0.4c-0.4,0-0.1,0.4-0.1,0.5l1.9,6.8h-2.4c0,2.8,0,5.1,0,5.1c0,0.7-0.4,0.9-0.6,0.9c-0.1,0-0.6,0-0.6-0.9
		c0-0.7,0-4.7,0-4.7c0-0.1,0-0.4-0.4-0.4c-0.1,0-0.4,0-0.4,0.4c0,0,0,4.1,0,4.7c0,0.7-0.4,0.9-0.6,0.9c-0.1,0-0.6,0-0.6-0.9
		c0,0,0-2.4,0-5.1h-2.4l1.9-6.8c0-0.1,0-0.5-0.1-0.5c-0.1,0-0.4,0-0.5,0.4l-1.1,3.7c-0.1,0.4-0.4,0.6-0.7,0.5
		c-0.4,0-0.5-0.4-0.4-0.7l1.2-4.1c0.1-0.6,0.6-1.7,2.2-1.7H1192z"/>
</g>
<path fill="#CCCCCC" d="M1299,311.8h-10.6l0,0h-2.9l0,0v10.6h2.9h1.2c4.7-0.6,8.7-4.5,9.2-9.2L1299,311.8v1.2
	c-0.5,4.7-4.5,8.6-9.2,9.2h-1.2l0,0v30.4h4l0,0v3.9h31v-54.8h-31.2v3.9h-4v5.9L1299,311.8L1299,311.8z"/>
<path fill="#CCCCCC" d="M1186.1,295.9h-4.5v2.5h-1.5v13h2.6v0.9h9.9v-0.9h4.5v-15.7h-0.9v-0.6h-10l0,0l0,0L1186.1,295.9
	L1186.1,295.9z M1186.1,297.1c0.6,4.5,4.1,8,8.6,8.6h1.3v-9.9v9.9h-1.3C1190.2,305.2,1186.7,301.5,1186.1,297.1v-1.2V297.1z"/>
<path fill="#CCCCCC" d="M1219.6,301.5h-0.7v-5.7h-20.3v15.7h20.3V310h0.7V301.5L1219.6,301.5z M1219,309.9h-8.3v-1.2
	c0.6-3.7,3.4-6.5,7.1-7.1h1.2h-1.2c-3.7,0.6-6.6,3.4-7.1,7.1v1.2H1219z"/>
<polygon fill="#CCCCCC" points="1221.6,295.9 1220.4,295.9 1220.4,301.5 1219.6,301.5 1219.6,309.9 1220.4,309.9 1220.4,311.6 
	1221.9,311.6 1221.9,312.2 1231.8,312.2 1231.8,311.6 1234.5,311.6 1234.5,298.2 1232.8,298.2 1232.8,295.9 1231.6,295.9 
	1231.6,295.1 1221.6,295.1 1221.6,295.1 "/>
<path fill="#CCCCCC" d="M1071.6,203.4c0.6-5.2,4.8-9.5,10.4-10.4h1.3h-1.3C1076.5,193.6,1072,198,1071.6,203.4v1.3l0,0v0.9h11.7
	v-0.9h1.7V179h-11.1v-1.1h-11.7v1.1l0,0v1.3c0.7,5.3,4.7,9.4,10.4,10.4h1.3V179v11.7h-1.3c-5.3-0.7-9.4-4.7-10.4-10.4V179h-1.7v1.5
	l0,0h-2.8v22.2h2.6l0,0v1.9h11.2v-1.3h0.1L1071.6,203.4L1071.6,203.4z M1082.9,204.8V193V204.8z"/>
<path fill="#CCCCCC" d="M1042.3,228.6L1042.3,228.6v1.3c0.6,4.6,4.1,8,8.6,8.6h1.2v-10v10h-1.2c-4.6-0.6-8-4.1-8.6-8.6V228.6h-13.8
	v54.9h33.7v-54.9h-9.8v-0.7h-9.9l0,0L1042.3,228.6L1042.3,228.6z"/>
<path fill="#CCCCCC" d="M989.7,276.8h0.7v7.4h36.7v-55.3h-33.9v2.6h-2.6v0.6h10l-0.1,1.2c-0.6,4.6-4.1,8-8.6,8.6h-1.3h1.3
	c4.6-0.6,8-4.1,8.6-8.6v-1.2h-10l0,0h-0.8v9.9h0.7v24.6h1.3c4.6,0.7,8,4.1,8.6,8.6v1.3v-1.3c-0.6-4.6-4.1-8-8.6-8.6h-1.3l0,0h-0.7
	l0,0l0,0V276.8L989.7,276.8z M1000.3,276.8h-10H1000.3z"/>
<polygon fill="#CCCCCC" points="932.7,291.8 933.7,291.8 933.7,291.8 933.7,295.3 965.4,295.3 965.4,268.1 965.4,268.1 965.4,268.1 
	965.4,257.8 965.4,257.8 965.4,257.8 965.4,227.2 966.2,227.2 966.2,226.2 966.2,226.2 955.8,226.2 955.8,227.2 965.4,227.2 
	955.8,227.2 955.8,227.2 955.8,227.2 955.8,226.2 933.7,226.2 933.7,234.1 932.7,234.1 932.7,234.9 927.7,234.9 927.7,290.8 
	932.7,290.8 "/>
<path fill="#CCCCCC" d="M990.4,361h2.6H990.4L990.4,361h2.6l0,0l0,0l0,0v3.9h-2.6v13.9h52.2v0.7h9.9v-0.7h9.3v-93.1h-71.5v8.6h2.6
	l0,0v4h-2.6v1.7h11.7h-11.7l0,0h-0.7v11.7h0.7L990.4,361L990.4,361z M990.4,311.6h1.3c5.2-0.5,9.5-5.1,10.4-10.4v-1.3v1.3
	c-0.5,5.2-5.1,9.5-10.4,10.4H990.4z"/>
<path fill="#CCCCCC" d="M1042.7,380L1042.7,380v10h1.2c4.6-0.6,8-4.1,8.6-8.6v-1.3v1.3c-0.6,4.6-4.1,8-8.6,8.6h-1.2l0,0l0,0V380
	h-52.2v31.8h52.1v0.7h10v-0.7h9.3V380h-9.3v-0.7h-9.9V380z"/>
<path fill="#CCCCCC" d="M990.4,425.7v1.7h2.6l0,0v4l0,0h-2.6v30.9h11.2v0.7l0,0h8.3v-0.7h52.1v-48.6h-9.2v-0.8h-10.1v0.7l0,0v1.2
	c0.6,4.6,4,8,8.6,8.6h1.3v-9.8v9.9h-1.3c-4.6-0.6-8-4-8.6-8.6v-1.2h-52.1v0.6h11.7h-11.7l0,0h-0.7V426h0.7v-0.4h-0.1v0.1H990.4z
	 M991.7,425.7c5.2-0.6,9.5-4.8,10.4-10.4V414v1.3C1001.4,420.6,996.9,425,991.7,425.7h-1.3H991.7z"/>
<path fill="#CCCCCC" d="M990.4,494h2.6H990.4L990.4,494h2.6l0,0l0,0l0,0v1.2h42.9v-13.4h0.6v-9.3h-0.6v-8.8h-26.2V463h-8.3v0.7l0,0
	v8.3h1.2c3.5-0.5,6.6-3.4,7.1-7.1v-1.2v1.2c-0.5,3.7-3.4,6.6-7.1,7.1h-1.2v-8.3h-11.2v11.1h-0.7v9.9h0.7L990.4,494L990.4,494z
	 M1026.7,480.6c0.6-4.2,3.9-7.5,8.1-8.1h1.2h-1.2C1030.7,473.1,1027.3,476.2,1026.7,480.6v1.2h9.4h-9.4V480.6z"/>
<polygon fill="#CCCCCC" points="1037.2,481.8 1037.2,492.3 1060.8,492.3 1060.8,465 1037.2,465 1037.2,472.5 1036.6,472.5 
	1036.6,481.8 "/>
<path fill="#CCCCCC" d="M990.4,518.1v42.8h2.6l0,0l0,0v3.9h-2.6v13.9h51.6v0.7h8.3v-0.7h11.7v-81.9h-69v1.2h-2.6v8.3h11.7h-11.7l0,0
	h-0.7V518L990.4,518.1L990.4,518.1z M991.7,518c5.2-0.6,9.5-4.8,10.4-10.4v-1.3v1.3C1001.4,513,996.9,517.5,991.7,518h-1.3H991.7z"
	/>
<path fill="#CCCCCC" d="M1025.7,589.7v-9.3h-35.2v5.8h10v1.3c-0.6,4.6-4.1,8-8.6,8.6h-1.3h1.3c4.6-0.7,8-4.1,8.6-8.6v-1.3h-10l0,0
	h-0.8v10h0.7v31.5h2.6l0,0l0,0v1.2h25.2v0.6h6.8v-0.6h0.6v-29.2h0.7l0,0v-9.9L1025.7,589.7L1025.7,589.7z M1025.1,628.8V622h-1.1
	c-2.8,0.4-5.2,2.8-5.4,5.4v1.1v-0.9c0.5-2.8,2.8-5.2,5.4-5.4h1.1V628.8z M1015.6,590.9c0.6,4.6,4,8,8.6,8.6h1.3h-1.3
	C1019.8,598.9,1016.3,595.5,1015.6,590.9v-1.2h10h-10V590.9z"/>
<path fill="#CCCCCC" d="M1041.8,580.3L1041.8,580.3v8.3h1.2c3.7-0.5,6.5-3.4,7.1-7.1v-1.2v1.2c-0.6,3.7-3.4,6.6-7.1,7.1h-1.2V580.3
	h-14.9v9.3h-0.7v9.9h0.7v29.2h35v-48.6h-11.7v-0.9h-8.3L1041.8,580.3L1041.8,580.3z"/>
<path fill="#CCCCCC" d="M990.4,662.2h40.9v-0.6h0.7v-10h-0.7V630h-6v-0.6h-6.8v0.6h-25.3v1.2h-2.6v17.4h1.3
	c5.2,0.6,9.5,4.8,10.4,10.4v1.3V659c-0.5-5.2-4.8-9.5-10.4-10.4h-1.3l0,0h-0.7v11.7h0.7v1.8h-0.1v0.1H990.4z M1021.3,660.4
	c0.6-4.6,4.1-8,8.6-8.6h1.3h-1.3C1025.4,652.3,1021.9,655.9,1021.3,660.4v1.2h10h-10V660.4z M990.4,660.5h11.7H990.4z"/>
<polygon fill="#CCCCCC" points="1032.6,661.5 1032.6,662.2 1061.8,662.2 1061.8,630.1 1032.6,630.1 1032.6,651.6 1031.9,651.6 
	1031.9,661.5 "/>
<polygon fill="#CCCCCC" points="990.4,683.2 990.4,694.2 992.9,694.2 992.9,694.2 992.9,694.2 992.9,698.1 990.4,698.1 990.4,713.6 
	1061.8,713.6 1061.8,663.9 990.4,663.9 990.4,673.2 989.7,673.2 989.7,683.2 "/>
<polygon fill="#496CB4" points="1062,830.2 1062,714.9 990.5,714.9 990.5,735.6 989.8,735.6 989.8,745.7 990.5,745.7 990.5,761 
	993.1,761 993.1,761 993.1,761 993.1,764.9 990.5,764.9 990.5,827.5 993.1,827.5 993.1,827.5 993.1,827.5 993.1,830.2 1036.5,830.2 
	1036.5,830.9 1046.5,830.9 1046.5,830.2 "/>
<rect x="1118.7" y="760.7" fill="#CCCCCC" width="4" height="5.4"/>
<polygon fill="#CCCCCC" points="1122.5,699.5 1122.5,693.8 1122.5,699.5 1122.5,699.5 1122.5,699.5 1122.5,699.5 1122.5,699.5 
	1118.7,699.5 1118.7,693.8 1122.5,693.8 1118.7,693.8 1118.7,699.5 "/>
<polygon fill="#CCCCCC" points="1118.7,427 1122.5,427 1122.5,432.5 1122.5,432.5 1122.5,432.5 1118.7,432.5 "/>
<polygon fill="#CCCCCC" points="1118.7,493.7 1122.5,493.7 1122.5,499.5 1122.5,499.5 1122.5,499.5 1118.7,499.5 "/>
<polygon fill="#CCCCCC" points="1118.7,560.5 1122.5,560.5 1122.5,566.1 1122.5,566.1 1122.5,566.1 1118.7,566.1 "/>
<rect x="1118.7" y="627.1" fill="#CCCCCC" width="4" height="5.4"/>
<polygon fill="#CCCCCC" points="1232.9,762.7 1232.9,761 1232.9,761 1232.9,761 1234.5,761 1234.5,734.4 1180.1,734.4 1180.1,761 
	1181.7,761 1181.7,762.7 1190.6,762.7 1190.6,763.8 1207.2,763.8 1207.2,762.7 "/>
<polygon fill="#CCCCCC" points="1180.1,663.8 1180.1,694.2 1182,694.2 1182,694.2 1182,700.2 1182,700.2 1180.1,700.2 1180.1,732.3 
	1234.8,732.3 1234.8,698.4 1233,698.4 1233,698.4 1233,698.4 1233,694.4 1234.8,694.4 1234.8,663.8 1215.7,663.8 1215.7,662.9 
	1198.9,662.9 1198.9,663.8 "/>
<path fill="#CCCCCC" d="M1231.6,583v-19.2h-49.7v1.2l0,0h-1.8v62.6h1.7l0,0v3.9l0,0h-1.7v30.4h19v0.7h16.7v-0.7h19.2v-30.6h-1.7
	v-0.8h-1.5v-20.6h0.4V583l0,0H1231.6L1231.6,583z M1207.2,660.9c-0.5-3.7-3.4-6.6-7.1-7.1h-1.2v8.3v-8.3h1.2
	C1203.6,654.5,1206.8,657.3,1207.2,660.9v1.2V660.9z M1215.7,662.1v-8.3h-1.2c-3.7,0.6-6.6,3.4-7.1,7.1v1.2v-1.2
	c0.6-3.7,3.4-6.5,7.1-7.1h1.2V662.1z"/>
<polygon fill="#CCCCCC" points="1231.6,516 1231.6,496.4 1182,496.4 1182,497.6 1182,497.6 1182,497.6 1180.1,497.6 1180.1,561 
	1182,561 1182,561 1182,562.2 1231.6,562.2 1231.6,542.6 1231.8,542.6 1231.8,516 1231.8,516 "/>
<path fill="#CCCCCC" d="M1198.9,446.6v-16h-17.1v1.2l0,0h-1.8v14.5h9.5v1.2c-0.6,4.5-4,7.8-8.4,8.3h-1.2h1.2c4.5,0.6,7.7,4,8.4,8.3
	v1.2h-9.5v28.6h1.8h-1.8l0,0h1.8v1.2l0,0v-1.2v1.2h49.7v-15.7h0.4V446l0,0L1198.9,446.6L1198.9,446.6z"/>
<path fill="#CCCCCC" d="M966.4,791.2h-0.7l0,0h-9.9v1.2c0.5,4.5,4.2,8,8.6,8.6h1.2h-1.2c-4.5-0.6-8.1-4.1-8.6-8.6v-1.2h9.9v-8h-13
	v9.9h-1.3c-4.6-0.6-8-4-8.6-8.6v-1.2l0,0h-13v40.2v0.6h4.6l0,0l0,0v5.1H966v-27.7h0.7L966.4,791.2L966.4,791.2z"/>
<path fill="#CCCCCC" d="M942.6,782.7h10V782h13v-18.7h0.7v-9.9l0,0h-0.7l0,0h-9.9v1.2c0.6,4.5,4.1,8,8.6,8.6h1.2h-1.2
	c-4.5-0.6-8-4.1-8.6-8.6v-1.2h9.9v-14h-1.7v-0.7H954v0.7h-23.3v4.5h-1.3v9.3v4h4.6v11.3v0.4h-4.5v0.4v13h13L942.6,782.7L942.6,782.7
	z"/>
<path fill="#CCCCCC" d="M925.5,711.9v10.6h3.9v15.4h24.5v0.7h9.9v-0.7h1.8v-12h0.7V716l0,0h-0.7l0,0h-9.9v1.2
	c0.5,4.5,4.2,8.1,8.6,8.6h1.2h-1.2c-4.5-0.6-8.1-4.1-8.6-8.6V716h9.9v-13.9h-36.4v4.1v5.7L925.5,711.9L925.5,711.9z M963.7,737.8
	v-9.9V737.8z M954,736.5c0.6-4.5,4.1-8,8.6-8.6h1.2h-1.2C958.1,728.5,954.3,732,954,736.5v1.2V736.5z"/>
<path fill="#CCCCCC" d="M925.5,722.4v-10.6h-3.9l0,0H911v1.2c0.6,4.7,4.5,8.7,9.2,9.2h1.2h-1.2c-4.7-0.5-8.7-4.5-9.2-9.2v-1.2h10.6
	v-5.7h-3.8v-4h-30.6v54.8h30.6V753l0,0h3.9v-30.9L925.5,722.4L925.5,722.4z"/>
<path fill="#CCCCCC" d="M965.5,667.9h0.7V658l0,0h-0.7l0,0h-9.9v1.2c0.5,4.5,4.2,8.1,8.6,8.6L965.5,667.9h-1.2
	c-4.5-0.5-8.1-4.2-8.6-8.6v-1.2h9.9v-56.6h0.7v-10.4l0,0h-0.6v-27.9h-31.6v5.2h-4.6v26.9h18.2v-7.4h1.3v16h-1.3v-7.1h-18.3v27.1h4.6
	l0,0l0,0l0,0l0,0v5.1h13.8v-7.2h1.3v16h-1.3v-7.1H934v5.2h-4.6v26.8h18.3v-7.4h1.3V671h-1.3v-7.2h-18.3v26.9h4.6V701h31.7v-32.9
	h-0.1L965.5,667.9L965.5,667.9z"/>
<path fill="#CCCCCC" d="M958.9,536.8h-1.8v9.9h-1.2c-4.6-0.6-8-4-8.6-8.6v-1.2h-3.4v-6.6h-14.6v27.1h4.6l0,0l0,0l0,0v5.1h25V536.8
	L958.9,536.8z"/>
<polygon fill="#CCCCCC" points="945.4,535.3 947.3,535.3 947.3,536 957.3,536 957.3,536 957.3,535.3 965.5,535.3 965.5,534.7 
	966.4,534.7 966.4,524.8 966.4,524.8 965.5,524.8 965.5,497.1 933.8,497.1 933.8,502.2 933.8,502.2 929.5,502.2 929.5,528.9 
	945.4,528.9 "/>
<path fill="#CCCCCC" d="M965.5,471.3h-1.2v-0.7h-9.9v0.7l0,0v1.2c0.6,4.5,4.1,8,8.6,8.6h1.2v-10v9.9H963c-4.5-0.6-8-4.1-8.6-8.6
	v-1.2H951V464h-21.6v26.9h4.5l0,0l0,0v5.1h31.8v-24.6h-0.2V471.3z"/>
<path fill="#CCCCCC" d="M951,455.4h3.4v0.7h9.9v-0.7h1.2v-25h-31.7v5.2l0,0h-4.4V462H951V455.4L951,455.4z M954.3,454
	c0.5-4.5,4.2-8.1,8.6-8.6h1.2v9.9v-9.8h-1.2C958.7,445.7,954.9,449.6,954.3,454v1.2V454z"/>
<polygon fill="#CCCCCC" points="965.5,401.3 966.4,401.3 966.4,391.2 966.4,391.2 965.5,391.2 965.5,363.5 933.8,363.5 933.8,368.6 
	933.8,368.6 929.5,368.6 929.5,423.9 933.8,423.9 933.8,423.9 933.8,423.9 933.8,429 965.5,429 "/>
<path fill="#CCCCCC" d="M928.3,347v-10.6h-0.7v-30.6h-4l0,0v-3.9h-31.1v55h31v-4l0,0h3.9V347H928.3L928.3,347z M927.6,347H917v-1.2
	c0.6-4.7,4.5-8.7,9.2-9.2h1.2h-1.2c-4.7,0.6-8.6,4.5-9.2,9.2v1.2H927.6z"/>
<polygon fill="#CCCCCC" points="965.5,334.5 966.4,334.5 966.4,324.6 965.5,324.6 965.5,297.1 933.7,297.1 933.7,302 933.7,302 
	929,302 929,305.8 929,336.6 928.3,336.6 928.3,347 929,347 929,353.1 929,357.1 933.7,357.1 933.7,357.1 933.7,362.1 933.8,362.1 
	933.8,362.1 965.5,362.1 "/>
<path fill="#CCCCCC" d="M1288.4,706.2v5.9h10.6v1.2c-0.5,4.7-4.5,8.7-9.2,9.2h-1.2h1.2c4.7-0.5,8.7-4.5,9.2-9.2v-1.2h-10.6l0,0h-2.9
	l0,0v10.6h2.9v30.4h4l0,0v3.9h31v-54.8h-31v3.9l0,0L1288.4,706.2L1288.4,706.2z"/>
<rect x="1191" y="290" fill="#CCCCCC" width="0" height="10"/>
<polygon fill="#CCCCCC" points="1182,428.3 1182,428.3 1182,428.3 1182,429.6 1202.5,429.6 1202.5,430 1214.1,430 1214.1,429.6 
	1232.9,429.6 1232.9,428.3 1234.8,428.3 1234.8,373.1 1180.1,373.1 1180.1,428.3 1182,428.3 1180.1,428.3 1180.1,428.3 "/>
<g>
	
		<text transform="matrix(1 0 0 1 1013.1228 769.8212)" fill="#FFFFFF" font-family="'TradeGothic-BoldCondTwenty'" font-size="12.9232">1471</text>
</g>
<g>
	<path fill="#989798" d="M1123.1,140.3v62.9h56.1v1.1h60.2l0.4,24.8l2.9,542.1l-62-0.7l-1.2,73v13.3h-56.1V918h-68.5v-61h-92.6
		l-0.5-32.1h-36.7v-56.1h-4v-0.9h-0.9v-4.2h-42.1V697h42v-4.5h1.1v-1.1h4V557.8v-66.6l0,0v-66.6l0,0V369h-4v-1h-1.1v-4.5h-42v-66.7
		h42v-4.2h1.1v-0.9h4v-55.8h-4v-1.1h-1.1v-2.5v-28.6l134.7-0.1v-22.3v-40.9L1123.1,140.3 M1130.3,133.1h-7.2h-68.2h-7.2v7.2v40.8
		v15.1H920.3h-7.2v7.2V232v2.5v7.2h1.1v1.1h4v41.4h-4v0.9h-1.1v4.2h-35h-7.2v7.2v66.7v7.2h7.2H913v4.5h1.1v0.9h4v48.6V491v66.6V684
		h-4v1.1H913v4.5h-34.8H871v7.2v66.6v7.2h7.2H913v4.2h1.1v0.9h4v49v7.2h7.2h29.4l0.5,25l0.1,7.1h7.1h85.5v53.9v7.2h7.2h68.1h7.2
		v-7.2v-54h48.8h7.2v-7.2v-13.3l1.2-65.7l54.9,0.6h7.4v-7.4l-2.9-542.1l0,0l0,0l-0.4-24.8v-7h-7.1h-53v-1.1h-7.2h-48.7v-55.6v-7.1
		L1130.3,133.1L1130.3,133.1L1130.3,133.1z"/>
</g>
<polygon fill="#496CB4" points="1254.2,217.1 1265.8,210.8 1265.6,223.9 "/>
<polygon fill="#496CB4" points="906,216.2 894.5,222.8 894.5,209.7 "/>
<polygon fill="#496CB4" points="951.7,842.7 940.6,849.3 940.6,836.1 "/>
<rect x="1083.7" y="147" opacity="0.6" fill="#496CB4" enable-background="new    " width="1.8" height="10.4"/>
<rect x="1080.6" y="147" opacity="0.6" fill="#496CB4" enable-background="new    " width="1.8" height="10.4"/>
<rect x="1077.5" y="147" opacity="0.6" fill="#496CB4" enable-background="new    " width="1.8" height="10.4"/>
<rect x="1074.3" y="147" opacity="0.6" fill="#496CB4" enable-background="new    " width="1.8" height="10.4"/>
<rect x="1071.4" y="147" opacity="0.6" fill="#496CB4" enable-background="new    " width="1.8" height="10.4"/>
<rect x="1068.3" y="147" opacity="0.6" fill="#496CB4" enable-background="new    " width="1.8" height="10.4"/>
<rect x="1065.3" y="147" opacity="0.6" fill="#496CB4" enable-background="new    " width="1.8" height="10.4"/>
<rect x="1062.2" y="147" opacity="0.6" fill="#496CB4" enable-background="new    " width="1.8" height="10.4"/>
<rect x="1083.7" y="158" opacity="0.6" fill="#496CB4" enable-background="new    " width="1.8" height="10.4"/>
<rect x="1080.6" y="158" opacity="0.6" fill="#496CB4" enable-background="new    " width="1.8" height="10.4"/>
<rect x="1077.5" y="158" opacity="0.6" fill="#496CB4" enable-background="new    " width="1.8" height="10.4"/>
<rect x="1074.3" y="158" opacity="0.6" fill="#496CB4" enable-background="new    " width="1.8" height="10.4"/>
<rect x="1071.4" y="158" opacity="0.6" fill="#496CB4" enable-background="new    " width="1.8" height="10.4"/>
<rect x="1068.3" y="158" opacity="0.6" fill="#496CB4" enable-background="new    " width="1.8" height="10.4"/>
<rect x="1065.3" y="158" opacity="0.6" fill="#496CB4" enable-background="new    " width="1.8" height="10.4"/>
<rect x="1062.2" y="158" opacity="0.6" fill="#496CB4" enable-background="new    " width="1.8" height="10.4"/>
<rect x="1108.3" y="147" opacity="0.6" fill="#496CB4" enable-background="new    " width="1.8" height="10.4"/>
<rect x="1105.2" y="147" opacity="0.6" fill="#496CB4" enable-background="new    " width="1.8" height="10.4"/>
<rect x="1102.2" y="147" opacity="0.6" fill="#496CB4" enable-background="new    " width="1.8" height="10.4"/>
<rect x="1099.1" y="147" opacity="0.6" fill="#496CB4" enable-background="new    " width="1.8" height="10.4"/>
<rect x="1095.9" y="147" opacity="0.6" fill="#496CB4" enable-background="new    " width="1.8" height="10.4"/>
<rect x="1093" y="147" opacity="0.6" fill="#496CB4" enable-background="new    " width="1.8" height="10.4"/>
<rect x="1089.9" y="147" opacity="0.6" fill="#496CB4" enable-background="new    " width="1.8" height="10.4"/>
<rect x="1086.6" y="147" opacity="0.6" fill="#496CB4" enable-background="new    " width="1.8" height="10.4"/>
<rect x="1108.3" y="158" opacity="0.6" fill="#496CB4" enable-background="new    " width="1.8" height="10.4"/>
<rect x="1105.2" y="158" opacity="0.6" fill="#496CB4" enable-background="new    " width="1.8" height="10.4"/>
<rect x="1102.2" y="158" opacity="0.6" fill="#496CB4" enable-background="new    " width="1.8" height="10.4"/>
<rect x="1099.1" y="158" opacity="0.6" fill="#496CB4" enable-background="new    " width="1.8" height="10.4"/>
<rect x="1095.9" y="158" opacity="0.6" fill="#496CB4" enable-background="new    " width="1.8" height="10.4"/>
<rect x="1093" y="158" opacity="0.6" fill="#496CB4" enable-background="new    " width="1.8" height="10.4"/>
<rect x="1089.9" y="158" opacity="0.6" fill="#496CB4" enable-background="new    " width="1.8" height="10.4"/>
<rect x="1086.6" y="158" opacity="0.6" fill="#496CB4" enable-background="new    " width="1.8" height="10.4"/>
<rect x="1087.7" y="886.4" opacity="0.6" fill="#496CB4" enable-background="new    " width="1.8" height="10.5"/>
<rect x="1084.6" y="886.4" opacity="0.6" fill="#496CB4" enable-background="new    " width="1.8" height="10.5"/>
<rect x="1081.5" y="886.4" opacity="0.6" fill="#496CB4" enable-background="new    " width="1.8" height="10.5"/>
<rect x="1078.3" y="886.4" opacity="0.6" fill="#496CB4" enable-background="new    " width="1.8" height="10.5"/>
<rect x="1075.4" y="886.4" opacity="0.6" fill="#496CB4" enable-background="new    " width="1.8" height="10.5"/>
<rect x="1072.3" y="886.4" opacity="0.6" fill="#496CB4" enable-background="new    " width="1.8" height="10.5"/>
<rect x="1069.3" y="886.4" opacity="0.6" fill="#496CB4" enable-background="new    " width="1.8" height="10.5"/>
<rect x="1066.1" y="886.4" opacity="0.6" fill="#496CB4" enable-background="new    " width="1.8" height="10.5"/>
<rect x="1087.7" y="897.4" opacity="0.6" fill="#496CB4" enable-background="new    " width="1.8" height="10.5"/>
<rect x="1084.6" y="897.4" opacity="0.6" fill="#496CB4" enable-background="new    " width="1.8" height="10.5"/>
<rect x="1081.5" y="897.4" opacity="0.6" fill="#496CB4" enable-background="new    " width="1.8" height="10.5"/>
<rect x="1078.3" y="897.4" opacity="0.6" fill="#496CB4" enable-background="new    " width="1.8" height="10.5"/>
<rect x="1075.4" y="897.4" opacity="0.6" fill="#496CB4" enable-background="new    " width="1.8" height="10.5"/>
<rect x="1072.3" y="897.4" opacity="0.6" fill="#496CB4" enable-background="new    " width="1.8" height="10.5"/>
<rect x="1069.3" y="897.4" opacity="0.6" fill="#496CB4" enable-background="new    " width="1.8" height="10.5"/>
<rect x="1066.1" y="897.4" opacity="0.6" fill="#496CB4" enable-background="new    " width="1.8" height="10.5"/>
<rect x="1112.2" y="886.4" opacity="0.6" fill="#496CB4" enable-background="new    " width="1.8" height="10.5"/>
<rect x="1109.2" y="886.4" opacity="0.6" fill="#496CB4" enable-background="new    " width="1.8" height="10.5"/>
<rect x="1106.2" y="886.4" opacity="0.6" fill="#496CB4" enable-background="new    " width="1.8" height="10.5"/>
<rect x="1102.9" y="886.4" opacity="0.6" fill="#496CB4" enable-background="new    " width="1.8" height="10.5"/>
<rect x="1099.9" y="886.4" opacity="0.6" fill="#496CB4" enable-background="new    " width="1.8" height="10.5"/>
<rect x="1097" y="886.4" opacity="0.6" fill="#496CB4" enable-background="new    " width="1.8" height="10.5"/>
<rect x="1093.7" y="886.4" opacity="0.6" fill="#496CB4" enable-background="new    " width="1.8" height="10.5"/>
<rect x="1090.6" y="886.4" opacity="0.6" fill="#496CB4" enable-background="new    " width="1.8" height="10.5"/>
<rect x="1112.2" y="897.4" opacity="0.6" fill="#496CB4" enable-background="new    " width="1.8" height="10.5"/>
<rect x="1109.2" y="897.4" opacity="0.6" fill="#496CB4" enable-background="new    " width="1.8" height="10.5"/>
<rect x="1106.2" y="897.4" opacity="0.6" fill="#496CB4" enable-background="new    " width="1.8" height="10.5"/>
<rect x="1102.9" y="897.4" opacity="0.6" fill="#496CB4" enable-background="new    " width="1.8" height="10.5"/>
<rect x="1099.9" y="897.4" opacity="0.6" fill="#496CB4" enable-background="new    " width="1.8" height="10.5"/>
<rect x="1097" y="897.4" opacity="0.6" fill="#496CB4" enable-background="new    " width="1.8" height="10.5"/>
<rect x="1093.7" y="897.4" opacity="0.6" fill="#496CB4" enable-background="new    " width="1.8" height="10.5"/>
<rect x="1090.6" y="897.4" opacity="0.6" fill="#496CB4" enable-background="new    " width="1.8" height="10.5"/>
<g>
	<rect x="954.2" y="832.1" fill="#FFFFFF" width="9.3" height="21.5"/>
	<path fill="#CCCCCC" d="M956.9,834c0.6,4.5,4,7.8,8.4,8.3h0.9v-9.5h-9.3L956.9,834L956.9,834z"/>
	<path fill="#CCCCCC" d="M956.9,851.4v1.2h9.3v-9.5h-0.9C961.1,843.6,957.6,847.1,956.9,851.4z"/>
</g>
<g>
	<path fill="#CCCCCC" d="M957.1,205.8c0.6,4.5,4,7.8,8.4,8.3h0.9v-9.5H957L957.1,205.8z"/>
	<path fill="#CCCCCC" d="M957.1,223.3v1.2h9.3V215h-0.9C961.1,215.5,957.6,218.9,957.1,223.3z"/>
</g>
<rect x="1069" y="246.1" opacity="0.72" fill="#CCCCCC" enable-background="new    " width="82.4" height="574.2"/>
<rect x="912.7" y="206.7" fill="#FFFFFF" width="9.9" height="20.6"/>
<polygon fill="#496CB4" points="985,747.2 973.5,753.8 973.5,740.7 "/>
<polygon fill="#496CB4" points="1038.2,837.5 1044.8,849 1031.7,849 "/>
<rect x="1237.6" y="207.2" fill="#FFFFFF" width="9.9" height="20.6"/>
<g>
	<path fill="#CCCCCC" d="M1248.8,209c-0.6,4.5-4,7.8-8.4,8.3h-0.9v-9.5h9.3V209z"/>
	<path fill="#CCCCCC" d="M1248.8,226.6v1.2h-9.3v-9.5h0.9C1244.9,218.7,1248.2,222.1,1248.8,226.6z"/>
</g>
<rect x="1280.3" y="295.1" fill="none" stroke="#989798" stroke-width="10" stroke-miterlimit="10" width="50.2" height="67.5"/>
<rect x="1280.3" y="695.7" fill="none" stroke="#989798" stroke-width="10" stroke-miterlimit="10" width="50.2" height="67.5"/>
</svg>
