<?xml version="1.0" encoding="utf-8"?>
<!-- Generator: Adobe Illustrator 19.1.0, SVG Export Plug-In . SVG Version: 6.00 Build 0)  -->
<svg version="1.1" id="Layer_1" xmlns="http://www.w3.org/2000/svg" xmlns:xlink="http://www.w3.org/1999/xlink" x="0px" y="0px"
	 viewBox="0 0 612 792" style="enable-background:new 0 0 612 792;" xml:space="preserve">
<style type="text/css">
	.st0{opacity:0.62;fill:#CCCBCB;enable-background:new    ;}
	.st1{fill:#989798;}
	.st2{opacity:0.5;}
	.st3{font-family:'ArialMT';}
	.st4{font-size:15.3352px;}
	.st5{fill:#FFFFFF;}
	.st6{font-size:49.0728px;}
	.st7{opacity:0.25;fill:#989798;enable-background:new    ;}
	.st8{opacity:0.6;fill:#4A6DB4;enable-background:new    ;}
	.st9{fill:#4A6DB4;}
	.st10{font-family:'MyriadPro-Regular';}
	.st11{font-size:10.8322px;}
	.st12{fill:#CCCBCB;}
	.st13{font-size:11.0413px;}
	.st14{fill:#4A6DB4;stroke:#FFFFFF;stroke-miterlimit:10;}
</style>
<rect x="205.3" y="554" class="st0" width="237.9" height="28.1"/>
<path class="st0" d="M362,254.3L362,254.3c0.4-2.9,2.9-5.3,5.8-6c0,0,0,0,0.1,0h0.1c0.1,0,0.1,0,0.3,0c0.1,0,0.1,0,0.1,0.1v0.1v5.7
	l0,0v-12.8c0-0.1,0.1-0.1,0.1-0.1h31.6l-0.1-58.2h-31.6c-0.1,0-0.1-0.1-0.1-0.1v-57.1h-14.6v62.2v7.5V206v7.8v40.7h3.5h4.7v-0.2H362
	z"/>
<g>
	<g>
		<path class="st1" d="M431.5,576.5v3.9h0.7v6.4h-0.1v1.5h16.8v0.3v0.3h0.7v2.6h2v68.4l-45.4-7.8l0.7-3.6l-5.7-1l-0.7,3.5l-31.5-5.6
			v2.1h-12V646h-1.4l-2.3,14.2h-46.8h-2.9h-44.8h-2.9h-45.5v-2.9h-1v-59.2v-6.6h5.3v-2.9H248v-1h0.3v-0.3h6v0.3h0.3v1h1h2.1h13.4v-1
			v-1V580v-3.3h15v0.5h0.3h0.3v-0.5h18V588h2v-0.3h0.5h6h0.3v1.1h2.6v1.1h21.4v-1.1h15.3l1.5-1v-1h-1.7v-0.3v-6v-0.3h1v-3.3h18.6
			v-0.7h28.7v2.6h1h2.1h1v-2.6L431.5,576.5 M437.9,570.3h-6.3h-23.7h-6.3H373h-6.1v0.7h-12.2h-6.3v3.3h-1v6.3v0.3v2.4h-9.2h-6.1v1.1
			h-9.2v-1.1h-2.6v-1.1h-6.1h-0.3h-2.5v-4.6v-6.3H305h-12.8h-6.3h-15h-6.3v6.3v3.3v2.6h-4.3v-1.1H260v-0.3h-6.3h-5.6h-6.3v0.3h-0.3
			v1h-27.2H208v2.9h-5.3v6.1v6.6l0,0l0,0v59.2v6.3h1v2.9h6.3h45.7h2.9h44.8h2.9h46.8h5.1l0.8-5.1l1.1-7.8h8.2h6.3v-0.7l24.1,4.2l0,0
			l6.1,1l45.4,7.8l7.2,1.1v-7.2v-68.4V586h-2v-2.6h-0.7v-0.5h-6.3H438v-2v-6.3h-0.7L437.9,570.3L437.9,570.3z"/>
	</g>
</g>
<g class="st2">
	<g>
		<text transform="matrix(1 0 0 1 193.418 155.9693)" class="st1 st3 st4">Level </text>
	</g>
	<circle class="st1" cx="254.7" cy="153.5" r="25.9"/>
	<text transform="matrix(1 0 0 1 241.9375 171.6246)" class="st5 st3 st6">2</text>
</g>
<polygon class="st7" points="492.9,587.5 453.5,583.5 442.7,580.5 442.1,556 492.7,554.8 493,587.5 "/>
<rect x="468.8" y="569.5" class="st8" width="1.4" height="8.2"/>
<rect x="471.3" y="569.5" class="st8" width="1.4" height="8.2"/>
<rect x="473.5" y="569.5" class="st8" width="1.4" height="8.2"/>
<rect x="476.2" y="569.5" class="st8" width="1.4" height="8.2"/>
<rect x="478.7" y="569.5" class="st8" width="1.4" height="8.2"/>
<rect x="481.2" y="569.5" class="st8" width="1.4" height="8.2"/>
<rect x="483.4" y="569.5" class="st8" width="1.4" height="8.2"/>
<rect x="486.1" y="569.5" class="st8" width="1.4" height="8.2"/>
<rect x="468.8" y="560.7" class="st8" width="1.4" height="8.2"/>
<rect x="471.3" y="560.7" class="st8" width="1.4" height="8.2"/>
<rect x="473.5" y="560.7" class="st8" width="1.4" height="8.2"/>
<rect x="476.2" y="560.7" class="st8" width="1.4" height="8.2"/>
<rect x="478.7" y="560.7" class="st8" width="1.4" height="8.2"/>
<rect x="481.2" y="560.7" class="st8" width="1.4" height="8.2"/>
<rect x="483.4" y="560.7" class="st8" width="1.4" height="8.2"/>
<rect x="486.1" y="560.7" class="st8" width="1.4" height="8.2"/>
<rect x="458.9" y="569.5" class="st8" width="1.4" height="8.2"/>
<rect x="461.4" y="569.5" class="st8" width="1.4" height="8.2"/>
<rect x="463.9" y="569.5" class="st8" width="1.4" height="8.2"/>
<rect x="466.3" y="569.5" class="st8" width="1.4" height="8.2"/>
<rect x="458.9" y="560.7" class="st8" width="1.4" height="8.2"/>
<rect x="461.4" y="560.7" class="st8" width="1.4" height="8.2"/>
<rect x="463.9" y="560.7" class="st8" width="1.4" height="8.2"/>
<rect x="466.3" y="560.7" class="st8" width="1.4" height="8.2"/>
<polygon class="st9" points="353.6,214.9 351.3,214.9 351.3,214.4 349.6,214.4 349.6,215.9 352.3,215.9 352.3,220.4 349.6,220.4 
	349.6,219.2 336,219.2 336,202.2 336,185.4 349.6,185.4 349.6,184 352.3,184 352.3,188.4 349.6,188.4 349.6,202.2 349.6,207.7 
	351.3,207.7 351.3,207.2 353.6,207.2 353.6,197.2 351.1,197.2 351.1,189.7 353.6,189.7 353.6,182.7 351.6,182.7 333.5,182.7 
	333.5,221.7 351.6,221.7 353.6,221.7 "/>
<g>
	<g>
		<path class="st1" d="M352.3,184v4.5h-2.6v13.7v13.7h2.6v4.5h-2.6v-1.1H336v-17v-17h13.7v-1.1h2.6 M358.4,178h-6.3h-2.6h-6.3v1.1
			h-7.4h-6.3v6.3v17v17v6.3h6.3h7.4v1.1h6.3h2.6h6.3v-6.3V216v-6.3h-2.6v-7.5v-7.5h2.6v-6.1v-4.5V178L358.4,178z"/>
	</g>
</g>
<g>
	<path class="st1" d="M432.9,185.2c7.2,0,13.2,6,13.2,13.2v0.1c0,6.4-4.6,11.7-10.9,13.1l-35.2,6.6v-32.8h33 M432.9,178.9h-33.1
		h-6.3v6.3v32.6v7.4l7.2-1.4l35.2-6.6c9.3-1.5,15.9-9.6,15.9-18.8v-0.1C451.9,187.5,443.4,178.9,432.9,178.9L432.9,178.9z"/>
</g>
<polygon class="st8" points="423.4,198.7 423.3,209 421.9,209.4 422,198.7 "/>
<polygon class="st8" points="425.8,198.7 425.6,208.9 424.2,208.9 424.5,198.7 "/>
<polygon class="st8" points="428.4,198.7 428.1,208.5 426.6,208.7 426.9,198.7 "/>
<polygon class="st8" points="430.9,198.7 430.5,208.1 429.1,208.2 429.4,198.7 "/>
<polygon class="st8" points="433.2,198.7 433,207.9 431.5,207.9 431.9,198.7 "/>
<polygon class="st8" points="435.8,198.7 435.5,207.5 434.1,207.7 434.4,198.7 "/>
<polygon class="st8" points="438.3,198.7 438,207.1 436.3,207.2 436.8,198.7 "/>
<polygon class="st8" points="440.6,198.7 440.6,206.9 439,206.9 439.3,198.7 "/>
<rect x="422" y="189.9" class="st8" width="1.4" height="8.2"/>
<g>
	<polygon class="st9" points="375.9,496.4 375.9,512 388.4,512 388.4,508.9 388.4,507.7 388.4,501.4 388.4,496.3 	"/>
	<text transform="matrix(1 0 0 1 378.7712 506.7928)" class="st5 st10 st11">E</text>
</g>
<rect x="424.5" y="189.9" class="st8" width="1.4" height="8.2"/>
<rect x="426.9" y="189.9" class="st8" width="1.4" height="8.2"/>
<rect x="429.4" y="189.9" class="st8" width="1.4" height="8.2"/>
<rect x="431.9" y="189.9" class="st8" width="1.4" height="8.2"/>
<rect x="434.4" y="189.9" class="st8" width="1.4" height="8.2"/>
<rect x="436.8" y="189.9" class="st8" width="1.4" height="8.2"/>
<rect x="439.3" y="189.9" class="st8" width="1.4" height="8.2"/>
<polygon class="st8" points="403.6,198.7 403.6,211.9 402.4,212.1 402.4,198.7 "/>
<polygon class="st8" points="406.1,198.7 406.1,211.5 404.6,211.7 404.6,198.7 "/>
<polygon class="st8" points="408.8,198.7 408.5,211.2 407.1,211.4 407.1,198.7 "/>
<polygon class="st8" points="411.1,198.7 411,210.9 409.6,211.1 409.8,198.7 "/>
<polygon class="st8" points="413.5,198.7 413.4,210.7 412,210.7 412.1,198.7 "/>
<polygon class="st8" points="416.2,198.7 415.7,210 414.4,210.4 414.6,198.7 "/>
<polygon class="st8" points="418.5,198.7 418.4,209.7 417,209.9 417.3,198.7 "/>
<polygon class="st8" points="421,198.7 420.9,209.4 419.4,209.7 419.6,198.7 "/>
<rect x="402.4" y="189.9" class="st8" width="1.4" height="8.2"/>
<rect x="404.6" y="189.9" class="st8" width="1.4" height="8.2"/>
<rect x="407.1" y="189.9" class="st8" width="1.4" height="8.2"/>
<rect x="409.8" y="189.9" class="st8" width="1.4" height="8.2"/>
<rect x="412.1" y="189.9" class="st8" width="1.4" height="8.2"/>
<rect x="414.6" y="189.9" class="st8" width="1.4" height="8.2"/>
<rect x="417.3" y="189.9" class="st8" width="1.4" height="8.2"/>
<rect x="419.6" y="189.9" class="st8" width="1.4" height="8.2"/>
<g>
	<polygon class="st9" points="336.7,202.9 336.7,218.5 349.2,218.5 349.2,215.4 349.2,214.2 349.2,207.9 349.2,202.7 	"/>
	<text transform="matrix(1 0 0 1 339.5049 213.2887)" class="st5 st10 st11">E</text>
</g>
<path class="st9" d="M431.3,581.3L431.3,581.3L431.3,581.3c-0.2,0-0.2-0.1-0.2-0.1v-3.8h-25.3v2.3c0,0.1-0.1,0.1-0.1,0.1h-0.8v69.1
	l2,0.3l0,0l0,0l0,0c0.1,0,0.1,0.1,0.1,0.1l-0.5,3.3l44.7,7.8v-68.1h-1.7c-0.1,0-0.1-0.1-0.1-0.1v-2.5H449c-0.1,0-0.1-0.1-0.1-0.1
	v-0.3h-16.7c-0.1,0-0.1-0.1-0.1-0.1v-1.5c0-0.1,0.1-0.1,0.1-0.1h0.1V582h-0.1C431.5,581.7,431.3,581.3,431.3,581.3z"/>
<path class="st12" d="M373,264.7C373.1,264.7,373.1,264.7,373,264.7l0.1,3.3c0,0.1-0.1,0.1-0.1,0.1h-2.6v22.4h11.5v-0.3h-5.7
	c-0.1,0-0.1-0.1-0.1-0.1l0,0V290l0,0c0.1-3.2,2.8-5.7,6-6v-4h-3.8c-0.1,0-0.1-0.1-0.1-0.1v-0.8c0-0.1,0.1-0.1,0.1-0.1h15.5v-32.4
	h-19.1v2.1c0,0.1-0.1,0.1-0.1,0.1H371v7.1v9.2h2.1L373,264.7L373,264.7z"/>
<path class="st12" d="M413.1,278.2C413.2,278.2,413.2,278.3,413.1,278.2l0.1,0.9c0,0.1-0.1,0.1-0.1,0.1H405v3.9
	c3.5,0.1,6.1,2.8,6.1,6.3c0,0.1,0,0.1-0.1,0.1c0,0,0,0-0.1,0h-5.7l0,0H421v-21.6h-3.2c-0.1,0-0.1-0.1-0.1-0.1v-3.2
	c0-0.1,0.1-0.1,0.1-0.1h2v-18.8h-22.7V278L413.1,278.2L413.1,278.2z"/>
<path class="st12" d="M375.8,403.5C375.8,403.6,375.7,403.6,375.8,403.5l-0.4,0.1v11.5h0.3c0.1,0,0.1,0.1,0.1,0.1v8.2h16.7l-0.1-7.1
	l-0.1-14.5h-16.1v1.5h-0.3v0.2L375.8,403.5L375.8,403.5z"/>
<path class="st12" d="M400.9,393.8C400.9,393.8,401,393.8,400.9,393.8l0.1-39.7h-28.7v45.8h22.1C395,396.5,397.6,393.8,400.9,393.8z
	"/>
<path class="st12" d="M426.3,290.2C426.4,290.2,426.4,290.3,426.3,290.2l0.1,1.1c0,0.1-0.1,0.1-0.1,0.1h-11v4.3
	c3.5,0.1,6.1,2.8,6.1,6.3c0,0.1,0,0.1-0.1,0.1c0,0,0,0-0.1,0h-5.7l0,0h19.1v-12.8c0-0.1,0.1-0.1,0.1-0.1h15.6v-34.9v-0.1l0,0
	c0,0,0,0,0.1,0l0,0l2.5-0.1v-10.9h-21.7v2.6c0,0.1-0.1,0.1-0.1,0.1h-8.6v44L426.3,290.2L426.3,290.2z"/>
<path class="st12" d="M451.9,354.5h-42.3c-0.1,0-0.1-0.1-0.1-0.1v-0.3h-5.6v0.3c0,0.1-0.1,0.1-0.1,0.1h-0.1v40.4v-0.1
	c0-0.1,0.1-0.1,0.1-0.1c3.5,0,6.3,2.8,6.3,6.1h2.6v-0.7c0-0.1,0.1-0.1,0.1-0.1h3.9c0.1,0,0.1,0.1,0.1,0.1v0.7h0.5
	c0.1,0,0.1,0.1,0.1,0.1v0.3h23.4v-0.1c0-0.1,0.1-0.1,0.1-0.1h8.2h0.1v-2.3c0-0.1,0.1-0.1,0.1-0.1h1.7v-17.4h-1h-0.1v-0.1v-0.6
	c0,0,0,0,0-0.1l1.4-6.6l0,0v-19.2h0.6V354.5z"/>
<path class="st12" d="M441.8,402.5C441.7,402.5,441.7,402.4,441.8,402.5l-0.1-0.4h-23.4v0.3c0,0.1-0.1,0.1-0.1,0.1h-0.5v0.5
	c0,0.1-0.1,0.1-0.1,0.1h-4.2c-0.1,0-0.1-0.1-0.1-0.1v-0.5h-2.9c-0.1,0-0.1-0.1-0.1-0.1v-0.3h-5.6v0.3c0,0.1-0.1,0.1-0.1,0.1h-2.9
	c-0.1,0-0.1-0.1-0.1-0.1v-0.8H396v0.8c0,0.1-0.1,0.1-0.1,0.1h-2.1l0.3,21.7v17.1c0,0.1-0.1,0.1-0.1,0.1h-0.7v5.6h0.3
	c0.1,0,0.1,0.1,0.1,0.1v17c0,0.1-0.1,0.1-0.1,0.1h-0.3v5.6h0.3c0.1,0,0.1,0.1,0.1,0.1v2.1c0,0.1-0.1,0.1-0.1,0.1h-0.3v5.6h0.3
	c0.1,0,0.1,0.1,0.1,0.1v15.9h29.8c0.1,0,0.1,0.1,0.1,0.1v0.3h5.6v-0.3c0-0.1,0.1-0.1,0.1-0.1h2.1c0.1,0,0.1,0.1,0.1,0.1v0.3h5.6
	v-0.3c0-0.1,0.1-0.1,0.1-0.1h13.2l0,0c0,0,0,0,0-0.1l0,0c0,0,0,0,0.1,0h1.7v-17.7h-1l0,0l0,0l0,0l0,0l0,0l0,0l0,0l0,0v-0.3l1.4-6.8
	l0,0v-20.3h-1.7c-0.1,0-0.1-0.1-0.1-0.1v-2.6c0-0.1,0.1-0.1,0.1-0.1h1.7v-17.3h-1.5H451v-0.1l1.4-6.9v-19.2L441.8,402.5L441.8,402.5
	z"/>
<polygon class="st12" points="435.7,302.7 450.5,302.7 450.3,290.8 435.7,290.8 "/>
<path class="st12" d="M417.4,305.7C417.4,305.7,417.3,305.7,417.4,305.7l-1.7,0.1v3.9c0,0.1-0.1,0.1-0.1,0.1h-5.3
	c-0.1,0-0.1-0.1-0.1-0.1v-0.3h-5.6v0.3c0,0.1-0.1,0.1-0.1,0.1h-0.1v37.3V347c0-0.1,0.1-0.1,0.1-0.1c3.5,0,6.3,2.8,6.3,6.1h3.9v-3
	c0-0.1,0.1-0.1,0.1-0.1h2.6c0.1,0,0.1,0.1,0.1,0.1v2.9h32.8v-2.3c0-0.1,0.1-0.1,0.1-0.1h1.7v-17.4h-1l0,0l0,0l0,0l0,0l0,0l0,0l0,0
	l0,0V333l1.4-6.8l0,0v-19.5h-1.1h-0.1l0,0c0,0,0,0,0-0.1l0,0l-0.1-2.3h-33.3L417.4,305.7L417.4,305.7z"/>
<path class="st12" d="M355.6,361.2c-3.2-0.1-5.7-2.6-6-5.7c0,0,0,0,0-0.1v-0.3l0,0l0,0c0-0.1,0.1-0.1,0.1-0.1s0,0,0.1,0h5.7v-2
	h-17.4v0.3c0,0.1-0.1,0.1-0.1,0.1h-2.6v0.7c0,0.1-0.1,0.1-0.1,0.1h-0.8v6.4l0,0l0,0l0,0l0,0l0,0l0,0h-0.1h-4.3v14.3h25.7
	L355.6,361.2L355.6,361.2z"/>
<path class="st12" d="M338.1,351v0.3h17.4v-2.1h-5.7c-0.1,0-0.1-0.1-0.1-0.1l0,0V349l0,0c0.1-3.2,2.8-5.7,6-6v-14H330v14.3h4.3
	c0.1,0,0.1,0.1,0.1,0.1v6.4h0.8c0.1,0,0.1,0.1,0.1,0.1v0.8h2.6C337.9,350.8,338.1,351,338.1,351z"/>
<path class="st12" d="M338.1,399v0.3h17.4v-2.1h-5.7c-0.1,0-0.1-0.1-0.1-0.1l0,0v-0.3c0,0,0,0,0-0.1c0.1-3.2,2.8-5.7,6-5.7v-14H330
	v14.3h4.3h0.1l0,0l0,0l0,0l0,0l0,0l0,0v6.4h0.8c0.1,0,0.1,0.1,0.1,0.1v0.7h2.6C337.9,398.8,338.1,398.8,338.1,399z"/>
<path class="st12" d="M355.6,408.8c-3.2-0.1-5.7-2.6-6-5.7c0,0,0,0,0-0.1v-0.3l0,0l0,0c0-0.1,0.1-0.1,0.1-0.1s0,0,0.1,0h5.7v-2.1
	h-17.4v0.3c0,0.1-0.1,0.1-0.1,0.1h-2.6v0.8c0,0.1-0.1,0.1-0.1,0.1h-0.8v6.4v0.1h-0.1h-4.3v14.3h25.7L355.6,408.8L355.6,408.8z"/>
<path class="st12" d="M355.6,313.2c-3.2-0.1-5.7-2.6-6-5.7c0,0,0,0,0-0.1v-0.3l0,0l0,0c0-0.1,0.1-0.1,0.1-0.1s0,0,0.1,0h5.7v-1.9
	h-17.4v0.3c0,0.1-0.1,0.1-0.1,0.1h-2.6v0.8c0,0.1-0.1,0.1-0.1,0.1h-0.8v6.4l0,0l0,0l0,0l0,0l0,0l0,0l0,0l0,0l0,0h-4.4v14.3h25.7
	L355.6,313.2L355.6,313.2z"/>
<path class="st12" d="M431.5,501.5L431.5,501.5l-0.4,0.1c-0.1,0-0.1-0.1-0.1-0.1v-5.7l0,0v24.3h21.4V497h-1.7
	c-0.1,0-0.1-0.1-0.1-0.1v-1.1h-13.1C437.2,498.7,434.8,501.3,431.5,501.5z"/>
<path class="st12" d="M338.1,303.2v0.3h17.4v-2.1h-5.7c-0.1,0-0.1-0.1-0.1-0.1l0,0V301c0,0,0,0,0-0.1c0.1-3.2,2.8-5.7,6-5.7v-14H330
	v14.3h4.3c0.1,0,0.1,0.1,0.1,0.1v6.4h0.8c0.1,0,0.1,0.1,0.1,0.1v0.7h2.6C337.9,303,338.1,303,338.1,303.2z"/>
<path class="st12" d="M355.6,265.1c-3.2-0.1-5.7-2.6-6-5.7c0,0,0,0,0-0.1v-0.4l0,0l0,0c0-0.1,0.1-0.1,0.1-0.1s0,0,0.1,0h5.7v-2.1
	h-17.4v0.8c0,0.1-0.1,0.1-0.1,0.1h-2.6v0.7c0,0.1-0.1,0.1-0.1,0.1h-0.8v5.6v1c0,0.1-0.1,0.1-0.1,0.1h-4.3v14.3h25.7L355.6,265.1
	L355.6,265.1z"/>
<path class="st12" d="M338.1,446.8v0.3h17.4V445h-5.7c-0.1,0-0.1-0.1-0.1-0.1l0,0v-0.2l0,0c0.1-3.2,2.8-5.7,6-6v-13.8H330v14.2h4.3
	h0.1l0,0l0,0v0.1l0,0v6.4h0.8c0.1,0,0.1,0.1,0.1,0.1v0.8h2.6C337.9,446.5,338.1,446.5,338.1,446.8z"/>
<path class="st12" d="M369.8,528.1C369.9,528.1,369.9,528.2,369.8,528.1l0.1,0.2h0.1c0.1,0,0.1,0.1,0.1,0.1v0.3h18v-12h-1
	c-0.1,0-0.1-0.1-0.1-0.1l0,0h-10.2h-6.4v5c0,0.1-0.1,0.1-0.1,0.1h-0.1v0.1c0,0.1-0.1,0.1-0.1,0.1h-0.5v5.7L369.8,528.1L369.8,528.1z
	"/>
<path class="st12" d="M369.8,537.3C369.9,537.3,369.9,537.4,369.8,537.3l0.1,0.2h0.1c0.1,0,0.1,0.1,0.1,0.1v3.3h2.5
	c0.1,0,0.1,0.1,0.1,0.1v3.9c0,0.1-0.1,0.1-0.1,0.1h-2.5v8.1h18V530h-18v0.3c0,0.1-0.1,0.1-0.1,0.1h-0.1v0.1c0,0.1-0.1,0.1-0.1,0.1
	h-0.3v5.7h0.3V537.3z"/>
<path class="st12" d="M400.7,554.5C400.7,554.4,400.8,554.4,400.7,554.5l0.2-0.1v-0.1c0-0.1,0.1-0.1,0.1-0.1h1v-32.8h-12.8v32.8h4.7
	c0.1,0,0.1,0.1,0.1,0.1v0.3h0.1c0.1,0,0.1,0.1,0.1,0.1v0.1h5.6v-0.3H400.7z"/>
<path class="st12" d="M409.5,553.3L409.5,553.3V553c0,0,0,0,0-0.1c0.1-2.9,2.6-5.6,5.6-5.7c0,0,0,0,0-0.1v-4.3
	c0-0.1,0.1-0.1,0.1-0.1h11.4v-20.9h-22.7v32.3h6C409.6,553.5,409.5,553.5,409.5,553.3z"/>
<path class="st12" d="M403.6,302.7L403.6,302.7c0-0.1,0.1-0.3,0.1-0.3c3.5,0,6.3,2.8,6.3,6.1h3.6v-6.3c0-0.1,0.1-0.1,0.1-0.1h0.1
	v-5.6h-0.1c-0.1,0-0.1-0.1-0.1-0.1v-4.5h-9.9c-0.1,0-0.1-0.1-0.1-0.1v-1.5c0-0.1,0.1-0.1,0.1-0.1h0.1v-5.6h-0.1
	c-0.1,0-0.1-0.1-0.1-0.1v-1.8h-6.4c-0.1,0-0.1-0.1-0.1-0.1v-2.3h-7.4v2.3c0,0.1-0.1,0.1-0.1,0.1H383v1.7c0,0.1-0.1,0.1-0.1,0.1h-0.1
	v5.6h0.1c0.1,0,0.1,0.1,0.1,0.1v1.5c0,0.1-0.1,0.1-0.1,0.1h-14v10.9L403.6,302.7C403.5,302.7,403.6,302.7,403.6,302.7z"/>
<polygon class="st12" points="389.3,496.8 389.7,519.5 406.5,519.5 406.5,496.8 "/>
<path class="st12" d="M429.4,542.5h10.4c0.1,0,0.1,0.1,0.1,0.1v4.3c0,0,0,0,0,0.1c3.2,0.3,5.7,2.9,5.7,6.3c0,0.1,0,0.1-0.1,0.1
	c0,0,0,0-0.1,0h2.9v-0.3c0-0.1,0.1-0.1,0.1-0.1h3.8v-7.8h-2c-0.1,0-0.1-0.1-0.1-0.1v-3.2c0-0.1,0.1-0.1,0.1-0.1h2V522h-22.6
	L429.4,542.5L429.4,542.5z"/>
<path class="st12" d="M429.2,501.3C429.2,501.5,429.2,501.5,429.2,501.3c0,0.1-0.1,0.3-0.1,0.3h-0.3c0,0-0.1,0-0.1-0.1
	c-3.2-0.1-5.6-2.8-5.7-6h-5.6v1c0,0.1-0.1,0.1-0.1,0.1H408v21.3h0.8c0.1,0,0.1,0.1,0.1,0.1v1.7h20.5v-24.5l0,0L429.2,501.3
	L429.2,501.3z"/>
<path class="st12" d="M375.8,311.2C375.9,311.2,375.9,311.3,375.8,311.2c0.1,3.6-2.7,6.4-6,6.4v32h2.3c0.1,0,0.1,0.1,0.1,0.1v1.5
	h29.5v-47.6h-28.8v2c0,0.1-0.1,0.1-0.1,0.1h-2.6v5.3L375.8,311.2C375.7,311.2,375.7,311.2,375.8,311.2z"/>
<rect x="377" y="513.1" class="st12" width="11" height="2.6"/>
<path class="st12" d="M355.6,456.8c-3.2-0.1-5.7-2.6-6-5.7c0,0,0,0,0-0.1v-0.3l0,0l0,0c0-0.1,0.1-0.1,0.1-0.1s0,0,0.1,0h5.7v-2.1
	h-17.4v0.3c0,0.1-0.1,0.1-0.1,0.1h-2.6v0.7c0,0.1-0.1,0.1-0.1,0.1h-0.8v6.4l0,0v0.1l0,0l0,0h-0.1h-4.3v14.4h25.7L355.6,456.8
	L355.6,456.8z"/>
<path class="st12" d="M385.5,472.7L385.5,472.7v-0.5l0,0l0,0c0,0,0-0.1,0.1-0.1H370v0.7c0,0.1-0.1,0.1-0.1,0.1h-0.3v5.6h0.3
	c0.1,0,0.1,0.1,0.1,0.1V491v3.2h6.8h14.9v-15.8C388.3,478.3,385.7,475.8,385.5,472.7z"/>
<path class="st12" d="M385.5,470.1L385.5,470.1L385.5,470.1L385.5,470.1c0.1-3.3,2.8-5.8,6-6.1v-14.9h-18.1v0.8
	c0,0.1-0.1,0.1-0.1,0.1h-3.2v20.3h21.4l0,0h-6C385.5,470.3,385.5,470.1,385.5,470.1z"/>
<path class="st12" d="M338.1,494.5v0.3h17.1V491c0-0.1,0.1-0.1,0.1-0.1l0,0v-10.4c-3.2-0.1-5.7-2.6-6-5.7c0,0,0,0,0-0.1v-0.3l0,0
	l0,0c0-0.1,0.1-0.1,0.1-0.1s0,0,0.1,0h5.7v-1.7h-25.7v14.3h4.3h0.1v0.1v6.4h0.8c0.1,0,0.1,0.1,0.1,0.1v0.7h2.6
	C337.9,494.3,338.1,494.3,338.1,494.5z"/>
<path class="st12" d="M385.5,447.3L385.5,447.3V447c0,0,0,0,0-0.1c0.1-3.2,2.8-5.7,6-5.7v-15.6h-21.4v19.8h3.2
	c0.1,0,0.1,0.1,0.1,0.1v2.1h12.4C385.5,447.5,385.5,447.5,385.5,447.3z"/>
<path class="st12" d="M349.5,498.7C349.5,498.7,349.5,498.5,349.5,498.7v-0.3l0,0l0,0c0-0.1,0.1-0.1,0.1-0.1s0,0,0.1,0h5.6
	c0,0,0,0,0-0.1v-1.7h-17.1v0.3c0,0.1-0.1,0.1-0.1,0.1h-2.6v0.8c0,0.1-0.1,0.1-0.1,0.1h-0.8v6.4c0,0.1-0.1,0.1-0.1,0.1h-4.3v29.9h4.3
	l0,0l0,0l0,0l0,0l0,0l0,0l0,0v0.1l0,0v6.4h0.8c0.1,0,0.1,0.1,0.1,0.1v0.8h2.6c0.1,0,0.1,0.1,0.1,0.1v0.3h16.4v-1.4
	c0-0.1,0.1-0.1,0.1-0.1h0.5V504v-0.1C352.3,504.3,349.6,501.8,349.5,498.7z"/>
<path class="st9" d="M337.9,590v1c0,0.1-0.1,0.1-0.1,0.1h-21.4c-0.1,0-0.1-0.1-0.1-0.1v-1h-2.5c-0.1,0-0.1-0.1-0.1-0.1v-1h-0.1
	c-0.1,0-0.1-0.1-0.1-0.1v-0.1h-5.6v0.1c0,0.1-0.1,0.1-0.1,0.1h-0.3v0.1v2c0,0.1-0.1,0.1-0.1,0.1h-1.1v44.7h0.7
	c0.1,0,0.1,0.1,0.1,0.1v3.9c0,0.1-0.1,0.1-0.1,0.1h-0.7v18.8h0.7c0.1,0,0.1,0.1,0.1,0.1v1.7h46.1v-71.2h-14.9v0.7L337.9,590
	L337.9,590z"/>
<path class="st9" d="M368.7,646.3L368.7,646.3l26.3,4.6l4.6,0.8l0.5-3.3l0,0l0,0l0,0l0,0l0,0l0,0l0,0l0,0l0,0l0,0l1.1,0.1V580h-0.7
	c-0.1,0-0.1-0.1-0.1-0.1v-2.3h-28.1v0.3c0,0.1-0.1,0.1-0.1,0.1h-17.8v3.2c0,0.1-0.1,0.1-0.1,0.1h-0.7l0,0c0,0.1-0.1,0.1-0.1,0.1
	h-0.1v5.6h0.1c0.1,0,0.1,0.1,0.1,0.1l0,0h0.8c0.1,0,0.1,0.1,0.1,0.1v0.8h0.3c0,0,0,0,0.1,0l0,0c0,0,0,0,0,0.1l0,0l0,0l0,0v57.6h13.7
	L368.7,646.3L368.7,646.3z"/>
<path class="st12" d="M287,584C287.1,584,287.1,584.1,287,584l0.1,4.6h17.7v-10.9h-17.7v0.3c0,0.1-0.1,0.1-0.1,0.1h-0.1v5.6L287,584
	L287,584z"/>
<path class="st12" d="M264.3,586.8h5.7c0.1,0,0.1,0.1,0.1,0.1v-2.5v-0.3v-2.6H270C266.8,581.7,264.4,584,264.3,586.8z"/>
<path class="st9" d="M254.5,590C254.4,590,254.4,590,254.5,590l-0.1,4.5c0,0,0,0,0,0.1s-0.1,0.1-0.1,0.1l0,0l0,0H254c0,0,0,0-0.1,0
	c-2.8-0.1-5.1-2.4-5.7-5l-0.1,0.1H215l-0.7,3.3c0,0.1-0.1,0.1-0.1,0.1l-3.3-0.7l-1.1,6.6v59h0.7c0.1,0,0.1,0.1,0.1,0.1v2.8h45v-71.4
	L254.5,590L254.5,590z"/>
<path class="st12" d="M194.5,559.1v95.1h10.6v-51.4l4.2-21.6V569v-21.9h-89.7l0.3,15.2l33.3-3.6l38.9,0.5l0,0h2
	C194.4,559,194.5,559.1,194.5,559.1z"/>
<g>
	<path class="st1" d="M455,240.5V254h-4.3v34.9v0.8h0.1v12.4l0,0l0.1,0.8h0.1v2.6h0.7h0.7v10.6v6.6h0.1v12.5h-0.1v14.6v3.6v10.4v6.6
		v0.3h0.1v12.5h-0.1v14.2v3.6v10.4v6.6v1h0.1v12.5h-0.1v2.5v11.3h-2v2.6h2v11.4v6.6v1.5h0.1v12.5h-0.1v13.2h-2v0.1v1v1.5h2v23.4v1
		v20.5h-2.3v3.2h2.3v8.2h-3.9v0.7h-8.6v-0.1h-0.3v-0.3h-0.2v-6h0.3V546h0.1h0.1v-4.3h-10.6h-2.6h-11.5v4.3h0.8v6.4h-0.3v0.3h-0.3
		v0.1h-11.5h-1h-1.5v0.5H401v0.3h-6l0,0v0.1h-0.3v-0.5h-5.1h-1h-18.5v-8.6h2.6v-4.2h-2.6v-3.5H370v-0.3h-0.6l0,0v-6.1h0.1h0.3v-0.3
		h0.1h0.1v-0.7v-1v-0.7h-0.3v-0.3h-0.3l0,0l0.1-6.3h0.3v-0.3h0.3v-5.3h6.3v-22.3H370V490h-1h-0.1v0.7h-11.5V490h-0.1h-1h-0.1v3.9
		v0.8v2h0.1v0.3h0.7v6h-0.7v0.3h-0.1v36.8h-0.7v1.5v0.8v-0.8h-17v-0.5h-2.9v-1h-1l0,0v-6H329v-31.9h5v-15.9h-5v-32h5v-15.5h-5v-32h5
		v-15.6h-5v-31.9h5v-15.9h-5v-31.9h5v-16h-5v-2.6l0,0v-29.7h5v-4.7h35.5v-10.4h2v-0.8h3.6V245h19.1h2.6h23.3h2.3h4.3v-4.6L455,240.5
		 M461.1,234.5h-6.3h-28.4h-6.3v4.5h-0.3h-23.2H394h-19.6h-6.3v2.3h-3.6v0.7H363v6.3v4.3h-29h-6.3v4.7h-5v6.3v23.3v6.3v2.6v6.3h5
		v3.6h-5v6.3v32v6.3h5v3.6h-5v6.3v32v6.3h5v3.5h-5v6.3v32v6.3h5v3.6h-5v6.3v32v6.3h5v3.6h-5v6.3v31.5v6.3h5.6v6h1.1v1h2.8v0.5h6.3
		h17v-5.4l0,0v3.8h0.7h6.3v-6.9v-30.6h0.1v-1h0.7v-6.3v-6v-0.3h1.1v2.6h6.3h0.3v10l0,0h-6.3v5.1h-0.3v0.3h-0.1l-0.1,6l-0.1,3.2H364
		v2.9l-0.1,6.3h0.1v2.9v6.3h0.5v0.3h0.3v3.5v6.4v6.3h6.3h18.3v0.5h0.3v0.3h6.3l0,0h6h6.3v-0.3h0.3v-0.5h7.8h6.3v-0.1h0.3V559h0.3
		v-5.7v-4.5h4.5h2.6h3.5v4.5v6.3h0.3v0.3h0.3v0.1h6.3h8.6h6.3v-0.7h3.9V553v-5.3v-6.3v-20.5V520v-20.1v-6.3v-7.1h0.1v-6.1v-12.5
		v-6.4h-0.1v-2v-7.8v-6.3V438h0.1v-6.3v-12.5v-6.1h-0.1v-1.5v-10.4v-3.6v-8.1h0.1v-6.3v-12.5v-6.3h-0.1v-0.8v-10.4v-3.6v-8.4h0.1
		v-6.3v-12.5v-6.3h-0.1v0.1v-10.6v-6.3h-1.4v-2.6h-0.3v-7.2v-6.1h0.1V260h4.3v-6.1v-13.4v-6.3h-1.1L461.1,234.5L461.1,234.5
		L461.1,234.5z"/>
</g>
<path class="st9" d="M280.4,591.1C280.3,591.1,280.3,591,280.4,591.1l-0.1-1.1h-9.6l0,0H258v16.1h0.7c0.1,0,0.1,0.1,0.1,0.1v2.6
	c0,0.1-0.1,0.1-0.1,0.1H258v49.7h0.7c0.1,0,0.1,0.1,0.1,0.1v1.7h44.5v-69.9h-23v0.6L280.4,591.1L280.4,591.1z"/>
<path class="st12" d="M270.2,587.3L270.2,587.3h0.8c0.1,0,0.1,0.1,0.1,0.1v2.1h8.9v-0.7c0-0.1,0.1-0.1,0.1-0.1h5.6v-4.3
	c-3.2-0.1-5.7-2.6-6-5.7c0,0,0,0,0-0.1v-0.3l0,0v-0.1h0.3h5.7v-0.1h-14.6v3.2c0,0.1-0.1,0.1-0.1,0.1h-0.8l0,0c0,0.1-0.1,0.1-0.1,0.1
	H270v5.6h0.1C270,587.1,270.2,587.1,270.2,587.3z"/>
<path class="st9" d="M353.4,584v-2.3h-0.1c-2.9,0-5.6,2.3-5.7,5.1h5.7c0.1,0,0.1,0.1,0.1,0.1v0.1l0,0v-2.5l0,0V584L353.4,584z"/>
<path class="st9" d="M431.9,583.8v-2.5h0.1c2.9,0,5.6,2.3,5.7,5.1h-5.6c-0.1,0-0.1,0.1-0.1,0.1v0.1l0,0v-2.5l0,0v-0.7h-0.1
	L431.9,583.8L431.9,583.8z"/>
<path class="st9" d="M307.3,585.5v-2.3h0.1c2.9,0,5.6,2.3,5.7,5.1h-5.7c-0.1,0-0.1,0.1-0.1,0.1v0.1l0,0V586l0,0V585.5L307.3,585.5z"
	/>
<text transform="matrix(1 0 0 1 418.4961 629.7301)" class="st5 st3 st13">2138</text>
<text transform="matrix(1 0 0 1 369.415 629.7301)" class="st5 st3 st13">2136</text>
<text transform="matrix(1 0 0 1 318.5254 631.151)" class="st5 st3 st13">2134</text>
<text transform="matrix(1 0 0 1 269.9346 631.3434)" class="st5 st3 st13">2132</text>
<text transform="matrix(1 0 0 1 221.1523 632.486)" class="st5 st3 st13">2130</text>
<rect x="187.7" y="548.8" class="st8" width="1.4" height="8.2"/>
<rect x="190.1" y="548.8" class="st8" width="1.4" height="8.2"/>
<rect x="192.6" y="548.8" class="st8" width="1.4" height="8.2"/>
<rect x="195.8" y="548.8" class="st8" width="8.1" height="7.2"/>
<rect x="195.8" y="576.7" class="st8" width="8.2" height="1.4"/>
<rect x="195.8" y="574.1" class="st8" width="8.2" height="1.4"/>
<rect x="195.8" y="571.8" class="st8" width="8.2" height="1.4"/>
<rect x="195.8" y="569" class="st8" width="8.2" height="1.4"/>
<rect x="195.8" y="566.5" class="st8" width="8.2" height="1.4"/>
<rect x="195.8" y="564" class="st8" width="8.2" height="1.4"/>
<rect x="195.8" y="561.8" class="st8" width="8.2" height="1.4"/>
<rect x="195.8" y="559.3" class="st8" width="8.2" height="1.4"/>
<rect x="195.8" y="556.7" class="st8" width="8.2" height="1.4"/>
<rect x="170.6" y="548.8" class="st8" width="1.4" height="8.2"/>
<rect x="172.8" y="548.8" class="st8" width="1.4" height="8.2"/>
<rect x="175.3" y="548.8" class="st8" width="1.4" height="8.2"/>
<rect x="177.9" y="548.8" class="st8" width="1.4" height="8.2"/>
<rect x="180.2" y="548.8" class="st8" width="1.4" height="8.2"/>
<rect x="182.7" y="548.8" class="st8" width="1.4" height="8.2"/>
<rect x="185.2" y="548.8" class="st8" width="1.4" height="8.2"/>
<rect x="150.4" y="548.8" class="st8" width="1.4" height="8.2"/>
<rect x="152.9" y="548.8" class="st8" width="1.4" height="8.2"/>
<rect x="155.4" y="548.8" class="st8" width="1.4" height="8.2"/>
<rect x="157.8" y="548.8" class="st8" width="1.4" height="8.2"/>
<rect x="160.3" y="548.8" class="st8" width="1.4" height="8.2"/>
<rect x="162.6" y="548.8" class="st8" width="1.4" height="8.2"/>
<rect x="165.3" y="548.8" class="st8" width="1.4" height="8.2"/>
<rect x="167.7" y="548.8" class="st8" width="1.4" height="8.2"/>
<rect x="133.1" y="548.8" class="st8" width="1.4" height="8.2"/>
<rect x="135.5" y="548.8" class="st8" width="1.4" height="8.2"/>
<rect x="138.2" y="548.8" class="st8" width="1.4" height="8.2"/>
<rect x="140.5" y="548.8" class="st8" width="1.4" height="8.2"/>
<rect x="143" y="548.8" class="st8" width="1.4" height="8.2"/>
<rect x="145.6" y="548.8" class="st8" width="1.4" height="8.2"/>
<rect x="147.9" y="548.8" class="st8" width="1.4" height="8.2"/>
<g>
	<rect x="195.9" y="596.5" class="st8" width="8.2" height="1.4"/>
	<rect x="195.9" y="594.1" class="st8" width="8.2" height="1.4"/>
	<rect x="195.9" y="591.7" class="st8" width="8.2" height="1.4"/>
	<rect x="195.9" y="589.1" class="st8" width="8.2" height="1.4"/>
	<rect x="195.9" y="586.7" class="st8" width="8.2" height="1.4"/>
	<rect x="195.9" y="584.1" class="st8" width="8.2" height="1.4"/>
	<rect x="195.9" y="581.8" class="st8" width="8.2" height="1.4"/>
	<rect x="195.9" y="579.5" class="st8" width="8.2" height="1.4"/>
	<rect x="195.9" y="614" class="st8" width="8.2" height="1.4"/>
	<rect x="195.9" y="611.3" class="st8" width="8.2" height="1.4"/>
	<rect x="195.9" y="609" class="st8" width="8.2" height="1.4"/>
	<rect x="195.9" y="606.5" class="st8" width="8.2" height="1.4"/>
	<rect x="195.9" y="604" class="st8" width="8.2" height="1.4"/>
	<rect x="195.9" y="601.5" class="st8" width="8.2" height="1.4"/>
	<rect x="195.9" y="599" class="st8" width="8.2" height="1.4"/>
	<rect x="195.9" y="633.8" class="st8" width="8.2" height="1.4"/>
	<rect x="195.9" y="631.3" class="st8" width="8.2" height="1.4"/>
	<rect x="195.9" y="628.8" class="st8" width="8.2" height="1.4"/>
	<rect x="195.9" y="626.5" class="st8" width="8.2" height="1.4"/>
	<rect x="195.9" y="624" class="st8" width="8.2" height="1.4"/>
	<rect x="195.9" y="621.5" class="st8" width="8.2" height="1.4"/>
	<rect x="195.9" y="619" class="st8" width="8.2" height="1.4"/>
	<rect x="195.9" y="616.5" class="st8" width="8.2" height="1.4"/>
	<rect x="195.9" y="651" class="st8" width="8.2" height="1.4"/>
	<rect x="195.9" y="648.7" class="st8" width="8.2" height="1.4"/>
	<rect x="195.9" y="646.3" class="st8" width="8.2" height="1.4"/>
	<rect x="195.9" y="643.8" class="st8" width="8.2" height="1.4"/>
	<rect x="195.9" y="641.3" class="st8" width="8.2" height="1.4"/>
	<rect x="195.9" y="638.8" class="st8" width="8.2" height="1.4"/>
	<rect x="195.9" y="636.3" class="st8" width="8.2" height="1.4"/>
</g>
<polygon class="st9" points="442.6,572 449.8,572 446.2,578.3 "/>
<polygon class="st9" points="309.5,562.5 316.9,562.5 313.3,568.8 "/>
<polygon class="st14" points="353.8,240.4 361,240.4 357.4,246.9 "/>
<g>
	<polygon class="st9" points="365.5,501.1 369.8,508.5 361.2,508.5 	"/>
	<path class="st5" d="M365.5,501.8l3.6,6.4h-7.4L365.5,501.8 M365.5,500.7l-0.5,0.8l-3.6,6.4l-0.5,0.8h1h7.4h1l-0.5-0.8l-3.6-6.4
		L365.5,500.7L365.5,500.7z"/>
</g>
<g>
	<polygon class="st9" points="361.9,128.2 365.9,135.5 357.5,135.5 	"/>
	<path class="st5" d="M361.9,128.9l3.6,6.4h-7.4L361.9,128.9 M361.9,127.7l-0.5,0.8l-3.6,6.4l-0.5,0.8h1h7.4h1l-0.5-0.8l-3.6-6.4
		L361.9,127.7L361.9,127.7z"/>
</g>
<polygon class="st9" points="255.7,566.8 262.8,562.5 262.8,570.8 "/>
<polygon class="st9" points="340.9,570.3 347.5,573.5 341.3,577.5 "/>
<g>
	<g>
		<path class="st9" d="M443.6,529.1c-0.7,0-1.1-0.7-1.1-1.1c0-0.7,0.5-1.1,1.1-1.1c0.7,0,1.1,0.7,1.1,1.1
			C444.7,528.5,444.3,529.1,443.6,529.1z"/>
		<path class="st9" d="M444.3,529.7c1.1,0,1.7,0.8,2,1.4l1,3.6c0.1,0.3,0,0.7-0.1,0.7s-0.5,0-0.7-0.3l-0.8-3.2
			c0-0.1-0.1-0.3-0.3-0.1c-0.1,0-0.1,0.1-0.1,0.3l1.7,5.7h-2c0,2.3,0,4.3,0,4.3c0,0.7-0.3,0.7-0.5,0.7c-0.1,0-0.5,0-0.5-0.7
			s0-4.2,0-4.2c0-0.1,0-0.1-0.1-0.1s-0.1,0-0.1,0.1c0,0,0,3.6,0,4.2c0,0.7-0.3,0.7-0.5,0.7s-0.5,0-0.5-0.7c0,0,0-2.1,0-4.3h-2.5
			l1.7-5.7c0-0.1,0-0.3-0.1-0.3s-0.3,0-0.3,0.1l-0.8,3.2c-0.1,0.3-0.3,0.5-0.7,0.3c-0.1,0-0.3-0.3-0.1-0.7l1-3.6
			c0.1-0.5,0.5-1.4,2-1.4H444.3z"/>
	</g>
	<g>
		<g>
			<path class="st9" d="M411.6,529.1c-0.7,0-1.4-0.7-1.4-1.4c0-0.7,0.7-1.4,1.4-1.4s1.4,0.7,1.4,1.4
				C413.1,528.3,412.4,529.1,411.6,529.1z"/>
		</g>
		<path class="st9" d="M409.3,532.5v2.9c0,0.5-0.1,0.7-0.5,0.7c-0.3,0-0.5-0.1-0.5-0.7v-3.6c0-1.5,0.8-2.1,2.1-2.1h2.3
			c1.4,0,2.1,0.3,2.1,2.1v3.6c0,0.5-0.1,0.7-0.5,0.7c-0.3,0-0.5-0.1-0.5-0.7v-2.9c0-0.3-0.1-0.3-0.1-0.3s-0.3,0-0.3,0.3s0,9.7,0,9.7
			c0,0.7-0.5,0.7-0.7,0.7s-0.7,0-0.7-0.7s0-5.7,0-5.7c0-0.1,0-0.3-0.1-0.3s-0.1,0-0.1,0.3c0,0,0,5,0,5.7s-0.5,0.7-0.7,0.7
			s-0.7,0-0.7-0.7c0,0,0-9.3,0-9.7s-0.1-0.3-0.3-0.3C409.6,532,409.3,532,409.3,532.5z"/>
	</g>
</g>
<polygon class="st9" points="249.1,572.5 257.5,572.3 253.6,579.5 "/>
</svg>
