<?xml version="1.0" encoding="utf-8"?>
<!-- Generator: Adobe Illustrator 17.1.0, SVG Export Plug-In . SVG Version: 6.00 Build 0)  -->
<!DOCTYPE svg PUBLIC "-//W3C//DTD SVG 1.1//EN" "http://www.w3.org/Graphics/SVG/1.1/DTD/svg11.dtd">
<svg version="1.1" id="Layer_1" xmlns="http://www.w3.org/2000/svg" xmlns:xlink="http://www.w3.org/1999/xlink" x="0px" y="0px"
	 viewBox="443.7 172.8 537 792.1" enable-background="new 443.7 172.8 537 792.1" xml:space="preserve">
<path fill="none" stroke="#989798" stroke-width="10" stroke-miterlimit="10" d="M665.7,834.3L724.5,503h-16.7h-25.1l-9-0.1
	l-40.3-71.6l0,0L622,280.5l25.3-0.1v0.4h26.4v-19.9h-0.1l0.4-6.8h220.3l81.4,0.4v248.6l-0.4,0.4H944l-2.7-41.5l-39.3,1.3l-2.7,40
	l-3.3,43.3l-16-2l-4,25.3l20.7,6l-3.3,54l-6.7,26.7l-14,84l26,10L905,959l-249.2-40.5L665.7,834.3z"/>
<g opacity="0.5">
	<g>
		
			<text transform="matrix(1 0 0 1 443.7139 218.6509)" fill="#989798" font-family="'TradeGothic-BoldCondTwenty'" font-size="24.8097">Level </text>
	</g>
	<circle fill="#989798" cx="542.8" cy="214.8" r="42"/>
	
		<text transform="matrix(1 0 0 1 522.208 243.9776)" fill="#FFFFFF" font-family="'TradeGothic-BoldCondTwenty'" font-size="79.3906">1</text>
</g>
<path fill="#CCCBCB" d="M858.5,467.1v-4.9h-52.6v2.9c0,0.1-0.1,0.4-0.4,0.4h-13.2c-0.1,0-0.4-0.1-0.4-0.4v-2.9h-68.3v4.9
	c0,0.1-0.1,0.4-0.4,0.4h-0.7v23.7h0.7c0.1,0,0.4,0.1,0.4,0.4v1.7h134.8v-1.6c0-0.1,0.1-0.4,0.4-0.4h0.7v-23.7h-0.7
	C858.6,467.4,858.5,467.3,858.5,467.1z"/>
<path fill="#CCCBCB" d="M946.3,475.1L946.3,475.1c0.2,0,0.5,0.1,0.5,0.4v0.7c0,0.1-0.1,0.4-0.4,0.4h-1.3v13.5h1.3
	c0.1,0,0.4,0.1,0.4,0.4v0.7c0,0.1-0.1,0.4-0.4,0.4h-0.1v4.7h24.1V461h-24.1V475.1L946.3,475.1z"/>
<path fill="#4A6DB4" d="M712.5,280.8c0.1,0,0.4,0.1,0.4,0.4v174.1h250.4v-188H707v13.5H712.5L712.5,280.8z"/>
<path fill="#CCCBCB" d="M702.4,314.6L702.4,314.6C702.4,314.6,702.4,314.7,702.4,314.6C702.4,314.7,702.3,314.7,702.4,314.6
	L702.4,314.6c-0.2,0.3-0.2,0.3-0.2,0.3h-0.7c-0.1,0-0.1,0-0.1-0.1l-1-0.1c-5.5-0.7-9.8-5.2-10.6-10.6l-0.1-1.3l0,0v1.3
	c0,0.1-0.1,0.4-0.4,0.4h-24.4V352l34.6,61.9h5.9V304.6H703c-0.1,0-0.1-0.1-0.2-0.1L702.4,314.6L702.4,314.6z"/>
<path fill="#CCCBCB" d="M686.7,463.5h0.4v-3.2c0-0.1,0.1-0.4,0.4-0.4h17.7v-40.2h-9c-0.1,0-0.2-0.1-0.2-0.1l-36.9-66
	c0-0.1,0-0.1,0-0.1v-47.3h-8.4c-0.1,0-0.4-0.1-0.4-0.4v-0.4l-0.1,1c-1,5.6-5.2,9.7-10.6,10.6l-1,0.1c-0.1,0-0.1,0.1-0.1,0.1h-0.7
	c-0.1,0-0.1,0-0.1-0.1l0,0c-0.1-0.1-0.1-0.1-0.1-0.1l0,0l0,0l0,0v-11c0,0.1-0.1,0.4-0.4,0.4H634l4,52.9h0.2c0.1,0,0.1,0,0.1,0.1
	s0.1,0.1,0.1,0.1v0.5l1.1,13.7v0.1v0.1c0,0.1,0,0.1-0.1,0.2s-0.1,0.1-0.2,0.1h-3.8v0.2l3.8,51.3h3.6l0,0c0.1,0,0.1,0,0.1,0.1l0,0
	c0.1,0.1,0.1,0.1,0.1,0.1l0.4,5.4c0,0.1,0,0.1-0.1,0.2c-0.1,0.1-0.1,0.1-0.1,0.1l-1.9,0.1l15.5,27.7h4.4c0.1,0,0.4,0.1,0.4,0.4l0,0
	v3.2h0.2c0.1,0,0.4,0.1,0.4,0.4v0.7h23.7v-0.7C686.3,463.6,686.5,463.5,686.7,463.5z"/>
<path fill="#4A6DB4" d="M674.5,822.7l-0.4-0.1l-1.7-0.1c-5.2-0.1-9.7,3.1-11.5,8.2l-0.1,0.5l11.5,2c0.1,0,0.1,0.1,0.2,0.1l1.1-5.9
	L674.5,822.7z"/>
<path fill="#4A6DB4" d="M690.7,727l-0.4-0.1l-1.7-0.1c-5.2-0.1-9.7,3.1-11.5,8.2l-0.1,0.5l11.5,2c0.1,0,0.1,0.1,0.2,0.1l1.1-5.9
	L690.7,727z"/>
<path fill="#4A6DB4" d="M708.2,631.1l-0.4-0.1l-1.7-0.1c-5.2-0.1-9.7,3.1-11.5,8.2l-0.1,0.5l11.5,2c0.1,0,0.1,0.1,0.2,0.1l1.1-5.9
	L708.2,631.1z"/>
<path fill="#CCCBCB" d="M638,302.8v0.5h11.4v-0.5c0-0.1,0.1-0.4,0.4-0.4h0.2v-1.9c0-0.1,0.1-0.4,0.4-0.4h39.5c0.1,0,0.4,0.1,0.4,0.4
	v0.5h11.4v-0.5c0-0.1,0.1-0.4,0.4-0.4h4.4v-19.2v-13.7h-25.6v17c0,0.1-0.1,0.4-0.4,0.4h-6.7c-0.1,0-0.4-0.1-0.4-0.4v-1.9h-0.2
	c-0.1,0-0.4-0.1-0.4-0.4l0,0v-0.5H663v0.5l0,0c0,0.1-0.1,0.4-0.4,0.4h-0.2v1.9c0,0.1-0.1,0.4-0.4,0.4h-26.3v15.5h1.1
	c0.1,0,0.4,0.1,0.4,0.4v1.9h0.4C637.9,302.6,638,302.7,638,302.8z"/>
<path fill="#CCCBCB" d="M887.4,502.7v-2.6h-84.5v35.4l50.2,8.8l2.6-15c0-0.1,0.1-0.1,0.1-0.1c0.1-0.1,0.1-0.1,0.2-0.1l19.9,3.6
	c0.1,0,0.2,0.1,0.2,0.4v4.9l15.1,2.6V503h-3.6C887.6,503,887.4,502.8,887.4,502.7z"/>
<path fill="#CCCBCB" d="M709.2,491.9L709.2,491.9C709,491.9,709,491.9,709.2,491.9C709.1,491.9,709.1,491.9,709.2,491.9
	c-0.1,0-0.1,0-0.2,0c0,0,0,0-0.1,0c0,0,0,0,0-0.1c0,0,0,0,0-0.1c0,0,0,0,0-0.1c0,0,0,0,0-0.1v-0.7c0-0.1,0-0.1,0.1-0.1l0.1-1
	c0.5-5,4.6-9.4,9.4-10.4c-5-1.3-8.6-5.2-9.4-10.3l-0.1-1c0-0.1-0.1-0.1-0.1-0.1v-0.7c0,0,0,0,0-0.1c0,0,0,0,0-0.1c0,0,0,0,0-0.1
	c0,0,0,0,0-0.1c0,0,0,0,0.1,0c0,0,0,0,0.1,0c0,0,0,0,0.1,0c0,0,0,0,0.1,0l0,0l0,0h11.8v-0.5h-21.6v0.2c0,0.1,0,0.1-0.1,0.1l-0.1,1
	c-1.3,7.4-7.2,10.7-12.4,10.7l0,0c-4.9,0-10.4-2.9-12-9.6c-0.7,2.8-2.2,5.2-4.4,7l-0.8,0.5c0,0.1-0.1,0.1-0.1,0.1l-0.5,0.2
	c-0.1,0-0.1,0-0.1,0c-0.1,0-0.1,0-0.1,0l0,0c0,0-0.1,0-0.1-0.1l0,0l0,0L663,466h-0.4h-1.3l15.3,27.4h8c0.1,0,0.4,0.1,0.4,0.4v6.1
	h0.2c0.1,0,0.4,0.1,0.4,0.4v0.7h23.7v-0.7c0-0.1,0.1-0.4,0.4-0.4h0.2v-1.7c0-0.1,0.1-0.4,0.4-0.4h10.9v-6.2L709.2,491.9L709.2,491.9
	z"/>
<path fill="#CCCBCB" d="M699.7,869.1l-2.2,11.6l0,0l0,0c0,0.1-0.1,0.1-0.1,0.1l0,0c-0.1,0-0.1,0.1-0.1,0.1s0,0-0.1,0l-0.7-0.1
	c-0.1,0-0.1,0-0.1-0.1l-1-0.1c-5.2-1.7-9-6.8-8.6-12.2l0.1-1.3l-16.7-2.9l-8,44.8l29.8,5.2l7.9-44.8L699.7,869.1z"/>
<path fill="#CCCBCB" d="M752,924.3l7.6-43.2v-1.6l-43-7.4l-0.2,1.3c-1.7,5.2-6.2,8.6-11.8,8.6c-0.1,0-0.2,0-0.5,0l-1-0.1H703
	c0,0,0,0-0.1,0l-0.7-0.1l0,0c-0.1,0-0.1-0.1-0.1-0.1l0,0l0,0c0,0,0,0,0-0.1c0,0,0,0,0-0.1c0,0,0,0,0-0.1l0,0l0,0l2.2-11.6l-0.5-0.1
	l-7.9,44.7l35.5,6.2l0.7-3.5c0-0.1,0.1-0.2,0.4-0.2l5.2,1c0.1,0,0.2,0.1,0.2,0.4l-0.5,3.6L752,924.3z"/>
<path fill="#CCCBCB" d="M685.1,502.4h0.2c0.1,0,0.4,0.1,0.4,0.4v11.8h0.7c5.2-0.8,9.4-4.9,9.8-10l0.1-1.7l0,0l0,0l0,0
	c0,0,0-0.1,0.1-0.1l0,0c0,0,0.1,0,0.1-0.1l0,0c0,0,0,0,0.1,0l0,0l0,0c0,0,0,0,0.1,0l0,0h0.1l0,0c0,0,0,0,0,0.1c0,0,0,0,0,0.1
	c0,0,0,0,0,0.1l0,0l0.1,1.7c1,5.4,4.7,9,10,10h0.5v-11.9c0-0.1,0.1-0.4,0.4-0.4h0.4v-0.2h-23.4v0.2L685.1,502.4L685.1,502.4z"/>
<path fill="#CCCBCB" d="M859,912.6L859,912.6C859,912.7,858.9,912.7,859,912.6l-0.2,0.1l10.2,1.7l0,0l0,0c0.1,0,0.1,0.1,0.1,0.1l0,0
	l0,0c0,0.1,0.1,0.1,0.1,0.1l0,0l-0.1,0.7c0,0.1,0,0.1-0.1,0.1l-0.1,1c-1.9,5.5-6.4,8.6-12.2,8.6l0,0l0.1,0.1l0,0l0,0
	c0.1,0.1,0.1,0.1,0.1,0.2l-2.5,14.1l29.3,2.6l0.1-0.7l0.1-1c0,0,0,0,0-0.1c0,0,0,0,0-0.1c0,0,0-0.1,0.1-0.1l0,0l0,0l0,0
	c0.1-0.1,0.1-0.1,0.2-0.1l3.5,0.2v-23.2L859,912.6z"/>
<path fill="#CCCBCB" d="M878.3,899l-10.2-1.7l-0.1,0.8c0,0.1-0.1,0.1-0.1,0.1c-0.1,0.1-0.1,0.1-0.2,0.1l-5.8-1l-2.2,12.1l27.7,4.9
	v-12.4l-7.9-1.3c-0.1,0-0.1-0.1-0.1-0.1l0,0l0,0v-0.1v-0.1c0,0,0,0,0-0.1l0,0l0,0l0,0l0.1-1L878.3,899z"/>
<path fill="#4A6DB4" d="M687.9,863.3c0.1,0,0.2,0.1,0.2,0.4l-0.1,1.1l11.4,2l0.1-1c0-0.1,0.1-0.1,0.1-0.1c0.1-0.1,0.1-0.1,0.2-0.1
	l5.2,1c0.1,0,0.1,0.1,0.1,0.1c0.1,0.1,0.1,0.1,0.1,0.2l-0.1,1l11.2,2l0.1-1.1c0-0.1,0.1-0.2,0.4-0.2l150.8,26.8l0.2-1.3
	c1.7-5.2,6.8-8.8,12.2-8.6l1,0.1c0.1,0,0.1,0,0.1,0l0.7,0.1c0,0,0,0,0.1,0c0,0,0,0,0.1,0c0,0,0,0,0.1,0c0,0,0,0,0.1,0c0,0,0,0,0,0.1
	c0,0,0,0,0,0.1c0,0,0,0,0,0.1c0,0,0,0,0,0.1l0,0l0,0l-2.2,11.6l7.1,1.2V853h-3.6c-0.1,0-0.4-0.1-0.4-0.4v-5.5c0-0.1,0.1-0.4,0.4-0.4
	h3.6v-87.5h-3.6c-0.1,0-0.4-0.1-0.4-0.4v-5l-8.6-1.6c0,0-0.1,0-0.1-0.1c0,0,0,0-0.1-0.1l0,0V752l0,0v-0.1l0,0l0,0l0,0l0,0l0.1-0.5
	l-0.2-0.1c-0.1,0-0.2-0.1-0.2-0.4l0.1-0.7l-11.4-2l-0.2,0.7c0,0.1-0.1,0.2-0.4,0.2l-0.2-0.1l-0.1,0.5c0,0.1-0.1,0.2-0.4,0.2
	l-166.3-29.5l-1.1,6.2c0,0.1-0.1,0.2-0.4,0.2l-2.3-0.4l-0.1,0.2c0,0.1-0.1,0.2-0.4,0.2l-0.2-0.1l-2,11.4l0.2,0.1
	c0.1,0,0.2,0.1,0.2,0.4l-11.4,64.1l2.3,0.4c0.1,0,0.1,0.1,0.1,0.1s0.1,0.1,0.1,0.2l-1.1,6.2l1.7,0.2c0.1,0,0.2,0.1,0.2,0.4l-1,5.4
	c0,0.1-0.1,0.1-0.1,0.1s-0.1,0-0.1,0.1h-0.1l0,0l-1-0.1l-1-0.1l-1.1,6.2c0,0.1-0.1,0.1-0.1,0.1l0,0c-0.1,0.1-0.1,0.1-0.2,0.1l0,0
	l-2.3-0.4l-0.1,0.2c0,0.1-0.1,0.1-0.1,0.1c-0.1,0.1-0.1,0.1-0.2,0.1l-0.2-0.1l-2,11.4l0.2,0.1c0.1,0,0.2,0.1,0.2,0.4l-0.1,0.4
	l2.9,0.5c0.1,0,0.2,0.1,0.2,0.4l-4.4,24.5L687.9,863.3z"/>
<path fill="#CCCBCB" d="M852.5,924l1,0.1l2-11l-1-0.1c-0.1,0-0.2-0.1-0.2-0.4l2.5-13.8l-94.1-16.7l-6.7,38.3l53.2,9.4
	c0.1,0,0.1,0.1,0.1,0.1c0.1,0.1,0.1,0.1,0.1,0.2l-0.8,4.3l11.4,2l0.8-4.4c0-0.1,0.1-0.1,0.1-0.1c0.1-0.1,0.1-0.1,0.2-0.1l5.5,1
	l0.1-1.2c0-0.1,0.1-0.2,0.4-0.2l3.6,0.7c0.1,0,0.2,0.1,0.2,0.4l0,0l0,0l-0.1,0.7l11.4,2l0.1-0.7c0-0.1,0.1-0.2,0.4-0.2l7.6,1.3
	l1.7-9.4l0.1-1l0,0l0.1-0.5C852,924.1,852.2,924,852.5,924z"/>
<path fill="#CCCBCB" d="M874.1,576.3l-0.1,0.4c-1.7,5.2-6.6,8.6-11.9,8.6c-0.1,0-0.2,0-0.5,0l-1-0.1h-0.1c0,0,0,0-0.1,0l-0.7-0.1
	l0,0c-0.1,0-0.1-0.1-0.1-0.1l0,0l0,0c0,0,0,0,0-0.1c0,0,0,0,0-0.1c0,0,0,0,0-0.1l0,0l0,0l2.2-11.6h-0.2l-4,22.8l15.4,2.8
	c0.1,0,0.2,0.1,0.2,0.4l-0.2,1.7c0,0.1-0.1,0.1-0.1,0.1c-0.1,0.1-0.1,0.1-0.2,0.1l-17.5-3.1c-0.1,0-0.1-0.1-0.1-0.1
	c-0.1-0.1-0.1-0.1-0.1-0.2l4-22.5l-88.7-15.8l-7.9,43.8l22.2,4l0.1-0.8c0-0.1,0.1-0.1,0.1-0.1s0.1-0.1,0.2-0.1l9,1.6
	c0.1,0,0.1,0.1,0.1,0.1c0.1,0.1,0.1,0.1,0.1,0.2l-0.1,0.8l11.4,2l1.3-7.1c0-0.1,0.1-0.2,0.4-0.2l1.7,0.2c0.1,0,0.1,0.1,0.1,0.1
	c0.1,0.1,0.1,0.1,0.1,0.2l-1.4,8.3l79.6,14.1v-46.7l-13-2.3c-0.1,0-0.1-0.1-0.1-0.1l0,0c0-0.1-0.1-0.1-0.1-0.1l0,0L874.1,576.3z"/>
<path fill="#4A6DB4" d="M866.9,674.5c0-0.1,0.1-0.2,0.4-0.2l2.5,0.4l3.7-21.4l-2.9-0.5c-0.1,0-0.2-0.1-0.2-0.4l1-5.2
	c0-0.1,0.1-0.2,0.4-0.2l2.9,0.5l0.7-4c0-0.1,0.1-0.1,0.1-0.1s0.1-0.1,0.2-0.1l1.6,0.2l0.1-0.2c0-0.1,0.1-0.2,0.4-0.2l0.7,0.1l2-11.4
	l-0.7-0.1c-0.1,0-0.2-0.1-0.2-0.4l0.1-1l-164.6-29.4c-0.1,0-0.2-0.1-0.2-0.4l0.1-1.4l-1.3-0.1l-3.5,19.2l4.4,0.8
	c0.1,0,0.2,0.1,0.2,0.4l-1,5.2c0,0.1-0.1,0.2-0.2,0.2h-0.1l-1.7-0.2l-1.1,6c0,0.1-0.1,0.2-0.4,0.2l-2.4-0.4l-0.1,0.2
	c0,0.1-0.1,0.2-0.4,0.2l-0.2-0.1l-2,11.4l0.2,0.1c0.1,0,0.2,0.1,0.2,0.4l-12.4,70.5l161.7,28.5L866.9,674.5z"/>
<path fill="#CCCBCB" d="M768.8,549.1C768.8,549,768.9,549,768.8,549.1c0.2-0.2,0.2-0.2,0.3-0.2l2.5,0.5c0.1,0,0.2,0.1,0.2,0.4
	l-1.2,6.7l39.9,7.1l0.4-2.4c0-0.1,0.1-0.1,0.1-0.1s0.1-0.1,0.2-0.1l1.7,0.2l0.1-0.4c0-0.1,0.1-0.1,0.1-0.1c0.1-0.1,0.1-0.1,0.2-0.1
	l11.5,2.2l0.1-0.7c0.1-5.2-3.2-9.8-8.2-11.5l-1.7-0.4l-2-0.4c-0.1,0-0.2-0.1-0.2-0.4l1.3-7.9l-9.2-1.7l-0.5,3.2
	c0,0.1-0.1,0.1-0.1,0.1c-0.1,0.1-0.1,0.1-0.2,0.1l-6.2-1.1c-0.1,0-0.2-0.1-0.2-0.4v-40.6h-40.6l-20.5-3.6l-12.7,75.3l0.1,0.1
	c0.1,0.1,0.1,0.1,0.1,0.2l-4.3,23.7l39.4,7L768.8,549.1z"/>
<path fill="#4A6DB4" d="M707,268.1h-0.4l-1.7,0.1c-5.2,0.7-9.2,4.6-10.2,9.7l-0.1,0.5l11.8,0.1c0.1,0,0.1,0.1,0.2,0.1l0.1-6
	L707,268.1z"/>
<path fill="none" stroke="#989798" stroke-width="10" stroke-miterlimit="10" d="M695.4,505.5"/>
<text transform="matrix(1 0 0 1 813.7988 369.8584)" fill="#FFFFFF" font-family="'TradeGothic-BoldCondTwenty'" font-size="17.863">1020</text>
<text transform="matrix(1 0 0 1 768.6083 677.1377)" fill="#FFFFFF" font-family="'TradeGothic-BoldCondTwenty'" font-size="17.863">1006</text>
<text transform="matrix(1 0 0 1 768.6083 802.8389)" fill="#FFFFFF" font-family="'TradeGothic-BoldCondTwenty'" font-size="17.863">1002</text>
<polygon fill="#4A6DB4" points="688.3,230.4 700.2,230.4 694.3,240.8 "/>
<polygon fill="#4A6DB4" points="920.1,476.3 920.1,488.2 909.7,482.3 "/>
<polygon fill="#4A6DB4" points="906.1,648.3 906.1,660.2 895.7,654.3 "/>
<polygon fill="#4A6DB4" points="888.8,724.8 899.3,730.5 889.2,736.8 "/>
<polygon fill="#4A6DB4" points="669.7,634.1 673.4,622.8 681.3,631.7 "/>
<polygon fill="#4A6DB4" points="658.5,730.2 662.5,719 670.2,728 "/>
<polygon fill="#4A6DB4" points="646.4,826.4 650.1,815.1 658,824 "/>
<text transform="matrix(1 0 0 1 952.6882 486.9762)" fill="#FFFFFF" font-family="'MyriadPro-Regular'" font-size="22.7253">E</text>
<rect x="894" y="471.3" fill="#FFFFFF" width="13.3" height="20"/>
<rect x="880.7" y="642.7" fill="#FFFFFF" width="15.3" height="20"/>
<rect x="879.3" y="731.3" transform="matrix(0.9282 0.3721 -0.3721 0.9282 339.484 -276.4542)" fill="#FFFFFF" width="13.3" height="20"/>
<g>
	<path fill="#496CB4" d="M758.7,534.1c-1.2,0-2-0.7-2-2c0-1.2,0.7-2,2-2c1.2,0,2,0.7,2,2C760.7,532.8,760,534.1,758.7,534.1z"/>
	<path fill="#496CB4" d="M760,534.6c2,0,2.6,1.4,3.2,2.5l1.9,5.8c0.1,0.6,0,1.2-0.4,1.2s-0.7-0.1-1.2-0.6l-1.7-5.4
		c-0.1-0.4-0.4-0.4-0.6-0.4c-0.4,0.1-0.4,0.4-0.1,0.6l2.7,9.5h-3.3c0,3.8,0,7.2,0,7.2c0,1.2-0.4,1.2-0.7,1.2c-0.1,0-0.7-0.1-0.7-1.2
		c0-1,0-7.1,0-7.1c0-0.4-0.1-0.4-0.4-0.4c-0.1,0-0.4,0.1-0.4,0.4c0,0,0,5.8,0,7.1c0,1.3-0.4,1.2-0.7,1.2c-0.1,0-0.7-0.1-0.7-1.2
		c0,0,0-3.3,0-7.2h-2.7l2.7-9.5c0.1-0.4,0.1-0.6-0.1-0.6c-0.4-0.1-0.4,0.1-0.6,0.4l-1.7,5.4c-0.1,0.4-0.4,0.6-1.2,0.6
		c-0.4-0.1-0.6-0.4-0.4-1.2l1.9-5.8c0.4-0.7,0.7-2.5,3.2-2.5H760z"/>
</g>
<g>
	<g>
		<path fill="#496CB4" d="M815.4,582.4c-1.2,0-2-0.7-2-2c0-1.3,0.7-2,2-2c1.2,0,2,0.7,2,2C817.4,581.7,816.3,582.4,815.4,582.4z"/>
	</g>
	<path fill="#496CB4" d="M811.8,587.3v4.3c0,0.7-0.4,1.2-0.7,1.2c-0.3,0-0.7-0.1-0.7-1.2V586c0-2.5,1.2-3.2,3.3-3.2h3.3
		c2,0,3.3,0.6,3.3,3.2v5.6c0,0.7-0.4,1.2-0.7,1.2s-0.7-0.1-0.7-1.2v-4.3c0-0.4-0.4-0.4-0.4-0.4s-0.4,0.1-0.4,0.4
		c0,0.6,0,14.9,0,14.9c0,1.2-0.7,1.2-1.2,1.2s-1.2-0.1-1.2-1.2c0-0.7,0-8.5,0-8.5c0-0.1,0-0.4-0.4-0.4c-0.1,0-0.4,0.1-0.4,0.4
		c0,0,0,7.8,0,8.5c0,1.2-0.7,1.2-1.2,1.2c-0.1,0-1.2-0.1-1.2-1.2c0,0,0-14,0-14.9c0-0.4-0.4-0.4-0.4-0.4
		C812.1,586.9,811.8,586.9,811.8,587.3z"/>
</g>
</svg>
