<?xml version="1.0" encoding="UTF-8" standalone="no"?>
<!-- Generator: Adobe Illustrator 19.1.0, SVG Export Plug-In . SVG Version: 6.00 Build 0)  -->

<svg
   xmlns:dc="http://purl.org/dc/elements/1.1/"
   xmlns:cc="http://creativecommons.org/ns#"
   xmlns:rdf="http://www.w3.org/1999/02/22-rdf-syntax-ns#"
   xmlns:svg="http://www.w3.org/2000/svg"
   xmlns="http://www.w3.org/2000/svg"
   xmlns:sodipodi="http://sodipodi.sourceforge.net/DTD/sodipodi-0.dtd"
   xmlns:inkscape="http://www.inkscape.org/namespaces/inkscape"
   version="1.1"
   id="Layer_1"
   x="0px"
   y="0px"
   viewBox="0 0 374.10001 486.89999"
   xml:space="preserve"
   inkscape:version="0.91 r13725"
   sodipodi:docname="ints_level1.svg"
   width="374.10001"
   height="486.89999"><metadata
     id="metadata6992"><rdf:RDF><cc:Work
         rdf:about=""><dc:format>image/svg+xml</dc:format><dc:type
           rdf:resource="http://purl.org/dc/dcmitype/StillImage" /><dc:title></dc:title></cc:Work></rdf:RDF></metadata><defs
     id="defs6990" /><sodipodi:namedview
     pagecolor="#ffffff"
     bordercolor="#666666"
     borderopacity="1"
     objecttolerance="10"
     gridtolerance="10"
     guidetolerance="10"
     inkscape:pageopacity="0"
     inkscape:pageshadow="2"
     inkscape:window-width="1596"
     inkscape:window-height="861"
     id="namedview6988"
     showgrid="false"
     fit-margin-top="0"
     fit-margin-left="0"
     fit-margin-right="0"
     fit-margin-bottom="0"
     inkscape:zoom="0.2979798"
     inkscape:cx="187"
     inkscape:cy="243.5"
     inkscape:window-x="0"
     inkscape:window-y="18"
     inkscape:window-maximized="0"
     inkscape:current-layer="Layer_1" /><style
     type="text/css"
     id="style6650">
	.st0{opacity:0.5;}
	.st1{fill:#989798;}
	.st2{font-family:'ArialMT';}
	.st3{font-size:15.3352px;}
	.st4{fill:#FFFFFF;}
	.st5{font-size:49.0728px;}
	.st6{fill:#4A6DB4;}
	.st7{fill:#CCCBCB;}
	.st8{fill:none;}
	.st9{fill:none;stroke:#989798;stroke-width:4;stroke-linecap:square;stroke-miterlimit:10;}
	.st10{opacity:0.25;fill:#989798;enable-background:new    ;}
	.st11{opacity:0.6;fill:#4A6DB4;enable-background:new    ;}
	.st12{font-size:11.0413px;}
	.st13{font-family:'MyriadPro-Regular';}
	.st14{font-size:10.8322px;}
</style><g
     id="g6994"
     transform="translate(-119,-152.6)"><g
       id="g6652"
       class="st0"
       style="opacity:0.5"><g
         id="g6654"><text
           id="text6656"
           class="st1 st2 st3"
           transform="translate(184.043,180.9693)"
           style="font-size:15.33520031px;font-family:ArialMT;fill:#989798">Level </text>
</g><circle
         id="circle6658"
         r="25.9"
         cy="178.5"
         cx="245.3"
         class="st1"
         style="fill:#989798" /><text
         id="text6660"
         class="st4 st2 st5"
         transform="translate(232.5635,196.6246)"
         style="font-size:49.07279968px;font-family:ArialMT;fill:#ffffff">1</text>
</g><g
       id="g6662"><g
         id="g6664"><path
           id="path6666"
           d="m 401.5,233.2 0,0.8 0.3,0 0,0.3 0.5,0 0,6 -0.5,0 0,0.3 -0.3,0 0,3.3 -2.8,0 0,0.7 14.3,0 3.2,0.7 2,0 0,-1.7 8.2,0 0,-1.4 -0.7,0 0,-1.5 -0.7,0 0,-0.3 -0.5,0 0,-6.1 0.5,0 0,-0.8 2.3,0 0,0.3 19.5,0 0,28.5 0.1,0 0,4.6 0.3,0 0,26 1.4,0 0,6.6 0,2.5 -1.4,6.6 0,0.1 1.4,0 0,6.6 -0.9,0 0,0.5 0,0.5 1,0 0,9.3 -1.7,0 0,9.9 0,0.1 0.3,1.5 0.3,2.6 0,2.6 -0.1,1.1 0,1.4 0,1.4 -0.5,2.6 0,15.5 1.7,0 0,8.4 -1.7,0 0,3.5 1.7,0 0,18.9 -1.4,6.6 0,0.1 1.4,0 0,17 -1.7,0 0,3.8 1.7,0 0,19.2 -1.4,6.6 0,0.1 1.4,0 0,17.4 -1.7,0 0,49.6 1.7,0 0,8.1 -1.7,0 0,0.7 -2.5,0 0,0 -10.7,0 0,1.4 0.3,0 0,0.3 0.3,0 0,6 -0.5,0 0,0.3 -0.3,0 0,2.9 -31.3,2.6 0,-2.3 -3.6,0 -1,-4.6 -13.7,0 -17,-0.1 0,-42.4 6.4,0 0,-23 -0.1,0 0,-6 0.1,0 0,-7.4 -5.4,0 0,-29.8 3.9,0 0,-3.8 -3.9,0 0,-27.9 5.6,0 0,-6.3 -0.1,0 0,-6 0.1,0 0,-7.8 -0.1,0 0,-5.5 0.1,0 0,-7.2 -3.2,0 0,-14.2 3.2,0 0,-2.8 -3.3,0 0,-11.7 1.5,0 0,-2.8 1.7,0 0,-1 -0.3,0 0,-10.7 -0.3,0 0,-21.4 0.3,0 0,-10.7 0.3,0 0,-8.8 0,0 0,-0.3 -0.5,0 0,-6 0.5,0 0,-0.3 0,0 0,-1.7 -4.5,0 0,-1 -1,0 0,-2.6 -0.1,0 0,-0.3 -0.1,0 0,-6 0.5,0 0,-0.3 0.3,0 0,-0.7 0.1,0 0,-0.7 -0.1,0 0,-0.7 -0.3,0 0,-0.3 -0.5,0 0,-6 0.5,0 0,-0.3 0.3,0 0,-1.5 2.6,0 0,-2.6 -2.6,0 0,-5.3 3.6,0 0,-3.8 17.7,0 0,0 1,0 0,0 10.6,0 m 6.2,-6.3 -6.2,0 -5.6,0 -6.3,0 -17.7,0 -6.1,0 0,3.8 -3.6,0 0,6.3 0,3.5 -0.3,0 0,0.3 -0.5,0 0,6.3 0,6 0,6.3 0,2.8 0,6.3 0.5,0 0,0.3 0.3,0 0,2.6 1,0 0,1 3.9,0 0,1.7 0,6.3 0.1,0 0,2.9 0,4.5 -0.3,0 0,6.3 0,21.4 0,5.6 -1,0 0,2.9 -1.5,0 0,6.3 0,11.7 0,6.3 0.1,0 0,10.9 0,6.3 2.9,0 0,1.1 0,6 0,6.3 0,1.5 0,6 0,0 -5.1,0 0,6.3 0,28 0,6.3 0,26.3 0,6.3 5.3,0 0,0.7 0,6 0,6.3 0.1,0 0,10.7 -0.1,0 -6.3,0 0,6.3 0,41.8 0,6.1 6.1,0 17,0.1 0,0 0,0 8.6,0 1,4.6 2.6,0 0,2.9 6.6,-0.5 31.3,-2.6 5.7,-0.5 0,-2.5 0.3,0 0,-0.3 0.3,0 0,-6.4 0,-1.4 3.8,0 6.3,0 0,0 2.5,0 0,-0.7 1.7,0 0,-6.3 0,-8.1 0,-6 -1.7,0 0,-36.9 1.7,0 0,-6.3 0,-17.7 0,-6.1 0,-0.7 0,-16.8 0,-6.3 0,-17 0,-6.1 0,-0.7 0,-16.3 0,-6.3 0,-8.4 0,-6.3 -1.7,0 0,-9 0.3,-2.1 0,-0.3 0,-0.3 0,-1.4 0,-1.4 0,-1.1 0,-0.1 0,0.1 0,-2.6 0,-0.1 0,-0.1 -0.3,-2.6 0,-0.1 0,-0.1 -0.1,-1.4 0,-3.2 1.7,0 0,-6.2 0,-4.3 0,-6.3 0,-6.6 0,-6.1 0,-0.7 0,-2.5 0,-6.5 0,-6 -1.4,0 0,-19.8 0,-6.4 -0.3,0 0,-4.6 -0.1,0 0,-22.2 0,-6.2 -6.2,0 -13.4,0 0,-0.3 -6.2,0 -2.3,0 -6.1,0 0,0.8 -0.7,0 0,6.3 0,2.9 -0.3,0 -6.3,0 0,1 -3.5,0 0,-3.9 0,-6.3 -0.5,0 0,-0.3 -0.3,0 0,-0.7 0.3,0 0,-0.3 0,0 z"
           class="st1"
           inkscape:connector-curvature="0"
           style="fill:#989798" /></g></g><polygon
       id="polygon6668"
       points="348.3,191.4 348.3,193.1 350.7,193.1 350.7,197.4 348.3,197.4 348.3,196.4 334.8,196.4 334.8,179.4 334.8,162.4 348.3,162.4 348.3,161.2 350.7,161.2 350.7,165.7 348.3,165.7 348.3,179.4 348.3,184.9 349.7,184.9 349.7,184.4 352.2,184.4 352.2,174.4 349.5,174.4 349.5,166.9 352.2,166.9 352.2,160 350.2,160 332.1,160 332.1,198.9 350.2,198.9 352.2,198.9 352.2,192 349.7,192 349.7,191.4 "
       class="st6"
       style="fill:#4a6db4" /><polygon
       id="polygon6670"
       points="347.7,192.5 347.7,191.4 347.7,185 347.7,179.9 335.2,180 335.2,195.7 347.7,195.7 "
       class="st6"
       style="fill:#4a6db4" /><polygon
       id="polygon6672"
       points="382.7,223 400.8,223.2 400.8,223 400.8,223.2 450.7,223.2 450.7,219.4 411.8,219.4 380.6,219.4 380.6,223 382.7,223 382.7,223 "
       class="st1"
       style="fill:#989798" /><polygon
       id="polygon6674"
       points="369.6,265.1 369.6,266.1 373.1,266.1 389.1,266.1 389.1,255.5 368.6,255.5 368.6,256.2 368.5,256.2 368.5,256.5 368,256.5 368,262.4 368.5,262.4 368.5,262.7 368.6,262.7 368.6,265.1 "
       class="st7"
       style="fill:#cccbcb" /><path
       id="path6676"
       d="m 375,324.2 2.5,0 0,0.5 5.6,0 0,-0.5 -0.1,0.3 -4.7,-2.8 c -0.3,0.7 -0.5,1.5 -0.5,2.5 0,-0.8 0.1,-1.7 0.5,-2.5 l 0,0 0.1,-0.3 0,0 0,0 0,0 4.7,2.8 2.6,0 0.3,-0.7 1,-1.5 0.7,-1 1,-1.4 1,-1.4 2,-2 1.7,-1.5 1.7,-1.5 1.7,-1 2.3,-1.4 2.1,-1 1.7,-0.8 1.7,-0.5 2,-0.7 2.1,-0.5 2,-0.3 2.1,-0.1 2,0 2,0 2.3,0 2.1,0.3 2.5,0.5 2.5,0.7 1.7,0.5 1.4,0.5 1.4,0.7 1.5,0.8 2.3,1.4 1.7,1.1 1.4,1 3.9,0 0,0.5 5.6,0 0,-0.5 -0.1,0.3 0.1,-0.3 0.8,0 0,-6.3 -1.1,0 0,-0.2 1.1,-6.3 0,-2.3 0,-6.3 -1.1,0 0,-25.1 -71.1,0 0,0.3 -0.3,0 0,0.3 -0.5,0 0,5.6 0.5,0 0,0.3 0.3,0 0,8.4 -0.5,0 0,10.2 -0.3,0 0,20.6 0.3,0 0,10.4 0,0 0,0 -0.2,0 0,0.2 z"
       class="st7"
       inkscape:connector-curvature="0"
       style="fill:#cccbcb" /><path
       id="path6678"
       d="m 373.1,267.7 -0.3,0 0,0.3 -5.6,0 c 0.1,2.9 2.6,5.1 5.6,5.1 l 0.3,0 0,-5.4 0,0 z"
       class="st7"
       inkscape:connector-curvature="0"
       style="fill:#cccbcb" /><g
       id="g6680"><path
         id="path6682"
         d="m 432.9,264.4 13.4,0 0,-30.1 -18.5,0 0,-0.3 -2.3,0 0,0.8 0,0 -0.5,0 0,5 0.5,0 0,0.3 0.5,0 0,1.7 0.7,0 0,2 -8.1,0 0,1.7 -3.2,0 0,19.8 17.3,0 0,-1 0.1,0 0,0.1 0.1,0 z m -1.2,-29.7 c 0,3.2 -2.6,5.7 -5.7,5.7 3,0 5.7,-2.5 5.7,-5.7 z"
         class="st7"
         inkscape:connector-curvature="0"
         style="fill:#cccbcb" /></g><path
       id="path6684"
       d="m 401.6,235.9 -5.6,0 c 0.1,2.9 2.6,5.1 5.6,5.1 -2.9,0 -5.3,-2.3 -5.6,-5.1 l 0,0 0,-0.3 0,0 0,0 0,0 5.6,0 0,-0.3 -0.3,0 0,-0.9 -10.6,0 0,31.2 23.4,0 0,-20.3 -13.1,0 0,-3.8 0.3,0 0,-0.5 0.5,0 0,-5.7 -0.3,0 0,0.7 0.1,-0.1 0,0 z"
       class="st7"
       inkscape:connector-curvature="0"
       style="fill:#cccbcb" /><path
       id="path6686"
       d="m 367.5,247 -0.5,0 0,0 c -3.2,0 -5.6,2.5 -5.6,5.6 l 5.6,0 0,0.3 0.5,0 0,-5.9 z"
       class="st7"
       inkscape:connector-curvature="0"
       style="fill:#cccbcb" /><polygon
       id="polygon6688"
       points="380,484.1 380,483 385.9,483 385.9,469 375,469 375,475 375.3,475 375.3,475.7 374.6,475.7 374.6,482 375.3,482 375.3,482.3 375,482.3 375,484.1 "
       class="st7"
       style="fill:#cccbcb" /><path
       id="path6690"
       d="m 367.5,502.7 -0.5,0 0,0.3 -5.6,0 c 0.1,2.9 2.6,5.6 5.6,5.6 l 0.3,0 0.2,-5.9 0,0 z"
       class="st7"
       inkscape:connector-curvature="0"
       style="fill:#cccbcb" /><path
       id="path6692"
       d="m 367.5,493.8 -0.5,0 0,0 c -3.2,0 -5.6,2.5 -5.6,5.6 l 5.6,0 0,0.3 0.5,0 0,-5.9 z"
       class="st7"
       inkscape:connector-curvature="0"
       style="fill:#cccbcb" /><path
       id="path6694"
       d="m 373.5,365.3 -0.5,0 0,0 c -2.9,0 -5.6,2.5 -5.6,5.3 l 5.6,0 0,0.3 0.5,0 0,-5.6 z"
       class="st7"
       inkscape:connector-curvature="0"
       style="fill:#cccbcb" /><polygon
       id="polygon6696"
       points="368.5,493.8 368.2,493.8 368.2,499.5 368.5,499.5 368.5,499.8 368.9,499.8 368.9,500.3 396,500.3 396,488 387.1,488 385.9,488.3 385.9,485 381.3,485 381.3,486 375,486 375,488 368.9,488 368.9,493.3 368.5,493.3 "
       class="st7"
       style="fill:#cccbcb" /><polygon
       id="polygon6698"
       points="397.6,530.5 397.6,517.3 367.7,517.3 367.7,530.5 384.3,530.5 "
       class="st7"
       style="fill:#cccbcb" /><path
       id="path6700"
       d="m 373.5,459.3 -0.5,0 c -2.9,0 -5.6,2.3 -5.6,5.3 l 5.6,0 0,0.3 0.5,0 0,-5.6 0,0 z"
       class="st7"
       inkscape:connector-curvature="0"
       style="fill:#cccbcb" /><polygon
       id="polygon6702"
       points="368.2,508.5 368.5,508.5 368.5,508.8 368.9,508.8 368.9,512.1 371.3,512.1 371.3,515.5 394.4,515.5 394.4,512.7 397.3,512.7 397.3,502 368.9,502 368.9,502.3 368.5,502.3 368.5,503 368.2,503 "
       class="st7"
       style="fill:#cccbcb" /><polygon
       id="polygon6704"
       points="372.5,329.5 371,329.5 371,340.7 380.3,340.7 380.3,339.5 380.6,338 380.6,337.1 381,336 381.2,335 381.3,333.7 381.8,332.2 382.4,330.5 383.4,327.7 383.4,326.7 381.8,326.7 381.8,326.2 376.3,326.2 376.3,326.7 373.2,326.7 372.5,326.7 "
       class="st7"
       style="fill:#cccbcb" /><polygon
       id="polygon6706"
       points="373.9,370.5 374.5,370.5 374.5,373 385.3,373 385.3,356.7 386.4,356.7 385.9,355.5 385.5,354.2 385.3,354 384.8,352.8 384.8,352.2 384.6,352.2 384.6,352 384.3,351.5 383.8,349.7 383.7,348.5 383.4,347 383.4,345.8 383.2,344.3 371.1,344.3 371.1,358.1 374.5,358.1 374.5,365 373.9,365 "
       class="st7"
       style="fill:#cccbcb" /><path
       id="path6708"
       d="m 384.8,345.1 0.1,1 0.3,1.5 0.3,1.7 0.5,2 0.1,0.3 0.5,1.5 0.1,0.5 0.7,1.4 0.5,1 0.5,0.8 0.5,1 1,1.5 0.8,1 1,1.1 0.8,0.8 0.8,1 1,1 0,-0.3 4.6,0.1 0,0.3 -4.6,-0.1 -0.3,0.3 3.8,2.9 0.1,-0.3 1,0.7 2.3,1.4 2.1,0.8 2,0.7 2.3,0.8 3.5,0.5 2.1,0.3 2.3,0 3.2,-0.1 3.2,-0.5 2.9,-0.8 1.5,-0.5 2.3,-0.8 2.1,-1 1.5,-0.8 1,-0.7 1.1,-1 0.8,-0.5 2,-1.7 2.6,-2.9 0,0 1.5,-2.1 1.1,-2.1 1,-2.1 1,-2.3 1,-3.8 0.5,-2.6 0,-1.1 0,-1.4 0,-1.1 0,-2.5 -0.3,-2.6 -0.3,-1.5 -0.5,-2.6 -0.7,-2.1 -1.4,-3.2 -1.5,-2.6 -1.1,-2 -2,-2.8 -2.1,-2.1 -2,-1.5 -3.2,-2.3 -2.5,-1.1 -2.3,-1 -2.8,-0.8 -2.3,-0.5 -2.8,-0.3 -2.6,-0.1 -2.9,0 -2.5,0.3 -2.8,0.5 -2.1,0.5 -2.3,0.8 -2.3,1 -2.1,1.1 -2.8,2 -1.7,1.4 -1.5,1.5 -1.5,1.7 -1.7,2.3 -1.4,2.3 -0.8,1.7 -0.8,1.7 -0.7,1.4 -0.8,2.6 -0.3,2 0,1.5 -0.1,3.2 0,3.2 0.1,1.1 0.4,0.5 z m 13.5,22.4 c 0.7,-0.8 1,-1.7 1,-2.8 0.2,1.3 -0.2,2.3 -1,2.8 z"
       class="st7"
       inkscape:connector-curvature="0"
       style="fill:#cccbcb" /><polygon
       id="polygon6710"
       points="371.3,243 371.3,245.4 368.6,245.4 368.6,247 368.5,247 368.5,247.4 368,247.4 368,252.9 368.5,252.9 368.5,253.5 368.6,253.5 368.6,254.1 389.1,254.1 389.1,234.4 372.1,234.4 372.1,237.9 368.6,237.9 368.6,243 "
       class="st7"
       style="fill:#cccbcb" /><polygon
       id="polygon6712"
       points="388.4,373.5 398.8,373.5 398.8,370.5 397.2,369.5 397.3,369.2 393.5,366.3 393.4,366.7 391,364.2 388.4,364.2 "
       class="st7"
       style="fill:#cccbcb" /><polygon
       id="polygon6714"
       points="442.1,319.2 443.5,320.7 444.3,321.7 445.2,323.3 446.4,325.1 448.5,325.1 448.5,316.2 447.8,316.2 447.8,315.7 442,315.7 442,316.2 441.4,316.2 441.4,318.3 "
       class="st7"
       style="fill:#cccbcb" /><polygon
       id="polygon6716"
       points="266.3,620.8 266.3,620.3 266.4,620.3 266.4,619.3 270.2,619.3 301,625 302.6,624.8 302.6,558.3 257.1,558.3 257.1,573 258.2,573 258.2,575.5 257.1,575.5 257.1,619.3 260.2,619.3 260.2,620.3 260.6,620.3 260.6,620.8 "
       class="st6"
       style="fill:#4a6db4" /><polygon
       id="polygon6718"
       points="210.6,534.3 210.6,534.7 216.4,534.7 216.4,534.3 216.4,534.3 "
       class="st8"
       style="fill:none" /><polygon
       id="polygon6720"
       points="216.4,523.5 210.6,523.5 210.6,523.8 216.4,523.8 216.4,523.8 216.4,523.5 "
       class="st8"
       style="fill:none" /><rect
       id="rect6722"
       height="5.6999998"
       width="0.30000001"
       class="st8"
       y="531.29999"
       x="223.39999"
       style="fill:none" /><g
       id="g6724"><polygon
         id="polygon6726"
         points="216.4,523.5 210.6,523.5 210.6,523.8 216.4,523.8 216.4,523.8 216.4,523.5 "
         class="st8"
         style="fill:none" /><rect
         id="rect6728"
         height="5.6999998"
         width="0.30000001"
         class="st8"
         y="531.5"
         x="223.39999"
         style="fill:none" /><polygon
         id="polygon6730"
         points="210.6,534.5 210.6,535 216.4,535 216.4,534.7 216.4,534.5 216.4,534.5 "
         class="st8"
         style="fill:none" /><polyline
         id="polyline6732"
         points="210.6,535 210.6,537 218,537 218,537.5 223.8,537.5 223.8,537 223.8,537 231.2,537 231.2,535    231.4,535 231.4,535 231.9,535 231.9,523.5 231.4,523.5 231.4,523.3 231.2,523.3 231.2,521.5 210.6,521.5 210.6,523.3 210.6,534.7     "
         class="st7"
         style="fill:#cccbcb" /><path
         id="path6734"
         d="M 210.6,523.5"
         class="st7"
         inkscape:connector-curvature="0"
         style="fill:#cccbcb" /><path
         id="path6736"
         d="M 210.8,529"
         class="st7"
         inkscape:connector-curvature="0"
         style="fill:#cccbcb" /><path
         id="path6738"
         d="m 216.4,523.5 0,0 0,0 0,0"
         class="st7"
         inkscape:connector-curvature="0"
         style="fill:#cccbcb" /></g><path
       id="path6740"
       d="m 223.8,531.3 c -3.2,0 -5.7,2.6 -5.7,5.7 -0.1,-3.3 2.5,-5.7 5.7,-5.7 z"
       class="st7"
       inkscape:connector-curvature="0"
       style="fill:#cccbcb" /><polygon
       id="polygon6742"
       points="221.2,620.5 221.2,620.3 221.5,620.3 221.5,619.3 225.1,619.3 254.3,624.8 256,624.8 256,557 217,557 217,559.5 211.7,559.5 211.7,619.3 215.5,619.3 215.5,620.3 215.6,620.3 215.6,620.5 "
       class="st6"
       style="fill:#4a6db4" /><path
       id="path6744"
       d="m 186.9,523.5 0,0 0,-0.3 0,0 0,0 0,0 5,0 0,-0.5 -1.4,0 0,-1.4 -26.4,0 0,12.2 -6.6,0 -3.2,0.3 0.3,2.3 -2.9,0.5 -0.5,-2.5 -1.7,0.1 0,4.2 42.5,0 0,-3.2 -2.8,0 0,-2.9 2.8,0 0,-3.9 0.7,0 c -3.1,0.6 -5.6,-1.9 -5.8,-4.9 z"
       class="st7"
       inkscape:connector-curvature="0"
       style="fill:#cccbcb" /><polygon
       id="polygon6746"
       points="192.5,529.8 193.5,529.8 193.5,539.3 129.4,539.3 129.4,543.8 124.7,543.8 124.7,544 124.7,544.3 124.6,544.3 124.6,549.7 125,549.7 125,550.3 125.9,550.3 125.9,552 129.2,552 129.4,552 129.2,557.5 139.1,607 139.1,618.8 209.2,618.8 209.2,524.1 209.2,523.5 193.5,523.7 193.5,524 192.5,524 "
       class="st7"
       style="fill:#cccbcb" /><path
       id="path6748"
       d="m 437.7,380.7 0,0 c -0.3,-0.8 -0.5,-1.7 -0.5,-2.6 l 0,0 -23.1,0 0,0.7 -3.8,0 0,-0.7 -34.8,0 0,2.6 -0.5,0 0,5.7 0.5,0 0,6 -5.7,0 0,26.7 3.8,0 0,3.6 -3.8,0 0,28.7 5.7,0 0,6.6 -0.5,0 0,5.7 0.5,0 0,1 68.5,0 0,-0.1 3.2,0 0,-16.8 -1.1,0 0,-0.1 1.1,-6.3 0,-18.4 -3.2,0 0,-3.9 3.2,0 0,-16.1 -1.1,0 0,-0.1 1.1,-6.3 0,-18.3 -4.5,0 -4.7,2.8 -0.3,-0.4 z"
       class="st7"
       inkscape:connector-curvature="0"
       style="fill:#cccbcb" /><polygon
       id="polygon6750"
       points="397.6,469 387.3,469 387.3,483 387.4,483 387.4,486.5 397.6,486.5 "
       class="st7"
       style="fill:#cccbcb" /><polygon
       id="polygon6752"
       points="437.5,369.2 436.6,370 434.9,371 434.9,375 438.4,375 438.4,375.5 443.9,375.5 443.9,375 445.3,375 445.3,372.5 448.4,372.5 448.4,364.5 442.1,364.5 441,366 440.2,367 438.9,368.1 "
       class="st7"
       style="fill:#cccbcb" /><polygon
       id="polygon6754"
       points="431.3,563 431.3,557.8 400.1,558 400.1,557.8 382.8,557.8 373.9,608.5 382,609.7 382.5,606.8 434.5,616 433.9,618.8 444.5,620.5 444.5,563 441.4,563 441.4,562.7 441.2,562.7 441.2,562.7 436,562.7 435.7,562.7 435.7,563 "
       class="st6"
       style="fill:#4a6db4" /><polygon
       id="polygon6756"
       points="433.6,533.3 433.6,530.7 433.9,530.7 433.9,530.3 434.2,530.3 434.2,524.7 433.9,524.7 433.9,524.3 433.6,524.3 433.6,523 443.8,523 443.8,522.3 447.8,522.3 447.8,514.7 445.6,514.7 445.6,469.5 400.1,469.3 400.1,533.5 403.6,533.5 403.6,535.8 "
       class="st6"
       style="fill:#4a6db4" /><polygon
       id="polygon6758"
       points="315.1,620.3 315.1,619.3 318.5,619.3 347.7,624.8 351.1,624.8 351.1,558.3 303.2,558.3 303.2,601 304.3,601 304.3,605 303.2,605 303.2,619.3 308.9,619.3 308.9,620.3 309.2,620.3 314.8,620.3 "
       class="st6"
       style="fill:#4a6db4" /><polygon
       id="polygon6760"
       points="210.8,555.8 236.2,555.8 236.2,543.8 231.2,543.8 231.2,538.5 223.8,538.5 223.8,538 218,538 218,538.5 218,538.5 210.8,538.5 "
       class="st7"
       style="fill:#cccbcb" /><polygon
       id="polygon6762"
       points="384.3,613.3 369.9,610.7 379.7,554.1 433.9,554.1 433.9,560 439.1,560 439.1,559.5 439.2,559.5 439.2,559.1 444.9,559.1 444.9,559.5 445.3,559.5 445.3,560 447.4,560 447.4,624.1 430.4,621.3 431,618 385,610 "
       class="st9"
       style="fill:none;stroke:#989798;stroke-width:4;stroke-linecap:square;stroke-miterlimit:10" /><polygon
       id="polygon6764"
       points="441.8,531.5 492.5,530.3 493.1,562.8 492.8,562.8 453.4,558.8 442.8,556 "
       class="st10"
       style="opacity:0.25;fill:#989798;enable-background:new" /><rect
       id="rect6766"
       height="8.1999998"
       width="1.4"
       class="st11"
       y="544.79999"
       x="468.70001"
       style="opacity:0.6;fill:#4a6db4;enable-background:new" /><rect
       id="rect6768"
       height="8.1999998"
       width="1.4"
       class="st11"
       y="544.79999"
       x="471.20001"
       style="opacity:0.6;fill:#4a6db4;enable-background:new" /><rect
       id="rect6770"
       height="8.1999998"
       width="1.4"
       class="st11"
       y="544.79999"
       x="473.60001"
       style="opacity:0.6;fill:#4a6db4;enable-background:new" /><rect
       id="rect6772"
       height="8.1999998"
       width="1.4"
       class="st11"
       y="544.79999"
       x="476.10001"
       style="opacity:0.6;fill:#4a6db4;enable-background:new" /><rect
       id="rect6774"
       height="8.1999998"
       width="1.4"
       class="st11"
       y="544.79999"
       x="478.39999"
       style="opacity:0.6;fill:#4a6db4;enable-background:new" /><rect
       id="rect6776"
       height="8.1999998"
       width="1.4"
       class="st11"
       y="544.79999"
       x="481.10001"
       style="opacity:0.6;fill:#4a6db4;enable-background:new" /><rect
       id="rect6778"
       height="8.1999998"
       width="1.4"
       class="st11"
       y="544.79999"
       x="483.5"
       style="opacity:0.6;fill:#4a6db4;enable-background:new" /><rect
       id="rect6780"
       height="8.1999998"
       width="1.4"
       class="st11"
       y="544.79999"
       x="486"
       style="opacity:0.6;fill:#4a6db4;enable-background:new" /><rect
       id="rect6782"
       height="8.1999998"
       width="1.4"
       class="st11"
       y="536.09998"
       x="468.70001"
       style="opacity:0.6;fill:#4a6db4;enable-background:new" /><rect
       id="rect6784"
       height="8.1999998"
       width="1.4"
       class="st11"
       y="536.09998"
       x="471.20001"
       style="opacity:0.6;fill:#4a6db4;enable-background:new" /><rect
       id="rect6786"
       height="8.1999998"
       width="1.4"
       class="st11"
       y="536.09998"
       x="473.60001"
       style="opacity:0.6;fill:#4a6db4;enable-background:new" /><rect
       id="rect6788"
       height="8.1999998"
       width="1.4"
       class="st11"
       y="536.09998"
       x="476.10001"
       style="opacity:0.6;fill:#4a6db4;enable-background:new" /><rect
       id="rect6790"
       height="8.1999998"
       width="1.4"
       class="st11"
       y="536.09998"
       x="478.39999"
       style="opacity:0.6;fill:#4a6db4;enable-background:new" /><rect
       id="rect6792"
       height="8.1999998"
       width="1.4"
       class="st11"
       y="536.09998"
       x="481.10001"
       style="opacity:0.6;fill:#4a6db4;enable-background:new" /><rect
       id="rect6794"
       height="8.1999998"
       width="1.4"
       class="st11"
       y="536.09998"
       x="483.5"
       style="opacity:0.6;fill:#4a6db4;enable-background:new" /><rect
       id="rect6796"
       height="8.1999998"
       width="1.4"
       class="st11"
       y="536.09998"
       x="486"
       style="opacity:0.6;fill:#4a6db4;enable-background:new" /><rect
       id="rect6798"
       height="8.1999998"
       width="1.4"
       class="st11"
       y="544.79999"
       x="454.10001"
       style="opacity:0.6;fill:#4a6db4;enable-background:new" /><rect
       id="rect6800"
       height="8.1999998"
       width="1.4"
       class="st11"
       y="544.79999"
       x="456.29999"
       style="opacity:0.6;fill:#4a6db4;enable-background:new" /><rect
       id="rect6802"
       height="8.1999998"
       width="1.4"
       class="st11"
       y="544.79999"
       x="458.79999"
       style="opacity:0.6;fill:#4a6db4;enable-background:new" /><rect
       id="rect6804"
       height="8.1999998"
       width="1.4"
       class="st11"
       y="544.79999"
       x="461.5"
       style="opacity:0.6;fill:#4a6db4;enable-background:new" /><rect
       id="rect6806"
       height="8.1999998"
       width="1.4"
       class="st11"
       y="544.79999"
       x="463.70001"
       style="opacity:0.6;fill:#4a6db4;enable-background:new" /><rect
       id="rect6808"
       height="8.1999998"
       width="1.4"
       class="st11"
       y="544.79999"
       x="466.20001"
       style="opacity:0.6;fill:#4a6db4;enable-background:new" /><rect
       id="rect6810"
       height="8.1999998"
       width="1.4"
       class="st11"
       y="536.09998"
       x="454.10001"
       style="opacity:0.6;fill:#4a6db4;enable-background:new" /><rect
       id="rect6812"
       height="8.1999998"
       width="1.4"
       class="st11"
       y="536.09998"
       x="456.29999"
       style="opacity:0.6;fill:#4a6db4;enable-background:new" /><rect
       id="rect6814"
       height="8.1999998"
       width="1.4"
       class="st11"
       y="536.09998"
       x="458.79999"
       style="opacity:0.6;fill:#4a6db4;enable-background:new" /><rect
       id="rect6816"
       height="8.1999998"
       width="1.4"
       class="st11"
       y="536.09998"
       x="461.5"
       style="opacity:0.6;fill:#4a6db4;enable-background:new" /><rect
       id="rect6818"
       height="8.1999998"
       width="1.4"
       class="st11"
       y="536.09998"
       x="463.70001"
       style="opacity:0.6;fill:#4a6db4;enable-background:new" /><rect
       id="rect6820"
       height="8.1999998"
       width="1.4"
       class="st11"
       y="536.09998"
       x="466.20001"
       style="opacity:0.6;fill:#4a6db4;enable-background:new" /><g
       id="g6822"><g
         id="g6824"><path
           id="path6826"
           d="m 350.7,161.2 0,4.5 -2.6,0 0,13.7 0,13.7 2.6,0 0,4.5 -2.6,0 0,-1.1 -13.7,0 0,-17 0,-17 13.7,0 0,-1.1 2.6,-0.2 m 6.2,-6.2 -6.3,0 -2.6,0 -6.2,0 0,1.1 -7.4,0 -6.1,0 0,6.3 0,17 0,17 0,6.3 6.3,0 7.4,0 0,1.1 6.3,0 2.6,0 6.3,0 0,-6.3 0,-4.5 0,-6.3 -2.6,0 0,-7.5 0,-7.4 2.6,0 0,-6.1 0,-4.5 0,-6.3 -0.3,0.1 0,0 z"
           class="st1"
           inkscape:connector-curvature="0"
           style="fill:#989798" /></g></g><g
       id="g6828"><g
         id="g6830"><path
           id="path6832"
           d="m 191,520.8 0,1.4 1.5,0 0,0.5 0.7,0 0.3,0 0.8,0 0,-0.3 12.2,0 0,-1.4 11.4,0 0,0 13.5,0 0,2 0.3,0 0,0.3 0.5,0 0,11.7 -0.5,0 0,0.3 -0.3,0 0,2 0,1.1 0,5.1 5,0 0,12.4 19.8,-0.1 0,1.4 1.7,0 0,-0.1 41.1,0 0,0 6.3,0 0,0 46,0 0,68.8 -3.2,0 -29.9,-6 -3.6,0 0,1 -0.3,0 0,0.3 -6,0 0,-0.3 -0.3,0 0,-1 -3.3,0 0,0 -1.7,0 0,6 -1.5,0 -29.9,-6 -3.8,0 0,1 0,0 0,0.3 -6,0 0,-0.3 -0.3,0 0,-1 -3.3,0 0,0 -1.7,0 0,6 -1.5,0 -29.9,-6 -3.6,0 0,1 -0.1,0 0,0.3 -6,0 0,-0.3 -0.3,0 0,-1 -3.8,0 0,0 -4.7,0 0,0.5 -68.5,0 0,-12.2 -10,-51.2 0,-4.7 -2.3,0 0,-2 -1,0 0,-0.3 -0.7,0 0,-3.5 -0.5,0 0,-24.5 0,0 0,-0.1 38.4,0 0,0.1 2,0 0,-1.1 27,-0.1 m 5,-5 -4.7,0 -27.6,0 -4.7,0 0,1 -35.3,0 -4.7,0 0,0.1 0,0 0,4.7 0,24.5 0,4.7 0.5,0 0,3.5 0.5,0 0,0.3 1,0 0,2 2.3,0 0,0.3 0,0.5 10,50.9 0,11.5 0,4.7 4.6,0 68.4,0 3.3,0 0,0.7 0.3,0 0,0.3 4.7,0 6.1,0 4.7,0 0,-0.3 0.5,0 0,-0.7 27.8,5.6 0.5,0 0.5,0 1.5,0 4.7,0 0,-4.3 0.3,0 6,0 4.7,0 0,-0.3 0.3,0 0,-1 28,5.6 0.5,0 0.5,0 1.5,0 4.7,0 0,-4.3 0.3,0 6,0 4.7,0 0,-0.3 0.3,0 0,-1 27.8,5.6 0.5,0 0.5,0 3.5,0 4.7,0 0,-4.7 0,-68.8 0,-4.7 -4.7,0 -41.1,0 0,0 -4.7,0 -6.3,0 -4.7,0 0,0 -33.3,0 0,-1.1 -5,0 -15,0.1 0,-7.5 0,-4.7 -3.5,0 0,-3.6 0,-11.8 0,-4.7 -0.5,0 0,-0.3 -0.3,0 0,-2 -4.8,0 -8.8,0 0,0 -5,0 -11.4,0 -4.7,0 0,1.4 -4.2,0 0,-0.1 -1.5,0 -0.2,-1.8 0,0 z"
           class="st1"
           inkscape:connector-curvature="0"
           style="fill:#989798" /></g></g><g
       id="g6834"><path
         id="path6836"
         d="m 431.7,162.2 c 7.2,0 13.2,6 13.2,13.2 l 0,0.1 c 0,6.4 -4.6,11.7 -10.9,13.1 l -35.5,6.4 0,-32.6 33.1,0 m 0.1,-6.3 -33.1,0 -6.3,0 0,6.3 0,32.5 0,7.4 7.2,-1.4 35.2,-6.6 c 9.3,-1.5 15.9,-9.6 15.9,-18.8 l 0,-0.1 c 0.1,-10.7 -8.6,-19.3 -18.9,-19.3 l 0,0 z"
         class="st1"
         inkscape:connector-curvature="0"
         style="fill:#989798" /></g><path
       id="path6838"
       d="m 220.9,620.5 -6,0 0,0.5 0.3,0 0,6 c 3.2,-0.1 5.6,-2.8 5.6,-6 l 0,0 0.1,-0.5 0,0 z"
       class="st6"
       inkscape:connector-curvature="0"
       style="fill:#4a6db4" /><path
       id="path6840"
       d="m 267.7,620.8 -6,0 0,0.5 0.3,0 0,6 c 3.2,-0.1 5.6,-2.8 5.6,-6 l 0,0 0.1,-0.5 0,0 z"
       class="st6"
       inkscape:connector-curvature="0"
       style="fill:#4a6db4" /><path
       id="path6842"
       d="m 314.3,620.3 -6,0 0,0.5 0.3,0 0,6 c 3.2,-0.1 5.6,-2.8 5.6,-6 l 0,0 0.1,-0.5 0,0 z"
       class="st6"
       inkscape:connector-curvature="0"
       style="fill:#4a6db4" /><path
       id="path6844"
       d="m 436.3,562.7 6,0 0,-0.5 -0.3,0 0,-6 c -3.2,0.1 -5.6,2.8 -5.6,6 l 0,0 0,0.5 -0.1,0 z"
       class="st6"
       inkscape:connector-curvature="0"
       style="fill:#4a6db4" /><path
       id="path6846"
       d="m 439.2,524.8 -6,0 0,0.5 0.3,0 0,6 c 3.2,-0.1 5.6,-2.8 5.6,-6 l 0,0 0,-0.5 0.1,0 z"
       class="st6"
       inkscape:connector-curvature="0"
       style="fill:#4a6db4" /><path
       id="path6848"
       d="m 210.6,529.7 0,5.1 6,0 c -0.1,-2.6 -2,-4.7 -4.5,-5.1 2.6,-0.3 4.3,-2.6 4.5,-5.1 l -6,0 0,5.1 0,0 0,0 0,0 0,0 z"
       class="st4"
       inkscape:connector-curvature="0"
       style="fill:#ffffff" /><path
       id="path6850"
       d="m 210.6,547 0,5.1 6,0 c -0.1,-2.6 -2,-4.7 -4.5,-5.1 2.6,-0.3 4.3,-2.6 4.5,-5.1 l -6,0 0,5.1 0,0 0,0 0,0 0,0 z"
       class="st4"
       inkscape:connector-curvature="0"
       style="fill:#ffffff" /><path
       id="path6852"
       d="m 402.4,235 -0.3,0 0,0.3 -5.6,0 c 0.1,2.9 2.6,5.1 5.6,5.1 l 0.3,0 0,-5.4 0,0 z"
       class="st4"
       inkscape:connector-curvature="0"
       style="fill:#ffffff" /><path
       id="path6854"
       d="m 425.4,234.7 0.3,0 0,0.3 5.3,0 c -0.1,2.9 -2.6,5.1 -5.3,5.1 l -0.3,0 0,-5.4 0,0 z"
       class="st4"
       inkscape:connector-curvature="0"
       style="fill:#ffffff" /><g
       id="g6856"><path
         id="path6858"
         d="m 433.6,247.4 c -0.7,0 -1.1,-0.7 -1.1,-1.1 0,-0.7 0.5,-1.1 1.1,-1.1 0.6,0 1.1,0.7 1.1,1.1 0,0.4 -0.5,1.1 -1.1,1.1 z"
         class="st6"
         inkscape:connector-curvature="0"
         style="fill:#4a6db4" /><path
         id="path6860"
         d="m 434.2,247.9 c 1.1,0 1.7,0.8 2,1.4 l 1,3.6 c 0.1,0.3 0,0.7 -0.1,0.7 -0.1,0 -0.5,0 -0.7,-0.3 l -0.8,-3.2 c 0,-0.1 -0.1,-0.3 -0.3,-0.1 -0.1,0 -0.1,0.1 -0.1,0.3 l 1.7,5.7 -2,0 c 0,2.3 0,4.3 0,4.3 0,0.7 -0.3,0.7 -0.5,0.7 -0.1,0 -0.5,0 -0.5,-0.7 0,-0.7 0,-4.2 0,-4.2 0,-0.1 0,-0.1 -0.1,-0.1 -0.1,0 -0.1,0 -0.1,0.1 0,0 0,3.6 0,4.2 0,0.7 -0.3,0.7 -0.5,0.7 -0.2,0 -0.5,0 -0.5,-0.7 0,0 0,-2.1 0,-4.3 l -2,0 1.7,-5.7 c 0,-0.1 0,-0.3 -0.1,-0.3 -0.1,0 -0.3,0 -0.3,0.1 l -0.8,3.2 c -0.1,0.3 -0.3,0.5 -0.7,0.3 -0.1,0 -0.3,-0.3 -0.1,-0.7 l 1,-3.6 c 0.1,-0.5 0.5,-1.4 2,-1.4 l 0.8,0 z"
         class="st6"
         inkscape:connector-curvature="0"
         style="fill:#4a6db4" /></g><g
       id="g6862"><g
         id="g6864"><path
           id="path6866"
           d="m 403.4,248.5 c -0.7,0 -1.4,-0.7 -1.4,-1.4 0,-0.7 0.7,-1.4 1.4,-1.4 0.7,0 1.4,0.7 1.4,1.4 0,1 -0.5,1.4 -1.4,1.4 z"
           class="st6"
           inkscape:connector-curvature="0"
           style="fill:#4a6db4" /></g><path
         id="path6868"
         d="m 401.2,251.9 0,2.9 c 0,0.5 -0.1,0.7 -0.5,0.7 -0.3,0 -0.5,-0.1 -0.5,-0.7 l 0,-3.6 c 0,-1.5 0.8,-2.1 2.1,-2.1 l 2.3,0 c 1.4,0 2.1,0.3 2.1,2.1 l 0,3.6 c 0,0.5 -0.1,0.7 -0.5,0.7 -0.3,0 -0.5,-0.1 -0.5,-0.7 l 0,-2.9 c 0,-0.3 -0.1,-0.3 -0.1,-0.3 0,0 -0.3,0 -0.3,0.3 0,0.3 0,9.7 0,9.7 0,0.7 -0.5,0.7 -0.7,0.7 -0.1,0 -0.7,0 -0.7,-0.7 0,-0.7 0,-5.7 0,-5.7 0,-0.1 0,-0.3 -0.1,-0.3 -0.1,0 -0.1,0 -0.1,0.3 0,0 0,5 0,5.7 0,0.7 -0.5,0.7 -0.7,0.7 -0.2,0 -0.7,0 -0.7,-0.7 0,0 0,-9.3 0,-9.7 0,-0.4 -0.1,-0.3 -0.3,-0.3 -0.2,0 -0.8,0.1 -0.8,0.3 z"
         class="st6"
         inkscape:connector-curvature="0"
         style="fill:#4a6db4" /></g><text
       id="text6870"
       class="st4 st2 st12"
       transform="translate(414.6821,502.4508)"
       style="font-size:11.04129982px;font-family:ArialMT;fill:#ffffff">1125</text>
<text
       id="text6872"
       class="st4 st2 st12"
       transform="translate(403.1078,589.6998)"
       style="font-size:11.04129982px;font-family:ArialMT;fill:#ffffff">1121</text>
<text
       id="text6874"
       class="st4 st2 st12"
       transform="translate(319.6303,590.9274)"
       style="font-size:11.04129982px;font-family:ArialMT;fill:#ffffff">1134</text>
<text
       id="text6876"
       class="st4 st2 st12"
       transform="translate(271.228,590.9274)"
       style="font-size:11.04129982px;font-family:ArialMT;fill:#ffffff">1132</text>
<text
       id="text6878"
       class="st4 st2 st12"
       transform="translate(224.9316,590.9274)"
       style="font-size:11.04129982px;font-family:ArialMT;fill:#ffffff">1130</text>
<polygon
       id="polygon6880"
       points="420.6,175.7 422.1,175.7 421.9,186.4 420.4,186.4 "
       class="st11"
       style="opacity:0.6;fill:#4a6db4;enable-background:new" /><polygon
       id="polygon6882"
       points="423,175.7 424.6,175.7 424.2,186 422.9,186.1 "
       class="st11"
       style="opacity:0.6;fill:#4a6db4;enable-background:new" /><polygon
       id="polygon6884"
       points="425.5,175.7 427,175.7 426.7,185.7 425.4,185.7 "
       class="st11"
       style="opacity:0.6;fill:#4a6db4;enable-background:new" /><polygon
       id="polygon6886"
       points="428.2,175.7 429.5,175.7 429.2,185.4 427.6,185.4 "
       class="st11"
       style="opacity:0.6;fill:#4a6db4;enable-background:new" /><polygon
       id="polygon6888"
       points="430.4,175.7 432,175.7 431.7,185 430.1,185.2 "
       class="st11"
       style="opacity:0.6;fill:#4a6db4;enable-background:new" /><polygon
       id="polygon6890"
       points="432.9,175.7 434.2,175.7 434.1,184.5 432.6,184.9 "
       class="st11"
       style="opacity:0.6;fill:#4a6db4;enable-background:new" /><polygon
       id="polygon6892"
       points="435.4,175.7 436.8,175.7 436.4,184.2 434.9,184.4 "
       class="st11"
       style="opacity:0.6;fill:#4a6db4;enable-background:new" /><polygon
       id="polygon6894"
       points="437.8,175.7 439.3,175.7 439.3,183.9 437.4,183.9 "
       class="st11"
       style="opacity:0.6;fill:#4a6db4;enable-background:new" /><rect
       id="rect6896"
       height="8.1999998"
       width="1.4"
       class="st11"
       y="167.10001"
       x="420.60001"
       style="opacity:0.6;fill:#4a6db4;enable-background:new" /><rect
       id="rect6898"
       height="8.1999998"
       width="1.4"
       class="st11"
       y="167.10001"
       x="423"
       style="opacity:0.6;fill:#4a6db4;enable-background:new" /><rect
       id="rect6900"
       height="8.1999998"
       width="1.4"
       class="st11"
       y="167.10001"
       x="425.5"
       style="opacity:0.6;fill:#4a6db4;enable-background:new" /><rect
       id="rect6902"
       height="8.1999998"
       width="1.4"
       class="st11"
       y="167.10001"
       x="428.20001"
       style="opacity:0.6;fill:#4a6db4;enable-background:new" /><rect
       id="rect6904"
       height="8.1999998"
       width="1.4"
       class="st11"
       y="167.10001"
       x="430.39999"
       style="opacity:0.6;fill:#4a6db4;enable-background:new" /><rect
       id="rect6906"
       height="8.1999998"
       width="1.4"
       class="st11"
       y="167.10001"
       x="432.89999"
       style="opacity:0.6;fill:#4a6db4;enable-background:new" /><rect
       id="rect6908"
       height="8.1999998"
       width="1.4"
       class="st11"
       y="167.10001"
       x="435.39999"
       style="opacity:0.6;fill:#4a6db4;enable-background:new" /><rect
       id="rect6910"
       height="8.1999998"
       width="1.4"
       class="st11"
       y="167.10001"
       x="437.79999"
       style="opacity:0.6;fill:#4a6db4;enable-background:new" /><polygon
       id="polygon6912"
       points="400.8,175.7 402.3,175.7 402.3,189.1 400.8,189.2 "
       class="st11"
       style="opacity:0.6;fill:#4a6db4;enable-background:new" /><polygon
       id="polygon6914"
       points="403.4,175.7 404.8,175.7 404.8,188.9 403.4,188.9 "
       class="st11"
       style="opacity:0.6;fill:#4a6db4;enable-background:new" /><polygon
       id="polygon6916"
       points="405.8,175.7 407.2,175.7 407.2,188.4 405.8,188.7 "
       class="st11"
       style="opacity:0.6;fill:#4a6db4;enable-background:new" /><polygon
       id="polygon6918"
       points="408.2,175.7 409.7,175.7 409.5,187.9 408.2,188.1 "
       class="st11"
       style="opacity:0.6;fill:#4a6db4;enable-background:new" /><polygon
       id="polygon6920"
       points="410.8,175.7 412.2,175.7 412,187.7 410.7,187.9 "
       class="st11"
       style="opacity:0.6;fill:#4a6db4;enable-background:new" /><polygon
       id="polygon6922"
       points="413.2,175.7 414.7,175.7 414.4,187.4 413,187.4 "
       class="st11"
       style="opacity:0.6;fill:#4a6db4;enable-background:new" /><polygon
       id="polygon6924"
       points="415.7,175.7 416.9,175.7 416.8,187 415.5,187.1 "
       class="st11"
       style="opacity:0.6;fill:#4a6db4;enable-background:new" /><polygon
       id="polygon6926"
       points="418.3,175.7 419.6,175.7 419.4,186.7 417.9,186.9 "
       class="st11"
       style="opacity:0.6;fill:#4a6db4;enable-background:new" /><rect
       id="rect6928"
       height="8.1999998"
       width="1.4"
       class="st11"
       y="167.10001"
       x="400.79999"
       style="opacity:0.6;fill:#4a6db4;enable-background:new" /><rect
       id="rect6930"
       height="8.1999998"
       width="1.4"
       class="st11"
       y="167.10001"
       x="403.39999"
       style="opacity:0.6;fill:#4a6db4;enable-background:new" /><rect
       id="rect6932"
       height="8.1999998"
       width="1.4"
       class="st11"
       y="167.10001"
       x="405.79999"
       style="opacity:0.6;fill:#4a6db4;enable-background:new" /><rect
       id="rect6934"
       height="8.1999998"
       width="1.4"
       class="st11"
       y="167.10001"
       x="408.20001"
       style="opacity:0.6;fill:#4a6db4;enable-background:new" /><rect
       id="rect6936"
       height="8.1999998"
       width="1.4"
       class="st11"
       y="167.10001"
       x="410.79999"
       style="opacity:0.6;fill:#4a6db4;enable-background:new" /><rect
       id="rect6938"
       height="8.1999998"
       width="1.4"
       class="st11"
       y="167.10001"
       x="413.20001"
       style="opacity:0.6;fill:#4a6db4;enable-background:new" /><rect
       id="rect6940"
       height="8.1999998"
       width="1.4"
       class="st11"
       y="167.10001"
       x="415.70001"
       style="opacity:0.6;fill:#4a6db4;enable-background:new" /><rect
       id="rect6942"
       height="8.1999998"
       width="1.4"
       class="st11"
       y="167.10001"
       x="418.29999"
       style="opacity:0.6;fill:#4a6db4;enable-background:new" /><text
       id="text6944"
       class="st4 st13 st14"
       transform="translate(338.1045,190.4596)"
       style="font-size:10.83220005px;font-family:MyriadPro-Regular;fill:#ffffff">E</text>
<polygon
       id="polygon6946"
       points="386.4,481.2 386.4,480 386.4,473.7 386.4,468.6 373.9,468.7 373.9,484.3 386.4,484.3 "
       class="st6"
       style="fill:#4a6db4" /><text
       id="text6948"
       class="st4 st13 st14"
       transform="translate(376.7712,479.1262)"
       style="font-size:10.83220005px;font-family:MyriadPro-Regular;fill:#ffffff">E</text>
<polygon
       id="polygon6950"
       points="223.3,639.5 212.1,639.5 217.6,629.8 "
       class="st6"
       style="fill:#4a6db4" /><polygon
       id="polygon6952"
       points="270.5,639.5 259.2,639.5 264.6,629.8 "
       class="st6"
       style="fill:#4a6db4" /><polygon
       id="polygon6954"
       points="317.8,639.5 306.4,639.5 312,629.8 "
       class="st6"
       style="fill:#4a6db4" /><polygon
       id="polygon6956"
       points="435.6,545.7 446.7,545.3 441,555.3 "
       class="st6"
       style="fill:#4a6db4" /><polygon
       id="polygon6958"
       points="447.4,543 442.5,532.8 453.7,533.5 "
       class="st6"
       style="fill:#4a6db4" /><rect
       id="rect6960"
       height="8.1999998"
       width="1.4"
       class="st11"
       y="523.5"
       x="139.89999"
       style="opacity:0.6;fill:#4a6db4;enable-background:new" /><rect
       id="rect6962"
       height="8.1999998"
       width="1.4"
       class="st11"
       y="523.5"
       x="142.39999"
       style="opacity:0.6;fill:#4a6db4;enable-background:new" /><rect
       id="rect6964"
       height="8.1999998"
       width="1.4"
       class="st11"
       y="523.5"
       x="144.8"
       style="opacity:0.6;fill:#4a6db4;enable-background:new" /><rect
       id="rect6966"
       height="8.1999998"
       width="1.4"
       class="st11"
       y="523.5"
       x="147.3"
       style="opacity:0.6;fill:#4a6db4;enable-background:new" /><rect
       id="rect6968"
       height="8.1999998"
       width="1.4"
       class="st11"
       y="523.5"
       x="149.60001"
       style="opacity:0.6;fill:#4a6db4;enable-background:new" /><rect
       id="rect6970"
       height="8.1999998"
       width="1.4"
       class="st11"
       y="523.5"
       x="152.3"
       style="opacity:0.6;fill:#4a6db4;enable-background:new" /><rect
       id="rect6972"
       height="8.1999998"
       width="1.4"
       class="st11"
       y="523.5"
       x="154.7"
       style="opacity:0.6;fill:#4a6db4;enable-background:new" /><rect
       id="rect6974"
       height="8.1999998"
       width="1.4"
       class="st11"
       y="523.5"
       x="157.2"
       style="opacity:0.6;fill:#4a6db4;enable-background:new" /><rect
       id="rect6976"
       height="8.1999998"
       width="1.4"
       class="st11"
       y="523.5"
       x="125.3"
       style="opacity:0.6;fill:#4a6db4;enable-background:new" /><rect
       id="rect6978"
       height="8.1999998"
       width="1.4"
       class="st11"
       y="523.5"
       x="127.5"
       style="opacity:0.6;fill:#4a6db4;enable-background:new" /><rect
       id="rect6980"
       height="8.1999998"
       width="1.4"
       class="st11"
       y="523.5"
       x="130"
       style="opacity:0.6;fill:#4a6db4;enable-background:new" /><rect
       id="rect6982"
       height="8.1999998"
       width="1.4"
       class="st11"
       y="523.5"
       x="132.7"
       style="opacity:0.6;fill:#4a6db4;enable-background:new" /><rect
       id="rect6984"
       height="8.1999998"
       width="1.4"
       class="st11"
       y="523.5"
       x="134.89999"
       style="opacity:0.6;fill:#4a6db4;enable-background:new" /><rect
       id="rect6986"
       height="8.1999998"
       width="1.4"
       class="st11"
       y="523.5"
       x="137.39999"
       style="opacity:0.6;fill:#4a6db4;enable-background:new" /></g></svg>