<?xml version="1.0" encoding="utf-8"?>
<!-- Generator: Adobe Illustrator 17.1.0, SVG Export Plug-In . SVG Version: 6.00 Build 0)  -->
<!DOCTYPE svg PUBLIC "-//W3C//DTD SVG 1.1//EN" "http://www.w3.org/Graphics/SVG/1.1/DTD/svg11.dtd">
<svg version="1.1" id="Layer_1" xmlns="http://www.w3.org/2000/svg" xmlns:xlink="http://www.w3.org/1999/xlink" x="0px" y="0px"
	 viewBox="28 896 792 541.9" enable-background="new 28 896 792 541.9" xml:space="preserve">
<rect x="532.3" y="1324.1" opacity="0.62" fill="#CCCBCB" enable-background="new    " width="237.9" height="28.1"/>
<path opacity="0.62" fill="#CCCBCB" enable-background="new    " d="M689,1024.4L689,1024.4c0.4-2.9,2.9-5.3,5.8-6c0,0,0,0,0.1,0
	h0.1c0.1,0,0.1,0,0.3,0c0.1,0,0.1,0,0.1,0.1v0.1v5.7l0,0v-12.8c0-0.1,0.1-0.1,0.1-0.1h31.6l-0.1-58.2h-31.6c-0.1,0-0.1-0.1-0.1-0.1
	V896h-14.6v62.2v7.5v10.4v7.8v40.7h3.5h4.7v-0.2H689z"/>
<g>
	<g>
		<path fill="#989798" d="M758.5,1346.6v3.9h0.7v6.4h-0.1v1.5h16.8v0.3v0.3h0.7v2.6h2v68.4l-45.4-7.8l0.7-3.6l-5.7-1l-0.7,3.5
			l-31.5-5.6v2.1h-12v-1.5h-1.4l-2.3,14.2h-46.8h-2.9h-44.8h-2.9h-45.5v-2.9h-1v-59.2v-6.6h5.3v-2.9H575v-1h0.3v-0.3h6v0.3h0.3v1h1
			h2.1h13.4v-1v-1v-6.6v-3.3h15v0.5h0.3h0.3v-0.5h18v11.3h2v-0.3h0.5h6h0.3v1.1h2.6v1.1h21.4v-1.1h15.3l1.5-1v-1h-1.7v-0.3v-6v-0.3
			h1v-3.3h18.6v-0.7h28.7v2.6h1h2.1h1v-2.6L758.5,1346.6 M764.9,1340.4h-6.3h-23.7h-6.3H700h-6.1v0.7h-12.2h-6.3v3.3h-1v6.3v0.3v2.4
			h-9.2h-6.1v1.1h-9.2v-1.1h-2.6v-1.1h-6.1h-0.3h-2.5v-4.6v-6.3H632h-12.8h-6.3h-15h-6.3v6.3v3.3v2.6h-4.3v-1.1H587v-0.3h-6.3h-5.6
			h-6.3v0.3h-0.3v1h-27.2H535v2.9h-5.3v6.1v6.6l0,0l0,0v59.2v6.3h1v2.9h6.3h45.7h2.9h44.8h2.9h46.8h5.1l0.8-5.1l1.1-7.8h8.2h6.3
			v-0.7l24.1,4.2l0,0l6.1,1l45.4,7.8l7.2,1.1v-7.2v-68.4v-6.3h-2v-2.6h-0.7v-0.5h-6.3H765v-2v-6.3h-0.7L764.9,1340.4L764.9,1340.4z"
			/>
	</g>
</g>
<g opacity="0.5">
	<g>
		
			<text transform="matrix(1 0 0 1 93.043 926.0695)" fill="#989798" font-family="'TradeGothic-BoldCondTwenty'" font-size="15.3352">Level </text>
	</g>
	<circle fill="#989798" cx="154.3" cy="923.6" r="25.9"/>
	
		<text transform="matrix(1 0 0 1 141.5635 941.7248)" fill="#FFFFFF" font-family="'TradeGothic-BoldCondTwenty'" font-size="49.0728">1</text>
</g>
<g opacity="0.5">
	<g>
		
			<text transform="matrix(1 0 0 1 520.418 926.0695)" fill="#989798" font-family="'TradeGothic-BoldCondTwenty'" font-size="15.3352">Level </text>
	</g>
	<circle fill="#989798" cx="581.7" cy="923.6" r="25.9"/>
	
		<text transform="matrix(1 0 0 1 568.9375 941.7248)" fill="#FFFFFF" font-family="'TradeGothic-BoldCondTwenty'" font-size="49.0728">2</text>
</g>
<g>
	<g>
		<path fill="#989798" d="M310.5,978.3v0.8h0.3v0.3h0.5v6h-0.5v0.3h-0.3v3.3h-2.8v0.7H322l3.2,0.7h2v-1.7h8.2v-1.4h-0.7v-1.5H334
			v-0.3h-0.5v-6.1h0.5v-0.8h2.3v0.3h19.5v28.5h0.1v4.6h0.3v26h1.4v6.6v2.5l-1.4,6.6v0.1h1.4v6.6h-0.9v0.5v0.5h1v9.3H356v9.9v0.1
			l0.3,1.5l0.3,2.6v2.6l-0.1,1.1v1.4v1.4l-0.5,2.6v15.5h1.7v8.4H356v3.5h1.7v18.9l-1.4,6.6v0.1h1.4v17H356v3.8h1.7v19.2l-1.4,6.6
			v0.1h1.4v17.4H356v49.6h1.7v8.1H356v0.7h-2.5l0,0h-10.7v1.4h0.3v0.3h0.3v6h-0.5v0.3h-0.3v2.9l-31.3,2.6v-2.3h-3.6l-1-4.6H293
			l-17-0.1v-42.4h6.4v-23h-0.1v-6h0.1v-7.4H277v-29.8h3.9v-3.8H277v-27.9h5.6v-6.3h-0.1v-6h0.1v-7.8h-0.1v-5.5h0.1v-7.2h-3.2v-14.2
			h3.2v-2.8h-3.3v-11.7h1.5v-2.8h1.7v-1h-0.3v-10.7h-0.3v-21.4h0.3v-10.7h0.3v-8.8l0,0v-0.3H282v-6h0.5v-0.3l0,0v-1.7H278v-1h-1
			v-2.6h-0.1v-0.3h-0.1v-6h0.5v-0.3h0.3v-0.7h0.1v-0.7h-0.1v-0.7h-0.3v-0.3h-0.5v-6h0.5v-0.3h0.3V990h2.6v-2.6h-2.6v-5.3h3.6v-3.8
			h17.7l0,0h1l0,0L310.5,978.3 M316.7,972h-6.2h-5.6h-6.3h-17.7h-6.1v3.8h-3.6v6.3v3.5h-0.3v0.3h-0.5v6.3v6v6.3v2.8v6.3h0.5v0.3h0.3
			v2.6h1v1h3.9v1.7v6.3h0.1v2.9v4.5h-0.3v6.3v21.4v5.6h-1v2.9h-1.5v6.3v11.7v6.3h0.1v10.9v6.3h2.9v1.1v6v6.3v1.5v6l0,0h-5.1v6.3v28
			v6.3v26.3v6.3h5.3v0.7v6v6.3h0.1v10.7h-0.1h-6.3v6.3v41.8v6.1h6.1l17,0.1l0,0l0,0h8.6l1,4.6h2.6v2.9l6.6-0.5l31.3-2.6l5.7-0.5
			v-2.5h0.3v-0.3h0.3v-6.4v-1.4h3.8h6.3l0,0h2.5v-0.7h1.7v-6.3v-8.1v-6h-1.7v-36.9h1.7v-6.3v-17.7v-6.1v-0.7v-16.8v-6.3v-17v-6.1
			v-0.7v-16.3v-6.3v-8.4v-6.3h-1.7v-9l0.3-2.1v-0.3v-0.3v-1.4v-1.4v-1.1v-0.1v0.1v-2.6v-0.1v-0.1l-0.3-2.6v-0.1v-0.1l-0.1-1.4v-3.2
			h1.7v-6.2v-4.3v-6.3v-6.6v-6.1v-0.7v-2.5v-6.5v-6h-1.4v-19.8v-6.4h-0.3v-4.6h-0.1V979v-6.2H356h-13.4v-0.3h-6.2h-2.3H328v0.8h-0.7
			v6.3v2.9H327h-6.3v1h-3.5v-3.9v-6.3h-0.5V973h-0.3v-0.7h0.3V972L316.7,972z"/>
	</g>
</g>
<polygon fill="#4A6DB4" points="261.2,937.1 258.7,937.1 258.7,936.5 257.3,936.5 257.3,938.2 259.7,938.2 259.7,942.5 257.3,942.5 
	257.3,941.5 243.8,941.5 243.8,924.5 243.8,907.5 257.3,907.5 257.3,906.3 259.7,906.3 259.7,910.8 257.3,910.8 257.3,924.5 
	257.3,930 258.7,930 258.7,929.5 261.2,929.5 261.2,919.5 258.5,919.5 258.5,912 261.2,912 261.2,905.1 259.2,905.1 241.1,905.1 
	241.1,944 259.2,944 261.2,944 "/>
<polygon fill="#4A6DB4" points="244.2,925.1 244.2,940.8 256.7,940.8 256.7,937.6 256.7,936.5 256.7,930.1 256.7,925 "/>
<polygon fill="#989798" points="289.6,968.1 291.7,968.1 291.7,968.1 291.7,968.1 309.8,968.3 309.8,968.1 309.8,968.3 359.7,968.3 
	359.7,964.5 320.8,964.5 289.6,964.5 "/>
<polygon fill="#CCCBCB" points="277.5,1007.8 277.6,1007.8 277.6,1010.2 278.6,1010.2 278.6,1011.2 282.1,1011.2 298.1,1011.2 
	298.1,1000.6 277.6,1000.6 277.6,1001.3 277.5,1001.3 277.5,1001.6 277,1001.6 277,1007.5 277.5,1007.5 "/>
<path fill="#CCCBCB" d="M284,1069.3h2.5v0.5h5.6v-0.5l-0.1,0.3l-4.7-2.8c-0.3,0.7-0.5,1.5-0.5,2.5c0-0.8,0.1-1.7,0.5-2.5l0,0
	l0.1-0.3l0,0l0,0l0,0l4.7,2.8h2.6l0.3-0.7l1-1.5l0.7-1l1-1.4l1-1.4l2-2l1.7-1.5l1.7-1.5l1.7-1l2.3-1.4l2.1-1l1.7-0.8l1.7-0.5l2-0.7
	l2.1-0.5l2-0.3l2.1-0.1h2h2h2.3l2.1,0.3l2.5,0.5l2.5,0.7l1.7,0.5l1.4,0.5l1.4,0.7l1.5,0.8l2.3,1.4l1.7,1.1l1.4,1h3.9v0.5h5.6v-0.5
	l-0.1,0.3l0.1-0.3h0.8v-6.3h-1.1v-0.2l1.1-6.3v-2.3v-6.3h-1.1V1013h-71.1v0.3h-0.3v0.3h-0.5v5.6h0.5v0.3h0.3v8.4h-0.5v10.2h-0.3
	v20.6h0.3v10.4l0,0l0,0H284V1069.3z"/>
<path fill="#CCCBCB" d="M282.1,1012.8h-0.3v0.3h-5.6c0.1,2.9,2.6,5.1,5.6,5.1h0.3V1012.8L282.1,1012.8z"/>
<g>
	<path fill="#CCCBCB" d="M341.9,1009.5h13.4v-30.1h-18.5v-0.3h-2.3v0.8l0,0H334v5h0.5v0.3h0.5v1.7h0.7v2h-8.1v1.7h-3.2v19.8h17.3v-1
		h0.1v0.1H341.9z M340.7,979.8c0,3.2-2.6,5.7-5.7,5.7C338,985.5,340.7,983,340.7,979.8z"/>
</g>
<path fill="#CCCBCB" d="M310.6,981H305c0.1,2.9,2.6,5.1,5.6,5.1c-2.9,0-5.3-2.3-5.6-5.1l0,0v-0.3l0,0l0,0l0,0h5.6v-0.3h-0.3v-0.9
	h-10.6v31.2h23.4v-20.3H310v-3.8h0.3v-0.5h0.5v-5.7h-0.3v0.7L310.6,981L310.6,981z"/>
<path fill="#CCCBCB" d="M276.5,992.1H276l0,0c-3.2,0-5.6,2.5-5.6,5.6h5.6v0.3h0.5V992.1z"/>
<polygon fill="#CCCBCB" points="284.3,1227.4 284,1227.4 284,1229.2 289,1229.2 289,1228.1 294.9,1228.1 294.9,1214.1 284,1214.1 
	284,1220.1 284.3,1220.1 284.3,1220.8 283.6,1220.8 283.6,1227.1 284.3,1227.1 "/>
<path fill="#CCCBCB" d="M276.5,1247.8H276v0.3h-5.6c0.1,2.9,2.6,5.6,5.6,5.6h0.3L276.5,1247.8L276.5,1247.8z"/>
<path fill="#CCCBCB" d="M276.5,1238.9H276l0,0c-3.2,0-5.6,2.5-5.6,5.6h5.6v0.3h0.5V1238.9z"/>
<path fill="#CCCBCB" d="M282.5,1110.4H282l0,0c-2.9,0-5.6,2.5-5.6,5.3h5.6v0.3h0.5V1110.4z"/>
<polygon fill="#CCCBCB" points="277.9,1233.1 277.9,1238.4 277.5,1238.4 277.5,1238.9 277.2,1238.9 277.2,1244.6 277.5,1244.6 
	277.5,1244.9 277.9,1244.9 277.9,1245.4 305,1245.4 305,1233.1 296.1,1233.1 294.9,1233.4 294.9,1230.1 290.3,1230.1 290.3,1231.1 
	284,1231.1 284,1233.1 "/>
<polygon fill="#CCCBCB" points="276.7,1262.4 276.7,1275.6 293.3,1275.6 306.6,1275.6 306.6,1262.4 "/>
<path fill="#CCCBCB" d="M282.5,1204.4H282c-2.9,0-5.6,2.3-5.6,5.3h5.6v0.3h0.5V1204.4L282.5,1204.4z"/>
<polygon fill="#CCCBCB" points="277.5,1247.4 277.5,1248.1 277.2,1248.1 277.2,1253.6 277.5,1253.6 277.5,1253.9 277.9,1253.9 
	277.9,1257.2 280.3,1257.2 280.3,1260.6 303.4,1260.6 303.4,1257.8 306.3,1257.8 306.3,1247.1 277.9,1247.1 277.9,1247.4 "/>
<polygon fill="#CCCBCB" points="285.3,1071.8 282.2,1071.8 281.5,1071.8 281.5,1074.6 280,1074.6 280,1085.8 289.3,1085.8 
	289.3,1084.6 289.6,1083.1 289.6,1082.2 290,1081.1 290.2,1080.1 290.3,1078.8 290.8,1077.3 291.4,1075.6 292.4,1072.8 
	292.4,1071.8 290.8,1071.8 290.8,1071.3 285.3,1071.3 "/>
<polygon fill="#CCCBCB" points="283.5,1103.2 283.5,1110.1 282.9,1110.1 282.9,1115.6 283.5,1115.6 283.5,1118.1 294.3,1118.1 
	294.3,1101.8 295.4,1101.8 294.9,1100.6 294.5,1099.3 294.3,1099.1 293.8,1097.9 293.8,1097.3 293.6,1097.3 293.6,1097.1 
	293.3,1096.6 292.8,1094.8 292.7,1093.6 292.4,1092.1 292.4,1090.9 292.2,1089.4 280.1,1089.4 280.1,1103.2 "/>
<path fill="#CCCBCB" d="M293.8,1090.2l0.1,1l0.3,1.5l0.3,1.7l0.5,2l0.1,0.3l0.5,1.5l0.1,0.5l0.7,1.4l0.5,1l0.5,0.8l0.5,1l1,1.5
	l0.8,1l1,1.1l0.8,0.8l0.8,1l1,1v-0.3l4.6,0.1v0.3l-4.6-0.1l-0.3,0.3l3.8,2.9l0.1-0.3l1,0.7l2.3,1.4l2.1,0.8l2,0.7l2.3,0.8l3.5,0.5
	l2.1,0.3h2.3l3.2-0.1l3.2-0.5l2.9-0.8l1.5-0.5l2.3-0.8l2.1-1l1.5-0.8l1-0.7l1.1-1l0.8-0.5l2-1.7l2.6-2.9l0,0l1.5-2.1l1.1-2.1l1-2.1
	l1-2.3l1-3.8l0.5-2.6v-1.1v-1.4v-1.1v-2.5l-0.3-2.6l-0.3-1.5l-0.5-2.6l-0.7-2.1l-1.4-3.2l-1.5-2.6l-1.1-2l-2-2.8l-2.1-2.1l-2-1.5
	l-3.2-2.3l-2.5-1.1l-2.3-1l-2.8-0.8l-2.3-0.5l-2.8-0.3l-2.6-0.1h-2.9l-2.5,0.3l-2.8,0.5l-2.1,0.5l-2.3,0.8l-2.3,1l-2.1,1.1l-2.8,2
	l-1.7,1.4l-1.5,1.5l-1.5,1.7l-1.7,2.3l-1.4,2.3l-0.8,1.7l-0.8,1.7l-0.7,1.4l-0.8,2.6l-0.3,2v1.5l-0.1,3.2v3.2l0.1,1.1L293.8,1090.2z
	 M307.3,1112.6c0.7-0.8,1-1.7,1-2.8C308.5,1111.1,308.1,1112.1,307.3,1112.6z"/>
<polygon fill="#CCCBCB" points="281.1,983 277.6,983 277.6,988.1 280.3,988.1 280.3,990.5 277.6,990.5 277.6,992.1 277.5,992.1 
	277.5,992.5 277,992.5 277,998 277.5,998 277.5,998.6 277.6,998.6 277.6,999.2 298.1,999.2 298.1,979.5 281.1,979.5 "/>
<polygon fill="#CCCBCB" points="302.4,1111.8 300,1109.3 297.4,1109.3 297.4,1118.6 307.8,1118.6 307.8,1115.6 306.2,1114.6 
	306.3,1114.3 302.5,1111.4 "/>
<polygon fill="#CCCBCB" points="351,1061.3 350.4,1061.3 350.4,1063.4 351.1,1064.3 352.5,1065.8 353.3,1066.8 354.2,1068.4 
	355.4,1070.2 357.5,1070.2 357.5,1061.3 356.8,1061.3 356.8,1060.8 351,1060.8 "/>
<polygon fill="#4A6DB4" points="169.2,1365.4 169.6,1365.4 169.6,1365.9 175.3,1365.9 175.3,1365.4 175.4,1365.4 175.4,1364.4 
	179.2,1364.4 210,1370.1 211.6,1369.9 211.6,1303.4 166.1,1303.4 166.1,1318.1 167.2,1318.1 167.2,1320.6 166.1,1320.6 
	166.1,1364.4 169.2,1364.4 "/>
<polygon fill="none" points="125.4,1279.8 125.4,1279.4 125.4,1279.4 119.6,1279.4 119.6,1279.8 "/>
<polygon fill="none" points="125.4,1268.9 125.4,1268.9 125.4,1268.6 125.4,1268.6 119.6,1268.6 119.6,1268.9 "/>
<rect x="132.4" y="1276.4" fill="none" width="0.3" height="5.7"/>
<g>
	<polygon fill="none" points="125.4,1268.9 125.4,1268.9 125.4,1268.6 125.4,1268.6 119.6,1268.6 119.6,1268.9 	"/>
	<rect x="132.4" y="1276.6" fill="none" width="0.3" height="5.7"/>
	<polygon fill="none" points="125.4,1279.8 125.4,1279.6 125.4,1279.6 119.6,1279.6 119.6,1280.1 125.4,1280.1 	"/>
	<polyline fill="#CCCBCB" points="119.6,1280.1 119.6,1282.1 127,1282.1 127,1282.6 132.8,1282.6 132.8,1282.1 132.8,1282.1 
		140.2,1282.1 140.2,1280.1 140.4,1280.1 140.4,1280.1 140.9,1280.1 140.9,1268.6 140.4,1268.6 140.4,1268.4 140.2,1268.4 
		140.2,1266.6 119.6,1266.6 119.6,1268.4 119.6,1279.8 	"/>
	<path fill="#CCCBCB" d="M119.6,1268.6"/>
	<path fill="#CCCBCB" d="M119.8,1274.1"/>
	<path fill="#CCCBCB" d="M125.4,1268.6L125.4,1268.6L125.4,1268.6L125.4,1268.6"/>
</g>
<path fill="#CCCBCB" d="M132.8,1276.4c-3.2,0-5.7,2.6-5.7,5.7C127,1278.8,129.6,1276.4,132.8,1276.4z"/>
<polygon fill="#4A6DB4" points="124.5,1365.4 124.6,1365.4 124.6,1365.6 130.2,1365.6 130.2,1365.4 130.5,1365.4 130.5,1364.4 
	134.1,1364.4 163.3,1369.9 165,1369.9 165,1302.1 126,1302.1 126,1304.6 120.7,1304.6 120.7,1364.4 124.5,1364.4 "/>
<path fill="#CCCBCB" d="M95.9,1268.6L95.9,1268.6v-0.3l0,0l0,0l0,0h5v-0.5h-1.4v-1.4H73.1v12.2h-6.6l-3.2,0.3l0.3,2.3l-2.9,0.5
	l-0.5-2.5l-1.7,0.1v4.2H101v-3.2h-2.8v-2.9h2.8v-3.9h0.7C98.6,1274.1,96.1,1271.6,95.9,1268.6z"/>
<polygon fill="#CCCBCB" points="102.5,1268.8 102.5,1269.1 101.5,1269.1 101.5,1274.9 102.5,1274.9 102.5,1284.4 38.4,1284.4 
	38.4,1288.9 33.7,1288.9 33.7,1289.1 33.7,1289.4 33.6,1289.4 33.6,1294.8 34,1294.8 34,1295.4 34.9,1295.4 34.9,1297.1 
	38.2,1297.1 38.4,1297.1 38.2,1302.6 48.1,1352.1 48.1,1363.9 118.2,1363.9 118.2,1269.2 118.2,1268.6 "/>
<path fill="#CCCBCB" d="M346.7,1125.8L346.7,1125.8c-0.3-0.8-0.5-1.7-0.5-2.6l0,0h-23.1v0.7h-3.8v-0.7h-34.8v2.6H284v5.7h0.5v6h-5.7
	v26.7h3.8v3.6h-3.8v28.7h5.7v6.6H284v5.7h0.5v1H353v-0.1h3.2v-16.8h-1.1v-0.1l1.1-6.3v-18.4H353v-3.9h3.2v-16.1h-1.1v-0.1l1.1-6.3
	v-18.3h-4.5l-4.7,2.8L346.7,1125.8z"/>
<polygon fill="#CCCBCB" points="296.4,1228.1 296.4,1231.6 306.6,1231.6 306.6,1214.1 296.3,1214.1 296.3,1228.1 "/>
<polygon fill="#CCCBCB" points="350,1111.1 349.2,1112.1 347.9,1113.2 346.5,1114.3 345.6,1115.1 343.9,1116.1 343.9,1120.1 
	347.4,1120.1 347.4,1120.6 352.9,1120.6 352.9,1120.1 354.3,1120.1 354.3,1117.6 357.4,1117.6 357.4,1109.6 351.1,1109.6 "/>
<polygon fill="#4A6DB4" points="345,1307.8 344.7,1307.8 344.7,1308.1 340.3,1308.1 340.3,1302.9 309.1,1303.1 309.1,1302.9 
	291.8,1302.9 282.9,1353.6 291,1354.8 291.5,1351.9 343.5,1361.1 342.9,1363.9 353.5,1365.6 353.5,1308.1 350.4,1308.1 
	350.4,1307.8 350.2,1307.8 350.2,1307.8 "/>
<polygon fill="#4A6DB4" points="309.1,1278.6 312.6,1278.6 312.6,1280.9 342.6,1278.4 342.6,1275.8 342.9,1275.8 342.9,1275.4 
	343.2,1275.4 343.2,1269.8 342.9,1269.8 342.9,1269.4 342.6,1269.4 342.6,1268.1 352.8,1268.1 352.8,1267.4 356.8,1267.4 
	356.8,1259.8 354.6,1259.8 354.6,1214.6 309.1,1214.4 "/>
<polygon fill="#4A6DB4" points="217.9,1365.4 218.2,1365.4 223.8,1365.4 224.1,1365.4 224.1,1364.4 227.5,1364.4 256.7,1369.9 
	260.1,1369.9 260.1,1303.4 212.2,1303.4 212.2,1346.1 213.3,1346.1 213.3,1350.1 212.2,1350.1 212.2,1364.4 217.9,1364.4 "/>
<polygon fill="#CCCBCB" points="127,1283.6 127,1283.6 119.8,1283.6 119.8,1300.9 145.2,1300.9 145.2,1288.9 140.2,1288.9 
	140.2,1283.6 132.8,1283.6 132.8,1283.1 127,1283.1 "/>
<polygon fill="none" stroke="#989798" stroke-width="4" stroke-linecap="square" stroke-miterlimit="10" points="339.4,1366.4 
	340,1363.1 294,1355.1 293.3,1358.4 278.9,1355.8 288.7,1299.2 342.9,1299.2 342.9,1305.1 348.1,1305.1 348.1,1304.6 348.2,1304.6 
	348.2,1304.2 353.9,1304.2 353.9,1304.6 354.3,1304.6 354.3,1305.1 356.4,1305.1 356.4,1369.2 "/>
<polygon opacity="0.25" fill="#989798" enable-background="new    " points="401.8,1307.9 362.4,1303.9 351.8,1301.1 350.8,1276.6 
	401.5,1275.4 402.1,1307.9 "/>
<rect x="377.7" y="1289.9" opacity="0.6" fill="#4A6DB4" enable-background="new    " width="1.4" height="8.2"/>
<rect x="380.2" y="1289.9" opacity="0.6" fill="#4A6DB4" enable-background="new    " width="1.4" height="8.2"/>
<rect x="382.6" y="1289.9" opacity="0.6" fill="#4A6DB4" enable-background="new    " width="1.4" height="8.2"/>
<rect x="385.1" y="1289.9" opacity="0.6" fill="#4A6DB4" enable-background="new    " width="1.4" height="8.2"/>
<rect x="387.4" y="1289.9" opacity="0.6" fill="#4A6DB4" enable-background="new    " width="1.4" height="8.2"/>
<rect x="390.1" y="1289.9" opacity="0.6" fill="#4A6DB4" enable-background="new    " width="1.4" height="8.2"/>
<rect x="392.5" y="1289.9" opacity="0.6" fill="#4A6DB4" enable-background="new    " width="1.4" height="8.2"/>
<rect x="395" y="1289.9" opacity="0.6" fill="#4A6DB4" enable-background="new    " width="1.4" height="8.2"/>
<rect x="377.7" y="1281.2" opacity="0.6" fill="#4A6DB4" enable-background="new    " width="1.4" height="8.2"/>
<rect x="380.2" y="1281.2" opacity="0.6" fill="#4A6DB4" enable-background="new    " width="1.4" height="8.2"/>
<rect x="382.6" y="1281.2" opacity="0.6" fill="#4A6DB4" enable-background="new    " width="1.4" height="8.2"/>
<rect x="385.1" y="1281.2" opacity="0.6" fill="#4A6DB4" enable-background="new    " width="1.4" height="8.2"/>
<rect x="387.4" y="1281.2" opacity="0.6" fill="#4A6DB4" enable-background="new    " width="1.4" height="8.2"/>
<rect x="390.1" y="1281.2" opacity="0.6" fill="#4A6DB4" enable-background="new    " width="1.4" height="8.2"/>
<rect x="392.5" y="1281.2" opacity="0.6" fill="#4A6DB4" enable-background="new    " width="1.4" height="8.2"/>
<rect x="395" y="1281.2" opacity="0.6" fill="#4A6DB4" enable-background="new    " width="1.4" height="8.2"/>
<rect x="363.1" y="1289.9" opacity="0.6" fill="#4A6DB4" enable-background="new    " width="1.4" height="8.2"/>
<rect x="365.3" y="1289.9" opacity="0.6" fill="#4A6DB4" enable-background="new    " width="1.4" height="8.2"/>
<rect x="367.8" y="1289.9" opacity="0.6" fill="#4A6DB4" enable-background="new    " width="1.4" height="8.2"/>
<rect x="370.5" y="1289.9" opacity="0.6" fill="#4A6DB4" enable-background="new    " width="1.4" height="8.2"/>
<rect x="372.7" y="1289.9" opacity="0.6" fill="#4A6DB4" enable-background="new    " width="1.4" height="8.2"/>
<rect x="375.2" y="1289.9" opacity="0.6" fill="#4A6DB4" enable-background="new    " width="1.4" height="8.2"/>
<rect x="363.1" y="1281.2" opacity="0.6" fill="#4A6DB4" enable-background="new    " width="1.4" height="8.2"/>
<rect x="365.3" y="1281.2" opacity="0.6" fill="#4A6DB4" enable-background="new    " width="1.4" height="8.2"/>
<rect x="367.8" y="1281.2" opacity="0.6" fill="#4A6DB4" enable-background="new    " width="1.4" height="8.2"/>
<rect x="370.5" y="1281.2" opacity="0.6" fill="#4A6DB4" enable-background="new    " width="1.4" height="8.2"/>
<rect x="372.7" y="1281.2" opacity="0.6" fill="#4A6DB4" enable-background="new    " width="1.4" height="8.2"/>
<rect x="375.2" y="1281.2" opacity="0.6" fill="#4A6DB4" enable-background="new    " width="1.4" height="8.2"/>
<polygon opacity="0.25" fill="#989798" enable-background="new    " points="819.9,1357.6 780.5,1353.6 769.7,1350.6 769.1,1326.1 
	819.7,1324.9 820,1357.6 "/>
<rect x="795.8" y="1339.6" opacity="0.6" fill="#4A6DB4" enable-background="new    " width="1.4" height="8.2"/>
<rect x="798.3" y="1339.6" opacity="0.6" fill="#4A6DB4" enable-background="new    " width="1.4" height="8.2"/>
<rect x="800.5" y="1339.6" opacity="0.6" fill="#4A6DB4" enable-background="new    " width="1.4" height="8.2"/>
<rect x="803.2" y="1339.6" opacity="0.6" fill="#4A6DB4" enable-background="new    " width="1.4" height="8.2"/>
<rect x="805.7" y="1339.6" opacity="0.6" fill="#4A6DB4" enable-background="new    " width="1.4" height="8.2"/>
<rect x="808.2" y="1339.6" opacity="0.6" fill="#4A6DB4" enable-background="new    " width="1.4" height="8.2"/>
<rect x="810.4" y="1339.6" opacity="0.6" fill="#4A6DB4" enable-background="new    " width="1.4" height="8.2"/>
<rect x="813.1" y="1339.6" opacity="0.6" fill="#4A6DB4" enable-background="new    " width="1.4" height="8.2"/>
<rect x="795.8" y="1330.8" opacity="0.6" fill="#4A6DB4" enable-background="new    " width="1.4" height="8.2"/>
<rect x="798.3" y="1330.8" opacity="0.6" fill="#4A6DB4" enable-background="new    " width="1.4" height="8.2"/>
<rect x="800.5" y="1330.8" opacity="0.6" fill="#4A6DB4" enable-background="new    " width="1.4" height="8.2"/>
<rect x="803.2" y="1330.8" opacity="0.6" fill="#4A6DB4" enable-background="new    " width="1.4" height="8.2"/>
<rect x="805.7" y="1330.8" opacity="0.6" fill="#4A6DB4" enable-background="new    " width="1.4" height="8.2"/>
<rect x="808.2" y="1330.8" opacity="0.6" fill="#4A6DB4" enable-background="new    " width="1.4" height="8.2"/>
<rect x="810.4" y="1330.8" opacity="0.6" fill="#4A6DB4" enable-background="new    " width="1.4" height="8.2"/>
<rect x="813.1" y="1330.8" opacity="0.6" fill="#4A6DB4" enable-background="new    " width="1.4" height="8.2"/>
<rect x="785.9" y="1339.6" opacity="0.6" fill="#4A6DB4" enable-background="new    " width="1.4" height="8.2"/>
<rect x="788.4" y="1339.6" opacity="0.6" fill="#4A6DB4" enable-background="new    " width="1.4" height="8.2"/>
<rect x="790.9" y="1339.6" opacity="0.6" fill="#4A6DB4" enable-background="new    " width="1.4" height="8.2"/>
<rect x="793.3" y="1339.6" opacity="0.6" fill="#4A6DB4" enable-background="new    " width="1.4" height="8.2"/>
<rect x="785.9" y="1330.8" opacity="0.6" fill="#4A6DB4" enable-background="new    " width="1.4" height="8.2"/>
<rect x="788.4" y="1330.8" opacity="0.6" fill="#4A6DB4" enable-background="new    " width="1.4" height="8.2"/>
<rect x="790.9" y="1330.8" opacity="0.6" fill="#4A6DB4" enable-background="new    " width="1.4" height="8.2"/>
<rect x="793.3" y="1330.8" opacity="0.6" fill="#4A6DB4" enable-background="new    " width="1.4" height="8.2"/>
<g>
	<g>
		<path fill="#989798" d="M259.7,906.3v4.5h-2.6v13.7v13.7h2.6v4.5h-2.6v-1.1h-13.7v-17v-17h13.7v-1.1L259.7,906.3 M265.9,900.1
			h-6.3H257h-6.2v1.1h-7.4h-6.1v6.3v17v17v6.3h6.3h7.4v1.1h6.3h2.6h6.3v-6.3v-4.5v-6.3h-2.6v-7.5v-7.4h2.6v-6.1v-4.5V900
			L265.9,900.1L265.9,900.1z"/>
	</g>
</g>
<g>
	<g>
		<path fill="#989798" d="M100,1265.9v1.4h1.5v0.5h0.7h0.3h0.8v-0.3h12.2v-1.4h11.4l0,0h13.5v2h0.3v0.3h0.5v11.7h-0.5v0.3h-0.3v2
			v1.1v5.1h5v12.4l19.8-0.1v1.4h1.7v-0.1H208l0,0h6.3l0,0h46v68.8h-3.2l-29.9-6h-3.6v1h-0.3v0.3h-6v-0.3H217v-1h-3.3l0,0H212v6h-1.5
			l-29.9-6h-3.8v1l0,0v0.3h-6v-0.3h-0.3v-1h-3.3l0,0h-1.7v6H164l-29.9-6h-3.6v1h-0.1v0.3h-6v-0.3h-0.3v-1h-3.8l0,0h-4.7v0.5H47.1
			v-12.2l-10-51.2v-4.7h-2.3v-2h-1v-0.3h-0.7v-3.5h-0.5v-24.5l0,0v-0.1H71v0.1h2v-1.1L100,1265.9 M105,1260.9h-4.7H72.7H68v1H32.7
			H28v0.1l0,0v4.7v24.5v4.7h0.5v3.5H29v0.3h1v2h2.3v0.3v0.5l10,50.9v11.5v4.7h4.6h68.4h3.3v0.7h0.3v0.3h4.7h6.1h4.7v-0.3h0.5v-0.7
			l27.8,5.6h0.5h0.5h1.5h4.7v-4.3h0.3h6h4.7v-0.3h0.3v-1l28,5.6h0.5h0.5h1.5h4.7v-4.3h0.3h6h4.7v-0.3h0.3v-1l27.8,5.6h0.5h0.5h3.5
			h4.7v-4.7v-68.8v-4.7H260h-41.1l0,0h-4.7h-6.3h-4.7l0,0h-33.3v-1.1h-5l-15,0.1v-7.5v-4.7h-3.5v-3.6v-11.8v-4.7h-0.5v-0.3h-0.3v-2
			h-4.8H132l0,0h-5h-11.4h-4.7v1.4h-4.2v-0.1h-1.5L105,1260.9L105,1260.9z"/>
	</g>
</g>
<g>
	<path fill="#989798" d="M340.7,907.3c7.2,0,13.2,6,13.2,13.2v0.1c0,6.4-4.6,11.7-10.9,13.1l-35.5,6.4v-32.6h33.1 M340.7,901.2
		h-33.1h-6.3v6.3V940v7.4l7.2-1.4l35.2-6.6c9.3-1.5,15.9-9.6,15.9-18.8v-0.1C359.7,909.8,351,901.2,340.7,901.2L340.7,901.2z"/>
</g>
<path fill="#4A6DB4" d="M129.9,1365.6h-6v0.5h0.3v6c3.2-0.1,5.6-2.8,5.6-6l0,0L129.9,1365.6L129.9,1365.6z"/>
<path fill="#4A6DB4" d="M176.7,1365.9h-6v0.5h0.3v6c3.2-0.1,5.6-2.8,5.6-6l0,0L176.7,1365.9L176.7,1365.9z"/>
<path fill="#4A6DB4" d="M223.3,1365.4h-6v0.5h0.3v6c3.2-0.1,5.6-2.8,5.6-6l0,0L223.3,1365.4L223.3,1365.4z"/>
<path fill="#4A6DB4" d="M345.3,1307.8h6v-0.5H351v-6c-3.2,0.1-5.6,2.8-5.6,6l0,0v0.5H345.3z"/>
<path fill="#4A6DB4" d="M348.2,1269.9h-6v0.5h0.3v6c3.2-0.1,5.6-2.8,5.6-6l0,0v-0.5H348.2z"/>
<path fill="#FFFFFF" d="M119.6,1274.8v5.1h6c-0.1-2.6-2-4.7-4.5-5.1c2.6-0.3,4.3-2.6,4.5-5.1h-6V1274.8L119.6,1274.8L119.6,1274.8
	L119.6,1274.8L119.6,1274.8z"/>
<path fill="#FFFFFF" d="M119.6,1292.1v5.1h6c-0.1-2.6-2-4.7-4.5-5.1c2.6-0.3,4.3-2.6,4.5-5.1h-6V1292.1L119.6,1292.1L119.6,1292.1
	L119.6,1292.1L119.6,1292.1z"/>
<path fill="#FFFFFF" d="M311.4,980.1h-0.3v0.3h-5.6c0.1,2.9,2.6,5.1,5.6,5.1h0.3V980.1L311.4,980.1z"/>
<path fill="#FFFFFF" d="M334.4,979.8h0.3v0.3h5.3c-0.1,2.9-2.6,5.1-5.3,5.1h-0.3V979.8L334.4,979.8z"/>
<g>
	<path fill="#4A6DB4" d="M342.6,992.5c-0.7,0-1.1-0.7-1.1-1.1c0-0.7,0.5-1.1,1.1-1.1s1.1,0.7,1.1,1.1S343.2,992.5,342.6,992.5z"/>
	<path fill="#4A6DB4" d="M343.2,993c1.1,0,1.7,0.8,2,1.4l1,3.6c0.1,0.3,0,0.7-0.1,0.7s-0.5,0-0.7-0.3l-0.8-3.2
		c0-0.1-0.1-0.3-0.3-0.1c-0.1,0-0.1,0.1-0.1,0.3l1.7,5.7h-2c0,2.3,0,4.3,0,4.3c0,0.7-0.3,0.7-0.5,0.7c-0.1,0-0.5,0-0.5-0.7
		s0-4.2,0-4.2c0-0.1,0-0.1-0.1-0.1s-0.1,0-0.1,0.1c0,0,0,3.6,0,4.2c0,0.7-0.3,0.7-0.5,0.7s-0.5,0-0.5-0.7c0,0,0-2.1,0-4.3h-2
		l1.7-5.7c0-0.1,0-0.3-0.1-0.3s-0.3,0-0.3,0.1l-0.8,3.2c-0.1,0.3-0.3,0.5-0.7,0.3c-0.1,0-0.3-0.3-0.1-0.7l1-3.6
		c0.1-0.5,0.5-1.4,2-1.4H343.2z"/>
</g>
<g>
	<g>
		<path fill="#4A6DB4" d="M312.4,993.6c-0.7,0-1.4-0.7-1.4-1.4s0.7-1.4,1.4-1.4s1.4,0.7,1.4,1.4
			C313.8,993.2,313.3,993.6,312.4,993.6z"/>
	</g>
	<path fill="#4A6DB4" d="M310.2,997v2.9c0,0.5-0.1,0.7-0.5,0.7c-0.3,0-0.5-0.1-0.5-0.7v-3.6c0-1.5,0.8-2.1,2.1-2.1h2.3
		c1.4,0,2.1,0.3,2.1,2.1v3.6c0,0.5-0.1,0.7-0.5,0.7c-0.3,0-0.5-0.1-0.5-0.7V997c0-0.3-0.1-0.3-0.1-0.3s-0.3,0-0.3,0.3s0,9.7,0,9.7
		c0,0.7-0.5,0.7-0.7,0.7c-0.1,0-0.7,0-0.7-0.7s0-5.7,0-5.7c0-0.1,0-0.3-0.1-0.3s-0.1,0-0.1,0.3c0,0,0,5,0,5.7s-0.5,0.7-0.7,0.7
		s-0.7,0-0.7-0.7c0,0,0-9.3,0-9.7s-0.1-0.3-0.3-0.3S310.2,996.8,310.2,997z"/>
</g>
<text transform="matrix(1 0 0 1 323.6821 1247.551)" fill="#FFFFFF" font-family="'TradeGothic-BoldCondTwenty'" font-size="11.0413">1125</text>
<text transform="matrix(1 0 0 1 312.1078 1334.8)" fill="#FFFFFF" font-family="'TradeGothic-BoldCondTwenty'" font-size="11.0413">1121</text>
<text transform="matrix(1 0 0 1 228.6303 1336.0276)" fill="#FFFFFF" font-family="'TradeGothic-BoldCondTwenty'" font-size="11.0413">1134</text>
<text transform="matrix(1 0 0 1 180.228 1336.0276)" fill="#FFFFFF" font-family="'TradeGothic-BoldCondTwenty'" font-size="11.0413">1132</text>
<text transform="matrix(1 0 0 1 133.9316 1336.0276)" fill="#FFFFFF" font-family="'TradeGothic-BoldCondTwenty'" font-size="11.0413">1130</text>
<polygon opacity="0.6" fill="#4A6DB4" enable-background="new    " points="331.1,920.8 330.9,931.5 329.4,931.5 329.6,920.8 "/>
<polygon opacity="0.6" fill="#4A6DB4" enable-background="new    " points="333.6,920.8 333.2,931.1 331.9,931.2 332,920.8 "/>
<polygon opacity="0.6" fill="#4A6DB4" enable-background="new    " points="336,920.8 335.7,930.8 334.4,930.8 334.5,920.8 "/>
<polygon opacity="0.6" fill="#4A6DB4" enable-background="new    " points="338.5,920.8 338.2,930.5 336.6,930.5 337.2,920.8 "/>
<polygon opacity="0.6" fill="#4A6DB4" enable-background="new    " points="341,920.8 340.7,930.1 339.1,930.3 339.4,920.8 "/>
<polygon opacity="0.6" fill="#4A6DB4" enable-background="new    " points="343.2,920.8 343.1,929.6 341.6,930 341.9,920.8 "/>
<polygon opacity="0.6" fill="#4A6DB4" enable-background="new    " points="345.8,920.8 345.4,929.3 343.9,929.5 344.4,920.8 "/>
<polygon opacity="0.6" fill="#4A6DB4" enable-background="new    " points="348.3,920.8 348.3,929 346.4,929 346.8,920.8 "/>
<rect x="329.6" y="912.2" opacity="0.6" fill="#4A6DB4" enable-background="new    " width="1.4" height="8.2"/>
<rect x="332" y="912.2" opacity="0.6" fill="#4A6DB4" enable-background="new    " width="1.4" height="8.2"/>
<rect x="334.5" y="912.2" opacity="0.6" fill="#4A6DB4" enable-background="new    " width="1.4" height="8.2"/>
<rect x="337.2" y="912.2" opacity="0.6" fill="#4A6DB4" enable-background="new    " width="1.4" height="8.2"/>
<rect x="339.4" y="912.2" opacity="0.6" fill="#4A6DB4" enable-background="new    " width="1.4" height="8.2"/>
<rect x="341.9" y="912.2" opacity="0.6" fill="#4A6DB4" enable-background="new    " width="1.4" height="8.2"/>
<rect x="344.4" y="912.2" opacity="0.6" fill="#4A6DB4" enable-background="new    " width="1.4" height="8.2"/>
<rect x="346.8" y="912.2" opacity="0.6" fill="#4A6DB4" enable-background="new    " width="1.4" height="8.2"/>
<polygon opacity="0.6" fill="#4A6DB4" enable-background="new    " points="311.3,920.8 311.3,934.2 309.8,934.3 309.8,920.8 "/>
<polygon opacity="0.6" fill="#4A6DB4" enable-background="new    " points="313.8,920.8 313.8,934 312.4,934 312.4,920.8 "/>
<polygon opacity="0.6" fill="#4A6DB4" enable-background="new    " points="316.2,920.8 316.2,933.5 314.8,933.8 314.8,920.8 "/>
<polygon opacity="0.6" fill="#4A6DB4" enable-background="new    " points="318.7,920.8 318.5,933 317.2,933.2 317.2,920.8 "/>
<polygon opacity="0.6" fill="#4A6DB4" enable-background="new    " points="321.2,920.8 321,932.8 319.7,933 319.8,920.8 "/>
<polygon opacity="0.6" fill="#4A6DB4" enable-background="new    " points="323.7,920.8 323.4,932.5 322,932.5 322.2,920.8 "/>
<polygon opacity="0.6" fill="#4A6DB4" enable-background="new    " points="325.9,920.8 325.8,932.1 324.5,932.2 324.7,920.8 "/>
<polygon opacity="0.6" fill="#4A6DB4" enable-background="new    " points="328.6,920.8 328.4,931.8 326.9,932 327.3,920.8 "/>
<rect x="309.8" y="912.2" opacity="0.6" fill="#4A6DB4" enable-background="new    " width="1.4" height="8.2"/>
<rect x="312.4" y="912.2" opacity="0.6" fill="#4A6DB4" enable-background="new    " width="1.4" height="8.2"/>
<rect x="314.8" y="912.2" opacity="0.6" fill="#4A6DB4" enable-background="new    " width="1.4" height="8.2"/>
<rect x="317.2" y="912.2" opacity="0.6" fill="#4A6DB4" enable-background="new    " width="1.4" height="8.2"/>
<rect x="319.8" y="912.2" opacity="0.6" fill="#4A6DB4" enable-background="new    " width="1.4" height="8.2"/>
<rect x="322.2" y="912.2" opacity="0.6" fill="#4A6DB4" enable-background="new    " width="1.4" height="8.2"/>
<rect x="324.7" y="912.2" opacity="0.6" fill="#4A6DB4" enable-background="new    " width="1.4" height="8.2"/>
<rect x="327.3" y="912.2" opacity="0.6" fill="#4A6DB4" enable-background="new    " width="1.4" height="8.2"/>
<text transform="matrix(1 0 0 1 247.1045 935.5598)" fill="#FFFFFF" font-family="'MyriadPro-Regular'" font-size="10.8322">E</text>
<polygon fill="#4A6DB4" points="282.9,1213.8 282.9,1229.4 295.4,1229.4 295.4,1226.3 295.4,1225.1 295.4,1218.8 295.4,1213.7 "/>
<text transform="matrix(1 0 0 1 285.7712 1224.2264)" fill="#FFFFFF" font-family="'MyriadPro-Regular'" font-size="10.8322">E</text>
<polygon fill="#4A6DB4" points="680.6,985 678.3,985 678.3,984.5 676.6,984.5 676.6,986 679.3,986 679.3,990.5 676.6,990.5 
	676.6,989.3 663,989.3 663,972.3 663,955.5 676.6,955.5 676.6,954.1 679.3,954.1 679.3,958.5 676.6,958.5 676.6,972.3 676.6,977.8 
	678.3,977.8 678.3,977.3 680.6,977.3 680.6,967.3 678.1,967.3 678.1,959.8 680.6,959.8 680.6,952.8 678.6,952.8 660.5,952.8 
	660.5,991.8 678.6,991.8 680.6,991.8 "/>
<g>
	<g>
		<path fill="#989798" d="M679.3,954.1v4.5h-2.6v13.7V986h2.6v4.5h-2.6v-1.1H663v-17v-17h13.7v-1.1h2.6 M685.4,948.1h-6.3h-2.6h-6.3
			v1.1h-7.4h-6.3v6.3v17v17v6.3h6.3h7.4v1.1h6.3h2.6h6.3v-6.3v-4.5v-6.3h-2.6v-7.5v-7.5h2.6v-6.1v-4.5V948.1L685.4,948.1z"/>
	</g>
</g>
<g>
	<path fill="#989798" d="M759.9,955.3c7.2,0,13.2,6,13.2,13.2v0.1c0,6.4-4.6,11.7-10.9,13.1l-35.2,6.6v-32.8h33 M759.9,949h-33.1
		h-6.3v6.3v32.6v7.4l7.2-1.4l35.2-6.6c9.3-1.5,15.9-9.6,15.9-18.8v-0.1C778.9,957.6,770.4,949,759.9,949L759.9,949z"/>
</g>
<polygon opacity="0.6" fill="#4A6DB4" enable-background="new    " points="750.4,968.8 750.3,979.1 748.9,979.5 749,968.8 "/>
<polygon opacity="0.6" fill="#4A6DB4" enable-background="new    " points="752.8,968.8 752.6,979 751.2,979 751.5,968.8 "/>
<polygon opacity="0.6" fill="#4A6DB4" enable-background="new    " points="755.4,968.8 755.1,978.6 753.6,978.8 753.9,968.8 "/>
<polygon opacity="0.6" fill="#4A6DB4" enable-background="new    " points="757.9,968.8 757.5,978.2 756.1,978.3 756.4,968.8 "/>
<polygon opacity="0.6" fill="#4A6DB4" enable-background="new    " points="760.2,968.8 760,978 758.5,978 758.9,968.8 "/>
<polygon opacity="0.6" fill="#4A6DB4" enable-background="new    " points="762.8,968.8 762.5,977.6 761.1,977.8 761.4,968.8 "/>
<polygon opacity="0.6" fill="#4A6DB4" enable-background="new    " points="765.3,968.8 765,977.2 763.3,977.3 763.8,968.8 "/>
<polygon opacity="0.6" fill="#4A6DB4" enable-background="new    " points="767.6,968.8 767.6,977 766,977 766.3,968.8 "/>
<rect x="749" y="960" opacity="0.6" fill="#4A6DB4" enable-background="new    " width="1.4" height="8.2"/>
<g>
	<polygon fill="#4A6DB4" points="702.9,1266.5 702.9,1282.1 715.4,1282.1 715.4,1279 715.4,1277.8 715.4,1271.5 715.4,1266.4 	"/>
	<text transform="matrix(1 0 0 1 705.7712 1276.8931)" fill="#FFFFFF" font-family="'MyriadPro-Regular'" font-size="10.8322">E</text>
</g>
<rect x="751.5" y="960" opacity="0.6" fill="#4A6DB4" enable-background="new    " width="1.4" height="8.2"/>
<rect x="753.9" y="960" opacity="0.6" fill="#4A6DB4" enable-background="new    " width="1.4" height="8.2"/>
<rect x="756.4" y="960" opacity="0.6" fill="#4A6DB4" enable-background="new    " width="1.4" height="8.2"/>
<rect x="758.9" y="960" opacity="0.6" fill="#4A6DB4" enable-background="new    " width="1.4" height="8.2"/>
<rect x="761.4" y="960" opacity="0.6" fill="#4A6DB4" enable-background="new    " width="1.4" height="8.2"/>
<rect x="763.8" y="960" opacity="0.6" fill="#4A6DB4" enable-background="new    " width="1.4" height="8.2"/>
<rect x="766.3" y="960" opacity="0.6" fill="#4A6DB4" enable-background="new    " width="1.4" height="8.2"/>
<polygon opacity="0.6" fill="#4A6DB4" enable-background="new    " points="730.6,968.8 730.6,982 729.4,982.2 729.4,968.8 "/>
<polygon opacity="0.6" fill="#4A6DB4" enable-background="new    " points="733.1,968.8 733.1,981.6 731.6,981.8 731.6,968.8 "/>
<polygon opacity="0.6" fill="#4A6DB4" enable-background="new    " points="735.8,968.8 735.5,981.3 734.1,981.5 734.1,968.8 "/>
<polygon opacity="0.6" fill="#4A6DB4" enable-background="new    " points="738.1,968.8 738,981 736.6,981.2 736.8,968.8 "/>
<polygon opacity="0.6" fill="#4A6DB4" enable-background="new    " points="740.5,968.8 740.4,980.8 739,980.8 739.1,968.8 "/>
<polygon opacity="0.6" fill="#4A6DB4" enable-background="new    " points="743.2,968.8 742.7,980.1 741.4,980.5 741.6,968.8 "/>
<polygon opacity="0.6" fill="#4A6DB4" enable-background="new    " points="745.5,968.8 745.4,979.8 744,980 744.3,968.8 "/>
<polygon opacity="0.6" fill="#4A6DB4" enable-background="new    " points="748,968.8 747.9,979.5 746.4,979.8 746.6,968.8 "/>
<rect x="729.4" y="960" opacity="0.6" fill="#4A6DB4" enable-background="new    " width="1.4" height="8.2"/>
<rect x="731.6" y="960" opacity="0.6" fill="#4A6DB4" enable-background="new    " width="1.4" height="8.2"/>
<rect x="734.1" y="960" opacity="0.6" fill="#4A6DB4" enable-background="new    " width="1.4" height="8.2"/>
<rect x="736.8" y="960" opacity="0.6" fill="#4A6DB4" enable-background="new    " width="1.4" height="8.2"/>
<rect x="739.1" y="960" opacity="0.6" fill="#4A6DB4" enable-background="new    " width="1.4" height="8.2"/>
<rect x="741.6" y="960" opacity="0.6" fill="#4A6DB4" enable-background="new    " width="1.4" height="8.2"/>
<rect x="744.3" y="960" opacity="0.6" fill="#4A6DB4" enable-background="new    " width="1.4" height="8.2"/>
<rect x="746.6" y="960" opacity="0.6" fill="#4A6DB4" enable-background="new    " width="1.4" height="8.2"/>
<g>
	<polygon fill="#4A6DB4" points="663.7,973 663.7,988.6 676.2,988.6 676.2,985.5 676.2,984.3 676.2,978 676.2,972.8 	"/>
	<text transform="matrix(1 0 0 1 666.5049 983.3889)" fill="#FFFFFF" font-family="'MyriadPro-Regular'" font-size="10.8322">E</text>
</g>
<path fill="#4A6DB4" d="M758.3,1351.4L758.3,1351.4L758.3,1351.4c-0.2,0-0.2-0.1-0.2-0.1v-3.8h-25.3v2.3c0,0.1-0.1,0.1-0.1,0.1h-0.8
	v69.1l2,0.3l0,0l0,0l0,0c0.1,0,0.1,0.1,0.1,0.1l-0.5,3.3l44.7,7.8v-68.1h-1.7c-0.1,0-0.1-0.1-0.1-0.1v-2.5H776
	c-0.1,0-0.1-0.1-0.1-0.1v-0.3h-16.7c-0.1,0-0.1-0.1-0.1-0.1v-1.5c0-0.1,0.1-0.1,0.1-0.1h0.1v-5.6h-0.1
	C758.5,1351.8,758.3,1351.4,758.3,1351.4z"/>
<path fill="#CCCBCB" d="M700,1034.8C700.1,1034.8,700.1,1034.8,700,1034.8l0.1,3.3c0,0.1-0.1,0.1-0.1,0.1h-2.6v22.4h11.5v-0.3h-5.7
	c-0.1,0-0.1-0.1-0.1-0.1l0,0v-0.1l0,0c0.1-3.2,2.8-5.7,6-6v-4h-3.8c-0.1,0-0.1-0.1-0.1-0.1v-0.8c0-0.1,0.1-0.1,0.1-0.1h15.5v-32.4
	h-19.1v2.1c0,0.1-0.1,0.1-0.1,0.1H698v7.1v9.2h2.1L700,1034.8L700,1034.8z"/>
<path fill="#CCCBCB" d="M740.1,1048.3C740.2,1048.3,740.2,1048.4,740.1,1048.3l0.1,0.9c0,0.1-0.1,0.1-0.1,0.1H732v3.9
	c3.5,0.1,6.1,2.8,6.1,6.3c0,0.1,0,0.1-0.1,0.1c0,0,0,0-0.1,0h-5.7l0,0H748V1038h-3.2c-0.1,0-0.1-0.1-0.1-0.1v-3.2
	c0-0.1,0.1-0.1,0.1-0.1h2v-18.8h-22.7v32.3L740.1,1048.3L740.1,1048.3z"/>
<path fill="#CCCBCB" d="M702.8,1173.6c0,0.1-0.1,0.1-0.1,0.1h-0.3v11.5h0.3c0.1,0,0.1,0.1,0.1,0.1v8.2h16.7l-0.1-7.1l-0.1-14.5
	h-16.1v1.5h-0.3v0.2H702.8z"/>
<path fill="#CCCBCB" d="M727.9,1163.9c0,0,0.1,0,0.1,0.1v-39.8h-28.7v45.8h22.1C722,1166.6,724.6,1163.9,727.9,1163.9z"/>
<path fill="#CCCBCB" d="M753.3,1060.3C753.4,1060.3,753.4,1060.4,753.3,1060.3l0.1,1.1c0,0.1-0.1,0.1-0.1,0.1h-11v4.3
	c3.5,0.1,6.1,2.8,6.1,6.3c0,0.1,0,0.1-0.1,0.1c0,0,0,0-0.1,0h-5.7l0,0h19.1v-12.8c0-0.1,0.1-0.1,0.1-0.1h15.6v-34.9v-0.1l0,0
	c0,0,0,0,0.1,0l0,0l2.5-0.1v-10.9h-21.7v2.6c0,0.1-0.1,0.1-0.1,0.1h-8.6v44L753.3,1060.3L753.3,1060.3z"/>
<path fill="#CCCBCB" d="M778.9,1124.6h-42.3c-0.1,0-0.1-0.1-0.1-0.1v-0.3h-5.6v0.3c0,0.1-0.1,0.1-0.1,0.1h-0.1v40.4v-0.1
	c0-0.1,0.1-0.1,0.1-0.1c3.5,0,6.3,2.8,6.3,6.1h2.6v-0.7c0-0.1,0.1-0.1,0.1-0.1h3.9c0.1,0,0.1,0.1,0.1,0.1v0.7h0.5
	c0.1,0,0.1,0.1,0.1,0.1v0.3h23.4v-0.1c0-0.1,0.1-0.1,0.1-0.1h8.2h0.1v-2.3c0-0.1,0.1-0.1,0.1-0.1h1.7v-17.4h-1h-0.1v-0.1v-0.6
	c0,0,0,0,0-0.1l1.4-6.6l0,0v-19.2h0.6V1124.6z"/>
<path fill="#CCCBCB" d="M768.8,1172.6c-0.1,0-0.1-0.1-0.1-0.1v-0.3h-23.4v0.3c0,0.1-0.1,0.1-0.1,0.1h-0.5v0.5c0,0.1-0.1,0.1-0.1,0.1
	h-4.2c-0.1,0-0.1-0.1-0.1-0.1v-0.5h-2.9c-0.1,0-0.1-0.1-0.1-0.1v-0.3h-5.6v0.3c0,0.1-0.1,0.1-0.1,0.1h-2.9c-0.1,0-0.1-0.1-0.1-0.1
	v-0.8H723v0.8c0,0.1-0.1,0.1-0.1,0.1h-2.1l0.3,21.7v17.1c0,0.1-0.1,0.1-0.1,0.1h-0.7v5.6h0.3c0.1,0,0.1,0.1,0.1,0.1v17
	c0,0.1-0.1,0.1-0.1,0.1h-0.3v5.6h0.3c0.1,0,0.1,0.1,0.1,0.1v2.1c0,0.1-0.1,0.1-0.1,0.1h-0.3v5.6h0.3c0.1,0,0.1,0.1,0.1,0.1v15.9
	h29.8c0.1,0,0.1,0.1,0.1,0.1v0.3h5.6v-0.3c0-0.1,0.1-0.1,0.1-0.1h2.1c0.1,0,0.1,0.1,0.1,0.1v0.3h5.6v-0.3c0-0.1,0.1-0.1,0.1-0.1
	h13.2l0,0c0,0,0,0,0-0.1l0,0c0,0,0,0,0.1,0h1.7v-17.7h-1l0,0l0,0l0,0l0,0l0,0l0,0l0,0l0,0v-0.3l1.4-6.8l0,0v-20.3h-1.7
	c-0.1,0-0.1-0.1-0.1-0.1v-2.6c0-0.1,0.1-0.1,0.1-0.1h1.7v-17.3h-1.5H778v-0.1l1.4-6.9v-19.2L768.8,1172.6L768.8,1172.6z"/>
<polygon fill="#CCCBCB" points="762.7,1072.8 777.5,1072.8 777.3,1060.9 762.7,1060.9 "/>
<path fill="#CCCBCB" d="M744.4,1075.8C744.4,1075.8,744.3,1075.8,744.4,1075.8l-1.7,0.1v3.9c0,0.1-0.1,0.1-0.1,0.1h-5.3
	c-0.1,0-0.1-0.1-0.1-0.1v-0.3h-5.6v0.3c0,0.1-0.1,0.1-0.1,0.1h-0.1v37.3v-0.1c0-0.1,0.1-0.1,0.1-0.1c3.5,0,6.3,2.8,6.3,6.1h3.9v-3
	c0-0.1,0.1-0.1,0.1-0.1h2.6c0.1,0,0.1,0.1,0.1,0.1v2.9h32.8v-2.3c0-0.1,0.1-0.1,0.1-0.1h1.7v-17.4h-1l0,0l0,0l0,0l0,0l0,0l0,0l0,0
	l0,0v-0.1l1.4-6.8l0,0v-19.5h-1.1h-0.1l0,0c0,0,0,0,0-0.1l0,0l-0.1-2.3h-33.3L744.4,1075.8L744.4,1075.8z"/>
<path fill="#CCCBCB" d="M682.6,1131.3c-3.2-0.1-5.7-2.6-6-5.7c0,0,0,0,0-0.1v-0.3l0,0l0,0c0-0.1,0.1-0.1,0.1-0.1s0,0,0.1,0h5.7v-2
	h-17.4v0.3c0,0.1-0.1,0.1-0.1,0.1h-2.6v0.7c0,0.1-0.1,0.1-0.1,0.1h-0.8v6.4l0,0l0,0l0,0l0,0l0,0l0,0h-0.1h-4.3v14.3h25.7
	L682.6,1131.3L682.6,1131.3z"/>
<path fill="#CCCBCB" d="M665.1,1121.1v0.3h17.4v-2.1h-5.7c-0.1,0-0.1-0.1-0.1-0.1l0,0v-0.1l0,0c0.1-3.2,2.8-5.7,6-6v-14H657v14.3
	h4.3c0.1,0,0.1,0.1,0.1,0.1v6.4h0.8c0.1,0,0.1,0.1,0.1,0.1v0.8h2.6C664.9,1120.9,665.1,1121.1,665.1,1121.1z"/>
<path fill="#CCCBCB" d="M665.1,1169.1v0.3h17.4v-2.1h-5.7c-0.1,0-0.1-0.1-0.1-0.1l0,0v-0.3c0,0,0,0,0-0.1c0.1-3.2,2.8-5.7,6-5.7v-14
	H657v14.3h4.3h0.1l0,0l0,0l0,0l0,0l0,0l0,0v6.4h0.8c0.1,0,0.1,0.1,0.1,0.1v0.7h2.6C664.9,1168.9,665.1,1168.9,665.1,1169.1z"/>
<path fill="#CCCBCB" d="M682.6,1178.9c-3.2-0.1-5.7-2.6-6-5.7c0,0,0,0,0-0.1v-0.3l0,0l0,0c0-0.1,0.1-0.1,0.1-0.1s0,0,0.1,0h5.7v-2.1
	h-17.4v0.3c0,0.1-0.1,0.1-0.1,0.1h-2.6v0.8c0,0.1-0.1,0.1-0.1,0.1h-0.8v6.4v0.1h-0.1h-4.3v14.3h25.7L682.6,1178.9L682.6,1178.9z"/>
<path fill="#CCCBCB" d="M682.6,1083.3c-3.2-0.1-5.7-2.6-6-5.7c0,0,0,0,0-0.1v-0.3l0,0l0,0c0-0.1,0.1-0.1,0.1-0.1s0,0,0.1,0h5.7v-1.9
	h-17.4v0.3c0,0.1-0.1,0.1-0.1,0.1h-2.6v0.8c0,0.1-0.1,0.1-0.1,0.1h-0.8v6.4l0,0l0,0l0,0l0,0l0,0l0,0l0,0l0,0l0,0h-4.4v14.3h25.7
	L682.6,1083.3L682.6,1083.3z"/>
<path fill="#CCCBCB" d="M758.5,1271.6L758.5,1271.6l-0.4,0.1c-0.1,0-0.1-0.1-0.1-0.1v-5.7l0,0v24.3h21.4v-23.1h-1.7
	c-0.1,0-0.1-0.1-0.1-0.1v-1.1h-13.1C764.2,1268.8,761.8,1271.4,758.5,1271.6z"/>
<path fill="#CCCBCB" d="M665.1,1073.3v0.3h17.4v-2.1h-5.7c-0.1,0-0.1-0.1-0.1-0.1l0,0v-0.3c0,0,0,0,0-0.1c0.1-3.2,2.8-5.7,6-5.7v-14
	H657v14.3h4.3c0.1,0,0.1,0.1,0.1,0.1v6.4h0.8c0.1,0,0.1,0.1,0.1,0.1v0.7h2.6C664.9,1073.1,665.1,1073.1,665.1,1073.3z"/>
<path fill="#CCCBCB" d="M682.6,1035.2c-3.2-0.1-5.7-2.6-6-5.7c0,0,0,0,0-0.1v-0.4l0,0l0,0c0-0.1,0.1-0.1,0.1-0.1s0,0,0.1,0h5.7v-2.1
	h-17.4v0.8c0,0.1-0.1,0.1-0.1,0.1h-2.6v0.7c0,0.1-0.1,0.1-0.1,0.1h-0.8v5.6v1c0,0.1-0.1,0.1-0.1,0.1h-4.3v14.3h25.7L682.6,1035.2
	L682.6,1035.2z"/>
<path fill="#CCCBCB" d="M665.1,1216.9v0.3h17.4v-2.1h-5.7c-0.1,0-0.1-0.1-0.1-0.1l0,0v-0.2l0,0c0.1-3.2,2.8-5.7,6-6V1195H657v14.2
	h4.3h0.1l0,0l0,0v0.1l0,0v6.4h0.8c0.1,0,0.1,0.1,0.1,0.1v0.8h2.6C664.9,1216.6,665.1,1216.6,665.1,1216.9z"/>
<path fill="#CCCBCB" d="M696.8,1298.2C696.9,1298.2,696.9,1298.3,696.8,1298.2l0.1,0.2h0.1c0.1,0,0.1,0.1,0.1,0.1v0.3h18v-12h-1
	c-0.1,0-0.1-0.1-0.1-0.1l0,0h-10.2h-6.4v5c0,0.1-0.1,0.1-0.1,0.1h-0.1v0.1c0,0.1-0.1,0.1-0.1,0.1h-0.5v5.7L696.8,1298.2
	L696.8,1298.2z"/>
<path fill="#CCCBCB" d="M696.8,1307.4c0.1,0,0.1,0.1,0.1,0.1v0.1h0.1c0.1,0,0.1,0.1,0.1,0.1v3.3h2.5c0.1,0,0.1,0.1,0.1,0.1v3.9
	c0,0.1-0.1,0.1-0.1,0.1h-2.5v8.1h18v-23.1h-18v0.3c0,0.1-0.1,0.1-0.1,0.1h-0.1v0.1c0,0.1-0.1,0.1-0.1,0.1h-0.3v5.7h0.3V1307.4z"/>
<path fill="#CCCBCB" d="M727.7,1324.6c0-0.1,0.1-0.1,0.1-0.1h0.1v-0.1c0-0.1,0.1-0.1,0.1-0.1h1v-32.8h-12.8v32.8h4.7
	c0.1,0,0.1,0.1,0.1,0.1v0.3h0.1c0.1,0,0.1,0.1,0.1,0.1v0.1h5.6v-0.3H727.7z"/>
<path fill="#CCCBCB" d="M736.5,1323.4L736.5,1323.4v-0.3c0,0,0,0,0-0.1c0.1-2.9,2.6-5.6,5.6-5.7c0,0,0,0,0-0.1v-4.3
	c0-0.1,0.1-0.1,0.1-0.1h11.4v-20.9h-22.7v32.3h6C736.6,1323.6,736.5,1323.6,736.5,1323.4z"/>
<path fill="#CCCBCB" d="M730.6,1072.8C730.6,1072.8,730.6,1072.8,730.6,1072.8c0-0.1,0.1-0.3,0.1-0.3c3.5,0,6.3,2.8,6.3,6.1h3.6
	v-6.3c0-0.1,0.1-0.1,0.1-0.1h0.1v-5.6h-0.1c-0.1,0-0.1-0.1-0.1-0.1v-4.5h-9.9c-0.1,0-0.1-0.1-0.1-0.1v-1.5c0-0.1,0.1-0.1,0.1-0.1
	h0.1v-5.6h-0.1c-0.1,0-0.1-0.1-0.1-0.1v-1.8h-6.4c-0.1,0-0.1-0.1-0.1-0.1v-2.3h-7.4v2.3c0,0.1-0.1,0.1-0.1,0.1H710v1.7
	c0,0.1-0.1,0.1-0.1,0.1h-0.1v5.6h0.1c0.1,0,0.1,0.1,0.1,0.1v1.5c0,0.1-0.1,0.1-0.1,0.1h-14v10.9L730.6,1072.8
	C730.5,1072.8,730.6,1072.8,730.6,1072.8z"/>
<polygon fill="#CCCBCB" points="716.3,1266.9 716.7,1289.6 733.5,1289.6 733.5,1266.9 "/>
<path fill="#CCCBCB" d="M756.4,1312.6h10.4c0.1,0,0.1,0.1,0.1,0.1v4.3c0,0,0,0,0,0.1c3.2,0.3,5.7,2.9,5.7,6.3c0,0.1,0,0.1-0.1,0.1
	c0,0,0,0-0.1,0h2.9v-0.3c0-0.1,0.1-0.1,0.1-0.1h3.8v-7.8h-2c-0.1,0-0.1-0.1-0.1-0.1v-3.2c0-0.1,0.1-0.1,0.1-0.1h2v-19.8h-22.6
	L756.4,1312.6L756.4,1312.6z"/>
<path fill="#CCCBCB" d="M756.2,1271.4C756.2,1271.6,756.2,1271.6,756.2,1271.4c0,0.1-0.1,0.3-0.1,0.3h-0.3c0,0-0.1,0-0.1-0.1
	c-3.2-0.1-5.6-2.8-5.7-6h-5.6v1c0,0.1-0.1,0.1-0.1,0.1H735v21.3h0.8c0.1,0,0.1,0.1,0.1,0.1v1.7h20.5v-24.5l0,0L756.2,1271.4
	L756.2,1271.4z"/>
<path fill="#CCCBCB" d="M702.8,1081.3C702.9,1081.3,702.9,1081.4,702.8,1081.3c0.1,3.6-2.7,6.4-6,6.4v32h2.3c0.1,0,0.1,0.1,0.1,0.1
	v1.5h29.5v-47.6h-28.8v2c0,0.1-0.1,0.1-0.1,0.1h-2.6v5.3L702.8,1081.3C702.7,1081.3,702.7,1081.3,702.8,1081.3z"/>
<rect x="704" y="1283.2" fill="#CCCBCB" width="11" height="2.6"/>
<path fill="#CCCBCB" d="M682.6,1226.9c-3.2-0.1-5.7-2.6-6-5.7c0,0,0,0,0-0.1v-0.3l0,0l0,0c0-0.1,0.1-0.1,0.1-0.1s0,0,0.1,0h5.7v-2.1
	h-17.4v0.3c0,0.1-0.1,0.1-0.1,0.1h-2.6v0.7c0,0.1-0.1,0.1-0.1,0.1h-0.8v6.4l0,0v0.1l0,0l0,0h-0.1h-4.3v14.4h25.7L682.6,1226.9
	L682.6,1226.9z"/>
<path fill="#CCCBCB" d="M712.5,1242.8L712.5,1242.8v-0.5l0,0l0,0c0,0,0-0.1,0.1-0.1H697v0.7c0,0.1-0.1,0.1-0.1,0.1h-0.3v5.6h0.3
	c0.1,0,0.1,0.1,0.1,0.1v12.4v3.2h6.8h14.9v-15.8C715.3,1248.4,712.7,1245.9,712.5,1242.8z"/>
<path fill="#CCCBCB" d="M712.5,1240.2L712.5,1240.2v-0.1l0,0c0.1-3.2,2.8-5.7,6-6v-14.9h-18.1v0.8c0,0.1-0.1,0.1-0.1,0.1h-3.2v20.3
	h21.4l0,0h-6C712.5,1240.4,712.5,1240.2,712.5,1240.2z"/>
<path fill="#CCCBCB" d="M665.1,1264.6v0.3h17.1v-3.8c0-0.1,0.1-0.1,0.1-0.1l0,0v-10.4c-3.2-0.1-5.7-2.6-6-5.7c0,0,0,0,0-0.1v-0.3
	l0,0l0,0c0-0.1,0.1-0.1,0.1-0.1s0,0,0.1,0h5.7v-1.7h-25.7v14.3h4.3h0.1v0.1v6.4h0.8c0.1,0,0.1,0.1,0.1,0.1v0.7h2.6
	C664.9,1264.4,665.1,1264.4,665.1,1264.6z"/>
<path fill="#CCCBCB" d="M712.5,1217.4L712.5,1217.4v-0.3c0,0,0,0,0-0.1c0.1-3.2,2.8-5.7,6-5.7v-15.6h-21.4v19.8h3.2
	c0.1,0,0.1,0.1,0.1,0.1v2.1h12.4C712.5,1217.6,712.5,1217.6,712.5,1217.4z"/>
<path fill="#CCCBCB" d="M676.5,1268.8C676.5,1268.8,676.5,1268.6,676.5,1268.8v-0.3l0,0l0,0c0-0.1,0.1-0.1,0.1-0.1s0,0,0.1,0h5.6
	c0,0,0,0,0-0.1v-1.7h-17.1v0.3c0,0.1-0.1,0.1-0.1,0.1h-2.6v0.8c0,0.1-0.1,0.1-0.1,0.1h-0.8v6.4c0,0.1-0.1,0.1-0.1,0.1h-4.3v29.9h4.3
	l0,0l0,0l0,0l0,0l0,0l0,0l0,0v0.1l0,0v6.4h0.8c0.1,0,0.1,0.1,0.1,0.1v0.8h2.6c0.1,0,0.1,0.1,0.1,0.1v0.3h16.4v-1.4
	c0-0.1,0.1-0.1,0.1-0.1h0.5v-36.5v-0.1C679.3,1274.4,676.6,1271.9,676.5,1268.8z"/>
<path fill="#4A6DB4" d="M664.9,1360.1v1c0,0.1-0.1,0.1-0.1,0.1h-21.4c-0.1,0-0.1-0.1-0.1-0.1v-1h-2.5c-0.1,0-0.1-0.1-0.1-0.1v-1
	h-0.1c-0.1,0-0.1-0.1-0.1-0.1v-0.1h-5.6v0.1c0,0.1-0.1,0.1-0.1,0.1h-0.3v0.1v2c0,0.1-0.1,0.1-0.1,0.1h-1.1v44.7h0.7
	c0.1,0,0.1,0.1,0.1,0.1v3.9c0,0.1-0.1,0.1-0.1,0.1h-0.7v18.8h0.7c0.1,0,0.1,0.1,0.1,0.1v1.7h46.1v-71.2h-14.9v0.7L664.9,1360.1
	L664.9,1360.1z"/>
<path fill="#4A6DB4" d="M695.7,1416.4L695.7,1416.4l26.3,4.6l4.6,0.8l0.5-3.3l0,0l0,0l0,0l0,0l0,0l0,0l0,0l0,0l0,0l0,0l1.1,0.1
	v-68.5h-0.7c-0.1,0-0.1-0.1-0.1-0.1v-2.3h-28.1v0.3c0,0.1-0.1,0.1-0.1,0.1h-17.8v3.2c0,0.1-0.1,0.1-0.1,0.1h-0.7l0,0
	c0,0.1-0.1,0.1-0.1,0.1h-0.1v5.6h0.1c0.1,0,0.1,0.1,0.1,0.1l0,0h0.8c0.1,0,0.1,0.1,0.1,0.1v0.8h0.3c0,0,0,0,0.1,0l0,0c0,0,0,0,0,0.1
	l0,0l0,0l0,0v57.6h13.7L695.7,1416.4L695.7,1416.4z"/>
<path fill="#CCCBCB" d="M614,1354.1c0.1,0,0.1,0.1,0.1,0.1v4.5h17.7v-10.9h-17.7v0.3c0,0.1-0.1,0.1-0.1,0.1h-0.1v5.6L614,1354.1
	L614,1354.1z"/>
<path fill="#CCCBCB" d="M591.3,1356.9h5.7c0.1,0,0.1,0.1,0.1,0.1v-2.5v-0.3v-2.6H597C593.8,1351.8,591.4,1354.1,591.3,1356.9z"/>
<path fill="#4A6DB4" d="M581.5,1360.1C581.4,1360.1,581.4,1360.1,581.5,1360.1l-0.1,4.5c0,0,0,0,0,0.1c0,0.1-0.1,0.1-0.1,0.1l0,0
	l0,0H581c0,0,0,0-0.1,0c-2.8-0.1-5.1-2.4-5.7-5l-0.1,0.1H542l-0.7,3.3c0,0.1-0.1,0.1-0.1,0.1l-3.3-0.7l-1.1,6.6v59h0.7
	c0.1,0,0.1,0.1,0.1,0.1v2.8h45v-71.4L581.5,1360.1L581.5,1360.1z"/>
<path fill="#CCCBCB" d="M521.5,1329.2v95.1h10.6v-51.4l4.2-21.6v-12.2v-21.9h-89.7l0.3,15.2l33.3-3.6l38.9,0.5l0,0h2
	C521.4,1329.1,521.5,1329.2,521.5,1329.2z"/>
<g>
	<path fill="#989798" d="M782,1010.6v13.5h-4.3v34.9v0.8h0.1v12.4l0,0l0.1,0.8h0.1v2.6h0.7h0.7v10.6v6.6h0.1v12.5h-0.1v14.6v3.6
		v10.4v6.6v0.3h0.1v12.5h-0.1v14.2v3.6v10.4v6.6v1h0.1v12.5h-0.1v2.5v11.3h-2v2.6h2v11.4v6.6v1.5h0.1v12.5h-0.1v13.2h-2v0.1v1v1.5h2
		v23.4v1v20.5h-2.3v3.2h2.3v8.2h-3.9v0.7h-8.6v-0.1h-0.3v-0.3h-0.2v-6h0.3v-0.3h0.1h0.1v-4.3h-10.6h-2.6h-11.5v4.3h0.8v6.4h-0.3v0.3
		h-0.3v0.1h-11.5h-1h-1.5v0.5H728v0.3h-6l0,0v0.1h-0.3v-0.5h-5.1h-1h-18.5v-8.6h2.6v-4.2h-2.6v-3.5H697v-0.3h-0.6l0,0v-6.1h0.1h0.3
		v-0.3h0.1h0.1v-0.7v-1v-0.7h-0.3v-0.3h-0.3l0,0l0.1-6.3h0.3v-0.3h0.3v-5.3h6.3v-22.3H697v-3.3h-1h-0.1v0.7h-11.5v-0.7h-0.1h-1h-0.1
		v3.9v0.8v2h0.1v0.3h0.7v6h-0.7v0.3h-0.1v36.8h-0.7v1.5v0.8v-0.8h-17v-0.5h-2.9v-1h-1l0,0v-6H656v-31.9h5v-15.9h-5v-32h5v-15.5h-5
		v-32h5v-15.6h-5v-31.9h5v-15.9h-5v-31.9h5v-16h-5v-2.6l0,0v-29.7h5v-4.7h35.5v-10.4h2v-0.8h3.6v-2.3h19.1h2.6h23.3h2.3h4.3v-4.6
		L782,1010.6 M788.1,1004.6h-6.3h-28.4h-6.3v4.5h-0.3h-23.2H721h-19.6h-6.3v2.3h-3.6v0.7H690v6.3v4.3h-29h-6.3v4.7h-5v6.3v23.3v6.3
		v2.6v6.3h5v3.6h-5v6.3v32v6.3h5v3.6h-5v6.3v32v6.3h5v3.5h-5v6.3v32v6.3h5v3.6h-5v6.3v32v6.3h5v3.6h-5v6.3v31.5v6.3h5.6v6h1.1v1h2.8
		v0.5h6.3h17v-5.4l0,0v3.8h0.7h6.3v-6.9v-30.6h0.1v-1h0.7v-6.3v-6v-0.3h1.1v2.6h6.3h0.3v10l0,0h-6.3v5.1h-0.3v0.3h-0.1l-0.1,6
		l-0.1,3.2H691v2.9l-0.1,6.3h0.1v2.9v6.3h0.5v0.3h0.3v3.5v6.4v6.3h6.3h18.3v0.5h0.3v0.3h6.3l0,0h6h6.3v-0.3h0.3v-0.5h7.8h6.3v-0.1
		h0.3v-0.3h0.3v-5.7v-4.5h4.5h2.6h3.5v4.5v6.3h0.3v0.3h0.3v0.1h6.3h8.6h6.3v-0.7h3.9v-6.3v-5.3v-6.3v-20.5v-0.9v-20.1v-6.3v-7.1h0.1
		v-6.1v-12.5v-6.4h-0.1v-2v-7.8v-6.3v-7.4h0.1v-6.3v-12.5v-6.1h-0.1v-1.5v-10.4v-3.6v-8.1h0.1v-6.3v-12.5v-6.3h-0.1v-0.8v-10.4v-3.6
		v-8.4h0.1v-6.3v-12.5v-6.3h-0.1v0.1v-10.6v-6.3h-1.4v-2.6h-0.3v-7.2v-6.1h0.1v-23.4h4.3v-6.1v-13.4v-6.3h-1.1v0.3H788.1z"/>
</g>
<path fill="#4A6DB4" d="M607.4,1361.2c-0.1,0-0.1-0.1-0.1-0.1v-1h-9.6l0,0H585v16.1h0.7c0.1,0,0.1,0.1,0.1,0.1v2.6
	c0,0.1-0.1,0.1-0.1,0.1H585v49.7h0.7c0.1,0,0.1,0.1,0.1,0.1v1.7h44.5v-69.9h-23v0.6L607.4,1361.2L607.4,1361.2z"/>
<path fill="#CCCBCB" d="M597.2,1357.4L597.2,1357.4h0.8c0.1,0,0.1,0.1,0.1,0.1v2.1h8.9v-0.7c0-0.1,0.1-0.1,0.1-0.1h5.6v-4.3
	c-3.2-0.1-5.7-2.6-6-5.7c0,0,0,0,0-0.1v-0.3l0,0v-0.1h0.3h5.7v-0.1h-14.6v3.2c0,0.1-0.1,0.1-0.1,0.1h-0.8l0,0c0,0.1-0.1,0.1-0.1,0.1
	H597v5.6h0.1C597,1357.2,597.2,1357.2,597.2,1357.4z"/>
<path fill="#4A6DB4" d="M680.4,1354.1v-2.3h-0.1c-2.9,0-5.6,2.3-5.7,5.1h5.7c0.1,0,0.1,0.1,0.1,0.1v0.1l0,0v-2.5l0,0V1354.1
	L680.4,1354.1z"/>
<path fill="#4A6DB4" d="M758.9,1353.9v-2.5h0.1c2.9,0,5.6,2.3,5.7,5.1h-5.6c-0.1,0-0.1,0.1-0.1,0.1v0.1l0,0v-2.5l0,0v-0.7h-0.1
	L758.9,1353.9L758.9,1353.9z"/>
<path fill="#4A6DB4" d="M634.3,1355.6v-2.3h0.1c2.9,0,5.6,2.3,5.7,5.1h-5.7c-0.1,0-0.1,0.1-0.1,0.1v0.1l0,0v-2.5l0,0V1355.6
	L634.3,1355.6z"/>
<text transform="matrix(1 0 0 1 745.4961 1399.8303)" fill="#FFFFFF" font-family="'TradeGothic-BoldCondTwenty'" font-size="11.0413">2138</text>
<text transform="matrix(1 0 0 1 696.415 1399.8303)" fill="#FFFFFF" font-family="'TradeGothic-BoldCondTwenty'" font-size="11.0413">2136</text>
<text transform="matrix(1 0 0 1 645.5254 1401.2512)" fill="#FFFFFF" font-family="'TradeGothic-BoldCondTwenty'" font-size="11.0413">2134</text>
<text transform="matrix(1 0 0 1 596.9346 1401.4436)" fill="#FFFFFF" font-family="'TradeGothic-BoldCondTwenty'" font-size="11.0413">2132</text>
<text transform="matrix(1 0 0 1 548.1523 1402.5862)" fill="#FFFFFF" font-family="'TradeGothic-BoldCondTwenty'" font-size="11.0413">2130</text>
<rect x="514.7" y="1318.9" opacity="0.6" fill="#4A6DB4" enable-background="new    " width="1.4" height="8.2"/>
<rect x="517.1" y="1318.9" opacity="0.6" fill="#4A6DB4" enable-background="new    " width="1.4" height="8.2"/>
<rect x="519.6" y="1318.9" opacity="0.6" fill="#4A6DB4" enable-background="new    " width="1.4" height="8.2"/>
<rect x="522.8" y="1318.9" opacity="0.6" fill="#4A6DB4" enable-background="new    " width="8.1" height="7.2"/>
<rect x="522.8" y="1346.8" opacity="0.6" fill="#4A6DB4" enable-background="new    " width="8.2" height="1.4"/>
<rect x="522.8" y="1344.2" opacity="0.6" fill="#4A6DB4" enable-background="new    " width="8.2" height="1.4"/>
<rect x="522.8" y="1341.9" opacity="0.6" fill="#4A6DB4" enable-background="new    " width="8.2" height="1.4"/>
<rect x="522.8" y="1339.1" opacity="0.6" fill="#4A6DB4" enable-background="new    " width="8.2" height="1.4"/>
<rect x="522.8" y="1336.6" opacity="0.6" fill="#4A6DB4" enable-background="new    " width="8.2" height="1.4"/>
<rect x="522.8" y="1334.1" opacity="0.6" fill="#4A6DB4" enable-background="new    " width="8.2" height="1.4"/>
<rect x="522.8" y="1331.9" opacity="0.6" fill="#4A6DB4" enable-background="new    " width="8.2" height="1.4"/>
<rect x="522.8" y="1329.4" opacity="0.6" fill="#4A6DB4" enable-background="new    " width="8.2" height="1.4"/>
<rect x="522.8" y="1326.8" opacity="0.6" fill="#4A6DB4" enable-background="new    " width="8.2" height="1.4"/>
<rect x="497.6" y="1318.9" opacity="0.6" fill="#4A6DB4" enable-background="new    " width="1.4" height="8.2"/>
<rect x="499.8" y="1318.9" opacity="0.6" fill="#4A6DB4" enable-background="new    " width="1.4" height="8.2"/>
<rect x="502.3" y="1318.9" opacity="0.6" fill="#4A6DB4" enable-background="new    " width="1.4" height="8.2"/>
<rect x="504.9" y="1318.9" opacity="0.6" fill="#4A6DB4" enable-background="new    " width="1.4" height="8.2"/>
<rect x="507.2" y="1318.9" opacity="0.6" fill="#4A6DB4" enable-background="new    " width="1.4" height="8.2"/>
<rect x="509.7" y="1318.9" opacity="0.6" fill="#4A6DB4" enable-background="new    " width="1.4" height="8.2"/>
<rect x="512.2" y="1318.9" opacity="0.6" fill="#4A6DB4" enable-background="new    " width="1.4" height="8.2"/>
<rect x="477.4" y="1318.9" opacity="0.6" fill="#4A6DB4" enable-background="new    " width="1.4" height="8.2"/>
<rect x="479.9" y="1318.9" opacity="0.6" fill="#4A6DB4" enable-background="new    " width="1.4" height="8.2"/>
<rect x="482.4" y="1318.9" opacity="0.6" fill="#4A6DB4" enable-background="new    " width="1.4" height="8.2"/>
<rect x="484.8" y="1318.9" opacity="0.6" fill="#4A6DB4" enable-background="new    " width="1.4" height="8.2"/>
<rect x="487.3" y="1318.9" opacity="0.6" fill="#4A6DB4" enable-background="new    " width="1.4" height="8.2"/>
<rect x="489.6" y="1318.9" opacity="0.6" fill="#4A6DB4" enable-background="new    " width="1.4" height="8.2"/>
<rect x="492.3" y="1318.9" opacity="0.6" fill="#4A6DB4" enable-background="new    " width="1.4" height="8.2"/>
<rect x="494.7" y="1318.9" opacity="0.6" fill="#4A6DB4" enable-background="new    " width="1.4" height="8.2"/>
<rect x="460.1" y="1318.9" opacity="0.6" fill="#4A6DB4" enable-background="new    " width="1.4" height="8.2"/>
<rect x="462.5" y="1318.9" opacity="0.6" fill="#4A6DB4" enable-background="new    " width="1.4" height="8.2"/>
<rect x="465.2" y="1318.9" opacity="0.6" fill="#4A6DB4" enable-background="new    " width="1.4" height="8.2"/>
<rect x="467.5" y="1318.9" opacity="0.6" fill="#4A6DB4" enable-background="new    " width="1.4" height="8.2"/>
<rect x="470" y="1318.9" opacity="0.6" fill="#4A6DB4" enable-background="new    " width="1.4" height="8.2"/>
<rect x="472.6" y="1318.9" opacity="0.6" fill="#4A6DB4" enable-background="new    " width="1.4" height="8.2"/>
<rect x="474.9" y="1318.9" opacity="0.6" fill="#4A6DB4" enable-background="new    " width="1.4" height="8.2"/>
<g>
	<rect x="522.9" y="1366.6" opacity="0.6" fill="#4A6DB4" enable-background="new    " width="8.2" height="1.4"/>
	<rect x="522.9" y="1364.2" opacity="0.6" fill="#4A6DB4" enable-background="new    " width="8.2" height="1.4"/>
	<rect x="522.9" y="1361.8" opacity="0.6" fill="#4A6DB4" enable-background="new    " width="8.2" height="1.4"/>
	<rect x="522.9" y="1359.2" opacity="0.6" fill="#4A6DB4" enable-background="new    " width="8.2" height="1.4"/>
	<rect x="522.9" y="1356.8" opacity="0.6" fill="#4A6DB4" enable-background="new    " width="8.2" height="1.4"/>
	<rect x="522.9" y="1354.2" opacity="0.6" fill="#4A6DB4" enable-background="new    " width="8.2" height="1.4"/>
	<rect x="522.9" y="1351.9" opacity="0.6" fill="#4A6DB4" enable-background="new    " width="8.2" height="1.4"/>
	<rect x="522.9" y="1349.6" opacity="0.6" fill="#4A6DB4" enable-background="new    " width="8.2" height="1.4"/>
	<rect x="522.9" y="1384.1" opacity="0.6" fill="#4A6DB4" enable-background="new    " width="8.2" height="1.4"/>
	<rect x="522.9" y="1381.4" opacity="0.6" fill="#4A6DB4" enable-background="new    " width="8.2" height="1.4"/>
	<rect x="522.9" y="1379.1" opacity="0.6" fill="#4A6DB4" enable-background="new    " width="8.2" height="1.4"/>
	<rect x="522.9" y="1376.6" opacity="0.6" fill="#4A6DB4" enable-background="new    " width="8.2" height="1.4"/>
	<rect x="522.9" y="1374.1" opacity="0.6" fill="#4A6DB4" enable-background="new    " width="8.2" height="1.4"/>
	<rect x="522.9" y="1371.6" opacity="0.6" fill="#4A6DB4" enable-background="new    " width="8.2" height="1.4"/>
	<rect x="522.9" y="1369.1" opacity="0.6" fill="#4A6DB4" enable-background="new    " width="8.2" height="1.4"/>
	<rect x="522.9" y="1403.9" opacity="0.6" fill="#4A6DB4" enable-background="new    " width="8.2" height="1.4"/>
	<rect x="522.9" y="1401.4" opacity="0.6" fill="#4A6DB4" enable-background="new    " width="8.2" height="1.4"/>
	<rect x="522.9" y="1398.9" opacity="0.6" fill="#4A6DB4" enable-background="new    " width="8.2" height="1.4"/>
	<rect x="522.9" y="1396.6" opacity="0.6" fill="#4A6DB4" enable-background="new    " width="8.2" height="1.4"/>
	<rect x="522.9" y="1394.1" opacity="0.6" fill="#4A6DB4" enable-background="new    " width="8.2" height="1.4"/>
	<rect x="522.9" y="1391.6" opacity="0.6" fill="#4A6DB4" enable-background="new    " width="8.2" height="1.4"/>
	<rect x="522.9" y="1389.1" opacity="0.6" fill="#4A6DB4" enable-background="new    " width="8.2" height="1.4"/>
	<rect x="522.9" y="1386.6" opacity="0.6" fill="#4A6DB4" enable-background="new    " width="8.2" height="1.4"/>
	<rect x="522.9" y="1421.1" opacity="0.6" fill="#4A6DB4" enable-background="new    " width="8.2" height="1.4"/>
	<rect x="522.9" y="1418.8" opacity="0.6" fill="#4A6DB4" enable-background="new    " width="8.2" height="1.4"/>
	<rect x="522.9" y="1416.4" opacity="0.6" fill="#4A6DB4" enable-background="new    " width="8.2" height="1.4"/>
	<rect x="522.9" y="1413.9" opacity="0.6" fill="#4A6DB4" enable-background="new    " width="8.2" height="1.4"/>
	<rect x="522.9" y="1411.4" opacity="0.6" fill="#4A6DB4" enable-background="new    " width="8.2" height="1.4"/>
	<rect x="522.9" y="1408.9" opacity="0.6" fill="#4A6DB4" enable-background="new    " width="8.2" height="1.4"/>
	<rect x="522.9" y="1406.4" opacity="0.6" fill="#4A6DB4" enable-background="new    " width="8.2" height="1.4"/>
</g>
<polygon fill="#4A6DB4" points="132.3,1384.6 121.1,1384.6 126.6,1374.9 "/>
<polygon fill="#4A6DB4" points="179.5,1384.6 168.2,1384.6 173.6,1374.9 "/>
<polygon fill="#4A6DB4" points="226.8,1384.6 215.4,1384.6 221,1374.9 "/>
<polygon fill="#4A6DB4" points="344.6,1290.8 355.7,1290.4 350,1300.4 "/>
<polygon fill="#4A6DB4" points="769.6,1342.1 776.8,1342.1 773.2,1348.4 "/>
<polygon fill="#4A6DB4" points="636.5,1332.6 643.9,1332.6 640.3,1338.9 "/>
<polygon fill="#4A6DB4" stroke="#FFFFFF" stroke-miterlimit="10" points="680.8,1010.5 688,1010.5 684.4,1017 "/>
<g>
	<polygon fill="#4A6DB4" points="692.5,1271.2 696.8,1278.6 688.2,1278.6 	"/>
	<path fill="#FFFFFF" d="M692.5,1271.9l3.6,6.4h-7.4L692.5,1271.9 M692.5,1270.8l-0.5,0.8l-3.6,6.4l-0.5,0.8h1h7.4h1l-0.5-0.8
		l-3.6-6.4L692.5,1270.8L692.5,1270.8z"/>
</g>
<g>
	<polygon fill="#4A6DB4" points="688.9,898.3 692.9,905.6 684.5,905.6 	"/>
	<path fill="#FFFFFF" d="M688.9,899l3.6,6.4h-7.4L688.9,899 M688.9,897.8l-0.5,0.8l-3.6,6.4l-0.5,0.8h1h7.4h1l-0.5-0.8l-3.6-6.4
		L688.9,897.8L688.9,897.8z"/>
</g>
<polygon fill="#4A6DB4" points="582.7,1336.9 589.8,1332.6 589.8,1340.9 "/>
<polygon fill="#4A6DB4" points="667.9,1340.4 674.5,1343.6 668.3,1347.6 "/>
<polygon fill="#4A6DB4" points="356.4,1288.1 351.5,1277.9 362.7,1278.6 "/>
<rect x="48.9" y="1268.6" opacity="0.6" fill="#4A6DB4" enable-background="new    " width="1.4" height="8.2"/>
<rect x="51.4" y="1268.6" opacity="0.6" fill="#4A6DB4" enable-background="new    " width="1.4" height="8.2"/>
<rect x="53.8" y="1268.6" opacity="0.6" fill="#4A6DB4" enable-background="new    " width="1.4" height="8.2"/>
<rect x="56.3" y="1268.6" opacity="0.6" fill="#4A6DB4" enable-background="new    " width="1.4" height="8.2"/>
<rect x="58.6" y="1268.6" opacity="0.6" fill="#4A6DB4" enable-background="new    " width="1.4" height="8.2"/>
<rect x="61.3" y="1268.6" opacity="0.6" fill="#4A6DB4" enable-background="new    " width="1.4" height="8.2"/>
<rect x="63.7" y="1268.6" opacity="0.6" fill="#4A6DB4" enable-background="new    " width="1.4" height="8.2"/>
<rect x="66.2" y="1268.6" opacity="0.6" fill="#4A6DB4" enable-background="new    " width="1.4" height="8.2"/>
<rect x="34.3" y="1268.6" opacity="0.6" fill="#4A6DB4" enable-background="new    " width="1.4" height="8.2"/>
<rect x="36.5" y="1268.6" opacity="0.6" fill="#4A6DB4" enable-background="new    " width="1.4" height="8.2"/>
<rect x="39" y="1268.6" opacity="0.6" fill="#4A6DB4" enable-background="new    " width="1.4" height="8.2"/>
<rect x="41.7" y="1268.6" opacity="0.6" fill="#4A6DB4" enable-background="new    " width="1.4" height="8.2"/>
<rect x="43.9" y="1268.6" opacity="0.6" fill="#4A6DB4" enable-background="new    " width="1.4" height="8.2"/>
<rect x="46.4" y="1268.6" opacity="0.6" fill="#4A6DB4" enable-background="new    " width="1.4" height="8.2"/>
<g>
	<g>
		<path fill="#4A6DB4" d="M770.6,1299.2c-0.7,0-1.1-0.7-1.1-1.1c0-0.7,0.5-1.1,1.1-1.1c0.7,0,1.1,0.7,1.1,1.1
			C771.7,1298.6,771.3,1299.2,770.6,1299.2z"/>
		<path fill="#4A6DB4" d="M771.3,1299.8c1.1,0,1.7,0.8,2,1.4l1,3.6c0.1,0.3,0,0.7-0.1,0.7s-0.5,0-0.7-0.3l-0.8-3.2
			c0-0.1-0.1-0.3-0.3-0.1c-0.1,0-0.1,0.1-0.1,0.3l1.7,5.7h-2c0,2.3,0,4.3,0,4.3c0,0.7-0.3,0.7-0.5,0.7c-0.1,0-0.5,0-0.5-0.7
			s0-4.2,0-4.2c0-0.1,0-0.1-0.1-0.1s-0.1,0-0.1,0.1c0,0,0,3.6,0,4.2c0,0.7-0.3,0.7-0.5,0.7s-0.5,0-0.5-0.7c0,0,0-2.1,0-4.3h-2.5
			l1.7-5.7c0-0.1,0-0.3-0.1-0.3s-0.3,0-0.3,0.1l-0.8,3.2c-0.1,0.3-0.3,0.5-0.7,0.3c-0.1,0-0.3-0.3-0.1-0.7l1-3.6
			c0.1-0.5,0.5-1.4,2-1.4H771.3z"/>
	</g>
	<g>
		<g>
			<path fill="#4A6DB4" d="M738.6,1299.2c-0.7,0-1.4-0.7-1.4-1.4c0-0.7,0.7-1.4,1.4-1.4s1.4,0.7,1.4,1.4
				C740.1,1298.4,739.4,1299.2,738.6,1299.2z"/>
		</g>
		<path fill="#4A6DB4" d="M736.3,1302.6v2.9c0,0.5-0.1,0.7-0.5,0.7c-0.3,0-0.5-0.1-0.5-0.7v-3.6c0-1.5,0.8-2.1,2.1-2.1h2.3
			c1.4,0,2.1,0.3,2.1,2.1v3.6c0,0.5-0.1,0.7-0.5,0.7c-0.3,0-0.5-0.1-0.5-0.7v-2.9c0-0.3-0.1-0.3-0.1-0.3s-0.3,0-0.3,0.3s0,9.7,0,9.7
			c0,0.7-0.5,0.7-0.7,0.7s-0.7,0-0.7-0.7s0-5.7,0-5.7c0-0.1,0-0.3-0.1-0.3s-0.1,0-0.1,0.3c0,0,0,5,0,5.7s-0.5,0.7-0.7,0.7
			s-0.7,0-0.7-0.7c0,0,0-9.3,0-9.7s-0.1-0.3-0.3-0.3C736.6,1302.1,736.3,1302.1,736.3,1302.6z"/>
	</g>
</g>
<polygon fill="#4A6DB4" points="576.1,1342.6 584.5,1342.4 580.6,1349.6 "/>
</svg>
