<?xml version="1.0" encoding="utf-8"?>
<!-- Generator: Adobe Illustrator 19.1.0, SVG Export Plug-In . SVG Version: 6.00 Build 0)  -->
<svg version="1.1" id="Layer_1" xmlns="http://www.w3.org/2000/svg" xmlns:xlink="http://www.w3.org/1999/xlink" x="0px" y="0px"
	 viewBox="0 0 612 792" style="enable-background:new 0 0 612 792;" xml:space="preserve">
<style type="text/css">
	.st0{opacity:0.5;}
	.st1{fill:#989798;}
	.st2{font-family:'ArialMT';}
	.st3{font-size:15.3352px;}
	.st4{fill:#FFFFFF;}
	.st5{font-size:49.0728px;}
	.st6{fill:#4A6DB4;}
	.st7{fill:#CCCBCB;}
	.st8{fill:none;}
	.st9{fill:none;stroke:#989798;stroke-width:4;stroke-linecap:square;stroke-miterlimit:10;}
	.st10{opacity:0.25;fill:#989798;enable-background:new    ;}
	.st11{opacity:0.6;fill:#4A6DB4;enable-background:new    ;}
	.st12{font-size:11.0413px;}
	.st13{font-family:'MyriadPro-Regular';}
	.st14{font-size:10.8322px;}
</style>
<g class="st0">
	<g>
		<text transform="matrix(1 0 0 1 184.043 180.9693)" class="st1 st2 st3">Level </text>
	</g>
	<circle class="st1" cx="245.3" cy="178.5" r="25.9"/>
	<text transform="matrix(1 0 0 1 232.5635 196.6246)" class="st4 st2 st5">1</text>
</g>
<g>
	<g>
		<path class="st1" d="M401.5,233.2v0.8h0.3v0.3h0.5v6h-0.5v0.3h-0.3v3.3h-2.8v0.7H413l3.2,0.7h2v-1.7h8.2v-1.4h-0.7v-1.5H425v-0.3
			h-0.5v-6.1h0.5v-0.8h2.3v0.3h19.5v28.5h0.1v4.6h0.3v26h1.4v6.6v2.5l-1.4,6.6v0.1h1.4v6.6h-0.9v0.5v0.5h1v9.3H447v9.9v0.1l0.3,1.5
			l0.3,2.6v2.6l-0.1,1.1v1.4v1.4l-0.5,2.6v15.5h1.7v8.4H447v3.5h1.7v18.9l-1.4,6.6v0.1h1.4v17H447v3.8h1.7v19.2l-1.4,6.6v0.1h1.4
			v17.4H447v49.6h1.7v8.1H447v0.7h-2.5l0,0h-10.7v1.4h0.3v0.3h0.3v6h-0.5v0.3h-0.3v2.9l-31.3,2.6v-2.3h-3.6l-1-4.6H384l-17-0.1
			v-42.4h6.4v-23h-0.1v-6h0.1V452H368v-29.8h3.9v-3.8H368v-27.9h5.6v-6.3h-0.1v-6h0.1v-7.8h-0.1v-5.5h0.1v-7.2h-3.2v-14.2h3.2v-2.8
			h-3.3V329h1.5v-2.8h1.7v-1h-0.3v-10.7h-0.3v-21.4h0.3v-10.7h0.3v-8.8l0,0v-0.3H373v-6h0.5V267l0,0v-1.7H369v-1h-1v-2.6h-0.1v-0.3
			h-0.1v-6h0.5v-0.3h0.3v-0.7h0.1v-0.7h-0.1V253h-0.3v-0.3h-0.5v-6h0.5v-0.3h0.3v-1.5h2.6v-2.6h-2.6V237h3.6v-3.8h17.7l0,0h1l0,0
			L401.5,233.2 M407.7,226.9h-6.2h-5.6h-6.3h-17.7h-6.1v3.8h-3.6v6.3v3.5h-0.3v0.3h-0.5v6.3v6v6.3v2.8v6.3h0.5v0.3h0.3v2.6h1v1h3.9
			v1.7v6.3h0.1v2.9v4.5h-0.3v6.3v21.4v5.6h-1v2.9h-1.5v6.3V342v6.3h0.1v10.9v6.3h2.9v1.1v6v6.3v1.5v6l0,0h-5.1v6.3v28v6.3v26.3v6.3
			h5.3v0.7v6v6.3h0.1v10.7h-0.1h-6.3v6.3v41.8v6.1h6.1l17,0.1l0,0l0,0h8.6l1,4.6h2.6v2.9l6.6-0.5l31.3-2.6l5.7-0.5V539h0.3v-0.3h0.3
			v-6.4v-1.4h3.8h6.3l0,0h2.5v-0.7h1.7v-6.3v-8.1v-6h-1.7v-36.9h1.7v-6.3v-17.7v-6.1v-0.7v-16.8V419v-17v-6.1v-0.7v-16.3v-6.3v-8.4
			v-6.3h-1.7v-9l0.3-2.1v-0.3v-0.3v-1.4v-1.4v-1.1v-0.1v0.1v-2.6v-0.1v-0.1l-0.3-2.6v-0.1v-0.1l-0.1-1.4v-3.2h1.7v-6.2v-4.3v-6.3
			v-6.6v-6.1v-0.7v-2.5v-6.5v-6h-1.4v-19.8v-6.4h-0.3v-4.6h-0.1v-22.2v-6.2H447h-13.4v-0.3h-6.2h-2.3H419v0.8h-0.7v6.3v2.9H418h-6.3
			v1h-3.5v-3.9v-6.3h-0.5v-0.3h-0.3v-0.7h0.3V226.9L407.7,226.9z"/>
	</g>
</g>
<polygon class="st6" points="352.2,192 349.7,192 349.7,191.4 348.3,191.4 348.3,193.1 350.7,193.1 350.7,197.4 348.3,197.4 
	348.3,196.4 334.8,196.4 334.8,179.4 334.8,162.4 348.3,162.4 348.3,161.2 350.7,161.2 350.7,165.7 348.3,165.7 348.3,179.4 
	348.3,184.9 349.7,184.9 349.7,184.4 352.2,184.4 352.2,174.4 349.5,174.4 349.5,166.9 352.2,166.9 352.2,160 350.2,160 332.1,160 
	332.1,198.9 350.2,198.9 352.2,198.9 "/>
<polygon class="st6" points="335.2,180 335.2,195.7 347.7,195.7 347.7,192.5 347.7,191.4 347.7,185 347.7,179.9 "/>
<polygon class="st1" points="380.6,223 382.7,223 382.7,223 382.7,223 400.8,223.2 400.8,223 400.8,223.2 450.7,223.2 450.7,219.4 
	411.8,219.4 380.6,219.4 "/>
<polygon class="st7" points="368.5,262.7 368.6,262.7 368.6,265.1 369.6,265.1 369.6,266.1 373.1,266.1 389.1,266.1 389.1,255.5 
	368.6,255.5 368.6,256.2 368.5,256.2 368.5,256.5 368,256.5 368,262.4 368.5,262.4 "/>
<path class="st7" d="M375,324.2h2.5v0.5h5.6v-0.5l-0.1,0.3l-4.7-2.8c-0.3,0.7-0.5,1.5-0.5,2.5c0-0.8,0.1-1.7,0.5-2.5l0,0l0.1-0.3
	l0,0l0,0l0,0l4.7,2.8h2.6l0.3-0.7l1-1.5l0.7-1l1-1.4l1-1.4l2-2l1.7-1.5l1.7-1.5l1.7-1l2.3-1.4l2.1-1l1.7-0.8l1.7-0.5l2-0.7l2.1-0.5
	l2-0.3l2.1-0.1h2h2h2.3l2.1,0.3l2.5,0.5l2.5,0.7l1.7,0.5l1.4,0.5l1.4,0.7l1.5,0.8l2.3,1.4l1.7,1.1l1.4,1h3.9v0.5h5.6v-0.5l-0.1,0.3
	l0.1-0.3h0.8v-6.3h-1.1v-0.2l1.1-6.3v-2.3V293h-1.1v-25.1h-71.1v0.3h-0.3v0.3h-0.5v5.6h0.5v0.3h0.3v8.4h-0.5V293h-0.3v20.6h0.3V324
	l0,0l0,0H375V324.2z"/>
<path class="st7" d="M373.1,267.7h-0.3v0.3h-5.6c0.1,2.9,2.6,5.1,5.6,5.1h0.3V267.7L373.1,267.7z"/>
<g>
	<path class="st7" d="M432.9,264.4h13.4v-30.1h-18.5V234h-2.3v0.8l0,0H425v5h0.5v0.3h0.5v1.7h0.7v2h-8.1v1.7h-3.2v19.8h17.3v-1h0.1
		v0.1H432.9z M431.7,234.7c0,3.2-2.6,5.7-5.7,5.7C429,240.4,431.7,237.9,431.7,234.7z"/>
</g>
<path class="st7" d="M401.6,235.9H396c0.1,2.9,2.6,5.1,5.6,5.1c-2.9,0-5.3-2.3-5.6-5.1l0,0v-0.3l0,0l0,0l0,0h5.6v-0.3h-0.3v-0.9
	h-10.6v31.2h23.4v-20.3H401v-3.8h0.3V241h0.5v-5.7h-0.3v0.7L401.6,235.9L401.6,235.9z"/>
<path class="st7" d="M367.5,247H367l0,0c-3.2,0-5.6,2.5-5.6,5.6h5.6v0.3h0.5V247z"/>
<polygon class="st7" points="375.3,482.3 375,482.3 375,484.1 380,484.1 380,483 385.9,483 385.9,469 375,469 375,475 375.3,475 
	375.3,475.7 374.6,475.7 374.6,482 375.3,482 "/>
<path class="st7" d="M367.5,502.7H367v0.3h-5.6c0.1,2.9,2.6,5.6,5.6,5.6h0.3L367.5,502.7L367.5,502.7z"/>
<path class="st7" d="M367.5,493.8H367l0,0c-3.2,0-5.6,2.5-5.6,5.6h5.6v0.3h0.5V493.8z"/>
<path class="st7" d="M373.5,365.3H373l0,0c-2.9,0-5.6,2.5-5.6,5.3h5.6v0.3h0.5V365.3z"/>
<polygon class="st7" points="368.9,488 368.9,493.3 368.5,493.3 368.5,493.8 368.2,493.8 368.2,499.5 368.5,499.5 368.5,499.8 
	368.9,499.8 368.9,500.3 396,500.3 396,488 387.1,488 385.9,488.3 385.9,485 381.3,485 381.3,486 375,486 375,488 "/>
<polygon class="st7" points="367.7,517.3 367.7,530.5 384.3,530.5 397.6,530.5 397.6,517.3 "/>
<path class="st7" d="M373.5,459.3H373c-2.9,0-5.6,2.3-5.6,5.3h5.6v0.3h0.5V459.3L373.5,459.3z"/>
<polygon class="st7" points="368.5,502.3 368.5,503 368.2,503 368.2,508.5 368.5,508.5 368.5,508.8 368.9,508.8 368.9,512.1 
	371.3,512.1 371.3,515.5 394.4,515.5 394.4,512.7 397.3,512.7 397.3,502 368.9,502 368.9,502.3 "/>
<polygon class="st7" points="376.3,326.7 373.2,326.7 372.5,326.7 372.5,329.5 371,329.5 371,340.7 380.3,340.7 380.3,339.5 
	380.6,338 380.6,337.1 381,336 381.2,335 381.3,333.7 381.8,332.2 382.4,330.5 383.4,327.7 383.4,326.7 381.8,326.7 381.8,326.2 
	376.3,326.2 "/>
<polygon class="st7" points="374.5,358.1 374.5,365 373.9,365 373.9,370.5 374.5,370.5 374.5,373 385.3,373 385.3,356.7 
	386.4,356.7 385.9,355.5 385.5,354.2 385.3,354 384.8,352.8 384.8,352.2 384.6,352.2 384.6,352 384.3,351.5 383.8,349.7 
	383.7,348.5 383.4,347 383.4,345.8 383.2,344.3 371.1,344.3 371.1,358.1 "/>
<path class="st7" d="M384.8,345.1l0.1,1l0.3,1.5l0.3,1.7l0.5,2l0.1,0.3l0.5,1.5l0.1,0.5l0.7,1.4l0.5,1l0.5,0.8l0.5,1l1,1.5l0.8,1
	l1,1.1l0.8,0.8l0.8,1l1,1v-0.3l4.6,0.1v0.3l-4.6-0.1l-0.3,0.3l3.8,2.9l0.1-0.3l1,0.7l2.3,1.4l2.1,0.8l2,0.7l2.3,0.8l3.5,0.5l2.1,0.3
	h2.3l3.2-0.1l3.2-0.5l2.9-0.8l1.5-0.5l2.3-0.8l2.1-1l1.5-0.8l1-0.7l1.1-1l0.8-0.5l2-1.7l2.6-2.9l0,0l1.5-2.1l1.1-2.1l1-2.1l1-2.3
	l1-3.8l0.5-2.6v-1.1v-1.4v-1.1v-2.5l-0.3-2.6l-0.3-1.5l-0.5-2.6l-0.7-2.1l-1.4-3.2l-1.5-2.6l-1.1-2l-2-2.8l-2.1-2.1l-2-1.5l-3.2-2.3
	l-2.5-1.1l-2.3-1l-2.8-0.8l-2.3-0.5l-2.8-0.3l-2.6-0.1h-2.9l-2.5,0.3l-2.8,0.5l-2.1,0.5l-2.3,0.8l-2.3,1l-2.1,1.1l-2.8,2l-1.7,1.4
	l-1.5,1.5l-1.5,1.7l-1.7,2.3l-1.4,2.3l-0.8,1.7l-0.8,1.7l-0.7,1.4l-0.8,2.6l-0.3,2v1.5l-0.1,3.2v3.2l0.1,1.1L384.8,345.1z
	 M398.3,367.5c0.7-0.8,1-1.7,1-2.8C399.5,366,399.1,367,398.3,367.5z"/>
<polygon class="st7" points="372.1,237.9 368.6,237.9 368.6,243 371.3,243 371.3,245.4 368.6,245.4 368.6,247 368.5,247 
	368.5,247.4 368,247.4 368,252.9 368.5,252.9 368.5,253.5 368.6,253.5 368.6,254.1 389.1,254.1 389.1,234.4 372.1,234.4 "/>
<polygon class="st7" points="393.4,366.7 391,364.2 388.4,364.2 388.4,373.5 398.8,373.5 398.8,370.5 397.2,369.5 397.3,369.2 
	393.5,366.3 "/>
<polygon class="st7" points="442,316.2 441.4,316.2 441.4,318.3 442.1,319.2 443.5,320.7 444.3,321.7 445.2,323.3 446.4,325.1 
	448.5,325.1 448.5,316.2 447.8,316.2 447.8,315.7 442,315.7 "/>
<polygon class="st6" points="260.2,620.3 260.6,620.3 260.6,620.8 266.3,620.8 266.3,620.3 266.4,620.3 266.4,619.3 270.2,619.3 
	301,625 302.6,624.8 302.6,558.3 257.1,558.3 257.1,573 258.2,573 258.2,575.5 257.1,575.5 257.1,619.3 260.2,619.3 "/>
<polygon class="st8" points="216.4,534.7 216.4,534.3 216.4,534.3 210.6,534.3 210.6,534.7 "/>
<polygon class="st8" points="216.4,523.8 216.4,523.8 216.4,523.5 216.4,523.5 210.6,523.5 210.6,523.8 "/>
<rect x="223.4" y="531.3" class="st8" width="0.3" height="5.7"/>
<g>
	<polygon class="st8" points="216.4,523.8 216.4,523.8 216.4,523.5 216.4,523.5 210.6,523.5 210.6,523.8 	"/>
	<rect x="223.4" y="531.5" class="st8" width="0.3" height="5.7"/>
	<polygon class="st8" points="216.4,534.7 216.4,534.5 216.4,534.5 210.6,534.5 210.6,535 216.4,535 	"/>
	<polyline class="st7" points="210.6,535 210.6,537 218,537 218,537.5 223.8,537.5 223.8,537 223.8,537 231.2,537 231.2,535 
		231.4,535 231.4,535 231.9,535 231.9,523.5 231.4,523.5 231.4,523.3 231.2,523.3 231.2,521.5 210.6,521.5 210.6,523.3 210.6,534.7 
			"/>
	<path class="st7" d="M210.6,523.5"/>
	<path class="st7" d="M210.8,529"/>
	<path class="st7" d="M216.4,523.5L216.4,523.5L216.4,523.5L216.4,523.5"/>
</g>
<path class="st7" d="M223.8,531.3c-3.2,0-5.7,2.6-5.7,5.7C218,533.7,220.6,531.3,223.8,531.3z"/>
<polygon class="st6" points="215.5,620.3 215.6,620.3 215.6,620.5 221.2,620.5 221.2,620.3 221.5,620.3 221.5,619.3 225.1,619.3 
	254.3,624.8 256,624.8 256,557 217,557 217,559.5 211.7,559.5 211.7,619.3 215.5,619.3 "/>
<path class="st7" d="M186.9,523.5L186.9,523.5v-0.3l0,0l0,0l0,0h5v-0.5h-1.4v-1.4h-26.4v12.2h-6.6l-3.2,0.3l0.3,2.3l-2.9,0.5
	l-0.5-2.5l-1.7,0.1v4.2H192v-3.2h-2.8v-2.9h2.8v-3.9h0.7C189.6,529,187.1,526.5,186.9,523.5z"/>
<polygon class="st7" points="193.5,523.7 193.5,524 192.5,524 192.5,529.8 193.5,529.8 193.5,539.3 129.4,539.3 129.4,543.8 
	124.7,543.8 124.7,544 124.7,544.3 124.6,544.3 124.6,549.7 125,549.7 125,550.3 125.9,550.3 125.9,552 129.2,552 129.4,552 
	129.2,557.5 139.1,607 139.1,618.8 209.2,618.8 209.2,524.1 209.2,523.5 "/>
<path class="st7" d="M437.7,380.7L437.7,380.7c-0.3-0.8-0.5-1.7-0.5-2.6l0,0h-23.1v0.7h-3.8v-0.7h-34.8v2.6H375v5.7h0.5v6h-5.7v26.7
	h3.8v3.6h-3.8v28.7h5.7v6.6H375v5.7h0.5v1H444v-0.1h3.2v-16.8h-1.1v-0.1l1.1-6.3V423H444v-3.9h3.2V403h-1.1v-0.1l1.1-6.3v-18.3h-4.5
	l-4.7,2.8L437.7,380.7z"/>
<polygon class="st7" points="387.4,483 387.4,486.5 397.6,486.5 397.6,469 387.3,469 387.3,483 "/>
<polygon class="st7" points="441,366 440.2,367 438.9,368.1 437.5,369.2 436.6,370 434.9,371 434.9,375 438.4,375 438.4,375.5 
	443.9,375.5 443.9,375 445.3,375 445.3,372.5 448.4,372.5 448.4,364.5 442.1,364.5 "/>
<polygon class="st6" points="436,562.7 435.7,562.7 435.7,563 431.3,563 431.3,557.8 400.1,558 400.1,557.8 382.8,557.8 
	373.9,608.5 382,609.7 382.5,606.8 434.5,616 433.9,618.8 444.5,620.5 444.5,563 441.4,563 441.4,562.7 441.2,562.7 441.2,562.7 "/>
<polygon class="st6" points="400.1,533.5 403.6,533.5 403.6,535.8 433.6,533.3 433.6,530.7 433.9,530.7 433.9,530.3 434.2,530.3 
	434.2,524.7 433.9,524.7 433.9,524.3 433.6,524.3 433.6,523 443.8,523 443.8,522.3 447.8,522.3 447.8,514.7 445.6,514.7 
	445.6,469.5 400.1,469.3 "/>
<polygon class="st6" points="308.9,620.3 309.2,620.3 314.8,620.3 315.1,620.3 315.1,619.3 318.5,619.3 347.7,624.8 351.1,624.8 
	351.1,558.3 303.2,558.3 303.2,601 304.3,601 304.3,605 303.2,605 303.2,619.3 308.9,619.3 "/>
<polygon class="st7" points="218,538.5 218,538.5 210.8,538.5 210.8,555.8 236.2,555.8 236.2,543.8 231.2,543.8 231.2,538.5 
	223.8,538.5 223.8,538 218,538 "/>
<polygon class="st9" points="430.4,621.3 431,618 385,610 384.3,613.3 369.9,610.7 379.7,554.1 433.9,554.1 433.9,560 439.1,560 
	439.1,559.5 439.2,559.5 439.2,559.1 444.9,559.1 444.9,559.5 445.3,559.5 445.3,560 447.4,560 447.4,624.1 "/>
<polygon class="st10" points="492.8,562.8 453.4,558.8 442.8,556 441.8,531.5 492.5,530.3 493.1,562.8 "/>
<rect x="468.7" y="544.8" class="st11" width="1.4" height="8.2"/>
<rect x="471.2" y="544.8" class="st11" width="1.4" height="8.2"/>
<rect x="473.6" y="544.8" class="st11" width="1.4" height="8.2"/>
<rect x="476.1" y="544.8" class="st11" width="1.4" height="8.2"/>
<rect x="478.4" y="544.8" class="st11" width="1.4" height="8.2"/>
<rect x="481.1" y="544.8" class="st11" width="1.4" height="8.2"/>
<rect x="483.5" y="544.8" class="st11" width="1.4" height="8.2"/>
<rect x="486" y="544.8" class="st11" width="1.4" height="8.2"/>
<rect x="468.7" y="536.1" class="st11" width="1.4" height="8.2"/>
<rect x="471.2" y="536.1" class="st11" width="1.4" height="8.2"/>
<rect x="473.6" y="536.1" class="st11" width="1.4" height="8.2"/>
<rect x="476.1" y="536.1" class="st11" width="1.4" height="8.2"/>
<rect x="478.4" y="536.1" class="st11" width="1.4" height="8.2"/>
<rect x="481.1" y="536.1" class="st11" width="1.4" height="8.2"/>
<rect x="483.5" y="536.1" class="st11" width="1.4" height="8.2"/>
<rect x="486" y="536.1" class="st11" width="1.4" height="8.2"/>
<rect x="454.1" y="544.8" class="st11" width="1.4" height="8.2"/>
<rect x="456.3" y="544.8" class="st11" width="1.4" height="8.2"/>
<rect x="458.8" y="544.8" class="st11" width="1.4" height="8.2"/>
<rect x="461.5" y="544.8" class="st11" width="1.4" height="8.2"/>
<rect x="463.7" y="544.8" class="st11" width="1.4" height="8.2"/>
<rect x="466.2" y="544.8" class="st11" width="1.4" height="8.2"/>
<rect x="454.1" y="536.1" class="st11" width="1.4" height="8.2"/>
<rect x="456.3" y="536.1" class="st11" width="1.4" height="8.2"/>
<rect x="458.8" y="536.1" class="st11" width="1.4" height="8.2"/>
<rect x="461.5" y="536.1" class="st11" width="1.4" height="8.2"/>
<rect x="463.7" y="536.1" class="st11" width="1.4" height="8.2"/>
<rect x="466.2" y="536.1" class="st11" width="1.4" height="8.2"/>
<g>
	<g>
		<path class="st1" d="M350.7,161.2v4.5h-2.6v13.7v13.7h2.6v4.5h-2.6v-1.1h-13.7v-17v-17h13.7v-1.1L350.7,161.2 M356.9,155h-6.3H348
			h-6.2v1.1h-7.4h-6.1v6.3v17v17v6.3h6.3h7.4v1.1h6.3h2.6h6.3v-6.3V193v-6.3h-2.6v-7.5v-7.4h2.6v-6.1v-4.5v-6.3L356.9,155L356.9,155
			z"/>
	</g>
</g>
<g>
	<g>
		<path class="st1" d="M191,520.8v1.4h1.5v0.5h0.7h0.3h0.8v-0.3h12.2V521h11.4l0,0h13.5v2h0.3v0.3h0.5V535h-0.5v0.3h-0.3v2v1.1v5.1
			h5v12.4l19.8-0.1v1.4h1.7v-0.1H299l0,0h6.3l0,0h46v68.8h-3.2l-29.9-6h-3.6v1h-0.3v0.3h-6v-0.3H308v-1h-3.3l0,0H303v6h-1.5l-29.9-6
			h-3.8v1l0,0v0.3h-6v-0.3h-0.3v-1h-3.3l0,0h-1.7v6H255l-29.9-6h-3.6v1h-0.1v0.3h-6v-0.3h-0.3v-1h-3.8l0,0h-4.7v0.5h-68.5v-12.2
			l-10-51.2v-4.7h-2.3v-2h-1V550h-0.7v-3.5h-0.5V522l0,0v-0.1H162v0.1h2v-1.1L191,520.8 M196,515.8h-4.7h-27.6H159v1h-35.3H119v0.1
			l0,0v4.7v24.5v4.7h0.5v3.5h0.5v0.3h1v2h2.3v0.3v0.5l10,50.9v11.5v4.7h4.6h68.4h3.3v0.7h0.3v0.3h4.7h6.1h4.7v-0.3h0.5v-0.7
			l27.8,5.6h0.5h0.5h1.5h4.7v-4.3h0.3h6h4.7v-0.3h0.3v-1l28,5.6h0.5h0.5h1.5h4.7v-4.3h0.3h6h4.7v-0.3h0.3v-1l27.8,5.6h0.5h0.5h3.5
			h4.7v-4.7v-68.8v-4.7H351h-41.1l0,0h-4.7h-6.3h-4.7l0,0h-33.3v-1.1h-5l-15,0.1v-7.5v-4.7h-3.5v-3.6v-11.8v-4.7h-0.5v-0.3h-0.3v-2
			h-4.8H223l0,0h-5h-11.4h-4.7v1.4h-4.2v-0.1h-1.5L196,515.8L196,515.8z"/>
	</g>
</g>
<g>
	<path class="st1" d="M431.7,162.2c7.2,0,13.2,6,13.2,13.2v0.1c0,6.4-4.6,11.7-10.9,13.1l-35.5,6.4v-32.6h33.1 M431.7,156.1h-33.1
		h-6.3v6.3v32.5v7.4l7.2-1.4l35.2-6.6c9.3-1.5,15.9-9.6,15.9-18.8v-0.1C450.7,164.7,442,156.1,431.7,156.1L431.7,156.1z"/>
</g>
<path class="st6" d="M220.9,620.5h-6v0.5h0.3v6c3.2-0.1,5.6-2.8,5.6-6l0,0L220.9,620.5L220.9,620.5z"/>
<path class="st6" d="M267.7,620.8h-6v0.5h0.3v6c3.2-0.1,5.6-2.8,5.6-6l0,0L267.7,620.8L267.7,620.8z"/>
<path class="st6" d="M314.3,620.3h-6v0.5h0.3v6c3.2-0.1,5.6-2.8,5.6-6l0,0L314.3,620.3L314.3,620.3z"/>
<path class="st6" d="M436.3,562.7h6v-0.5H442v-6c-3.2,0.1-5.6,2.8-5.6,6l0,0v0.5H436.3z"/>
<path class="st6" d="M439.2,524.8h-6v0.5h0.3v6c3.2-0.1,5.6-2.8,5.6-6l0,0v-0.5H439.2z"/>
<path class="st4" d="M210.6,529.7v5.1h6c-0.1-2.6-2-4.7-4.5-5.1c2.6-0.3,4.3-2.6,4.5-5.1h-6V529.7L210.6,529.7L210.6,529.7
	L210.6,529.7L210.6,529.7z"/>
<path class="st4" d="M210.6,547v5.1h6c-0.1-2.6-2-4.7-4.5-5.1c2.6-0.3,4.3-2.6,4.5-5.1h-6V547L210.6,547L210.6,547L210.6,547
	L210.6,547z"/>
<path class="st4" d="M402.4,235h-0.3v0.3h-5.6c0.1,2.9,2.6,5.1,5.6,5.1h0.3V235L402.4,235z"/>
<path class="st4" d="M425.4,234.7h0.3v0.3h5.3c-0.1,2.9-2.6,5.1-5.3,5.1h-0.3V234.7L425.4,234.7z"/>
<g>
	<path class="st6" d="M433.6,247.4c-0.7,0-1.1-0.7-1.1-1.1c0-0.7,0.5-1.1,1.1-1.1s1.1,0.7,1.1,1.1S434.2,247.4,433.6,247.4z"/>
	<path class="st6" d="M434.2,247.9c1.1,0,1.7,0.8,2,1.4l1,3.6c0.1,0.3,0,0.7-0.1,0.7s-0.5,0-0.7-0.3l-0.8-3.2c0-0.1-0.1-0.3-0.3-0.1
		c-0.1,0-0.1,0.1-0.1,0.3l1.7,5.7h-2c0,2.3,0,4.3,0,4.3c0,0.7-0.3,0.7-0.5,0.7c-0.1,0-0.5,0-0.5-0.7s0-4.2,0-4.2
		c0-0.1,0-0.1-0.1-0.1s-0.1,0-0.1,0.1c0,0,0,3.6,0,4.2c0,0.7-0.3,0.7-0.5,0.7s-0.5,0-0.5-0.7c0,0,0-2.1,0-4.3h-2l1.7-5.7
		c0-0.1,0-0.3-0.1-0.3s-0.3,0-0.3,0.1l-0.8,3.2c-0.1,0.3-0.3,0.5-0.7,0.3c-0.1,0-0.3-0.3-0.1-0.7l1-3.6c0.1-0.5,0.5-1.4,2-1.4H434.2
		z"/>
</g>
<g>
	<g>
		<path class="st6" d="M403.4,248.5c-0.7,0-1.4-0.7-1.4-1.4s0.7-1.4,1.4-1.4s1.4,0.7,1.4,1.4C404.8,248.1,404.3,248.5,403.4,248.5z"
			/>
	</g>
	<path class="st6" d="M401.2,251.9v2.9c0,0.5-0.1,0.7-0.5,0.7c-0.3,0-0.5-0.1-0.5-0.7v-3.6c0-1.5,0.8-2.1,2.1-2.1h2.3
		c1.4,0,2.1,0.3,2.1,2.1v3.6c0,0.5-0.1,0.7-0.5,0.7c-0.3,0-0.5-0.1-0.5-0.7v-2.9c0-0.3-0.1-0.3-0.1-0.3s-0.3,0-0.3,0.3s0,9.7,0,9.7
		c0,0.7-0.5,0.7-0.7,0.7c-0.1,0-0.7,0-0.7-0.7s0-5.7,0-5.7c0-0.1,0-0.3-0.1-0.3s-0.1,0-0.1,0.3c0,0,0,5,0,5.7s-0.5,0.7-0.7,0.7
		s-0.7,0-0.7-0.7c0,0,0-9.3,0-9.7s-0.1-0.3-0.3-0.3S401.2,251.7,401.2,251.9z"/>
</g>
<text transform="matrix(1 0 0 1 414.6821 502.4508)" class="st4 st2 st12">1125</text>
<text transform="matrix(1 0 0 1 403.1078 589.6998)" class="st4 st2 st12">1121</text>
<text transform="matrix(1 0 0 1 319.6303 590.9274)" class="st4 st2 st12">1134</text>
<text transform="matrix(1 0 0 1 271.228 590.9274)" class="st4 st2 st12">1132</text>
<text transform="matrix(1 0 0 1 224.9316 590.9274)" class="st4 st2 st12">1130</text>
<polygon class="st11" points="422.1,175.7 421.9,186.4 420.4,186.4 420.6,175.7 "/>
<polygon class="st11" points="424.6,175.7 424.2,186 422.9,186.1 423,175.7 "/>
<polygon class="st11" points="427,175.7 426.7,185.7 425.4,185.7 425.5,175.7 "/>
<polygon class="st11" points="429.5,175.7 429.2,185.4 427.6,185.4 428.2,175.7 "/>
<polygon class="st11" points="432,175.7 431.7,185 430.1,185.2 430.4,175.7 "/>
<polygon class="st11" points="434.2,175.7 434.1,184.5 432.6,184.9 432.9,175.7 "/>
<polygon class="st11" points="436.8,175.7 436.4,184.2 434.9,184.4 435.4,175.7 "/>
<polygon class="st11" points="439.3,175.7 439.3,183.9 437.4,183.9 437.8,175.7 "/>
<rect x="420.6" y="167.1" class="st11" width="1.4" height="8.2"/>
<rect x="423" y="167.1" class="st11" width="1.4" height="8.2"/>
<rect x="425.5" y="167.1" class="st11" width="1.4" height="8.2"/>
<rect x="428.2" y="167.1" class="st11" width="1.4" height="8.2"/>
<rect x="430.4" y="167.1" class="st11" width="1.4" height="8.2"/>
<rect x="432.9" y="167.1" class="st11" width="1.4" height="8.2"/>
<rect x="435.4" y="167.1" class="st11" width="1.4" height="8.2"/>
<rect x="437.8" y="167.1" class="st11" width="1.4" height="8.2"/>
<polygon class="st11" points="402.3,175.7 402.3,189.1 400.8,189.2 400.8,175.7 "/>
<polygon class="st11" points="404.8,175.7 404.8,188.9 403.4,188.9 403.4,175.7 "/>
<polygon class="st11" points="407.2,175.7 407.2,188.4 405.8,188.7 405.8,175.7 "/>
<polygon class="st11" points="409.7,175.7 409.5,187.9 408.2,188.1 408.2,175.7 "/>
<polygon class="st11" points="412.2,175.7 412,187.7 410.7,187.9 410.8,175.7 "/>
<polygon class="st11" points="414.7,175.7 414.4,187.4 413,187.4 413.2,175.7 "/>
<polygon class="st11" points="416.9,175.7 416.8,187 415.5,187.1 415.7,175.7 "/>
<polygon class="st11" points="419.6,175.7 419.4,186.7 417.9,186.9 418.3,175.7 "/>
<rect x="400.8" y="167.1" class="st11" width="1.4" height="8.2"/>
<rect x="403.4" y="167.1" class="st11" width="1.4" height="8.2"/>
<rect x="405.8" y="167.1" class="st11" width="1.4" height="8.2"/>
<rect x="408.2" y="167.1" class="st11" width="1.4" height="8.2"/>
<rect x="410.8" y="167.1" class="st11" width="1.4" height="8.2"/>
<rect x="413.2" y="167.1" class="st11" width="1.4" height="8.2"/>
<rect x="415.7" y="167.1" class="st11" width="1.4" height="8.2"/>
<rect x="418.3" y="167.1" class="st11" width="1.4" height="8.2"/>
<text transform="matrix(1 0 0 1 338.1045 190.4596)" class="st4 st13 st14">E</text>
<polygon class="st6" points="373.9,468.7 373.9,484.3 386.4,484.3 386.4,481.2 386.4,480 386.4,473.7 386.4,468.6 "/>
<text transform="matrix(1 0 0 1 376.7712 479.1262)" class="st4 st13 st14">E</text>
<polygon class="st6" points="223.3,639.5 212.1,639.5 217.6,629.8 "/>
<polygon class="st6" points="270.5,639.5 259.2,639.5 264.6,629.8 "/>
<polygon class="st6" points="317.8,639.5 306.4,639.5 312,629.8 "/>
<polygon class="st6" points="435.6,545.7 446.7,545.3 441,555.3 "/>
<polygon class="st6" points="447.4,543 442.5,532.8 453.7,533.5 "/>
<rect x="139.9" y="523.5" class="st11" width="1.4" height="8.2"/>
<rect x="142.4" y="523.5" class="st11" width="1.4" height="8.2"/>
<rect x="144.8" y="523.5" class="st11" width="1.4" height="8.2"/>
<rect x="147.3" y="523.5" class="st11" width="1.4" height="8.2"/>
<rect x="149.6" y="523.5" class="st11" width="1.4" height="8.2"/>
<rect x="152.3" y="523.5" class="st11" width="1.4" height="8.2"/>
<rect x="154.7" y="523.5" class="st11" width="1.4" height="8.2"/>
<rect x="157.2" y="523.5" class="st11" width="1.4" height="8.2"/>
<rect x="125.3" y="523.5" class="st11" width="1.4" height="8.2"/>
<rect x="127.5" y="523.5" class="st11" width="1.4" height="8.2"/>
<rect x="130" y="523.5" class="st11" width="1.4" height="8.2"/>
<rect x="132.7" y="523.5" class="st11" width="1.4" height="8.2"/>
<rect x="134.9" y="523.5" class="st11" width="1.4" height="8.2"/>
<rect x="137.4" y="523.5" class="st11" width="1.4" height="8.2"/>
</svg>
