<?xml version="1.0" encoding="UTF-8" standalone="no"?>
<!-- Generator: Adobe Illustrator 19.1.0, SVG Export Plug-In . SVG Version: 6.00 Build 0)  -->

<svg
   xmlns:dc="http://purl.org/dc/elements/1.1/"
   xmlns:cc="http://creativecommons.org/ns#"
   xmlns:rdf="http://www.w3.org/1999/02/22-rdf-syntax-ns#"
   xmlns:svg="http://www.w3.org/2000/svg"
   xmlns="http://www.w3.org/2000/svg"
   xmlns:sodipodi="http://sodipodi.sourceforge.net/DTD/sodipodi-0.dtd"
   xmlns:inkscape="http://www.inkscape.org/namespaces/inkscape"
   version="1.1"
   id="Layer_1"
   x="0px"
   y="0px"
   viewBox="0 0 373.39999 542"
   xml:space="preserve"
   inkscape:version="0.91 r13725"
   sodipodi:docname="ints_level2.svg"
   width="373.39999"
   height="542"><metadata
     id="metadata5552"><rdf:RDF><cc:Work
         rdf:about=""><dc:format>image/svg+xml</dc:format><dc:type
           rdf:resource="http://purl.org/dc/dcmitype/StillImage" /><dc:title></dc:title></cc:Work></rdf:RDF></metadata><defs
     id="defs5550" /><sodipodi:namedview
     pagecolor="#ffffff"
     bordercolor="#666666"
     borderopacity="1"
     objecttolerance="10"
     gridtolerance="10"
     guidetolerance="10"
     inkscape:pageopacity="0"
     inkscape:pageshadow="2"
     inkscape:window-width="1596"
     inkscape:window-height="861"
     id="namedview5548"
     showgrid="false"
     fit-margin-top="0"
     fit-margin-left="0"
     fit-margin-right="0"
     fit-margin-bottom="0"
     inkscape:zoom="0.2979798"
     inkscape:cx="186.4"
     inkscape:cy="271.9"
     inkscape:window-x="0"
     inkscape:window-y="18"
     inkscape:window-maximized="0"
     inkscape:current-layer="Layer_1" /><style
     type="text/css"
     id="style5110">
	.st0{opacity:0.62;fill:#CCCBCB;enable-background:new    ;}
	.st1{fill:#989798;}
	.st2{opacity:0.5;}
	.st3{font-family:'ArialMT';}
	.st4{font-size:15.3352px;}
	.st5{fill:#FFFFFF;}
	.st6{font-size:49.0728px;}
	.st7{opacity:0.25;fill:#989798;enable-background:new    ;}
	.st8{opacity:0.6;fill:#4A6DB4;enable-background:new    ;}
	.st9{fill:#4A6DB4;}
	.st10{font-family:'MyriadPro-Regular';}
	.st11{font-size:10.8322px;}
	.st12{fill:#CCCBCB;}
	.st13{font-size:11.0413px;}
	.st14{fill:#4A6DB4;stroke:#FFFFFF;stroke-miterlimit:10;}
</style><g
     id="g5554"
     transform="translate(-119.6,-125.9)"><rect
       id="rect5112"
       height="28.1"
       width="237.89999"
       class="st0"
       y="554"
       x="205.3"
       style="opacity:0.62000002;fill:#cccbcb;enable-background:new" /><path
       id="path5114"
       d="m 362,254.3 0,0 c 0.4,-2.9 2.9,-5.3 5.8,-6 0,0 0,0 0.1,0 l 0.1,0 c 0.1,0 0.1,0 0.3,0 0.1,0 0.1,0 0.1,0.1 l 0,0.1 0,5.7 0,0 0,-12.8 c 0,-0.1 0.1,-0.1 0.1,-0.1 l 31.6,0 -0.1,-58.2 -31.6,0 c -0.1,0 -0.1,-0.1 -0.1,-0.1 l 0,-57.1 -14.6,0 0,62.2 0,7.5 0,10.4 0,7.8 0,40.7 3.5,0 4.7,0 0,-0.2 0.1,0 z"
       class="st0"
       inkscape:connector-curvature="0"
       style="opacity:0.62000002;fill:#cccbcb;enable-background:new" /><g
       id="g5116"><g
         id="g5118"><path
           id="path5120"
           d="m 431.5,576.5 0,3.9 0.7,0 0,6.4 -0.1,0 0,1.5 16.8,0 0,0.3 0,0.3 0.7,0 0,2.6 2,0 0,68.4 -45.4,-7.8 0.7,-3.6 -5.7,-1 -0.7,3.5 -31.5,-5.6 0,2.1 -12,0 0,-1.5 -1.4,0 -2.3,14.2 -46.8,0 -2.9,0 -44.8,0 -2.9,0 -45.5,0 0,-2.9 -1,0 0,-59.2 0,-6.6 5.3,0 0,-2.9 33.3,0 0,-1 0.3,0 0,-0.3 6,0 0,0.3 0.3,0 0,1 1,0 2.1,0 13.4,0 0,-1 0,-1 0,-6.6 0,-3.3 15,0 0,0.5 0.3,0 0.3,0 0,-0.5 18,0 0,11.3 2,0 0,-0.3 0.5,0 6,0 0.3,0 0,1.1 2.6,0 0,1.1 21.4,0 0,-1.1 15.3,0 1.5,-1 0,-1 -1.7,0 0,-0.3 0,-6 0,-0.3 1,0 0,-3.3 18.6,0 0,-0.7 28.7,0 0,2.6 1,0 2.1,0 1,0 0,-2.6 26.5,0.3 m 6.4,-6.2 -6.3,0 -23.7,0 -6.3,0 -28.6,0 -6.1,0 0,0.7 -12.2,0 -6.3,0 0,3.3 -1,0 0,6.3 0,0.3 0,2.4 -9.2,0 -6.1,0 0,1.1 -9.2,0 0,-1.1 -2.6,0 0,-1.1 -6.1,0 -0.3,0 -2.5,0 0,-4.6 0,-6.3 -6.4,0 -12.8,0 -6.3,0 -15,0 -6.3,0 0,6.3 0,3.3 0,2.6 -4.3,0 0,-1.1 -0.3,0 0,-0.3 -6.3,0 -5.6,0 -6.3,0 0,0.3 -0.3,0 0,1 -27.2,0 -6.3,0 0,2.9 -5.3,0 0,6.1 0,6.6 0,0 0,0 0,59.2 0,6.3 1,0 0,2.9 6.3,0 45.7,0 2.9,0 44.8,0 2.9,0 46.8,0 5.1,0 0.8,-5.1 1.1,-7.8 8.2,0 6.3,0 0,-0.7 24.1,4.2 0,0 6.1,1 45.4,7.8 7.2,1.1 0,-7.2 0,-68.4 0,-6.3 -2,0 0,-2.6 -0.7,0 0,-0.5 -6.3,0 -10.4,0 0,-2 0,-6.3 -0.7,0 0.6,-4.3 0,0 z"
           class="st1"
           inkscape:connector-curvature="0"
           style="fill:#989798" /></g></g><g
       id="g5122"
       class="st2"
       style="opacity:0.5"><g
         id="g5124"><text
           id="text5126"
           class="st1 st3 st4"
           transform="translate(193.418,155.9693)"
           style="font-size:15.33520031px;font-family:ArialMT;fill:#989798">Level </text>
</g><circle
         id="circle5128"
         r="25.9"
         cy="153.5"
         cx="254.7"
         class="st1"
         style="fill:#989798" /><text
         id="text5130"
         class="st5 st3 st6"
         transform="translate(241.9375,171.6246)"
         style="font-size:49.07279968px;font-family:ArialMT;fill:#ffffff">2</text>
</g><polygon
       id="polygon5132"
       points="442.1,556 492.7,554.8 493,587.5 492.9,587.5 453.5,583.5 442.7,580.5 "
       class="st7"
       style="opacity:0.25;fill:#989798;enable-background:new" /><rect
       id="rect5134"
       height="8.1999998"
       width="1.4"
       class="st8"
       y="569.5"
       x="468.79999"
       style="opacity:0.6;fill:#4a6db4;enable-background:new" /><rect
       id="rect5136"
       height="8.1999998"
       width="1.4"
       class="st8"
       y="569.5"
       x="471.29999"
       style="opacity:0.6;fill:#4a6db4;enable-background:new" /><rect
       id="rect5138"
       height="8.1999998"
       width="1.4"
       class="st8"
       y="569.5"
       x="473.5"
       style="opacity:0.6;fill:#4a6db4;enable-background:new" /><rect
       id="rect5140"
       height="8.1999998"
       width="1.4"
       class="st8"
       y="569.5"
       x="476.20001"
       style="opacity:0.6;fill:#4a6db4;enable-background:new" /><rect
       id="rect5142"
       height="8.1999998"
       width="1.4"
       class="st8"
       y="569.5"
       x="478.70001"
       style="opacity:0.6;fill:#4a6db4;enable-background:new" /><rect
       id="rect5144"
       height="8.1999998"
       width="1.4"
       class="st8"
       y="569.5"
       x="481.20001"
       style="opacity:0.6;fill:#4a6db4;enable-background:new" /><rect
       id="rect5146"
       height="8.1999998"
       width="1.4"
       class="st8"
       y="569.5"
       x="483.39999"
       style="opacity:0.6;fill:#4a6db4;enable-background:new" /><rect
       id="rect5148"
       height="8.1999998"
       width="1.4"
       class="st8"
       y="569.5"
       x="486.10001"
       style="opacity:0.6;fill:#4a6db4;enable-background:new" /><rect
       id="rect5150"
       height="8.1999998"
       width="1.4"
       class="st8"
       y="560.70001"
       x="468.79999"
       style="opacity:0.6;fill:#4a6db4;enable-background:new" /><rect
       id="rect5152"
       height="8.1999998"
       width="1.4"
       class="st8"
       y="560.70001"
       x="471.29999"
       style="opacity:0.6;fill:#4a6db4;enable-background:new" /><rect
       id="rect5154"
       height="8.1999998"
       width="1.4"
       class="st8"
       y="560.70001"
       x="473.5"
       style="opacity:0.6;fill:#4a6db4;enable-background:new" /><rect
       id="rect5156"
       height="8.1999998"
       width="1.4"
       class="st8"
       y="560.70001"
       x="476.20001"
       style="opacity:0.6;fill:#4a6db4;enable-background:new" /><rect
       id="rect5158"
       height="8.1999998"
       width="1.4"
       class="st8"
       y="560.70001"
       x="478.70001"
       style="opacity:0.6;fill:#4a6db4;enable-background:new" /><rect
       id="rect5160"
       height="8.1999998"
       width="1.4"
       class="st8"
       y="560.70001"
       x="481.20001"
       style="opacity:0.6;fill:#4a6db4;enable-background:new" /><rect
       id="rect5162"
       height="8.1999998"
       width="1.4"
       class="st8"
       y="560.70001"
       x="483.39999"
       style="opacity:0.6;fill:#4a6db4;enable-background:new" /><rect
       id="rect5164"
       height="8.1999998"
       width="1.4"
       class="st8"
       y="560.70001"
       x="486.10001"
       style="opacity:0.6;fill:#4a6db4;enable-background:new" /><rect
       id="rect5166"
       height="8.1999998"
       width="1.4"
       class="st8"
       y="569.5"
       x="458.89999"
       style="opacity:0.6;fill:#4a6db4;enable-background:new" /><rect
       id="rect5168"
       height="8.1999998"
       width="1.4"
       class="st8"
       y="569.5"
       x="461.39999"
       style="opacity:0.6;fill:#4a6db4;enable-background:new" /><rect
       id="rect5170"
       height="8.1999998"
       width="1.4"
       class="st8"
       y="569.5"
       x="463.89999"
       style="opacity:0.6;fill:#4a6db4;enable-background:new" /><rect
       id="rect5172"
       height="8.1999998"
       width="1.4"
       class="st8"
       y="569.5"
       x="466.29999"
       style="opacity:0.6;fill:#4a6db4;enable-background:new" /><rect
       id="rect5174"
       height="8.1999998"
       width="1.4"
       class="st8"
       y="560.70001"
       x="458.89999"
       style="opacity:0.6;fill:#4a6db4;enable-background:new" /><rect
       id="rect5176"
       height="8.1999998"
       width="1.4"
       class="st8"
       y="560.70001"
       x="461.39999"
       style="opacity:0.6;fill:#4a6db4;enable-background:new" /><rect
       id="rect5178"
       height="8.1999998"
       width="1.4"
       class="st8"
       y="560.70001"
       x="463.89999"
       style="opacity:0.6;fill:#4a6db4;enable-background:new" /><rect
       id="rect5180"
       height="8.1999998"
       width="1.4"
       class="st8"
       y="560.70001"
       x="466.29999"
       style="opacity:0.6;fill:#4a6db4;enable-background:new" /><polygon
       id="polygon5182"
       points="349.6,214.4 349.6,215.9 352.3,215.9 352.3,220.4 349.6,220.4 349.6,219.2 336,219.2 336,202.2 336,185.4 349.6,185.4 349.6,184 352.3,184 352.3,188.4 349.6,188.4 349.6,202.2 349.6,207.7 351.3,207.7 351.3,207.2 353.6,207.2 353.6,197.2 351.1,197.2 351.1,189.7 353.6,189.7 353.6,182.7 351.6,182.7 333.5,182.7 333.5,221.7 351.6,221.7 353.6,221.7 353.6,214.9 351.3,214.9 351.3,214.4 "
       class="st9"
       style="fill:#4a6db4" /><g
       id="g5184"><g
         id="g5186"><path
           id="path5188"
           d="m 352.3,184 0,4.5 -2.6,0 0,13.7 0,13.7 2.6,0 0,4.5 -2.6,0 0,-1.1 -13.7,0 0,-17 0,-17 13.7,0 0,-1.1 2.6,0 m 6.1,-6.2 -6.3,0 -2.6,0 -6.3,0 0,1.1 -7.4,0 -6.3,0 0,6.3 0,17 0,17 0,6.3 6.3,0 7.4,0 0,1.1 6.3,0 2.6,0 6.3,0 0,-6.3 0,-4.5 0,-6.3 -2.6,0 0,-7.5 0,-7.5 2.6,0 0,-6.1 0,-4.5 0,-6.1 0,0 z"
           class="st1"
           inkscape:connector-curvature="0"
           style="fill:#989798" /></g></g><g
       id="g5190"><path
         id="path5192"
         d="m 432.9,185.2 c 7.2,0 13.2,6 13.2,13.2 l 0,0.1 c 0,6.4 -4.6,11.7 -10.9,13.1 l -35.2,6.6 0,-32.8 33,0 m -0.1,-6.5 -33.1,0 -6.3,0 0,6.3 0,32.6 0,7.4 7.2,-1.4 35.2,-6.6 c 9.3,-1.5 15.9,-9.6 15.9,-18.8 l 0,-0.1 c 0.1,-10.8 -8.4,-19.4 -18.9,-19.4 l 0,0 z"
         class="st1"
         inkscape:connector-curvature="0"
         style="fill:#989798" /></g><polygon
       id="polygon5194"
       points="422,198.7 423.4,198.7 423.3,209 421.9,209.4 "
       class="st8"
       style="opacity:0.6;fill:#4a6db4;enable-background:new" /><polygon
       id="polygon5196"
       points="424.5,198.7 425.8,198.7 425.6,208.9 424.2,208.9 "
       class="st8"
       style="opacity:0.6;fill:#4a6db4;enable-background:new" /><polygon
       id="polygon5198"
       points="426.9,198.7 428.4,198.7 428.1,208.5 426.6,208.7 "
       class="st8"
       style="opacity:0.6;fill:#4a6db4;enable-background:new" /><polygon
       id="polygon5200"
       points="429.4,198.7 430.9,198.7 430.5,208.1 429.1,208.2 "
       class="st8"
       style="opacity:0.6;fill:#4a6db4;enable-background:new" /><polygon
       id="polygon5202"
       points="431.9,198.7 433.2,198.7 433,207.9 431.5,207.9 "
       class="st8"
       style="opacity:0.6;fill:#4a6db4;enable-background:new" /><polygon
       id="polygon5204"
       points="434.4,198.7 435.8,198.7 435.5,207.5 434.1,207.7 "
       class="st8"
       style="opacity:0.6;fill:#4a6db4;enable-background:new" /><polygon
       id="polygon5206"
       points="436.8,198.7 438.3,198.7 438,207.1 436.3,207.2 "
       class="st8"
       style="opacity:0.6;fill:#4a6db4;enable-background:new" /><polygon
       id="polygon5208"
       points="439.3,198.7 440.6,198.7 440.6,206.9 439,206.9 "
       class="st8"
       style="opacity:0.6;fill:#4a6db4;enable-background:new" /><rect
       id="rect5210"
       height="8.1999998"
       width="1.4"
       class="st8"
       y="189.89999"
       x="422"
       style="opacity:0.6;fill:#4a6db4;enable-background:new" /><g
       id="g5212"><polygon
         id="polygon5214"
         points="388.4,508.9 388.4,507.7 388.4,501.4 388.4,496.3 375.9,496.4 375.9,512 388.4,512 "
         class="st9"
         style="fill:#4a6db4" /><text
         id="text5216"
         class="st5 st10 st11"
         transform="translate(378.7712,506.7928)"
         style="font-size:10.83220005px;font-family:MyriadPro-Regular;fill:#ffffff">E</text>
</g><rect
       id="rect5218"
       height="8.1999998"
       width="1.4"
       class="st8"
       y="189.89999"
       x="424.5"
       style="opacity:0.6;fill:#4a6db4;enable-background:new" /><rect
       id="rect5220"
       height="8.1999998"
       width="1.4"
       class="st8"
       y="189.89999"
       x="426.89999"
       style="opacity:0.6;fill:#4a6db4;enable-background:new" /><rect
       id="rect5222"
       height="8.1999998"
       width="1.4"
       class="st8"
       y="189.89999"
       x="429.39999"
       style="opacity:0.6;fill:#4a6db4;enable-background:new" /><rect
       id="rect5224"
       height="8.1999998"
       width="1.4"
       class="st8"
       y="189.89999"
       x="431.89999"
       style="opacity:0.6;fill:#4a6db4;enable-background:new" /><rect
       id="rect5226"
       height="8.1999998"
       width="1.4"
       class="st8"
       y="189.89999"
       x="434.39999"
       style="opacity:0.6;fill:#4a6db4;enable-background:new" /><rect
       id="rect5228"
       height="8.1999998"
       width="1.4"
       class="st8"
       y="189.89999"
       x="436.79999"
       style="opacity:0.6;fill:#4a6db4;enable-background:new" /><rect
       id="rect5230"
       height="8.1999998"
       width="1.4"
       class="st8"
       y="189.89999"
       x="439.29999"
       style="opacity:0.6;fill:#4a6db4;enable-background:new" /><polygon
       id="polygon5232"
       points="402.4,198.7 403.6,198.7 403.6,211.9 402.4,212.1 "
       class="st8"
       style="opacity:0.6;fill:#4a6db4;enable-background:new" /><polygon
       id="polygon5234"
       points="404.6,198.7 406.1,198.7 406.1,211.5 404.6,211.7 "
       class="st8"
       style="opacity:0.6;fill:#4a6db4;enable-background:new" /><polygon
       id="polygon5236"
       points="407.1,198.7 408.8,198.7 408.5,211.2 407.1,211.4 "
       class="st8"
       style="opacity:0.6;fill:#4a6db4;enable-background:new" /><polygon
       id="polygon5238"
       points="409.8,198.7 411.1,198.7 411,210.9 409.6,211.1 "
       class="st8"
       style="opacity:0.6;fill:#4a6db4;enable-background:new" /><polygon
       id="polygon5240"
       points="412.1,198.7 413.5,198.7 413.4,210.7 412,210.7 "
       class="st8"
       style="opacity:0.6;fill:#4a6db4;enable-background:new" /><polygon
       id="polygon5242"
       points="414.6,198.7 416.2,198.7 415.7,210 414.4,210.4 "
       class="st8"
       style="opacity:0.6;fill:#4a6db4;enable-background:new" /><polygon
       id="polygon5244"
       points="417.3,198.7 418.5,198.7 418.4,209.7 417,209.9 "
       class="st8"
       style="opacity:0.6;fill:#4a6db4;enable-background:new" /><polygon
       id="polygon5246"
       points="419.6,198.7 421,198.7 420.9,209.4 419.4,209.7 "
       class="st8"
       style="opacity:0.6;fill:#4a6db4;enable-background:new" /><rect
       id="rect5248"
       height="8.1999998"
       width="1.4"
       class="st8"
       y="189.89999"
       x="402.39999"
       style="opacity:0.6;fill:#4a6db4;enable-background:new" /><rect
       id="rect5250"
       height="8.1999998"
       width="1.4"
       class="st8"
       y="189.89999"
       x="404.60001"
       style="opacity:0.6;fill:#4a6db4;enable-background:new" /><rect
       id="rect5252"
       height="8.1999998"
       width="1.4"
       class="st8"
       y="189.89999"
       x="407.10001"
       style="opacity:0.6;fill:#4a6db4;enable-background:new" /><rect
       id="rect5254"
       height="8.1999998"
       width="1.4"
       class="st8"
       y="189.89999"
       x="409.79999"
       style="opacity:0.6;fill:#4a6db4;enable-background:new" /><rect
       id="rect5256"
       height="8.1999998"
       width="1.4"
       class="st8"
       y="189.89999"
       x="412.10001"
       style="opacity:0.6;fill:#4a6db4;enable-background:new" /><rect
       id="rect5258"
       height="8.1999998"
       width="1.4"
       class="st8"
       y="189.89999"
       x="414.60001"
       style="opacity:0.6;fill:#4a6db4;enable-background:new" /><rect
       id="rect5260"
       height="8.1999998"
       width="1.4"
       class="st8"
       y="189.89999"
       x="417.29999"
       style="opacity:0.6;fill:#4a6db4;enable-background:new" /><rect
       id="rect5262"
       height="8.1999998"
       width="1.4"
       class="st8"
       y="189.89999"
       x="419.60001"
       style="opacity:0.6;fill:#4a6db4;enable-background:new" /><g
       id="g5264"><polygon
         id="polygon5266"
         points="349.2,215.4 349.2,214.2 349.2,207.9 349.2,202.7 336.7,202.9 336.7,218.5 349.2,218.5 "
         class="st9"
         style="fill:#4a6db4" /><text
         id="text5268"
         class="st5 st10 st11"
         transform="translate(339.5049,213.2887)"
         style="font-size:10.83220005px;font-family:MyriadPro-Regular;fill:#ffffff">E</text>
</g><path
       id="path5270"
       d="m 431.3,581.3 0,0 0,0 c -0.2,0 -0.2,-0.1 -0.2,-0.1 l 0,-3.8 -25.3,0 0,2.3 c 0,0.1 -0.1,0.1 -0.1,0.1 l -0.8,0 0,69.1 2,0.3 0,0 0,0 0,0 c 0.1,0 0.1,0.1 0.1,0.1 l -0.5,3.3 44.7,7.8 0,-68.1 -1.7,0 c -0.1,0 -0.1,-0.1 -0.1,-0.1 l 0,-2.5 -0.4,0 c -0.1,0 -0.1,-0.1 -0.1,-0.1 l 0,-0.3 -16.7,0 c -0.1,0 -0.1,-0.1 -0.1,-0.1 l 0,-1.5 c 0,-0.1 0.1,-0.1 0.1,-0.1 l 0.1,0 0,-5.6 -0.1,0 c -0.7,-0.3 -0.9,-0.7 -0.9,-0.7 z"
       class="st9"
       inkscape:connector-curvature="0"
       style="fill:#4a6db4" /><path
       id="path5272"
       d="m 373,264.7 c 0.1,0 0.1,0 0,0 l 0.1,3.3 c 0,0.1 -0.1,0.1 -0.1,0.1 l -2.6,0 0,22.4 11.5,0 0,-0.3 -5.7,0 c -0.1,0 -0.1,-0.1 -0.1,-0.1 l 0,0 0,-0.1 0,0 c 0.1,-3.2 2.8,-5.7 6,-6 l 0,-4 -3.8,0 c -0.1,0 -0.1,-0.1 -0.1,-0.1 l 0,-0.8 c 0,-0.1 0.1,-0.1 0.1,-0.1 l 15.5,0 0,-32.4 -19.1,0 0,2.1 c 0,0.1 -0.1,0.1 -0.1,0.1 l -3.6,0 0,7.1 0,9.2 2.1,0 -0.1,-0.4 0,0 z"
       class="st12"
       inkscape:connector-curvature="0"
       style="fill:#cccbcb" /><path
       id="path5274"
       d="m 413.1,278.2 c 0.1,0 0.1,0.1 0,0 l 0.1,0.9 c 0,0.1 -0.1,0.1 -0.1,0.1 l -8.1,0 0,3.9 c 3.5,0.1 6.1,2.8 6.1,6.3 0,0.1 0,0.1 -0.1,0.1 0,0 0,0 -0.1,0 l -5.7,0 0,0 15.8,0 0,-21.6 -3.2,0 c -0.1,0 -0.1,-0.1 -0.1,-0.1 l 0,-3.2 c 0,-0.1 0.1,-0.1 0.1,-0.1 l 2,0 0,-18.8 -22.7,0 0,32.3 16,0.2 0,0 z"
       class="st12"
       inkscape:connector-curvature="0"
       style="fill:#cccbcb" /><path
       id="path5276"
       d="m 375.8,403.5 c 0,0.1 -0.1,0.1 0,0 l -0.4,0.1 0,11.5 0.3,0 c 0.1,0 0.1,0.1 0.1,0.1 l 0,8.2 16.7,0 -0.1,-7.1 -0.1,-14.5 -16.1,0 0,1.5 -0.3,0 0,0.2 -0.1,0 0,0 z"
       class="st12"
       inkscape:connector-curvature="0"
       style="fill:#cccbcb" /><path
       id="path5278"
       d="m 400.9,393.8 c 0,0 0.1,0 0,0 l 0.1,-39.7 -28.7,0 0,45.8 22.1,0 c 0.6,-3.4 3.2,-6.1 6.5,-6.1 z"
       class="st12"
       inkscape:connector-curvature="0"
       style="fill:#cccbcb" /><path
       id="path5280"
       d="m 426.3,290.2 c 0.1,0 0.1,0.1 0,0 l 0.1,1.1 c 0,0.1 -0.1,0.1 -0.1,0.1 l -11,0 0,4.3 c 3.5,0.1 6.1,2.8 6.1,6.3 0,0.1 0,0.1 -0.1,0.1 0,0 0,0 -0.1,0 l -5.7,0 0,0 19.1,0 0,-12.8 c 0,-0.1 0.1,-0.1 0.1,-0.1 l 15.6,0 0,-34.9 0,-0.1 0,0 c 0,0 0,0 0.1,0 l 0,0 2.5,-0.1 0,-10.9 -21.7,0 0,2.6 c 0,0.1 -0.1,0.1 -0.1,0.1 l -8.6,0 0,44 3.8,0.3 0,0 z"
       class="st12"
       inkscape:connector-curvature="0"
       style="fill:#cccbcb" /><path
       id="path5282"
       d="m 451.9,354.5 -42.3,0 c -0.1,0 -0.1,-0.1 -0.1,-0.1 l 0,-0.3 -5.6,0 0,0.3 c 0,0.1 -0.1,0.1 -0.1,0.1 l -0.1,0 0,40.4 0,-0.1 c 0,-0.1 0.1,-0.1 0.1,-0.1 3.5,0 6.3,2.8 6.3,6.1 l 2.6,0 0,-0.7 c 0,-0.1 0.1,-0.1 0.1,-0.1 l 3.9,0 c 0.1,0 0.1,0.1 0.1,0.1 l 0,0.7 0.5,0 c 0.1,0 0.1,0.1 0.1,0.1 l 0,0.3 23.4,0 0,-0.1 c 0,-0.1 0.1,-0.1 0.1,-0.1 l 8.2,0 0.1,0 0,-2.3 c 0,-0.1 0.1,-0.1 0.1,-0.1 l 1.7,0 0,-17.4 -1,0 -0.1,0 0,-0.1 0,-0.6 c 0,0 0,0 0,-0.1 l 1.4,-6.6 0,0 0,-19.2 0.6,0 0,-0.1 z"
       class="st12"
       inkscape:connector-curvature="0"
       style="fill:#cccbcb" /><path
       id="path5284"
       d="m 441.8,402.5 c -0.1,0 -0.1,-0.1 0,0 l -0.1,-0.4 -23.4,0 0,0.3 c 0,0.1 -0.1,0.1 -0.1,0.1 l -0.5,0 0,0.5 c 0,0.1 -0.1,0.1 -0.1,0.1 l -4.2,0 c -0.1,0 -0.1,-0.1 -0.1,-0.1 l 0,-0.5 -2.9,0 c -0.1,0 -0.1,-0.1 -0.1,-0.1 l 0,-0.3 -5.6,0 0,0.3 c 0,0.1 -0.1,0.1 -0.1,0.1 l -2.9,0 c -0.1,0 -0.1,-0.1 -0.1,-0.1 l 0,-0.8 -5.6,0 0,0.8 c 0,0.1 -0.1,0.1 -0.1,0.1 l -2.1,0 0.3,21.7 0,17.1 c 0,0.1 -0.1,0.1 -0.1,0.1 l -0.7,0 0,5.6 0.3,0 c 0.1,0 0.1,0.1 0.1,0.1 l 0,17 c 0,0.1 -0.1,0.1 -0.1,0.1 l -0.3,0 0,5.6 0.3,0 c 0.1,0 0.1,0.1 0.1,0.1 l 0,2.1 c 0,0.1 -0.1,0.1 -0.1,0.1 l -0.3,0 0,5.6 0.3,0 c 0.1,0 0.1,0.1 0.1,0.1 l 0,15.9 29.8,0 c 0.1,0 0.1,0.1 0.1,0.1 l 0,0.3 5.6,0 0,-0.3 c 0,-0.1 0.1,-0.1 0.1,-0.1 l 2.1,0 c 0.1,0 0.1,0.1 0.1,0.1 l 0,0.3 5.6,0 0,-0.3 c 0,-0.1 0.1,-0.1 0.1,-0.1 l 13.2,0 0,0 c 0,0 0,0 0,-0.1 l 0,0 c 0,0 0,0 0.1,0 l 1.7,0 0,-17.7 -1,0 0,0 0,0 0,0 0,0 0,0 0,0 0,0 0,0 0,-0.3 1.4,-6.8 0,0 0,-20.3 -1.7,0 c -0.1,0 -0.1,-0.1 -0.1,-0.1 l 0,-2.6 c 0,-0.1 0.1,-0.1 0.1,-0.1 l 1.7,0 0,-17.3 -1.5,0 -0.1,0 0,-0.1 1.4,-6.9 0,-19.2 -10.6,0.3 0,0 z"
       class="st12"
       inkscape:connector-curvature="0"
       style="fill:#cccbcb" /><polygon
       id="polygon5286"
       points="435.7,290.8 435.7,302.7 450.5,302.7 450.3,290.8 "
       class="st12"
       style="fill:#cccbcb" /><path
       id="path5288"
       d="m 417.4,305.7 c 0,0 -0.1,0 0,0 l -1.7,0.1 0,3.9 c 0,0.1 -0.1,0.1 -0.1,0.1 l -5.3,0 c -0.1,0 -0.1,-0.1 -0.1,-0.1 l 0,-0.3 -5.6,0 0,0.3 c 0,0.1 -0.1,0.1 -0.1,0.1 l -0.1,0 0,37.3 0,-0.1 c 0,-0.1 0.1,-0.1 0.1,-0.1 3.5,0 6.3,2.8 6.3,6.1 l 3.9,0 0,-3 c 0,-0.1 0.1,-0.1 0.1,-0.1 l 2.6,0 c 0.1,0 0.1,0.1 0.1,0.1 l 0,2.9 32.8,0 0,-2.3 c 0,-0.1 0.1,-0.1 0.1,-0.1 l 1.7,0 0,-17.4 -1,0 0,0 0,0 0,0 0,0 0,0 0,0 0,0 0,0 0,-0.1 1.4,-6.8 0,0 0,-19.5 -1.1,0 -0.1,0 0,0 c 0,0 0,0 0,-0.1 l 0,0 -0.1,-2.3 -33.3,0 -0.5,1.4 0,0 z"
       class="st12"
       inkscape:connector-curvature="0"
       style="fill:#cccbcb" /><path
       id="path5290"
       d="m 355.6,361.2 c -3.2,-0.1 -5.7,-2.6 -6,-5.7 0,0 0,0 0,-0.1 l 0,-0.3 0,0 0,0 c 0,-0.1 0.1,-0.1 0.1,-0.1 0,0 0,0 0.1,0 l 5.7,0 0,-2 -17.4,0 0,0.3 c 0,0.1 -0.1,0.1 -0.1,0.1 l -2.6,0 0,0.7 c 0,0.1 -0.1,0.1 -0.1,0.1 l -0.8,0 0,6.4 0,0 0,0 0,0 0,0 0,0 0,0 -0.1,0 -4.3,0 0,14.3 25.7,0 -0.2,-13.7 0,0 z"
       class="st12"
       inkscape:connector-curvature="0"
       style="fill:#cccbcb" /><path
       id="path5292"
       d="m 338.1,351 0,0.3 17.4,0 0,-2.1 -5.7,0 c -0.1,0 -0.1,-0.1 -0.1,-0.1 l 0,0 0,-0.1 0,0 c 0.1,-3.2 2.8,-5.7 6,-6 l 0,-14 -25.7,0 0,14.3 4.3,0 c 0.1,0 0.1,0.1 0.1,0.1 l 0,6.4 0.8,0 c 0.1,0 0.1,0.1 0.1,0.1 l 0,0.8 2.6,0 c 0,0.1 0.2,0.3 0.2,0.3 z"
       class="st12"
       inkscape:connector-curvature="0"
       style="fill:#cccbcb" /><path
       id="path5294"
       d="m 338.1,399 0,0.3 17.4,0 0,-2.1 -5.7,0 c -0.1,0 -0.1,-0.1 -0.1,-0.1 l 0,0 0,-0.3 c 0,0 0,0 0,-0.1 0.1,-3.2 2.8,-5.7 6,-5.7 l 0,-14 -25.7,0 0,14.3 4.3,0 0.1,0 0,0 0,0 0,0 0,0 0,0 0,0 0,6.4 0.8,0 c 0.1,0 0.1,0.1 0.1,0.1 l 0,0.7 2.6,0 c 0,0.3 0.2,0.3 0.2,0.5 z"
       class="st12"
       inkscape:connector-curvature="0"
       style="fill:#cccbcb" /><path
       id="path5296"
       d="m 355.6,408.8 c -3.2,-0.1 -5.7,-2.6 -6,-5.7 0,0 0,0 0,-0.1 l 0,-0.3 0,0 0,0 c 0,-0.1 0.1,-0.1 0.1,-0.1 0,0 0,0 0.1,0 l 5.7,0 0,-2.1 -17.4,0 0,0.3 c 0,0.1 -0.1,0.1 -0.1,0.1 l -2.6,0 0,0.8 c 0,0.1 -0.1,0.1 -0.1,0.1 l -0.8,0 0,6.4 0,0.1 -0.1,0 -4.3,0 0,14.3 25.7,0 -0.2,-13.8 0,0 z"
       class="st12"
       inkscape:connector-curvature="0"
       style="fill:#cccbcb" /><path
       id="path5298"
       d="m 355.6,313.2 c -3.2,-0.1 -5.7,-2.6 -6,-5.7 0,0 0,0 0,-0.1 l 0,-0.3 0,0 0,0 c 0,-0.1 0.1,-0.1 0.1,-0.1 0,0 0,0 0.1,0 l 5.7,0 0,-1.9 -17.4,0 0,0.3 c 0,0.1 -0.1,0.1 -0.1,0.1 l -2.6,0 0,0.8 c 0,0.1 -0.1,0.1 -0.1,0.1 l -0.8,0 0,6.4 0,0 0,0 0,0 0,0 0,0 0,0 0,0 0,0 0,0 -4.4,0 0,14.3 25.7,0 -0.2,-13.9 0,0 z"
       class="st12"
       inkscape:connector-curvature="0"
       style="fill:#cccbcb" /><path
       id="path5300"
       d="m 431.5,501.5 0,0 -0.4,0.1 c -0.1,0 -0.1,-0.1 -0.1,-0.1 l 0,-5.7 0,0 0,24.3 21.4,0 0,-23.1 -1.7,0 c -0.1,0 -0.1,-0.1 -0.1,-0.1 l 0,-1.1 -13.1,0 c -0.3,2.9 -2.7,5.5 -6,5.7 z"
       class="st12"
       inkscape:connector-curvature="0"
       style="fill:#cccbcb" /><path
       id="path5302"
       d="m 338.1,303.2 0,0.3 17.4,0 0,-2.1 -5.7,0 c -0.1,0 -0.1,-0.1 -0.1,-0.1 l 0,0 0,-0.3 c 0,0 0,0 0,-0.1 0.1,-3.2 2.8,-5.7 6,-5.7 l 0,-14 -25.7,0 0,14.3 4.3,0 c 0.1,0 0.1,0.1 0.1,0.1 l 0,6.4 0.8,0 c 0.1,0 0.1,0.1 0.1,0.1 l 0,0.7 2.6,0 c 0,0.2 0.2,0.2 0.2,0.4 z"
       class="st12"
       inkscape:connector-curvature="0"
       style="fill:#cccbcb" /><path
       id="path5304"
       d="m 355.6,265.1 c -3.2,-0.1 -5.7,-2.6 -6,-5.7 0,0 0,0 0,-0.1 l 0,-0.4 0,0 0,0 c 0,-0.1 0.1,-0.1 0.1,-0.1 0,0 0,0 0.1,0 l 5.7,0 0,-2.1 -17.4,0 0,0.8 c 0,0.1 -0.1,0.1 -0.1,0.1 l -2.6,0 0,0.7 c 0,0.1 -0.1,0.1 -0.1,0.1 l -0.8,0 0,5.6 0,1 c 0,0.1 -0.1,0.1 -0.1,0.1 l -4.3,0 0,14.3 25.7,0 -0.2,-14.3 0,0 z"
       class="st12"
       inkscape:connector-curvature="0"
       style="fill:#cccbcb" /><path
       id="path5306"
       d="m 338.1,446.8 0,0.3 17.4,0 0,-2.1 -5.7,0 c -0.1,0 -0.1,-0.1 -0.1,-0.1 l 0,0 0,-0.2 0,0 c 0.1,-3.2 2.8,-5.7 6,-6 l 0,-13.8 -25.7,0 0,14.2 4.3,0 0.1,0 0,0 0,0 0,0.1 0,0 0,6.4 0.8,0 c 0.1,0 0.1,0.1 0.1,0.1 l 0,0.8 2.6,0 c 0,0 0.2,0 0.2,0.3 z"
       class="st12"
       inkscape:connector-curvature="0"
       style="fill:#cccbcb" /><path
       id="path5308"
       d="m 369.8,528.1 c 0.1,0 0.1,0.1 0,0 l 0.1,0.2 0.1,0 c 0.1,0 0.1,0.1 0.1,0.1 l 0,0.3 18,0 0,-12 -1,0 c -0.1,0 -0.1,-0.1 -0.1,-0.1 l 0,0 -10.2,0 -6.4,0 0,5 c 0,0.1 -0.1,0.1 -0.1,0.1 l -0.1,0 0,0.1 c 0,0.1 -0.1,0.1 -0.1,0.1 l -0.5,0 0,5.7 0.2,0.5 0,0 z"
       class="st12"
       inkscape:connector-curvature="0"
       style="fill:#cccbcb" /><path
       id="path5310"
       d="m 369.8,537.3 c 0.1,0 0.1,0.1 0,0 l 0.1,0.2 0.1,0 c 0.1,0 0.1,0.1 0.1,0.1 l 0,3.3 2.5,0 c 0.1,0 0.1,0.1 0.1,0.1 l 0,3.9 c 0,0.1 -0.1,0.1 -0.1,0.1 l -2.5,0 0,8.1 18,0 0,-23.1 -18,0 0,0.3 c 0,0.1 -0.1,0.1 -0.1,0.1 l -0.1,0 0,0.1 c 0,0.1 -0.1,0.1 -0.1,0.1 l -0.3,0 0,5.7 0.3,0 0,1 z"
       class="st12"
       inkscape:connector-curvature="0"
       style="fill:#cccbcb" /><path
       id="path5312"
       d="m 400.7,554.5 c 0,-0.1 0.1,-0.1 0,0 l 0.2,-0.1 0,-0.1 c 0,-0.1 0.1,-0.1 0.1,-0.1 l 1,0 0,-32.8 -12.8,0 0,32.8 4.7,0 c 0.1,0 0.1,0.1 0.1,0.1 l 0,0.3 0.1,0 c 0.1,0 0.1,0.1 0.1,0.1 l 0,0.1 5.6,0 0,-0.3 0.9,0 z"
       class="st12"
       inkscape:connector-curvature="0"
       style="fill:#cccbcb" /><path
       id="path5314"
       d="m 409.5,553.3 0,0 0,-0.3 c 0,0 0,0 0,-0.1 0.1,-2.9 2.6,-5.6 5.6,-5.7 0,0 0,0 0,-0.1 l 0,-4.3 c 0,-0.1 0.1,-0.1 0.1,-0.1 l 11.4,0 0,-20.9 -22.7,0 0,32.3 6,0 c -0.3,-0.6 -0.4,-0.6 -0.4,-0.8 z"
       class="st12"
       inkscape:connector-curvature="0"
       style="fill:#cccbcb" /><path
       id="path5316"
       d="m 403.6,302.7 0,0 c 0,-0.1 0.1,-0.3 0.1,-0.3 3.5,0 6.3,2.8 6.3,6.1 l 3.6,0 0,-6.3 c 0,-0.1 0.1,-0.1 0.1,-0.1 l 0.1,0 0,-5.6 -0.1,0 c -0.1,0 -0.1,-0.1 -0.1,-0.1 l 0,-4.5 -9.9,0 c -0.1,0 -0.1,-0.1 -0.1,-0.1 l 0,-1.5 c 0,-0.1 0.1,-0.1 0.1,-0.1 l 0.1,0 0,-5.6 -0.1,0 c -0.1,0 -0.1,-0.1 -0.1,-0.1 l 0,-1.8 -6.4,0 c -0.1,0 -0.1,-0.1 -0.1,-0.1 l 0,-2.3 -7.4,0 0,2.3 c 0,0.1 -0.1,0.1 -0.1,0.1 l -6.6,0 0,1.7 c 0,0.1 -0.1,0.1 -0.1,0.1 l -0.1,0 0,5.6 0.1,0 c 0.1,0 0.1,0.1 0.1,0.1 l 0,1.5 c 0,0.1 -0.1,0.1 -0.1,0.1 l -14,0 0,10.9 34.7,0 c -0.1,0 0,0 0,0 z"
       class="st12"
       inkscape:connector-curvature="0"
       style="fill:#cccbcb" /><polygon
       id="polygon5318"
       points="406.5,496.8 389.3,496.8 389.7,519.5 406.5,519.5 "
       class="st12"
       style="fill:#cccbcb" /><path
       id="path5320"
       d="m 429.4,542.5 10.4,0 c 0.1,0 0.1,0.1 0.1,0.1 l 0,4.3 c 0,0 0,0 0,0.1 3.2,0.3 5.7,2.9 5.7,6.3 0,0.1 0,0.1 -0.1,0.1 0,0 0,0 -0.1,0 l 2.9,0 0,-0.3 c 0,-0.1 0.1,-0.1 0.1,-0.1 l 3.8,0 0,-7.8 -2,0 c -0.1,0 -0.1,-0.1 -0.1,-0.1 l 0,-3.2 c 0,-0.1 0.1,-0.1 0.1,-0.1 l 2,0 0,-19.8 -22.6,0 -0.2,20.5 0,0 z"
       class="st12"
       inkscape:connector-curvature="0"
       style="fill:#cccbcb" /><path
       id="path5322"
       d="m 429.2,501.3 c 0,0.2 0,0.2 0,0 0,0.1 -0.1,0.3 -0.1,0.3 l -0.3,0 c 0,0 -0.1,0 -0.1,-0.1 -3.2,-0.1 -5.6,-2.8 -5.7,-6 l -5.6,0 0,1 c 0,0.1 -0.1,0.1 -0.1,0.1 l -9.3,0 0,21.3 0.8,0 c 0.1,0 0.1,0.1 0.1,0.1 l 0,1.7 20.5,0 0,-24.5 0,0 -0.2,6.1 0,0 z"
       class="st12"
       inkscape:connector-curvature="0"
       style="fill:#cccbcb" /><path
       id="path5324"
       d="m 375.8,311.2 c 0.1,0 0.1,0.1 0,0 0.1,3.6 -2.7,6.4 -6,6.4 l 0,32 2.3,0 c 0.1,0 0.1,0.1 0.1,0.1 l 0,1.5 29.5,0 0,-47.6 -28.8,0 0,2 c 0,0.1 -0.1,0.1 -0.1,0.1 l -2.6,0 0,5.3 5.6,0.2 c -0.1,0 -0.1,0 0,0 z"
       class="st12"
       inkscape:connector-curvature="0"
       style="fill:#cccbcb" /><rect
       id="rect5326"
       height="2.5999999"
       width="11"
       class="st12"
       y="513.09998"
       x="377"
       style="fill:#cccbcb" /><path
       id="path5328"
       d="m 355.6,456.8 c -3.2,-0.1 -5.7,-2.6 -6,-5.7 0,0 0,0 0,-0.1 l 0,-0.3 0,0 0,0 c 0,-0.1 0.1,-0.1 0.1,-0.1 0,0 0,0 0.1,0 l 5.7,0 0,-2.1 -17.4,0 0,0.3 c 0,0.1 -0.1,0.1 -0.1,0.1 l -2.6,0 0,0.7 c 0,0.1 -0.1,0.1 -0.1,0.1 l -0.8,0 0,6.4 0,0 0,0.1 0,0 0,0 -0.1,0 -4.3,0 0,14.4 25.7,0 -0.2,-13.8 0,0 z"
       class="st12"
       inkscape:connector-curvature="0"
       style="fill:#cccbcb" /><path
       id="path5330"
       d="m 385.5,472.7 0,0 0,-0.5 0,0 0,0 c 0,0 0,-0.1 0.1,-0.1 l -15.6,0 0,0.7 c 0,0.1 -0.1,0.1 -0.1,0.1 l -0.3,0 0,5.6 0.3,0 c 0.1,0 0.1,0.1 0.1,0.1 l 0,12.4 0,3.2 6.8,0 14.9,0 0,-15.8 c -3.4,-0.1 -6,-2.6 -6.2,-5.7 z"
       class="st12"
       inkscape:connector-curvature="0"
       style="fill:#cccbcb" /><path
       id="path5332"
       d="m 385.5,470.1 0,0 0,0 0,0 c 0.1,-3.3 2.8,-5.8 6,-6.1 l 0,-14.9 -18.1,0 0,0.8 c 0,0.1 -0.1,0.1 -0.1,0.1 l -3.2,0 0,20.3 21.4,0 0,0 -6,0 c 0,0 0,-0.2 0,-0.2 z"
       class="st12"
       inkscape:connector-curvature="0"
       style="fill:#cccbcb" /><path
       id="path5334"
       d="m 338.1,494.5 0,0.3 17.1,0 0,-3.8 c 0,-0.1 0.1,-0.1 0.1,-0.1 l 0,0 0,-10.4 c -3.2,-0.1 -5.7,-2.6 -6,-5.7 0,0 0,0 0,-0.1 l 0,-0.3 0,0 0,0 c 0,-0.1 0.1,-0.1 0.1,-0.1 0,0 0,0 0.1,0 l 5.7,0 0,-1.7 -25.7,0 0,14.3 4.3,0 0.1,0 0,0.1 0,6.4 0.8,0 c 0.1,0 0.1,0.1 0.1,0.1 l 0,0.7 2.6,0 c 0.5,0.1 0.7,0.1 0.7,0.3 z"
       class="st12"
       inkscape:connector-curvature="0"
       style="fill:#cccbcb" /><path
       id="path5336"
       d="m 385.5,447.3 0,0 0,-0.3 c 0,0 0,0 0,-0.1 0.1,-3.2 2.8,-5.7 6,-5.7 l 0,-15.6 -21.4,0 0,19.8 3.2,0 c 0.1,0 0.1,0.1 0.1,0.1 l 0,2.1 12.4,0 c -0.3,-0.1 -0.3,-0.1 -0.3,-0.3 z"
       class="st12"
       inkscape:connector-curvature="0"
       style="fill:#cccbcb" /><path
       id="path5338"
       d="m 349.5,498.7 c 0,0 0,-0.2 0,0 l 0,-0.3 0,0 0,0 c 0,-0.1 0.1,-0.1 0.1,-0.1 0,0 0,0 0.1,0 l 5.6,0 c 0,0 0,0 0,-0.1 l 0,-1.7 -17.1,0 0,0.3 c 0,0.1 -0.1,0.1 -0.1,0.1 l -2.6,0 0,0.8 c 0,0.1 -0.1,0.1 -0.1,0.1 l -0.8,0 0,6.4 c 0,0.1 -0.1,0.1 -0.1,0.1 l -4.3,0 0,29.9 4.3,0 0,0 0,0 0,0 0,0 0,0 0,0 0,0 0,0.1 0,0 0,6.4 0.8,0 c 0.1,0 0.1,0.1 0.1,0.1 l 0,0.8 2.6,0 c 0.1,0 0.1,0.1 0.1,0.1 l 0,0.3 16.4,0 0,-1.4 c 0,-0.1 0.1,-0.1 0.1,-0.1 l 0.5,0 0,-36.5 0,-0.1 c -2.8,0.4 -5.5,-2.1 -5.6,-5.2 z"
       class="st12"
       inkscape:connector-curvature="0"
       style="fill:#cccbcb" /><path
       id="path5340"
       d="m 337.9,590 0,1 c 0,0.1 -0.1,0.1 -0.1,0.1 l -21.4,0 c -0.1,0 -0.1,-0.1 -0.1,-0.1 l 0,-1 -2.5,0 c -0.1,0 -0.1,-0.1 -0.1,-0.1 l 0,-1 -0.1,0 c -0.1,0 -0.1,-0.1 -0.1,-0.1 l 0,-0.1 -5.6,0 0,0.1 c 0,0.1 -0.1,0.1 -0.1,0.1 l -0.3,0 0,0.1 0,2 c 0,0.1 -0.1,0.1 -0.1,0.1 l -1.1,0 0,44.7 0.7,0 c 0.1,0 0.1,0.1 0.1,0.1 l 0,3.9 c 0,0.1 -0.1,0.1 -0.1,0.1 l -0.7,0 0,18.8 0.7,0 c 0.1,0 0.1,0.1 0.1,0.1 l 0,1.7 46.1,0 0,-71.2 -14.9,0 0,0.7 -0.4,0 0,0 z"
       class="st9"
       inkscape:connector-curvature="0"
       style="fill:#4a6db4" /><path
       id="path5342"
       d="m 368.7,646.3 0,0 26.3,4.6 4.6,0.8 0.5,-3.3 0,0 0,0 0,0 0,0 0,0 0,0 0,0 0,0 0,0 0,0 1.1,0.1 0,-68.5 -0.7,0 c -0.1,0 -0.1,-0.1 -0.1,-0.1 l 0,-2.3 -28.1,0 0,0.3 c 0,0.1 -0.1,0.1 -0.1,0.1 l -17.8,0 0,3.2 c 0,0.1 -0.1,0.1 -0.1,0.1 l -0.7,0 0,0 c 0,0.1 -0.1,0.1 -0.1,0.1 l -0.1,0 0,5.6 0.1,0 c 0.1,0 0.1,0.1 0.1,0.1 l 0,0 0.8,0 c 0.1,0 0.1,0.1 0.1,0.1 l 0,0.8 0.3,0 c 0,0 0,0 0.1,0 l 0,0 c 0,0 0,0 0,0.1 l 0,0 0,0 0,0 0,57.6 13.7,0 0.1,0.6 0,0 z"
       class="st9"
       inkscape:connector-curvature="0"
       style="fill:#4a6db4" /><path
       id="path5344"
       d="m 287,584 c 0.1,0 0.1,0.1 0,0 l 0.1,4.6 17.7,0 0,-10.9 -17.7,0 0,0.3 c 0,0.1 -0.1,0.1 -0.1,0.1 l -0.1,0 0,5.6 0.1,0.3 0,0 z"
       class="st12"
       inkscape:connector-curvature="0"
       style="fill:#cccbcb" /><path
       id="path5346"
       d="m 264.3,586.8 5.7,0 c 0.1,0 0.1,0.1 0.1,0.1 l 0,-2.5 0,-0.3 0,-2.6 -0.1,0 c -3.2,0.2 -5.6,2.5 -5.7,5.3 z"
       class="st12"
       inkscape:connector-curvature="0"
       style="fill:#cccbcb" /><path
       id="path5348"
       d="m 254.5,590 c -0.1,0 -0.1,0 0,0 l -0.1,4.5 c 0,0 0,0 0,0.1 0,0.1 -0.1,0.1 -0.1,0.1 l 0,0 0,0 -0.3,0 c 0,0 0,0 -0.1,0 -2.8,-0.1 -5.1,-2.4 -5.7,-5 l -0.1,0.1 -33.1,0 -0.7,3.3 c 0,0.1 -0.1,0.1 -0.1,0.1 l -3.3,-0.7 -1.1,6.6 0,59 0.7,0 c 0.1,0 0.1,0.1 0.1,0.1 l 0,2.8 45,0 0,-71.4 -1.1,0.4 0,0 z"
       class="st9"
       inkscape:connector-curvature="0"
       style="fill:#4a6db4" /><path
       id="path5350"
       d="m 194.5,559.1 0,95.1 10.6,0 0,-51.4 4.2,-21.6 0,-12.2 0,-21.9 -89.7,0 0.3,15.2 33.3,-3.6 38.9,0.5 0,0 2,0 c 0.3,-0.2 0.4,-0.1 0.4,-0.1 z"
       class="st12"
       inkscape:connector-curvature="0"
       style="fill:#cccbcb" /><g
       id="g5352"><path
         id="path5354"
         d="m 455,240.5 0,13.5 -4.3,0 0,34.9 0,0.8 0.1,0 0,12.4 0,0 0.1,0.8 0.1,0 0,2.6 0.7,0 0.7,0 0,10.6 0,6.6 0.1,0 0,12.5 -0.1,0 0,14.6 0,3.6 0,10.4 0,6.6 0,0.3 0.1,0 0,12.5 -0.1,0 0,14.2 0,3.6 0,10.4 0,6.6 0,1 0.1,0 0,12.5 -0.1,0 0,2.5 0,11.3 -2,0 0,2.6 2,0 0,11.4 0,6.6 0,1.5 0.1,0 0,12.5 -0.1,0 0,13.2 -2,0 0,0.1 0,1 0,1.5 2,0 0,23.4 0,1 0,20.5 -2.3,0 0,3.2 2.3,0 0,8.2 -3.9,0 0,0.7 -8.6,0 0,-0.1 -0.3,0 0,-0.3 -0.2,0 0,-6 0.3,0 0,-0.3 0.1,0 0.1,0 0,-4.3 -10.6,0 -2.6,0 -11.5,0 0,4.3 0.8,0 0,6.4 -0.3,0 0,0.3 -0.3,0 0,0.1 -11.5,0 -1,0 -1.5,0 0,0.5 -0.4,0 0,0.3 -6,0 0,0 0,0.1 -0.3,0 0,-0.5 -5.1,0 -1,0 -18.5,0 0,-8.6 2.6,0 0,-4.2 -2.6,0 0,-3.5 -0.1,0 0,-0.3 -0.6,0 0,0 0,-6.1 0.1,0 0.3,0 0,-0.3 0.1,0 0.1,0 0,-0.7 0,-1 0,-0.7 -0.3,0 0,-0.3 -0.3,0 0,0 0.1,-6.3 0.3,0 0,-0.3 0.3,0 0,-5.3 6.3,0 0,-22.3 -6.4,0 0,-3.3 -1,0 -0.1,0 0,0.7 -11.5,0 0,-0.7 -0.1,0 -1,0 -0.1,0 0,3.9 0,0.8 0,2 0.1,0 0,0.3 0.7,0 0,6 -0.7,0 0,0.3 -0.1,0 0,36.8 -0.7,0 0,1.5 0,0.8 0,-0.8 -17,0 0,-0.5 -2.9,0 0,-1 -1,0 0,0 0,-6 -5.6,0 0,-31.9 5,0 0,-15.9 -5,0 0,-32 5,0 0,-15.5 -5,0 0,-32 5,0 0,-15.6 -5,0 0,-31.9 5,0 0,-15.9 -5,0 0,-31.9 5,0 0,-16 -5,0 0,-2.6 0,0 0,-29.7 5,0 0,-4.7 35.5,0 0,-10.4 2,0 0,-0.8 3.6,0 0,-2.3 19.1,0 2.6,0 23.3,0 2.3,0 4.3,0 0,-4.6 28.3,0.1 m 6.1,-6 -6.3,0 -28.4,0 -6.3,0 0,4.5 -0.3,0 -23.2,0 -2.6,0 -19.6,0 -6.3,0 0,2.3 -3.6,0 0,0.7 -1.5,0 0,6.3 0,4.3 -29,0 -6.3,0 0,4.7 -5,0 0,6.3 0,23.3 0,6.3 0,2.6 0,6.3 5,0 0,3.6 -5,0 0,6.3 0,32 0,6.3 5,0 0,3.6 -5,0 0,6.3 0,32 0,6.3 5,0 0,3.5 -5,0 0,6.3 0,32 0,6.3 5,0 0,3.6 -5,0 0,6.3 0,32 0,6.3 5,0 0,3.6 -5,0 0,6.3 0,31.5 0,6.3 5.6,0 0,6 1.1,0 0,1 2.8,0 0,0.5 6.3,0 17,0 0,-5.4 0,0 0,3.8 0.7,0 6.3,0 0,-6.9 0,-30.6 0.1,0 0,-1 0.7,0 0,-6.3 0,-6 0,-0.3 1.1,0 0,2.6 6.3,0 0.3,0 0,10 0,0 -6.3,0 0,5.1 -0.3,0 0,0.3 -0.1,0 -0.1,6 -0.1,3.2 -0.1,0 0,2.9 -0.1,6.3 0.1,0 0,2.9 0,6.3 0.5,0 0,0.3 0.3,0 0,3.5 0,6.4 0,6.3 6.3,0 18.3,0 0,0.5 0.3,0 0,0.3 6.3,0 0,0 6,0 6.3,0 0,-0.3 0.3,0 0,-0.5 7.8,0 6.3,0 0,-0.1 0.3,0 0,-0.3 0.3,0 0,-5.7 0,-4.5 4.5,0 2.6,0 3.5,0 0,4.5 0,6.3 0.3,0 0,0.3 0.3,0 0,0.1 6.3,0 8.6,0 6.3,0 0,-0.7 3.9,0 0,-6.3 0,-5.3 0,-6.3 0,-20.5 0,-0.9 0,-20.1 0,-6.3 0,-7.1 0.1,0 0,-6.1 0,-12.5 0,-6.4 -0.1,0 0,-2 0,-7.8 0,-6.3 0,-7.4 0.1,0 0,-6.3 0,-12.5 0,-6.1 -0.1,0 0,-1.5 0,-10.4 0,-3.6 0,-8.1 0.1,0 0,-6.3 0,-12.5 0,-6.3 -0.1,0 0,-0.8 0,-10.4 0,-3.6 0,-8.4 0.1,0 0,-6.3 0,-12.5 0,-6.3 -0.1,0 0,0.1 0,-10.6 0,-6.3 -1.4,0 0,-2.6 -0.3,0 0,-7.2 0,-6.1 0.1,0 0,-23.4 4.3,0 0,-6.1 0,-13.4 0,-6.3 -1.1,0 -0.1,0.3 0,0 0,0 z"
         class="st1"
         inkscape:connector-curvature="0"
         style="fill:#989798" /></g><path
       id="path5356"
       d="m 280.4,591.1 c -0.1,0 -0.1,-0.1 0,0 l -0.1,-1.1 -9.6,0 0,0 -12.7,0 0,16.1 0.7,0 c 0.1,0 0.1,0.1 0.1,0.1 l 0,2.6 c 0,0.1 -0.1,0.1 -0.1,0.1 l -0.7,0 0,49.7 0.7,0 c 0.1,0 0.1,0.1 0.1,0.1 l 0,1.7 44.5,0 0,-69.9 -23,0 0,0.6 0.1,0 0,0 z"
       class="st9"
       inkscape:connector-curvature="0"
       style="fill:#4a6db4" /><path
       id="path5358"
       d="m 270.2,587.3 0,0 0.8,0 c 0.1,0 0.1,0.1 0.1,0.1 l 0,2.1 8.9,0 0,-0.7 c 0,-0.1 0.1,-0.1 0.1,-0.1 l 5.6,0 0,-4.3 c -3.2,-0.1 -5.7,-2.6 -6,-5.7 0,0 0,0 0,-0.1 l 0,-0.3 0,0 0,-0.1 0.3,0 5.7,0 0,-0.1 -14.6,0 0,3.2 c 0,0.1 -0.1,0.1 -0.1,0.1 l -0.8,0 0,0 c 0,0.1 -0.1,0.1 -0.1,0.1 l -0.1,0 0,5.6 0.1,0 c -0.1,0 0.1,0 0.1,0.2 z"
       class="st12"
       inkscape:connector-curvature="0"
       style="fill:#cccbcb" /><path
       id="path5360"
       d="m 353.4,584 0,-2.3 -0.1,0 c -2.9,0 -5.6,2.3 -5.7,5.1 l 5.7,0 c 0.1,0 0.1,0.1 0.1,0.1 l 0,0.1 0,0 0,-2.5 0,0 0,-0.5 0,0 z"
       class="st9"
       inkscape:connector-curvature="0"
       style="fill:#4a6db4" /><path
       id="path5362"
       d="m 431.9,583.8 0,-2.5 0.1,0 c 2.9,0 5.6,2.3 5.7,5.1 l -5.6,0 c -0.1,0 -0.1,0.1 -0.1,0.1 l 0,0.1 0,0 0,-2.5 0,0 0,-0.7 -0.1,0 0,0.4 0,0 z"
       class="st9"
       inkscape:connector-curvature="0"
       style="fill:#4a6db4" /><path
       id="path5364"
       d="m 307.3,585.5 0,-2.3 0.1,0 c 2.9,0 5.6,2.3 5.7,5.1 l -5.7,0 c -0.1,0 -0.1,0.1 -0.1,0.1 l 0,0.1 0,0 0,-2.5 0,0 0,-0.5 0,0 z"
       class="st9"
       inkscape:connector-curvature="0"
       style="fill:#4a6db4" /><text
       id="text5366"
       class="st5 st3 st13"
       transform="translate(418.4961,629.7301)"
       style="font-size:11.04129982px;font-family:ArialMT;fill:#ffffff">2138</text>
<text
       id="text5368"
       class="st5 st3 st13"
       transform="translate(369.415,629.7301)"
       style="font-size:11.04129982px;font-family:ArialMT;fill:#ffffff">2136</text>
<text
       id="text5370"
       class="st5 st3 st13"
       transform="translate(318.5254,631.151)"
       style="font-size:11.04129982px;font-family:ArialMT;fill:#ffffff">2134</text>
<text
       id="text5372"
       class="st5 st3 st13"
       transform="translate(269.9346,631.3434)"
       style="font-size:11.04129982px;font-family:ArialMT;fill:#ffffff">2132</text>
<text
       id="text5374"
       class="st5 st3 st13"
       transform="translate(221.1523,632.486)"
       style="font-size:11.04129982px;font-family:ArialMT;fill:#ffffff">2130</text>
<rect
       id="rect5376"
       height="8.1999998"
       width="1.4"
       class="st8"
       y="548.79999"
       x="187.7"
       style="opacity:0.6;fill:#4a6db4;enable-background:new" /><rect
       id="rect5378"
       height="8.1999998"
       width="1.4"
       class="st8"
       y="548.79999"
       x="190.10001"
       style="opacity:0.6;fill:#4a6db4;enable-background:new" /><rect
       id="rect5380"
       height="8.1999998"
       width="1.4"
       class="st8"
       y="548.79999"
       x="192.60001"
       style="opacity:0.6;fill:#4a6db4;enable-background:new" /><rect
       id="rect5382"
       height="7.1999998"
       width="8.1000004"
       class="st8"
       y="548.79999"
       x="195.8"
       style="opacity:0.6;fill:#4a6db4;enable-background:new" /><rect
       id="rect5384"
       height="1.4"
       width="8.1999998"
       class="st8"
       y="576.70001"
       x="195.8"
       style="opacity:0.6;fill:#4a6db4;enable-background:new" /><rect
       id="rect5386"
       height="1.4"
       width="8.1999998"
       class="st8"
       y="574.09998"
       x="195.8"
       style="opacity:0.6;fill:#4a6db4;enable-background:new" /><rect
       id="rect5388"
       height="1.4"
       width="8.1999998"
       class="st8"
       y="571.79999"
       x="195.8"
       style="opacity:0.6;fill:#4a6db4;enable-background:new" /><rect
       id="rect5390"
       height="1.4"
       width="8.1999998"
       class="st8"
       y="569"
       x="195.8"
       style="opacity:0.6;fill:#4a6db4;enable-background:new" /><rect
       id="rect5392"
       height="1.4"
       width="8.1999998"
       class="st8"
       y="566.5"
       x="195.8"
       style="opacity:0.6;fill:#4a6db4;enable-background:new" /><rect
       id="rect5394"
       height="1.4"
       width="8.1999998"
       class="st8"
       y="564"
       x="195.8"
       style="opacity:0.6;fill:#4a6db4;enable-background:new" /><rect
       id="rect5396"
       height="1.4"
       width="8.1999998"
       class="st8"
       y="561.79999"
       x="195.8"
       style="opacity:0.6;fill:#4a6db4;enable-background:new" /><rect
       id="rect5398"
       height="1.4"
       width="8.1999998"
       class="st8"
       y="559.29999"
       x="195.8"
       style="opacity:0.6;fill:#4a6db4;enable-background:new" /><rect
       id="rect5400"
       height="1.4"
       width="8.1999998"
       class="st8"
       y="556.70001"
       x="195.8"
       style="opacity:0.6;fill:#4a6db4;enable-background:new" /><rect
       id="rect5402"
       height="8.1999998"
       width="1.4"
       class="st8"
       y="548.79999"
       x="170.60001"
       style="opacity:0.6;fill:#4a6db4;enable-background:new" /><rect
       id="rect5404"
       height="8.1999998"
       width="1.4"
       class="st8"
       y="548.79999"
       x="172.8"
       style="opacity:0.6;fill:#4a6db4;enable-background:new" /><rect
       id="rect5406"
       height="8.1999998"
       width="1.4"
       class="st8"
       y="548.79999"
       x="175.3"
       style="opacity:0.6;fill:#4a6db4;enable-background:new" /><rect
       id="rect5408"
       height="8.1999998"
       width="1.4"
       class="st8"
       y="548.79999"
       x="177.89999"
       style="opacity:0.6;fill:#4a6db4;enable-background:new" /><rect
       id="rect5410"
       height="8.1999998"
       width="1.4"
       class="st8"
       y="548.79999"
       x="180.2"
       style="opacity:0.6;fill:#4a6db4;enable-background:new" /><rect
       id="rect5412"
       height="8.1999998"
       width="1.4"
       class="st8"
       y="548.79999"
       x="182.7"
       style="opacity:0.6;fill:#4a6db4;enable-background:new" /><rect
       id="rect5414"
       height="8.1999998"
       width="1.4"
       class="st8"
       y="548.79999"
       x="185.2"
       style="opacity:0.6;fill:#4a6db4;enable-background:new" /><rect
       id="rect5416"
       height="8.1999998"
       width="1.4"
       class="st8"
       y="548.79999"
       x="150.39999"
       style="opacity:0.6;fill:#4a6db4;enable-background:new" /><rect
       id="rect5418"
       height="8.1999998"
       width="1.4"
       class="st8"
       y="548.79999"
       x="152.89999"
       style="opacity:0.6;fill:#4a6db4;enable-background:new" /><rect
       id="rect5420"
       height="8.1999998"
       width="1.4"
       class="st8"
       y="548.79999"
       x="155.39999"
       style="opacity:0.6;fill:#4a6db4;enable-background:new" /><rect
       id="rect5422"
       height="8.1999998"
       width="1.4"
       class="st8"
       y="548.79999"
       x="157.8"
       style="opacity:0.6;fill:#4a6db4;enable-background:new" /><rect
       id="rect5424"
       height="8.1999998"
       width="1.4"
       class="st8"
       y="548.79999"
       x="160.3"
       style="opacity:0.6;fill:#4a6db4;enable-background:new" /><rect
       id="rect5426"
       height="8.1999998"
       width="1.4"
       class="st8"
       y="548.79999"
       x="162.60001"
       style="opacity:0.6;fill:#4a6db4;enable-background:new" /><rect
       id="rect5428"
       height="8.1999998"
       width="1.4"
       class="st8"
       y="548.79999"
       x="165.3"
       style="opacity:0.6;fill:#4a6db4;enable-background:new" /><rect
       id="rect5430"
       height="8.1999998"
       width="1.4"
       class="st8"
       y="548.79999"
       x="167.7"
       style="opacity:0.6;fill:#4a6db4;enable-background:new" /><rect
       id="rect5432"
       height="8.1999998"
       width="1.4"
       class="st8"
       y="548.79999"
       x="133.10001"
       style="opacity:0.6;fill:#4a6db4;enable-background:new" /><rect
       id="rect5434"
       height="8.1999998"
       width="1.4"
       class="st8"
       y="548.79999"
       x="135.5"
       style="opacity:0.6;fill:#4a6db4;enable-background:new" /><rect
       id="rect5436"
       height="8.1999998"
       width="1.4"
       class="st8"
       y="548.79999"
       x="138.2"
       style="opacity:0.6;fill:#4a6db4;enable-background:new" /><rect
       id="rect5438"
       height="8.1999998"
       width="1.4"
       class="st8"
       y="548.79999"
       x="140.5"
       style="opacity:0.6;fill:#4a6db4;enable-background:new" /><rect
       id="rect5440"
       height="8.1999998"
       width="1.4"
       class="st8"
       y="548.79999"
       x="143"
       style="opacity:0.6;fill:#4a6db4;enable-background:new" /><rect
       id="rect5442"
       height="8.1999998"
       width="1.4"
       class="st8"
       y="548.79999"
       x="145.60001"
       style="opacity:0.6;fill:#4a6db4;enable-background:new" /><rect
       id="rect5444"
       height="8.1999998"
       width="1.4"
       class="st8"
       y="548.79999"
       x="147.89999"
       style="opacity:0.6;fill:#4a6db4;enable-background:new" /><g
       id="g5446"><rect
         id="rect5448"
         height="1.4"
         width="8.1999998"
         class="st8"
         y="596.5"
         x="195.89999"
         style="opacity:0.6;fill:#4a6db4;enable-background:new" /><rect
         id="rect5450"
         height="1.4"
         width="8.1999998"
         class="st8"
         y="594.09998"
         x="195.89999"
         style="opacity:0.6;fill:#4a6db4;enable-background:new" /><rect
         id="rect5452"
         height="1.4"
         width="8.1999998"
         class="st8"
         y="591.70001"
         x="195.89999"
         style="opacity:0.6;fill:#4a6db4;enable-background:new" /><rect
         id="rect5454"
         height="1.4"
         width="8.1999998"
         class="st8"
         y="589.09998"
         x="195.89999"
         style="opacity:0.6;fill:#4a6db4;enable-background:new" /><rect
         id="rect5456"
         height="1.4"
         width="8.1999998"
         class="st8"
         y="586.70001"
         x="195.89999"
         style="opacity:0.6;fill:#4a6db4;enable-background:new" /><rect
         id="rect5458"
         height="1.4"
         width="8.1999998"
         class="st8"
         y="584.09998"
         x="195.89999"
         style="opacity:0.6;fill:#4a6db4;enable-background:new" /><rect
         id="rect5460"
         height="1.4"
         width="8.1999998"
         class="st8"
         y="581.79999"
         x="195.89999"
         style="opacity:0.6;fill:#4a6db4;enable-background:new" /><rect
         id="rect5462"
         height="1.4"
         width="8.1999998"
         class="st8"
         y="579.5"
         x="195.89999"
         style="opacity:0.6;fill:#4a6db4;enable-background:new" /><rect
         id="rect5464"
         height="1.4"
         width="8.1999998"
         class="st8"
         y="614"
         x="195.89999"
         style="opacity:0.6;fill:#4a6db4;enable-background:new" /><rect
         id="rect5466"
         height="1.4"
         width="8.1999998"
         class="st8"
         y="611.29999"
         x="195.89999"
         style="opacity:0.6;fill:#4a6db4;enable-background:new" /><rect
         id="rect5468"
         height="1.4"
         width="8.1999998"
         class="st8"
         y="609"
         x="195.89999"
         style="opacity:0.6;fill:#4a6db4;enable-background:new" /><rect
         id="rect5470"
         height="1.4"
         width="8.1999998"
         class="st8"
         y="606.5"
         x="195.89999"
         style="opacity:0.6;fill:#4a6db4;enable-background:new" /><rect
         id="rect5472"
         height="1.4"
         width="8.1999998"
         class="st8"
         y="604"
         x="195.89999"
         style="opacity:0.6;fill:#4a6db4;enable-background:new" /><rect
         id="rect5474"
         height="1.4"
         width="8.1999998"
         class="st8"
         y="601.5"
         x="195.89999"
         style="opacity:0.6;fill:#4a6db4;enable-background:new" /><rect
         id="rect5476"
         height="1.4"
         width="8.1999998"
         class="st8"
         y="599"
         x="195.89999"
         style="opacity:0.6;fill:#4a6db4;enable-background:new" /><rect
         id="rect5478"
         height="1.4"
         width="8.1999998"
         class="st8"
         y="633.79999"
         x="195.89999"
         style="opacity:0.6;fill:#4a6db4;enable-background:new" /><rect
         id="rect5480"
         height="1.4"
         width="8.1999998"
         class="st8"
         y="631.29999"
         x="195.89999"
         style="opacity:0.6;fill:#4a6db4;enable-background:new" /><rect
         id="rect5482"
         height="1.4"
         width="8.1999998"
         class="st8"
         y="628.79999"
         x="195.89999"
         style="opacity:0.6;fill:#4a6db4;enable-background:new" /><rect
         id="rect5484"
         height="1.4"
         width="8.1999998"
         class="st8"
         y="626.5"
         x="195.89999"
         style="opacity:0.6;fill:#4a6db4;enable-background:new" /><rect
         id="rect5486"
         height="1.4"
         width="8.1999998"
         class="st8"
         y="624"
         x="195.89999"
         style="opacity:0.6;fill:#4a6db4;enable-background:new" /><rect
         id="rect5488"
         height="1.4"
         width="8.1999998"
         class="st8"
         y="621.5"
         x="195.89999"
         style="opacity:0.6;fill:#4a6db4;enable-background:new" /><rect
         id="rect5490"
         height="1.4"
         width="8.1999998"
         class="st8"
         y="619"
         x="195.89999"
         style="opacity:0.6;fill:#4a6db4;enable-background:new" /><rect
         id="rect5492"
         height="1.4"
         width="8.1999998"
         class="st8"
         y="616.5"
         x="195.89999"
         style="opacity:0.6;fill:#4a6db4;enable-background:new" /><rect
         id="rect5494"
         height="1.4"
         width="8.1999998"
         class="st8"
         y="651"
         x="195.89999"
         style="opacity:0.6;fill:#4a6db4;enable-background:new" /><rect
         id="rect5496"
         height="1.4"
         width="8.1999998"
         class="st8"
         y="648.70001"
         x="195.89999"
         style="opacity:0.6;fill:#4a6db4;enable-background:new" /><rect
         id="rect5498"
         height="1.4"
         width="8.1999998"
         class="st8"
         y="646.29999"
         x="195.89999"
         style="opacity:0.6;fill:#4a6db4;enable-background:new" /><rect
         id="rect5500"
         height="1.4"
         width="8.1999998"
         class="st8"
         y="643.79999"
         x="195.89999"
         style="opacity:0.6;fill:#4a6db4;enable-background:new" /><rect
         id="rect5502"
         height="1.4"
         width="8.1999998"
         class="st8"
         y="641.29999"
         x="195.89999"
         style="opacity:0.6;fill:#4a6db4;enable-background:new" /><rect
         id="rect5504"
         height="1.4"
         width="8.1999998"
         class="st8"
         y="638.79999"
         x="195.89999"
         style="opacity:0.6;fill:#4a6db4;enable-background:new" /><rect
         id="rect5506"
         height="1.4"
         width="8.1999998"
         class="st8"
         y="636.29999"
         x="195.89999"
         style="opacity:0.6;fill:#4a6db4;enable-background:new" /></g><polygon
       id="polygon5508"
       points="442.6,572 449.8,572 446.2,578.3 "
       class="st9"
       style="fill:#4a6db4" /><polygon
       id="polygon5510"
       points="309.5,562.5 316.9,562.5 313.3,568.8 "
       class="st9"
       style="fill:#4a6db4" /><polygon
       id="polygon5512"
       points="353.8,240.4 361,240.4 357.4,246.9 "
       class="st14"
       style="fill:#4a6db4;stroke:#ffffff;stroke-miterlimit:10" /><g
       id="g5514"><polygon
         id="polygon5516"
         points="365.5,501.1 369.8,508.5 361.2,508.5 "
         class="st9"
         style="fill:#4a6db4" /><path
         id="path5518"
         d="m 365.5,501.8 3.6,6.4 -7.4,0 3.8,-6.4 m 0,-1.1 -0.5,0.8 -3.6,6.4 -0.5,0.8 1,0 7.4,0 1,0 -0.5,-0.8 -3.6,-6.4 -0.7,-0.8 0,0 z"
         class="st5"
         inkscape:connector-curvature="0"
         style="fill:#ffffff" /></g><g
       id="g5520"><polygon
         id="polygon5522"
         points="361.9,128.2 365.9,135.5 357.5,135.5 "
         class="st9"
         style="fill:#4a6db4" /><path
         id="path5524"
         d="m 361.9,128.9 3.6,6.4 -7.4,0 3.8,-6.4 m 0,-1.2 -0.5,0.8 -3.6,6.4 -0.5,0.8 1,0 7.4,0 1,0 -0.5,-0.8 -3.6,-6.4 -0.7,-0.8 0,0 z"
         class="st5"
         inkscape:connector-curvature="0"
         style="fill:#ffffff" /></g><polygon
       id="polygon5526"
       points="255.7,566.8 262.8,562.5 262.8,570.8 "
       class="st9"
       style="fill:#4a6db4" /><polygon
       id="polygon5528"
       points="340.9,570.3 347.5,573.5 341.3,577.5 "
       class="st9"
       style="fill:#4a6db4" /><g
       id="g5530"><g
         id="g5532"><path
           id="path5534"
           d="m 443.6,529.1 c -0.7,0 -1.1,-0.7 -1.1,-1.1 0,-0.7 0.5,-1.1 1.1,-1.1 0.7,0 1.1,0.7 1.1,1.1 0,0.5 -0.4,1.1 -1.1,1.1 z"
           class="st9"
           inkscape:connector-curvature="0"
           style="fill:#4a6db4" /><path
           id="path5536"
           d="m 444.3,529.7 c 1.1,0 1.7,0.8 2,1.4 l 1,3.6 c 0.1,0.3 0,0.7 -0.1,0.7 -0.1,0 -0.5,0 -0.7,-0.3 l -0.8,-3.2 c 0,-0.1 -0.1,-0.3 -0.3,-0.1 -0.1,0 -0.1,0.1 -0.1,0.3 l 1.7,5.7 -2,0 c 0,2.3 0,4.3 0,4.3 0,0.7 -0.3,0.7 -0.5,0.7 -0.1,0 -0.5,0 -0.5,-0.7 0,-0.7 0,-4.2 0,-4.2 0,-0.1 0,-0.1 -0.1,-0.1 -0.1,0 -0.1,0 -0.1,0.1 0,0 0,3.6 0,4.2 0,0.7 -0.3,0.7 -0.5,0.7 -0.2,0 -0.5,0 -0.5,-0.7 0,0 0,-2.1 0,-4.3 l -2.5,0 1.7,-5.7 c 0,-0.1 0,-0.3 -0.1,-0.3 -0.1,0 -0.3,0 -0.3,0.1 l -0.8,3.2 c -0.1,0.3 -0.3,0.5 -0.7,0.3 -0.1,0 -0.3,-0.3 -0.1,-0.7 l 1,-3.6 c 0.1,-0.5 0.5,-1.4 2,-1.4 l 1.3,0 z"
           class="st9"
           inkscape:connector-curvature="0"
           style="fill:#4a6db4" /></g><g
         id="g5538"><g
           id="g5540"><path
             id="path5542"
             d="m 411.6,529.1 c -0.7,0 -1.4,-0.7 -1.4,-1.4 0,-0.7 0.7,-1.4 1.4,-1.4 0.7,0 1.4,0.7 1.4,1.4 0.1,0.6 -0.6,1.4 -1.4,1.4 z"
             class="st9"
             inkscape:connector-curvature="0"
             style="fill:#4a6db4" /></g><path
           id="path5544"
           d="m 409.3,532.5 0,2.9 c 0,0.5 -0.1,0.7 -0.5,0.7 -0.3,0 -0.5,-0.1 -0.5,-0.7 l 0,-3.6 c 0,-1.5 0.8,-2.1 2.1,-2.1 l 2.3,0 c 1.4,0 2.1,0.3 2.1,2.1 l 0,3.6 c 0,0.5 -0.1,0.7 -0.5,0.7 -0.3,0 -0.5,-0.1 -0.5,-0.7 l 0,-2.9 c 0,-0.3 -0.1,-0.3 -0.1,-0.3 0,0 -0.3,0 -0.3,0.3 0,0.3 0,9.7 0,9.7 0,0.7 -0.5,0.7 -0.7,0.7 -0.2,0 -0.7,0 -0.7,-0.7 0,-0.7 0,-5.7 0,-5.7 0,-0.1 0,-0.3 -0.1,-0.3 -0.1,0 -0.1,0 -0.1,0.3 0,0 0,5 0,5.7 0,0.7 -0.5,0.7 -0.7,0.7 -0.2,0 -0.7,0 -0.7,-0.7 0,0 0,-9.3 0,-9.7 0,-0.4 -0.1,-0.3 -0.3,-0.3 -0.5,-0.2 -0.8,-0.2 -0.8,0.3 z"
           class="st9"
           inkscape:connector-curvature="0"
           style="fill:#4a6db4" /></g></g><polygon
       id="polygon5546"
       points="249.1,572.5 257.5,572.3 253.6,579.5 "
       class="st9"
       style="fill:#4a6db4" /></g></svg>