<?xml version="1.0" encoding="utf-8"?>
<!-- Generator: Adobe Illustrator 19.1.0, SVG Export Plug-In . SVG Version: 6.00 Build 0)  -->
<svg version="1.1" id="Layer_1" xmlns="http://www.w3.org/2000/svg" xmlns:xlink="http://www.w3.org/1999/xlink" x="0px" y="0px"
	 viewBox="0 0 900 600" style="enable-background:new 0 0 900 600;" xml:space="preserve">
<style type="text/css">
	.st0{fill:#4C6EB5;}
	.st1{fill:#989798;}
	.st2{fill:#FFFFFF;}
	.st3{fill:#CDCCCC;}
	.st4{fill:#4B6DB4;}
	.st5{font-family:'ArialMT';}
	.st6{font-size:9.8136px;}
	.st7{font-family:'MyriadPro-Regular';}
	.st8{font-size:11.8885px;}
	.st9{font-size:13.6301px;}
	.st10{font-size:43.6166px;}
	.st11{opacity:0.6;fill:#4B6DB4;enable-background:new    ;}
	.st12{font-size:9.6276px;}
	.st13{font-size:9.4329px;}
</style>
<polygon class="st0" points="253.9,203.1 253.9,209.5 248.4,206.2 "/>
<g>
	<path class="st1" d="M147.8,169.1v1.9h0.1h10.3h0.2h10.2h0.2h10.8h0.2h10.9h0.2v-1.5h2.2v1.5h0.5h10.8h0.2h10.8h0.2h10.8h0.2h10.9
		h0.2v-1.5h2.2v2.2h-1.5v0.1v12v0.2v11.8v0.2v14.4v4.7v0.2h1.9v142.3h-36H196h-31.7h-8.6H144v-26.2v-5.6v-154v-2.7H147.8
		 M153.1,163.6h-5.3h-3.9h-5.5v5.5v2.7V326v5.6V358v5.5h5.5h11.7h8.6H196h8.6h36.1h5.5V358V215.7v-5.3h-1.9v-13.7v-0.2v-11.8v-0.2
		v-6.9h1.5v-5.5v-2v-5.5h-5.5h-2.2h-5.5v1.5H227h-0.2H216h-0.2H205h-0.2h-5.6v-1.5h-5.6h-2.2h-5.5v1.5h-5.6h-0.2H169h-0.2h-10.2
		h-0.2h-5.1L153.1,163.6L153.1,163.6z"/>
</g>
<polygon class="st2" points="238,206.5 238.4,206.5 243,206.5 243,205.6 242.7,204.8 242.2,204 241.9,203.4 241.3,202.8 
	240.7,202.3 240,202 239.2,201.9 238.4,201.7 239.2,201.6 240,201.5 240.7,201 241.3,200.6 241.9,200.1 242.2,199.3 242.7,198.6 
	243,197.7 243,196.9 238.4,196.9 238,196.9 "/>
<polygon class="st2" points="238,216.1 238.4,216.1 243,216.1 243,215.2 242.7,214.4 242.2,213.6 241.9,213.2 241.3,212.4 
	240.7,212 240,211.7 239.2,211.5 238.4,211.5 239.2,211.4 240,211.2 240.7,210.7 241.3,210.3 241.9,209.8 242.2,209 242.7,208.4 
	243,207.5 243,206.7 238.4,206.7 238,206.7 "/>
<polygon class="st3" points="166,338.2 165.1,337.9 164.4,337.6 163.9,337 163.1,336.6 162.8,335.9 162.5,335.2 162.1,334.4 
	162.1,333.5 162,334.4 161.9,335.2 161.4,335.9 161.1,336.6 160.4,337 159.7,337.6 159,337.9 158.3,338.2 157.5,338.2 157.5,333.5 
	145.3,333.5 145.3,356.1 155.1,356.1 155.1,357 163.9,357 163.9,356.1 184.8,356.1 184.8,333.5 166.8,333.5 166.8,338.2 "/>
<polygon class="st3" points="189.2,213.2 180.9,213.2 180.9,222.9 182.5,222.9 182.5,228.7 202.3,228.7 202.3,213.2 194.8,213.2 
	194.8,212.6 189.2,212.6 "/>
<polygon class="st3" points="204.4,356.1 238.5,356.1 238.5,333.5 185.9,333.5 185.9,356.1 195.8,356.1 195.8,357 204.4,357 "/>
<polygon class="st4" points="145.3,332.5 155.5,332.5 151.1,323.1 151.8,322.5 156.4,332.5 157.5,332.5 157.5,333.1 166.8,333.1 
	166.8,332.5 227.3,332.5 232,322.5 232.8,323.1 232.1,324.5 233.6,324.5 233.7,323.8 233.8,323.1 234,322.1 234.7,321.6 235.3,321 
	235.7,320.4 236.7,320.2 237.5,319.9 238.2,319.9 238.2,324.5 238.5,324.5 238.5,218.4 215.2,218.4 215.2,217.5 204.5,217.5 
	204.5,218.4 202.9,218.4 202.9,229.6 180.2,229.6 180.2,218.4 179.4,218.4 179.4,217.5 168.8,217.5 168.8,218.4 145.3,218.4 
	145.3,326 144.5,326 144.5,331.7 145.3,331.7 "/>
<text transform="matrix(1 0 0 1 183.7108 277.5361)" class="st2 st5 st6">1500</text>
<g>
	<text transform="matrix(1 0 0 1 483.161 98.0602)" class="st3 st7 st8">E</text>
	<rect x="448.9" y="520.7" class="st3" width="26.2" height="21.5"/>
	<g>
		<text transform="matrix(1 0 0 1 269.54 59.0215)" class="st1 st5 st9">Level </text>
	</g>
	<circle class="st1" cx="324.1" cy="56.8" r="23.1"/>
	<text transform="matrix(1 0 0 1 312.664 72.9365)" class="st2 st5 st10">2</text>
	<polygon class="st0" points="350.3,466 350.3,472.5 344.6,469.2 	"/>
	<polygon class="st0" points="353.9,472.4 353.9,465.9 359.6,469.1 	"/>
	<g>
		<path class="st1" d="M453.4,270.9v2v15.7h38v12v7.6v0.2h2v1.6h-2v0.2v7.6v19.9v7.6v0.3h2v1.6h-2v0.2v7.6v19.9v7.6v0.3h2v1.6h-2
			v0.2v7.6v20.2v7.6v0.6h2v1.6h-2v0.2v7.6v34.7h4.7v0.7l-0.1,0.7l-0.2,0.7l-0.3,0.6l-0.3,0.6l-0.6,0.3l-0.6,0.3l-0.7,0.2l-0.7,0.2
			v0.1l0.7,0.1l0.7,0.2l0.6,0.3l0.6,0.3l0.3,0.6l0.3,0.6l0.2,0.7l0.1,0.7v0.7h-4.7V495v2.4v6.7h1.8h0.6l0.6,0.1l0.3,0.2l0.3,0.3
			l0.3,0.3l0.2,0.3l0.1,0.6v0.6v2.7v0.6l-0.1,0.6l-0.2,0.3L495,511l-0.3,0.3l-0.3,0.2l-0.6,0.1h-0.6h-1.8v42h-47.6v16.8v0.7
			l-0.1,0.6l-0.2,0.6l-0.3,0.6l-0.3,0.3l-0.6,0.3l-0.6,0.2l-0.6,0.1h-0.7h-4.8h-5.1h-33.2h-0.7l-0.6-0.1l-0.6-0.2l-0.6-0.3l-0.3-0.3
			l-0.3-0.6l-0.2-0.6l-0.1-0.6v-0.7v-16.8h-23.2v-11.9V534v-0.2h-2v-1.6h2v0.1v-7.7v-27.3h-36v37.3H197.1v-22.7h-20v-38.7h-1.7h-0.6
			l-0.6-0.1l-0.3-0.2l-0.3-0.3l-0.3-0.3l-0.2-0.3l-0.1-0.6v-0.6v-3v-0.6l0.1-0.6l0.2-0.3l0.3-0.3l0.3-0.3l0.3-0.2l0.6-0.1h0.6h1.9
			v-26.8h12h7.6h0.2v-2h1.6v2h0.2h7.6h21h7.6h0.2v-2h1.6v2h0.3h7.6H266h7.6h0.2v-2h1.6v2h0.3h7.6h21.1h7.6h0.3v-2h1.6v2h0.2h7.6
			h11.9V458H348v-1.8v-0.6l0.1-0.6l0.2-0.3l0.3-0.3l0.3-0.3l0.3-0.2l0.6-0.1h0.6h2.7h0.6l0.6,0.1l0.3,0.2l0.3,0.3l0.3,0.3l0.2,0.3
			l0.1,0.6v0.6v1.8h13.7l0,0v-27.4v-8v-0.3h-1.3v-1.6h2v-0.3v-7.6V393v-7.8V385h-2v-1.6h2v-0.5v-7.7v-19.8v-7.7v-0.2h-2v-1.6h2v-0.2
			V338v-19.9v-7.8v-0.2h-2v-1.6h2v-0.3v-7.7v-11.8H413v-15.8v-2h0.6h0.6h37.4h0.6L453.4,270.9 M459,265.3h-5.5h-0.6h-0.6H415h-0.6
			h-0.6h-5.7v5.5v2V283h-37.6H365v5.5v11.9v2.7h-2v5.5v1.6v5.5h2v2.6v19.9v2.7h-2v5.5v1.6v5.5h2v2.6v19.8v2.7h-2v5.5v1.6v5.5h2v2.6
			v19.8v2.7h-2v5.5v1.6v5.5h2v2.6v21.9h-3.6l-0.1-0.2l-0.2-0.3l-0.2-0.3l-0.2-0.3l-0.3-0.3l-0.2-0.2l-0.2-0.2l-0.3-0.3l-0.3-0.2
			l-0.3-0.2l-0.3-0.2l-0.3-0.2l-0.6-0.1l-0.6-0.1l-0.3-0.1h-0.3h-0.6h-0.2h-0.3h-3h-0.9h-0.2h-0.6H350l-0.3,0.1l-0.6,0.1l-0.3,0.1
			l-0.3,0.2l-0.3,0.2l-0.3,0.2l-0.3,0.3l-0.3,0.3l-0.2,0.2l-0.2,0.2l-0.3,0.3l-0.3,0.3l-0.2,0.6l-0.2,0.3H342v-14.4v-5.5h-5.5h-11.9
			H322v-2h-5.8h-1.6h-5.5v2h-2.7h-21.1h-3.1v-2h-5.5h-1.6h-5.5v2H267h-21.1h-2.7v-2H238h-1.8h-5.5v2h-2.6h-20.9h-2.4v-2H199h-1.6
			h-5.3v2h-2.6h-12H172v5.5V461l-0.2,0.1l-0.3,0.2l-0.3,0.2l-0.6,0.3l-0.3,0.3l-0.2,0.2l-0.2,0.2l-0.3,0.3l-0.3,0.3l-0.2,0.3
			l-0.2,0.3l-0.2,0.3l-0.1,0.3l-0.1,0.6l-0.2,0.7v0.7v0.6v0.1v0.1v2.7v0.1v0.1v0.6v0.6l0.1,0.6l0.1,0.6l0.1,0.6l0.2,0.6l0.2,0.3
			l0.2,0.3l0.2,0.3l0.3,0.3l0.2,0.2l0.2,0.2l0.3,0.3l0.3,0.2l0.3,0.2l0.3,0.2l0.2,0.1v34.1v5.5h5.5h14.5V533v5.5h5.5h137.6h5.5V533
			v-31.7h25v23.1v2.7h-2.2v5.5v1.6v5.5h2v2.7v11.9v5.5h5.5h17.2v11.4v0.2v0.2v0.7v0.3l0.1,0.3l0.1,0.6l0.1,0.6l0.2,0.3l0.2,0.6
			l0.1,0.2l0.2,0.2l0.3,0.6l0.2,0.3l0.2,0.2l0.3,0.3l0.2,0.2l0.2,0.2l0.6,0.3l0.6,0.3l0.6,0.2l0.6,0.2l0.3,0.1l0.3,0.1l0.6,0.1
			l0.3,0.1h0.3h0.7h0.2h0.2h33.2h5.1h4.8h0.2h0.2h0.7h0.3l0.3-0.1l0.6-0.1l0.3-0.1l0.3-0.1l0.6-0.2l0.6-0.2l0.6-0.3l0.6-0.3l0.2-0.2
			l0.2-0.2l0.3-0.3l0.2-0.2l0.2-0.3l0.3-0.6l0.2-0.2l0.1-0.2l0.2-0.6l0.2-0.3l0.1-0.6l0.1-0.6l0.1-0.3v-0.2v-0.7v-0.2v-0.2V560h43.1
			h5.5v-5.6v-37.5l0.2-0.1l0.3-0.2l0.3-0.2l0.3-0.2l0.3-0.3l0.2-0.2l0.2-0.2l0.3-0.3l0.3-0.3l0.2-0.3l0.2-0.3l0.2-0.3l0.1-0.3
			l0.1-0.6l0.1-0.3v-0.3v-0.6v-0.2v-0.2v-3.1v-0.2V508v-0.6v-0.3l-0.1-0.3l-0.1-0.6l-0.1-0.6l-0.2-0.3l-0.2-0.3l-0.2-0.3l-0.2-0.3
			l-0.3-0.3l-0.2-0.2l-0.2-0.2l-0.3-0.3l-0.3-0.2l-0.3-0.2l-0.3-0.2l-0.2-0.1V500v-2.4v-15.5h5.2l-0.6-6v-0.7v-1.6v-0.2l-0.1-0.7
			l-0.1-0.3l-0.2-0.3l-0.2-0.7l-0.1-0.3l0,0l0.1-0.2l0.2-0.7l0.2-0.3l0.1-0.6l0.1-0.7l0.1-0.3v-0.9v-0.7l0.3-6h-5.2v-29.2v-2.4h2
			v-5.5v-1.6v-5.5h-2V414v-19.9v-2h2v-5.5V385v-5.7h-2v-2.7v-19.8v-2.6h2v-5.5v-1.6v-5.5h-2v-2.7V319v-2.6h2v-5.5v-1.6v-5.5h-2v-2.6
			v-12v-5.5h-5.5h-32.7v-10v-2L459,265.3L459,265.3z"/>
	</g>
	<polygon class="st3" points="493,469.2 493.8,469 494.3,468.7 494.9,468.2 495.4,467.5 495.7,467 495.9,466.2 496.2,465.5 
		496.3,465 491.7,465 490.7,465 490.7,474.2 491.7,474.2 496.3,474.2 496.2,473.5 495.9,472.7 495.7,472 495.4,471.6 494.9,470.9 
		494.3,470.4 493.8,470.1 493,469.7 492.3,469.5 491.7,469.5 492.3,469.5 	"/>
	<polygon class="st3" points="448.1,441.2 445,441.2 442.6,441.2 436.3,441.2 436.3,442.4 441.8,442.4 441.8,443 441.7,444 
		441.5,444.5 441.2,445.3 440.7,446 440,446.6 439.5,447 438.7,447.5 438,447.7 437.1,447.8 436.3,447.9 436.3,461.9 453.6,461.9 
		453.6,441.2 452.8,441.2 452.8,440.9 448.1,440.9 	"/>
	<polygon class="st4" points="442.8,329.1 442.8,327.3 438.8,327.3 438.8,326.9 429.6,326.9 429.6,327.3 425.6,327.3 425.6,329.1 
		423.2,329.1 423.2,327.3 409.2,327.3 409.2,334.8 408.7,334.8 408.7,365.7 423.2,365.7 423.2,364.2 425.6,364.2 425.6,365.7 
		442.8,365.7 442.8,364.2 445,364.2 445,365.7 454.1,365.7 454.1,327.3 445.1,327.3 445.1,329.1 	"/>
	<polygon class="st3" points="423.3,439 426.3,439 426.3,428.4 425.6,428.3 424.8,428 424,427.8 423.3,427.5 422.9,427 422.1,426.5 
		421.6,425.8 421.3,425 421.1,424.3 420.7,423.4 420.7,422.8 426.3,422.8 426.3,421.7 410,421.7 410,429.4 409.1,429.4 409.1,450.5 
		426.3,450.5 426.3,441.3 423.3,441.3 	"/>
	<polygon class="st3" points="425.6,366.7 423.2,366.7 408.9,366.7 408.9,383.5 428.6,383.5 428.6,377.9 429.5,378 430.1,378.2 
		431.1,378.4 431.6,378.8 432.2,379.2 432.8,379.9 433.3,380.4 433.6,381.2 433.9,381.9 434.1,382.8 434.2,383.5 453.8,383.5 
		453.8,366.7 445,366.7 442.8,366.7 	"/>
	<polygon class="st3" points="438,395.9 438.7,396.2 439.5,396.6 440,396.9 440.7,397.6 441.2,398.3 441.5,399 441.7,399.6 
		441.8,400.4 441.8,401.3 436.3,401.3 436.3,402.1 442.6,402.1 442.6,401.5 445,401.5 445,402.1 453.6,402.1 453.6,384.5 
		436.3,384.5 436.3,395.8 437.1,395.8 	"/>
	<polygon class="st3" points="442.6,403.8 442.6,403.2 436.3,403.2 436.3,414.3 437.1,414.5 438,414.6 438.7,414.9 439.5,415.2 
		440,415.8 440.7,416.3 441.2,416.9 441.5,417.7 441.7,418.4 441.8,419.3 441.8,420 436.3,420 436.3,434.1 437.1,434.1 438,434.2 
		438.7,434.6 439.5,434.9 440,435.3 440.7,436 441.2,436.6 441.5,437.3 441.7,438 441.8,438.8 441.8,439.6 436.3,439.6 436.3,440.5 
		442.6,440.5 442.6,438.8 445,438.8 445,440.5 448.1,440.5 448.1,439.8 448.2,439.1 448.6,438.6 449,437.8 449.5,437.3 449.9,436.9 
		450.7,436.3 451.3,436.1 451.8,436 452.8,435.9 452.8,440.5 453.6,440.5 453.6,430.7 452.8,430.7 452.8,421 453.6,421 453.6,403.2 
		445,403.2 445,403.8 	"/>
	<polygon class="st3" points="420.7,416 421.1,415.2 421.3,414.6 421.6,414 422.1,413.2 422.9,412.7 423.3,412.3 424,411.8 
		424.8,411.5 425.6,411.3 426.3,411.2 426.3,403.8 423.3,403.8 423.3,403.2 414.8,403.2 414.8,402.7 410,402.7 410,403.2 
		409.1,403.2 409.1,421 420.5,421 420.5,417.8 426.3,417.8 426.3,416.8 420.7,416.8 	"/>
	<polygon class="st3" points="410.6,397.6 411.5,397.7 412.1,398 412.9,398.4 413.3,398.7 413.8,399.5 414.1,400.1 414.6,400.9 
		414.7,401.5 414.8,402.1 423.3,402.1 423.3,401.5 426.3,401.5 426.3,393 425.6,393 424.8,392.9 424,392.7 423.3,392.1 422.9,391.7 
		422.1,391.2 421.6,390.4 421.3,389.9 421.1,389.1 420.7,388.3 420.7,387.4 426.3,387.4 426.3,384.5 409.1,384.5 409.1,385.3 
		408.6,385.3 408.6,391 409.1,391 409.1,402.1 410,402.1 410,397.6 	"/>
	<polygon class="st3" points="395.9,353.4 395.4,353.3 394.5,353.2 393.8,352.7 393.1,352.5 392.3,351.9 391.8,351.5 391.4,350.8 
		390.9,350.1 390.6,349.2 390.5,348.6 390.4,347.7 395.9,347.7 395.9,346.8 372.8,346.8 372.8,347.4 372.8,347.8 372.8,355.4 
		372.8,365.1 395.9,365.1 	"/>
	<polygon class="st3" points="395.9,428 395.4,427.9 394.5,427.8 393.8,427.7 393.1,427.1 392.3,426.7 391.8,426.1 391.4,425.5 
		390.9,424.9 390.6,424.1 390.5,423.3 390.4,422.5 395.9,422.5 395.9,421.6 372.8,421.6 372.8,422.4 372.8,422.6 372.8,430.3 
		372.8,439.9 395.9,439.9 	"/>
	<polygon class="st3" points="395.9,462.2 395.9,461.2 390.4,461.2 390.5,460.5 390.6,459.6 390.9,459 391.4,458.3 391.8,457.6 
		392.3,457 393.1,456.7 393.8,456.1 394.5,455.9 395.4,455.8 395.9,455.5 395.9,440.3 372.8,440.3 372.8,457.6 373.9,457.6 
		373.9,459.9 372.8,459.9 372.8,462.2 	"/>
	<polygon class="st3" points="395.9,382.9 390.4,382.9 390.5,382 390.6,381.2 390.9,380.4 391.4,379.9 391.8,379.2 392.3,378.5 
		393.1,378.2 393.8,377.9 394.5,377.4 395.4,377.3 395.9,377.3 395.9,365.3 372.8,365.3 372.8,375.2 372.8,382.9 372.8,383.4 
		372.8,383.7 395.9,383.7 	"/>
	<polygon class="st3" points="395.9,390.7 395.4,390.7 394.5,390.4 393.8,390.2 393.1,389.9 392.3,389.4 391.8,388.8 391.4,388.3 
		390.9,387.4 390.6,386.7 390.5,385.9 390.4,385.2 395.9,385.2 395.9,384.1 372.8,384.1 372.8,384.9 372.8,385.2 372.8,392.9 
		372.8,402.6 395.9,402.6 	"/>
	<polygon class="st3" points="395.9,420.4 390.4,420.4 390.5,419.5 390.6,418.6 390.9,417.9 391.4,417.4 391.8,416.6 392.3,416 
		393.1,415.7 393.8,415.1 394.5,414.9 395.4,414.8 395.9,414.8 395.9,402.8 372.8,402.8 372.8,412.7 372.8,420.4 372.8,420.9 
		372.8,421.2 395.9,421.2 	"/>
	<polygon class="st3" points="356.2,478 356.2,483.6 355.5,483.6 354.6,483.5 353.9,483.3 353.2,482.7 352.5,482.1 352,481.7 
		351.5,481 351.1,480.3 350.8,479.6 350.7,478.8 350.6,478 334.9,478 334.9,496.3 357.4,496.3 357.4,478 	"/>
	<polygon class="st3" points="299.5,526.1 298.6,526 297.9,525.8 297.1,525.2 296.6,524.9 296.1,524.3 295.5,523.6 295.2,522.9 
		294.9,522.1 294.8,521.3 294.7,520.7 300.3,520.7 300.3,519.5 291.2,519.5 288.8,519.5 288.2,519.5 285.9,519.5 276.9,519.5 
		276.9,532.9 300.3,532.9 300.3,526.1 	"/>
	<polygon class="st3" points="370.9,478 365.3,478 365.1,478.8 364.8,479.6 364.7,480.3 364.4,481 363.8,481.7 363.1,482.1 
		362.6,482.7 362,483.3 361.1,483.5 360.5,483.6 359.6,483.6 359.6,478 358.2,478 358.2,496.3 370.9,496.3 370.9,495.2 	"/>
	<polygon class="st3" points="466.6,385 472.4,385 472.3,385.9 472.1,386.6 471.7,387.4 471.4,388.2 470.9,388.6 470.5,389.3 
		469.7,389.9 469.1,390.2 468.2,390.3 467.4,390.7 466.6,390.7 466.6,402.6 490,402.6 490,392.8 490,385.2 490,384.9 490,384.1 
		466.6,384.1 	"/>
	<polygon class="st3" points="466.6,414.8 467.4,414.8 468.2,414.9 469.1,415.1 469.7,415.7 470.5,416 470.9,416.6 471.4,417.4 
		471.7,417.9 472.1,418.6 472.3,419.5 472.4,420.4 466.6,420.4 466.6,421.2 490,421.2 490,420.9 490,420.2 490,412.7 490,402.8 
		466.6,402.8 	"/>
	<polygon class="st3" points="466.6,349 472.4,349 472.3,349.9 472.1,350.7 471.7,351.5 471.4,352 470.9,352.7 470.5,353.3 
		469.7,353.7 469.1,354.2 468.2,354.4 467.4,354.5 466.6,354.8 466.6,365.1 490,365.1 490,355.4 490,347.8 490,347.4 490,346.9 
		466.6,346.9 	"/>
	<polygon class="st3" points="466.6,377.1 467.4,377.3 468.2,377.4 469.1,377.8 469.7,378.2 470.5,378.5 470.9,379.1 471.4,379.9 
		471.7,380.4 472.1,381.2 472.3,381.9 472.4,382.8 466.6,382.8 466.6,383.7 490,383.7 490,383.4 490,382.9 490,375.2 490,365.4 
		466.6,365.4 	"/>
	<polygon class="st3" points="395.9,345.4 390.4,345.4 390.5,344.5 390.6,344 390.9,343.1 391.4,342.4 391.8,341.8 392.3,341.2 
		393.1,340.7 393.8,340.4 394.5,340.1 395.4,340 395.9,339.9 395.9,334.4 395.7,334.4 395.7,332.3 395.9,332.3 395.9,327.8 
		372.8,327.8 372.8,337.8 372.8,345.6 372.8,345.9 372.8,346.5 395.9,346.5 	"/>
	<polygon class="st3" points="466.6,422.6 472.4,422.6 472.3,423.3 472.1,424.2 471.7,424.9 471.4,425.7 470.9,426.1 470.5,426.8 
		469.7,427.4 469.1,427.7 468.2,427.9 467.4,428 466.6,428 466.6,453.5 490,453.5 490,430.3 490,422.6 490,422.4 490,421.7 
		466.6,421.7 	"/>
	<polygon class="st3" points="466.6,339.9 467.4,340 468.2,340.1 469.1,340.4 469.7,340.7 470.5,341.2 470.9,341.8 471.4,342.4 
		471.7,343.1 472.1,344 472.3,344.5 472.4,345.4 466.6,345.4 466.6,346.5 490,346.5 490,345.9 490,345.4 490,337.8 490,328.2 
		466.6,328.2 	"/>
	<polygon class="st3" points="395.9,315.7 395.4,315.7 394.5,315.6 393.8,315.2 393.1,314.8 392.3,314.3 391.8,313.8 391.4,313.1 
		390.9,312.4 390.6,311.6 390.5,310.8 390.4,309.9 395.9,309.9 395.9,309.3 372.8,309.3 372.8,309.9 372.8,310.3 372.8,317.9 
		372.8,327.6 395.9,327.6 	"/>
	<polygon class="st3" points="422.1,291.2 422,292 421.7,292.8 421.5,293.6 421.2,294.4 420.6,294.9 420.1,295.6 419.5,296 
		418.7,296.3 418,296.7 417.1,296.8 416.5,296.8 416.5,308.3 426.8,308.3 426.8,290.2 416.5,290.2 416.5,291.2 	"/>
	<polygon class="st3" points="483.7,309 478,309 478,309.4 466.6,309.4 466.6,310.3 472.4,310.3 472.3,311.1 472.1,312 471.7,312.6 
		471.4,313.3 470.9,314 470.5,314.4 469.7,315 469.1,315.6 468.2,315.7 467.4,315.8 466.6,315.9 466.6,327.8 490,327.8 490,317.9 
		490,310.4 490,309.9 490,309.4 483.7,309.4 	"/>
	<polygon class="st3" points="478,308.5 478,302.9 478.9,302.9 479.7,303.1 480.4,303.3 481,303.8 481.8,304.2 482.4,304.8 
		482.8,305.6 483.1,306.1 483.5,306.8 483.7,307.7 483.7,308.5 490,308.5 490,308.2 490,300.6 490,290.2 477.3,290.2 477.3,308.5 	
		"/>
	<polygon class="st3" points="365.4,463.8 365.5,464.5 365.6,465.4 365.8,466.1 366.2,466.9 366.7,467.5 367.3,467.9 367.9,468.6 
		368.6,469 369.4,469.2 370.1,469.3 370.9,469.3 370.1,469.5 369.4,469.7 368.6,470 367.9,470.4 367.3,470.8 366.7,471.5 366.2,472 
		365.8,472.7 365.6,473.5 365.5,474.3 365.4,475.1 370.9,475.1 371.9,475.1 371.9,463.8 370.9,463.8 	"/>
	<polygon class="st3" points="327,463.8 327,464.5 327.3,465.4 327.6,466.1 327.9,466.9 328.4,467.5 329,467.9 329.6,468.6 
		330.3,469 330.9,469.2 331.7,469.3 332.6,469.3 331.7,469.5 330.9,469.7 330.3,470 329.6,470.4 329,470.8 328.4,471.5 327.9,472 
		327.6,472.7 327.3,473.5 327,474.3 327,475.1 332.6,475.1 333.4,475.1 333.4,463.8 332.6,463.8 	"/>
	<rect x="399.2" y="499.5" class="st3" width="12.6" height="16.1"/>
	<rect x="385.9" y="499.5" class="st3" width="12.8" height="16.1"/>
	<polygon class="st3" points="424.9,513.7 424.9,499.5 412.2,499.5 412.2,515.5 423.2,515.5 423.2,513.7 	"/>
	<polygon class="st3" points="298.6,498 297.9,497.9 297.1,497.4 296.6,496.8 296.1,496.3 295.5,495.7 295.2,495 294.9,494.3 
		294.8,493.5 294.7,492.6 300.3,492.6 300.3,491.7 291.2,491.7 288.8,491.7 288.2,491.7 285.9,491.7 276.9,491.7 276.9,504.7 
		300.3,504.7 300.3,498.3 299.5,498.3 	"/>
	<polygon class="st3" points="288.8,518.5 291.2,518.5 300.3,518.5 300.3,517.6 294.7,517.6 294.8,516.7 294.9,516 295.2,515.1 
		295.5,514.5 296.1,513.8 296.6,513.3 297.1,512.9 297.9,512.6 298.6,512.1 299.5,511.9 300.3,511.9 300.3,505.4 276.9,505.4 
		276.9,518.5 285.9,518.5 288.2,518.5 	"/>
	<polygon class="st3" points="288.8,490.7 291.2,490.7 300.3,490.7 300.3,489.7 294.7,489.7 294.8,488.8 294.9,488 295.2,487.2 
		295.5,486.6 296.1,485.8 296.6,485.4 297.1,484.9 297.9,484.6 298.6,484.2 299.5,484 300.3,484 300.3,477.2 295.8,477.2 
		295.8,478.7 293.4,478.7 293.4,477.2 276.9,477.2 276.9,490.7 285.9,490.7 288.2,490.7 	"/>
	<polygon class="st3" points="395.9,308.3 409.1,308.3 409.2,307.6 409.5,306.7 409.7,306 410.1,305.4 410.5,304.8 411.2,304.1 
		411.6,303.6 412.4,303.2 413.2,302.9 414,302.8 414.8,302.8 414.8,308.3 415.6,308.3 415.6,296.8 416.1,296.8 416.1,291.2 
		415.6,291.2 415.6,290.2 372.8,290.2 372.8,300.4 372.8,308.2 372.8,308.5 372.8,308.8 395.9,308.8 	"/>
	<polygon class="st3" points="450.8,546.7 449.9,546.7 449.9,539.2 443.2,539.2 443.2,539.9 448.2,539.9 448.2,540.7 448,541.4 
		447.8,542.2 447.4,542.9 446.8,543.4 446.2,543.9 445.7,544.3 444.9,544.6 444.1,544.9 443.2,544.9 443.2,552.4 490,552.4 
		490,539.2 488.8,539.2 450.8,539.2 	"/>
	<polygon class="st3" points="467.8,521.5 467.3,521.5 467.3,526.5 467.8,526.5 467.8,534.7 488.8,534.7 488.8,532.7 490,532.7 
		490,520.7 489.6,520.7 467.8,520.7 	"/>
	<polygon class="st3" points="415,288.4 428.4,288.4 428.4,282.9 429.3,282.9 429.9,283.1 430.6,283.3 431.4,283.7 432.1,284.2 
		432.6,284.8 433.1,285.3 433.4,286.2 433.7,286.8 433.9,287.7 434.1,288.4 434.1,287.7 434.3,286.8 434.6,286.2 434.9,285.3 
		435.4,284.8 436.1,284.2 436.6,283.7 437.2,283.3 438,283.1 438.8,282.9 439.7,282.9 439.7,288.4 452.5,288.4 452.5,272.8 
		452.5,270.7 415,270.7 415,272.8 	"/>
	<polygon class="st3" points="465,496.2 459.5,496.2 459.5,496.6 458.3,496.6 458.3,519.6 489.6,519.6 489.6,511 484.3,511 
		484.5,510.1 484.6,509.4 485.1,508.5 485.5,507.8 486,507.2 486.5,506.7 487.3,506.3 488,506 488.9,505.7 489.6,505.7 489.6,497.4 
		488.8,497.4 488.8,496.6 465,496.6 	"/>
	<polygon class="st3" points="466.6,482.7 472.4,482.7 472.3,483.6 472.1,484.3 471.7,485.2 471.4,485.8 470.9,486.5 470.5,487 
		469.7,487.5 469.1,487.9 468.2,488.2 467.4,488.3 466.6,488.4 466.6,495.7 488.8,495.7 488.9,495 490,495 490,476.9 466.6,476.9 	
		"/>
	<polygon class="st3" points="178.1,471.8 178.1,466.6 177.3,466.6 177.3,465.1 175.5,465.1 174.9,465.2 174.5,465.3 173.9,465.5 
		173.6,465.9 173.2,466.2 173,466.8 172.7,467.2 172.7,467.8 172.7,470.5 172.7,471 173,471.7 173.2,472 173.6,472.5 173.9,472.7 
		174.5,473.2 174.9,473.4 175.5,473.4 177.3,473.4 177.3,471.8 	"/>
	<polygon class="st3" points="424.9,524.3 424,524.2 423.3,524.1 422.6,523.7 421.7,523.3 421.3,522.9 420.6,522.4 420.1,521.6 
		419.8,521 419.6,520.2 419.5,519.4 419.3,518.6 424.9,518.6 424.9,516.3 423.2,516.3 372.8,516.3 372.8,524.9 372.8,532.7 
		372.8,532.9 372.8,534.4 372.8,534.7 372.8,542.5 372.8,552.5 395.1,552.5 424.9,552.5 	"/>
	<polygon class="st3" points="444.9,507.4 445.8,507.8 446.3,508.2 447,508.5 447.6,509.3 448,509.9 448.3,510.4 448.7,511.2 
		448.9,512 449,512.9 443.2,512.9 443.2,513.7 445.1,513.7 445.1,516 443.2,516 443.2,519.5 457.8,519.5 457.8,485.2 443.2,485.2 
		443.2,507.2 444.1,507.2 	"/>
	<rect x="372.8" y="499.5" class="st3" width="13" height="16.1"/>
	<rect x="327.3" y="439.6" class="st3" width="6" height="22.3"/>
	<polygon class="st3" points="227.3,493.4 227.4,492.6 227.8,491.8 228.1,491.1 228.7,490.5 229.1,490 229.8,489.6 230.6,489 
		231.3,488.8 232.2,488.5 232.9,488.5 232.9,477.2 223.5,477.2 223.5,483 218.8,483 218.8,478.5 216.2,478.5 216.2,477.2 
		198.8,477.2 198.8,495.2 232.9,495.2 232.9,494.1 227.3,494.1 	"/>
	<polygon class="st3" points="243.8,488.7 244.5,489 245.3,489.3 245.9,489.9 246.4,490.3 247,491.1 247.3,491.8 247.5,492.5 
		247.8,493.4 247.9,494 242.3,494 242.3,513.8 256.6,513.8 258.8,513.8 259.4,513.8 261.6,513.8 275.8,513.8 275.8,477 264.5,477 
		264.5,478.5 254.9,478.5 254.9,477 242.3,477 242.3,488.5 243,488.5 	"/>
	<polygon class="st3" points="490.7,505.7 490.7,511 491.7,511 491.7,512.6 493.5,512.6 494,512.6 494.5,512.1 495,512 495.5,511.7 
		495.7,511.2 495.9,510.9 496.2,510.2 496.3,509.6 496.3,506.9 496.2,506.5 495.9,505.9 495.7,505.4 495.5,505 495,504.7 
		494.5,504.5 494,504.1 493.5,504.1 491.7,504.1 491.7,505.7 	"/>
	<polygon class="st3" points="276.7,462.1 276.7,456.3 277.5,456.3 278.3,456.7 279.1,456.9 279.9,457.2 280.4,457.8 280.9,458.5 
		281.5,459 281.9,459.6 282.1,460.5 282.3,461.2 282.3,462.1 294.7,462.1 294.7,439.5 284.1,439.5 276.6,439.5 276.2,439.5 
		275.6,439.5 275.6,462.1 	"/>
	<polygon class="st3" points="307.4,462.1 307.4,461.2 307.7,460.5 308,459.6 308.3,459 308.7,458.5 309.4,457.8 309.9,457.2 
		310.6,456.9 311.4,456.7 312.2,456.3 313.1,456.3 313.1,462.1 313.8,462.1 313.8,439.6 313.8,439.5 313.3,439.5 313.1,439.5 
		305.3,439.5 294.9,439.5 294.9,462.1 	"/>
	<polygon class="st3" points="268.6,462.1 268.7,461.2 268.9,460.5 269.1,459.6 269.5,459 270,458.5 270.5,457.8 271.2,457.2 
		272,456.9 272.7,456.7 273.6,456.3 274.1,456.3 274.1,462.1 275.3,462.1 275.3,439.5 274.7,439.5 274.4,439.5 266.7,439.5 
		256.2,439.5 256.2,462.1 	"/>
	<polygon class="st3" points="229.9,462.1 229.9,461.2 230.4,460.5 230.5,459.6 231,459 231.4,458.5 232,457.8 232.5,457.2 
		233.2,456.9 234.1,456.7 234.7,456.3 235.6,456.3 235.6,462.1 236.4,462.1 236.4,439.5 235.9,439.5 235.6,439.5 228,439.5 
		217.5,439.5 217.5,462.1 	"/>
	<polygon class="st3" points="238.1,462.1 238.1,456.3 238.9,456.3 239.7,456.7 240.5,456.9 241.1,457.2 241.9,457.8 242.4,458.5 
		242.8,459 243.2,459.6 243.6,460.5 243.7,461.2 243.8,462.1 255.8,462.1 255.8,439.5 245.5,439.5 237.9,439.5 237.4,439.5 
		237,439.5 237,462.1 	"/>
	<polygon class="st3" points="315.4,462.1 315.4,456.3 316.2,456.3 317,456.7 317.8,456.9 318.4,457.2 319.2,457.8 319.7,458.5 
		320,459 320.5,459.6 320.8,460.5 320.9,461.2 321.2,462.1 326.4,462.1 326.4,439.6 323,439.6 315.3,439.6 315,439.6 314.5,439.6 
		314.5,462.1 	"/>
	<polygon class="st3" points="321.7,519.5 321.2,519.5 319,519.5 309.6,519.5 309.6,520.7 315.1,520.7 315.1,521.3 315,522.1 
		314.8,522.9 314.4,523.6 313.8,524.3 313.2,524.9 312.6,525.2 312,525.8 311.2,526 310.4,526.1 309.6,526.1 309.6,532.9 
		333.4,532.9 333.4,519.5 324,519.5 	"/>
	<polygon class="st3" points="309.6,512 310.4,512 311.2,512.1 312,512.6 312.6,512.9 313.2,513.3 313.8,513.8 314.4,514.6 
		314.8,515.3 315,516 315.1,516.8 315.1,517.6 309.6,517.6 309.6,518.6 319,518.6 321.2,518.6 321.7,518.6 324,518.6 333.4,518.6 
		333.4,505.5 309.6,505.5 	"/>
	<polygon class="st3" points="323.6,491.7 321.4,491.7 320.8,491.7 318.6,491.7 309.6,491.7 309.6,492.6 315.1,492.6 315.1,493.5 
		315,494.3 314.8,495 314.4,495.7 313.8,496.3 313.2,496.8 312.6,497.4 312,497.9 311.2,498 310.4,498.3 309.6,498.3 309.6,504.7 
		329.6,504.7 329.6,497.4 333.4,497.4 333.4,496.3 333.4,491.7 	"/>
	<polygon class="st3" points="232.2,521.5 231.3,521.3 230.6,521.1 229.8,520.7 229.1,520.2 228.7,519.5 228.1,519 227.8,518.3 
		227.4,517.6 227.3,516.7 227.3,515.9 232.9,515.9 232.9,514.9 198.8,514.9 198.8,532.9 232.9,532.9 232.9,521.5 	"/>
	<polygon class="st3" points="198.1,475.7 198.1,462.7 197,462.7 197,462.5 191.4,462.5 191.4,462.7 178.8,462.7 178.8,466.6 
		184,466.6 184,467.4 183.8,468.3 183.5,469 183.1,469.7 182.4,470.4 182,470.8 181.3,471.5 180.4,471.7 179.7,471.8 178.8,471.8 
		178.8,510.1 197.2,510.1 197.2,475.7 	"/>
	<polygon class="st3" points="232.9,502.8 232.2,502.8 231.3,502.7 230.6,502.2 229.8,501.9 229.1,501.6 228.7,500.8 228.1,500.2 
		227.8,499.5 227.4,498.8 227.3,498 227.3,497.2 232.9,497.2 232.9,496.2 198.8,496.2 198.8,510.1 198.8,513.8 232.9,513.8 	"/>
	<polygon class="st3" points="261.6,514.9 259.4,514.9 258.8,514.9 256.6,514.9 242.3,514.9 242.3,515.9 247.9,515.9 247.8,516.7 
		247.5,517.6 247.3,518.3 247,519 246.4,519.5 245.9,520.2 245.3,520.7 244.5,521.1 243.8,521.3 243,521.5 242.3,521.5 242.3,532.9 
		275.8,532.9 275.8,514.9 	"/>
	<polygon class="st3" points="191.4,461.2 191.5,460.5 191.9,459.6 192.2,459 192.9,458.5 193.3,457.8 193.9,457.2 194.7,456.9 
		195.4,456.7 196.2,456.3 197,456.3 197,462.1 197.9,462.1 197.9,439.5 197.5,439.5 197.1,439.5 189.6,439.5 178.8,439.5 
		178.8,462.1 191.4,462.1 	"/>
	<polygon class="st3" points="311.2,484.2 312,484.6 312.6,484.9 313.2,485.4 313.8,485.8 314.4,486.6 314.8,487.2 315,488 
		315.1,488.8 315.1,489.7 309.6,489.7 309.6,490.7 318.6,490.7 320.8,490.7 321.4,490.7 323.6,490.7 333.4,490.7 333.4,477.2 
		309.6,477.2 309.6,484 310.4,484 	"/>
	<rect x="372.8" y="476.9" class="st3" width="13" height="16.1"/>
	<rect x="385.9" y="476.9" class="st3" width="12.8" height="16.1"/>
	<rect x="399.2" y="476.9" class="st3" width="12.6" height="16.1"/>
	<polygon class="st3" points="423.2,478.8 423.2,476.9 412.2,476.9 412.2,492.9 424.9,492.9 424.9,478.8 	"/>
	<polygon class="st3" points="467.8,526.5 467.3,526.5 466.8,526.5 466.8,527.6 459.5,527.6 459.5,527.8 459.5,528.3 466.8,528.3 
		466.8,538.3 450.8,538.3 450.8,528.3 454.5,528.3 454.5,527.8 454.5,527.6 443.2,527.6 443.2,526.5 443,526.5 442.5,526.5 
		442.5,532.5 443,532.5 443.2,532.5 443.2,528.3 449.1,528.3 449.1,538.3 443.2,538.3 443.2,537.6 443,537.6 442.5,537.6 
		442.5,539.9 443,539.9 443.2,539.9 443.2,539.2 449.9,539.2 449.9,546.7 450.8,546.7 450.8,539.2 488.8,539.2 488.8,534.7 
		467.8,534.7 	"/>
	<rect x="443.2" y="476.9" class="st3" width="14.5" height="7.6"/>
	<rect x="466.6" y="454.3" class="st3" width="23.3" height="8.1"/>
	<text transform="matrix(1 0 0 1 419.6826 347.9424)" class="st2 st5 st6">2418</text>
	<rect x="395.8" y="565.4" class="st11" width="1.2" height="7.3"/>
	<rect x="398.2" y="565.4" class="st11" width="1.2" height="7.3"/>
	<rect x="400.3" y="565.4" class="st11" width="1.2" height="7.3"/>
	<rect x="402.4" y="565.4" class="st11" width="1.2" height="7.3"/>
	<rect x="404.7" y="565.4" class="st11" width="1.2" height="7.3"/>
	<rect x="406.8" y="565.4" class="st11" width="1.2" height="7.3"/>
	<rect x="408.9" y="565.4" class="st11" width="1.2" height="7.3"/>
	<rect x="411.3" y="565.4" class="st11" width="1.2" height="7.3"/>
	<rect x="395.8" y="557.6" class="st11" width="1.2" height="7.3"/>
	<rect x="398.2" y="557.6" class="st11" width="1.2" height="7.3"/>
	<rect x="400.3" y="557.6" class="st11" width="1.2" height="7.3"/>
	<rect x="402.4" y="557.6" class="st11" width="1.2" height="7.3"/>
	<rect x="404.7" y="557.6" class="st11" width="1.2" height="7.3"/>
	<rect x="406.8" y="557.6" class="st11" width="1.2" height="7.3"/>
	<rect x="408.9" y="557.6" class="st11" width="1.2" height="7.3"/>
	<rect x="411.3" y="557.6" class="st11" width="1.2" height="7.3"/>
	<rect x="413.7" y="565.4" class="st11" width="1.2" height="7.3"/>
	<rect x="415.7" y="565.4" class="st11" width="1.2" height="7.3"/>
	<rect x="413.7" y="557.6" class="st11" width="1.2" height="7.3"/>
	<rect x="415.7" y="557.6" class="st11" width="1.2" height="7.3"/>
	<rect x="418.8" y="565.4" class="st11" width="1.2" height="7.3"/>
	<rect x="421.2" y="565.4" class="st11" width="1.2" height="7.3"/>
	<rect x="423.2" y="565.4" class="st11" width="1.2" height="7.3"/>
	<rect x="425.4" y="565.4" class="st11" width="1.2" height="7.3"/>
	<rect x="427.6" y="565.4" class="st11" width="1.2" height="7.3"/>
	<rect x="429.7" y="565.4" class="st11" width="1.2" height="7.3"/>
	<rect x="432" y="565.4" class="st11" width="1.2" height="7.3"/>
	<rect x="434.1" y="565.4" class="st11" width="1.2" height="7.3"/>
	<rect x="418.8" y="557.6" class="st11" width="1.2" height="7.3"/>
	<rect x="421.2" y="557.6" class="st11" width="1.2" height="7.3"/>
	<rect x="423.2" y="557.6" class="st11" width="1.2" height="7.3"/>
	<rect x="425.4" y="557.6" class="st11" width="1.2" height="7.3"/>
	<rect x="427.6" y="557.6" class="st11" width="1.2" height="7.3"/>
	<rect x="429.7" y="557.6" class="st11" width="1.2" height="7.3"/>
	<rect x="432" y="557.6" class="st11" width="1.2" height="7.3"/>
	<rect x="434.1" y="557.6" class="st11" width="1.2" height="7.3"/>
	<rect x="436.4" y="565.4" class="st11" width="1.2" height="7.3"/>
	<rect x="438.7" y="565.4" class="st11" width="1.2" height="7.3"/>
	<rect x="436.4" y="557.6" class="st11" width="1.2" height="7.3"/>
	<rect x="438.7" y="557.6" class="st11" width="1.2" height="7.3"/>
	<polygon class="st0" points="411.2,451.7 411.2,465.4 422.3,465.4 422.3,462.7 422.3,461.6 422.3,456 422.3,451.5 	"/>
	<text transform="matrix(1 0 0 1 413.7949 460.8223)" class="st2 st7 st12">E</text>
	<g>
		<path class="st0" d="M453.6,525.1c-0.7,0-1.2-0.6-1.2-1.2s0.6-1.2,1.2-1.2c0.8,0,1.2,0.6,1.2,1.2
			C454.9,524.7,454.3,525.1,453.6,525.1z"/>
	</g>
	<path class="st0" d="M451.6,528.2v2.6c0,0.3-0.2,0.6-0.3,0.6c-0.2,0-0.3-0.1-0.3-0.6v-3.3c0-1.5,0.7-1.8,1.9-1.8h1.9
		c1.2,0,1.9,0.3,1.9,1.8v3.3c0,0.3-0.1,0.6-0.3,0.6s-0.3-0.1-0.3-0.6v-2.6c0-0.2-0.1-0.2-0.2-0.2c0,0-0.2,0-0.2,0.2
		c0,0.3,0,8.5,0,8.5c0,0.6-0.3,0.7-0.7,0.7c-0.1,0-0.7,0-0.7-0.7c0-0.6,0-5.1,0-5.1c0-0.1,0-0.2-0.1-0.2s-0.1,0-0.1,0.2
		c0,0,0,4.5,0,5.1s-0.3,0.7-0.7,0.7c-0.1,0-0.7,0-0.7-0.7c0,0,0-8.2,0-8.5c0-0.2-0.1-0.2-0.2-0.2
		C451.7,527.8,451.6,527.8,451.6,528.2z"/>
	<path class="st0" d="M451.5,493.5c-0.7,0-1.1-0.6-1.1-1.1c0-0.7,0.3-1.1,1.1-1.1c0.6,0,1.1,0.6,1.1,1.1S452,493.5,451.5,493.5z"/>
	<path class="st0" d="M452,493.8c1.1,0,1.6,0.7,1.7,1.2l1,3.1c0.1,0.2,0,0.6-0.2,0.6s-0.3,0-0.6-0.2l-0.9-2.8c0-0.1-0.1-0.2-0.2-0.2
		s-0.1,0.2-0.1,0.3l1.6,5.1h-1.7c0,2,0,3.7,0,3.7c0,0.6-0.2,0.7-0.3,0.7s-0.3,0-0.3-0.7c0-0.6,0-3.6,0-3.6c0-0.1,0-0.2-0.2-0.2
		s-0.2,0-0.2,0.2c0,0,0,3.1,0,3.6c0,0.6-0.2,0.7-0.3,0.7s-0.3,0-0.3-0.7c0,0,0-1.8,0-3.7h-1.7l1.6-5.1c0-0.1,0-0.2-0.1-0.3
		c-0.1-0.1-0.2,0-0.2,0.2l-0.9,2.8c-0.1,0.2-0.2,0.3-0.6,0.2c-0.2,0-0.2-0.2-0.2-0.6l1-3.1c0.1-0.3,0.3-1.2,1.7-1.2H452z"/>
	<rect x="442.5" y="299.2" class="st11" width="1.2" height="7.3"/>
	<rect x="444.8" y="299.2" class="st11" width="1.2" height="7.3"/>
	<rect x="442.5" y="291.4" class="st11" width="1.2" height="7.3"/>
	<rect x="444.8" y="291.4" class="st11" width="1.2" height="7.3"/>
	<rect x="447.1" y="299.2" class="st11" width="1.2" height="7.3"/>
	<rect x="449.2" y="299.2" class="st11" width="1.2" height="7.3"/>
	<rect x="447.1" y="291.4" class="st11" width="1.2" height="7.3"/>
	<rect x="449.2" y="291.4" class="st11" width="1.2" height="7.3"/>
	<rect x="451.4" y="299.2" class="st11" width="1.2" height="7.3"/>
	<rect x="451.4" y="291.4" class="st11" width="1.2" height="7.3"/>
	<rect x="453.4" y="299.2" class="st11" width="1.2" height="7.3"/>
	<rect x="455.6" y="299.2" class="st11" width="1.2" height="7.3"/>
	<rect x="457.9" y="299.2" class="st11" width="1.2" height="7.3"/>
	<rect x="459.9" y="299.2" class="st11" width="1.2" height="7.3"/>
	<rect x="462.3" y="299.2" class="st11" width="1.2" height="7.3"/>
	<rect x="464.3" y="299.2" class="st11" width="1.2" height="7.3"/>
	<rect x="466.5" y="299.2" class="st11" width="1.2" height="7.3"/>
	<rect x="468.8" y="299.2" class="st11" width="1.2" height="7.3"/>
	<rect x="453.4" y="291.4" class="st11" width="1.2" height="7.3"/>
	<rect x="455.6" y="291.4" class="st11" width="1.2" height="7.3"/>
	<rect x="457.9" y="291.4" class="st11" width="1.2" height="7.3"/>
	<rect x="459.9" y="291.4" class="st11" width="1.2" height="7.3"/>
	<rect x="462.3" y="291.4" class="st11" width="1.2" height="7.3"/>
	<rect x="464.3" y="291.4" class="st11" width="1.2" height="7.3"/>
	<rect x="466.5" y="291.4" class="st11" width="1.2" height="7.3"/>
	<rect x="468.8" y="291.4" class="st11" width="1.2" height="7.3"/>
	<rect x="471" y="299.2" class="st11" width="1.2" height="7.3"/>
	<rect x="473.3" y="299.2" class="st11" width="1.2" height="7.3"/>
	<rect x="471" y="291.4" class="st11" width="1.2" height="7.3"/>
	<rect x="473.3" y="291.4" class="st11" width="1.2" height="7.3"/>
	<rect x="342.2" y="497.1" class="st2" width="1.9" height="8"/>
	<rect x="346.3" y="497.1" class="st2" width="1.9" height="8"/>
	<rect x="350.6" y="497.1" class="st2" width="1.9" height="8"/>
	<rect x="354.7" y="497.1" class="st2" width="1.9" height="8"/>
	<rect x="359" y="497.1" class="st2" width="1.9" height="8"/>
	<rect x="363.1" y="497.1" class="st2" width="1.9" height="8"/>
	<rect x="341.7" y="446.1" class="st2" width="1.9" height="11.8"/>
	<rect x="346.1" y="446.1" class="st2" width="1.9" height="11.8"/>
	<rect x="350.3" y="446.1" class="st2" width="1.9" height="11.8"/>
	<rect x="354.5" y="446.1" class="st2" width="1.9" height="11.8"/>
	<rect x="358.8" y="446.1" class="st2" width="1.9" height="11.8"/>
	<rect x="362.9" y="446.1" class="st2" width="1.9" height="11.8"/>
	<g>
		<polygon class="st3" points="485.3,267 485.3,263.2 485.3,260.7 485.3,223.3 485.3,221.6 485.3,183.6 485.3,181.5 485.3,144 
			485.3,142.3 485.3,130.1 498.8,130.1 555.7,130.1 557.3,130.1 755.1,130.1 760.6,130.1 760.6,124.4 760.6,121.7 760.6,82.6 
			760.6,77.2 757.2,77.2 757.2,73.2 760.6,73.2 760.6,67.8 760.6,25.7 760.6,20.3 755.1,20.3 714.9,20.3 713.3,20.3 675.7,20.3 
			674,20.3 636.9,20.3 634.5,20.3 597.1,20.3 595.5,20.3 557.9,20.3 556.2,20.3 518.4,20.3 516.7,20.3 439.8,20.3 438.1,20.3 
			400.9,20.3 398.5,20.3 393.3,20.5 393.3,25.9 393.3,96.4 381.7,96.4 376.2,96.4 376.2,101.8 376.2,262.1 376.2,267 		"/>
	</g>
	<polygon class="st4" points="407.5,67.5 412.3,67.5 412.3,66.9 412.3,67.5 412.3,67.5 412.3,66.9 437.7,66.9 437.7,66.9 
		412.3,66.9 437.7,66.9 437.7,65.7 439.5,65.7 439.5,65.7 439.5,65.7 439.5,66.9 439.5,66.9 445.8,66.9 439.5,66.9 439.5,66.9 
		445.8,66.9 445.8,66.9 445.8,66.9 445.8,66.9 445.8,67.5 450.5,67.5 450.5,66.9 457.9,66.9 457.9,26.7 439.5,26.7 439.5,28.3 
		439.5,28.3 439.5,28.3 439.5,28.3 437.7,28.3 437.7,26.7 400.2,26.7 400.2,28.3 400.2,28.3 400.2,28.3 399.6,28.3 399.6,65.7 
		399.6,65.7 399.6,65.7 399.6,65.7 400.6,65.7 400.6,65.7 400.6,65.7 400.6,65.7 400.6,66.9 400.6,66.9 400.6,66.9 400.6,66.9 
		407.5,66.9 400.6,66.9 400.6,66.9 407.5,66.9 407.5,66.9 407.5,66.9 407.5,66.9 	"/>
	<text transform="matrix(1 0 0 1 405.4017 50.0145)" class="st2 st5 st13">SPIETH 2200</text>
</g>
</svg>
