<?xml version="1.0" encoding="utf-8"?>
<!-- Generator: Adobe Illustrator 17.1.0, SVG Export Plug-In . SVG Version: 6.00 Build 0)  -->
<!DOCTYPE svg PUBLIC "-//W3C//DTD SVG 1.1//EN" "http://www.w3.org/Graphics/SVG/1.1/DTD/svg11.dtd">
<svg version="1.1" id="Layer_1" xmlns="http://www.w3.org/2000/svg" xmlns:xlink="http://www.w3.org/1999/xlink" x="0px" y="0px"
	 viewBox="48.4 745.3 1263.2 558.7" enable-background="new 48.4 745.3 1263.2 558.7" xml:space="preserve">
<g opacity="0.5">
	<g>
		
			<text transform="matrix(1 0 0 1 265.1299 777.6882)" fill="#989798" font-family="'TradeGothic-BoldCondTwenty'" font-size="13.6301">Level </text>
	</g>
	<circle fill="#989798" cx="319.6" cy="775.4" r="23.1"/>
	
		<text transform="matrix(1 0 0 1 308.2544 791.6032)" fill="#FFFFFF" font-family="'TradeGothic-BoldCondTwenty'" font-size="43.6166">1</text>
</g>
<polygon fill="#4A6DB4" points="243.6,1203.5 243.6,1210.1 237.9,1206.8 "/>
<polygon fill="#4A6DB4" points="247.3,1209.9 247.3,1203.3 252.8,1206.6 "/>
<polygon fill="#4A6DB4" points="267.4,1292.4 267.4,1285.9 273,1289.2 "/>
<polygon fill="#4A6DB4" points="324.7,975.2 331.2,975.2 328,980.8 "/>
<polygon fill="#4A6DB4" points="163.8,928.1 163.8,934.5 158.3,931.2 "/>
<g>
	<g>
		<path fill="#989798" d="M57.7,894.1v1.9h0.1h10.3h0.2h10.2h0.2h10.8h0.2h10.9h0.2v-1.5h2.2v1.5h0.5h10.8h0.2h10.8h0.2h10.8h0.2
			h10.9h0.2v-1.5h2.2v2.2h-1.5v0.1v12v0.2v11.8v0.2v14.4v4.7v0.2h1.9v142.3h-36h-8.5H74.2h-8.6H53.9v-26.2v-5.6V896.8v-2.7H57.7
			 M63.1,888.6h-5.3h-3.9h-5.5v5.5v2.7V1051v5.6v26.4v5.5h5.5h11.7h8.6h31.7h8.6h36.1h5.5v-5.5V940.7v-5.3h-1.9v-13.7v-0.2v-11.8
			v-0.2v-6.9h1.5v-5.5v-2v-5.5h-5.5h-2.2h-5.5v1.5H137h-0.2H126h-0.2H115h-0.2h-5.6v-1.5h-5.6h-2.2H96v1.5h-5.6h-0.2H79.1h-0.2H68.6
			h-0.2h-5.1L63.1,888.6L63.1,888.6z"/>
	</g>
</g>
<polygon fill="#FFFFFF" points="147.9,931.5 148.3,931.5 152.9,931.5 152.9,930.6 152.6,929.8 152.1,929 151.8,928.4 151.2,927.8 
	150.7,927.3 149.9,927 149.1,926.9 148.3,926.7 149.1,926.6 149.9,926.5 150.7,926 151.2,925.6 151.8,925.1 152.1,924.3 
	152.6,923.6 152.9,922.7 152.9,921.9 148.3,921.9 147.9,921.9 "/>
<polygon fill="#FFFFFF" points="147.9,941.1 148.3,941.1 152.9,941.1 152.9,940.2 152.6,939.4 152.1,938.6 151.8,938.2 151.2,937.4 
	150.7,937 149.9,936.7 149.1,936.5 148.3,936.5 149.1,936.4 149.9,936.2 150.7,935.7 151.2,935.3 151.8,934.8 152.1,934 
	152.6,933.4 152.9,932.5 152.9,931.7 148.3,931.7 147.9,931.7 "/>
<polygon fill="#CCCCCC" points="383.9,1023.3 383.9,1013.1 371,1013.1 371,1031.8 337.2,1031.8 337.2,1049.5 339.2,1049.5 
	339.2,1052 337.2,1052 337.2,1052.8 336.9,1052.8 336.9,1058.5 337.2,1058.5 337.2,1059.5 354.1,1059.5 354.1,1060.1 359.6,1060.1 
	359.6,1059.5 362.4,1059.5 362.4,1060.1 368,1060.1 368,1059.5 383.9,1059.5 383.9,1040.8 383.9,1033.2 383.9,1032.8 383.9,1031.3 
	383.9,1031 "/>
<polygon fill="#CCCCCC" points="337.2,1089.3 337.2,1090.3 336.9,1090.3 336.9,1095.9 337.2,1095.9 337.2,1124.4 339.2,1124.4 
	339.2,1126.8 337.2,1126.8 337.2,1146.9 336.9,1146.9 336.9,1152.5 337.2,1152.5 337.2,1153.5 340.1,1153.5 340.1,1153.8 
	345.8,1153.8 345.8,1153.5 377.1,1153.5 377.1,1153.8 382.7,1153.8 382.7,1153.5 383.9,1153.5 383.9,1153.3 383.9,1145.7 
	383.9,1145.2 383.9,1143.6 383.9,1143.4 383.9,1135.9 383.9,1115.9 383.9,1108 383.9,1107.8 383.9,1106.2 383.9,1106 383.9,1098.4 
	383.9,1088.6 339.2,1088.6 339.2,1089.3 "/>
<polygon fill="#CCCCCC" points="90.8,1233.5 90.8,1199.1 92.5,1199.1 92.5,1199.2 93.7,1199.2 93.7,1199.7 99.3,1199.7 99.3,1199.2 
	104,1199.2 104,1198.3 99.1,1198.3 99.3,1197.4 99.5,1196.7 99.8,1195.9 100.3,1195.2 100.8,1194.5 101.5,1194.1 102.3,1193.8 
	103.1,1193.6 104,1193.6 102.9,1193.4 101.8,1193.3 100.9,1192.7 100.2,1192.2 99.3,1191.6 98.6,1190.9 97.9,1190 97.7,1189.1 
	97.5,1187.8 97.5,1186.9 104,1186.9 104,1185.9 72.4,1185.9 72.4,1209.2 81.2,1214.2 81.2,1204.6 81.9,1204.6 81.9,1222 79.3,1222 
	79.3,1223 79.1,1223.8 78.5,1224.9 77.9,1225.4 77.4,1226.2 76.5,1226.8 75.7,1227.1 74.6,1227.5 73.6,1227.5 73.6,1222 72.4,1222 
	72.4,1233.5 76,1233.5 76,1235.2 81.6,1235.2 87.4,1235.2 87.4,1233.5 "/>
<polygon fill="#CCCCCC" points="360.7,1075.9 360.7,1060.4 359.6,1060.4 359.6,1066 358.7,1065.9 357.8,1065.7 356.9,1065.3 
	356,1064.6 355.4,1064 355,1063.3 354.4,1062.3 354.2,1061.2 354.1,1060.4 337.2,1060.4 337.2,1075.6 342.8,1075.6 342.7,1076.6 
	342.6,1077.5 342.1,1078.4 341.6,1079.2 340.9,1080 340.1,1080.4 339.2,1080.9 338.2,1081.1 337.2,1081.1 337.2,1087 339.2,1087 
	339.2,1087.7 360.7,1087.7 360.7,1080.6 360.9,1080.6 360.9,1075.9 "/>
<polygon fill="#CCCCCC" points="367.6,1062.3 367.2,1063.3 366.7,1064 366,1064.6 365.2,1065.3 364.3,1065.7 363.4,1065.9 
	362.4,1066 362.4,1060.4 361.6,1060.4 361.6,1075.9 362.2,1076 363.2,1076.1 363.7,1076.6 364.3,1077 365.1,1077.6 365.4,1078.4 
	365.8,1079.1 366,1079.8 366,1080.6 361.6,1080.6 361.6,1087.7 383.9,1087.7 383.9,1078.4 383.9,1070.6 383.9,1070.3 383.9,1068.7 
	383.9,1068.5 383.9,1060.9 383.9,1060.4 368,1060.4 367.8,1061.2 "/>
<polygon fill="#CCCCCC" points="133.6,1249.1 133.6,1233.6 113.3,1233.6 113.3,1235.9 113.1,1235.9 113.1,1241.3 113.3,1241.3 
	113.3,1256.3 133.6,1256.3 133.6,1254.6 133.7,1254.6 133.7,1249.1 "/>
<polygon fill="#CCCCCC" points="136.6,1233.6 133.8,1233.6 133.8,1249.1 135,1249.2 135.9,1249.5 136.8,1249.7 137.5,1250.4 
	138.3,1251 138.8,1251.8 139.2,1252.7 139.6,1253.6 139.8,1254.6 133.8,1254.6 133.8,1256.3 158.1,1256.3 158.1,1233.6 
	142.1,1233.6 142.1,1233.5 136.6,1233.5 "/>
<polygon fill="#CCCCCC" points="310.3,1011.2 319.9,1011.2 322.1,1011.2 322.4,1011.2 322.4,1005.4 323.3,1005.8 324.3,1006 
	325.1,1006.2 326,1006.9 326.7,1007.7 327.2,1008.5 327.7,1009.2 327.8,1010.1 327.9,1011.2 328,1010.1 328.4,1009.2 328.7,1008.5 
	329.4,1007.7 330,1006.9 330.8,1006.2 331.6,1006 332.6,1005.8 333.6,1005.4 333.6,1011.2 334,1011.2 336,1011.2 345.4,1011.2 
	345.4,1010 347.6,1010 347.6,993.3 307.8,993.3 307.8,1010 310.3,1010 "/>
<polygon fill="#CCCCCC" points="133.4,1205 132.6,1204.7 131.9,1204.3 131.1,1203.8 130.7,1203.3 130.1,1202.7 129.9,1201.9 
	129.5,1201.1 129.5,1200.3 129.5,1201.1 129.2,1201.9 128.8,1202.7 128.4,1203.3 127.8,1203.8 127.1,1204.3 126.5,1204.7 
	125.7,1205 125,1205 125,1200.3 112.3,1200.3 112.3,1201.9 109.8,1201.9 109.8,1200.3 99.3,1200.3 99.1,1201.3 99,1202.2 
	98.6,1203.2 97.9,1203.8 97.4,1204.6 96.5,1205.2 95.7,1205.5 94.6,1205.8 93.7,1205.9 93.7,1200.3 92.4,1200.3 92.4,1233.3 
	94.4,1233.3 94.4,1233.5 100.2,1233.5 100.2,1233.3 136.6,1233.3 136.6,1233.5 142.1,1233.5 142.1,1233.3 158.1,1233.3 
	158.1,1201.9 148.4,1201.9 148.4,1200.3 134.2,1200.3 134.2,1205 "/>
<polygon fill="#CCCCCC" points="110.9,1241 110.2,1240.5 109.3,1240 108.6,1239.4 107.9,1238.6 107.6,1237.7 107.3,1236.8 
	107.3,1235.9 112.8,1235.9 112.8,1233.6 100.2,1233.6 100.2,1234.6 99.8,1235.5 99.4,1236.5 98.9,1237.2 98.1,1238 97.5,1238.6 
	96.5,1239 95.6,1239.4 94.4,1239.4 94.4,1233.6 92.4,1233.6 92.4,1256.3 112.8,1256.3 112.8,1241.3 111.9,1241.3 "/>
<polygon fill="#CCCCCC" points="196.1,1202.2 195.8,1203.2 195.2,1203.8 194.5,1204.6 193.8,1205.2 192.8,1205.5 191.9,1205.8 
	191,1205.9 191,1200.3 189.6,1200.3 189.6,1201.9 187.5,1201.9 187.5,1200.3 181.8,1200.3 181.8,1231.8 206.7,1231.8 206.7,1200.3 
	196.6,1200.3 196.5,1201.3 "/>
<polygon fill="#CCCCCC" points="279.9,1135 296.8,1135 296.8,1128.3 297.2,1128.3 297.2,1122.7 296.8,1122.7 296.8,1103.5 
	266.8,1103.5 266.8,1106.2 266.8,1107.8 266.8,1135 274.1,1135 274.1,1135.5 279.9,1135.5 "/>
<polygon fill="#CCCCCC" points="276.1,1169.4 276.3,1168.6 276.6,1167.9 277.1,1167.4 277.5,1166.6 278.3,1166.2 279.1,1165.9 
	279.9,1165.7 280.5,1165.7 280.5,1157.4 280.5,1150.5 280.5,1142.6 281.1,1142.6 281.1,1136.9 280.5,1136.9 280.5,1136 279.9,1136 
	279.9,1135.5 274.1,1135.5 274.1,1136 266.8,1136 266.8,1143.6 266.8,1145.2 266.8,1171.3 280.5,1171.3 280.5,1170.3 276.1,1170.3 
	"/>
<polygon fill="#CCCCCC" points="287.1,1137.9 286.8,1138.7 286.5,1139.8 285.9,1140.5 285.1,1141.1 284.4,1141.7 283.5,1142.3 
	282.4,1142.5 281.5,1142.6 281.5,1150.5 281.5,1157.4 281.5,1163.6 282.4,1163.6 282.4,1157.9 283.5,1158 284.5,1158.3 
	285.3,1158.7 286.2,1159.3 286.8,1160 287.4,1160.8 287.8,1161.6 288.2,1162.6 288.2,1163.6 299.5,1163.6 299.5,1136 281.5,1136 
	281.5,1136.9 287.2,1136.9 "/>
<polygon fill="#CCCCCC" points="311,1161.6 311.3,1160.8 311.9,1160 312.6,1159.3 313.3,1158.7 314.3,1158.3 315.1,1158 
	316.1,1157.9 316.1,1163.6 316.9,1163.6 316.9,1162 318.7,1162 318.7,1144.6 317.7,1144.5 316.7,1144.3 315.9,1143.8 315,1143.3 
	314.3,1142.6 314,1141.7 313.3,1140.9 313.2,1140 313,1139.1 318.7,1139.1 318.7,1138.2 314.1,1138.2 314.1,1136 300.4,1136 
	300.4,1163.6 310.5,1163.6 310.7,1162.6 "/>
<polygon fill="#CCCCCC" points="299.6,1123.2 300.4,1123.5 301.3,1124.2 302,1124.9 302.5,1125.4 303,1126.5 303.2,1127.4 
	303.3,1128.3 297.7,1128.3 297.7,1135 318.7,1135 318.7,1133.6 319.2,1133.6 319.2,1128 318.7,1128 318.7,1126.8 317.1,1126.8 
	317.1,1124.4 318.7,1124.4 318.7,1103.5 297.7,1103.5 297.7,1122.7 298.6,1122.8 "/>
<polygon fill="#CCCCCC" points="345.4,1156.2 345.1,1157.1 344.4,1157.9 343.7,1158.7 342.8,1159.2 341.9,1159.6 341,1159.9 
	340.1,1159.9 340.1,1154.3 339.2,1154.3 339.2,1164.3 337.2,1164.3 337.2,1169.4 336.9,1169.4 336.9,1175.1 337.2,1175.1 
	337.2,1176.3 357.1,1176.3 357.1,1154.3 345.8,1154.3 345.5,1155.3 "/>
<polygon fill="#CCCCCC" points="312,1033.5 312.4,1032.7 313,1032 313.5,1031.3 314.4,1030.7 315.2,1030.4 316.2,1030 317.4,1029.9 
	317.4,1035.6 318.3,1035.6 318.3,1013.1 310.3,1013.1 307.8,1013.1 304.7,1013.1 304.7,1035.6 311.6,1035.6 311.6,1034.5 "/>
<rect x="337.2" y="1199.7" fill="#CCCCCC" width="12" height="7.5"/>
<polygon fill="#CCCCCC" points="221.1,1201.8 220.9,1202.7 220.5,1203.4 220.2,1204.1 219.4,1204.9 218.7,1205.2 217.9,1205.7 
	217,1205.8 216.2,1205.9 216.2,1206.5 221.8,1206.5 221.8,1207.1 216.2,1207.1 216.2,1213.4 218.2,1213.4 218.2,1220 227,1220 
	227,1200.4 216.2,1200.4 216.2,1201 221.2,1201 "/>
<polygon fill="#CCCCCC" points="272.3,1227.5 273.4,1227.8 274.1,1228.2 275,1228.7 275.7,1229.5 276.3,1230.3 276.7,1231.2 
	277,1232.1 277,1233.2 278.5,1233.2 293.5,1233.2 297,1233.2 297,1222.4 296.1,1222.2 295.1,1222 294.4,1221.7 293.5,1221.1 
	292.9,1220.4 292.1,1219.6 291.9,1218.7 291.7,1217.8 291.5,1216.8 297,1216.8 297,1215.7 267,1215.7 267,1218.2 267,1218.4 
	267.9,1218.4 267.9,1220.4 267,1220.4 267,1220.7 267,1233.2 271.3,1233.2 271.3,1227.5 "/>
<polygon fill="#CCCCCC" points="277,1245.1 277.4,1245.1 277.4,1243.3 277.4,1235.9 277.4,1233.7 277,1233.7 277,1233.5 
	271.3,1233.5 271.3,1233.7 267,1233.7 267,1245.1 271.3,1245.1 271.3,1245.4 277,1245.4 "/>
<polygon fill="#CCCCCC" points="207.9,1232.6 181.8,1232.6 181.8,1256.2 227.1,1256.2 227.1,1232.6 214.5,1232.6 214.5,1232.2 
	207.9,1232.2 "/>
<polygon fill="#CCCCCC" points="216,1227.5 216,1231.8 227,1231.8 227,1225 224.3,1225 224.3,1221.2 216,1221.2 216,1222 
	215.8,1222 215.8,1227.5 "/>
<polygon fill="#CCCCCC" points="291.7,1260.1 291.9,1259.2 292.1,1258.2 292.9,1257.5 293.5,1256.8 294.4,1256.2 295.1,1255.9 
	296.1,1255.5 297,1255.5 297,1245.9 293.5,1245.9 278.5,1245.9 277,1245.9 277,1246.8 276.7,1247.8 276.3,1248.6 275.7,1249.5 
	275,1250.1 274.1,1250.8 273.4,1251.1 272.3,1251.5 271.3,1251.5 271.3,1245.9 267,1245.9 267,1256.1 267,1257.7 267,1262.1 
	297,1262.1 297,1261.1 291.5,1261.1 "/>
<polygon fill="#CCCCCC" points="179.3,1205.8 178.4,1205.5 177.5,1205.2 176.6,1204.6 175.9,1203.8 175.4,1203.2 174.9,1202.2 
	174.8,1201.3 174.6,1200.3 159,1200.3 159,1256.3 181.1,1256.3 181.1,1200.3 180.2,1200.3 180.2,1205.9 "/>
<polygon fill="#CCCCCC" points="319,1215.2 319,1201.8 317.1,1201.8 317.1,1199.7 300.3,1199.7 300.3,1205.5 299.4,1205.3 
	298.4,1205.1 297.6,1204.7 296.7,1204.1 296.1,1203.4 295.4,1202.7 295.1,1201.8 294.9,1200.7 294.7,1199.7 278.4,1199.7 
	278.4,1201.1 284,1201.1 283.8,1202.1 283.6,1203 283.2,1203.8 282.7,1204.7 281.9,1205.3 281.2,1205.9 280.2,1206.5 279.4,1206.7 
	278.4,1206.7 278.4,1215.2 307.7,1215.2 307.7,1215.5 313.3,1215.5 313.3,1215.2 "/>
<polygon fill="#CCCCCC" points="277.4,1201.1 277.4,1200.1 267,1200.1 267,1214.9 277.4,1214.9 277.4,1206.7 277.9,1206.7 
	277.9,1201.1 "/>
<polygon fill="#CCCCCC" points="285,1033.5 285.3,1032.7 286,1032 286.6,1031.3 287.4,1030.7 288.3,1030.4 289.3,1030 290.2,1029.9 
	290.2,1035.6 291.2,1035.6 291.2,1013.1 279.5,1013.1 279.5,1035.6 284.6,1035.6 284.8,1034.5 "/>
<polygon fill="#CCCCCC" points="337.2,1213.7 337.2,1236.7 339.2,1236.7 339.2,1239 337.2,1239 337.2,1263.5 336.9,1263.5 
	336.9,1269.1 337.2,1269.1 337.2,1275.5 382.6,1275.5 382.6,1217.9 383.6,1217.9 383.6,1199.7 350.1,1199.7 350.1,1208 337.2,1208 
	337.2,1209 336.9,1209 336.9,1213.7 "/>
<polygon fill="#CCCCCC" points="272.3,1033.5 272.8,1032.7 273.4,1032 274,1031.3 274.8,1030.7 275.7,1030.4 276.7,1030 
	277.5,1029.9 277.5,1035.6 278.3,1035.6 278.3,1028.8 278.5,1028.8 278.5,1013.1 266.6,1013.1 266.6,1031.3 266.6,1032.8 
	266.6,1035.6 271.9,1035.6 272,1034.5 "/>
<polygon fill="#CCCCCC" points="319,1263.3 319,1262.6 306.8,1262.6 306.8,1262.4 301.2,1262.4 301.2,1262.6 300.7,1262.6 
	300.7,1263 300.3,1263 300.3,1268.8 300.7,1268.8 300.7,1275.5 319,1275.5 319,1268.9 319.3,1268.9 319.3,1263.3 "/>
<polygon fill="#CCCCCC" points="297.7,1033.5 298.2,1032.7 298.6,1032 299.4,1031.3 300.1,1030.7 301.1,1030.4 301.9,1030 
	302.9,1029.9 302.9,1035.6 303.7,1035.6 303.7,1013.1 292,1013.1 292,1035.6 297.2,1035.6 297.5,1034.5 "/>
<polygon fill="#CCCCCC" points="306.8,1262.1 307.4,1262.1 307.4,1257.8 307.6,1257.8 307.6,1252 307.4,1252 307.4,1246.2 
	307.6,1246.2 307.6,1240.5 307.4,1240.5 307.4,1232.6 307.6,1232.6 307.6,1227 307.4,1227 307.4,1222.9 319,1222.9 319,1222.1 
	319.3,1222.1 319.3,1216.6 319,1216.6 319,1215.7 313.3,1215.7 313.3,1215.5 307.7,1215.5 307.7,1215.7 297.9,1215.7 297.9,1216.8 
	297.6,1216.8 297.6,1222.4 297.9,1222.4 297.9,1238.6 297.6,1238.6 297.6,1244.3 297.9,1244.3 297.9,1255.5 297.6,1255.5 
	297.6,1261.1 297.9,1261.1 297.9,1262.1 301.2,1262.1 301.2,1262.4 306.8,1262.4 "/>
<polygon fill="#CCCCCC" points="276.2,1263 270.4,1263 270.7,1264.2 270.8,1264.9 271.2,1266 271.8,1266.7 272.5,1267.4 
	273.4,1267.9 274.1,1268.3 275.2,1268.5 276.2,1268.8 276.3,1268.8 276.3,1263 "/>
<polygon fill="#CCCCCC" points="298.4,1268.3 297.5,1267.9 296.6,1267.4 296,1266.7 295.4,1266 295,1264.9 294.7,1264.2 294.6,1263 
	300.2,1263 300.2,1262.6 276.5,1262.6 276.5,1263 276.3,1263 276.3,1268.8 276.5,1268.8 276.5,1275.5 300.2,1275.5 300.2,1268.8 
	299.3,1268.5 "/>
<polygon fill="#CCCCCC" points="133.2,1180.1 133.2,1185.1 134.1,1185.1 134.1,1179.4 135.1,1179.4 136,1179.6 136.9,1180.2 
	137.7,1180.8 138.3,1181.3 139,1182.2 139.2,1183 139.8,1184.1 139.8,1185.1 168.4,1185.1 168.4,1163.6 133.2,1163.6 133.2,1174.4 
	132.6,1174.4 132.6,1180.1 "/>
<polygon fill="#CCCCCC" points="295.4,1185.3 295.4,1184.2 295.8,1183.3 296.1,1182.4 296.7,1181.7 297.5,1180.9 298.3,1180.3 
	299.2,1180 300.1,1179.6 301.1,1179.5 301.1,1185.3 302,1185.3 302,1172.1 266.5,1172.1 266.5,1180.8 267.5,1180.8 267.5,1182.8 
	266.5,1182.8 266.5,1183.3 266.5,1185.3 "/>
<polygon fill="#CCCCCC" points="337.2,1195.4 337.2,1199.1 383.9,1199.1 383.9,1185.8 337.2,1185.8 337.2,1189.5 336.9,1189.5 
	336.9,1195.4 "/>
<polygon fill="#CCCCCC" points="381.8,1159.9 380.9,1159.6 380,1159.2 379.2,1158.7 378.5,1157.9 378,1157.1 377.5,1156.2 
	377.2,1155.3 377.1,1154.3 357.8,1154.3 357.8,1176.3 383.6,1176.3 383.6,1154.3 382.7,1154.3 382.7,1159.9 "/>
<polygon fill="#CCCCCC" points="113.4,1179.4 114.3,1179.6 115.2,1180.2 116,1180.8 116.8,1181.3 117.3,1182.2 117.7,1183 
	117.9,1184.1 117.9,1185.1 132.3,1185.1 132.3,1180.1 126.6,1180.1 126.6,1179.1 126.9,1178.2 127.3,1177.2 127.8,1176.5 
	128.6,1175.8 129.3,1175.3 130.2,1174.8 131.1,1174.5 132.3,1174.4 132.3,1162.8 131,1162.8 129.5,1162.8 111.2,1162.8 
	111.2,1174.4 110.9,1174.4 110.9,1180 111.2,1180 111.2,1185.1 112.4,1185.1 112.4,1179.4 "/>
<polygon fill="#CCCCCC" points="186.1,1179.6 187,1180.1 187.9,1180.4 188.8,1181 189.5,1181.8 190.1,1182.4 190.6,1183.5 
	190.7,1184.2 190.9,1185.3 207.8,1185.3 207.8,1162.8 207.1,1162.8 169.9,1162.8 169.5,1162.8 169.5,1185.3 185.1,1185.3 
	185.1,1179.6 "/>
<polygon fill="#CCCCCC" points="307.7,1240.5 313.3,1240.5 313.3,1241.6 313,1242.6 312.6,1243.4 312,1244.3 311.3,1245 
	310.5,1245.4 309.6,1246 308.6,1246.1 307.7,1246.2 307.7,1249.1 319,1249.1 319,1239.2 316.9,1239.2 316.9,1236.7 307.7,1236.7 "/>
<polygon fill="#CCCCCC" points="209.9,1180.2 210.9,1180.4 211.6,1180.9 212.4,1181.2 213,1182 213.5,1182.6 214,1183.5 
	214.1,1184.2 214.2,1185.1 220.2,1185.1 220.2,1163.2 210.4,1163.2 210.4,1178.7 215.3,1178.7 215.3,1179.5 208.7,1179.5 
	208.7,1185.1 209.3,1185.1 209.3,1180.2 "/>
<polygon fill="#CCCCCC" points="104.9,1179.1 105.2,1178 105.7,1177.2 106.1,1176.3 106.9,1175.7 107.7,1175.1 108.6,1174.6 
	109.5,1174.4 110.6,1174.4 110.6,1163.2 92.6,1163.2 91,1163.2 72.8,1163.2 72.8,1185 110.6,1185 110.6,1180 104.9,1180 "/>
<polygon fill="#CCCCCC" points="278.3,1233.7 278.3,1235.9 278.3,1243.3 278.3,1245.1 278.5,1245.1 293.5,1245.1 297,1245.1 
	297,1244.3 291.5,1244.3 291.7,1243.3 291.9,1242.2 292.1,1241.3 292.9,1240.5 293.5,1239.9 294.4,1239.4 295.1,1238.8 
	296.1,1238.6 297,1238.6 297,1233.7 293.5,1233.7 278.5,1233.7 "/>
<polygon fill="#CCCCCC" points="313.2,1228 312.9,1228.8 312.5,1229.9 311.9,1230.5 311.2,1231.3 310.5,1231.8 309.5,1232.2 
	308.6,1232.6 307.7,1232.6 307.7,1236.3 316.9,1236.3 319,1236.3 319,1232.4 318.4,1232.4 318.4,1225.2 319,1225.2 319,1223.3 
	307.7,1223.3 307.7,1227 313.3,1227 "/>
<polygon fill="#CCCCCC" points="313.3,1253.2 313,1254.1 312.6,1255 312,1255.7 311.3,1256.3 310.5,1256.9 309.6,1257.4 
	308.6,1257.7 307.7,1257.8 307.7,1262.1 319,1262.1 319,1249.5 307.7,1249.5 307.7,1252 313.3,1252 "/>
<polygon fill="#CCCCCC" points="271.8,1046.5 271.3,1047.4 270.9,1047.9 270.3,1048.5 269.8,1049.1 269,1049.3 268.3,1049.4 
	267.4,1049.5 267.4,1044.9 266.6,1044.9 266.6,1057.9 278.5,1057.9 278.5,1044.9 272,1044.9 272,1045.7 "/>
<polygon fill="#CCCCCC" points="315.2,1049.4 314.6,1049.3 314,1049.1 313.2,1048.5 312.6,1047.9 312.2,1047.4 311.7,1046.5 
	311.5,1045.7 311.5,1044.9 304.9,1044.9 304.9,1057.9 316.9,1057.9 316.9,1044.9 316.1,1044.9 316.1,1049.5 "/>
<polygon fill="#CCCCCC" points="286.8,1100.7 287.1,1099.8 287.6,1098.8 288,1098 288.6,1097.4 289.5,1096.8 290.3,1096.6 
	291.3,1096.1 292.2,1096.1 292.2,1065.6 292.8,1065.6 292.8,1060.1 292.2,1060.1 292.2,1059 266.8,1059 266.8,1068.7 266.8,1070.3 
	266.8,1102.8 273,1102.8 273,1098 273.7,1098 274.6,1098.4 275.3,1098.6 276.1,1099.2 276.6,1099.8 277,1100.4 277.4,1101.2 
	277.5,1101.9 277.7,1102.8 292.2,1102.8 292.2,1101.7 286.7,1101.7 "/>
<polygon fill="#CCCCCC" points="289.4,1049.4 288.5,1049.3 287.8,1049.1 287.1,1048.5 286.6,1047.9 286.2,1047.4 285.9,1046.5 
	285.5,1045.7 285.4,1044.9 279.3,1044.9 279.3,1057.9 290.9,1057.9 290.9,1055.3 291.1,1055.3 291.1,1044.9 290.2,1044.9 
	290.2,1049.5 "/>
<polygon fill="#CCCCCC" points="297.5,1046.5 296.9,1047.4 296.6,1047.9 296,1048.5 295.2,1049.1 294.6,1049.3 293.7,1049.4 
	293,1049.5 293,1044.9 292,1044.9 292,1055.3 292.2,1055.3 292.2,1057.9 304.2,1057.9 304.2,1044.9 297.7,1044.9 297.6,1045.7 "/>
<path fill="#CCCCCC" d="M318.7,1090.3v-1h-1.6v-2.4h1.6v-5.3h-0.3v-7h0.3v-3.4h0.3v-5.6h-0.3v-6.5h-25.6v1.1h-0.3v5.6h0.3v30.6h-0.3
	v5.6h0.3v1h25.6v-6.7h0.3v-5.6L318.7,1090.3L318.7,1090.3z M298.7,1060.9l-0.2,1l-0.3,0.9l-0.6,0.9l-0.7,0.7l-0.9,0.6l-0.9,0.3
	l-1,0.2l-1,0.1l1-0.1l1-0.2l0.9-0.3l0.9-0.6l0.7-0.7l0.6-0.9l0.3-0.9L298.7,1060.9l0.1-1h-5.6h5.6L298.7,1060.9z"/>
<g>
	<g>
		<path fill="#989798" d="M347.2,993.1v16.7h0.3v1.1h37.8v12v7.7v0.2h2v1.6h-2v0.2v7.6v20.1v7.6v0.2h2v1.6h-2v0.2v7.6v20v7.6v0.2h2
			v1.6h-2v0.2v7.6v20v7.7v0.2h2v1.6h-2v0.2v7.6v125.1h-47.6v16.8l-0.1,0.7l-0.2,0.7l-0.3,0.7l-0.3,0.7l-0.6,0.3l-0.7,0.2l-0.9,0.3
			H334h-4.8h-5.1h-33.3h-0.7l-0.7-0.2l-0.7-0.2l-0.6-0.3l-0.3-0.6l-0.3-0.7l-0.2-0.7v-0.7v-2h-5.6v-1l0.2-1l0.3-1l0.6-0.7l0.7-0.7
			l0.9-0.6l0.9-0.3l1-0.2l1-0.1l-1-0.1l-1-0.2l-0.9-0.3l-0.9-0.6l-0.7-0.7l-0.6-0.9l-0.3-1l-0.2-1v-1h5.6v-3.6h-22.6v-19.9h-2v-1.7
			h2v-35.5h-1.2v-40h1.2v-35h-2v-1.6h2v-35.9h-2v-1.8h2V1070h-2v-1.6h2v-35.9h-2v-1.6h2v-20h43.1v-1.1v-16.7H347.2 M352.7,987.5
			h-5.5h-39.5h-5.6v5.5v12.5h-37.6h-5.3v5.5v14.8h-2v5.5v1.6v5.5h2v25h-2v5.5v1.6v5.5h2v25h-2v5.5v1.6v5.5h2v24.5h-2v5.5v1.6v5.5h2
			v24.5h-1.2v5.5v40v5.5h1.2v24.4h-2v5.5v1.6v5.5h2v14.5v5.5h5.5h11.6l0,0l0.1,0.3l0.2,1l0.1,0.3l0.2,0.3l0.3,1l0.2,0.3l0,0l0,0
			l-0.2,0.7l-0.3,1l-0.2,0.3l-0.1,0.3l-0.2,1l-0.1,0.3v0.3v1l-0.3,6h6h0.7v0.1l0.2,0.6l0.3,0.7l0.2,0.3l0.2,0.2l0.3,0.6l0.3,0.3
			l0.3,0.3l0.6,0.3l0.3,0.2l0.3,0.2l0.7,0.2l0.2,0.1l0.2,0.1l0.7,0.2l0.7,0.2h0.7h0.7h0.1h0.1h33.3h5.1h4.8h0.1h0.1h0.7h0.7l0.7-0.2
			l0.7-0.2l0.2-0.1l0.2-0.1l0.7-0.2l0.3-0.2l0.3-0.2l0.6-0.3l0.3-0.3l0.3-0.3l0.3-0.6l0.2-0.2l0.2-0.3l0.3-0.7l0.2-0.6l0.1-0.6
			l0.2-0.7l0.1-0.3v-0.3v-0.7v-0.2v-0.6v-11.4h42h5.5v-5.5v-124.3v-2.6h2v-5.2v-1.5v-5.5h-2v-2.6v-20v-2.6h2v-5.5v-1.6v-5.5h-2v-2.6
			v-20v-2.6h2v-5.5v-1.6v-5.2h-2v-2.3v-20v-2.6h2v-5.5v-1.5v-5.5h-2v-2.6v-12v-5.5H383h-32.3v-1.1h-0.3v-11.2L352.7,987.5
			L352.7,987.5z"/>
	</g>
</g>
<g>
	<g>
		<path fill="#989798" d="M208.6,1158.8v2h20v19.5h1.2v40h-1.2v37.3H90.7V1235H87v5.6l-1-0.1l-1-0.2l-0.9-0.3l-0.9-0.6l-0.7-0.7
			l-0.5-0.9l-0.3-1l-0.2-1l-0.1-1l-0.1,1l-0.2,1l-0.3,1l-0.6,0.9l-0.7,0.7l-0.9,0.6l-1,0.3l-1,0.2l-1,0.1v-5.6h-4.9v-74.1h20.1v-2
			h1.6v2h36.8v-2h1.6v2h37.3v-2h1.6v2h37.3v-2L208.6,1158.8 M214,1153.3h-5.5h-1.6h-5.5v2H175v-2h-5.5h-1.6h-5.5v2H136v-2h-5.5H129
			h-5.5v2H97.8v-2h-5.5h-1.6h-5.5v2H70.7h-5.5v5.5v74.1v5.5h5.2v0.2v6l6-0.3h1h0.2l0.3-0.1l1-0.2l0.6-0.1l0.3-0.2l1-0.3l0.2-0.1h0.1
			l0,0l0.2,0.1l0.9,0.3l0.6,0.2l0.6,0.1l1,0.2l0.3,0.1l0,0v11.8v5.5h5.6h138.1h5.5v-6v-31.8h1.2v-5.5v-40v-5.5h-1.2v-13.9v-5.5h-5.5
			h-14.5L214,1153.3L214,1153.3z"/>
	</g>
</g>
<polygon fill="#CCCCCC" points="75.9,1063.2 75,1062.9 74.3,1062.6 73.9,1062 73.1,1061.6 72.7,1060.9 72.4,1060.2 72,1059.4 
	72,1058.5 71.9,1059.4 71.8,1060.2 71.4,1060.9 71,1061.6 70.3,1062 69.6,1062.6 69,1062.9 68.2,1063.2 67.4,1063.2 67.4,1058.5 
	55.2,1058.5 55.2,1081.1 65,1081.1 65,1082 73.9,1082 73.9,1081.1 94.8,1081.1 94.8,1058.5 76.7,1058.5 76.7,1063.2 "/>
<polygon fill="#CCCCCC" points="99.1,938.2 90.8,938.2 90.8,947.9 92.4,947.9 92.4,953.7 112.3,953.7 112.3,938.2 104.8,938.2 
	104.8,937.6 99.1,937.6 "/>
<polygon fill="#CCCCCC" points="114.3,1081.1 148.4,1081.1 148.4,1058.5 95.8,1058.5 95.8,1081.1 105.7,1081.1 105.7,1082 
	114.3,1082 "/>
<polygon fill="#496CB4" points="55.2,1057.5 65.4,1057.5 61,1048.1 61.7,1047.5 66.4,1057.5 67.4,1057.5 67.4,1058.1 76.7,1058.1 
	76.7,1057.5 137.3,1057.5 141.9,1047.5 142.7,1048.1 142,1049.5 143.5,1049.5 143.6,1048.8 143.7,1048.1 144,1047.1 144.6,1046.6 
	145.2,1046 145.7,1045.4 146.6,1045.2 147.4,1044.9 148.2,1044.9 148.2,1049.5 148.4,1049.5 148.4,943.4 125.1,943.4 125.1,942.5 
	114.4,942.5 114.4,943.4 112.8,943.4 112.8,954.6 90.1,954.6 90.1,943.4 89.3,943.4 89.3,942.5 78.7,942.5 78.7,943.4 55.2,943.4 
	55.2,1051 54.4,1051 54.4,1056.7 55.2,1056.7 "/>
<text transform="matrix(1 0 0 1 93.6285 1002.5361)" fill="#FFFFFF" font-family="'TradeGothic-BoldCondTwenty'" font-size="9.8136">1500</text>
<polygon fill="#4A6DB4" points="804.9,928.1 804.9,934.5 799.4,931.2 "/>
<g>
	<path fill="#989798" d="M698.8,894.1v1.9h0.1h10.3h0.2h10.2h0.2h10.8h0.2h10.9h0.2v-1.5h2.2v1.5h0.5h10.8h0.2h10.8h0.2h10.8h0.2
		h10.9h0.2v-1.5h2.2v2.2h-1.5v0.1v12v0.2v11.8v0.2v14.4v4.7v0.2h1.9v142.3h-36H747h-31.7h-8.6h-11.7v-26.2v-5.6V896.8v-2.7H698.8
		 M704.1,888.6h-5.3h-3.9h-5.5v5.5v2.7V1051v5.6v26.4v5.5h5.5h11.7h8.6H747h8.6h36.1h5.5v-5.5V940.7v-5.3h-1.9v-13.7v-0.2v-11.8
		v-0.2v-6.9h1.5v-5.5v-2v-5.5h-5.5h-2.2h-5.5v1.5h-5.6h-0.2h-10.8h-0.2h-10.8h-0.2h-5.6v-1.5h-5.6h-2.2h-5.5v1.5h-5.6h-0.2h-11.1
		h-0.2h-10.2h-0.2h-5.1L704.1,888.6L704.1,888.6z"/>
</g>
<polygon fill="#FFFFFF" points="789,931.5 789.4,931.5 794,931.5 794,930.6 793.7,929.8 793.2,929 792.9,928.4 792.3,927.8 
	791.7,927.3 791,927 790.2,926.9 789.4,926.7 790.2,926.6 791,926.5 791.7,926 792.3,925.6 792.9,925.1 793.2,924.3 793.7,923.6 
	794,922.7 794,921.9 789.4,921.9 789,921.9 "/>
<polygon fill="#FFFFFF" points="789,941.1 789.4,941.1 794,941.1 794,940.2 793.7,939.4 793.2,938.6 792.9,938.2 792.3,937.4 
	791.7,937 791,936.7 790.2,936.5 789.4,936.5 790.2,936.4 791,936.2 791.7,935.7 792.3,935.3 792.9,934.8 793.2,934 793.7,933.4 
	794,932.5 794,931.7 789.4,931.7 789,931.7 "/>
<polygon fill="#CCCCCC" points="717,1063.2 716.1,1062.9 715.4,1062.6 714.9,1062 714.1,1061.6 713.8,1060.9 713.5,1060.2 
	713.1,1059.4 713.1,1058.5 713,1059.4 712.9,1060.2 712.4,1060.9 712.1,1061.6 711.4,1062 710.7,1062.6 710,1062.9 709.3,1063.2 
	708.5,1063.2 708.5,1058.5 696.3,1058.5 696.3,1081.1 706.1,1081.1 706.1,1082 714.9,1082 714.9,1081.1 735.8,1081.1 735.8,1058.5 
	717.8,1058.5 717.8,1063.2 "/>
<polygon fill="#CCCCCC" points="740.2,938.2 731.9,938.2 731.9,947.9 733.5,947.9 733.5,953.7 753.3,953.7 753.3,938.2 745.8,938.2 
	745.8,937.6 740.2,937.6 "/>
<polygon fill="#CCCCCC" points="755.4,1081.1 789.5,1081.1 789.5,1058.5 736.9,1058.5 736.9,1081.1 746.8,1081.1 746.8,1082 
	755.4,1082 "/>
<polygon fill="#496CB4" points="696.3,1057.5 706.5,1057.5 702.1,1048.1 702.8,1047.5 707.4,1057.5 708.5,1057.5 708.5,1058.1 
	717.8,1058.1 717.8,1057.5 778.3,1057.5 783,1047.5 783.8,1048.1 783.1,1049.5 784.6,1049.5 784.7,1048.8 784.8,1048.1 785,1047.1 
	785.7,1046.6 786.3,1046 786.7,1045.4 787.7,1045.2 788.5,1044.9 789.2,1044.9 789.2,1049.5 789.5,1049.5 789.5,943.4 766.2,943.4 
	766.2,942.5 755.5,942.5 755.5,943.4 753.9,943.4 753.9,954.6 731.2,954.6 731.2,943.4 730.4,943.4 730.4,942.5 719.8,942.5 
	719.8,943.4 696.3,943.4 696.3,1051 695.5,1051 695.5,1056.7 696.3,1056.7 "/>
<text transform="matrix(1 0 0 1 734.7108 1002.5361)" fill="#FFFFFF" font-family="'TradeGothic-BoldCondTwenty'" font-size="9.8136">1500</text>
<rect x="288.6" y="1286.8" opacity="0.6" fill="#496CB4" enable-background="new    " width="1.2" height="7.3"/>
<rect x="290.9" y="1286.8" opacity="0.6" fill="#496CB4" enable-background="new    " width="1.2" height="7.3"/>
<rect x="293" y="1286.8" opacity="0.6" fill="#496CB4" enable-background="new    " width="1.2" height="7.3"/>
<rect x="295.1" y="1286.8" opacity="0.6" fill="#496CB4" enable-background="new    " width="1.2" height="7.3"/>
<rect x="297.5" y="1286.8" opacity="0.6" fill="#496CB4" enable-background="new    " width="1.2" height="7.3"/>
<rect x="299.5" y="1286.8" opacity="0.6" fill="#496CB4" enable-background="new    " width="1.2" height="7.3"/>
<rect x="301.8" y="1286.8" opacity="0.6" fill="#496CB4" enable-background="new    " width="1.2" height="7.3"/>
<rect x="304" y="1286.8" opacity="0.6" fill="#496CB4" enable-background="new    " width="1.2" height="7.3"/>
<rect x="288.6" y="1279.1" opacity="0.6" fill="#496CB4" enable-background="new    " width="1.2" height="7.3"/>
<rect x="290.9" y="1279.1" opacity="0.6" fill="#496CB4" enable-background="new    " width="1.2" height="7.3"/>
<rect x="293" y="1279.1" opacity="0.6" fill="#496CB4" enable-background="new    " width="1.2" height="7.3"/>
<rect x="295.1" y="1279.1" opacity="0.6" fill="#496CB4" enable-background="new    " width="1.2" height="7.3"/>
<rect x="297.5" y="1279.1" opacity="0.6" fill="#496CB4" enable-background="new    " width="1.2" height="7.3"/>
<rect x="299.5" y="1279.1" opacity="0.6" fill="#496CB4" enable-background="new    " width="1.2" height="7.3"/>
<rect x="301.8" y="1279.1" opacity="0.6" fill="#496CB4" enable-background="new    " width="1.2" height="7.3"/>
<rect x="304" y="1279.1" opacity="0.6" fill="#496CB4" enable-background="new    " width="1.2" height="7.3"/>
<rect x="306.3" y="1286.8" opacity="0.6" fill="#496CB4" enable-background="new    " width="1.2" height="7.3"/>
<rect x="308.5" y="1286.8" opacity="0.6" fill="#496CB4" enable-background="new    " width="1.2" height="7.3"/>
<rect x="306.3" y="1279.1" opacity="0.6" fill="#496CB4" enable-background="new    " width="1.2" height="7.3"/>
<rect x="308.5" y="1279.1" opacity="0.6" fill="#496CB4" enable-background="new    " width="1.2" height="7.3"/>
<rect x="312" y="1286.8" opacity="0.6" fill="#496CB4" enable-background="new    " width="1.2" height="7.3"/>
<rect x="314.2" y="1286.8" opacity="0.6" fill="#496CB4" enable-background="new    " width="1.2" height="7.3"/>
<rect x="316.5" y="1286.8" opacity="0.6" fill="#496CB4" enable-background="new    " width="1.2" height="7.3"/>
<rect x="318.5" y="1286.8" opacity="0.6" fill="#496CB4" enable-background="new    " width="1.2" height="7.3"/>
<rect x="320.8" y="1286.8" opacity="0.6" fill="#496CB4" enable-background="new    " width="1.2" height="7.3"/>
<rect x="322.9" y="1286.8" opacity="0.6" fill="#496CB4" enable-background="new    " width="1.2" height="7.3"/>
<rect x="325.1" y="1286.8" opacity="0.6" fill="#496CB4" enable-background="new    " width="1.2" height="7.3"/>
<rect x="327.2" y="1286.8" opacity="0.6" fill="#496CB4" enable-background="new    " width="1.2" height="7.3"/>
<rect x="312" y="1279.1" opacity="0.6" fill="#496CB4" enable-background="new    " width="1.2" height="7.3"/>
<rect x="314.2" y="1279.1" opacity="0.6" fill="#496CB4" enable-background="new    " width="1.2" height="7.3"/>
<rect x="316.5" y="1279.1" opacity="0.6" fill="#496CB4" enable-background="new    " width="1.2" height="7.3"/>
<rect x="318.5" y="1279.1" opacity="0.6" fill="#496CB4" enable-background="new    " width="1.2" height="7.3"/>
<rect x="320.8" y="1279.1" opacity="0.6" fill="#496CB4" enable-background="new    " width="1.2" height="7.3"/>
<rect x="322.9" y="1279.1" opacity="0.6" fill="#496CB4" enable-background="new    " width="1.2" height="7.3"/>
<rect x="325.1" y="1279.1" opacity="0.6" fill="#496CB4" enable-background="new    " width="1.2" height="7.3"/>
<rect x="327.2" y="1279.1" opacity="0.6" fill="#496CB4" enable-background="new    " width="1.2" height="7.3"/>
<rect x="329.6" y="1286.8" opacity="0.6" fill="#496CB4" enable-background="new    " width="1.2" height="7.3"/>
<rect x="332" y="1286.8" opacity="0.6" fill="#496CB4" enable-background="new    " width="1.2" height="7.3"/>
<rect x="329.6" y="1279.1" opacity="0.6" fill="#496CB4" enable-background="new    " width="1.2" height="7.3"/>
<rect x="332" y="1279.1" opacity="0.6" fill="#496CB4" enable-background="new    " width="1.2" height="7.3"/>
<g>
	<polygon fill="#4A6DB4" points="304.1,1171.1 304.1,1185 315.1,1185 315.1,1182.2 315.1,1181.1 315.1,1175.5 315.1,1171 	"/>
	<text transform="matrix(1 0 0 1 306.6465 1180.3711)" fill="#FFFFFF" font-family="'MyriadPro-Regular'" font-size="9.6276">E</text>
</g>
<rect x="316.2" y="981.6" fill="#FFFFFF" width="23.3" height="10.9"/>
<rect x="275.4" y="1281.6" fill="#FFFFFF" width="12.8" height="16.4"/>
<rect x="337.2" y="1021.3" opacity="0.6" fill="#496CB4" enable-background="new    " width="1.2" height="7.3"/>
<rect x="339.5" y="1021.3" opacity="0.6" fill="#496CB4" enable-background="new    " width="1.2" height="7.3"/>
<rect x="337.2" y="1013.5" opacity="0.6" fill="#496CB4" enable-background="new    " width="1.2" height="7.3"/>
<rect x="339.5" y="1013.5" opacity="0.6" fill="#496CB4" enable-background="new    " width="1.2" height="7.3"/>
<rect x="341.9" y="1021.3" opacity="0.6" fill="#496CB4" enable-background="new    " width="1.2" height="7.3"/>
<rect x="344.1" y="1021.3" opacity="0.6" fill="#496CB4" enable-background="new    " width="1.2" height="7.3"/>
<rect x="341.9" y="1013.5" opacity="0.6" fill="#496CB4" enable-background="new    " width="1.2" height="7.3"/>
<rect x="344.1" y="1013.5" opacity="0.6" fill="#496CB4" enable-background="new    " width="1.2" height="7.3"/>
<rect x="346.1" y="1021.3" opacity="0.6" fill="#496CB4" enable-background="new    " width="1.2" height="7.3"/>
<rect x="346.1" y="1013.5" opacity="0.6" fill="#496CB4" enable-background="new    " width="1.2" height="7.3"/>
<rect x="348.3" y="1021.3" opacity="0.6" fill="#496CB4" enable-background="new    " width="1.2" height="7.3"/>
<rect x="350.4" y="1021.3" opacity="0.6" fill="#496CB4" enable-background="new    " width="1.2" height="7.3"/>
<rect x="352.6" y="1021.3" opacity="0.6" fill="#496CB4" enable-background="new    " width="1.2" height="7.3"/>
<rect x="354.6" y="1021.3" opacity="0.6" fill="#496CB4" enable-background="new    " width="1.2" height="7.3"/>
<rect x="357" y="1021.3" opacity="0.6" fill="#496CB4" enable-background="new    " width="1.2" height="7.3"/>
<rect x="359.1" y="1021.3" opacity="0.6" fill="#496CB4" enable-background="new    " width="1.2" height="7.3"/>
<rect x="361.3" y="1021.3" opacity="0.6" fill="#496CB4" enable-background="new    " width="1.2" height="7.3"/>
<rect x="363.5" y="1021.3" opacity="0.6" fill="#496CB4" enable-background="new    " width="1.2" height="7.3"/>
<rect x="348.3" y="1013.5" opacity="0.6" fill="#496CB4" enable-background="new    " width="1.2" height="7.3"/>
<rect x="350.4" y="1013.5" opacity="0.6" fill="#496CB4" enable-background="new    " width="1.2" height="7.3"/>
<rect x="352.6" y="1013.5" opacity="0.6" fill="#496CB4" enable-background="new    " width="1.2" height="7.3"/>
<rect x="354.6" y="1013.5" opacity="0.6" fill="#496CB4" enable-background="new    " width="1.2" height="7.3"/>
<rect x="357" y="1013.5" opacity="0.6" fill="#496CB4" enable-background="new    " width="1.2" height="7.3"/>
<rect x="359.1" y="1013.5" opacity="0.6" fill="#496CB4" enable-background="new    " width="1.2" height="7.3"/>
<rect x="361.3" y="1013.5" opacity="0.6" fill="#496CB4" enable-background="new    " width="1.2" height="7.3"/>
<rect x="363.5" y="1013.5" opacity="0.6" fill="#496CB4" enable-background="new    " width="1.2" height="7.3"/>
<rect x="365.8" y="1021.3" opacity="0.6" fill="#496CB4" enable-background="new    " width="1.2" height="7.3"/>
<rect x="368.2" y="1021.3" opacity="0.6" fill="#496CB4" enable-background="new    " width="1.2" height="7.3"/>
<rect x="365.8" y="1013.5" opacity="0.6" fill="#496CB4" enable-background="new    " width="1.2" height="7.3"/>
<rect x="368.2" y="1013.5" opacity="0.6" fill="#496CB4" enable-background="new    " width="1.2" height="7.3"/>
<path fill="#FFFFFF" d="M311.6,1015.8"/>
<path fill="#496CB4" d="M152.7,1200.7v-0.3h-4v0.3l0,0l0,0h-22.5v-0.3h-4.6v0.3l0,0l0,0h-1.6v32.9h0.3l0,0h26.1l0,0h1.2l0,0l0,0h8.3
	v-32.9H152.7L152.7,1200.7z"/>
<g>
	<text transform="matrix(1 0 0 1 125.6887 1215.5123)" enable-background="new    "><tspan x="0" y="0" fill="#FFFFFF" font-family="'TradeGothic-BoldCondTwenty'" font-size="9.2642">SPIETH</tspan><tspan x="0" y="11.1" fill="#FFFFFF" font-family="'TradeGothic-BoldCondTwenty'" font-size="9.2642"> 1307</tspan></text>
</g>
<g>
	<text transform="matrix(1 0 0 1 1034.161 823.0602)" fill="#CCCCCC" font-family="'MyriadPro-Regular'" font-size="11.8885">E</text>
	<rect x="999.9" y="1245.7" fill="#CCCCCC" width="26.2" height="21.5"/>
	<g>
		
			<text transform="matrix(1 0 0 1 820.54 784.0215)" fill="#989798" font-family="'TradeGothic-BoldCondTwenty'" font-size="13.6301">Level </text>
	</g>
	<circle fill="#989798" cx="875.1" cy="781.8" r="23.1"/>
	
		<text transform="matrix(1 0 0 1 863.664 797.9365)" fill="#FFFFFF" font-family="'TradeGothic-BoldCondTwenty'" font-size="43.6166">2</text>
	<polygon fill="#4A6DB4" points="901.3,1191 901.3,1197.5 895.6,1194.2 	"/>
	<polygon fill="#4A6DB4" points="904.9,1197.4 904.9,1190.9 910.6,1194.1 	"/>
	<g>
		<path fill="#989798" d="M1004.4,995.9v2v15.7h38v12v7.6v0.2h2v1.6h-2v0.2v7.6v19.9v7.6v0.3h2v1.6h-2v0.2v7.6v19.9v7.6v0.3h2v1.6
			h-2v0.2v7.6v20.2v7.6v0.6h2v1.6h-2v0.2v7.6v34.7h4.7v0.7l-0.1,0.7l-0.2,0.7l-0.3,0.6l-0.3,0.6l-0.6,0.3l-0.6,0.3l-0.7,0.2
			l-0.7,0.2v0.1l0.7,0.1l0.7,0.2l0.6,0.3l0.6,0.3l0.3,0.6l0.3,0.6l0.2,0.7l0.1,0.7v0.7h-4.7v21.7v2.4v6.7h1.8h0.6l0.6,0.1l0.3,0.2
			l0.3,0.3l0.3,0.3l0.2,0.3l0.1,0.6v0.6v2.7v0.6l-0.1,0.6l-0.2,0.3l-0.3,0.3l-0.3,0.3l-0.3,0.2l-0.6,0.1h-0.6h-1.8v42h-47.6v16.8
			v0.7l-0.1,0.6l-0.2,0.6l-0.3,0.6l-0.3,0.3l-0.6,0.3l-0.6,0.2l-0.6,0.1h-0.7h-4.8h-5.1h-33.2h-0.7l-0.6-0.1l-0.6-0.2l-0.6-0.3
			l-0.3-0.3l-0.3-0.6l-0.2-0.6l-0.1-0.6v-0.7v-16.8h-23.2v-11.9v-7.7v-0.2h-2v-1.6h2v0.1v-7.7v-27.3h-36v37.3H748.1v-22.7h-20v-38.7
			h-1.7h-0.6l-0.6-0.1l-0.3-0.2l-0.3-0.3l-0.3-0.3l-0.2-0.3l-0.1-0.6v-0.6v-3v-0.6l0.1-0.6l0.2-0.3l0.3-0.3l0.3-0.3l0.3-0.2l0.6-0.1
			h0.6h1.9v-26.8h12h7.6h0.2v-2h1.6v2h0.2h7.6h21h7.6h0.2v-2h1.6v2h0.3h7.6h21.2h7.6h0.2v-2h1.6v2h0.3h7.6h21.1h7.6h0.3v-2h1.6v2
			h0.2h7.6h11.9v19.4H899v-1.8v-0.6l0.1-0.6l0.2-0.3l0.3-0.3l0.3-0.3l0.3-0.2l0.6-0.1h0.6h2.7h0.6l0.6,0.1l0.3,0.2l0.3,0.3l0.3,0.3
			l0.2,0.3l0.1,0.6v0.6v1.8h13.7l0,0v-27.4v-8v-0.3h-1.3v-1.6h2v-0.3v-7.6v-19.8v-7.8v-0.2h-2v-1.6h2v-0.5v-7.7v-19.8v-7.7v-0.2h-2
			v-1.6h2v-0.2v-7.7v-19.9v-7.8v-0.2h-2v-1.6h2v-0.3v-7.7v-11.8h43.1v-15.8v-2h0.6h0.6h37.4h0.6H1004.4 M1010,990.3h-5.5h-0.6h-0.6
			H966h-0.6h-0.6h-5.7v5.5v2v10.2h-37.6h-5.5v5.5v11.9v2.7h-2v5.5v1.6v5.5h2v2.6v19.9v2.7h-2v5.5v1.6v5.5h2v2.6v19.8v2.7h-2v5.5v1.6
			v5.5h2v2.6v19.8v2.7h-2v5.5v1.6v5.5h2v2.6v21.9h-3.6l-0.1-0.2l-0.2-0.3l-0.2-0.3l-0.2-0.3l-0.3-0.3l-0.2-0.2l-0.2-0.2l-0.3-0.3
			l-0.3-0.2l-0.3-0.2l-0.3-0.2l-0.3-0.2l-0.6-0.1l-0.6-0.1l-0.3-0.1h-0.3h-0.6h-0.2h-0.3h-3h-0.9h-0.2h-0.6H901l-0.3,0.1l-0.6,0.1
			l-0.3,0.1l-0.3,0.2l-0.3,0.2l-0.3,0.2l-0.3,0.3l-0.3,0.3l-0.2,0.2l-0.2,0.2l-0.3,0.3l-0.3,0.3l-0.2,0.6l-0.2,0.3h-3.9v-14.4v-5.5
			h-5.5h-11.9h-2.6v-2h-5.8h-1.6h-5.5v2h-2.7h-21.1h-3.1v-2h-5.5h-1.6h-5.5v2h-2.6h-21.1h-2.7v-2h-5.2h-1.8h-5.5v2h-2.6h-20.9h-2.4
			v-2H750h-1.6h-5.3v2h-2.6h-12H723v5.5v21.8l-0.2,0.1l-0.3,0.2l-0.3,0.2l-0.6,0.3l-0.3,0.3l-0.2,0.2l-0.2,0.2l-0.3,0.3l-0.3,0.3
			l-0.2,0.3l-0.2,0.3l-0.2,0.3l-0.1,0.3l-0.1,0.6l-0.2,0.7v0.7v0.6v0.1v0.1v2.7v0.1v0.1v0.6v0.6l0.1,0.6l0.1,0.6l0.1,0.6l0.2,0.6
			l0.2,0.3l0.2,0.3l0.2,0.3l0.3,0.3l0.2,0.2l0.2,0.2l0.3,0.3l0.3,0.2l0.3,0.2l0.3,0.2l0.2,0.1v34.1v5.5h5.5h14.5v17.2v5.5h5.5h137.6
			h5.5v-5.5v-31.7h25v23.1v2.7h-2.2v5.5v1.6v5.5h2v2.7v11.9v5.5h5.5h17.2v11.4v0.2v0.2v0.7v0.3l0.1,0.3l0.1,0.6l0.1,0.6l0.2,0.3
			l0.2,0.6l0.1,0.2l0.2,0.2l0.3,0.6l0.2,0.3l0.2,0.2l0.3,0.3l0.2,0.2l0.2,0.2l0.6,0.3l0.6,0.3l0.6,0.2l0.6,0.2l0.3,0.1l0.3,0.1
			l0.6,0.1l0.3,0.1h0.3h0.7h0.2h0.2h33.2h5.1h4.8h0.2h0.2h0.7h0.3l0.3-0.1l0.6-0.1l0.3-0.1l0.3-0.1l0.6-0.2l0.6-0.2l0.6-0.3l0.6-0.3
			l0.2-0.2l0.2-0.2l0.3-0.3l0.2-0.2l0.2-0.3l0.3-0.6l0.2-0.2l0.1-0.2l0.2-0.6l0.2-0.3l0.1-0.6l0.1-0.6l0.1-0.3v-0.2v-0.7v-0.2v-0.2
			V1285h43.1h5.5v-5.6v-37.5l0.2-0.1l0.3-0.2l0.3-0.2l0.3-0.2l0.3-0.3l0.2-0.2l0.2-0.2l0.3-0.3l0.3-0.3l0.2-0.3l0.2-0.3l0.2-0.3
			l0.1-0.3l0.1-0.6l0.1-0.3v-0.3v-0.6v-0.2v-0.2v-3.1v-0.2v-0.2v-0.6v-0.3l-0.1-0.3l-0.1-0.6l-0.1-0.6l-0.2-0.3l-0.2-0.3l-0.2-0.3
			l-0.2-0.3l-0.3-0.3l-0.2-0.2l-0.2-0.2l-0.3-0.3l-0.3-0.2l-0.3-0.2l-0.3-0.2l-0.2-0.1v-2.7v-2.4v-15.5h5.2l-0.6-6v-0.7v-1.6v-0.2
			l-0.1-0.7l-0.1-0.3l-0.2-0.3l-0.2-0.7l-0.1-0.3l0,0l0.1-0.2l0.2-0.7l0.2-0.3l0.1-0.6l0.1-0.7l0.1-0.3v-0.9v-0.7l0.3-6h-5.2v-29.2
			v-2.4h2v-5.5v-1.6v-5.5h-2v-2.7v-19.9v-2h2v-5.5v-1.6v-5.7h-2v-2.7v-19.8v-2.6h2v-5.5v-1.6v-5.5h-2v-2.7v-19.9v-2.6h2v-5.5v-1.6
			v-5.5h-2v-2.6v-12v-5.5h-5.5h-32.7v-10v-2L1010,990.3L1010,990.3z"/>
	</g>
	<polygon fill="#CCCCCC" points="1044,1194.2 1044.8,1194 1045.3,1193.7 1045.9,1193.2 1046.4,1192.5 1046.7,1192 1046.9,1191.2 
		1047.2,1190.5 1047.3,1190 1042.7,1190 1041.7,1190 1041.7,1199.2 1042.7,1199.2 1047.3,1199.2 1047.2,1198.5 1046.9,1197.7 
		1046.7,1197 1046.4,1196.6 1045.9,1195.9 1045.3,1195.4 1044.8,1195.1 1044,1194.7 1043.3,1194.5 1042.7,1194.5 1043.3,1194.5 	"/>
	<polygon fill="#CCCCCC" points="999.1,1166.2 996,1166.2 993.6,1166.2 987.3,1166.2 987.3,1167.4 992.8,1167.4 992.8,1168 
		992.7,1169 992.5,1169.5 992.2,1170.3 991.7,1171 991,1171.6 990.5,1172 989.7,1172.5 989,1172.7 988.1,1172.8 987.3,1172.9 
		987.3,1186.9 1004.6,1186.9 1004.6,1166.2 1003.8,1166.2 1003.8,1165.9 999.1,1165.9 	"/>
	<polygon fill="#496CB4" points="993.8,1054.1 993.8,1052.3 989.8,1052.3 989.8,1051.9 980.6,1051.9 980.6,1052.3 976.6,1052.3 
		976.6,1054.1 974.2,1054.1 974.2,1052.3 960.2,1052.3 960.2,1059.8 959.7,1059.8 959.7,1090.7 974.2,1090.7 974.2,1089.2 
		976.6,1089.2 976.6,1090.7 993.8,1090.7 993.8,1089.2 996,1089.2 996,1090.7 1005.1,1090.7 1005.1,1052.3 996.1,1052.3 
		996.1,1054.1 	"/>
	<polygon fill="#CCCCCC" points="974.3,1164 977.3,1164 977.3,1153.4 976.6,1153.3 975.8,1153 975,1152.8 974.3,1152.5 973.9,1152 
		973.1,1151.5 972.6,1150.8 972.3,1150 972.1,1149.3 971.7,1148.4 971.7,1147.8 977.3,1147.8 977.3,1146.7 961,1146.7 961,1154.4 
		960.1,1154.4 960.1,1175.5 977.3,1175.5 977.3,1166.3 974.3,1166.3 	"/>
	<polygon fill="#CCCCCC" points="976.6,1091.7 974.2,1091.7 959.9,1091.7 959.9,1108.5 979.6,1108.5 979.6,1102.9 980.5,1103 
		981.1,1103.2 982.1,1103.4 982.6,1103.8 983.2,1104.2 983.8,1104.9 984.3,1105.4 984.6,1106.2 984.9,1106.9 985.1,1107.8 
		985.2,1108.5 1004.8,1108.5 1004.8,1091.7 996,1091.7 993.8,1091.7 	"/>
	<polygon fill="#CCCCCC" points="989,1120.9 989.7,1121.2 990.5,1121.6 991,1121.9 991.7,1122.6 992.2,1123.3 992.5,1124 
		992.7,1124.6 992.8,1125.4 992.8,1126.3 987.3,1126.3 987.3,1127.1 993.6,1127.1 993.6,1126.5 996,1126.5 996,1127.1 
		1004.6,1127.1 1004.6,1109.5 987.3,1109.5 987.3,1120.8 988.1,1120.8 	"/>
	<polygon fill="#CCCCCC" points="993.6,1128.8 993.6,1128.2 987.3,1128.2 987.3,1139.3 988.1,1139.5 989,1139.6 989.7,1139.9 
		990.5,1140.2 991,1140.8 991.7,1141.3 992.2,1141.9 992.5,1142.7 992.7,1143.4 992.8,1144.3 992.8,1145 987.3,1145 987.3,1159.1 
		988.1,1159.1 989,1159.2 989.7,1159.6 990.5,1159.9 991,1160.3 991.7,1161 992.2,1161.6 992.5,1162.3 992.7,1163 992.8,1163.8 
		992.8,1164.6 987.3,1164.6 987.3,1165.5 993.6,1165.5 993.6,1163.8 996,1163.8 996,1165.5 999.1,1165.5 999.1,1164.8 999.2,1164.1 
		999.6,1163.6 1000,1162.8 1000.5,1162.3 1000.9,1161.9 1001.7,1161.3 1002.3,1161.1 1002.8,1161 1003.8,1160.9 1003.8,1165.5 
		1004.6,1165.5 1004.6,1155.7 1003.8,1155.7 1003.8,1146 1004.6,1146 1004.6,1128.2 996,1128.2 996,1128.8 	"/>
	<polygon fill="#CCCCCC" points="971.7,1141 972.1,1140.2 972.3,1139.6 972.6,1139 973.1,1138.2 973.9,1137.7 974.3,1137.3 
		975,1136.8 975.8,1136.5 976.6,1136.3 977.3,1136.2 977.3,1128.8 974.3,1128.8 974.3,1128.2 965.8,1128.2 965.8,1127.7 961,1127.7 
		961,1128.2 960.1,1128.2 960.1,1146 971.5,1146 971.5,1142.8 977.3,1142.8 977.3,1141.8 971.7,1141.8 	"/>
	<polygon fill="#CCCCCC" points="961.6,1122.6 962.5,1122.7 963.1,1123 963.9,1123.4 964.3,1123.7 964.8,1124.5 965.1,1125.1 
		965.6,1125.9 965.7,1126.5 965.8,1127.1 974.3,1127.1 974.3,1126.5 977.3,1126.5 977.3,1118 976.6,1118 975.8,1117.9 975,1117.7 
		974.3,1117.1 973.9,1116.7 973.1,1116.2 972.6,1115.4 972.3,1114.9 972.1,1114.1 971.7,1113.3 971.7,1112.4 977.3,1112.4 
		977.3,1109.5 960.1,1109.5 960.1,1110.3 959.6,1110.3 959.6,1116 960.1,1116 960.1,1127.1 961,1127.1 961,1122.6 	"/>
	<polygon fill="#CCCCCC" points="946.9,1078.4 946.4,1078.3 945.5,1078.2 944.8,1077.7 944.1,1077.5 943.3,1076.9 942.8,1076.5 
		942.4,1075.8 941.9,1075.1 941.6,1074.2 941.5,1073.6 941.4,1072.7 946.9,1072.7 946.9,1071.8 923.8,1071.8 923.8,1072.4 
		923.8,1072.8 923.8,1080.4 923.8,1090.1 946.9,1090.1 	"/>
	<polygon fill="#CCCCCC" points="946.9,1153 946.4,1152.9 945.5,1152.8 944.8,1152.7 944.1,1152.1 943.3,1151.7 942.8,1151.1 
		942.4,1150.5 941.9,1149.9 941.6,1149.1 941.5,1148.3 941.4,1147.5 946.9,1147.5 946.9,1146.6 923.8,1146.6 923.8,1147.4 
		923.8,1147.6 923.8,1155.3 923.8,1164.9 946.9,1164.9 	"/>
	<polygon fill="#CCCCCC" points="946.9,1187.2 946.9,1186.2 941.4,1186.2 941.5,1185.5 941.6,1184.6 941.9,1184 942.4,1183.3 
		942.8,1182.6 943.3,1182 944.1,1181.7 944.8,1181.1 945.5,1180.9 946.4,1180.8 946.9,1180.5 946.9,1165.3 923.8,1165.3 
		923.8,1182.6 924.9,1182.6 924.9,1184.9 923.8,1184.9 923.8,1187.2 	"/>
	<polygon fill="#CCCCCC" points="946.9,1107.9 941.4,1107.9 941.5,1107 941.6,1106.2 941.9,1105.4 942.4,1104.9 942.8,1104.2 
		943.3,1103.5 944.1,1103.2 944.8,1102.9 945.5,1102.4 946.4,1102.3 946.9,1102.3 946.9,1090.3 923.8,1090.3 923.8,1100.2 
		923.8,1107.9 923.8,1108.4 923.8,1108.7 946.9,1108.7 	"/>
	<polygon fill="#CCCCCC" points="946.9,1115.7 946.4,1115.7 945.5,1115.4 944.8,1115.2 944.1,1114.9 943.3,1114.4 942.8,1113.8 
		942.4,1113.3 941.9,1112.4 941.6,1111.7 941.5,1110.9 941.4,1110.2 946.9,1110.2 946.9,1109.1 923.8,1109.1 923.8,1109.9 
		923.8,1110.2 923.8,1117.9 923.8,1127.6 946.9,1127.6 	"/>
	<polygon fill="#CCCCCC" points="946.9,1145.4 941.4,1145.4 941.5,1144.5 941.6,1143.6 941.9,1142.9 942.4,1142.4 942.8,1141.6 
		943.3,1141 944.1,1140.7 944.8,1140.1 945.5,1139.9 946.4,1139.8 946.9,1139.8 946.9,1127.8 923.8,1127.8 923.8,1137.7 
		923.8,1145.4 923.8,1145.9 923.8,1146.2 946.9,1146.2 	"/>
	<polygon fill="#CCCCCC" points="907.2,1203 907.2,1208.6 906.5,1208.6 905.6,1208.5 904.9,1208.3 904.2,1207.7 903.5,1207.1 
		903,1206.7 902.5,1206 902.1,1205.3 901.8,1204.6 901.7,1203.8 901.6,1203 885.9,1203 885.9,1221.3 908.4,1221.3 908.4,1203 	"/>
	<polygon fill="#CCCCCC" points="850.5,1251.1 849.6,1251 848.9,1250.8 848.1,1250.2 847.6,1249.9 847.1,1249.3 846.5,1248.6 
		846.2,1247.9 845.9,1247.1 845.8,1246.3 845.7,1245.7 851.3,1245.7 851.3,1244.5 842.2,1244.5 839.8,1244.5 839.2,1244.5 
		836.9,1244.5 827.9,1244.5 827.9,1257.9 851.3,1257.9 851.3,1251.1 	"/>
	<polygon fill="#CCCCCC" points="921.9,1203 916.3,1203 916.1,1203.8 915.8,1204.6 915.7,1205.3 915.4,1206 914.8,1206.7 
		914.1,1207.1 913.6,1207.7 913,1208.3 912.1,1208.5 911.5,1208.6 910.6,1208.6 910.6,1203 909.2,1203 909.2,1221.3 921.9,1221.3 
		921.9,1220.2 	"/>
	<polygon fill="#CCCCCC" points="1017.6,1110 1023.4,1110 1023.3,1110.9 1023.1,1111.6 1022.7,1112.4 1022.4,1113.2 1021.9,1113.6 
		1021.5,1114.3 1020.7,1114.9 1020.1,1115.2 1019.2,1115.3 1018.4,1115.7 1017.6,1115.7 1017.6,1127.6 1041,1127.6 1041,1117.8 
		1041,1110.2 1041,1109.9 1041,1109.1 1017.6,1109.1 	"/>
	<polygon fill="#CCCCCC" points="1017.6,1139.8 1018.4,1139.8 1019.2,1139.9 1020.1,1140.1 1020.7,1140.7 1021.5,1141 
		1021.9,1141.6 1022.4,1142.4 1022.7,1142.9 1023.1,1143.6 1023.3,1144.5 1023.4,1145.4 1017.6,1145.4 1017.6,1146.2 1041,1146.2 
		1041,1145.9 1041,1145.2 1041,1137.7 1041,1127.8 1017.6,1127.8 	"/>
	<polygon fill="#CCCCCC" points="1017.6,1074 1023.4,1074 1023.3,1074.9 1023.1,1075.7 1022.7,1076.5 1022.4,1077 1021.9,1077.7 
		1021.5,1078.3 1020.7,1078.7 1020.1,1079.2 1019.2,1079.4 1018.4,1079.5 1017.6,1079.8 1017.6,1090.1 1041,1090.1 1041,1080.4 
		1041,1072.8 1041,1072.4 1041,1071.9 1017.6,1071.9 	"/>
	<polygon fill="#CCCCCC" points="1017.6,1102.1 1018.4,1102.3 1019.2,1102.4 1020.1,1102.8 1020.7,1103.2 1021.5,1103.5 
		1021.9,1104.1 1022.4,1104.9 1022.7,1105.4 1023.1,1106.2 1023.3,1106.9 1023.4,1107.8 1017.6,1107.8 1017.6,1108.7 1041,1108.7 
		1041,1108.4 1041,1107.9 1041,1100.2 1041,1090.4 1017.6,1090.4 	"/>
	<polygon fill="#CCCCCC" points="946.9,1070.4 941.4,1070.4 941.5,1069.5 941.6,1069 941.9,1068.1 942.4,1067.4 942.8,1066.8 
		943.3,1066.2 944.1,1065.7 944.8,1065.4 945.5,1065.1 946.4,1065 946.9,1064.9 946.9,1059.4 946.7,1059.4 946.7,1057.3 
		946.9,1057.3 946.9,1052.8 923.8,1052.8 923.8,1062.8 923.8,1070.6 923.8,1070.9 923.8,1071.5 946.9,1071.5 	"/>
	<polygon fill="#CCCCCC" points="1017.6,1147.6 1023.4,1147.6 1023.3,1148.3 1023.1,1149.2 1022.7,1149.9 1022.4,1150.7 
		1021.9,1151.1 1021.5,1151.8 1020.7,1152.4 1020.1,1152.7 1019.2,1152.9 1018.4,1153 1017.6,1153 1017.6,1178.5 1041,1178.5 
		1041,1155.3 1041,1147.6 1041,1147.4 1041,1146.7 1017.6,1146.7 	"/>
	<polygon fill="#CCCCCC" points="1017.6,1064.9 1018.4,1065 1019.2,1065.1 1020.1,1065.4 1020.7,1065.7 1021.5,1066.2 
		1021.9,1066.8 1022.4,1067.4 1022.7,1068.1 1023.1,1069 1023.3,1069.5 1023.4,1070.4 1017.6,1070.4 1017.6,1071.5 1041,1071.5 
		1041,1070.9 1041,1070.4 1041,1062.8 1041,1053.2 1017.6,1053.2 	"/>
	<polygon fill="#CCCCCC" points="946.9,1040.7 946.4,1040.7 945.5,1040.6 944.8,1040.2 944.1,1039.8 943.3,1039.3 942.8,1038.8 
		942.4,1038.1 941.9,1037.4 941.6,1036.6 941.5,1035.8 941.4,1034.9 946.9,1034.9 946.9,1034.3 923.8,1034.3 923.8,1034.9 
		923.8,1035.3 923.8,1042.9 923.8,1052.6 946.9,1052.6 	"/>
	<polygon fill="#CCCCCC" points="973.1,1016.2 973,1017 972.7,1017.8 972.5,1018.6 972.2,1019.4 971.6,1019.9 971.1,1020.6 
		970.5,1021 969.7,1021.3 969,1021.7 968.1,1021.8 967.5,1021.8 967.5,1033.3 977.8,1033.3 977.8,1015.2 967.5,1015.2 967.5,1016.2 
			"/>
	<polygon fill="#CCCCCC" points="1034.7,1034 1029,1034 1029,1034.4 1017.6,1034.4 1017.6,1035.3 1023.4,1035.3 1023.3,1036.1 
		1023.1,1037 1022.7,1037.6 1022.4,1038.3 1021.9,1039 1021.5,1039.4 1020.7,1040 1020.1,1040.6 1019.2,1040.7 1018.4,1040.8 
		1017.6,1040.9 1017.6,1052.8 1041,1052.8 1041,1042.9 1041,1035.4 1041,1034.9 1041,1034.4 1034.7,1034.4 	"/>
	<polygon fill="#CCCCCC" points="1029,1033.5 1029,1027.9 1029.9,1027.9 1030.7,1028.1 1031.4,1028.3 1032,1028.8 1032.8,1029.2 
		1033.4,1029.8 1033.8,1030.6 1034.1,1031.1 1034.5,1031.8 1034.7,1032.7 1034.7,1033.5 1041,1033.5 1041,1033.2 1041,1025.6 
		1041,1015.2 1028.3,1015.2 1028.3,1033.5 	"/>
	<polygon fill="#CCCCCC" points="916.4,1188.8 916.5,1189.5 916.6,1190.4 916.8,1191.1 917.2,1191.9 917.7,1192.5 918.3,1192.9 
		918.9,1193.6 919.6,1194 920.4,1194.2 921.1,1194.3 921.9,1194.3 921.1,1194.5 920.4,1194.7 919.6,1195 918.9,1195.4 918.3,1195.8 
		917.7,1196.5 917.2,1197 916.8,1197.7 916.6,1198.5 916.5,1199.3 916.4,1200.1 921.9,1200.1 922.9,1200.1 922.9,1188.8 
		921.9,1188.8 	"/>
	<polygon fill="#CCCCCC" points="878,1188.8 878,1189.5 878.3,1190.4 878.6,1191.1 878.9,1191.9 879.4,1192.5 880,1192.9 
		880.6,1193.6 881.3,1194 881.9,1194.2 882.7,1194.3 883.6,1194.3 882.7,1194.5 881.9,1194.7 881.3,1195 880.6,1195.4 880,1195.8 
		879.4,1196.5 878.9,1197 878.6,1197.7 878.3,1198.5 878,1199.3 878,1200.1 883.6,1200.1 884.4,1200.1 884.4,1188.8 883.6,1188.8 	
		"/>
	<rect x="950.2" y="1224.5" fill="#CCCCCC" width="12.6" height="16.1"/>
	<rect x="936.9" y="1224.5" fill="#CCCCCC" width="12.8" height="16.1"/>
	<polygon fill="#CCCCCC" points="975.9,1238.7 975.9,1224.5 963.2,1224.5 963.2,1240.5 974.2,1240.5 974.2,1238.7 	"/>
	<polygon fill="#CCCCCC" points="849.6,1223 848.9,1222.9 848.1,1222.4 847.6,1221.8 847.1,1221.3 846.5,1220.7 846.2,1220 
		845.9,1219.3 845.8,1218.5 845.7,1217.6 851.3,1217.6 851.3,1216.7 842.2,1216.7 839.8,1216.7 839.2,1216.7 836.9,1216.7 
		827.9,1216.7 827.9,1229.7 851.3,1229.7 851.3,1223.3 850.5,1223.3 	"/>
	<polygon fill="#CCCCCC" points="839.8,1243.5 842.2,1243.5 851.3,1243.5 851.3,1242.6 845.7,1242.6 845.8,1241.7 845.9,1241 
		846.2,1240.1 846.5,1239.5 847.1,1238.8 847.6,1238.3 848.1,1237.9 848.9,1237.6 849.6,1237.1 850.5,1236.9 851.3,1236.9 
		851.3,1230.4 827.9,1230.4 827.9,1243.5 836.9,1243.5 839.2,1243.5 	"/>
	<polygon fill="#CCCCCC" points="839.8,1215.7 842.2,1215.7 851.3,1215.7 851.3,1214.7 845.7,1214.7 845.8,1213.8 845.9,1213 
		846.2,1212.2 846.5,1211.6 847.1,1210.8 847.6,1210.4 848.1,1209.9 848.9,1209.6 849.6,1209.2 850.5,1209 851.3,1209 851.3,1202.2 
		846.8,1202.2 846.8,1203.7 844.4,1203.7 844.4,1202.2 827.9,1202.2 827.9,1215.7 836.9,1215.7 839.2,1215.7 	"/>
	<polygon fill="#CCCCCC" points="946.9,1033.3 960.1,1033.3 960.2,1032.6 960.5,1031.7 960.7,1031 961.1,1030.4 961.5,1029.8 
		962.2,1029.1 962.6,1028.6 963.4,1028.2 964.2,1027.9 965,1027.8 965.8,1027.8 965.8,1033.3 966.6,1033.3 966.6,1021.8 
		967.1,1021.8 967.1,1016.2 966.6,1016.2 966.6,1015.2 923.8,1015.2 923.8,1025.4 923.8,1033.2 923.8,1033.5 923.8,1033.8 
		946.9,1033.8 	"/>
	<polygon fill="#CCCCCC" points="1001.8,1271.7 1000.9,1271.7 1000.9,1264.2 994.2,1264.2 994.2,1264.9 999.2,1264.9 999.2,1265.7 
		999,1266.4 998.8,1267.2 998.4,1267.9 997.8,1268.4 997.2,1268.9 996.7,1269.3 995.9,1269.6 995.1,1269.9 994.2,1269.9 
		994.2,1277.4 1041,1277.4 1041,1264.2 1039.8,1264.2 1001.8,1264.2 	"/>
	<polygon fill="#CCCCCC" points="1018.8,1246.5 1018.3,1246.5 1018.3,1251.5 1018.8,1251.5 1018.8,1259.7 1039.8,1259.7 
		1039.8,1257.7 1041,1257.7 1041,1245.7 1040.6,1245.7 1018.8,1245.7 	"/>
	<polygon fill="#CCCCCC" points="966,1013.4 979.4,1013.4 979.4,1007.9 980.3,1007.9 980.9,1008.1 981.6,1008.3 982.4,1008.7 
		983.1,1009.2 983.6,1009.8 984.1,1010.3 984.4,1011.2 984.7,1011.8 984.9,1012.7 985.1,1013.4 985.1,1012.7 985.3,1011.8 
		985.6,1011.2 985.9,1010.3 986.4,1009.8 987.1,1009.2 987.6,1008.7 988.2,1008.3 989,1008.1 989.8,1007.9 990.7,1007.9 
		990.7,1013.4 1003.5,1013.4 1003.5,997.8 1003.5,995.7 966,995.7 966,997.8 	"/>
	<polygon fill="#CCCCCC" points="1016,1221.2 1010.5,1221.2 1010.5,1221.6 1009.3,1221.6 1009.3,1244.6 1040.6,1244.6 1040.6,1236 
		1035.3,1236 1035.5,1235.1 1035.6,1234.4 1036.1,1233.5 1036.5,1232.8 1037,1232.2 1037.5,1231.7 1038.3,1231.3 1039,1231 
		1039.9,1230.7 1040.6,1230.7 1040.6,1222.4 1039.8,1222.4 1039.8,1221.6 1016,1221.6 	"/>
	<polygon fill="#CCCCCC" points="1017.6,1207.7 1023.4,1207.7 1023.3,1208.6 1023.1,1209.3 1022.7,1210.2 1022.4,1210.8 
		1021.9,1211.5 1021.5,1212 1020.7,1212.5 1020.1,1212.9 1019.2,1213.2 1018.4,1213.3 1017.6,1213.4 1017.6,1220.7 1039.8,1220.7 
		1039.9,1220 1041,1220 1041,1201.9 1017.6,1201.9 	"/>
	<polygon fill="#CCCCCC" points="729.1,1196.8 729.1,1191.6 728.3,1191.6 728.3,1190.1 726.5,1190.1 725.9,1190.2 725.5,1190.3 
		724.9,1190.5 724.6,1190.9 724.2,1191.2 724,1191.8 723.7,1192.2 723.7,1192.8 723.7,1195.5 723.7,1196 724,1196.7 724.2,1197 
		724.6,1197.5 724.9,1197.7 725.5,1198.2 725.9,1198.4 726.5,1198.4 728.3,1198.4 728.3,1196.8 	"/>
	<polygon fill="#CCCCCC" points="975.9,1249.3 975,1249.2 974.3,1249.1 973.6,1248.7 972.7,1248.3 972.3,1247.9 971.6,1247.4 
		971.1,1246.6 970.8,1246 970.6,1245.2 970.5,1244.4 970.3,1243.6 975.9,1243.6 975.9,1241.3 974.2,1241.3 923.8,1241.3 
		923.8,1249.9 923.8,1257.7 923.8,1257.9 923.8,1259.4 923.8,1259.7 923.8,1267.5 923.8,1277.5 946.1,1277.5 975.9,1277.5 	"/>
	<polygon fill="#CCCCCC" points="995.9,1232.4 996.8,1232.8 997.3,1233.2 998,1233.5 998.6,1234.3 999,1234.9 999.3,1235.4 
		999.7,1236.2 999.9,1237 1000,1237.9 994.2,1237.9 994.2,1238.7 996.1,1238.7 996.1,1241 994.2,1241 994.2,1244.5 1008.8,1244.5 
		1008.8,1210.2 994.2,1210.2 994.2,1232.2 995.1,1232.2 	"/>
	<rect x="923.8" y="1224.5" fill="#CCCCCC" width="13" height="16.1"/>
	<rect x="878.3" y="1164.6" fill="#CCCCCC" width="6" height="22.3"/>
	<polygon fill="#CCCCCC" points="778.3,1218.4 778.4,1217.6 778.8,1216.8 779.1,1216.1 779.7,1215.5 780.1,1215 780.8,1214.6 
		781.6,1214 782.3,1213.8 783.2,1213.5 783.9,1213.5 783.9,1202.2 774.5,1202.2 774.5,1208 769.8,1208 769.8,1203.5 767.2,1203.5 
		767.2,1202.2 749.8,1202.2 749.8,1220.2 783.9,1220.2 783.9,1219.1 778.3,1219.1 	"/>
	<polygon fill="#CCCCCC" points="794.8,1213.7 795.5,1214 796.3,1214.3 796.9,1214.9 797.4,1215.3 798,1216.1 798.3,1216.8 
		798.5,1217.5 798.8,1218.4 798.9,1219 793.3,1219 793.3,1238.8 807.6,1238.8 809.8,1238.8 810.4,1238.8 812.6,1238.8 826.8,1238.8 
		826.8,1202 815.5,1202 815.5,1203.5 805.9,1203.5 805.9,1202 793.3,1202 793.3,1213.5 794,1213.5 	"/>
	<polygon fill="#CCCCCC" points="1041.7,1230.7 1041.7,1236 1042.7,1236 1042.7,1237.6 1044.5,1237.6 1045,1237.6 1045.5,1237.1 
		1046,1237 1046.5,1236.7 1046.7,1236.2 1046.9,1235.9 1047.2,1235.2 1047.3,1234.6 1047.3,1231.9 1047.2,1231.5 1046.9,1230.9 
		1046.7,1230.4 1046.5,1230 1046,1229.7 1045.5,1229.5 1045,1229.1 1044.5,1229.1 1042.7,1229.1 1042.7,1230.7 	"/>
	<polygon fill="#CCCCCC" points="827.7,1187.1 827.7,1181.3 828.5,1181.3 829.3,1181.7 830.1,1181.9 830.9,1182.2 831.4,1182.8 
		831.9,1183.5 832.5,1184 832.9,1184.6 833.1,1185.5 833.3,1186.2 833.3,1187.1 845.7,1187.1 845.7,1164.5 835.1,1164.5 
		827.6,1164.5 827.2,1164.5 826.6,1164.5 826.6,1187.1 	"/>
	<polygon fill="#CCCCCC" points="858.4,1187.1 858.4,1186.2 858.7,1185.5 859,1184.6 859.3,1184 859.7,1183.5 860.4,1182.8 
		860.9,1182.2 861.6,1181.9 862.4,1181.7 863.2,1181.3 864.1,1181.3 864.1,1187.1 864.8,1187.1 864.8,1164.6 864.8,1164.5 
		864.3,1164.5 864.1,1164.5 856.3,1164.5 845.9,1164.5 845.9,1187.1 	"/>
	<polygon fill="#CCCCCC" points="819.6,1187.1 819.7,1186.2 819.9,1185.5 820.1,1184.6 820.5,1184 821,1183.5 821.5,1182.8 
		822.2,1182.2 823,1181.9 823.7,1181.7 824.6,1181.3 825.1,1181.3 825.1,1187.1 826.3,1187.1 826.3,1164.5 825.7,1164.5 
		825.4,1164.5 817.7,1164.5 807.2,1164.5 807.2,1187.1 	"/>
	<polygon fill="#CCCCCC" points="780.9,1187.1 780.9,1186.2 781.4,1185.5 781.5,1184.6 782,1184 782.4,1183.5 783,1182.8 
		783.5,1182.2 784.2,1181.9 785.1,1181.7 785.7,1181.3 786.6,1181.3 786.6,1187.1 787.4,1187.1 787.4,1164.5 786.9,1164.5 
		786.6,1164.5 779,1164.5 768.5,1164.5 768.5,1187.1 	"/>
	<polygon fill="#CCCCCC" points="789.1,1187.1 789.1,1181.3 789.9,1181.3 790.7,1181.7 791.5,1181.9 792.1,1182.2 792.9,1182.8 
		793.4,1183.5 793.8,1184 794.2,1184.6 794.6,1185.5 794.7,1186.2 794.8,1187.1 806.8,1187.1 806.8,1164.5 796.5,1164.5 
		788.9,1164.5 788.4,1164.5 788,1164.5 788,1187.1 	"/>
	<polygon fill="#CCCCCC" points="866.4,1187.1 866.4,1181.3 867.2,1181.3 868,1181.7 868.8,1181.9 869.4,1182.2 870.2,1182.8 
		870.7,1183.5 871,1184 871.5,1184.6 871.8,1185.5 871.9,1186.2 872.2,1187.1 877.4,1187.1 877.4,1164.6 874,1164.6 866.3,1164.6 
		866,1164.6 865.5,1164.6 865.5,1187.1 	"/>
	<polygon fill="#CCCCCC" points="872.7,1244.5 872.2,1244.5 870,1244.5 860.6,1244.5 860.6,1245.7 866.1,1245.7 866.1,1246.3 
		866,1247.1 865.8,1247.9 865.4,1248.6 864.8,1249.3 864.2,1249.9 863.6,1250.2 863,1250.8 862.2,1251 861.4,1251.1 860.6,1251.1 
		860.6,1257.9 884.4,1257.9 884.4,1244.5 875,1244.5 	"/>
	<polygon fill="#CCCCCC" points="860.6,1237 861.4,1237 862.2,1237.1 863,1237.6 863.6,1237.9 864.2,1238.3 864.8,1238.8 
		865.4,1239.6 865.8,1240.3 866,1241 866.1,1241.8 866.1,1242.6 860.6,1242.6 860.6,1243.6 870,1243.6 872.2,1243.6 872.7,1243.6 
		875,1243.6 884.4,1243.6 884.4,1230.5 860.6,1230.5 	"/>
	<polygon fill="#CCCCCC" points="874.6,1216.7 872.4,1216.7 871.8,1216.7 869.6,1216.7 860.6,1216.7 860.6,1217.6 866.1,1217.6 
		866.1,1218.5 866,1219.3 865.8,1220 865.4,1220.7 864.8,1221.3 864.2,1221.8 863.6,1222.4 863,1222.9 862.2,1223 861.4,1223.3 
		860.6,1223.3 860.6,1229.7 880.6,1229.7 880.6,1222.4 884.4,1222.4 884.4,1221.3 884.4,1216.7 	"/>
	<polygon fill="#CCCCCC" points="783.2,1246.5 782.3,1246.3 781.6,1246.1 780.8,1245.7 780.1,1245.2 779.7,1244.5 779.1,1244 
		778.8,1243.3 778.4,1242.6 778.3,1241.7 778.3,1240.9 783.9,1240.9 783.9,1239.9 749.8,1239.9 749.8,1257.9 783.9,1257.9 
		783.9,1246.5 	"/>
	<polygon fill="#CCCCCC" points="749.1,1200.7 749.1,1187.7 748,1187.7 748,1187.5 742.4,1187.5 742.4,1187.7 729.8,1187.7 
		729.8,1191.6 735,1191.6 735,1192.4 734.8,1193.3 734.5,1194 734.1,1194.7 733.4,1195.4 733,1195.8 732.3,1196.5 731.4,1196.7 
		730.7,1196.8 729.8,1196.8 729.8,1235.1 748.2,1235.1 748.2,1200.7 	"/>
	<polygon fill="#CCCCCC" points="783.9,1227.8 783.2,1227.8 782.3,1227.7 781.6,1227.2 780.8,1226.9 780.1,1226.6 779.7,1225.8 
		779.1,1225.2 778.8,1224.5 778.4,1223.8 778.3,1223 778.3,1222.2 783.9,1222.2 783.9,1221.2 749.8,1221.2 749.8,1235.1 
		749.8,1238.8 783.9,1238.8 	"/>
	<polygon fill="#CCCCCC" points="812.6,1239.9 810.4,1239.9 809.8,1239.9 807.6,1239.9 793.3,1239.9 793.3,1240.9 798.9,1240.9 
		798.8,1241.7 798.5,1242.6 798.3,1243.3 798,1244 797.4,1244.5 796.9,1245.2 796.3,1245.7 795.5,1246.1 794.8,1246.3 794,1246.5 
		793.3,1246.5 793.3,1257.9 826.8,1257.9 826.8,1239.9 	"/>
	<polygon fill="#CCCCCC" points="742.4,1186.2 742.5,1185.5 742.9,1184.6 743.2,1184 743.9,1183.5 744.3,1182.8 744.9,1182.2 
		745.7,1181.9 746.4,1181.7 747.2,1181.3 748,1181.3 748,1187.1 748.9,1187.1 748.9,1164.5 748.5,1164.5 748.1,1164.5 740.6,1164.5 
		729.8,1164.5 729.8,1187.1 742.4,1187.1 	"/>
	<polygon fill="#CCCCCC" points="862.2,1209.2 863,1209.6 863.6,1209.9 864.2,1210.4 864.8,1210.8 865.4,1211.6 865.8,1212.2 
		866,1213 866.1,1213.8 866.1,1214.7 860.6,1214.7 860.6,1215.7 869.6,1215.7 871.8,1215.7 872.4,1215.7 874.6,1215.7 884.4,1215.7 
		884.4,1202.2 860.6,1202.2 860.6,1209 861.4,1209 	"/>
	<rect x="923.8" y="1201.9" fill="#CCCCCC" width="13" height="16.1"/>
	<rect x="936.9" y="1201.9" fill="#CCCCCC" width="12.8" height="16.1"/>
	<rect x="950.2" y="1201.9" fill="#CCCCCC" width="12.6" height="16.1"/>
	<polygon fill="#CCCCCC" points="974.2,1203.8 974.2,1201.9 963.2,1201.9 963.2,1217.9 975.9,1217.9 975.9,1203.8 	"/>
	<polygon fill="#CCCCCC" points="1018.8,1251.5 1018.3,1251.5 1017.8,1251.5 1017.8,1252.6 1010.5,1252.6 1010.5,1252.8 
		1010.5,1253.3 1017.8,1253.3 1017.8,1263.3 1001.8,1263.3 1001.8,1253.3 1005.5,1253.3 1005.5,1252.8 1005.5,1252.6 994.2,1252.6 
		994.2,1251.5 994,1251.5 993.5,1251.5 993.5,1257.5 994,1257.5 994.2,1257.5 994.2,1253.3 1000.1,1253.3 1000.1,1263.3 
		994.2,1263.3 994.2,1262.6 994,1262.6 993.5,1262.6 993.5,1264.9 994,1264.9 994.2,1264.9 994.2,1264.2 1000.9,1264.2 
		1000.9,1271.7 1001.8,1271.7 1001.8,1264.2 1039.8,1264.2 1039.8,1259.7 1018.8,1259.7 	"/>
	<rect x="994.2" y="1201.9" fill="#CCCCCC" width="14.5" height="7.6"/>
	<rect x="1017.6" y="1179.3" fill="#CCCCCC" width="23.3" height="8.1"/>
	
		<text transform="matrix(1 0 0 1 970.6826 1072.9424)" fill="#FFFFFF" font-family="'TradeGothic-BoldCondTwenty'" font-size="9.8136">2418</text>
	<rect x="946.8" y="1290.4" opacity="0.6" fill="#496CB4" enable-background="new    " width="1.2" height="7.3"/>
	<rect x="949.2" y="1290.4" opacity="0.6" fill="#496CB4" enable-background="new    " width="1.2" height="7.3"/>
	<rect x="951.3" y="1290.4" opacity="0.6" fill="#496CB4" enable-background="new    " width="1.2" height="7.3"/>
	<rect x="953.4" y="1290.4" opacity="0.6" fill="#496CB4" enable-background="new    " width="1.2" height="7.3"/>
	<rect x="955.7" y="1290.4" opacity="0.6" fill="#496CB4" enable-background="new    " width="1.2" height="7.3"/>
	<rect x="957.8" y="1290.4" opacity="0.6" fill="#496CB4" enable-background="new    " width="1.2" height="7.3"/>
	<rect x="959.9" y="1290.4" opacity="0.6" fill="#496CB4" enable-background="new    " width="1.2" height="7.3"/>
	<rect x="962.3" y="1290.4" opacity="0.6" fill="#496CB4" enable-background="new    " width="1.2" height="7.3"/>
	<rect x="946.8" y="1282.6" opacity="0.6" fill="#496CB4" enable-background="new    " width="1.2" height="7.3"/>
	<rect x="949.2" y="1282.6" opacity="0.6" fill="#496CB4" enable-background="new    " width="1.2" height="7.3"/>
	<rect x="951.3" y="1282.6" opacity="0.6" fill="#496CB4" enable-background="new    " width="1.2" height="7.3"/>
	<rect x="953.4" y="1282.6" opacity="0.6" fill="#496CB4" enable-background="new    " width="1.2" height="7.3"/>
	<rect x="955.7" y="1282.6" opacity="0.6" fill="#496CB4" enable-background="new    " width="1.2" height="7.3"/>
	<rect x="957.8" y="1282.6" opacity="0.6" fill="#496CB4" enable-background="new    " width="1.2" height="7.3"/>
	<rect x="959.9" y="1282.6" opacity="0.6" fill="#496CB4" enable-background="new    " width="1.2" height="7.3"/>
	<rect x="962.3" y="1282.6" opacity="0.6" fill="#496CB4" enable-background="new    " width="1.2" height="7.3"/>
	<rect x="964.7" y="1290.4" opacity="0.6" fill="#496CB4" enable-background="new    " width="1.2" height="7.3"/>
	<rect x="966.7" y="1290.4" opacity="0.6" fill="#496CB4" enable-background="new    " width="1.2" height="7.3"/>
	<rect x="964.7" y="1282.6" opacity="0.6" fill="#496CB4" enable-background="new    " width="1.2" height="7.3"/>
	<rect x="966.7" y="1282.6" opacity="0.6" fill="#496CB4" enable-background="new    " width="1.2" height="7.3"/>
	<rect x="969.8" y="1290.4" opacity="0.6" fill="#496CB4" enable-background="new    " width="1.2" height="7.3"/>
	<rect x="972.2" y="1290.4" opacity="0.6" fill="#496CB4" enable-background="new    " width="1.2" height="7.3"/>
	<rect x="974.2" y="1290.4" opacity="0.6" fill="#496CB4" enable-background="new    " width="1.2" height="7.3"/>
	<rect x="976.4" y="1290.4" opacity="0.6" fill="#496CB4" enable-background="new    " width="1.2" height="7.3"/>
	<rect x="978.6" y="1290.4" opacity="0.6" fill="#496CB4" enable-background="new    " width="1.2" height="7.3"/>
	<rect x="980.7" y="1290.4" opacity="0.6" fill="#496CB4" enable-background="new    " width="1.2" height="7.3"/>
	<rect x="983" y="1290.4" opacity="0.6" fill="#496CB4" enable-background="new    " width="1.2" height="7.3"/>
	<rect x="985.1" y="1290.4" opacity="0.6" fill="#496CB4" enable-background="new    " width="1.2" height="7.3"/>
	<rect x="969.8" y="1282.6" opacity="0.6" fill="#496CB4" enable-background="new    " width="1.2" height="7.3"/>
	<rect x="972.2" y="1282.6" opacity="0.6" fill="#496CB4" enable-background="new    " width="1.2" height="7.3"/>
	<rect x="974.2" y="1282.6" opacity="0.6" fill="#496CB4" enable-background="new    " width="1.2" height="7.3"/>
	<rect x="976.4" y="1282.6" opacity="0.6" fill="#496CB4" enable-background="new    " width="1.2" height="7.3"/>
	<rect x="978.6" y="1282.6" opacity="0.6" fill="#496CB4" enable-background="new    " width="1.2" height="7.3"/>
	<rect x="980.7" y="1282.6" opacity="0.6" fill="#496CB4" enable-background="new    " width="1.2" height="7.3"/>
	<rect x="983" y="1282.6" opacity="0.6" fill="#496CB4" enable-background="new    " width="1.2" height="7.3"/>
	<rect x="985.1" y="1282.6" opacity="0.6" fill="#496CB4" enable-background="new    " width="1.2" height="7.3"/>
	<rect x="987.4" y="1290.4" opacity="0.6" fill="#496CB4" enable-background="new    " width="1.2" height="7.3"/>
	<rect x="989.7" y="1290.4" opacity="0.6" fill="#496CB4" enable-background="new    " width="1.2" height="7.3"/>
	<rect x="987.4" y="1282.6" opacity="0.6" fill="#496CB4" enable-background="new    " width="1.2" height="7.3"/>
	<rect x="989.7" y="1282.6" opacity="0.6" fill="#496CB4" enable-background="new    " width="1.2" height="7.3"/>
	<polygon fill="#4A6DB4" points="962.2,1176.7 962.2,1190.4 973.3,1190.4 973.3,1187.7 973.3,1186.6 973.3,1181 973.3,1176.5 	"/>
	<text transform="matrix(1 0 0 1 964.7949 1185.8223)" fill="#FFFFFF" font-family="'MyriadPro-Regular'" font-size="9.6276">E</text>
	<g>
		<path fill="#4A6DB4" d="M1004.6,1250.1c-0.7,0-1.2-0.6-1.2-1.2s0.6-1.2,1.2-1.2c0.8,0,1.2,0.6,1.2,1.2
			C1005.9,1249.7,1005.3,1250.1,1004.6,1250.1z"/>
	</g>
	<path fill="#4A6DB4" d="M1002.6,1253.2v2.6c0,0.3-0.2,0.6-0.3,0.6c-0.2,0-0.3-0.1-0.3-0.6v-3.3c0-1.5,0.7-1.8,1.9-1.8h1.9
		c1.2,0,1.9,0.3,1.9,1.8v3.3c0,0.3-0.1,0.6-0.3,0.6c-0.2,0-0.3-0.1-0.3-0.6v-2.6c0-0.2-0.1-0.2-0.2-0.2c0,0-0.2,0-0.2,0.2
		c0,0.3,0,8.5,0,8.5c0,0.6-0.3,0.7-0.7,0.7c-0.1,0-0.7,0-0.7-0.7c0-0.6,0-5.1,0-5.1c0-0.1,0-0.2-0.1-0.2s-0.1,0-0.1,0.2
		c0,0,0,4.5,0,5.1c0,0.6-0.3,0.7-0.7,0.7c-0.1,0-0.7,0-0.7-0.7c0,0,0-8.2,0-8.5c0-0.2-0.1-0.2-0.2-0.2
		C1002.7,1252.8,1002.6,1252.8,1002.6,1253.2z"/>
	<path fill="#4A6DB4" d="M1002.5,1218.5c-0.7,0-1.1-0.6-1.1-1.1c0-0.7,0.3-1.1,1.1-1.1c0.6,0,1.1,0.6,1.1,1.1
		S1003,1218.5,1002.5,1218.5z"/>
	<path fill="#4A6DB4" d="M1003,1218.8c1.1,0,1.6,0.7,1.7,1.2l1,3.1c0.1,0.2,0,0.6-0.2,0.6c-0.2,0-0.3,0-0.6-0.2l-0.9-2.8
		c0-0.1-0.1-0.2-0.2-0.2s-0.1,0.2-0.1,0.3l1.6,5.1h-1.7c0,2,0,3.7,0,3.7c0,0.6-0.2,0.7-0.3,0.7c-0.1,0-0.3,0-0.3-0.7
		c0-0.6,0-3.6,0-3.6c0-0.1,0-0.2-0.2-0.2s-0.2,0-0.2,0.2c0,0,0,3.1,0,3.6c0,0.6-0.2,0.7-0.3,0.7c-0.1,0-0.3,0-0.3-0.7
		c0,0,0-1.8,0-3.7h-1.7l1.6-5.1c0-0.1,0-0.2-0.1-0.3c-0.1-0.1-0.2,0-0.2,0.2l-0.9,2.8c-0.1,0.2-0.2,0.3-0.6,0.2
		c-0.2,0-0.2-0.2-0.2-0.6l1-3.1c0.1-0.3,0.3-1.2,1.7-1.2H1003z"/>
	<rect x="993.5" y="1024.2" opacity="0.6" fill="#496CB4" enable-background="new    " width="1.2" height="7.3"/>
	<rect x="995.8" y="1024.2" opacity="0.6" fill="#496CB4" enable-background="new    " width="1.2" height="7.3"/>
	<rect x="993.5" y="1016.4" opacity="0.6" fill="#496CB4" enable-background="new    " width="1.2" height="7.3"/>
	<rect x="995.8" y="1016.4" opacity="0.6" fill="#496CB4" enable-background="new    " width="1.2" height="7.3"/>
	<rect x="998.1" y="1024.2" opacity="0.6" fill="#496CB4" enable-background="new    " width="1.2" height="7.3"/>
	<rect x="1000.2" y="1024.2" opacity="0.6" fill="#496CB4" enable-background="new    " width="1.2" height="7.3"/>
	<rect x="998.1" y="1016.4" opacity="0.6" fill="#496CB4" enable-background="new    " width="1.2" height="7.3"/>
	<rect x="1000.2" y="1016.4" opacity="0.6" fill="#496CB4" enable-background="new    " width="1.2" height="7.3"/>
	<rect x="1002.4" y="1024.2" opacity="0.6" fill="#496CB4" enable-background="new    " width="1.2" height="7.3"/>
	<rect x="1002.4" y="1016.4" opacity="0.6" fill="#496CB4" enable-background="new    " width="1.2" height="7.3"/>
	<rect x="1004.4" y="1024.2" opacity="0.6" fill="#496CB4" enable-background="new    " width="1.2" height="7.3"/>
	<rect x="1006.6" y="1024.2" opacity="0.6" fill="#496CB4" enable-background="new    " width="1.2" height="7.3"/>
	<rect x="1008.9" y="1024.2" opacity="0.6" fill="#496CB4" enable-background="new    " width="1.2" height="7.3"/>
	<rect x="1010.9" y="1024.2" opacity="0.6" fill="#496CB4" enable-background="new    " width="1.2" height="7.3"/>
	<rect x="1013.3" y="1024.2" opacity="0.6" fill="#496CB4" enable-background="new    " width="1.2" height="7.3"/>
	<rect x="1015.3" y="1024.2" opacity="0.6" fill="#496CB4" enable-background="new    " width="1.2" height="7.3"/>
	<rect x="1017.5" y="1024.2" opacity="0.6" fill="#496CB4" enable-background="new    " width="1.2" height="7.3"/>
	<rect x="1019.8" y="1024.2" opacity="0.6" fill="#496CB4" enable-background="new    " width="1.2" height="7.3"/>
	<rect x="1004.4" y="1016.4" opacity="0.6" fill="#496CB4" enable-background="new    " width="1.2" height="7.3"/>
	<rect x="1006.6" y="1016.4" opacity="0.6" fill="#496CB4" enable-background="new    " width="1.2" height="7.3"/>
	<rect x="1008.9" y="1016.4" opacity="0.6" fill="#496CB4" enable-background="new    " width="1.2" height="7.3"/>
	<rect x="1010.9" y="1016.4" opacity="0.6" fill="#496CB4" enable-background="new    " width="1.2" height="7.3"/>
	<rect x="1013.3" y="1016.4" opacity="0.6" fill="#496CB4" enable-background="new    " width="1.2" height="7.3"/>
	<rect x="1015.3" y="1016.4" opacity="0.6" fill="#496CB4" enable-background="new    " width="1.2" height="7.3"/>
	<rect x="1017.5" y="1016.4" opacity="0.6" fill="#496CB4" enable-background="new    " width="1.2" height="7.3"/>
	<rect x="1019.8" y="1016.4" opacity="0.6" fill="#496CB4" enable-background="new    " width="1.2" height="7.3"/>
	<rect x="1022" y="1024.2" opacity="0.6" fill="#496CB4" enable-background="new    " width="1.2" height="7.3"/>
	<rect x="1024.3" y="1024.2" opacity="0.6" fill="#496CB4" enable-background="new    " width="1.2" height="7.3"/>
	<rect x="1022" y="1016.4" opacity="0.6" fill="#496CB4" enable-background="new    " width="1.2" height="7.3"/>
	<rect x="1024.3" y="1016.4" opacity="0.6" fill="#496CB4" enable-background="new    " width="1.2" height="7.3"/>
	<rect x="893.2" y="1222.1" fill="#FFFFFF" width="1.9" height="8"/>
	<rect x="897.3" y="1222.1" fill="#FFFFFF" width="1.9" height="8"/>
	<rect x="901.6" y="1222.1" fill="#FFFFFF" width="1.9" height="8"/>
	<rect x="905.7" y="1222.1" fill="#FFFFFF" width="1.9" height="8"/>
	<rect x="910" y="1222.1" fill="#FFFFFF" width="1.9" height="8"/>
	<rect x="914.1" y="1222.1" fill="#FFFFFF" width="1.9" height="8"/>
	<rect x="892.7" y="1171.1" fill="#FFFFFF" width="1.9" height="11.8"/>
	<rect x="897.1" y="1171.1" fill="#FFFFFF" width="1.9" height="11.8"/>
	<rect x="901.3" y="1171.1" fill="#FFFFFF" width="1.9" height="11.8"/>
	<rect x="905.5" y="1171.1" fill="#FFFFFF" width="1.9" height="11.8"/>
	<rect x="909.8" y="1171.1" fill="#FFFFFF" width="1.9" height="11.8"/>
	<rect x="913.9" y="1171.1" fill="#FFFFFF" width="1.9" height="11.8"/>
	<g>
		<polygon fill="#CCCCCC" points="1036.3,992 1036.3,988.2 1036.3,985.7 1036.3,948.3 1036.3,946.6 1036.3,908.6 1036.3,906.5 
			1036.3,869 1036.3,867.3 1036.3,855.1 1049.8,855.1 1106.7,855.1 1108.3,855.1 1306.1,855.1 1311.6,855.1 1311.6,849.4 
			1311.6,846.7 1311.6,807.6 1311.6,802.2 1308.2,802.2 1308.2,798.2 1311.6,798.2 1311.6,792.8 1311.6,750.7 1311.6,745.3 
			1306.1,745.3 1265.9,745.3 1264.3,745.3 1226.7,745.3 1225,745.3 1187.9,745.3 1185.5,745.3 1148.1,745.3 1146.5,745.3 
			1108.9,745.3 1107.2,745.3 1069.4,745.3 1067.7,745.3 990.8,745.3 989.1,745.3 951.9,745.3 949.5,745.3 944.3,745.5 944.3,750.9 
			944.3,821.4 932.7,821.4 927.2,821.4 927.2,826.8 927.2,987.1 927.2,992 		"/>
	</g>
	<polygon fill="#496CB4" points="958.5,792.5 963.3,792.5 963.3,791.9 963.3,792.5 963.3,792.5 963.3,791.9 988.7,791.9 
		988.7,791.9 963.3,791.9 988.7,791.9 988.7,790.7 990.5,790.7 990.5,790.7 990.5,790.7 990.5,791.9 990.5,791.9 996.8,791.9 
		990.5,791.9 990.5,791.9 996.8,791.9 996.8,791.9 996.8,791.9 996.8,791.9 996.8,792.5 1001.5,792.5 1001.5,791.9 1008.9,791.9 
		1008.9,751.7 990.5,751.7 990.5,753.3 990.5,753.3 990.5,753.3 990.5,753.3 988.7,753.3 988.7,751.7 951.2,751.7 951.2,753.3 
		951.2,753.3 951.2,753.3 950.6,753.3 950.6,790.7 950.6,790.7 950.6,790.7 950.6,790.7 951.6,790.7 951.6,790.7 951.6,790.7 
		951.6,790.7 951.6,791.9 951.6,791.9 951.6,791.9 951.6,791.9 958.5,791.9 951.6,791.9 951.6,791.9 958.5,791.9 958.5,791.9 
		958.5,791.9 958.5,791.9 	"/>
	
		<text transform="matrix(1 0 0 1 956.4017 775.0145)" fill="#FFFFFF" font-family="'TradeGothic-BoldCondTwenty'" font-size="9.4329">SPIETH 2200</text>
</g>
<rect x="385" y="1006" fill="#CCCCCC" width="183" height="105"/>
<path fill="#496CB4" d="M411,1012.9L411,1012.9v1.2l0,0v27.8v1.1h1.2l0,0v0.2h3.8v-0.2v0.2l0,0v-0.2l0,0l0,0H429l0,0v0.2h3.8v-0.2
	l0,0l0,0h1.4V1013H411V1012.9z"/>
<g>
	<text transform="matrix(1 0 0 1 413.1268 1027.1503)" enable-background="new    "><tspan x="0" y="0" fill="#FFFFFF" font-family="'TradeGothic-BoldCondTwenty'" font-size="7.9127">SPIETH</tspan><tspan x="0" y="9.5" fill="#FFFFFF" font-family="'TradeGothic-BoldCondTwenty'" font-size="7.9127">1222</tspan></text>
</g>
</svg>
