<?xml version="1.0" encoding="UTF-8" standalone="no"?>
<!-- Generator: Adobe Illustrator 19.1.0, SVG Export Plug-In . SVG Version: 6.00 Build 0)  -->

<svg
   xmlns:dc="http://purl.org/dc/elements/1.1/"
   xmlns:cc="http://creativecommons.org/ns#"
   xmlns:rdf="http://www.w3.org/1999/02/22-rdf-syntax-ns#"
   xmlns:svg="http://www.w3.org/2000/svg"
   xmlns="http://www.w3.org/2000/svg"
   xmlns:sodipodi="http://sodipodi.sourceforge.net/DTD/sodipodi-0.dtd"
   xmlns:inkscape="http://www.inkscape.org/namespaces/inkscape"
   version="1.1"
   id="Layer_1"
   x="0px"
   y="0px"
   viewBox="0 0 622.20001 558.29999"
   xml:space="preserve"
   inkscape:version="0.91 r13725"
   sodipodi:docname="lifesciences_level2.svg"
   width="622.20001"
   height="558.29999"><metadata
     id="metadata8421"><rdf:RDF><cc:Work
         rdf:about=""><dc:format>image/svg+xml</dc:format><dc:type
           rdf:resource="http://purl.org/dc/dcmitype/StillImage" /><dc:title></dc:title></cc:Work></rdf:RDF></metadata><defs
     id="defs8419" /><sodipodi:namedview
     pagecolor="#ffffff"
     bordercolor="#666666"
     borderopacity="1"
     objecttolerance="10"
     gridtolerance="10"
     guidetolerance="10"
     inkscape:pageopacity="0"
     inkscape:pageshadow="2"
     inkscape:window-width="1596"
     inkscape:window-height="861"
     id="namedview8417"
     showgrid="false"
     fit-margin-top="0"
     fit-margin-left="0"
     fit-margin-right="0"
     fit-margin-bottom="0"
     inkscape:zoom="0.35777778"
     inkscape:cx="311.6"
     inkscape:cy="278.6"
     inkscape:window-x="0"
     inkscape:window-y="18"
     inkscape:window-maximized="0"
     inkscape:current-layer="Layer_1" /><style
     type="text/css"
     id="style8039">
	.st0{fill:#4C6EB5;}
	.st1{fill:#989798;}
	.st2{fill:#FFFFFF;}
	.st3{fill:#CDCCCC;}
	.st4{fill:#4B6DB4;}
	.st5{font-family:'ArialMT';}
	.st6{font-size:9.8136px;}
	.st7{font-family:'MyriadPro-Regular';}
	.st8{font-size:11.8885px;}
	.st9{font-size:13.6301px;}
	.st10{font-size:43.6166px;}
	.st11{opacity:0.6;fill:#4B6DB4;enable-background:new    ;}
	.st12{font-size:9.6276px;}
	.st13{font-size:9.4329px;}
</style><g
     id="g8423"
     transform="translate(-138.4,-20.3)"><polygon
       id="polygon8041"
       points="253.9,203.1 253.9,209.5 248.4,206.2 "
       class="st0"
       style="fill:#4c6eb5" /><g
       id="g8043"><path
         id="path8045"
         d="m 147.8,169.1 0,1.9 0.1,0 10.3,0 0.2,0 10.2,0 0.2,0 10.8,0 0.2,0 10.9,0 0.2,0 0,-1.5 2.2,0 0,1.5 0.5,0 10.8,0 0.2,0 10.8,0 0.2,0 10.8,0 0.2,0 10.9,0 0.2,0 0,-1.5 2.2,0 0,2.2 -1.5,0 0,0.1 0,12 0,0.2 0,11.8 0,0.2 0,14.4 0,4.7 0,0.2 1.9,0 0,142.3 -36,0 -8.3,0 -31.7,0 -8.6,0 -11.7,0 0,-26.2 0,-5.6 0,-154 0,-2.7 3.8,0 m 5.3,-5.5 -5.3,0 -3.9,0 -5.5,0 0,5.5 0,2.7 0,154.2 0,5.6 0,26.4 0,5.5 5.5,0 11.7,0 8.6,0 31.8,0 8.6,0 36.1,0 5.5,0 0,-5.5 0,-142.3 0,-5.3 -1.9,0 0,-13.7 0,-0.2 0,-11.8 0,-0.2 0,-6.9 1.5,0 0,-5.5 0,-2 0,-5.5 -5.5,0 -2.2,0 -5.5,0 0,1.5 -5.6,0 -0.2,0 -10.8,0 -0.2,0 -10.8,0 -0.2,0 -5.6,0 0,-1.5 -5.6,0 -2.2,0 -5.5,0 0,1.5 -5.6,0 -0.2,0 -11.1,0 -0.2,0 -10.2,0 -0.2,0 -5.1,0 -0.2,-2.5 0,0 z"
         class="st1"
         inkscape:connector-curvature="0"
         style="fill:#989798" /></g><polygon
       id="polygon8047"
       points="243,205.6 242.7,204.8 242.2,204 241.9,203.4 241.3,202.8 240.7,202.3 240,202 239.2,201.9 238.4,201.7 239.2,201.6 240,201.5 240.7,201 241.3,200.6 241.9,200.1 242.2,199.3 242.7,198.6 243,197.7 243,196.9 238.4,196.9 238,196.9 238,206.5 238.4,206.5 243,206.5 "
       class="st2"
       style="fill:#ffffff" /><polygon
       id="polygon8049"
       points="243,215.2 242.7,214.4 242.2,213.6 241.9,213.2 241.3,212.4 240.7,212 240,211.7 239.2,211.5 238.4,211.5 239.2,211.4 240,211.2 240.7,210.7 241.3,210.3 241.9,209.8 242.2,209 242.7,208.4 243,207.5 243,206.7 238.4,206.7 238,206.7 238,216.1 238.4,216.1 243,216.1 "
       class="st2"
       style="fill:#ffffff" /><polygon
       id="polygon8051"
       points="163.9,337 163.1,336.6 162.8,335.9 162.5,335.2 162.1,334.4 162.1,333.5 162,334.4 161.9,335.2 161.4,335.9 161.1,336.6 160.4,337 159.7,337.6 159,337.9 158.3,338.2 157.5,338.2 157.5,333.5 145.3,333.5 145.3,356.1 155.1,356.1 155.1,357 163.9,357 163.9,356.1 184.8,356.1 184.8,333.5 166.8,333.5 166.8,338.2 166,338.2 165.1,337.9 164.4,337.6 "
       class="st3"
       style="fill:#cdcccc" /><polygon
       id="polygon8053"
       points="182.5,222.9 182.5,228.7 202.3,228.7 202.3,213.2 194.8,213.2 194.8,212.6 189.2,212.6 189.2,213.2 180.9,213.2 180.9,222.9 "
       class="st3"
       style="fill:#cdcccc" /><polygon
       id="polygon8055"
       points="185.9,333.5 185.9,356.1 195.8,356.1 195.8,357 204.4,357 204.4,356.1 238.5,356.1 238.5,333.5 "
       class="st3"
       style="fill:#cdcccc" /><polygon
       id="polygon8057"
       points="151.8,322.5 156.4,332.5 157.5,332.5 157.5,333.1 166.8,333.1 166.8,332.5 227.3,332.5 232,322.5 232.8,323.1 232.1,324.5 233.6,324.5 233.7,323.8 233.8,323.1 234,322.1 234.7,321.6 235.3,321 235.7,320.4 236.7,320.2 237.5,319.9 238.2,319.9 238.2,324.5 238.5,324.5 238.5,218.4 215.2,218.4 215.2,217.5 204.5,217.5 204.5,218.4 202.9,218.4 202.9,229.6 180.2,229.6 180.2,218.4 179.4,218.4 179.4,217.5 168.8,217.5 168.8,218.4 145.3,218.4 145.3,326 144.5,326 144.5,331.7 145.3,331.7 145.3,332.5 155.5,332.5 151.1,323.1 "
       class="st4"
       style="fill:#4b6db4" /><text
       id="text8059"
       class="st2 st5 st6"
       transform="translate(183.7108,277.5361)"
       style="font-size:9.81359959px;font-family:ArialMT;fill:#ffffff">1500</text>
<g
       id="g8061"><text
         id="text8063"
         class="st3 st7 st8"
         transform="translate(483.161,98.0602)"
         style="font-size:11.88850021px;font-family:MyriadPro-Regular;fill:#cdcccc">E</text>
<rect
         id="rect8065"
         height="21.5"
         width="26.200001"
         class="st3"
         y="520.70001"
         x="448.89999"
         style="fill:#cdcccc" /><g
         id="g8067"><text
           id="text8069"
           class="st1 st5 st9"
           transform="translate(269.54,59.0215)"
           style="font-size:13.63010025px;font-family:ArialMT;fill:#989798">Level </text>
</g><circle
         id="circle8071"
         r="23.1"
         cy="56.799999"
         cx="324.10001"
         class="st1"
         style="fill:#989798" /><text
         id="text8073"
         class="st2 st5 st10"
         transform="translate(312.664,72.9365)"
         style="font-size:43.61660004px;font-family:ArialMT;fill:#ffffff">2</text>
<polygon
         id="polygon8075"
         points="350.3,466 350.3,472.5 344.6,469.2 "
         class="st0"
         style="fill:#4c6eb5" /><polygon
         id="polygon8077"
         points="353.9,472.4 353.9,465.9 359.6,469.1 "
         class="st0"
         style="fill:#4c6eb5" /><g
         id="g8079"><path
           id="path8081"
           d="m 453.4,270.9 0,2 0,15.7 38,0 0,12 0,7.6 0,0.2 2,0 0,1.6 -2,0 0,0.2 0,7.6 0,19.9 0,7.6 0,0.3 2,0 0,1.6 -2,0 0,0.2 0,7.6 0,19.9 0,7.6 0,0.3 2,0 0,1.6 -2,0 0,0.2 0,7.6 0,20.2 0,7.6 0,0.6 2,0 0,1.6 -2,0 0,0.2 0,7.6 0,34.7 4.7,0 0,0.7 -0.1,0.7 -0.2,0.7 -0.3,0.6 -0.3,0.6 -0.6,0.3 -0.6,0.3 -0.7,0.2 -0.7,0.2 0,0.1 0.7,0.1 0.7,0.2 0.6,0.3 0.6,0.3 0.3,0.6 0.3,0.6 0.2,0.7 0.1,0.7 0,0.7 -4.7,0 0,21.7 0,2.4 0,6.7 1.8,0 0.6,0 0.6,0.1 0.3,0.2 0.3,0.3 0.3,0.3 0.2,0.3 0.1,0.6 0,0.6 0,2.7 0,0.6 -0.1,0.6 -0.2,0.3 -0.3,0.3 -0.3,0.3 -0.3,0.2 -0.6,0.1 -0.6,0 -1.8,0 0,42 -47.6,0 0,16.8 0,0.7 -0.1,0.6 -0.2,0.6 -0.3,0.6 -0.3,0.3 -0.6,0.3 -0.6,0.2 -0.6,0.1 -0.7,0 -4.8,0 -5.1,0 -33.2,0 -0.7,0 -0.6,-0.1 -0.6,-0.2 -0.6,-0.3 -0.3,-0.3 -0.3,-0.6 -0.2,-0.6 -0.1,-0.6 0,-0.7 0,-16.8 -23.2,0 0,-11.9 0,-7.7 0,-0.2 -2,0 0,-1.6 2,0 0,0.1 0,-7.7 0,-27.3 -36,0 0,37.3 -137.6,0 0,-22.7 -20,0 0,-38.7 -1.7,0 -0.6,0 -0.6,-0.1 -0.3,-0.2 -0.3,-0.3 -0.3,-0.3 -0.2,-0.3 -0.1,-0.6 0,-0.6 0,-3 0,-0.6 0.1,-0.6 0.2,-0.3 0.3,-0.3 0.3,-0.3 0.3,-0.2 0.6,-0.1 0.6,0 1.9,0 0,-26.8 12,0 7.6,0 0.2,0 0,-2 1.6,0 0,2 0.2,0 7.6,0 21,0 7.6,0 0.2,0 0,-2 1.6,0 0,2 0.3,0 7.6,0 21.2,0 7.6,0 0.2,0 0,-2 1.6,0 0,2 0.3,0 7.6,0 21.1,0 7.6,0 0.3,0 0,-2 1.6,0 0,2 0.2,0 7.6,0 11.9,0 0,19.4 14.4,0 0,-1.8 0,-0.6 0.1,-0.6 0.2,-0.3 0.3,-0.3 0.3,-0.3 0.3,-0.2 0.6,-0.1 0.6,0 2.7,0 0.6,0 0.6,0.1 0.3,0.2 0.3,0.3 0.3,0.3 0.2,0.3 0.1,0.6 0,0.6 0,1.8 13.7,0 0,0 0,-27.4 0,-8 0,-0.3 -1.3,0 0,-1.6 2,0 0,-0.3 0,-7.6 0,-19.8 0,-7.8 0,-0.2 -2,0 0,-1.6 2,0 0,-0.5 0,-7.7 0,-19.8 0,-7.7 0,-0.2 -2,0 0,-1.6 2,0 0,-0.2 0,-7.7 0,-19.9 0,-7.8 0,-0.2 -2,0 0,-1.6 2,0 0,-0.3 0,-7.7 0,-11.8 43.1,0 0,-15.8 0,-2 0.6,0 0.6,0 37.4,0 0.6,0 1.2,0 m 5.6,-5.6 -5.5,0 -0.6,0 -0.6,0 -37.3,0 -0.6,0 -0.6,0 -5.7,0 0,5.5 0,2 0,10.2 -37.6,0 -5.5,0 0,5.5 0,11.9 0,2.7 -2,0 0,5.5 0,1.6 0,5.5 2,0 0,2.6 0,19.9 0,2.7 -2,0 0,5.5 0,1.6 0,5.5 2,0 0,2.6 0,19.8 0,2.7 -2,0 0,5.5 0,1.6 0,5.5 2,0 0,2.6 0,19.8 0,2.7 -2,0 0,5.5 0,1.6 0,5.5 2,0 0,2.6 0,21.9 -3.6,0 -0.1,-0.2 -0.2,-0.3 -0.2,-0.3 -0.2,-0.3 -0.3,-0.3 -0.2,-0.2 -0.2,-0.2 -0.3,-0.3 -0.3,-0.2 -0.3,-0.2 -0.3,-0.2 -0.3,-0.2 -0.6,-0.1 -0.6,-0.1 -0.3,-0.1 -0.3,0 -0.6,0 -0.2,0 -0.3,0 -3,0 -0.9,0 -0.2,0 -0.6,0 -0.9,0 -0.3,0.1 -0.6,0.1 -0.3,0.1 -0.3,0.2 -0.3,0.2 -0.3,0.2 -0.3,0.3 -0.3,0.3 -0.2,0.2 -0.2,0.2 -0.3,0.3 -0.3,0.3 -0.2,0.6 -0.2,0.3 -3.9,0 0,-14.4 0,-5.5 -5.5,0 -11.9,0 -2.6,0 0,-2 -5.8,0 -1.6,0 -5.5,0 0,2 -2.7,0 -21.1,0 -3.1,0 0,-2 -5.5,0 -1.6,0 -5.5,0 0,2 -2.6,0 -21.1,0 -2.7,0 0,-2 -5.2,0 -1.8,0 -5.5,0 0,2 -2.6,0 -20.9,0 -2.4,0 0,-2 -5.8,0 -1.6,0 -5.3,0 0,2 -2.6,0 -12,0 -5.5,0 0,5.5 0,21.8 -0.2,0.1 -0.3,0.2 -0.3,0.2 -0.6,0.3 -0.3,0.3 -0.2,0.2 -0.2,0.2 -0.3,0.3 -0.3,0.3 -0.2,0.3 -0.2,0.3 -0.2,0.3 -0.1,0.3 -0.1,0.6 -0.2,0.7 0,0.7 0,0.6 0,0.1 0,0.1 0,2.7 0,0.1 0,0.1 0,0.6 0,0.6 0.1,0.6 0.1,0.6 0.1,0.6 0.2,0.6 0.2,0.3 0.2,0.3 0.2,0.3 0.3,0.3 0.2,0.2 0.2,0.2 0.3,0.3 0.3,0.2 0.3,0.2 0.3,0.2 0.2,0.1 0,34.1 0,5.5 5.5,0 14.5,0 0,17.2 0,5.5 5.5,0 137.6,0 5.5,0 0,-5.5 0,-31.7 25,0 0,23.1 0,2.7 -2.2,0 0,5.5 0,1.6 0,5.5 2,0 0,2.7 0,11.9 0,5.5 5.5,0 17.2,0 0,11.4 0,0.2 0,0.2 0,0.7 0,0.3 0.1,0.3 0.1,0.6 0.1,0.6 0.2,0.3 0.2,0.6 0.1,0.2 0.2,0.2 0.3,0.6 0.2,0.3 0.2,0.2 0.3,0.3 0.2,0.2 0.2,0.2 0.6,0.3 0.6,0.3 0.6,0.2 0.6,0.2 0.3,0.1 0.3,0.1 0.6,0.1 0.3,0.1 0.3,0 0.7,0 0.2,0 0.2,0 33.2,0 5.1,0 4.8,0 0.2,0 0.2,0 0.7,0 0.3,0 0.3,-0.1 0.6,-0.1 0.3,-0.1 0.3,-0.1 0.6,-0.2 0.6,-0.2 0.6,-0.3 0.6,-0.3 0.2,-0.2 0.2,-0.2 0.3,-0.3 0.2,-0.2 0.2,-0.3 0.3,-0.6 0.2,-0.2 0.1,-0.2 0.2,-0.6 0.2,-0.3 0.1,-0.6 0.1,-0.6 0.1,-0.3 0,-0.2 0,-0.7 0,-0.2 0,-0.2 0,-11.3 43.1,0 5.5,0 0,-5.6 0,-37.5 0.2,-0.1 0.3,-0.2 0.3,-0.2 0.3,-0.2 0.3,-0.3 0.2,-0.2 0.2,-0.2 0.3,-0.3 0.3,-0.3 0.2,-0.3 0.2,-0.3 0.2,-0.3 0.1,-0.3 0.1,-0.6 0.1,-0.3 0,-0.3 0,-0.6 0,-0.2 0,-0.2 0,-3.1 0,-0.2 0,-0.2 0,-0.6 0,-0.3 -0.1,-0.3 -0.1,-0.6 -0.1,-0.6 -0.2,-0.3 -0.2,-0.3 -0.2,-0.3 -0.2,-0.3 -0.3,-0.3 -0.2,-0.2 -0.2,-0.2 -0.3,-0.3 -0.3,-0.2 -0.3,-0.2 -0.3,-0.2 -0.2,-0.1 0,-2.7 0,-2.4 0,-15.5 5.2,0 -0.6,-6 0,-0.7 0,-1.6 0,-0.2 -0.1,-0.7 -0.1,-0.3 -0.2,-0.3 -0.2,-0.7 -0.1,-0.3 0,0 0.1,-0.2 0.2,-0.7 0.2,-0.3 0.1,-0.6 0.1,-0.7 0.1,-0.3 0,-0.9 0,-0.7 0.3,-6 -5.2,0 0,-29.2 0,-2.4 2,0 0,-5.5 0,-1.6 0,-5.5 -2,0 0,-2.7 0,-19.9 0,-2 2,0 0,-5.5 0,-1.6 0,-5.7 -2,0 0,-2.7 0,-19.8 0,-2.6 2,0 0,-5.5 0,-1.6 0,-5.5 -2,0 0,-2.7 0,-19.9 0,-2.6 2,0 0,-5.5 0,-1.6 0,-5.5 -2,0 0,-2.6 0,-12 0,-5.5 -5.5,0 -32.7,0 0,-10 0,-2 2.6,-6.4 0,0 z"
           class="st1"
           inkscape:connector-curvature="0"
           style="fill:#989798" /></g><polygon
         id="polygon8083"
         points="494.9,468.2 495.4,467.5 495.7,467 495.9,466.2 496.2,465.5 496.3,465 491.7,465 490.7,465 490.7,474.2 491.7,474.2 496.3,474.2 496.2,473.5 495.9,472.7 495.7,472 495.4,471.6 494.9,470.9 494.3,470.4 493.8,470.1 493,469.7 492.3,469.5 491.7,469.5 492.3,469.5 493,469.2 493.8,469 494.3,468.7 "
         class="st3"
         style="fill:#cdcccc" /><polygon
         id="polygon8085"
         points="436.3,441.2 436.3,442.4 441.8,442.4 441.8,443 441.7,444 441.5,444.5 441.2,445.3 440.7,446 440,446.6 439.5,447 438.7,447.5 438,447.7 437.1,447.8 436.3,447.9 436.3,461.9 453.6,461.9 453.6,441.2 452.8,441.2 452.8,440.9 448.1,440.9 448.1,441.2 445,441.2 442.6,441.2 "
         class="st3"
         style="fill:#cdcccc" /><polygon
         id="polygon8087"
         points="438.8,326.9 429.6,326.9 429.6,327.3 425.6,327.3 425.6,329.1 423.2,329.1 423.2,327.3 409.2,327.3 409.2,334.8 408.7,334.8 408.7,365.7 423.2,365.7 423.2,364.2 425.6,364.2 425.6,365.7 442.8,365.7 442.8,364.2 445,364.2 445,365.7 454.1,365.7 454.1,327.3 445.1,327.3 445.1,329.1 442.8,329.1 442.8,327.3 438.8,327.3 "
         class="st4"
         style="fill:#4b6db4" /><polygon
         id="polygon8089"
         points="425.6,428.3 424.8,428 424,427.8 423.3,427.5 422.9,427 422.1,426.5 421.6,425.8 421.3,425 421.1,424.3 420.7,423.4 420.7,422.8 426.3,422.8 426.3,421.7 410,421.7 410,429.4 409.1,429.4 409.1,450.5 426.3,450.5 426.3,441.3 423.3,441.3 423.3,439 426.3,439 426.3,428.4 "
         class="st3"
         style="fill:#cdcccc" /><polygon
         id="polygon8091"
         points="408.9,383.5 428.6,383.5 428.6,377.9 429.5,378 430.1,378.2 431.1,378.4 431.6,378.8 432.2,379.2 432.8,379.9 433.3,380.4 433.6,381.2 433.9,381.9 434.1,382.8 434.2,383.5 453.8,383.5 453.8,366.7 445,366.7 442.8,366.7 425.6,366.7 423.2,366.7 408.9,366.7 "
         class="st3"
         style="fill:#cdcccc" /><polygon
         id="polygon8093"
         points="440,396.9 440.7,397.6 441.2,398.3 441.5,399 441.7,399.6 441.8,400.4 441.8,401.3 436.3,401.3 436.3,402.1 442.6,402.1 442.6,401.5 445,401.5 445,402.1 453.6,402.1 453.6,384.5 436.3,384.5 436.3,395.8 437.1,395.8 438,395.9 438.7,396.2 439.5,396.6 "
         class="st3"
         style="fill:#cdcccc" /><polygon
         id="polygon8095"
         points="436.3,414.3 437.1,414.5 438,414.6 438.7,414.9 439.5,415.2 440,415.8 440.7,416.3 441.2,416.9 441.5,417.7 441.7,418.4 441.8,419.3 441.8,420 436.3,420 436.3,434.1 437.1,434.1 438,434.2 438.7,434.6 439.5,434.9 440,435.3 440.7,436 441.2,436.6 441.5,437.3 441.7,438 441.8,438.8 441.8,439.6 436.3,439.6 436.3,440.5 442.6,440.5 442.6,438.8 445,438.8 445,440.5 448.1,440.5 448.1,439.8 448.2,439.1 448.6,438.6 449,437.8 449.5,437.3 449.9,436.9 450.7,436.3 451.3,436.1 451.8,436 452.8,435.9 452.8,440.5 453.6,440.5 453.6,430.7 452.8,430.7 452.8,421 453.6,421 453.6,403.2 445,403.2 445,403.8 442.6,403.8 442.6,403.2 436.3,403.2 "
         class="st3"
         style="fill:#cdcccc" /><polygon
         id="polygon8097"
         points="421.6,414 422.1,413.2 422.9,412.7 423.3,412.3 424,411.8 424.8,411.5 425.6,411.3 426.3,411.2 426.3,403.8 423.3,403.8 423.3,403.2 414.8,403.2 414.8,402.7 410,402.7 410,403.2 409.1,403.2 409.1,421 420.5,421 420.5,417.8 426.3,417.8 426.3,416.8 420.7,416.8 420.7,416 421.1,415.2 421.3,414.6 "
         class="st3"
         style="fill:#cdcccc" /><polygon
         id="polygon8099"
         points="412.9,398.4 413.3,398.7 413.8,399.5 414.1,400.1 414.6,400.9 414.7,401.5 414.8,402.1 423.3,402.1 423.3,401.5 426.3,401.5 426.3,393 425.6,393 424.8,392.9 424,392.7 423.3,392.1 422.9,391.7 422.1,391.2 421.6,390.4 421.3,389.9 421.1,389.1 420.7,388.3 420.7,387.4 426.3,387.4 426.3,384.5 409.1,384.5 409.1,385.3 408.6,385.3 408.6,391 409.1,391 409.1,402.1 410,402.1 410,397.6 410.6,397.6 411.5,397.7 412.1,398 "
         class="st3"
         style="fill:#cdcccc" /><polygon
         id="polygon8101"
         points="393.8,352.7 393.1,352.5 392.3,351.9 391.8,351.5 391.4,350.8 390.9,350.1 390.6,349.2 390.5,348.6 390.4,347.7 395.9,347.7 395.9,346.8 372.8,346.8 372.8,347.4 372.8,347.8 372.8,355.4 372.8,365.1 395.9,365.1 395.9,353.4 395.4,353.3 394.5,353.2 "
         class="st3"
         style="fill:#cdcccc" /><polygon
         id="polygon8103"
         points="393.8,427.7 393.1,427.1 392.3,426.7 391.8,426.1 391.4,425.5 390.9,424.9 390.6,424.1 390.5,423.3 390.4,422.5 395.9,422.5 395.9,421.6 372.8,421.6 372.8,422.4 372.8,422.6 372.8,430.3 372.8,439.9 395.9,439.9 395.9,428 395.4,427.9 394.5,427.8 "
         class="st3"
         style="fill:#cdcccc" /><polygon
         id="polygon8105"
         points="390.5,460.5 390.6,459.6 390.9,459 391.4,458.3 391.8,457.6 392.3,457 393.1,456.7 393.8,456.1 394.5,455.9 395.4,455.8 395.9,455.5 395.9,440.3 372.8,440.3 372.8,457.6 373.9,457.6 373.9,459.9 372.8,459.9 372.8,462.2 395.9,462.2 395.9,461.2 390.4,461.2 "
         class="st3"
         style="fill:#cdcccc" /><polygon
         id="polygon8107"
         points="390.6,381.2 390.9,380.4 391.4,379.9 391.8,379.2 392.3,378.5 393.1,378.2 393.8,377.9 394.5,377.4 395.4,377.3 395.9,377.3 395.9,365.3 372.8,365.3 372.8,375.2 372.8,382.9 372.8,383.4 372.8,383.7 395.9,383.7 395.9,382.9 390.4,382.9 390.5,382 "
         class="st3"
         style="fill:#cdcccc" /><polygon
         id="polygon8109"
         points="393.8,390.2 393.1,389.9 392.3,389.4 391.8,388.8 391.4,388.3 390.9,387.4 390.6,386.7 390.5,385.9 390.4,385.2 395.9,385.2 395.9,384.1 372.8,384.1 372.8,384.9 372.8,385.2 372.8,392.9 372.8,402.6 395.9,402.6 395.9,390.7 395.4,390.7 394.5,390.4 "
         class="st3"
         style="fill:#cdcccc" /><polygon
         id="polygon8111"
         points="390.6,418.6 390.9,417.9 391.4,417.4 391.8,416.6 392.3,416 393.1,415.7 393.8,415.1 394.5,414.9 395.4,414.8 395.9,414.8 395.9,402.8 372.8,402.8 372.8,412.7 372.8,420.4 372.8,420.9 372.8,421.2 395.9,421.2 395.9,420.4 390.4,420.4 390.5,419.5 "
         class="st3"
         style="fill:#cdcccc" /><polygon
         id="polygon8113"
         points="354.6,483.5 353.9,483.3 353.2,482.7 352.5,482.1 352,481.7 351.5,481 351.1,480.3 350.8,479.6 350.7,478.8 350.6,478 334.9,478 334.9,496.3 357.4,496.3 357.4,478 356.2,478 356.2,483.6 355.5,483.6 "
         class="st3"
         style="fill:#cdcccc" /><polygon
         id="polygon8115"
         points="297.1,525.2 296.6,524.9 296.1,524.3 295.5,523.6 295.2,522.9 294.9,522.1 294.8,521.3 294.7,520.7 300.3,520.7 300.3,519.5 291.2,519.5 288.8,519.5 288.2,519.5 285.9,519.5 276.9,519.5 276.9,532.9 300.3,532.9 300.3,526.1 299.5,526.1 298.6,526 297.9,525.8 "
         class="st3"
         style="fill:#cdcccc" /><polygon
         id="polygon8117"
         points="364.8,479.6 364.7,480.3 364.4,481 363.8,481.7 363.1,482.1 362.6,482.7 362,483.3 361.1,483.5 360.5,483.6 359.6,483.6 359.6,478 358.2,478 358.2,496.3 370.9,496.3 370.9,495.2 370.9,478 365.3,478 365.1,478.8 "
         class="st3"
         style="fill:#cdcccc" /><polygon
         id="polygon8119"
         points="472.1,386.6 471.7,387.4 471.4,388.2 470.9,388.6 470.5,389.3 469.7,389.9 469.1,390.2 468.2,390.3 467.4,390.7 466.6,390.7 466.6,402.6 490,402.6 490,392.8 490,385.2 490,384.9 490,384.1 466.6,384.1 466.6,385 472.4,385 472.3,385.9 "
         class="st3"
         style="fill:#cdcccc" /><polygon
         id="polygon8121"
         points="469.1,415.1 469.7,415.7 470.5,416 470.9,416.6 471.4,417.4 471.7,417.9 472.1,418.6 472.3,419.5 472.4,420.4 466.6,420.4 466.6,421.2 490,421.2 490,420.9 490,420.2 490,412.7 490,402.8 466.6,402.8 466.6,414.8 467.4,414.8 468.2,414.9 "
         class="st3"
         style="fill:#cdcccc" /><polygon
         id="polygon8123"
         points="472.1,350.7 471.7,351.5 471.4,352 470.9,352.7 470.5,353.3 469.7,353.7 469.1,354.2 468.2,354.4 467.4,354.5 466.6,354.8 466.6,365.1 490,365.1 490,355.4 490,347.8 490,347.4 490,346.9 466.6,346.9 466.6,349 472.4,349 472.3,349.9 "
         class="st3"
         style="fill:#cdcccc" /><polygon
         id="polygon8125"
         points="469.1,377.8 469.7,378.2 470.5,378.5 470.9,379.1 471.4,379.9 471.7,380.4 472.1,381.2 472.3,381.9 472.4,382.8 466.6,382.8 466.6,383.7 490,383.7 490,383.4 490,382.9 490,375.2 490,365.4 466.6,365.4 466.6,377.1 467.4,377.3 468.2,377.4 "
         class="st3"
         style="fill:#cdcccc" /><polygon
         id="polygon8127"
         points="390.6,344 390.9,343.1 391.4,342.4 391.8,341.8 392.3,341.2 393.1,340.7 393.8,340.4 394.5,340.1 395.4,340 395.9,339.9 395.9,334.4 395.7,334.4 395.7,332.3 395.9,332.3 395.9,327.8 372.8,327.8 372.8,337.8 372.8,345.6 372.8,345.9 372.8,346.5 395.9,346.5 395.9,345.4 390.4,345.4 390.5,344.5 "
         class="st3"
         style="fill:#cdcccc" /><polygon
         id="polygon8129"
         points="472.1,424.2 471.7,424.9 471.4,425.7 470.9,426.1 470.5,426.8 469.7,427.4 469.1,427.7 468.2,427.9 467.4,428 466.6,428 466.6,453.5 490,453.5 490,430.3 490,422.6 490,422.4 490,421.7 466.6,421.7 466.6,422.6 472.4,422.6 472.3,423.3 "
         class="st3"
         style="fill:#cdcccc" /><polygon
         id="polygon8131"
         points="469.1,340.4 469.7,340.7 470.5,341.2 470.9,341.8 471.4,342.4 471.7,343.1 472.1,344 472.3,344.5 472.4,345.4 466.6,345.4 466.6,346.5 490,346.5 490,345.9 490,345.4 490,337.8 490,328.2 466.6,328.2 466.6,339.9 467.4,340 468.2,340.1 "
         class="st3"
         style="fill:#cdcccc" /><polygon
         id="polygon8133"
         points="393.8,315.2 393.1,314.8 392.3,314.3 391.8,313.8 391.4,313.1 390.9,312.4 390.6,311.6 390.5,310.8 390.4,309.9 395.9,309.9 395.9,309.3 372.8,309.3 372.8,309.9 372.8,310.3 372.8,317.9 372.8,327.6 395.9,327.6 395.9,315.7 395.4,315.7 394.5,315.6 "
         class="st3"
         style="fill:#cdcccc" /><polygon
         id="polygon8135"
         points="421.5,293.6 421.2,294.4 420.6,294.9 420.1,295.6 419.5,296 418.7,296.3 418,296.7 417.1,296.8 416.5,296.8 416.5,308.3 426.8,308.3 426.8,290.2 416.5,290.2 416.5,291.2 422.1,291.2 422,292 421.7,292.8 "
         class="st3"
         style="fill:#cdcccc" /><polygon
         id="polygon8137"
         points="466.6,309.4 466.6,310.3 472.4,310.3 472.3,311.1 472.1,312 471.7,312.6 471.4,313.3 470.9,314 470.5,314.4 469.7,315 469.1,315.6 468.2,315.7 467.4,315.8 466.6,315.9 466.6,327.8 490,327.8 490,317.9 490,310.4 490,309.9 490,309.4 483.7,309.4 483.7,309 478,309 478,309.4 "
         class="st3"
         style="fill:#cdcccc" /><polygon
         id="polygon8139"
         points="479.7,303.1 480.4,303.3 481,303.8 481.8,304.2 482.4,304.8 482.8,305.6 483.1,306.1 483.5,306.8 483.7,307.7 483.7,308.5 490,308.5 490,308.2 490,300.6 490,290.2 477.3,290.2 477.3,308.5 478,308.5 478,302.9 478.9,302.9 "
         class="st3"
         style="fill:#cdcccc" /><polygon
         id="polygon8141"
         points="365.8,466.1 366.2,466.9 366.7,467.5 367.3,467.9 367.9,468.6 368.6,469 369.4,469.2 370.1,469.3 370.9,469.3 370.1,469.5 369.4,469.7 368.6,470 367.9,470.4 367.3,470.8 366.7,471.5 366.2,472 365.8,472.7 365.6,473.5 365.5,474.3 365.4,475.1 370.9,475.1 371.9,475.1 371.9,463.8 370.9,463.8 365.4,463.8 365.5,464.5 365.6,465.4 "
         class="st3"
         style="fill:#cdcccc" /><polygon
         id="polygon8143"
         points="327.6,466.1 327.9,466.9 328.4,467.5 329,467.9 329.6,468.6 330.3,469 330.9,469.2 331.7,469.3 332.6,469.3 331.7,469.5 330.9,469.7 330.3,470 329.6,470.4 329,470.8 328.4,471.5 327.9,472 327.6,472.7 327.3,473.5 327,474.3 327,475.1 332.6,475.1 333.4,475.1 333.4,463.8 332.6,463.8 327,463.8 327,464.5 327.3,465.4 "
         class="st3"
         style="fill:#cdcccc" /><rect
         id="rect8145"
         height="16.1"
         width="12.6"
         class="st3"
         y="499.5"
         x="399.20001"
         style="fill:#cdcccc" /><rect
         id="rect8147"
         height="16.1"
         width="12.8"
         class="st3"
         y="499.5"
         x="385.89999"
         style="fill:#cdcccc" /><polygon
         id="polygon8149"
         points="412.2,515.5 423.2,515.5 423.2,513.7 424.9,513.7 424.9,499.5 412.2,499.5 "
         class="st3"
         style="fill:#cdcccc" /><polygon
         id="polygon8151"
         points="296.6,496.8 296.1,496.3 295.5,495.7 295.2,495 294.9,494.3 294.8,493.5 294.7,492.6 300.3,492.6 300.3,491.7 291.2,491.7 288.8,491.7 288.2,491.7 285.9,491.7 276.9,491.7 276.9,504.7 300.3,504.7 300.3,498.3 299.5,498.3 298.6,498 297.9,497.9 297.1,497.4 "
         class="st3"
         style="fill:#cdcccc" /><polygon
         id="polygon8153"
         points="300.3,517.6 294.7,517.6 294.8,516.7 294.9,516 295.2,515.1 295.5,514.5 296.1,513.8 296.6,513.3 297.1,512.9 297.9,512.6 298.6,512.1 299.5,511.9 300.3,511.9 300.3,505.4 276.9,505.4 276.9,518.5 285.9,518.5 288.2,518.5 288.8,518.5 291.2,518.5 300.3,518.5 "
         class="st3"
         style="fill:#cdcccc" /><polygon
         id="polygon8155"
         points="300.3,489.7 294.7,489.7 294.8,488.8 294.9,488 295.2,487.2 295.5,486.6 296.1,485.8 296.6,485.4 297.1,484.9 297.9,484.6 298.6,484.2 299.5,484 300.3,484 300.3,477.2 295.8,477.2 295.8,478.7 293.4,478.7 293.4,477.2 276.9,477.2 276.9,490.7 285.9,490.7 288.2,490.7 288.8,490.7 291.2,490.7 300.3,490.7 "
         class="st3"
         style="fill:#cdcccc" /><polygon
         id="polygon8157"
         points="409.5,306.7 409.7,306 410.1,305.4 410.5,304.8 411.2,304.1 411.6,303.6 412.4,303.2 413.2,302.9 414,302.8 414.8,302.8 414.8,308.3 415.6,308.3 415.6,296.8 416.1,296.8 416.1,291.2 415.6,291.2 415.6,290.2 372.8,290.2 372.8,300.4 372.8,308.2 372.8,308.5 372.8,308.8 395.9,308.8 395.9,308.3 409.1,308.3 409.2,307.6 "
         class="st3"
         style="fill:#cdcccc" /><polygon
         id="polygon8159"
         points="443.2,539.2 443.2,539.9 448.2,539.9 448.2,540.7 448,541.4 447.8,542.2 447.4,542.9 446.8,543.4 446.2,543.9 445.7,544.3 444.9,544.6 444.1,544.9 443.2,544.9 443.2,552.4 490,552.4 490,539.2 488.8,539.2 450.8,539.2 450.8,546.7 449.9,546.7 449.9,539.2 "
         class="st3"
         style="fill:#cdcccc" /><polygon
         id="polygon8161"
         points="467.8,526.5 467.8,534.7 488.8,534.7 488.8,532.7 490,532.7 490,520.7 489.6,520.7 467.8,520.7 467.8,521.5 467.3,521.5 467.3,526.5 "
         class="st3"
         style="fill:#cdcccc" /><polygon
         id="polygon8163"
         points="429.3,282.9 429.9,283.1 430.6,283.3 431.4,283.7 432.1,284.2 432.6,284.8 433.1,285.3 433.4,286.2 433.7,286.8 433.9,287.7 434.1,288.4 434.1,287.7 434.3,286.8 434.6,286.2 434.9,285.3 435.4,284.8 436.1,284.2 436.6,283.7 437.2,283.3 438,283.1 438.8,282.9 439.7,282.9 439.7,288.4 452.5,288.4 452.5,272.8 452.5,270.7 415,270.7 415,272.8 415,288.4 428.4,288.4 428.4,282.9 "
         class="st3"
         style="fill:#cdcccc" /><polygon
         id="polygon8165"
         points="458.3,496.6 458.3,519.6 489.6,519.6 489.6,511 484.3,511 484.5,510.1 484.6,509.4 485.1,508.5 485.5,507.8 486,507.2 486.5,506.7 487.3,506.3 488,506 488.9,505.7 489.6,505.7 489.6,497.4 488.8,497.4 488.8,496.6 465,496.6 465,496.2 459.5,496.2 459.5,496.6 "
         class="st3"
         style="fill:#cdcccc" /><polygon
         id="polygon8167"
         points="472.1,484.3 471.7,485.2 471.4,485.8 470.9,486.5 470.5,487 469.7,487.5 469.1,487.9 468.2,488.2 467.4,488.3 466.6,488.4 466.6,495.7 488.8,495.7 488.9,495 490,495 490,476.9 466.6,476.9 466.6,482.7 472.4,482.7 472.3,483.6 "
         class="st3"
         style="fill:#cdcccc" /><polygon
         id="polygon8169"
         points="177.3,465.1 175.5,465.1 174.9,465.2 174.5,465.3 173.9,465.5 173.6,465.9 173.2,466.2 173,466.8 172.7,467.2 172.7,467.8 172.7,470.5 172.7,471 173,471.7 173.2,472 173.6,472.5 173.9,472.7 174.5,473.2 174.9,473.4 175.5,473.4 177.3,473.4 177.3,471.8 178.1,471.8 178.1,466.6 177.3,466.6 "
         class="st3"
         style="fill:#cdcccc" /><polygon
         id="polygon8171"
         points="422.6,523.7 421.7,523.3 421.3,522.9 420.6,522.4 420.1,521.6 419.8,521 419.6,520.2 419.5,519.4 419.3,518.6 424.9,518.6 424.9,516.3 423.2,516.3 372.8,516.3 372.8,524.9 372.8,532.7 372.8,532.9 372.8,534.4 372.8,534.7 372.8,542.5 372.8,552.5 395.1,552.5 424.9,552.5 424.9,524.3 424,524.2 423.3,524.1 "
         class="st3"
         style="fill:#cdcccc" /><polygon
         id="polygon8173"
         points="447,508.5 447.6,509.3 448,509.9 448.3,510.4 448.7,511.2 448.9,512 449,512.9 443.2,512.9 443.2,513.7 445.1,513.7 445.1,516 443.2,516 443.2,519.5 457.8,519.5 457.8,485.2 443.2,485.2 443.2,507.2 444.1,507.2 444.9,507.4 445.8,507.8 446.3,508.2 "
         class="st3"
         style="fill:#cdcccc" /><rect
         id="rect8175"
         height="16.1"
         width="13"
         class="st3"
         y="499.5"
         x="372.79999"
         style="fill:#cdcccc" /><rect
         id="rect8177"
         height="22.299999"
         width="6"
         class="st3"
         y="439.60001"
         x="327.29999"
         style="fill:#cdcccc" /><polygon
         id="polygon8179"
         points="228.1,491.1 228.7,490.5 229.1,490 229.8,489.6 230.6,489 231.3,488.8 232.2,488.5 232.9,488.5 232.9,477.2 223.5,477.2 223.5,483 218.8,483 218.8,478.5 216.2,478.5 216.2,477.2 198.8,477.2 198.8,495.2 232.9,495.2 232.9,494.1 227.3,494.1 227.3,493.4 227.4,492.6 227.8,491.8 "
         class="st3"
         style="fill:#cdcccc" /><polygon
         id="polygon8181"
         points="245.9,489.9 246.4,490.3 247,491.1 247.3,491.8 247.5,492.5 247.8,493.4 247.9,494 242.3,494 242.3,513.8 256.6,513.8 258.8,513.8 259.4,513.8 261.6,513.8 275.8,513.8 275.8,477 264.5,477 264.5,478.5 254.9,478.5 254.9,477 242.3,477 242.3,488.5 243,488.5 243.8,488.7 244.5,489 245.3,489.3 "
         class="st3"
         style="fill:#cdcccc" /><polygon
         id="polygon8183"
         points="491.7,512.6 493.5,512.6 494,512.6 494.5,512.1 495,512 495.5,511.7 495.7,511.2 495.9,510.9 496.2,510.2 496.3,509.6 496.3,506.9 496.2,506.5 495.9,505.9 495.7,505.4 495.5,505 495,504.7 494.5,504.5 494,504.1 493.5,504.1 491.7,504.1 491.7,505.7 490.7,505.7 490.7,511 491.7,511 "
         class="st3"
         style="fill:#cdcccc" /><polygon
         id="polygon8185"
         points="278.3,456.7 279.1,456.9 279.9,457.2 280.4,457.8 280.9,458.5 281.5,459 281.9,459.6 282.1,460.5 282.3,461.2 282.3,462.1 294.7,462.1 294.7,439.5 284.1,439.5 276.6,439.5 276.2,439.5 275.6,439.5 275.6,462.1 276.7,462.1 276.7,456.3 277.5,456.3 "
         class="st3"
         style="fill:#cdcccc" /><polygon
         id="polygon8187"
         points="308,459.6 308.3,459 308.7,458.5 309.4,457.8 309.9,457.2 310.6,456.9 311.4,456.7 312.2,456.3 313.1,456.3 313.1,462.1 313.8,462.1 313.8,439.6 313.8,439.5 313.3,439.5 313.1,439.5 305.3,439.5 294.9,439.5 294.9,462.1 307.4,462.1 307.4,461.2 307.7,460.5 "
         class="st3"
         style="fill:#cdcccc" /><polygon
         id="polygon8189"
         points="269.1,459.6 269.5,459 270,458.5 270.5,457.8 271.2,457.2 272,456.9 272.7,456.7 273.6,456.3 274.1,456.3 274.1,462.1 275.3,462.1 275.3,439.5 274.7,439.5 274.4,439.5 266.7,439.5 256.2,439.5 256.2,462.1 268.6,462.1 268.7,461.2 268.9,460.5 "
         class="st3"
         style="fill:#cdcccc" /><polygon
         id="polygon8191"
         points="230.5,459.6 231,459 231.4,458.5 232,457.8 232.5,457.2 233.2,456.9 234.1,456.7 234.7,456.3 235.6,456.3 235.6,462.1 236.4,462.1 236.4,439.5 235.9,439.5 235.6,439.5 228,439.5 217.5,439.5 217.5,462.1 229.9,462.1 229.9,461.2 230.4,460.5 "
         class="st3"
         style="fill:#cdcccc" /><polygon
         id="polygon8193"
         points="239.7,456.7 240.5,456.9 241.1,457.2 241.9,457.8 242.4,458.5 242.8,459 243.2,459.6 243.6,460.5 243.7,461.2 243.8,462.1 255.8,462.1 255.8,439.5 245.5,439.5 237.9,439.5 237.4,439.5 237,439.5 237,462.1 238.1,462.1 238.1,456.3 238.9,456.3 "
         class="st3"
         style="fill:#cdcccc" /><polygon
         id="polygon8195"
         points="317,456.7 317.8,456.9 318.4,457.2 319.2,457.8 319.7,458.5 320,459 320.5,459.6 320.8,460.5 320.9,461.2 321.2,462.1 326.4,462.1 326.4,439.6 323,439.6 315.3,439.6 315,439.6 314.5,439.6 314.5,462.1 315.4,462.1 315.4,456.3 316.2,456.3 "
         class="st3"
         style="fill:#cdcccc" /><polygon
         id="polygon8197"
         points="309.6,519.5 309.6,520.7 315.1,520.7 315.1,521.3 315,522.1 314.8,522.9 314.4,523.6 313.8,524.3 313.2,524.9 312.6,525.2 312,525.8 311.2,526 310.4,526.1 309.6,526.1 309.6,532.9 333.4,532.9 333.4,519.5 324,519.5 321.7,519.5 321.2,519.5 319,519.5 "
         class="st3"
         style="fill:#cdcccc" /><polygon
         id="polygon8199"
         points="312,512.6 312.6,512.9 313.2,513.3 313.8,513.8 314.4,514.6 314.8,515.3 315,516 315.1,516.8 315.1,517.6 309.6,517.6 309.6,518.6 319,518.6 321.2,518.6 321.7,518.6 324,518.6 333.4,518.6 333.4,505.5 309.6,505.5 309.6,512 310.4,512 311.2,512.1 "
         class="st3"
         style="fill:#cdcccc" /><polygon
         id="polygon8201"
         points="318.6,491.7 309.6,491.7 309.6,492.6 315.1,492.6 315.1,493.5 315,494.3 314.8,495 314.4,495.7 313.8,496.3 313.2,496.8 312.6,497.4 312,497.9 311.2,498 310.4,498.3 309.6,498.3 309.6,504.7 329.6,504.7 329.6,497.4 333.4,497.4 333.4,496.3 333.4,491.7 323.6,491.7 321.4,491.7 320.8,491.7 "
         class="st3"
         style="fill:#cdcccc" /><polygon
         id="polygon8203"
         points="229.8,520.7 229.1,520.2 228.7,519.5 228.1,519 227.8,518.3 227.4,517.6 227.3,516.7 227.3,515.9 232.9,515.9 232.9,514.9 198.8,514.9 198.8,532.9 232.9,532.9 232.9,521.5 232.2,521.5 231.3,521.3 230.6,521.1 "
         class="st3"
         style="fill:#cdcccc" /><polygon
         id="polygon8205"
         points="197,462.5 191.4,462.5 191.4,462.7 178.8,462.7 178.8,466.6 184,466.6 184,467.4 183.8,468.3 183.5,469 183.1,469.7 182.4,470.4 182,470.8 181.3,471.5 180.4,471.7 179.7,471.8 178.8,471.8 178.8,510.1 197.2,510.1 197.2,475.7 198.1,475.7 198.1,462.7 197,462.7 "
         class="st3"
         style="fill:#cdcccc" /><polygon
         id="polygon8207"
         points="230.6,502.2 229.8,501.9 229.1,501.6 228.7,500.8 228.1,500.2 227.8,499.5 227.4,498.8 227.3,498 227.3,497.2 232.9,497.2 232.9,496.2 198.8,496.2 198.8,510.1 198.8,513.8 232.9,513.8 232.9,502.8 232.2,502.8 231.3,502.7 "
         class="st3"
         style="fill:#cdcccc" /><polygon
         id="polygon8209"
         points="256.6,514.9 242.3,514.9 242.3,515.9 247.9,515.9 247.8,516.7 247.5,517.6 247.3,518.3 247,519 246.4,519.5 245.9,520.2 245.3,520.7 244.5,521.1 243.8,521.3 243,521.5 242.3,521.5 242.3,532.9 275.8,532.9 275.8,514.9 261.6,514.9 259.4,514.9 258.8,514.9 "
         class="st3"
         style="fill:#cdcccc" /><polygon
         id="polygon8211"
         points="192.2,459 192.9,458.5 193.3,457.8 193.9,457.2 194.7,456.9 195.4,456.7 196.2,456.3 197,456.3 197,462.1 197.9,462.1 197.9,439.5 197.5,439.5 197.1,439.5 189.6,439.5 178.8,439.5 178.8,462.1 191.4,462.1 191.4,461.2 191.5,460.5 191.9,459.6 "
         class="st3"
         style="fill:#cdcccc" /><polygon
         id="polygon8213"
         points="313.2,485.4 313.8,485.8 314.4,486.6 314.8,487.2 315,488 315.1,488.8 315.1,489.7 309.6,489.7 309.6,490.7 318.6,490.7 320.8,490.7 321.4,490.7 323.6,490.7 333.4,490.7 333.4,477.2 309.6,477.2 309.6,484 310.4,484 311.2,484.2 312,484.6 312.6,484.9 "
         class="st3"
         style="fill:#cdcccc" /><rect
         id="rect8215"
         height="16.1"
         width="13"
         class="st3"
         y="476.89999"
         x="372.79999"
         style="fill:#cdcccc" /><rect
         id="rect8217"
         height="16.1"
         width="12.8"
         class="st3"
         y="476.89999"
         x="385.89999"
         style="fill:#cdcccc" /><rect
         id="rect8219"
         height="16.1"
         width="12.6"
         class="st3"
         y="476.89999"
         x="399.20001"
         style="fill:#cdcccc" /><polygon
         id="polygon8221"
         points="412.2,492.9 424.9,492.9 424.9,478.8 423.2,478.8 423.2,476.9 412.2,476.9 "
         class="st3"
         style="fill:#cdcccc" /><polygon
         id="polygon8223"
         points="466.8,527.6 459.5,527.6 459.5,527.8 459.5,528.3 466.8,528.3 466.8,538.3 450.8,538.3 450.8,528.3 454.5,528.3 454.5,527.8 454.5,527.6 443.2,527.6 443.2,526.5 443,526.5 442.5,526.5 442.5,532.5 443,532.5 443.2,532.5 443.2,528.3 449.1,528.3 449.1,538.3 443.2,538.3 443.2,537.6 443,537.6 442.5,537.6 442.5,539.9 443,539.9 443.2,539.9 443.2,539.2 449.9,539.2 449.9,546.7 450.8,546.7 450.8,539.2 488.8,539.2 488.8,534.7 467.8,534.7 467.8,526.5 467.3,526.5 466.8,526.5 "
         class="st3"
         style="fill:#cdcccc" /><rect
         id="rect8225"
         height="7.5999999"
         width="14.5"
         class="st3"
         y="476.89999"
         x="443.20001"
         style="fill:#cdcccc" /><rect
         id="rect8227"
         height="8.1000004"
         width="23.299999"
         class="st3"
         y="454.29999"
         x="466.60001"
         style="fill:#cdcccc" /><text
         id="text8229"
         class="st2 st5 st6"
         transform="translate(419.6826,347.9424)"
         style="font-size:9.81359959px;font-family:ArialMT;fill:#ffffff">2418</text>
<rect
         id="rect8231"
         height="7.3000002"
         width="1.2"
         class="st11"
         y="565.40002"
         x="395.79999"
         style="opacity:0.6;fill:#4b6db4;enable-background:new" /><rect
         id="rect8233"
         height="7.3000002"
         width="1.2"
         class="st11"
         y="565.40002"
         x="398.20001"
         style="opacity:0.6;fill:#4b6db4;enable-background:new" /><rect
         id="rect8235"
         height="7.3000002"
         width="1.2"
         class="st11"
         y="565.40002"
         x="400.29999"
         style="opacity:0.6;fill:#4b6db4;enable-background:new" /><rect
         id="rect8237"
         height="7.3000002"
         width="1.2"
         class="st11"
         y="565.40002"
         x="402.39999"
         style="opacity:0.6;fill:#4b6db4;enable-background:new" /><rect
         id="rect8239"
         height="7.3000002"
         width="1.2"
         class="st11"
         y="565.40002"
         x="404.70001"
         style="opacity:0.6;fill:#4b6db4;enable-background:new" /><rect
         id="rect8241"
         height="7.3000002"
         width="1.2"
         class="st11"
         y="565.40002"
         x="406.79999"
         style="opacity:0.6;fill:#4b6db4;enable-background:new" /><rect
         id="rect8243"
         height="7.3000002"
         width="1.2"
         class="st11"
         y="565.40002"
         x="408.89999"
         style="opacity:0.6;fill:#4b6db4;enable-background:new" /><rect
         id="rect8245"
         height="7.3000002"
         width="1.2"
         class="st11"
         y="565.40002"
         x="411.29999"
         style="opacity:0.6;fill:#4b6db4;enable-background:new" /><rect
         id="rect8247"
         height="7.3000002"
         width="1.2"
         class="st11"
         y="557.59998"
         x="395.79999"
         style="opacity:0.6;fill:#4b6db4;enable-background:new" /><rect
         id="rect8249"
         height="7.3000002"
         width="1.2"
         class="st11"
         y="557.59998"
         x="398.20001"
         style="opacity:0.6;fill:#4b6db4;enable-background:new" /><rect
         id="rect8251"
         height="7.3000002"
         width="1.2"
         class="st11"
         y="557.59998"
         x="400.29999"
         style="opacity:0.6;fill:#4b6db4;enable-background:new" /><rect
         id="rect8253"
         height="7.3000002"
         width="1.2"
         class="st11"
         y="557.59998"
         x="402.39999"
         style="opacity:0.6;fill:#4b6db4;enable-background:new" /><rect
         id="rect8255"
         height="7.3000002"
         width="1.2"
         class="st11"
         y="557.59998"
         x="404.70001"
         style="opacity:0.6;fill:#4b6db4;enable-background:new" /><rect
         id="rect8257"
         height="7.3000002"
         width="1.2"
         class="st11"
         y="557.59998"
         x="406.79999"
         style="opacity:0.6;fill:#4b6db4;enable-background:new" /><rect
         id="rect8259"
         height="7.3000002"
         width="1.2"
         class="st11"
         y="557.59998"
         x="408.89999"
         style="opacity:0.6;fill:#4b6db4;enable-background:new" /><rect
         id="rect8261"
         height="7.3000002"
         width="1.2"
         class="st11"
         y="557.59998"
         x="411.29999"
         style="opacity:0.6;fill:#4b6db4;enable-background:new" /><rect
         id="rect8263"
         height="7.3000002"
         width="1.2"
         class="st11"
         y="565.40002"
         x="413.70001"
         style="opacity:0.6;fill:#4b6db4;enable-background:new" /><rect
         id="rect8265"
         height="7.3000002"
         width="1.2"
         class="st11"
         y="565.40002"
         x="415.70001"
         style="opacity:0.6;fill:#4b6db4;enable-background:new" /><rect
         id="rect8267"
         height="7.3000002"
         width="1.2"
         class="st11"
         y="557.59998"
         x="413.70001"
         style="opacity:0.6;fill:#4b6db4;enable-background:new" /><rect
         id="rect8269"
         height="7.3000002"
         width="1.2"
         class="st11"
         y="557.59998"
         x="415.70001"
         style="opacity:0.6;fill:#4b6db4;enable-background:new" /><rect
         id="rect8271"
         height="7.3000002"
         width="1.2"
         class="st11"
         y="565.40002"
         x="418.79999"
         style="opacity:0.6;fill:#4b6db4;enable-background:new" /><rect
         id="rect8273"
         height="7.3000002"
         width="1.2"
         class="st11"
         y="565.40002"
         x="421.20001"
         style="opacity:0.6;fill:#4b6db4;enable-background:new" /><rect
         id="rect8275"
         height="7.3000002"
         width="1.2"
         class="st11"
         y="565.40002"
         x="423.20001"
         style="opacity:0.6;fill:#4b6db4;enable-background:new" /><rect
         id="rect8277"
         height="7.3000002"
         width="1.2"
         class="st11"
         y="565.40002"
         x="425.39999"
         style="opacity:0.6;fill:#4b6db4;enable-background:new" /><rect
         id="rect8279"
         height="7.3000002"
         width="1.2"
         class="st11"
         y="565.40002"
         x="427.60001"
         style="opacity:0.6;fill:#4b6db4;enable-background:new" /><rect
         id="rect8281"
         height="7.3000002"
         width="1.2"
         class="st11"
         y="565.40002"
         x="429.70001"
         style="opacity:0.6;fill:#4b6db4;enable-background:new" /><rect
         id="rect8283"
         height="7.3000002"
         width="1.2"
         class="st11"
         y="565.40002"
         x="432"
         style="opacity:0.6;fill:#4b6db4;enable-background:new" /><rect
         id="rect8285"
         height="7.3000002"
         width="1.2"
         class="st11"
         y="565.40002"
         x="434.10001"
         style="opacity:0.6;fill:#4b6db4;enable-background:new" /><rect
         id="rect8287"
         height="7.3000002"
         width="1.2"
         class="st11"
         y="557.59998"
         x="418.79999"
         style="opacity:0.6;fill:#4b6db4;enable-background:new" /><rect
         id="rect8289"
         height="7.3000002"
         width="1.2"
         class="st11"
         y="557.59998"
         x="421.20001"
         style="opacity:0.6;fill:#4b6db4;enable-background:new" /><rect
         id="rect8291"
         height="7.3000002"
         width="1.2"
         class="st11"
         y="557.59998"
         x="423.20001"
         style="opacity:0.6;fill:#4b6db4;enable-background:new" /><rect
         id="rect8293"
         height="7.3000002"
         width="1.2"
         class="st11"
         y="557.59998"
         x="425.39999"
         style="opacity:0.6;fill:#4b6db4;enable-background:new" /><rect
         id="rect8295"
         height="7.3000002"
         width="1.2"
         class="st11"
         y="557.59998"
         x="427.60001"
         style="opacity:0.6;fill:#4b6db4;enable-background:new" /><rect
         id="rect8297"
         height="7.3000002"
         width="1.2"
         class="st11"
         y="557.59998"
         x="429.70001"
         style="opacity:0.6;fill:#4b6db4;enable-background:new" /><rect
         id="rect8299"
         height="7.3000002"
         width="1.2"
         class="st11"
         y="557.59998"
         x="432"
         style="opacity:0.6;fill:#4b6db4;enable-background:new" /><rect
         id="rect8301"
         height="7.3000002"
         width="1.2"
         class="st11"
         y="557.59998"
         x="434.10001"
         style="opacity:0.6;fill:#4b6db4;enable-background:new" /><rect
         id="rect8303"
         height="7.3000002"
         width="1.2"
         class="st11"
         y="565.40002"
         x="436.39999"
         style="opacity:0.6;fill:#4b6db4;enable-background:new" /><rect
         id="rect8305"
         height="7.3000002"
         width="1.2"
         class="st11"
         y="565.40002"
         x="438.70001"
         style="opacity:0.6;fill:#4b6db4;enable-background:new" /><rect
         id="rect8307"
         height="7.3000002"
         width="1.2"
         class="st11"
         y="557.59998"
         x="436.39999"
         style="opacity:0.6;fill:#4b6db4;enable-background:new" /><rect
         id="rect8309"
         height="7.3000002"
         width="1.2"
         class="st11"
         y="557.59998"
         x="438.70001"
         style="opacity:0.6;fill:#4b6db4;enable-background:new" /><polygon
         id="polygon8311"
         points="422.3,462.7 422.3,461.6 422.3,456 422.3,451.5 411.2,451.7 411.2,465.4 422.3,465.4 "
         class="st0"
         style="fill:#4c6eb5" /><text
         id="text8313"
         class="st2 st7 st12"
         transform="translate(413.7949,460.8223)"
         style="font-size:9.62759972px;font-family:MyriadPro-Regular;fill:#ffffff">E</text>
<g
         id="g8315"><path
           id="path8317"
           d="m 453.6,525.1 c -0.7,0 -1.2,-0.6 -1.2,-1.2 0,-0.6 0.6,-1.2 1.2,-1.2 0.8,0 1.2,0.6 1.2,1.2 0.1,0.8 -0.5,1.2 -1.2,1.2 z"
           class="st0"
           inkscape:connector-curvature="0"
           style="fill:#4c6eb5" /></g><path
         id="path8319"
         d="m 451.6,528.2 0,2.6 c 0,0.3 -0.2,0.6 -0.3,0.6 -0.2,0 -0.3,-0.1 -0.3,-0.6 l 0,-3.3 c 0,-1.5 0.7,-1.8 1.9,-1.8 l 1.9,0 c 1.2,0 1.9,0.3 1.9,1.8 l 0,3.3 c 0,0.3 -0.1,0.6 -0.3,0.6 -0.2,0 -0.3,-0.1 -0.3,-0.6 l 0,-2.6 c 0,-0.2 -0.1,-0.2 -0.2,-0.2 0,0 -0.2,0 -0.2,0.2 0,0.3 0,8.5 0,8.5 0,0.6 -0.3,0.7 -0.7,0.7 -0.1,0 -0.7,0 -0.7,-0.7 0,-0.6 0,-5.1 0,-5.1 0,-0.1 0,-0.2 -0.1,-0.2 -0.1,0 -0.1,0 -0.1,0.2 0,0 0,4.5 0,5.1 0,0.6 -0.3,0.7 -0.7,0.7 -0.1,0 -0.7,0 -0.7,-0.7 0,0 0,-8.2 0,-8.5 0,-0.2 -0.1,-0.2 -0.2,-0.2 -0.8,-0.2 -0.9,-0.2 -0.9,0.2 z"
         class="st0"
         inkscape:connector-curvature="0"
         style="fill:#4c6eb5" /><path
         id="path8321"
         d="m 451.5,493.5 c -0.7,0 -1.1,-0.6 -1.1,-1.1 0,-0.7 0.3,-1.1 1.1,-1.1 0.6,0 1.1,0.6 1.1,1.1 0,0.5 -0.6,1.1 -1.1,1.1 z"
         class="st0"
         inkscape:connector-curvature="0"
         style="fill:#4c6eb5" /><path
         id="path8323"
         d="m 452,493.8 c 1.1,0 1.6,0.7 1.7,1.2 l 1,3.1 c 0.1,0.2 0,0.6 -0.2,0.6 -0.2,0 -0.3,0 -0.6,-0.2 l -0.9,-2.8 c 0,-0.1 -0.1,-0.2 -0.2,-0.2 -0.1,0 -0.1,0.2 -0.1,0.3 l 1.6,5.1 -1.7,0 c 0,2 0,3.7 0,3.7 0,0.6 -0.2,0.7 -0.3,0.7 -0.1,0 -0.3,0 -0.3,-0.7 0,-0.6 0,-3.6 0,-3.6 0,-0.1 0,-0.2 -0.2,-0.2 -0.2,0 -0.2,0 -0.2,0.2 0,0 0,3.1 0,3.6 0,0.6 -0.2,0.7 -0.3,0.7 -0.1,0 -0.3,0 -0.3,-0.7 0,0 0,-1.8 0,-3.7 l -1.7,0 1.6,-5.1 c 0,-0.1 0,-0.2 -0.1,-0.3 -0.1,-0.1 -0.2,0 -0.2,0.2 l -0.9,2.8 c -0.1,0.2 -0.2,0.3 -0.6,0.2 -0.2,0 -0.2,-0.2 -0.2,-0.6 l 1,-3.1 c 0.1,-0.3 0.3,-1.2 1.7,-1.2 l 0.4,0 z"
         class="st0"
         inkscape:connector-curvature="0"
         style="fill:#4c6eb5" /><rect
         id="rect8325"
         height="7.3000002"
         width="1.2"
         class="st11"
         y="299.20001"
         x="442.5"
         style="opacity:0.6;fill:#4b6db4;enable-background:new" /><rect
         id="rect8327"
         height="7.3000002"
         width="1.2"
         class="st11"
         y="299.20001"
         x="444.79999"
         style="opacity:0.6;fill:#4b6db4;enable-background:new" /><rect
         id="rect8329"
         height="7.3000002"
         width="1.2"
         class="st11"
         y="291.39999"
         x="442.5"
         style="opacity:0.6;fill:#4b6db4;enable-background:new" /><rect
         id="rect8331"
         height="7.3000002"
         width="1.2"
         class="st11"
         y="291.39999"
         x="444.79999"
         style="opacity:0.6;fill:#4b6db4;enable-background:new" /><rect
         id="rect8333"
         height="7.3000002"
         width="1.2"
         class="st11"
         y="299.20001"
         x="447.10001"
         style="opacity:0.6;fill:#4b6db4;enable-background:new" /><rect
         id="rect8335"
         height="7.3000002"
         width="1.2"
         class="st11"
         y="299.20001"
         x="449.20001"
         style="opacity:0.6;fill:#4b6db4;enable-background:new" /><rect
         id="rect8337"
         height="7.3000002"
         width="1.2"
         class="st11"
         y="291.39999"
         x="447.10001"
         style="opacity:0.6;fill:#4b6db4;enable-background:new" /><rect
         id="rect8339"
         height="7.3000002"
         width="1.2"
         class="st11"
         y="291.39999"
         x="449.20001"
         style="opacity:0.6;fill:#4b6db4;enable-background:new" /><rect
         id="rect8341"
         height="7.3000002"
         width="1.2"
         class="st11"
         y="299.20001"
         x="451.39999"
         style="opacity:0.6;fill:#4b6db4;enable-background:new" /><rect
         id="rect8343"
         height="7.3000002"
         width="1.2"
         class="st11"
         y="291.39999"
         x="451.39999"
         style="opacity:0.6;fill:#4b6db4;enable-background:new" /><rect
         id="rect8345"
         height="7.3000002"
         width="1.2"
         class="st11"
         y="299.20001"
         x="453.39999"
         style="opacity:0.6;fill:#4b6db4;enable-background:new" /><rect
         id="rect8347"
         height="7.3000002"
         width="1.2"
         class="st11"
         y="299.20001"
         x="455.60001"
         style="opacity:0.6;fill:#4b6db4;enable-background:new" /><rect
         id="rect8349"
         height="7.3000002"
         width="1.2"
         class="st11"
         y="299.20001"
         x="457.89999"
         style="opacity:0.6;fill:#4b6db4;enable-background:new" /><rect
         id="rect8351"
         height="7.3000002"
         width="1.2"
         class="st11"
         y="299.20001"
         x="459.89999"
         style="opacity:0.6;fill:#4b6db4;enable-background:new" /><rect
         id="rect8353"
         height="7.3000002"
         width="1.2"
         class="st11"
         y="299.20001"
         x="462.29999"
         style="opacity:0.6;fill:#4b6db4;enable-background:new" /><rect
         id="rect8355"
         height="7.3000002"
         width="1.2"
         class="st11"
         y="299.20001"
         x="464.29999"
         style="opacity:0.6;fill:#4b6db4;enable-background:new" /><rect
         id="rect8357"
         height="7.3000002"
         width="1.2"
         class="st11"
         y="299.20001"
         x="466.5"
         style="opacity:0.6;fill:#4b6db4;enable-background:new" /><rect
         id="rect8359"
         height="7.3000002"
         width="1.2"
         class="st11"
         y="299.20001"
         x="468.79999"
         style="opacity:0.6;fill:#4b6db4;enable-background:new" /><rect
         id="rect8361"
         height="7.3000002"
         width="1.2"
         class="st11"
         y="291.39999"
         x="453.39999"
         style="opacity:0.6;fill:#4b6db4;enable-background:new" /><rect
         id="rect8363"
         height="7.3000002"
         width="1.2"
         class="st11"
         y="291.39999"
         x="455.60001"
         style="opacity:0.6;fill:#4b6db4;enable-background:new" /><rect
         id="rect8365"
         height="7.3000002"
         width="1.2"
         class="st11"
         y="291.39999"
         x="457.89999"
         style="opacity:0.6;fill:#4b6db4;enable-background:new" /><rect
         id="rect8367"
         height="7.3000002"
         width="1.2"
         class="st11"
         y="291.39999"
         x="459.89999"
         style="opacity:0.6;fill:#4b6db4;enable-background:new" /><rect
         id="rect8369"
         height="7.3000002"
         width="1.2"
         class="st11"
         y="291.39999"
         x="462.29999"
         style="opacity:0.6;fill:#4b6db4;enable-background:new" /><rect
         id="rect8371"
         height="7.3000002"
         width="1.2"
         class="st11"
         y="291.39999"
         x="464.29999"
         style="opacity:0.6;fill:#4b6db4;enable-background:new" /><rect
         id="rect8373"
         height="7.3000002"
         width="1.2"
         class="st11"
         y="291.39999"
         x="466.5"
         style="opacity:0.6;fill:#4b6db4;enable-background:new" /><rect
         id="rect8375"
         height="7.3000002"
         width="1.2"
         class="st11"
         y="291.39999"
         x="468.79999"
         style="opacity:0.6;fill:#4b6db4;enable-background:new" /><rect
         id="rect8377"
         height="7.3000002"
         width="1.2"
         class="st11"
         y="299.20001"
         x="471"
         style="opacity:0.6;fill:#4b6db4;enable-background:new" /><rect
         id="rect8379"
         height="7.3000002"
         width="1.2"
         class="st11"
         y="299.20001"
         x="473.29999"
         style="opacity:0.6;fill:#4b6db4;enable-background:new" /><rect
         id="rect8381"
         height="7.3000002"
         width="1.2"
         class="st11"
         y="291.39999"
         x="471"
         style="opacity:0.6;fill:#4b6db4;enable-background:new" /><rect
         id="rect8383"
         height="7.3000002"
         width="1.2"
         class="st11"
         y="291.39999"
         x="473.29999"
         style="opacity:0.6;fill:#4b6db4;enable-background:new" /><rect
         id="rect8385"
         height="8"
         width="1.9"
         class="st2"
         y="497.10001"
         x="342.20001"
         style="fill:#ffffff" /><rect
         id="rect8387"
         height="8"
         width="1.9"
         class="st2"
         y="497.10001"
         x="346.29999"
         style="fill:#ffffff" /><rect
         id="rect8389"
         height="8"
         width="1.9"
         class="st2"
         y="497.10001"
         x="350.60001"
         style="fill:#ffffff" /><rect
         id="rect8391"
         height="8"
         width="1.9"
         class="st2"
         y="497.10001"
         x="354.70001"
         style="fill:#ffffff" /><rect
         id="rect8393"
         height="8"
         width="1.9"
         class="st2"
         y="497.10001"
         x="359"
         style="fill:#ffffff" /><rect
         id="rect8395"
         height="8"
         width="1.9"
         class="st2"
         y="497.10001"
         x="363.10001"
         style="fill:#ffffff" /><rect
         id="rect8397"
         height="11.8"
         width="1.9"
         class="st2"
         y="446.10001"
         x="341.70001"
         style="fill:#ffffff" /><rect
         id="rect8399"
         height="11.8"
         width="1.9"
         class="st2"
         y="446.10001"
         x="346.10001"
         style="fill:#ffffff" /><rect
         id="rect8401"
         height="11.8"
         width="1.9"
         class="st2"
         y="446.10001"
         x="350.29999"
         style="fill:#ffffff" /><rect
         id="rect8403"
         height="11.8"
         width="1.9"
         class="st2"
         y="446.10001"
         x="354.5"
         style="fill:#ffffff" /><rect
         id="rect8405"
         height="11.8"
         width="1.9"
         class="st2"
         y="446.10001"
         x="358.79999"
         style="fill:#ffffff" /><rect
         id="rect8407"
         height="11.8"
         width="1.9"
         class="st2"
         y="446.10001"
         x="362.89999"
         style="fill:#ffffff" /><g
         id="g8409"><polygon
           id="polygon8411"
           points="485.3,223.3 485.3,221.6 485.3,183.6 485.3,181.5 485.3,144 485.3,142.3 485.3,130.1 498.8,130.1 555.7,130.1 557.3,130.1 755.1,130.1 760.6,130.1 760.6,124.4 760.6,121.7 760.6,82.6 760.6,77.2 757.2,77.2 757.2,73.2 760.6,73.2 760.6,67.8 760.6,25.7 760.6,20.3 755.1,20.3 714.9,20.3 713.3,20.3 675.7,20.3 674,20.3 636.9,20.3 634.5,20.3 597.1,20.3 595.5,20.3 557.9,20.3 556.2,20.3 518.4,20.3 516.7,20.3 439.8,20.3 438.1,20.3 400.9,20.3 398.5,20.3 393.3,20.5 393.3,25.9 393.3,96.4 381.7,96.4 376.2,96.4 376.2,101.8 376.2,262.1 376.2,267 485.3,267 485.3,263.2 485.3,260.7 "
           class="st3"
           style="fill:#cdcccc" /></g><polygon
         id="polygon8413"
         points="412.3,67.5 412.3,67.5 412.3,66.9 437.7,66.9 437.7,66.9 412.3,66.9 437.7,66.9 437.7,65.7 439.5,65.7 439.5,65.7 439.5,65.7 439.5,66.9 439.5,66.9 445.8,66.9 439.5,66.9 439.5,66.9 445.8,66.9 445.8,66.9 445.8,66.9 445.8,66.9 445.8,67.5 450.5,67.5 450.5,66.9 457.9,66.9 457.9,26.7 439.5,26.7 439.5,28.3 439.5,28.3 439.5,28.3 439.5,28.3 437.7,28.3 437.7,26.7 400.2,26.7 400.2,28.3 400.2,28.3 400.2,28.3 399.6,28.3 399.6,65.7 399.6,65.7 399.6,65.7 399.6,65.7 400.6,65.7 400.6,65.7 400.6,65.7 400.6,65.7 400.6,66.9 400.6,66.9 400.6,66.9 400.6,66.9 407.5,66.9 400.6,66.9 400.6,66.9 407.5,66.9 407.5,66.9 407.5,66.9 407.5,66.9 407.5,67.5 412.3,67.5 412.3,66.9 "
         class="st4"
         style="fill:#4b6db4" /><text
         id="text8415"
         class="st2 st5 st13"
         transform="translate(405.4017,50.0145)"
         style="font-size:9.43290043px;font-family:ArialMT;fill:#ffffff">SPIETH 2200</text>
</g></g></svg>