<?xml version="1.0" encoding="utf-8"?>
<!-- Generator: Adobe Illustrator 19.1.0, SVG Export Plug-In . SVG Version: 6.00 Build 0)  -->
<svg version="1.1" id="Layer_1" xmlns="http://www.w3.org/2000/svg" xmlns:xlink="http://www.w3.org/1999/xlink" x="0px" y="0px"
	 viewBox="0 0 600 600" style="enable-background:new 0 0 600 600;" xml:space="preserve">
<style type="text/css">
	.st0{opacity:0.5;}
	.st1{fill:#989798;}
	.st2{font-family:'ArialMT';}
	.st3{font-size:13.6301px;}
	.st4{fill:#FFFFFF;}
	.st5{font-size:43.6166px;}
	.st6{fill:#4C6EB5;}
	.st7{fill:#CDCCCC;}
	.st8{fill:#4B6DB4;}
	.st9{font-size:9.8136px;}
	.st10{opacity:0.6;fill:#4B6DB4;enable-background:new    ;}
	.st11{font-family:'MyriadPro-Regular';}
	.st12{font-size:9.6276px;}
	.st13{font-size:9.2642px;}
	.st14{font-size:7.9127px;}
</style>
<g class="st0">
	<g>
		<text transform="matrix(1 0 0 1 257.1299 50.6882)" class="st1 st2 st3">Level </text>
	</g>
	<circle class="st1" cx="311.6" cy="48.4" r="23.1"/>
	<text transform="matrix(1 0 0 1 300.2544 64.6032)" class="st4 st2 st5">1</text>
</g>
<polygon class="st6" points="235.6,476.5 235.6,483.1 229.9,479.8 "/>
<polygon class="st6" points="239.3,482.9 239.3,476.3 244.8,479.6 "/>
<polygon class="st6" points="259.4,565.4 259.4,558.9 265,562.2 "/>
<polygon class="st6" points="316.7,248.2 323.2,248.2 320,253.8 "/>
<polygon class="st6" points="155.8,201.1 155.8,207.5 150.3,204.2 "/>
<g>
	<g>
		<path class="st1" d="M49.7,167.1v1.9h0.1h10.3h0.2h10.2h0.2h10.8h0.2h10.9h0.2v-1.5H95v1.5h0.5h10.8h0.2h10.8h0.2h10.8h0.2h10.9
			h0.2v-1.5h2.2v2.2h-1.5v0.1v12v0.2v11.8v0.2v14.4v4.7v0.2h1.9v142.3h-36h-8.5H66.2h-8.6H45.9v-26.2v-5.6v-154v-2.7H49.7
			 M55.1,161.6h-5.3h-3.9h-5.5v5.5v2.7V324v5.6V356v5.5h5.5h11.7h8.6h31.7h8.6h36.1h5.5V356V213.7v-5.3h-1.9v-13.7v-0.2v-11.8v-0.2
			v-6.9h1.5v-5.5v-2v-5.5h-5.5H140h-5.5v1.5H129h-0.2H118h-0.2H107h-0.2h-5.6v-1.5h-5.6h-2.2H88v1.5h-5.6h-0.2H71.1h-0.2H60.6h-0.2
			h-5.1L55.1,161.6L55.1,161.6z"/>
	</g>
</g>
<polygon class="st4" points="139.9,204.5 140.3,204.5 144.9,204.5 144.9,203.6 144.6,202.8 144.1,202 143.8,201.4 143.2,200.8 
	142.7,200.3 141.9,200 141.1,199.9 140.3,199.7 141.1,199.6 141.9,199.5 142.7,199 143.2,198.6 143.8,198.1 144.1,197.3 
	144.6,196.6 144.9,195.7 144.9,194.9 140.3,194.9 139.9,194.9 "/>
<polygon class="st4" points="139.9,214.1 140.3,214.1 144.9,214.1 144.9,213.2 144.6,212.4 144.1,211.6 143.8,211.2 143.2,210.4 
	142.7,210 141.9,209.7 141.1,209.5 140.3,209.5 141.1,209.4 141.9,209.2 142.7,208.7 143.2,208.3 143.8,207.8 144.1,207 
	144.6,206.4 144.9,205.5 144.9,204.7 140.3,204.7 139.9,204.7 "/>
<polygon class="st7" points="375.9,296.3 375.9,286.1 363,286.1 363,304.8 329.2,304.8 329.2,322.5 331.2,322.5 331.2,325 
	329.2,325 329.2,325.8 328.9,325.8 328.9,331.5 329.2,331.5 329.2,332.5 346.1,332.5 346.1,333.1 351.6,333.1 351.6,332.5 
	354.4,332.5 354.4,333.1 360,333.1 360,332.5 375.9,332.5 375.9,313.8 375.9,306.2 375.9,305.8 375.9,304.3 375.9,304 "/>
<polygon class="st7" points="329.2,362.3 329.2,363.3 328.9,363.3 328.9,368.9 329.2,368.9 329.2,397.4 331.2,397.4 331.2,399.8 
	329.2,399.8 329.2,419.9 328.9,419.9 328.9,425.5 329.2,425.5 329.2,426.5 332.1,426.5 332.1,426.8 337.8,426.8 337.8,426.5 
	369.1,426.5 369.1,426.8 374.7,426.8 374.7,426.5 375.9,426.5 375.9,426.3 375.9,418.7 375.9,418.2 375.9,416.6 375.9,416.4 
	375.9,408.9 375.9,388.9 375.9,381 375.9,380.8 375.9,379.2 375.9,379 375.9,371.4 375.9,361.6 331.2,361.6 331.2,362.3 "/>
<polygon class="st7" points="82.8,506.5 82.8,472.1 84.5,472.1 84.5,472.2 85.7,472.2 85.7,472.7 91.3,472.7 91.3,472.2 96,472.2 
	96,471.3 91.1,471.3 91.3,470.4 91.5,469.7 91.8,468.9 92.3,468.2 92.8,467.5 93.5,467.1 94.3,466.8 95.1,466.6 96,466.6 
	94.9,466.4 93.8,466.3 92.9,465.7 92.2,465.2 91.3,464.6 90.6,463.9 89.9,463 89.7,462.1 89.5,460.8 89.5,459.9 96,459.9 96,458.9 
	64.4,458.9 64.4,482.2 73.2,487.2 73.2,477.6 73.9,477.6 73.9,495 71.3,495 71.3,496 71.1,496.8 70.5,497.9 69.9,498.4 69.4,499.2 
	68.5,499.8 67.7,500.1 66.6,500.5 65.6,500.5 65.6,495 64.4,495 64.4,506.5 68,506.5 68,508.2 73.6,508.2 79.4,508.2 79.4,506.5 "/>
<polygon class="st7" points="352.7,348.9 352.7,333.4 351.6,333.4 351.6,339 350.7,338.9 349.8,338.7 348.9,338.3 348,337.6 
	347.4,337 347,336.3 346.4,335.3 346.2,334.2 346.1,333.4 329.2,333.4 329.2,348.6 334.8,348.6 334.7,349.6 334.6,350.5 
	334.1,351.4 333.6,352.2 332.9,353 332.1,353.4 331.2,353.9 330.2,354.1 329.2,354.1 329.2,360 331.2,360 331.2,360.7 352.7,360.7 
	352.7,353.6 352.9,353.6 352.9,348.9 "/>
<polygon class="st7" points="359.6,335.3 359.2,336.3 358.7,337 358,337.6 357.2,338.3 356.3,338.7 355.4,338.9 354.4,339 
	354.4,333.4 353.6,333.4 353.6,348.9 354.2,349 355.2,349.1 355.7,349.6 356.3,350 357.1,350.6 357.4,351.4 357.8,352.1 358,352.8 
	358,353.6 353.6,353.6 353.6,360.7 375.9,360.7 375.9,351.4 375.9,343.6 375.9,343.3 375.9,341.7 375.9,341.5 375.9,333.9 
	375.9,333.4 360,333.4 359.8,334.2 "/>
<polygon class="st7" points="125.6,522.1 125.6,506.6 105.3,506.6 105.3,508.9 105.1,508.9 105.1,514.3 105.3,514.3 105.3,529.3 
	125.6,529.3 125.6,527.6 125.7,527.6 125.7,522.1 "/>
<polygon class="st7" points="128.6,506.6 125.8,506.6 125.8,522.1 127,522.2 127.9,522.5 128.8,522.7 129.5,523.4 130.3,524 
	130.8,524.8 131.2,525.7 131.6,526.6 131.8,527.6 125.8,527.6 125.8,529.3 150.1,529.3 150.1,506.6 134.1,506.6 134.1,506.5 
	128.6,506.5 "/>
<polygon class="st7" points="302.3,284.2 311.9,284.2 314.1,284.2 314.4,284.2 314.4,278.4 315.3,278.8 316.3,279 317.1,279.2 
	318,279.9 318.7,280.7 319.2,281.5 319.7,282.2 319.8,283.1 319.9,284.2 320,283.1 320.4,282.2 320.7,281.5 321.4,280.7 322,279.9 
	322.8,279.2 323.6,279 324.6,278.8 325.6,278.4 325.6,284.2 326,284.2 328,284.2 337.4,284.2 337.4,283 339.6,283 339.6,266.3 
	299.8,266.3 299.8,283 302.3,283 "/>
<polygon class="st7" points="125.4,478 124.6,477.7 123.9,477.3 123.1,476.8 122.7,476.3 122.1,475.7 121.9,474.9 121.5,474.1 
	121.5,473.3 121.5,474.1 121.2,474.9 120.8,475.7 120.4,476.3 119.8,476.8 119.1,477.3 118.5,477.7 117.7,478 117,478 117,473.3 
	104.3,473.3 104.3,474.9 101.8,474.9 101.8,473.3 91.3,473.3 91.1,474.3 91,475.2 90.6,476.2 89.9,476.8 89.4,477.6 88.5,478.2 
	87.7,478.5 86.6,478.8 85.7,478.9 85.7,473.3 84.4,473.3 84.4,506.3 86.4,506.3 86.4,506.5 92.2,506.5 92.2,506.3 128.6,506.3 
	128.6,506.5 134.1,506.5 134.1,506.3 150.1,506.3 150.1,474.9 140.4,474.9 140.4,473.3 126.2,473.3 126.2,478 "/>
<polygon class="st7" points="102.9,514 102.2,513.5 101.3,513 100.6,512.4 99.9,511.6 99.6,510.7 99.3,509.8 99.3,508.9 
	104.8,508.9 104.8,506.6 92.2,506.6 92.2,507.6 91.8,508.5 91.4,509.5 90.9,510.2 90.1,511 89.5,511.6 88.5,512 87.6,512.4 
	86.4,512.4 86.4,506.6 84.4,506.6 84.4,529.3 104.8,529.3 104.8,514.3 103.9,514.3 "/>
<polygon class="st7" points="188.1,475.2 187.8,476.2 187.2,476.8 186.5,477.6 185.8,478.2 184.8,478.5 183.9,478.8 183,478.9 
	183,473.3 181.6,473.3 181.6,474.9 179.5,474.9 179.5,473.3 173.8,473.3 173.8,504.8 198.7,504.8 198.7,473.3 188.6,473.3 
	188.5,474.3 "/>
<polygon class="st7" points="271.9,408 288.8,408 288.8,401.3 289.2,401.3 289.2,395.7 288.8,395.7 288.8,376.5 258.8,376.5 
	258.8,379.2 258.8,380.8 258.8,408 266.1,408 266.1,408.5 271.9,408.5 "/>
<polygon class="st7" points="268.1,442.4 268.3,441.6 268.6,440.9 269.1,440.4 269.5,439.6 270.3,439.2 271.1,438.9 271.9,438.7 
	272.5,438.7 272.5,430.4 272.5,423.5 272.5,415.6 273.1,415.6 273.1,409.9 272.5,409.9 272.5,409 271.9,409 271.9,408.5 
	266.1,408.5 266.1,409 258.8,409 258.8,416.6 258.8,418.2 258.8,444.3 272.5,444.3 272.5,443.3 268.1,443.3 "/>
<polygon class="st7" points="279.1,410.9 278.8,411.7 278.5,412.8 277.9,413.5 277.1,414.1 276.4,414.7 275.5,415.3 274.4,415.5 
	273.5,415.6 273.5,423.5 273.5,430.4 273.5,436.6 274.4,436.6 274.4,430.9 275.5,431 276.5,431.3 277.3,431.7 278.2,432.3 
	278.8,433 279.4,433.8 279.8,434.6 280.2,435.6 280.2,436.6 291.5,436.6 291.5,409 273.5,409 273.5,409.9 279.2,409.9 "/>
<polygon class="st7" points="303,434.6 303.3,433.8 303.9,433 304.6,432.3 305.3,431.7 306.3,431.3 307.1,431 308.1,430.9 
	308.1,436.6 308.9,436.6 308.9,435 310.7,435 310.7,417.6 309.7,417.5 308.7,417.3 307.9,416.8 307,416.3 306.3,415.6 306,414.7 
	305.3,413.9 305.2,413 305,412.1 310.7,412.1 310.7,411.2 306.1,411.2 306.1,409 292.4,409 292.4,436.6 302.5,436.6 302.7,435.6 "/>
<polygon class="st7" points="291.6,396.2 292.4,396.5 293.3,397.2 294,397.9 294.5,398.4 295,399.5 295.2,400.4 295.3,401.3 
	289.7,401.3 289.7,408 310.7,408 310.7,406.6 311.2,406.6 311.2,401 310.7,401 310.7,399.8 309.1,399.8 309.1,397.4 310.7,397.4 
	310.7,376.5 289.7,376.5 289.7,395.7 290.6,395.8 "/>
<polygon class="st7" points="337.4,429.2 337.1,430.1 336.4,430.9 335.7,431.7 334.8,432.2 333.9,432.6 333,432.9 332.1,432.9 
	332.1,427.3 331.2,427.3 331.2,437.3 329.2,437.3 329.2,442.4 328.9,442.4 328.9,448.1 329.2,448.1 329.2,449.3 349.1,449.3 
	349.1,427.3 337.8,427.3 337.5,428.3 "/>
<polygon class="st7" points="304,306.5 304.4,305.7 305,305 305.5,304.3 306.4,303.7 307.2,303.4 308.2,303 309.4,302.9 
	309.4,308.6 310.3,308.6 310.3,286.1 302.3,286.1 299.8,286.1 296.7,286.1 296.7,308.6 303.6,308.6 303.6,307.5 "/>
<rect x="329.2" y="472.7" class="st7" width="12" height="7.5"/>
<polygon class="st7" points="213.1,474.8 212.9,475.7 212.5,476.4 212.2,477.1 211.4,477.9 210.7,478.2 209.9,478.7 209,478.8 
	208.2,478.9 208.2,479.5 213.8,479.5 213.8,480.1 208.2,480.1 208.2,486.4 210.2,486.4 210.2,493 219,493 219,473.4 208.2,473.4 
	208.2,474 213.2,474 "/>
<polygon class="st7" points="264.3,500.5 265.4,500.8 266.1,501.2 267,501.7 267.7,502.5 268.3,503.3 268.7,504.2 269,505.1 
	269,506.2 270.5,506.2 285.5,506.2 289,506.2 289,495.4 288.1,495.2 287.1,495 286.4,494.7 285.5,494.1 284.9,493.4 284.1,492.6 
	283.9,491.7 283.7,490.8 283.5,489.8 289,489.8 289,488.7 259,488.7 259,491.2 259,491.4 259.9,491.4 259.9,493.4 259,493.4 
	259,493.7 259,506.2 263.3,506.2 263.3,500.5 "/>
<polygon class="st7" points="269,518.1 269.4,518.1 269.4,516.3 269.4,508.9 269.4,506.7 269,506.7 269,506.5 263.3,506.5 
	263.3,506.7 259,506.7 259,518.1 263.3,518.1 263.3,518.4 269,518.4 "/>
<polygon class="st7" points="199.9,505.6 173.8,505.6 173.8,529.2 219.1,529.2 219.1,505.6 206.5,505.6 206.5,505.2 199.9,505.2 "/>
<polygon class="st7" points="208,500.5 208,504.8 219,504.8 219,498 216.3,498 216.3,494.2 208,494.2 208,495 207.8,495 
	207.8,500.5 "/>
<polygon class="st7" points="283.7,533.1 283.9,532.2 284.1,531.2 284.9,530.5 285.5,529.8 286.4,529.2 287.1,528.9 288.1,528.5 
	289,528.5 289,518.9 285.5,518.9 270.5,518.9 269,518.9 269,519.8 268.7,520.8 268.3,521.6 267.7,522.5 267,523.1 266.1,523.8 
	265.4,524.1 264.3,524.5 263.3,524.5 263.3,518.9 259,518.9 259,529.1 259,530.7 259,535.1 289,535.1 289,534.1 283.5,534.1 "/>
<polygon class="st7" points="171.3,478.8 170.4,478.5 169.5,478.2 168.6,477.6 167.9,476.8 167.4,476.2 166.9,475.2 166.8,474.3 
	166.6,473.3 151,473.3 151,529.3 173.1,529.3 173.1,473.3 172.2,473.3 172.2,478.9 "/>
<polygon class="st7" points="311,488.2 311,474.8 309.1,474.8 309.1,472.7 292.3,472.7 292.3,478.5 291.4,478.3 290.4,478.1 
	289.6,477.7 288.7,477.1 288.1,476.4 287.4,475.7 287.1,474.8 286.9,473.7 286.7,472.7 270.4,472.7 270.4,474.1 276,474.1 
	275.8,475.1 275.6,476 275.2,476.8 274.7,477.7 273.9,478.3 273.2,478.9 272.2,479.5 271.4,479.7 270.4,479.7 270.4,488.2 
	299.7,488.2 299.7,488.5 305.3,488.5 305.3,488.2 "/>
<polygon class="st7" points="269.4,474.1 269.4,473.1 259,473.1 259,487.9 269.4,487.9 269.4,479.7 269.9,479.7 269.9,474.1 "/>
<polygon class="st7" points="277,306.5 277.3,305.7 278,305 278.6,304.3 279.4,303.7 280.3,303.4 281.3,303 282.2,302.9 
	282.2,308.6 283.2,308.6 283.2,286.1 271.5,286.1 271.5,308.6 276.6,308.6 276.8,307.5 "/>
<polygon class="st7" points="329.2,486.7 329.2,509.7 331.2,509.7 331.2,512 329.2,512 329.2,536.5 328.9,536.5 328.9,542.1 
	329.2,542.1 329.2,548.5 374.6,548.5 374.6,490.9 375.6,490.9 375.6,472.7 342.1,472.7 342.1,481 329.2,481 329.2,482 328.9,482 
	328.9,486.7 "/>
<polygon class="st7" points="264.3,306.5 264.8,305.7 265.4,305 266,304.3 266.8,303.7 267.7,303.4 268.7,303 269.5,302.9 
	269.5,308.6 270.3,308.6 270.3,301.8 270.5,301.8 270.5,286.1 258.6,286.1 258.6,304.3 258.6,305.8 258.6,308.6 263.9,308.6 
	264,307.5 "/>
<polygon class="st7" points="311,536.3 311,535.6 298.8,535.6 298.8,535.4 293.2,535.4 293.2,535.6 292.7,535.6 292.7,536 
	292.3,536 292.3,541.8 292.7,541.8 292.7,548.5 311,548.5 311,541.9 311.3,541.9 311.3,536.3 "/>
<polygon class="st7" points="289.7,306.5 290.2,305.7 290.6,305 291.4,304.3 292.1,303.7 293.1,303.4 293.9,303 294.9,302.9 
	294.9,308.6 295.7,308.6 295.7,286.1 284,286.1 284,308.6 289.2,308.6 289.5,307.5 "/>
<polygon class="st7" points="298.8,535.1 299.4,535.1 299.4,530.8 299.6,530.8 299.6,525 299.4,525 299.4,519.2 299.6,519.2 
	299.6,513.5 299.4,513.5 299.4,505.6 299.6,505.6 299.6,500 299.4,500 299.4,495.9 311,495.9 311,495.1 311.3,495.1 311.3,489.6 
	311,489.6 311,488.7 305.3,488.7 305.3,488.5 299.7,488.5 299.7,488.7 289.9,488.7 289.9,489.8 289.6,489.8 289.6,495.4 
	289.9,495.4 289.9,511.6 289.6,511.6 289.6,517.3 289.9,517.3 289.9,528.5 289.6,528.5 289.6,534.1 289.9,534.1 289.9,535.1 
	293.2,535.1 293.2,535.4 298.8,535.4 "/>
<polygon class="st7" points="268.2,536 262.4,536 262.7,537.2 262.8,537.9 263.2,539 263.8,539.7 264.5,540.4 265.4,540.9 
	266.1,541.3 267.2,541.5 268.2,541.8 268.3,541.8 268.3,536 "/>
<polygon class="st7" points="290.4,541.3 289.5,540.9 288.6,540.4 288,539.7 287.4,539 287,537.9 286.7,537.2 286.6,536 292.2,536 
	292.2,535.6 268.5,535.6 268.5,536 268.3,536 268.3,541.8 268.5,541.8 268.5,548.5 292.2,548.5 292.2,541.8 291.3,541.5 "/>
<polygon class="st7" points="125.2,453.1 125.2,458.1 126.1,458.1 126.1,452.4 127.1,452.4 128,452.6 128.9,453.2 129.7,453.8 
	130.3,454.3 131,455.2 131.2,456 131.8,457.1 131.8,458.1 160.4,458.1 160.4,436.6 125.2,436.6 125.2,447.4 124.6,447.4 
	124.6,453.1 "/>
<polygon class="st7" points="287.4,458.3 287.4,457.2 287.8,456.3 288.1,455.4 288.7,454.7 289.5,453.9 290.3,453.3 291.2,453 
	292.1,452.6 293.1,452.5 293.1,458.3 294,458.3 294,445.1 258.5,445.1 258.5,453.8 259.5,453.8 259.5,455.8 258.5,455.8 
	258.5,456.3 258.5,458.3 "/>
<polygon class="st7" points="329.2,468.4 329.2,472.1 375.9,472.1 375.9,458.8 329.2,458.8 329.2,462.5 328.9,462.5 328.9,468.4 "/>
<polygon class="st7" points="373.8,432.9 372.9,432.6 372,432.2 371.2,431.7 370.5,430.9 370,430.1 369.5,429.2 369.2,428.3 
	369.1,427.3 349.8,427.3 349.8,449.3 375.6,449.3 375.6,427.3 374.7,427.3 374.7,432.9 "/>
<polygon class="st7" points="105.4,452.4 106.3,452.6 107.2,453.2 108,453.8 108.8,454.3 109.3,455.2 109.7,456 109.9,457.1 
	109.9,458.1 124.3,458.1 124.3,453.1 118.6,453.1 118.6,452.1 118.9,451.2 119.3,450.2 119.8,449.5 120.6,448.8 121.3,448.3 
	122.2,447.8 123.1,447.5 124.3,447.4 124.3,435.8 123,435.8 121.5,435.8 103.2,435.8 103.2,447.4 102.9,447.4 102.9,453 103.2,453 
	103.2,458.1 104.4,458.1 104.4,452.4 "/>
<polygon class="st7" points="178.1,452.6 179,453.1 179.9,453.4 180.8,454 181.5,454.8 182.1,455.4 182.6,456.5 182.7,457.2 
	182.9,458.3 199.8,458.3 199.8,435.8 199.1,435.8 161.9,435.8 161.5,435.8 161.5,458.3 177.1,458.3 177.1,452.6 "/>
<polygon class="st7" points="299.7,513.5 305.3,513.5 305.3,514.6 305,515.6 304.6,516.4 304,517.3 303.3,518 302.5,518.4 
	301.6,519 300.6,519.1 299.7,519.2 299.7,522.1 311,522.1 311,512.2 308.9,512.2 308.9,509.7 299.7,509.7 "/>
<polygon class="st7" points="201.9,453.2 202.9,453.4 203.6,453.9 204.4,454.2 205,455 205.5,455.6 206,456.5 206.1,457.2 
	206.2,458.1 212.2,458.1 212.2,436.2 202.4,436.2 202.4,451.7 207.3,451.7 207.3,452.5 200.7,452.5 200.7,458.1 201.3,458.1 
	201.3,453.2 "/>
<polygon class="st7" points="96.9,452.1 97.2,451 97.7,450.2 98.1,449.3 98.9,448.7 99.7,448.1 100.6,447.6 101.5,447.4 
	102.6,447.4 102.6,436.2 84.6,436.2 83,436.2 64.8,436.2 64.8,458 102.6,458 102.6,453 96.9,453 "/>
<polygon class="st7" points="270.3,506.7 270.3,508.9 270.3,516.3 270.3,518.1 270.5,518.1 285.5,518.1 289,518.1 289,517.3 
	283.5,517.3 283.7,516.3 283.9,515.2 284.1,514.3 284.9,513.5 285.5,512.9 286.4,512.4 287.1,511.8 288.1,511.6 289,511.6 
	289,506.7 285.5,506.7 270.5,506.7 "/>
<polygon class="st7" points="305.2,501 304.9,501.8 304.5,502.9 303.9,503.5 303.2,504.3 302.5,504.8 301.5,505.2 300.6,505.6 
	299.7,505.6 299.7,509.3 308.9,509.3 311,509.3 311,505.4 310.4,505.4 310.4,498.2 311,498.2 311,496.3 299.7,496.3 299.7,500 
	305.3,500 "/>
<polygon class="st7" points="305.3,526.2 305,527.1 304.6,528 304,528.7 303.3,529.3 302.5,529.9 301.6,530.4 300.6,530.7 
	299.7,530.8 299.7,535.1 311,535.1 311,522.5 299.7,522.5 299.7,525 305.3,525 "/>
<polygon class="st7" points="263.8,319.5 263.3,320.4 262.9,320.9 262.3,321.5 261.8,322.1 261,322.3 260.3,322.4 259.4,322.5 
	259.4,317.9 258.6,317.9 258.6,330.9 270.5,330.9 270.5,317.9 264,317.9 264,318.7 "/>
<polygon class="st7" points="307.2,322.4 306.6,322.3 306,322.1 305.2,321.5 304.6,320.9 304.2,320.4 303.7,319.5 303.5,318.7 
	303.5,317.9 296.9,317.9 296.9,330.9 308.9,330.9 308.9,317.9 308.1,317.9 308.1,322.5 "/>
<polygon class="st7" points="278.8,373.7 279.1,372.8 279.6,371.8 280,371 280.6,370.4 281.5,369.8 282.3,369.6 283.3,369.1 
	284.2,369.1 284.2,338.6 284.8,338.6 284.8,333.1 284.2,333.1 284.2,332 258.8,332 258.8,341.7 258.8,343.3 258.8,375.8 265,375.8 
	265,371 265.7,371 266.6,371.4 267.3,371.6 268.1,372.2 268.6,372.8 269,373.4 269.4,374.2 269.5,374.9 269.7,375.8 284.2,375.8 
	284.2,374.7 278.7,374.7 "/>
<polygon class="st7" points="281.4,322.4 280.5,322.3 279.8,322.1 279.1,321.5 278.6,320.9 278.2,320.4 277.9,319.5 277.5,318.7 
	277.4,317.9 271.3,317.9 271.3,330.9 282.9,330.9 282.9,328.3 283.1,328.3 283.1,317.9 282.2,317.9 282.2,322.5 "/>
<polygon class="st7" points="289.5,319.5 288.9,320.4 288.6,320.9 288,321.5 287.2,322.1 286.6,322.3 285.7,322.4 285,322.5 
	285,317.9 284,317.9 284,328.3 284.2,328.3 284.2,330.9 296.2,330.9 296.2,317.9 289.7,317.9 289.6,318.7 "/>
<path class="st7" d="M310.7,363.3v-1h-1.6v-2.4h1.6v-5.3h-0.3v-7h0.3v-3.4h0.3v-5.6h-0.3v-6.5h-25.6v1.1h-0.3v5.6h0.3v30.6h-0.3v5.6
	h0.3v1h25.6v-6.7h0.3v-5.6L310.7,363.3L310.7,363.3z M290.7,333.9l-0.2,1l-0.3,0.9l-0.6,0.9l-0.7,0.7L288,338l-0.9,0.3l-1,0.2
	l-1,0.1l1-0.1l1-0.2l0.9-0.3l0.9-0.6l0.7-0.7l0.6-0.9l0.3-0.9L290.7,333.9l0.1-1h-5.6h5.6L290.7,333.9z"/>
<g>
	<g>
		<path class="st1" d="M339.2,266.1v16.7h0.3v1.1h37.8v12v7.7v0.2h2v1.6h-2v0.2v7.6v20.1v7.6v0.2h2v1.6h-2v0.2v7.6v20v7.6v0.2h2v1.6
			h-2v0.2v7.6v20v7.7v0.2h2v1.6h-2v0.2v7.6v125.1h-47.6v16.8l-0.1,0.7l-0.2,0.7l-0.3,0.7l-0.3,0.7l-0.6,0.3l-0.7,0.2l-0.9,0.3H326
			h-4.8h-5.1h-33.3h-0.7l-0.7-0.2l-0.7-0.2l-0.6-0.3l-0.3-0.6l-0.3-0.7l-0.2-0.7v-0.7v-2h-5.6v-1l0.2-1l0.3-1l0.6-0.7l0.7-0.7
			l0.9-0.6l0.9-0.3l1-0.2l1-0.1l-1-0.1l-1-0.2l-0.9-0.3l-0.9-0.6l-0.7-0.7l-0.6-0.9l-0.3-1l-0.2-1v-1h5.6v-3.6h-22.6v-19.9h-2v-1.7
			h2V493h-1.2v-40h1.2v-35h-2v-1.6h2v-35.9h-2v-1.8h2V343h-2v-1.6h2v-35.9h-2v-1.6h2v-20h43.1v-1.1v-16.7L339.2,266.1 M344.7,260.5
			h-5.5h-39.5h-5.6v5.5v12.5h-37.6h-5.3v5.5v14.8h-2v5.5v1.6v5.5h2v25h-2v5.5v1.6v5.5h2v25h-2v5.5v1.6v5.5h2v24.5h-2v5.5v1.6v5.5h2
			v24.5H250v5.5v40v5.5h1.2v24.4h-2v5.5v1.6v5.5h2v14.5v5.5h5.5h11.6l0,0l0.1,0.3l0.2,1l0.1,0.3l0.2,0.3l0.3,1l0.2,0.3l0,0l0,0
			l-0.2,0.7l-0.3,1l-0.2,0.3l-0.1,0.3l-0.2,1l-0.1,0.3v0.3v1l-0.3,6h6h0.7v0.1l0.2,0.6l0.3,0.7l0.2,0.3l0.2,0.2l0.3,0.6l0.3,0.3
			l0.3,0.3l0.6,0.3l0.3,0.2l0.3,0.2l0.7,0.2l0.2,0.1l0.2,0.1l0.7,0.2l0.7,0.2h0.7h0.7h0.1h0.1h33.3h5.1h4.8h0.1h0.1h0.7h0.7l0.7-0.2
			l0.7-0.2l0.2-0.1l0.2-0.1l0.7-0.2l0.3-0.2l0.3-0.2l0.6-0.3l0.3-0.3l0.3-0.3l0.3-0.6l0.2-0.2l0.2-0.3l0.3-0.7l0.2-0.6l0.1-0.6
			l0.2-0.7l0.1-0.3v-0.3v-0.7v-0.2V567v-11.4h42h5.5v-5.5V425.8v-2.6h2V418v-1.5V411h-2v-2.6v-20v-2.6h2v-5.5v-1.6v-5.5h-2v-2.6v-20
			V348h2v-5.5v-1.6v-5.2h-2v-2.3v-20v-2.6h2v-5.5v-1.5v-5.5h-2v-2.6v-12v-5.5h-5h-32.3v-1.1h-0.3v-11.2L344.7,260.5L344.7,260.5z"/>
	</g>
</g>
<g>
	<g>
		<path class="st1" d="M200.6,431.8v2h20v19.5h1.2v40h-1.2v37.3H82.7V508H79v5.6l-1-0.1l-1-0.2l-0.9-0.3l-0.9-0.6l-0.7-0.7l-0.5-0.9
			l-0.3-1l-0.2-1l-0.1-1l-0.1,1l-0.2,1l-0.3,1l-0.6,0.9l-0.7,0.7l-0.9,0.6l-1,0.3l-1,0.2l-1,0.1V508h-4.9v-74.1h20.1v-2h1.6v2h36.8
			v-2h1.6v2h37.3v-2h1.6v2H199v-2L200.6,431.8 M206,426.3h-5.5h-1.6h-5.5v2H167v-2h-5.5h-1.6h-5.5v2H128v-2h-5.5H121h-5.5v2H89.8v-2
			h-5.5h-1.6h-5.5v2H62.7h-5.5v5.5v74.1v5.5h5.2v0.2v6l6-0.3h1h0.2l0.3-0.1l1-0.2l0.6-0.1l0.3-0.2l1-0.3l0.2-0.1h0.1l0,0l0.2,0.1
			l0.9,0.3l0.6,0.2l0.6,0.1l1,0.2l0.3,0.1l0,0v11.8v5.5h5.6h138.1h5.5v-6v-31.8h1.2v-5.5v-40v-5.5h-1.2v-13.9v-5.5h-5.5h-14.5
			L206,426.3L206,426.3z"/>
	</g>
</g>
<polygon class="st7" points="67.9,336.2 67,335.9 66.3,335.6 65.9,335 65.1,334.6 64.7,333.9 64.4,333.2 64,332.4 64,331.5 
	63.9,332.4 63.8,333.2 63.4,333.9 63,334.6 62.3,335 61.6,335.6 61,335.9 60.2,336.2 59.4,336.2 59.4,331.5 47.2,331.5 47.2,354.1 
	57,354.1 57,355 65.9,355 65.9,354.1 86.8,354.1 86.8,331.5 68.7,331.5 68.7,336.2 "/>
<polygon class="st7" points="91.1,211.2 82.8,211.2 82.8,220.9 84.4,220.9 84.4,226.7 104.3,226.7 104.3,211.2 96.8,211.2 
	96.8,210.6 91.1,210.6 "/>
<polygon class="st7" points="106.3,354.1 140.4,354.1 140.4,331.5 87.8,331.5 87.8,354.1 97.7,354.1 97.7,355 106.3,355 "/>
<polygon class="st8" points="47.2,330.5 57.4,330.5 53,321.1 53.7,320.5 58.4,330.5 59.4,330.5 59.4,331.1 68.7,331.1 68.7,330.5 
	129.3,330.5 133.9,320.5 134.7,321.1 134,322.5 135.5,322.5 135.6,321.8 135.7,321.1 136,320.1 136.6,319.6 137.2,319 137.7,318.4 
	138.6,318.2 139.4,317.9 140.2,317.9 140.2,322.5 140.4,322.5 140.4,216.4 117.1,216.4 117.1,215.5 106.4,215.5 106.4,216.4 
	104.8,216.4 104.8,227.6 82.1,227.6 82.1,216.4 81.3,216.4 81.3,215.5 70.7,215.5 70.7,216.4 47.2,216.4 47.2,324 46.4,324 
	46.4,329.7 47.2,329.7 "/>
<text transform="matrix(1 0 0 1 85.6285 275.5361)" class="st4 st2 st9">1500</text>
<rect x="280.6" y="559.8" class="st10" width="1.2" height="7.3"/>
<rect x="282.9" y="559.8" class="st10" width="1.2" height="7.3"/>
<rect x="285" y="559.8" class="st10" width="1.2" height="7.3"/>
<rect x="287.1" y="559.8" class="st10" width="1.2" height="7.3"/>
<rect x="289.5" y="559.8" class="st10" width="1.2" height="7.3"/>
<rect x="291.5" y="559.8" class="st10" width="1.2" height="7.3"/>
<rect x="293.8" y="559.8" class="st10" width="1.2" height="7.3"/>
<rect x="296" y="559.8" class="st10" width="1.2" height="7.3"/>
<rect x="280.6" y="552.1" class="st10" width="1.2" height="7.3"/>
<rect x="282.9" y="552.1" class="st10" width="1.2" height="7.3"/>
<rect x="285" y="552.1" class="st10" width="1.2" height="7.3"/>
<rect x="287.1" y="552.1" class="st10" width="1.2" height="7.3"/>
<rect x="289.5" y="552.1" class="st10" width="1.2" height="7.3"/>
<rect x="291.5" y="552.1" class="st10" width="1.2" height="7.3"/>
<rect x="293.8" y="552.1" class="st10" width="1.2" height="7.3"/>
<rect x="296" y="552.1" class="st10" width="1.2" height="7.3"/>
<rect x="298.3" y="559.8" class="st10" width="1.2" height="7.3"/>
<rect x="300.5" y="559.8" class="st10" width="1.2" height="7.3"/>
<rect x="298.3" y="552.1" class="st10" width="1.2" height="7.3"/>
<rect x="300.5" y="552.1" class="st10" width="1.2" height="7.3"/>
<rect x="304" y="559.8" class="st10" width="1.2" height="7.3"/>
<rect x="306.2" y="559.8" class="st10" width="1.2" height="7.3"/>
<rect x="308.5" y="559.8" class="st10" width="1.2" height="7.3"/>
<rect x="310.5" y="559.8" class="st10" width="1.2" height="7.3"/>
<rect x="312.8" y="559.8" class="st10" width="1.2" height="7.3"/>
<rect x="314.9" y="559.8" class="st10" width="1.2" height="7.3"/>
<rect x="317.1" y="559.8" class="st10" width="1.2" height="7.3"/>
<rect x="319.2" y="559.8" class="st10" width="1.2" height="7.3"/>
<rect x="304" y="552.1" class="st10" width="1.2" height="7.3"/>
<rect x="306.2" y="552.1" class="st10" width="1.2" height="7.3"/>
<rect x="308.5" y="552.1" class="st10" width="1.2" height="7.3"/>
<rect x="310.5" y="552.1" class="st10" width="1.2" height="7.3"/>
<rect x="312.8" y="552.1" class="st10" width="1.2" height="7.3"/>
<rect x="314.9" y="552.1" class="st10" width="1.2" height="7.3"/>
<rect x="317.1" y="552.1" class="st10" width="1.2" height="7.3"/>
<rect x="319.2" y="552.1" class="st10" width="1.2" height="7.3"/>
<rect x="321.6" y="559.8" class="st10" width="1.2" height="7.3"/>
<rect x="324" y="559.8" class="st10" width="1.2" height="7.3"/>
<rect x="321.6" y="552.1" class="st10" width="1.2" height="7.3"/>
<rect x="324" y="552.1" class="st10" width="1.2" height="7.3"/>
<g>
	<polygon class="st6" points="296.1,444.1 296.1,458 307.1,458 307.1,455.2 307.1,454.1 307.1,448.5 307.1,444 	"/>
	<text transform="matrix(1 0 0 1 298.6465 453.3711)" class="st4 st11 st12">E</text>
</g>
<rect x="308.2" y="254.6" class="st4" width="23.3" height="10.9"/>
<rect x="267.4" y="554.6" class="st4" width="12.8" height="16.4"/>
<rect x="329.2" y="294.3" class="st10" width="1.2" height="7.3"/>
<rect x="331.5" y="294.3" class="st10" width="1.2" height="7.3"/>
<rect x="329.2" y="286.5" class="st10" width="1.2" height="7.3"/>
<rect x="331.5" y="286.5" class="st10" width="1.2" height="7.3"/>
<rect x="333.9" y="294.3" class="st10" width="1.2" height="7.3"/>
<rect x="336.1" y="294.3" class="st10" width="1.2" height="7.3"/>
<rect x="333.9" y="286.5" class="st10" width="1.2" height="7.3"/>
<rect x="336.1" y="286.5" class="st10" width="1.2" height="7.3"/>
<rect x="338.1" y="294.3" class="st10" width="1.2" height="7.3"/>
<rect x="338.1" y="286.5" class="st10" width="1.2" height="7.3"/>
<rect x="340.3" y="294.3" class="st10" width="1.2" height="7.3"/>
<rect x="342.4" y="294.3" class="st10" width="1.2" height="7.3"/>
<rect x="344.6" y="294.3" class="st10" width="1.2" height="7.3"/>
<rect x="346.6" y="294.3" class="st10" width="1.2" height="7.3"/>
<rect x="349" y="294.3" class="st10" width="1.2" height="7.3"/>
<rect x="351.1" y="294.3" class="st10" width="1.2" height="7.3"/>
<rect x="353.3" y="294.3" class="st10" width="1.2" height="7.3"/>
<rect x="355.5" y="294.3" class="st10" width="1.2" height="7.3"/>
<rect x="340.3" y="286.5" class="st10" width="1.2" height="7.3"/>
<rect x="342.4" y="286.5" class="st10" width="1.2" height="7.3"/>
<rect x="344.6" y="286.5" class="st10" width="1.2" height="7.3"/>
<rect x="346.6" y="286.5" class="st10" width="1.2" height="7.3"/>
<rect x="349" y="286.5" class="st10" width="1.2" height="7.3"/>
<rect x="351.1" y="286.5" class="st10" width="1.2" height="7.3"/>
<rect x="353.3" y="286.5" class="st10" width="1.2" height="7.3"/>
<rect x="355.5" y="286.5" class="st10" width="1.2" height="7.3"/>
<rect x="357.8" y="294.3" class="st10" width="1.2" height="7.3"/>
<rect x="360.2" y="294.3" class="st10" width="1.2" height="7.3"/>
<rect x="357.8" y="286.5" class="st10" width="1.2" height="7.3"/>
<rect x="360.2" y="286.5" class="st10" width="1.2" height="7.3"/>
<path class="st4" d="M303.6,288.8"/>
<path class="st8" d="M144.7,473.7v-0.3h-4v0.3l0,0l0,0h-22.5v-0.3h-4.6v0.3l0,0l0,0H112v32.9h0.3l0,0h26.1l0,0h1.2l0,0l0,0h8.3
	v-32.9H144.7L144.7,473.7z"/>
<g>
	<text transform="matrix(1 0 0 1 117.6887 488.5123)" class="st4 st2 st13">SPIETH</text>
	<text transform="matrix(1 0 0 1 117.6887 499.6123)" class="st4 st2 st13"> 1307</text>
</g>
<rect x="377" y="279" class="st7" width="183" height="105"/>
<path class="st8" d="M403,285.9L403,285.9v1.2l0,0v27.8v1.1h1.2l0,0v0.2h3.8V316v0.2l0,0V316l0,0l0,0h13l0,0v0.2h3.8V316l0,0l0,0
	h1.4v-30L403,285.9L403,285.9z"/>
<g>
	<text transform="matrix(1 0 0 1 405.1268 300.1503)" class="st4 st2 st14">SPIETH</text>
	<text transform="matrix(1 0 0 1 405.1268 309.6503)" class="st4 st2 st14">1222</text>
</g>
</svg>
