<?xml version="1.0" encoding="utf-8"?>
<!-- Generator: Adobe Illustrator 17.1.0, SVG Export Plug-In . SVG Version: 6.00 Build 0)  -->
<!DOCTYPE svg PUBLIC "-//W3C//DTD SVG 1.1//EN" "http://www.w3.org/Graphics/SVG/1.1/DTD/svg11.dtd">
<svg version="1.1" id="Layer_1" xmlns="http://www.w3.org/2000/svg" xmlns:xlink="http://www.w3.org/1999/xlink" x="0px" y="0px"
	 viewBox="52.4 603.1 792.1 754" enable-background="new 52.4 603.1 792.1 754" xml:space="preserve">
<g>
	<g>
		<path fill="#989798" d="M734.8,631.5l67.2,0.2l7.7,45.7h9.7l0.9-3.3l4.3,0.9l-5.2,73.3h3.6v65.4h-4v20.7l19.8,0.2v20.1l-16.4-0.2
			v41.8h-99.8v0.2h-21.5h-88.1v-82.4l-3.6,0.2l-5.5-50.3l3.6-0.2l0.2,0.9h0.9l0.2-88.3h3.6v2.5h4.6l7.3-42l65.3,0.2l7.5,40.2h6.3
			L704,723h20.3l-0.2-45.9h3.3L734.8,631.5 M730.4,626.1l-0.9,4.6l-6.6,40.5h-4.3v5.5l0.2,40.5h-9.5l-0.6-40.5v-5.2h-5.2h-2.1
			l-6.6-35.6l-0.7-4.3h-4.5l-65.2-0.2h-4.6l-0.9,4.4l-6.1,35.1h-0.6h-3.8H603v5.5l-0.2,82.4l-5.2,0.6l0.6,5.5l5.5,50.3l0.6,5
			l3.1-0.2v76.9v5.5h5.5h88.1h21.5h5.5v0.2h94.6h5.5v-5.7v-36.2L839,861h5.5v-5.5v-20.1v-5.2h-5.2h-14.1v-9.7h4v-5.5v-65.5v-5.5
			h-3.6l4.6-67.4l0.2-5l-4.6-0.9l-4.3-0.9l-5-0.9l-0.9,4.3H815l-7.3-41.2l-0.9-4.5h-4.5l-67.2-0.2L730.4,626.1L730.4,626.1z"/>
	</g>
	<g>
		<path fill="#989798" d="M569.5,730.5v14.8h-0.6v60h-33.9v30.1h33.9v25.2h0.2v33.9h-24.7v-3.3h-14.7v-6.1H112.2v-48l-0.2-59.6
			L95,778l0.6-36l28.5-0.6h203.6v12.2l11.8,0.2v-12.7l189.8,0.2v-7.2h16.4v-4h23.8 M575.1,724.9h-5.4h-23.9H540v4h-10.9h-5.5v5.5
			v1.7L339,735.6h-5.5v5.5v7.3h-0.7v-7v-5.5h-5.5H124l0,0l0,0l-28.7,0.2h-5.2v5.2l-0.2,36.2v5.5l5.5-0.2l11.1-0.2l0.2,54.4v48v5.5
			h5.5H524v0.6v5.5h5.5h9.2v3.3h5.5h24.7h5.5v-5.5v-33.9V855h-0.2v-19.8v-5.5h-5.5h-28.5v-19.3h28.5h5.5v-5.5v-54.8h0.6v-5.5v-13.9
			v-5.7L575.1,724.9L575.1,724.9z"/>
	</g>
	<g>
		<rect x="534.1" y="810.4" fill="#FFFFFF" width="13.6" height="20.3"/>
		<polygon fill="#4A6DB4" points="551.4,817.6 551.4,824.1 545.8,821 		"/>
	</g>
	<g>
		<rect x="600" y="819" fill="#FFFFFF" width="13.6" height="20.3"/>
		<rect x="600.7" y="856.1" fill="#FFFFFF" width="13.6" height="13.2"/>
		<polygon fill="#4A6DB4" points="596.1,832.3 596.1,825.7 601.6,828.7 		"/>
	</g>
	<g>
		<rect x="673.7" y="828.7" fill="#FFFFFF" width="6.6" height="11.5"/>
		<polygon fill="#4A6DB4" points="674.7,824.9 681,824.9 677.9,830.6 		"/>
	</g>
	<g>
		<rect x="330.1" y="730.7" fill="#FFFFFF" width="6.6" height="25.6"/>
		<polygon fill="#4A6DB4" points="331,726.8 337.4,726.8 334.2,732.4 		"/>
	</g>
	<g>
		<rect x="728.3" y="828.7" fill="#FFFFFF" width="6.6" height="11.5"/>
		<polygon fill="#4A6DB4" points="729,824.9 735.6,824.9 732.3,830.6 		"/>
	</g>
	<g>
		<rect x="792.7" y="828.7" fill="#FFFFFF" width="6.6" height="11.5"/>
		<polygon fill="#4A6DB4" points="793.3,824.9 800,824.9 796.5,830.6 		"/>
	</g>
	<path fill="#CCCCCC" d="M559.8,850.4L559.8,850.4C560.2,850.4,560.2,850.4,559.8,850.4C560.2,850.4,560.2,850.4,559.8,850.4
		C560.2,850.4,560.2,850.4,559.8,850.4C560.2,850.6,560.2,850.6,559.8,850.4v0.2l0,0v0.9c-0.6,2.2-2,3.6-4.3,4h-0.9v3.3
		c0,0.2-0.2,0.2-0.2,0.2h-3.1v7.7h8.4c0,0,0.2,0,0.2,0.2v0.9c0,0,0,0.2-0.2,0.2h-0.6v0.9c0,0,0,0,0,0.2c0,0,0,0-0.2,0h-3.2v0.2l0,0
		l0,0l0,0l0,0l0,0l0,0l0,0l0,0l0,0l0,0l0,0l0,0l0,0l0,0l0,0l0,0l0.2,0.2l0,0l0.2,0.2l0,0c0,0,0,0,0.2,0l0,0l0,0l0,0l0,0l0,0l0,0l0,0
		l0,0l0,0l0,0l0,0l0,0l0,0l0,0l0,0l0,0l0,0l0,0l0,0l0,0l0,0h0.6l0,0c0,0,0.2,0,0.2,0.2v0.6h1.4c0,0,0.2,0,0.2,0.2l0,0l0,0l0,0v0.2
		c0,0.2,0,0.2,0,0.2s0,0,0,0.2l0,0l0,0l0,0l0,0l0,0l0,0l0,0l0,0l0,0l0,0l0,0l0,0l0,0l0,0l0,0l0,0l0,0l0,0l0,0l0,0l0,0l0,0l0,0l0,0
		l0,0l0,0l0,0l0.2,0.2l0,0l0,0l0.2,0.2l0,0v0.2l0,0l0,0l0.2,0.2l0,0l0,0l0,0l0,0h0.2l0,0l0,0l0,0l0,0l0,0l0,0l0,0l0,0h0.2h0.2l0,0
		l0,0l0,0h0.2c0,0,0,0,0.2,0h0.2v-4.4c0,0,0-0.2,0.2-0.2l0,0c0,0,0,0,0.2,0h0.2v-23.1h-11v0.9L559.8,850.4L559.8,850.4z"/>
	<path fill="#CCCCCC" d="M630.1,741.9L630.1,741.9L630.1,741.9L630.1,741.9L630.1,741.9L630.1,741.9
		C630.3,741.9,630.3,741.9,630.1,741.9h0.2l0,0h0.9c2.2,0.2,3.6,2,4.3,4v0.6h63.6v-13.2h-80.8V746h12L630.1,741.9L630.1,741.9z"/>
	<path fill="#CCCCCC" d="M565.9,877.7C565.9,878,565.9,878,565.9,877.7l-0.2,0.2l0,0l0,0h-0.2c0,0,0,0-0.2,0s-0.2,0-0.2,0s0,0-0.2,0
		l0,0l0,0l0,0h-0.2h-0.2l0,0l0,0l0,0l0,0l0,0l0,0l0,0l0,0l0,0l0,0l0,0l0,0l0,0l0,0l0,0l0,0l0,0l0,0l-0.2-0.2l0,0l0,0l0,0l0,0l0,0
		l-0.2-0.2l0,0l0,0l0,0l0,0l0,0l0,0l0,0l0,0l0,0l0,0l0,0l0,0l0,0l0,0l0,0l0,0l0,0l0,0l0,0l0,0l0,0l0,0l0,0l0,0l0,0l0,0l0,0l0,0l0,0
		l0,0c0-0.2,0-0.2,0-0.2s0,0,0-0.6v-0.2l0,0h-2.2h-0.2h-1.7l0,0l0,0h-0.2h-1.7h-0.6h-0.7h-2.2v7.7h2.2V884c0-0.2,0.2-0.2,0.2-0.2
		h2.2c0.2,0,0.2,0,0.2,0.2h1.4c0.2,0,0.2,0.2,0.2,0.2v0.2h2.2c0,0,0.2,0,0.2,0.2v0.9c0,0,0,0.2-0.2,0.2H561l0,0
		c0,0.2-0.2,0.2-0.2,0.2l0,0c-0.2,0-0.2-0.2-0.2-0.2l0,0h-5.8v5l0,0v3.1h14.1v-17.3l0,0L565.9,877.7L565.9,877.7z"/>
	<path fill="#CCCCCC" d="M726.4,755.8v0.6h17.7v-8.1h-15.2v2.2c0,0.2-0.2,0.2-0.2,0.2H727c0,0.2-0.2,0.2-0.2,0.2l0,0v4.5l0,0
		C726.1,755.5,726.4,755.5,726.4,755.8z"/>
	<path fill="#CCCCCC" d="M247.4,833.6L247.4,833.6c0.2,0,0.6,0.2,0.6,0.2h6.1v-12.2h-0.1c-0.2,0-0.6-0.2-0.6-0.2h-10.9
		c0,0.2-0.2,0.2-0.6,0.2h-14.1v11.1h2.2c0.2,0,0.2,0.2,0.2,0.2v0.9h12.2h0.2h4.6L247.4,833.6C247.1,833.8,247.1,833.6,247.4,833.6z
		 M234.7,831.6h-1.2c-0.2,0-0.2-0.2-0.2-0.2l0.2-0.2h1.2c0.2,0,0.2,0.2,0.2,0.2L234.7,831.6z"/>
	<path fill="#CCCCCC" d="M341.1,875.1L341.1,875.1v-4.5l0,0c-0.2,0-0.2-0.2-0.2-0.2v-33.9v-2.5h-0.2c-0.2,0-0.2-0.2-0.2-0.2v-7.5
		H335c-0.2,0-0.2-0.2-0.2-0.2l0,0h-7l0,0c0,0.2-0.2,0.2-0.2,0.2h-0.9v12.2c0,0.2-0.2,0.2-0.2,0.2h-28.7v41.8H341v-4.6
		C340.7,875.3,340.7,875.1,341.1,875.1z"/>
	<path fill="#CCCCCC" d="M432.4,821v4.6c0,0.2-0.2,0.2-0.2,0.2h-1.8c-0.2,0-0.2-0.2-0.2-0.2l0,0h-7l0,0c0,0.2-0.2,0.2-0.2,0.2h-4.7
		v7.5c0,0.2-0.2,0.2-0.2,0.2h-0.6v36.7c0,0.2-0.2,0.2-0.2,0.2l0,0v4.5l0,0c0.2,0,0.2,0.2,0.2,0.2v4.6h36.2v-59.3h-21.4v0.3H432.4z"
		/>
	<path fill="#CCCCCC" d="M471.4,847.8v4.6c0,0,0,0.2-0.2,0.2H471c0,0-0.2,0-0.2-0.2v-4.6h-6.6l1.4,1.4l0,0l0,0l0,0l0,0l0,0l-1.7-1.7
		l0,0h-8.7v32.2h17.4v-32.2L471.4,847.8z"/>
	<path fill="#CCCCCC" d="M411.3,875.6C411.3,875.6,410.9,875.6,411.3,875.6L411.3,875.6L411.3,875.6L411.3,875.6v-1.2
		c0.6-2,2-3.3,4.3-4h0.6v-36.5h-0.6c-0.2,0-0.2-0.2-0.2-0.2v-7.5h-4.7c-0.2,0-0.2-0.2-0.2-0.2l0,0h-7l0,0c0,0.2-0.2,0.2-0.2,0.2
		h-0.6v6.6c0,0.2-0.2,0.2-0.2,0.2h-21.6v0.6c0,0.2-0.2,0.2-0.2,0.2h-2.2c-0.2,0-0.2-0.2-0.2-0.2V833h-21.5c-0.2,0-0.2-0.2-0.2-0.2
		v-6.6h-0.6c-0.2,0-0.2-0.2-0.2-0.2l0,0h-7.2l0,0c0,0.2-0.2,0.2-0.2,0.2h-4.5v7.5c0,0.2-0.2,0.2-0.2,0.2h-0.6v36.5h0.6
		c2,0.2,4,2,4.3,4l0.2,0.9l0,0l0,0v0.2l0,0h-4.6v4.6h74.2v-4.6h-6.3V875.6z"/>
	<path fill="#CCCCCC" d="M715.5,748c0-0.2,0.2-0.2,0.2-0.2l0,0v-4.5l0,0c-0.2,0-0.2-0.2-0.2-0.2v-1.2h-11.8v14.1h11.8V748z"/>
	<path fill="#CCCCCC" d="M264.4,878.3v-3.6v-0.2v-4.6l-0.2-0.2v-16.7c0-0.2,0.2-0.6,0.6-0.6v-6.8c-0.2,0-0.6-0.2-0.6-0.6v-8.4
		c0-0.2,0.2-0.6,0.2-0.6v-1.7c-0.2,0-0.2-0.2-0.2-0.6v-12h-2.9h-0.2c-0.2,0-0.6-0.2-0.6-0.2H256c0,0.2-0.2,0.2-0.6,0.2h-0.9V835
		c0,0.2-0.2,0.2-0.2,0.2h-2.9v32.9c0,0.2-0.2,0.2-0.2,0.2h-10.6h-0.2h-4.6h-0.2h-9.7v5c0,0.2-0.2,0.6-0.2,0.6v4.5
		c0.2,0,0.2,0.2,0.2,0.6v1.2v0.9h25.6h5.2h7.3v-2.5C264.4,878.6,264.4,878.6,264.4,878.3z"/>
	<path fill="#CCCCCC" d="M542,878.8C542,878.8,541.7,878.8,542,878.8c0,0.2-0.2,0.2-0.2,0.2l0,0c-0.2,0-0.2-0.2-0.2-0.2l0,0h-2.2
		c0,0-0.2,0-0.2-0.2v-0.6c0,0,0-0.2,0.2-0.2h2.5v-0.2c0-0.2,0.2-0.2,0.2-0.2h2.2c0.2,0,0.2,0.2,0.2,0.2v0.2h3.6v-7.7h-8.9l0,0l0,0
		l0,0c0,0.2,0,0.2,0,0.6c0,0,0,0,0,0.2l0,0l0,0c0,0.2,0,0.2,0,0.2v0.2l0,0l0,0l0,0l0,0l0,0l0,0l0,0l0,0l0,0l0,0l0,0l0,0l0,0l0,0
		l-0.2,0.2l0,0l0,0l-0.2,0.2l0,0l0,0l-0.2,0.2l0,0l0,0l-0.2,0.2l0,0l0,0l-0.2,0.2l0,0l0,0l0,0l0,0l0,0l0,0l0,0l0,0l0,0l0,0l0,0l0,0
		l0,0l0,0l0,0l0,0l0,0l0,0l0,0h-0.2h-0.4l0,0l0,0c0,0,0,0-0.2,0s0,0-0.2,0c0,0,0,0-0.2,0h-0.4h-0.2c0,0-0.2,0-0.2-0.2v-4.4l0,0v10.9
		l0,0v4h2l0,0c0.2,0,0.2,0.2,0.2,0.2v2H550v-8.4h-7.5v2.3H542z"/>
	<path fill="#CCCCCC" d="M789,752.6L789,752.6L789,752.6C789,752.9,789,752.9,789,752.6L789,752.6h-0.2l0,0h-0.9
		c-2.2-0.6-3.6-2-4.3-4v-0.9h-17.9v1.4c0,0.2-0.2,0.2-0.2,0.2h-1.7c-0.2,0-0.2-0.2-0.2-0.2v-1.4h-17.9v12.6h46.1v-12.6H789v5h0
		V752.6z"/>
	<path fill="#CCCCCC" d="M480.3,869c-0.2,0-0.2-0.2-0.2-0.2h-4.5v5c0,0,0,0.2-0.2,0.2h-0.2c0,0-0.2,0-0.2-0.2v-4.6h-1.2v11.5h36.2
		v-11.5h-29.6V869z"/>
	<path fill="#CCCCCC" d="M509,852.7L509,852.7c-0.2,0-0.6,0-0.6-0.2v-4.6h-6.6l1.4,1.4l0,0l0,0l0,0l0,0l0,0l-1.7-1.7l0,0h-8.4v19.8
		h17.7v-19.8h-1.2L509,852.7L509,852.7z"/>
	<path fill="#CCCCCC" d="M520.5,847.8L520.5,847.8l-1.7,1.7l0,0l0,0l0,0l0,0l0,0l1.4-1.4h-7.1v4.6c0,0,0,0.2-0.2,0.2h-0.2
		c0,0-0.2,0-0.2-0.2v-4.6h-1.2v32.2H528v-32.2L520.5,847.8z"/>
	<path fill="#CCCCCC" d="M803.7,749.6c0,0.2-0.2,0.2-0.2,0.2h-1.7c-0.2,0-0.2-0.2-0.2-0.2v-1.4h-8.4v13.7c0,0.2-0.2,0.2-0.2,0.2
		h-48.3c-0.2,0-0.2-0.2-0.2-0.2v-4h-41.8c-0.2,0-0.2-0.2-0.2-0.2v-9.5h-49.1v1.4c0,0,0,0.2-0.2,0.2h-2.2c0,0-0.2,0-0.2-0.2v-1.4
		h-6.1v0.9c0,0.2-0.2,0.2-0.2,0.2l0,0v9.2h0.2c0.2,0,0.2,0.2,0.2,0.2v2.9c0,0.2-0.2,0.2-0.2,0.2h-8.7v25.2c0,0.2-0.2,0.2-0.2,0.2
		h-23.3l1.4,13.2h1.7c0.2,0,0.2,0.2,0.2,0.2v0.2h35.3v-0.2c0-0.2,0.2-0.2,0.2-0.2h39.6c0.2,0,0.2,0.2,0.2,0.2v0.2l35.3-0.2
		c0,0,0-0.2,0.2-0.2H758h7.5l0,0l0,0v-7.7l0,0l0,0l0,0l0,0l0,0l0,0l0,0h27.6l0,0v8.7h8.1v-0.6c0-0.2,0.2-0.2,0.2-0.2l0,0h18.9v-52.4
		h-16.7L803.7,749.6L803.7,749.6z"/>
	<path fill="#CCCCCC" d="M519.6,825.7c0,0.2-0.2,0.2-0.2,0.2h-1.7c-0.2,0-0.2-0.2-0.2-0.2V822h-50.7v3.6c0,0.2-0.2,0.2-0.2,0.2h-3.1
		c-0.2,0-0.2-0.2-0.2-0.2l0,0h-7l0,0c0,0.2-0.2,0.2-0.2,0.2h-0.6v20.7h8.7c0.2,0,0.2,0,0.2,0.2h7.3l0.2-0.2h4c0.2,0,0.2,0,0.2,0.2h7
		l0.2-0.2h18.4c0.2,0,0.2,0,0.2,0.2h7.3l0.2-0.2h4c0.2,0,0.2,0,0.2,0.2h7l0.2-0.2h7.7v-20.7h-1.4c-0.2,0-0.2-0.2-0.2-0.2l0,0H519.6
		L519.6,825.7z"/>
	<path fill="#CCCCCC" d="M480.3,867.6h11.1v-19.8h-8.4l0,0l-1.7,1.7l0,0l0,0h-0.2l0,0l0,0l1.4-1.4H476v4.6c0,0,0,0.2-0.2,0.2h-0.2
		c0,0-0.2,0-0.2-0.2v-4.6h-1.2v19.8h1.4c0.2,0,0.2,0.2,0.2,0.2l0,0h4.5l0,0C480.1,867.8,480.3,867.6,480.3,867.6z"/>
	<path fill="#CCCCCC" d="M380.2,793.6h-3.6v12h24.2V801c0-0.2,0.2-0.2,0.2-0.2h0.9c0,0,0,0,0.2-0.2v-0.2l0,0h8.4l0,0v0.2
		c0,0,0.2,0,0.2,0.2h4.5v-54.4h-1.7h-5.5h-27.6v47.1C380.6,793.6,380.6,793.6,380.2,793.6z"/>
	<path fill="#CCCCCC" d="M633.6,766.7L633.6,766.7L633.6,766.7L633.6,766.7L633.6,766.7h-0.2l0,0h-1c-2.2-0.6-3.6-2-4.3-4v-0.9
		h-19.5l2.5,23.9h22.5v-23.9h-0.1L633.6,766.7L633.6,766.7z"/>
	<path fill="#CCCCCC" d="M534.1,787.6L534.1,787.6L534.1,787.6C534.1,787.4,534.1,787.4,534.1,787.6
		C534.1,787.4,534.1,787.4,534.1,787.6C534.1,787.4,534.1,787.4,534.1,787.6L534.1,787.6h0.2l0,0h0.9c2.2,0.6,4,2,4.3,4.3v0.6h3.6
		v-0.9c0-0.2,0.2-0.2,0.2-0.2h4.5v-11.5h-6.5c0,0-0.2,0-0.2-0.2v-0.9c0,0,0-0.2,0.2-0.2h6.3V774h-3.3c0,0-0.2,0-0.2-0.2v-0.2
		c0,0,0-0.2,0.2-0.2h3.3v-3.8h-3.3c0,0-0.2,0-0.2-0.2l0,0c0,0,0-0.2,0.2-0.2h3.3v-3.6h-3.3c0,0-0.2,0-0.2-0.2l0,0c0,0,0-0.2,0.2-0.2
		h3.3v-3.6h-7.9h-0.2c0,0-0.2,0-0.2-0.2l0,0l0,0l0,0c0,0,0-0.2,0.2-0.2h0.2h0.2l0,0h0.2l0,0l0,0l0,0l0,0l0,0l0,0l0,0l0,0l0,0l0,0
		l0,0l0,0l0,0l0,0l0,0l0,0l0,0l0,0l0,0l0,0l0,0l0,0l0,0c0,0,0,0,0.2,0l0,0l0,0l0,0l0,0l0,0l0,0l0,0l0,0l0,0l0,0l0,0l0,0l0,0l0,0l0,0
		l0,0l0,0l0,0l0,0l0,0l0,0v-0.2l0,0l0,0l0,0h-3.3l0,0l0,0l0,0l0,0c0,0-0.2,0-0.2-0.2v-2c0,0,0-0.2,0.2-0.2h0.2h0.2
		c0.2,0,0.2,0,0.2,0s0,0,0.2,0l0,0l0,0l0,0l0,0l0,0l0,0l0,0l0,0l0,0l0,0l0,0l0,0l0,0l0,0l0,0l0,0l0,0l0,0l0,0l0,0l0,0l0.2-0.2l0,0
		l0.2-0.2l0,0l0,0l0,0l0,0l0,0l0,0l0,0l0,0l0,0l0,0l0,0l0,0l0,0l0,0l0,0l0,0l0,0l0,0v-0.2l0,0l0,0l0,0h-3.3l0,0l0,0l0,0l0,0
		c0,0-0.2,0-0.2-0.2v-0.6h-0.4l0,0c0,0-0.2,0-0.2-0.2l0,0l0,0l0,0l0,0v-0.2l0,0l0,0c0-0.2,0-0.2,0-0.2s0,0,0-0.2l0,0l0,0l0,0
		c0,0,0,0,0-0.2v-0.6l0,0l0,0l0,0l0,0l0,0l0,0l0,0l0,0l0,0l0,0l0,0l0,0l0,0c0-0.2-0.2-0.2-0.2-0.2l-0.2-0.2l0,0l0,0l-0.2-0.2
		l-0.2-0.2l0,0l0,0l0,0l0,0l0,0l0,0l0,0l0,0l0,0l0,0l0,0l0,0l0,0l0,0l0,0l0,0l0,0l0,0l0,0l0,0l0,0l0,0l0,0l0,0l0,0l0,0l0,0l0,0l0,0
		h-0.2l0,0l0,0l0,0v4.5c0,0,0,0.2-0.2,0.2l0,0c0,0,0,0-0.2,0h-0.6v33.1h0.6L534.1,787.6L534.1,787.6z"/>
	<path fill="#CCCCCC" d="M783.9,746.5L783.9,746.5C783.9,746.5,784.1,746.5,783.9,746.5l0.2,0.2h5v-0.2l0,0h0.2c0,0,0,0,0.2,0h25.9
		l0.6-9.2h-1.7l-0.2,2.2v0.2h-0.2h-0.8c-0.2,0-0.2-0.2-0.2-0.2l1.7-23.9l-10.6-0.9c0,0-0.2,0-0.2-0.2l0,0l-9.2,0.6
		c-8.1,0.2-15.8,0.6-23.9,0.6c-7.7,0-15.8-0.2-23.9-0.6l-9.5-0.6l0,0c0,0,0,0.2-0.2,0.2h-8.7v31.7h55.8v0.1H783.9z"/>
	<path fill="#CCCCCC" d="M235.7,818.1v1.2h5.8c0.2,0,0.2,0,0.6,0.2h11.1c0,0,0.2-0.2,0.6-0.2h2.2c0.2,0,0.2,0,0.6,0.2h4.5
		c0,0,0.2-0.2,0.6-0.2h0.2h2.9v-0.9c0-0.2,0-0.2,0.2-0.6v-9.5c0,0-0.2-0.2-0.2-0.6v-3.3c0-0.2,0-0.2,0.2-0.6v-4.6
		c0,0-0.2-0.2-0.2-0.6v-5.2h-2.9h-0.2H257h-0.2l0,0v12.8c0,0.2-0.2,0.2-0.2,0.2h-6.1h-0.2h-8.7h-0.2h-4.6v1.2c0,0.2,0,0.2-0.2,0.2
		l0.2,8.7l0,0v0.2L235.7,818.1C235.7,817.9,235.7,818.1,235.7,818.1z M260.5,807.2C260.5,807,260.5,807,260.5,807.2
		c0.2-0.2,0.2,0,0.2,0v0.9c0,0,0.2,0,0.2,0.2s0,0.2-0.2,0.2h-0.2c0,0-0.2,0-0.2-0.2v-1.2h0.2V807.2z"/>
	<path fill="#CCCCCC" d="M686.8,818.1h0.9l0,0h0.2l0,0l0,0l0,0l0,0l0,0l0,0v4.6h0.6v-20.1h-17.7v19.9h11.8v-0.9
		C683.3,820.2,685.3,818.6,686.8,818.1z"/>
	<path fill="#CCCCCC" d="M745.1,802.9h-17.2v19.8h11.8v-0.6c0.2-2,2-3.6,4.3-4.3h0.9l0,0h0.2l0,0l0,0l0,0l0,0l0,0l0,0l0,0v4.6h0.6
		L745.1,802.9L745.1,802.9z"/>
	<path fill="#CCCCCC" d="M764.1,802.9h-17.7v19.8h11.8v-0.6c0.6-2.2,1.7-3.3,4.3-4.3h0.9l0,0h0.2l0,0l0,0l0,0l0,0l0,0l0,0l0,0v4.6
		h0.6L764.1,802.9L764.1,802.9z"/>
	<path fill="#CCCCCC" d="M709.4,818.1L709.4,818.1L709.4,818.1L709.4,818.1L709.4,818.1L709.4,818.1L709.4,818.1h0.2l0,0h0.9
		c2.2,0.6,3.6,2,4.3,4v0.6h11.8v-19.8h-0.4c-0.2,0-0.2-0.2-0.2-0.2l0,0h-17V823h0.6v-4.9H709.4z"/>
	<path fill="#CCCCCC" d="M707.4,802.6h-17l0,0c0,0.2-0.2,0.2-0.2,0.2H690v19.8h0.6v-4.6l0,0l0,0l0,0l0,0l0,0l0,0h0.2l0,0h0.9
		c2,0.2,3.6,2,4.3,4v0.6h11.8v-20h-0.3V802.6z"/>
	<path fill="#CCCCCC" d="M625.6,758.9L625.6,758.9C625.6,759.2,625.6,759.2,625.6,758.9v1.4h2.2c0,0,0,0,0.2,0h0.2l0,0v0.2h5v-0.2
		l0,0l0,0c0,0,0,0,0.2,0h8.7v-1.2c0,0,0,0,0-0.2l0,0l0,0h0.2l0,0l-3.3-3.3l0,0l0,0l0,0l0,0l0.9-0.6l0.9-0.6l0.9-0.2l-0.6-0.2
		l-0.9-0.6l-0.9-0.6l0,0l0,0l0,0l0,0l3.3-3.3h-0.2l0,0l0,0c0,0,0,0,0-0.2v-0.9h-6.6c0,0,0,0-0.2,0h-0.2l0,0v-0.2h-5v0.2l0,0l0,0
		c0,0,0,0-0.2,0l0,0h-4.3v0.9c0,0,0,0,0,0.2l0,0l0,0h-0.2v9.3H625.6L625.6,758.9z"/>
	<path fill="#CCCCCC" d="M278.9,777.2c-0.2,0-0.6-0.2-0.6-0.2h-11.1v1.4c0.2,0,0.2,0.2,0.2,0.6c0,0.3-0.2,0.6-0.2,0.6v4.5
		c0.2,0,0.2,0.2,0.2,0.6h4.5c0.2,0,0.6,0.2,0.6,0.2h2.2c0-0.2,0.2-0.2,0.6-0.2h12l0,0h1.2l0,0h7v-0.2c0-0.2,0.2-0.2,0.2-0.2
		c0.2,0,0.2,0.2,0.2,0.2v0.2h0.6l0,0h1.2l0,0h0.9l0,0h1.2l0,0h20.3v-7.3h-7.7c0,0.2-0.2,0.2-0.6,0.2c-0.3,0-0.6-0.2-0.6-0.2h-4
		c0,0.2-0.2,0.2-0.6,0.2c-0.3,0-0.6-0.2-0.6-0.2h-6.6c0,0.2-0.2,0.2-0.6,0.2c-0.2,0-0.6-0.2-0.6-0.2H294c0,0.2-0.2,0.2-0.6,0.2
		c-0.2,0-0.6-0.2-0.6-0.2h-7c0,0.2-0.2,0.2-0.6,0.2c-0.2,0-0.6-0.2-0.6-0.2h-4.5C279.6,777,279.2,777.2,278.9,777.2z"/>
	<path fill="#CCCCCC" d="M625.1,714.3h-6.6l0,0l0,0H625.1C625.1,714.1,625.1,714.1,625.1,714.3L625.1,714.3v-1.2h-6.6l0,0l0,0h6.6
		l0,0h-6.6l0,0l0,0h6.6l0,0l0,0l0,0v0.2V714.3l9.2,0.2c14.5,0.9,29.9,0.9,45.5,0.2l8.9-0.6V713v-0.2v-0.2l0,0l0,0l0,0h9.5l0,0l0,0
		h-9.5l0,0h9.5l0,0l0,0h-9.5v1.2l0,0l0,0l0,0h9.5l0,0l0,0h0.6V689c0,0,0-0.2,0.2-0.2l0,0l0,0l0,0l0,0l0,0v-4.6l0,0l0,0l0,0l0,0l0,0
		c0,0-0.2,0-0.2-0.2v-2.9h-1.2v0.9v0.2l0,0l0,0l0,0l-3.3,0.6l0,0c0,0-0.2,0-0.2-0.2l-2.2-13.5c0,0,0,0,0-0.2l-4.6-27H630l-7,40.5
		c0,0.2-0.2,0.2-0.2,0.2l-3.3-0.6c-0.2,0-0.2-0.2-0.2-0.2v-1h-4v13.6h1.4v-2.2c0-0.2,0.2-0.2,0.2-0.2h0.9c0.2,0,0.2,0.2,0.2,0.2
		v21.7L625.1,714.3L625.1,714.3L625.1,714.3z M646.4,658.6C646.4,658.2,646.7,658.2,646.4,658.6l24.2-0.2c0,0,0.2,0,0.2,0.2v0.6
		c0,0,0,0.2-0.2,0.2h-0.9v2.5c0,0,0,0.2-0.2,0.2c0,0-0.2,0-0.2-0.2V659c0,0,0-0.2,0.2-0.2h0.9v-0.2h-23.7v0.2h0.9c0,0,0.2,0,0.2,0.2
		v2.9c0,0,0,0.2-0.2,0.2c-0.2,0-0.2,0-0.2-0.2v-2.5h-0.9c0,0-0.2,0-0.2-0.2v-0.6H646.4z M618.6,702.6
		C618.3,702.6,618.3,702.6,618.6,702.6C618.3,702.6,618.3,702.6,618.6,702.6l6.3-0.2c0-0.2,0.2-0.2,0.2-0.2v-0.6h-6.6l0,0l0,0h6.6
		l0,0h-6.6l0,0l0,0h6.6l0,0l0,0l0,0v0.2v0.9l8.9,0.6l9.2,0.2l8.9,0.2l0,0l0,0l0,0l0,0l0,0l0,0l0,0l0,0v0.6h11.5v-0.6l0,0l0,0l0,0
		l0,0l0,0l0,0l0,0l0,0l12-0.2l12-0.6v-0.9v-0.2v-0.2l0,0l0,0l0,0h9.5l0,0l0,0h-8.4l0,0h9.5l0,0l0,0h-9.5v0.6c0.2,0,0.2,0.2,0.2,0.2
		h9.2l0,0l0,0H689l0,0h9.2l0,0l0,0H689c0,0-0.2,0-0.2,0.2l-12,0.6l-11.5,0.2v0.6c0,0.2-0.2,0.6-0.6,0.6h-12.2
		c-0.2,0-0.6-0.2-0.6-0.6v-0.6l-8.7-0.2l-9.2-0.2l-8.9-0.6c0,0-0.2,0-0.2-0.2h-6.3C618.3,703.2,618.3,702.8,618.6,702.6
		C618.3,702.8,618.3,702.8,618.6,702.6h6.3l0,0H618.6z M618.6,709.3C618.3,709.3,618.3,709.3,618.6,709.3
		C618.3,708.9,618.3,708.9,618.6,709.3l6.3-0.2c0-0.2,0.2-0.2,0.2-0.2v-0.6h-6.6l0,0l0,0h6.6l0,0h-6.6l0,0l0,0h6.6l0,0l0,0l0,0v0.2
		v0.2v0.9l8.9,0.6c14.8,0.9,30.1,0.9,45.1,0.2l8.9-0.6v-1.7V708v-0.2l0,0l0,0l0,0h9.5l0,0l0,0h-8.9l0,0h9.5l0,0l0,0h-9.5v0.6
		c0.2,0,0.2,0.2,0.2,0.2h9.2l0,0l0,0h-9.2l0,0h9.2l0,0l0,0h-9.2c0,0-0.2,0-0.2,0.2l-9.2,0.6c-7,0.2-14.1,0.6-21.2,0.6
		c-8.1,0-16.2-0.2-23.9-0.6l-8.9-0.6c0,0-0.2,0-0.2-0.2L618.6,709.3C618.3,709.6,618.3,709.3,618.6,709.3
		C618.3,709.3,618.3,709.3,618.6,709.3h6.3l0,0H618.6z"/>
	<path fill="#CCCCCC" d="M652.8,818.1L652.8,818.1L652.8,818.1L652.8,818.1L652.8,818.1h0.2l0,0h0.9c2.2,0.6,3.6,2,4.3,4v0.6H670
		v-19.8h-17.7v19.8h0.6v-4.5H652.8z"/>
	<path fill="#CCCCCC" d="M732.5,684L732.5,684L732.5,684L732.5,684L732.5,684L732.5,684C732.3,684.2,732.3,684.2,732.5,684
		c-0.2,0.2-0.2,0.2-0.2,0.2l-3.3-0.6l0,0l0,0l0,0l0,0l0,0l0,0l0,0l0,0l0,0l0,0l0,0l0,0v-0.6h-0.2v1.4c0,0,0,0.2-0.2,0.2l0,0l0,0l0,0
		H728l0,0v4.6l0,0h0.2l0,0l0,0l0,0c0,0,0.2,0,0.2,0.2v24.8h8.4l0,0h-7.7l0,0l0,0h7.7l0,0l0,0l0,0v-0.9h-8.1l0,0l0,0h8.1l0,0h-8.1
		l0,0l0,0h8.1l0,0l0,0l0,0v0.2v1.2l9.5,0.6c16.2,0.9,31.7,0.9,47.7,0l9.5-0.6v-1.4l0,0l0,0l0,0l0,0l0,0l0,0l10,0.6l0,0l0,0l0,0
		l-10-0.6l0,0l10,0.6l0,0l0,0l0,0l-10-0.6v0.9l0,0l0,0l10,0.9l0,0l0,0h0.2l1.7-22.4v-0.2h0.2h0.9h0.2v0.2l-0.2,2.5h0.9h0.9l1.2-14.1
		h-8.7l0.2,1.7v0.2c0,0,0,0-0.2,0l-3.3,0.6c-0.2,0-0.2,0-0.2-0.2l-7.7-45.9h-58.8l-5.2,31.3c0,0,0,0.2-0.2,0.2L732.5,684L732.5,684z
		 M814.7,708.3L814.7,708.3l-10.6-0.9l0,0L814.7,708.3L814.7,708.3C814.7,708.7,814.7,708.7,814.7,708.3L814.7,708.3l-10.6-0.6v0.6
		c0.2,0,0.2,0.2,0.2,0.6l10.4,0.9l0,0l0,0l0,0l-10.4-0.9l0,0l10,0.9l0,0l0,0l0,0l-10.4-0.9h-0.2l-9.5,0.6
		c-8.1,0.2-15.8,0.6-23.9,0.6c-8.2,0-15.8-0.2-23.9-0.6l-9.5-0.6c0,0-0.2,0-0.2-0.2H729l0,0l0,0h7.5l0,0H729l0,0l0,0h7.5
		c0-0.2,0.2-0.2,0.2-0.2v-0.6h-8.1l0,0l0,0h8.1l0,0h-8.1l0,0l0,0h8.1l0,0l0,0l0,0v0.2v0.2v0.9l9.5,0.6c16.2,0.9,31.7,0.9,47.7,0
		l9.5-0.6V708l0,0l0,0l0,0l0,0l0,0l0,0L814.7,708.3C814.7,708.1,814.7,708.1,814.7,708.3L814.7,708.3z M758,658.6
		C758,658.2,758,658.2,758,658.6l24.2-0.2c0,0,0.2,0,0.2,0.2v0.6c0,0,0,0.2-0.2,0.2h-0.9v2.5c0,0,0,0.2-0.2,0.2c0,0-0.2,0-0.2-0.2
		v-2.5c0,0,0-0.2,0.2-0.2h0.9v-0.2h-23.7v0.2h0.9c0,0,0.2,0,0.2,0.2v2.5c0,0,0,0.2-0.2,0.2c0,0-0.2,0-0.2-0.2v-2.5H758
		c0,0-0.2,0-0.2-0.2v-0.6H758z M737,700.8L737,700.8C737,700.6,737,700.6,737,700.8C737,700.6,737,700.6,737,700.8L737,700.8
		l0.2,0.2v0.9l8.9,0.6l8.9,0.6l8.9,0.2l0,0l0,0l0,0l0,0l0,0l0,0l0,0l0,0l0,0l0,0l0,0l0,0v0.6h11.5v-0.4l0,0l0,0l0,0l0,0l0,0l0,0l0,0
		l0,0l0,0l9.2-0.2l9.2-0.6l8.9-0.6v-0.9l0,0l0,0V701l0,0l0,0l0,0l0,0l0,0l0,0l0,0l10.9,0.9l0,0l0,0l0,0l-10.9-0.9l0,0l11.1,0.9l0,0
		l0,0l0,0l-11.1-0.9v0.6c0.2,0,0.2,0.2,0.2,0.6l10.6,0.9l0,0l0,0l0,0l-10.6-0.9l0,0l10.6,0.9l0,0l0,0l0,0l-10.9-0.9c0,0,0,0-0.2,0
		v1.2l0,0l0,0v-1.2l-8.9,0.6l-9.2,0.6l-8.7,0.2v0.6c0,0.2-0.2,0.6-0.6,0.6h-11.1l0,0l0,0l0,0l0,0l0,0l0,0l0,0l0,0l0,0l0,0l0,0l0,0
		l0,0v-0.6l-8.7-0.2l-8.9-0.6l-8.9-0.6c0,0-0.2,0-0.2-0.2h-7.7l0,0l0,0h7.5l0,0h-7.5l0,0l0,0h7.5c0-0.2,0.2-0.2,0.2-0.2v-0.6h-8.1
		l0,0l0,0L737,700.8L737,700.8l-7.7,0.2l0,0l0,0L737,700.8L737,700.8z"/>
	<path fill="#CCCCCC" d="M766,818.1L766,818.1L766,818.1L766,818.1L766,818.1L766,818.1h0.2l0,0h0.9c2.2,0.6,3.6,2,4.3,4v0.6h11.5
		v-20.3h-16.7v0.2c0,0.2-0.2,0.2-0.2,0.2h-0.2v19.8h0.6v-4.4H766z"/>
	<path fill="#CCCCCC" d="M250.6,867v-32h-3.2c0,0-0.2,0-0.2-0.2h-4.6h-0.2h-12.2v2c0,0.2-0.2,0.2-0.2,0.2h-2.2v30.1h7.7
		c0,0,0.2,0,0.2,0.2h4.6l0.2-0.2h10.3V867H250.6z"/>
	<path fill="#CCCCCC" d="M699.1,732.4v-17.2h-10.4c0,0-0.2,0-0.2-0.2l0,0l-8.9,0.6c-7,0.2-13.9,0.6-21,0.6c-8.4,0-16.4-0.2-24.5-0.6
		l-8.9-0.6v0.2c0,0,0,0.2-0.2,0.2h-7.3v17.7h81.4V732.4L699.1,732.4z"/>
	<path fill="#CCCCCC" d="M266.6,844.4c0,0.2-0.2,0.6-0.6,0.6v6.6c0.2,0,0.6,0.2,0.6,0.6v16.7c0,0.2-0.2,0.6-0.6,0.6v4.3
		c0.2,0,0.6,0.2,0.6,0.6v3.3h0.6h0.2v0.2l-0.2,2l25.9-0.2V839h-26.4v5.4H266.6z"/>
	<path fill="#3964AF" d="M778.8,881.2L778.8,881.2L778.8,881.2l1.2-3.6c2.2-9.5,2.2-19.5,0-29l-1.2-3.6l0,0l0,0v-7l0,0h-8.1l0,0v7
		l1.2,3.6c2.2,9.5,2.2,19.8,0,29.2l-1.2,3.6v7l0,0h7.7l0,0V881h0.3V881.2z"/>
	<path fill="#3964AF" d="M770.7,881.2L770.7,881.2L770.7,881.2l1.2-3.6c2.2-9.5,2.2-19.5,0-29l-1.2-3.6l0,0l0,0v-7l0,0h-7.7l0,0v7
		l1.2,3.6c2.2,10,2.2,19.8,0,29l-1.2,3.6v7l0,0h8.1l0,0v-7H770.7z"/>
	<path fill="#CCCCCC" d="M663.1,835.3c0,0.2-0.2,0.2-0.2,0.2h-9.5v2c0,0.2-0.2,0.2-0.2,0.2h-0.9v18.1c0,0.2-0.2,0.2-0.2,0.2h-38.2
		c0,0,0,0,0,0.2h-0.2h-0.2v9.2h0.2c0.2,0,0.2,0.2,0.2,0.2v0.2c0,0,0,0,0,0.2v1.4c0,0,0,0,0,0.2V888h54.6v-1.4c0-0.2,0.2-0.2,0.2-0.2
		h1.2v-51h-1.7c-0.2,0-0.2-0.2-0.2-0.2l0,0L663.1,835.3L663.1,835.3z"/>
	<path fill="#3964AF" d="M762.4,881.2L762.4,881.2L762.4,881.2l1.2-3.6c2.2-9.5,2.2-19.3,0-29l-1.2-3.6l0,0l0,0v-7l0,0h-8.1l0,0v7
		l1.2,3.6c2.2,9.5,2.2,19.8,0,29.2l-1.2,3.6v7l0,0h8.1l0,0V881.2z"/>
	<path fill="#CCCCCC" d="M806.9,864.3v0.9l0,0v0.2l0,0l0,0l0,0l0,0l0,0h-4.6v22.5l0,0v1.7h16.4v-31.7h-16.4v2.2h0.9
		C804.7,860.5,806.6,862.5,806.9,864.3z"/>
	<path fill="#CCCCCC" d="M266.4,799.5v4.5c0.2,0,0.2,0.2,0.2,0.6v1.2h46.9c0.2,0,0.2,0,0.6,0.2h4.6c0,0,0.2-0.2,0.6-0.2h1.4
		c0.2,0,0.2,0,0.6,0.2h3.6v-18H276l0,0c0,0.2-0.2,0.2-0.2,0.2h-3.3c-0.2,0-0.2-0.2-0.2-0.2l0,0h-4.3v5.2c0,0.2-0.2,0.2-0.2,0.2h-0.4
		v5.5C266.6,799.3,266.6,799.5,266.4,799.5z"/>
	<path fill="#CCCCCC" d="M266.6,836.2v0.6H296c0.2,0,0.6,0.2,0.6,0.2H325v-16.7h-4c0,0.2-0.2,0.2-0.6,0.2H319
		c-0.2,0-0.6-0.2-0.6-0.2h-4.5c0,0.2-0.2,0.2-0.6,0.2h-21.7v0.6c0,0.2-0.2,0.6-0.6,0.6h-24.5v11.5c0,0.2-0.2,0.6-0.2,0.6v1.7
		C266.6,835.8,266.6,836,266.6,836.2z"/>
	<path fill="#CCCCCC" d="M235.7,757.5v48.8h4.6c0,0,0.2,0,0.2,0.2h8.7l0.2-0.2h5.5v-47.3h-3.1c-0.2,0-0.2-0.2-0.2-0.2v-1.2h-3.1
		c0,0-0.2,0-0.2-0.2h-4.5l-0.4,0.2H235.7z"/>
	<path fill="#CCCCCC" d="M256.2,757.5v35.3l0,0c0,0,0.2,0,0.2,0.2h4.6l0.2-0.2h2.9v-8.1v-0.2v-0.2v-4.7v-0.2v-0.2v-21
		c0,0,0,0-0.2-0.2h-4.5l-0.2,0.2h-3.1v-0.7H256.2z"/>
	<path fill="#3964AF" d="M786.9,881.2L786.9,881.2L786.9,881.2l1.2-3.6c2.2-9.5,2.2-19.5,0-29l-1.2-3.6l0,0l0,0v-7l0,0h-7.7l0,0v7
		l1.2,3.6c2.2,9.7,2.2,19.8,0,29.2l-1.2,3.6v7l0,0h8.1l0,0V881h-0.3V881.2z"/>
	<path fill="#3964AF" d="M801.5,865.9h0.6c0-0.2,0.2-0.2,0.2-0.2h0.2v-4.5h-0.2c-0.2,0-0.2,0-0.2-0.2h-0.9c-0.2,0-0.2-0.2-0.2-0.2
		V836h-1.2c-0.2,0-0.2-0.2-0.2-0.2l0,0H795l0,0c0,0.2-0.2,0.2-0.2,0.2h-2.5v2c0,0.2-0.2,0.2-0.2,0.2h-4.6l0,0v7l1.2,3.6
		c2.2,9.5,2.2,19.5,0,29l-1.2,3.6v7l0,0h13.9v-22.2C800.8,865.9,801.1,865.9,801.5,865.9z"/>
	<path fill="#CCCCCC" d="M650.8,802.9L650.8,802.9c-0.6,0-0.6-0.2-0.6-0.2l0,0h-17V823h11.8v-0.6c0.6-2.2,1.7-3.3,4.3-4.3h0.9l0,0
		h0.2l0,0l0,0l0,0l0,0l0,0l0,0l0,0v4.6h0.6v-20L650.8,802.9L650.8,802.9z"/>
	<path fill="#CCCCCC" d="M422.5,800.7L422.5,800.7l0.2-0.6l0,0h8.4l0,0v0.2c0,0,0.2,0,0.2,0.2h0.9c0.2,0,0.2,0.2,0.2,0.2v2.5h21.2
		v-46.6l-0.2-0.2v-0.2c0-0.2,0.2-0.6,0.6-0.6l0,0v-4l-3.1,2.9l0,0l0,0l-0.2-0.2l0,0l0,0l3.1-2.9c-0.2,0-0.2-0.2-0.2-0.6v-0.2
		c0-0.2,0-0.2,0.2-0.2v-2.2h-0.7c-0.2,0-0.2-0.2-0.2-0.2v-2h-35.1v54.3h4.6v0.2H422.5z"/>
	<path fill="#CCCCCC" d="M455.6,748.6h-0.6v2.2l0,0h4.5c0.2,0,0.6,0.2,0.6,0.6v0.2c0,0.2-0.2,0.6-0.6,0.6H455v3.6
		c0.2,0,0.6,0.2,0.6,0.6v0.2c0,0.2,0,0.2-0.2,0.2v46.6h36.2v-2.5c0-0.2,0.2-0.2,0.2-0.2h6.3c0.2,0,0.2,0.2,0.2,0.2l0,0h7l0,0
		c0-0.2,0.2-0.2,0.2-0.2h1.7c0.2,0,0.2,0.2,0.2,0.2v4.6H528V748h-5.5c-0.2,0-0.2-0.2-0.2-0.2v-1.7h-66.7v2
		C455.8,748.6,455.8,748.6,455.6,748.6z"/>
	<path fill="#CCCCCC" d="M626.6,835.3c0,0.2-0.2,0.2-0.2,0.2h-7v0.6c0,0.2-0.2,0.2-0.2,0.2h-3.3v1.4c0,0.2-0.2,0.2-0.2,0.2H614v16.7
		h18.4v-19.3h-1.1c-0.2,0-0.2-0.2-0.2-0.2l0,0L626.6,835.3L626.6,835.3z"/>
	<path fill="#CCCCCC" d="M630.6,818.1h0.9l0,0h0.2l0,0l0,0l0,0l0,0l0,0l0,0l0,0v4.6h0.6v-20.3h-17v0.2c0,0.2-0.2,0.2-0.2,0.2h-0.9
		v18.9h5.2c0.2,0,0.2,0.2,0.2,0.2v0.6h7V822C626.6,820.2,628.4,818.6,630.6,818.1z"/>
	<path fill="#3964AF" d="M754.3,881.2L754.3,881.2L754.3,881.2l1.2-3.6c2.2-9.5,2.2-19.5,0-29l-1.2-3.6l0,0l0,0v-7l0,0h-18.1
		c-0.2,0-0.2-0.2-0.2-0.2v-1.9h-2c-0.2,0-0.2-0.2-0.2-0.2l0,0h-4.5l0,0c0,0.2,0,0.2-0.2,0.2v2c0,0.2-0.2,0.2-0.2,0.2H728v50.3h26.4
		l0,0V881.2L754.3,881.2z"/>
	<path fill="#3964AF" d="M720.6,835.3c0,0.2-0.2,0.2-0.2,0.2h-29.2v2c0,0.2-0.2,0.2-0.2,0.2H688c-0.2,0-0.2-0.2-0.2-0.2v-2h-9.5
		c-0.2,0-0.2-0.2-0.2-0.2l0,0h-4.5l0,0c0,0.2-0.2,0.2-0.2,0.2h-1.7v52.6h54.7v-50.4h-0.6c-0.2,0-0.2-0.2-0.2-0.2v-2
		c-0.2,0-0.2-0.2-0.2-0.2l0,0H720.6L720.6,835.3z"/>
	<path fill="#CCCCCC" d="M644.8,835.5h-11.1v19.3h17.2v-17.1h-0.9c-0.2,0-0.2-0.2-0.2-0.2v-2c-0.2,0-0.2-0.2-0.2-0.2l0,0H645l0,0
		C645.1,835.5,644.8,835.5,644.8,835.5z"/>
	<path fill="#CCCCCC" d="M538.6,869.5C538.6,869.5,538.6,869.2,538.6,869.5L538.6,869.5l9.2-0.2v-4.7H540c0,0-0.2,0-0.2-0.2v-0.9
		c0,0,0-0.2,0.2-0.2h7.7v-4.5h-5.8c-0.2,0-0.2-0.2-0.2-0.2v-3.9h-0.6c-2-0.2-4-2-4.3-4v-0.9l0,0v0.2l0,0l0,0l0,0l0,0l0,0l0,0h4.6
		v-0.6h-8.1v19.8h0.2c0,0,0,0,0.2,0l0,0c0,0,0.2,0,0.2,0.2v4.5h0.2c0.2,0,0.2,0,0.2,0s0,0,0.2,0l0,0l0,0l0,0l0,0c0,0,0,0,0.2,0h0.2
		l0,0l0,0l0,0l0,0l0,0l0,0l0,0l0,0l0,0l0,0l0,0l0,0l0,0l0,0l0,0l0,0l0.2-0.2l0,0l0,0l0,0l0,0l0,0l0.2-0.2l0,0l0,0l0.2-0.2l0,0l0,0
		l0.2-0.2l0,0l0,0l0,0l0,0l0,0l0,0l0,0l0,0l0,0l0,0l0,0l0,0l0,0v-0.2v-0.2l0,0l0,0l0,0v-0.2v-0.2l0,0l0,0l0,0L538.6,869.5
		L538.6,869.5z"/>
	<path fill="#CCCCCC" d="M292.3,775L292.3,775c0-0.6,0.2-0.9,0.6-0.9c0.3,0,0.6,0.2,0.6,0.2h4.5c0-0.2,0.2-0.2,0.6-0.2
		c0.3,0,0.6,0.2,0.6,0.6v0.2h5.2v-28.7h-17.7v28.7L292.3,775L292.3,775z"/>
	<path fill="#CCCCCC" d="M278.4,775L278.4,775c0-0.6,0.2-0.9,0.6-0.9c0.2,0,0.6,0.2,0.6,0.2h4.5c0-0.2,0.2-0.2,0.6-0.2h0.2v-27.8
		h-17.7V775H278.4L278.4,775z"/>
	<path fill="#CCCCCC" d="M306.5,774.1c0.2,0,0.6,0.2,0.6,0.2h4.5c0-0.2,0.2-0.2,0.6-0.2c0.3,0,0.6,0.2,0.6,0.6v0.2h12v-28.7h-18.4
		L306.5,774.1C306.2,774.1,306.2,774.1,306.5,774.1z"/>
	<path fill="#CCCCCC" d="M318.7,807.2h-4.5c0,0.2-0.2,0.2-0.6,0.2h-21.7v0.2c0,0.2-0.2,0.6-0.2,0.6v9.2c0.2,0,0.2,0.2,0.2,0.6l0,0
		v0.2h21.7c0.2,0,0.6,0.2,0.6,0.2h4.5c0-0.2,0.2-0.2,0.6-0.2h1.2v-11h-1.2C319,807.6,318.7,807.6,318.7,807.2z"/>
	<path fill="#CCCCCC" d="M565.9,745.1L565.9,745.1c-0.2,0-0.2,0-0.2,0l0,0c0,0-0.2,0-0.2-0.2v-4.5h-0.3c-0.2,0-0.2,0-0.2,0
		s0,0-0.2,0l0,0l0,0l0,0c0,0,0,0-0.2,0h-0.2l0,0l0,0l0,0l0,0l0,0l0,0l0,0l0,0l0,0l0,0l0,0l0,0l0,0l0,0l0,0l0,0l0,0l-0.2,0.2l0,0l0,0
		l0,0l0,0l0,0l-0.2,0.2l0,0l0,0l-0.2,0.2l0,0l0,0l0,0l0,0l0,0l0,0l0,0l0,0l0,0l0,0l0,0l0,0l0,0l0,0l0,0l0,0l0,0l0,0l0,0l0,0l0,0l0,0
		l0,0l0,0l0,0l0,0l0,0l0,0c0,0.2,0,0.2,0,0.2l0,0c0,0,0,0,0,0.2v0.2l0,0l0,0l0,0l0,0c0,0,0,0.2-0.2,0.2h-0.6v0.6c0,0,0,0.2-0.2,0.2
		l0,0c0,0,0,0.2-0.2,0.2h-3.2l0,0l0,0v0.2l0,0l0,0l0,0l0,0l0,0l0,0l0,0l0,0l0,0l0,0l0,0l0,0l0,0l0,0l0,0c0,0,0.2,0,0.2,0.2l0,0
		l0.2,0.2l0,0c0,0,0,0,0.2,0.2l0,0l0,0l0,0l0,0l0,0l0,0l0,0l0,0l0,0l0,0l0,0l0,0l0,0l0,0l0,0l0,0h0.2l0,0l0,0h0.2h0.2
		c0,0,0.2,0,0.2,0.2v1.4c0,0,0,0.2-0.2,0.2l0,0c0,0,0,0.2-0.2,0.2h-3.3l0,0v0.2l0,0l0,0l0,0l0,0l0,0l0,0l0,0l0,0l0,0l0,0l0,0l0,0
		l0,0l0,0l0,0l0,0c0,0,0.2,0,0.2,0.2l0,0l0.2,0.2l0,0c0,0,0.2,0,0.2,0.2l0,0l0,0l0,0l0,0l0,0l0,0l0,0l0,0l0,0l0,0l0,0l0,0l0,0l0,0
		l0,0l0,0l0,0l0,0h0.2l0,0l0,0h0.6h0.2c0,0,0.2,0,0.2,0.2v1.4c0,0,0,0.2-0.2,0.2l0,0c0,0,0,0-0.2,0H555l0,0v0.2l0,0l0,0l0,0l0,0l0,0
		l0,0l0,0l0,0l0,0l0,0l0,0l0,0l0,0l0,0l0,0l0,0l0,0l0,0l0,0l0,0l0,0l0,0l0.2,0.2l0,0c0,0,0,0,0.2,0l0,0l0,0l0,0l0,0l0,0l0,0l0,0l0,0
		l0,0l0,0l0,0l0,0l0,0l0,0l0,0l0,0h0.2l0,0l0,0h0.6l0,0l0,0l0,0c0,0,0.2,0,0.2,0.2v1.4c0,0,0,0.2-0.2,0.2l0,0c0,0,0,0-0.2,0h-3.3
		l0,0v0.2l0,0l0,0l0,0l0,0l0,0l0,0l0,0l0,0l0,0l0,0l0,0c0,0,0,0,0,0.2l0,0l0,0l0,0l0,0l0,0c0,0,0,0.2,0.2,0.2l0.2,0.2l0,0l0.2,0.2
		l0,0l0,0l0,0l0,0l0,0l0,0l0,0l0,0l0,0l0,0l0,0l0,0l0,0l0,0l0,0l0,0l0,0l0,0l0,0l0,0h0.2l0,0l0,0h0.2h0.2c0,0,0.2,0,0.2,0.2v1.4
		c0,0,0,0.2-0.2,0.2l0,0c0,0,0,0.2-0.2,0.2h-3.3l0,0l0,0v0.2l0,0l0,0l0,0l0,0l0,0l0,0l0,0l0,0l0,0l0,0l0,0c0,0,0,0,0,0.2l0,0l0,0
		l0,0c0,0,0.2,0,0.2,0.2l0,0l0.2,0.2l0,0l0.2,0.2l0,0l0,0c0,0,0,0,0.2,0c0,0,0,0,0.2,0l0,0l0,0l0,0l0,0l0,0l0,0l0,0l0,0l0,0l0,0l0,0
		l0,0l0,0l0,0h0.2l0,0l0,0h0.2h0.2l0,0c0,0,0.2,0,0.2,0.2l0,0v1.4l0,0c0,0,0,0.2-0.2,0.2l0,0l0,0c0,0,0,0.2-0.2,0.2h-3.3l0,0v0.2
		l0,0l0,0l0,0l0,0l0,0l0,0l0,0l0,0l0,0l0,0l0,0l0,0l0,0l0,0l0,0c0,0,0.2,0,0.2,0.2l0,0l0.2,0.2l0,0c0,0,0.2,0,0.2,0.2l0,0l0,0l0,0
		l0,0l0,0l0,0l0,0l0,0l0,0l0,0l0,0l0,0l0,0l0,0l0,0l0,0l0,0h0.2l0,0l0,0h0.2h0.2c0,0,0.2,0,0.2,0.2v0.9h4.5c0,0,0.2,0,0.2,0.2v0.2
		l0,0l0,0l0,0l-0.2,0.9c-0.6,2-1.7,3.1-4,3.6h-0.1v0.2v0.9c0,0,0,0.2-0.2,0.2h-7.7v11.5h4.5c0.2,0,0.2,0.2,0.2,0.2v3.1h3.6v-0.6
		c0.6-2,2.2-3.6,4.3-4h0.9l0,0h0.2l0,0l0,0l0,0l0,0l0,0l0,0v4.6h0.6v-10.6c0-0.2,0.2-0.2,0.2-0.2h0.2l-0.2-14.5l0,0
		c0,0-0.2,0-0.2-0.2v-7.3c0,0,0,0,0-0.2L565.9,745.1L565.9,745.1z"/>
	<path fill="#CCCCCC" d="M357.2,822.5v8.9h43.7v-8.9h-19h-0.2h-5.2c0,0,0,0-0.2,0H357.2z"/>
	<path fill="#CCCCCC" d="M151.3,878.2h40.5c0,0,0.2,0,0.2,0.2v2h31.6v-0.9v-1.2c0-0.2,0.2-0.6,0.2-0.6v-4.4c-0.2,0-0.2-0.2-0.2-0.6
		v-53c0-0.2,0.2-0.6,0.6-0.6h10.6v-1.4l0,0l0,0l0,0c0,0,0,0-0.2,0c0,0,0,0-0.2,0l0,0l0,0l0,0c0,0,0,0-0.2,0l0,0c0,0,0,0-0.2,0l0,0
		l0,0l0,0l0,0c0,0,0,0-0.2,0l0,0c0,0,0,0-0.2,0l0,0l0,0l0,0l0,0c0,0,0,0-0.2,0l0,0c0,0,0,0-0.2,0l0,0l0,0c0,0,0,0-0.2,0
		c-0.2,0-0.2,0-0.2,0h-0.7h-0.2l0,0c0,0,0,0-0.2,0l0,0h-0.2l-0.2-0.2l0,0l0,0c0,0,0,0,0-0.2l0,0c0,0,0,0,0-0.2l0,0l0,0l0.2-0.2h0.2
		l0,0c0,0,0,0,0.2,0l0,0c0,0,0,0,0.2,0h0.2c0,0,0,0,0.2,0l0,0l0,0l0,0l0,0c0,0,0,0,0.2,0h0.2l0,0l0,0l0,0l0,0c0,0,0,0,0.2,0h0.2l0,0
		l0,0l0,0l0,0c0,0,0,0,0.2,0h0.2l0,0c0,0,0,0,0.2,0h0.6l0,0v-8.4V757c0-0.2,0.2-0.2,0.2-0.2h8.7h0.2h4.6h0.2h3.1v-1.5
		c0-0.2,0.2-0.2,0.2-0.2h3.3c0.2,0,0.2,0.2,0.2,0.2v1.4h3.3h0.2h4.6l0,0v-10h-72.5v2c0,0,0,0.2-0.2,0.2h-40.2c0,0-0.2,0-0.2-0.2v-2
		h-32.1v45.5c0,0.2-0.2,0.2-0.2,0.2h-3.1v40.6h0.6l0,0c0.2,0,0.2,0.2,0.2,0.2v47.1h34.5L151.3,878.2
		C151,878.3,151.3,878.2,151.3,878.2z"/>
	<path fill="#CCCCCC" d="M344.9,779.2L344.9,779.2L344.9,779.2L344.9,779.2C344.9,779.4,344.9,779.4,344.9,779.2
		C344.9,779.4,344.9,779.4,344.9,779.2v0.2l0,0v0.6c-0.2,2-2,3.6-4.3,4.3h-0.6v4.3h16.4c0.2,0,0.2,0.2,0.2,0.2v1.7h20.6v-0.6
		c0-0.2,0.2-0.2,0.2-0.2h1.4v-11.1H340v0.6L344.9,779.2L344.9,779.2z"/>
	<path fill="#CCCCCC" d="M289.6,818.6c0-0.2,0-0.2,0.2-0.6v-9.5c0,0-0.2-0.2-0.2-0.6v-0.6h-23.1v0.2c0,0.2,0,0.2-0.2,0.6v9.5
		c0.2,0,0.2,0.2,0.2,0.6v0.6h23.1V818.6z"/>
	<path fill="#CCCCCC" d="M379.3,777.2v-17.7h-39.1v11.8h0.6c2,0.2,3.6,2,4.3,4v0.9l0,0v0.2l0,0l0,0l0,0l0,0l0,0l0,0h-4.6v0.6h39.1
		v0.1h-0.2V777.2z"/>
	<path fill="#CCCCCC" d="M379.3,758.3v-12h-39.1v1.7l0,0c0,0,0.2,0,0.2,0.2c0,0.2,0,0.2-0.2,0.2l0,0v2.2h4.6l0,0l0,0l0,0l0,0l0,0
		l0,0v0.2l0,0v0.6c-0.2,2-2,3.6-4.3,4.3h-0.9v2.5L379.3,758.3L379.3,758.3z"/>
	<path fill="#CCCCCC" d="M540.9,878.6h-2v-0.6h2.5v-0.2l0,0h-2.5c0,0-0.2,0-0.2,0.2v0.9c0,0,0,0.2,0.2,0.2h2.2
		C540.9,878.6,540.9,878.6,540.9,878.6L540.9,878.6z"/>
	<path fill="#CCCCCC" d="M540,863.9L540,863.9L540,863.9c0.2-0.2,0-0.2,0-0.2S540,863.6,540,863.9L540,863.9z"/>
	<g>
		<rect x="704.1" y="729.3" fill="#496CB4" width="10.4" height="12"/>
		<text transform="matrix(1 0 0 1 706.0283 739.5156)" fill="#FFFFFF" font-family="'MyriadPro-Regular'" font-size="12.4246">E</text>
	</g>
	<g>
		<rect x="365" y="794.9" fill="#496CB4" width="10.4" height="12"/>
		<text transform="matrix(1 0 0 1 366.9306 804.8105)" fill="#FFFFFF" font-family="'MyriadPro-Regular'" font-size="12.4246">E</text>
	</g>
	<g>
		<rect x="550.3" y="836.2" fill="#496CB4" width="10.4" height="12"/>
		<text transform="matrix(1 0 0 1 552.0732 846.4521)" fill="#FFFFFF" font-family="'MyriadPro-Regular'" font-size="12.4246">E</text>
	</g>
	<rect x="585.4" y="890.6" opacity="0.6" fill="#496CB4" enable-background="new    " width="7.7" height="1.4"/>
	<rect x="585.4" y="893.2" opacity="0.6" fill="#496CB4" enable-background="new    " width="7.7" height="1.4"/>
	<rect x="585.4" y="895.4" opacity="0.6" fill="#496CB4" enable-background="new    " width="7.7" height="1.4"/>
	<rect x="585.4" y="897.6" opacity="0.6" fill="#496CB4" enable-background="new    " width="7.7" height="1.4"/>
	<rect x="585.4" y="900.1" opacity="0.6" fill="#496CB4" enable-background="new    " width="7.7" height="1.4"/>
	<rect x="585.4" y="902.5" opacity="0.6" fill="#496CB4" enable-background="new    " width="7.7" height="1.4"/>
	<rect x="585.7" y="878.6" opacity="0.6" fill="#496CB4" enable-background="new    " width="7.7" height="1.4"/>
	<rect x="585.7" y="880.9" opacity="0.6" fill="#496CB4" enable-background="new    " width="7.7" height="1.4"/>
	<rect x="585.7" y="883.1" opacity="0.6" fill="#496CB4" enable-background="new    " width="7.7" height="1.4"/>
	<rect x="585.7" y="886" opacity="0.6" fill="#496CB4" enable-background="new    " width="7.7" height="1.4"/>
	<rect x="585.7" y="888.2" opacity="0.6" fill="#496CB4" enable-background="new    " width="7.7" height="1.4"/>
	<rect x="576.2" y="890.6" opacity="0.6" fill="#496CB4" enable-background="new    " width="7.7" height="1.4"/>
	<rect x="576.2" y="893.2" opacity="0.6" fill="#496CB4" enable-background="new    " width="7.7" height="1.4"/>
	<rect x="576.2" y="895.4" opacity="0.6" fill="#496CB4" enable-background="new    " width="7.7" height="1.4"/>
	<rect x="576.2" y="897.6" opacity="0.6" fill="#496CB4" enable-background="new    " width="7.7" height="1.4"/>
	<rect x="576.2" y="900.1" opacity="0.6" fill="#496CB4" enable-background="new    " width="7.7" height="1.4"/>
	<rect x="576.2" y="902.5" opacity="0.6" fill="#496CB4" enable-background="new    " width="7.7" height="1.4"/>
	<rect x="576.2" y="878.6" opacity="0.6" fill="#496CB4" enable-background="new    " width="7.7" height="1.4"/>
	<rect x="576.2" y="880.9" opacity="0.6" fill="#496CB4" enable-background="new    " width="7.7" height="1.4"/>
	<rect x="576.2" y="883.1" opacity="0.6" fill="#496CB4" enable-background="new    " width="7.7" height="1.4"/>
	<rect x="576.2" y="886" opacity="0.6" fill="#496CB4" enable-background="new    " width="7.7" height="1.4"/>
	<rect x="576.2" y="888.2" opacity="0.6" fill="#496CB4" enable-background="new    " width="7.7" height="1.4"/>
	<rect x="818.7" y="836.2" opacity="0.6" fill="#496CB4" enable-background="new    " width="1.4" height="7.7"/>
	<rect x="820.9" y="836.2" opacity="0.6" fill="#496CB4" enable-background="new    " width="1.4" height="7.7"/>
	<rect x="823.1" y="836.2" opacity="0.6" fill="#496CB4" enable-background="new    " width="1.4" height="7.7"/>
	<rect x="825.6" y="836.2" opacity="0.6" fill="#496CB4" enable-background="new    " width="1.4" height="7.7"/>
	<rect x="827.8" y="836.2" opacity="0.6" fill="#496CB4" enable-background="new    " width="1.4" height="7.7"/>
	<rect x="830" y="836.2" opacity="0.6" fill="#496CB4" enable-background="new    " width="1.4" height="7.7"/>
	<rect x="832.6" y="836.2" opacity="0.6" fill="#496CB4" enable-background="new    " width="1.4" height="7.7"/>
	<rect x="806.4" y="836" opacity="0.6" fill="#496CB4" enable-background="new    " width="1.4" height="7.7"/>
	<rect x="809" y="836" opacity="0.6" fill="#496CB4" enable-background="new    " width="1.4" height="7.7"/>
	<rect x="811.2" y="836" opacity="0.6" fill="#496CB4" enable-background="new    " width="1.4" height="7.7"/>
	<rect x="813.6" y="836" opacity="0.6" fill="#496CB4" enable-background="new    " width="1.4" height="7.7"/>
	<rect x="815.8" y="836" opacity="0.6" fill="#496CB4" enable-background="new    " width="1.4" height="7.7"/>
	<rect x="818.7" y="845.5" opacity="0.6" fill="#496CB4" enable-background="new    " width="1.4" height="7.7"/>
	<rect x="820.9" y="845.5" opacity="0.6" fill="#496CB4" enable-background="new    " width="1.4" height="7.7"/>
	<rect x="823.1" y="845.5" opacity="0.6" fill="#496CB4" enable-background="new    " width="1.4" height="7.7"/>
	<rect x="825.6" y="845.5" opacity="0.6" fill="#496CB4" enable-background="new    " width="1.4" height="7.7"/>
	<rect x="827.8" y="845.5" opacity="0.6" fill="#496CB4" enable-background="new    " width="1.4" height="7.7"/>
	<rect x="830" y="845.5" opacity="0.6" fill="#496CB4" enable-background="new    " width="1.4" height="7.7"/>
	<rect x="832.6" y="845.5" opacity="0.6" fill="#496CB4" enable-background="new    " width="1.4" height="7.7"/>
	<rect x="806.4" y="845.5" opacity="0.6" fill="#496CB4" enable-background="new    " width="1.4" height="7.7"/>
	<rect x="809" y="845.5" opacity="0.6" fill="#496CB4" enable-background="new    " width="1.4" height="7.7"/>
	<rect x="811.2" y="845.5" opacity="0.6" fill="#496CB4" enable-background="new    " width="1.4" height="7.7"/>
	<rect x="813.6" y="845.5" opacity="0.6" fill="#496CB4" enable-background="new    " width="1.4" height="7.7"/>
	<rect x="815.8" y="845.5" opacity="0.6" fill="#496CB4" enable-background="new    " width="1.4" height="7.7"/>
	<rect x="588.2" y="703.7" opacity="0.6" fill="#496CB4" enable-background="new    " width="7.7" height="1.4"/>
	<rect x="588.2" y="706.4" opacity="0.6" fill="#496CB4" enable-background="new    " width="7.7" height="1.4"/>
	<rect x="588.2" y="708.3" opacity="0.6" fill="#496CB4" enable-background="new    " width="7.7" height="1.4"/>
	<rect x="588.2" y="710.7" opacity="0.6" fill="#496CB4" enable-background="new    " width="7.7" height="1.4"/>
	<rect x="588.2" y="713.2" opacity="0.6" fill="#496CB4" enable-background="new    " width="7.7" height="1.4"/>
	<rect x="588.2" y="715.5" opacity="0.6" fill="#496CB4" enable-background="new    " width="7.7" height="1.4"/>
	<rect x="588.2" y="717.6" opacity="0.6" fill="#496CB4" enable-background="new    " width="7.7" height="1.4"/>
	<rect x="588.4" y="691.7" opacity="0.6" fill="#496CB4" enable-background="new    " width="7.7" height="1.4"/>
	<rect x="588.4" y="694" opacity="0.6" fill="#496CB4" enable-background="new    " width="7.7" height="1.4"/>
	<rect x="588.4" y="696.2" opacity="0.6" fill="#496CB4" enable-background="new    " width="7.7" height="1.4"/>
	<rect x="588.4" y="699" opacity="0.6" fill="#496CB4" enable-background="new    " width="7.7" height="1.4"/>
	<rect x="588.4" y="701.2" opacity="0.6" fill="#496CB4" enable-background="new    " width="7.7" height="1.4"/>
	<rect x="579" y="703.7" opacity="0.6" fill="#496CB4" enable-background="new    " width="7.7" height="1.4"/>
	<rect x="579" y="706.4" opacity="0.6" fill="#496CB4" enable-background="new    " width="7.7" height="1.4"/>
	<rect x="579" y="708.3" opacity="0.6" fill="#496CB4" enable-background="new    " width="7.7" height="1.4"/>
	<rect x="579" y="710.7" opacity="0.6" fill="#496CB4" enable-background="new    " width="7.7" height="1.4"/>
	<rect x="579" y="713.2" opacity="0.6" fill="#496CB4" enable-background="new    " width="7.7" height="1.4"/>
	<rect x="579" y="715.5" opacity="0.6" fill="#496CB4" enable-background="new    " width="7.7" height="1.4"/>
	<rect x="579" y="717.6" opacity="0.6" fill="#496CB4" enable-background="new    " width="7.7" height="1.4"/>
	<rect x="579" y="691.7" opacity="0.6" fill="#496CB4" enable-background="new    " width="7.7" height="1.4"/>
	<rect x="579" y="694" opacity="0.6" fill="#496CB4" enable-background="new    " width="7.7" height="1.4"/>
	<rect x="579" y="696.2" opacity="0.6" fill="#496CB4" enable-background="new    " width="7.7" height="1.4"/>
	<rect x="579" y="699" opacity="0.6" fill="#496CB4" enable-background="new    " width="7.7" height="1.4"/>
	<rect x="579" y="701.2" opacity="0.6" fill="#496CB4" enable-background="new    " width="7.7" height="1.4"/>
	<rect x="105.8" y="758.6" opacity="0.6" fill="#496CB4" enable-background="new    " width="7.7" height="1.4"/>
	<rect x="105.8" y="761.1" opacity="0.6" fill="#496CB4" enable-background="new    " width="7.7" height="1.4"/>
	<rect x="105.8" y="763.3" opacity="0.6" fill="#496CB4" enable-background="new    " width="7.7" height="1.4"/>
	<rect x="105.8" y="765.6" opacity="0.6" fill="#496CB4" enable-background="new    " width="7.7" height="1.4"/>
	<rect x="105.8" y="768" opacity="0.6" fill="#496CB4" enable-background="new    " width="7.7" height="1.4"/>
	<rect x="105.8" y="770.3" opacity="0.6" fill="#496CB4" enable-background="new    " width="7.7" height="1.4"/>
	<rect x="105.8" y="772.5" opacity="0.6" fill="#496CB4" enable-background="new    " width="7.7" height="1.4"/>
	<rect x="105.8" y="746.5" opacity="0.6" fill="#496CB4" enable-background="new    " width="7.7" height="1.4"/>
	<rect x="105.8" y="748.8" opacity="0.6" fill="#496CB4" enable-background="new    " width="7.7" height="1.4"/>
	<rect x="105.8" y="751.4" opacity="0.6" fill="#496CB4" enable-background="new    " width="7.7" height="1.4"/>
	<rect x="105.8" y="753.8" opacity="0.6" fill="#496CB4" enable-background="new    " width="7.7" height="1.4"/>
	<rect x="105.8" y="756.1" opacity="0.6" fill="#496CB4" enable-background="new    " width="7.7" height="1.4"/>
	<rect x="96.4" y="758.6" opacity="0.6" fill="#496CB4" enable-background="new    " width="7.7" height="1.4"/>
	<rect x="96.4" y="761.1" opacity="0.6" fill="#496CB4" enable-background="new    " width="7.7" height="1.4"/>
	<rect x="96.4" y="763.3" opacity="0.6" fill="#496CB4" enable-background="new    " width="7.7" height="1.4"/>
	<rect x="96.4" y="765.6" opacity="0.6" fill="#496CB4" enable-background="new    " width="7.7" height="1.4"/>
	<rect x="96.4" y="768" opacity="0.6" fill="#496CB4" enable-background="new    " width="7.7" height="1.4"/>
	<rect x="96.4" y="770.3" opacity="0.6" fill="#496CB4" enable-background="new    " width="7.7" height="1.4"/>
	<rect x="96.4" y="772.5" opacity="0.6" fill="#496CB4" enable-background="new    " width="7.7" height="1.4"/>
	<rect x="96.6" y="746.5" opacity="0.6" fill="#496CB4" enable-background="new    " width="7.7" height="1.4"/>
	<rect x="96.6" y="748.8" opacity="0.6" fill="#496CB4" enable-background="new    " width="7.7" height="1.4"/>
	<rect x="96.6" y="751.4" opacity="0.6" fill="#496CB4" enable-background="new    " width="7.7" height="1.4"/>
	<rect x="96.6" y="753.8" opacity="0.6" fill="#496CB4" enable-background="new    " width="7.7" height="1.4"/>
	<rect x="96.6" y="756.1" opacity="0.6" fill="#496CB4" enable-background="new    " width="7.7" height="1.4"/>
	<g>
		<g>
			<path fill="#4A6DB4" d="M557,765.8c-0.6,0-1.2-0.6-1.2-1.2c0-0.6,0.6-1.2,1.2-1.2c0.7,0,1.2,0.6,1.2,1.2
				C558.1,765.3,557.6,765.8,557,765.8z"/>
			<path fill="#4A6DB4" d="M557.6,766.4c1.2,0,1.4,0.9,1.7,1.4l0.9,3.1c0,0.2,0,0.6-0.2,0.6c-0.2,0-0.6,0-0.6-0.2l-0.9-2.9
				c0-0.2-0.2-0.2-0.2-0.2c-0.2,0-0.2,0.2,0,0.2l1.7,5h-2c0,2,0,4,0,4c0,0.6-0.2,0.6-0.6,0.6c0,0-0.6,0-0.6-0.6s0-3.6,0-3.6
				c0-0.2,0-0.2-0.2-0.2s-0.2,0-0.2,0.2c0,0,0,3.1,0,3.6s-0.2,0.6-0.6,0.6c0,0-0.6,0-0.6-0.6c0,0,0-1.7,0-4h-1.7l1.4-5
				c0-0.2,0-0.2,0-0.2c-0.2,0-0.2,0-0.2,0.2l-0.9,2.9c0,0.2-0.2,0.2-0.6,0.2c-0.2,0-0.2-0.2-0.2-0.6l0.9-3.1
				c0.2-0.6,0.6-1.4,1.7-1.4H557.6z"/>
		</g>
	</g>
	<g>
		<g>
			<path fill="#4A6DB4" d="M540,765.8c-0.6,0-1.2-0.6-1.2-1.2c0-0.7,0.6-1.2,1.2-1.2s1.2,0.6,1.2,1.2
				C541.3,765.3,540.7,765.8,540,765.8z"/>
		</g>
		<path fill="#4A6DB4" d="M537.8,768.9v2.5c0,0.6-0.2,0.6-0.6,0.6c-0.3,0-0.6,0-0.6-0.6v-3.3c0-1.4,0.9-2,2-2h2c1.2,0,2,0.2,2,2v3.3
			c0,0.6-0.2,0.6-0.6,0.6c-0.2,0-0.6,0-0.6-0.6v-2.5c0-0.2-0.2-0.2-0.2-0.2s-0.2,0-0.2,0.2c0,0.2,0,8.9,0,8.9c0,0.6-0.6,0.6-0.6,0.6
			s-0.6,0-0.6-0.6s0-5,0-5s0-0.2-0.2-0.2c0,0-0.2,0-0.2,0.2c0,0,0,4.6,0,5c0,0.6-0.6,0.6-0.9,0.6c-0.4,0-0.6,0-0.6-0.6
			C537.8,777.9,537.8,769.5,537.8,768.9c0-0.2-0.2-0.2-0.2-0.2C538.1,768.7,537.8,768.7,537.8,768.9z"/>
	</g>
	<polyline fill="none" stroke="#989798" stroke-width="10" stroke-miterlimit="10" points="571.5,898.4 571.5,908.2 596.1,908.2 
		596.1,899.3 609.1,899.3 	"/>
	<g>
		
			<text transform="matrix(1 0 0 1 692.3623 866.8047)" fill="#FFFFFF" font-family="'TradeGothic-BoldCondTwenty'" font-size="9.8581">0011</text>
	</g>
	<g>
		
			<text transform="matrix(1 0 0 1 760.0527 866.2588)" fill="#FFFFFF" font-family="'TradeGothic-BoldCondTwenty'" font-size="9.8581">0003</text>
	</g>
</g>
<g>
	<g>
		<path fill="#4A6DB4" d="M560.3,869c-0.6,0-1.2-0.6-1.2-1.2s0.6-1.2,1.2-1.2s1.2,0.6,1.2,1.2C561.3,868.5,560.8,869,560.3,869z"/>
		<path fill="#4A6DB4" d="M560.8,869.2c1.2,0,1.4,0.9,1.7,1.4l0.9,3.1c0,0.2,0,0.6-0.2,0.6c-0.2,0-0.6,0-0.6-0.2l-0.9-2.9
			c0-0.2-0.2-0.2-0.2-0.2c-0.2,0-0.2,0.2,0,0.2l1.7,5h-1.7c0,2,0,4,0,4c0,0.6-0.2,0.6-0.6,0.6c0,0-0.6,0-0.6-0.6s0-3.6,0-3.6
			c0-0.2,0-0.2-0.2-0.2s-0.2,0-0.2,0.2c0,0,0,3.1,0,3.6s-0.2,0.6-0.6,0.6c0,0-0.6,0-0.6-0.6c0,0,0-1.7,0-4h-1.4l1.4-5
			c0-0.2,0-0.2,0-0.2c-0.2,0-0.2,0-0.2,0.2l-0.9,2.9c0,0.2-0.2,0.2-0.6,0.2c-0.2,0-0.2-0.2-0.2-0.6l0.9-3.1c0.2-0.6,0.6-1.4,1.7-1.4
			H560.8z"/>
	</g>
</g>
<g>
	<g>
		<path fill="#4A6DB4" d="M538.3,869.5c-0.6,0-1.2-0.6-1.2-1.2c0-0.6,0.6-1.2,1.2-1.2s1.2,0.6,1.2,1.2
			C539.5,869,538.9,869.5,538.3,869.5z"/>
	</g>
	<path fill="#4A6DB4" d="M536.1,872.2v2.5c0,0.6-0.2,0.6-0.6,0.6c-0.2,0-0.6,0-0.6-0.6v-3.1c0-1.4,0.9-1.7,2-1.7h2
		c1.2,0,2,0.2,2,1.7v3.1c0,0.6-0.2,0.6-0.6,0.6c-0.3,0-0.6,0-0.6-0.6v-2.5c0-0.2-0.2-0.2-0.2-0.2s-0.2,0-0.2,0.2c0,0.2,0,8.1,0,8.1
		c0,0.6-0.6,0.6-0.6,0.6s-0.6,0-0.6-0.6c0-0.6,0-4.6,0-4.6s0-0.2-0.2-0.2c0,0-0.2,0-0.2,0.2c0,0,0,4.3,0,4.6c0,0.6-0.6,0.6-0.6,0.6
		s-0.6,0-0.6-0.6c0,0,0-7.7,0-8.1c0-0.3-0.2-0.2-0.2-0.2C536.4,872,536.1,872,536.1,872.2z"/>
</g>
<g opacity="0.5">
	<g>
		
			<text transform="matrix(1 0 0 1 52.4463 628.3809)" fill="#999999" font-family="'TradeGothic-BoldCondTwenty'" font-size="13.6919">Level </text>
	</g>
	<circle fill="#999999" cx="107.2" cy="626.1" r="23.1"/>
	
		<text transform="matrix(1 0 0 1 95.7685 642.3574)" fill="#FFFFFF" font-family="'TradeGothic-BoldCondTwenty'" font-size="43.8143">0</text>
</g>
<rect x="112.9" y="1263.5" fill="#CCCCCC" width="22.4" height="4.5"/>
<path fill="#CCCCCC" d="M311.8,1315.3L311.8,1315.3c0-0.2,0-0.6,0.2-0.6l0,0l-3.1-2.9l0,0l0.2-0.2l0,0l0,0l3.1,2.9v-4
	c-0.2,0-0.2-0.2-0.2-0.6v-0.2c0-0.2,0-0.2,0.2-0.2v-37.6h-0.6c-0.2,0-0.2,0-0.2-0.2v-7.7H307v0.6l0,0h-8.4l0,0v-0.6l0,0v5
	c0,0.2,0,0.2-0.2,0.2h-21.7v2.5c0,0,0,0.2-0.2,0.2s-0.2,0-0.2-0.2v-2.5h-2v2.5c0,0,0,0.2-0.2,0.2s-0.2,0-0.2-0.2v-2.5H252
	c-0.2,0-0.2,0-0.2-0.2v-5l0,0v0.6l0,0h-8.4l0,0v-0.6h-4.5v7.7c0,0.2,0,0.2-0.2,0.2h-0.6v37.6l0.2,0.2v0.2c0,0.2-0.2,0.2-0.2,0.6v4
	h4.6c0.2,0,0.6,0.2,0.6,0.6v0.2c0,0.2-0.2,0.6-0.6,0.6h-4.5l0,0v4.5h74.2L311.8,1315.3C311.8,1315.6,311.8,1315.3,311.8,1315.3z"/>
<path fill="#CCCCCC" d="M221.4,1258.6h-21.5v5c0,0,0,0.2-0.2,0.2h-12.2c0,0-0.2,0-0.2-0.2v-5h-10v9.5h44.3V1258.6L221.4,1258.6z"/>
<rect x="252.8" y="1258.6" fill="#CCCCCC" width="44" height="9.5"/>
<rect x="136.1" y="1258.6" fill="#CCCCCC" width="10" height="9.5"/>
<rect x="98.6" y="1258.6" fill="#CCCCCC" width="13.5" height="9.5"/>
<path fill="#CCCCCC" d="M387.1,1315.3L387.1,1315.3c0-0.2,0-0.6,0.2-0.6l-3.1-2.9l0,0l0.2-0.2l0,0l0,0l3.1,2.9v-4
	c-0.2,0-0.2-0.2-0.2-0.6v-0.2c0-0.2,0-0.2,0.2-0.2v-37.6H387c-0.2,0-0.2,0-0.2-0.2v-7.7h-4.5v0.6l0,0h-8.4l0,0v-0.6l0,0v7
	c0,0.2,0,0.2-0.2,0.2h-22.2v0.9c0,0.2,0,0.2-0.2,0.2H349c-0.2,0-0.2,0-0.2-0.2v-0.9h-21.5c-0.2,0-0.2,0-0.2-0.2v-7l0,0v0.6l0,0h-8.5
	l0,0v-0.6H314v7.7c0,0.2,0,0.2-0.2,0.2h-0.6v37.6l0.2,0.2v0.2c0,0.2-0.2,0.2-0.2,0.6v4h4.6c0.2,0,0.6,0.2,0.6,0.6v0.2
	c0,0.2-0.2,0.6-0.6,0.6h-4.5l0,0v4.5h74.2L387.1,1315.3C387.4,1315.6,387.1,1315.3,387.1,1315.3z"/>
<polygon fill="#3964AF" points="710.9,1092.2 772.3,1092.2 774.6,1092.2 773.5,1085 770.7,1069 712.1,1069 708,1092.2 "/>
<rect x="252.8" y="1233.4" fill="#CCCCCC" width="44.3" height="8.9"/>
<rect x="478.9" y="1233.4" fill="#CCCCCC" width="10" height="9.5"/>
<path fill="#CCCCCC" d="M462.7,1310.2V1272h-0.6c-0.2,0-0.2,0-0.2-0.2v-7.7h-4.5v0.6l0,0H449l0,0v-0.6l0,0v5v0.2c0,0,0,0-0.2,0H427
	v2.5c0,0.2,0,0.2-0.2,0.2h-2.2c-0.2,0-0.2,0-0.2-0.2v-2.5h-21.6c-0.2,0-0.2,0-0.2-0.2v-5l0,0v0.6l0,0h-8.1l0,0v-0.6h-4.6v7.7
	c0,0.2,0,0.2-0.2,0.2h-0.6v37.6l0.2,0.2v0.2c0,0.2-0.2,0.2-0.2,0.6v4h4.6c0.2,0,0.6,0.2,0.6,0.6v0.2c0,0.2-0.2,0.6-0.6,0.6h-4.5l0,0
	v4.5h74.2v-4.6h-4.6c0,0-0.2,0-0.2-0.2v-0.2c0,0,0-0.2,0.2-0.2h5l0,0L462.7,1310.2L462.7,1310.2L462.7,1310.2z"/>
<path fill="#3964AF" d="M783.6,1179.7C783.6,1179.7,783.6,1180,783.6,1179.7h-8.2c0,0.2-0.2,0.2-0.2,0.2l-9.5,0.6
	c-7.7,0.2-15.8,0.6-23.9,0.6c-8.2,0-15.8-0.2-23.9-0.6l-9.5-0.6c-0.2,0-0.2-0.2-0.2-0.2h-8.2l0,0l0,0h-0.2v3.3h0.2l0,0l0,0h8.1l0,0
	v0.2v1.2l8.9,0.6c15.6,0.9,30.7,0.9,45.1,0.2l8.9-0.6c0.2,0,0.6,0.2,0.6,0.2h0.2v-2.2c0,0,0-0.2,0.2-0.2h2.2c0,0,0.2,0,0.2,0.2v2.2
	l0,0l0,0v-1.7l0,0l0,0h7h1.7l0,0l0,0h2.5l0.2-3.6h-2.2C783.6,1180,783.6,1179.7,783.6,1179.7z"/>
<path fill="#CCCCCC" d="M696.5,1109.8h3.3l1.4-7.5H701l0,0v-0.9h-10.4v0.9l0,0h-0.2l0,0v-0.9h-10v0.9l0,0h-0.2l0,0v-0.9h-10.6v0.9
	l0,0h-0.2l1.4,7.5h3.6H696.5L696.5,1109.8z"/>
<path fill="#CCCCCC" d="M70,1226.5v18.9h8.4c0-0.2,0.2-0.2,0.6-0.2l0,0h0.9l0,0l0,0h5.7v-6.1v-1.4c0,0,0,0,0-0.2v-10.9h-8.7H70
	L70,1226.5z M83,1227.6C83,1227.6,82.6,1227.6,83,1227.6l-11.8,0.2v16.2h13.6v-5.8l0,0l0,0l0,0c0,0-0.2,0-0.2-0.2v-8.1
	c0,0,0-0.2,0.2-0.2c0,0,0.2,0,0.2,0.2v8.1l0,0c0,0,0.2,0,0.2,0.2v6.3c0,0,0,0.2-0.2,0.2H71.1l0,0c0,0-0.2,0-0.2-0.2l0,0v-16.7
	c0,0,0-0.2,0.2-0.2L83,1227.6C82.6,1227.3,83,1227.3,83,1227.6z"/>
<polygon fill="#3964AF" points="661.4,1091.9 658.4,1073.5 601.4,1073.5 597.9,1091.9 "/>
<path fill="#3964AF" d="M773.5,1094.4v1.4c0,0.2,0,0.2-0.2,0.2h-63.7c-0.2,0-0.2,0-0.2-0.2v-1.4h-2l-4,22.4v0.2h-0.2l-3.2-0.7
	c-0.2,0-0.2-0.2-0.2-0.2v-0.2h-0.2v18.4h0.2l0,0l0,0h8.1l0,0v0.2v1.2l8.9,0.6l9.2,0.2l8.9,0.2l0,0l0,0l0,0l0,0l0,0l0,0l0,0l0,0l0,0
	v0.6h11.8v-0.9c0-0.2,0.2-0.6,0.6-0.6l8.9-0.2l9.2-0.2l8.9-0.6v-1.4l0,0l0,0l0,0l0,0l0,0l0,0l0,0l0,0l11.1,0.9l0,0l0,0l0,0l0,0l0,0
	l-11.1-0.9v1.2c0,0,0.2,0,0.2,0.2l10.9,0.9l0,0l0,0l0,0l0,0l0,0l-10.6-0.9c0,0.2-0.2,0.2-0.2,0.2l-8.9,0.6l-9.2,0.2l-8.7,0.2v0.9
	c0,0.2-0.2,0.6-0.6,0.6h-12.8c-0.2,0-0.6-0.2-0.6-0.6v0.2l-8.7-0.2l-9.2-0.2l-8.9-0.6c-0.2,0-0.2-0.2-0.2-0.2h-6.6l0,0l0,0l0,0l0,0
	l0,0l0,0H700v5h0.2l0,0l0,0l0,0l0,0H700v1.4h0.2l0,0l0,0h7.7l0.2-0.2v-1.2h-8.1l0,0l0,0l0,0l0,0h8.1l0,0v0.2v1.2l9.5,0.6
	c16.2,0.9,31.7,0.9,47.7,0l9.5-0.6v-1.4l0,0l0,0l0,0l0,0l0,0l0,0l0,0l7,0.6l0,0l3.6,0.2l0,0l0,0l0,0l0,0l0,0l-10.6-0.9v1.2
	c0,0,0.2,0,0.2,0.2l10.4,0.9l0,0l0,0l0,0l0,0l0,0l-10.4-0.9c0,0.2-0.2,0.2-0.2,0.2l-9.5,0.6c-8.1,0.6-15.8,0.6-23.9,0.6
	c-8.1,0-15.8-0.2-23.9-0.6l-9.5-0.6c-0.2,0-0.2-0.2-0.2-0.2h-7.6l0,0l0,0h-0.4v3.3h0.2l0,0l0,0h8.1l0,0v0.2v1.2l9.5,0.6
	c15.8,0.9,31.7,0.9,47.7,0l9.5-0.6v-1.4l0,0l0,0l0,0l0,0l0,0l7,0.6l0,0l3.3,0.2l0,0l0,0l0,0l0,0l0,0l-10-0.9v1.2c0,0,0.2,0,0.2,0.2
	l10,0.9l0,0l0,0l0,0l0,0l0,0l-9.7-0.6c0,0.2-0.2,0.2-0.2,0.2l-9.5,0.6c-7.7,0.6-15.8,0.6-23.9,0.6c-8.1,0-15.8-0.2-23.9-0.6
	l-9.5-0.6c-0.2,0-0.2-0.2-0.2-0.2h-8.2l0,0l0,0h-0.2v3.3h0.2l0,0l0,0h8.1l0,0v0.2v1.2l9.5,0.6c15.8,0.9,31.7,0.9,47.7,0l9.5-0.6
	v-1.4l0,0l0,0l0,0l0,0l0,0l0,0l0,0l0,0l0,0l0,0l0,0l7,0.6l0,0l3.1,0.2l0,0l0,0l0,0l0,0l0,0l-9.7-0.9v1.2c0,0,0.2,0,0.2,0.2l9.5,0.9
	l0,0l0,0l0,0l0,0l0,0l-9.5-0.6c0,0.2-0.2,0.2-0.2,0.2l-9.5,0.6c-7.7,0.6-15.8,0.6-23.9,0.6c-8.1,0-15.8-0.2-23.9-0.6l-9.5-0.6
	c-0.2,0-0.2-0.2-0.2-0.2h-7.9l0,0l0,0l0,0l0,0l0,0l0,0h-0.2v3.3h0.2l0,0l0,0h8.1l0,0v0.2v1.2l9.5,0.6c15.8,0.9,31.7,0.9,47.7,0
	l9.5-0.6v-1.4l0,0l0,0l6.6,0.6l0,0l2.9,0.2l0,0l0,0l0,0l0,0l0,0l-9.5-0.6v1.2c0,0,0.2,0,0.2,0.2l9.2,0.9l0,0l0,0l0,0l0,0l0,0
	l-9.2-0.6c0,0.2-0.2,0.2-0.2,0.2l-9.5,0.6c-7.7,0.6-15.8,0.6-23.9,0.6c-8.1,0-15.8-0.2-23.9-0.6l-9.5-0.6c-0.2,0-0.2-0.2-0.2-0.2
	h-7.6l0,0l0,0h-0.2v3.3h0.2l0,0l0,0h8.1l0,0v0.2v1.2l9.5,0.6c15.8,0.9,31.7,0.9,47.7,0l9.5-0.6v-1.4l0,0l0,0l0,0l0,0l0,0l0,0l0,0
	l0,0l0,0l0,0l0,0l9.2,0.6l0,0l0,0l0,0l0,0l0,0l-8.9-0.6v1.2c0,0,0.2,0,0.2,0.2l8.9,0.6l0,0l0,0l0,0l0,0l0,0l-8.4-0.4
	c0,0.2-0.2,0.2-0.2,0.2l-9.5,0.6c-7.7,0.6-15.8,0.6-23.9,0.6c-8.1,0-15.8-0.2-23.9-0.6l-9.5-0.6c-0.2,0-0.2-0.2-0.2-0.2h-8.2l0,0
	l0,0h-0.4v3.3h0.2l0,0l0,0h8.1l0,0v0.2v1.2l9.5,0.6c15.8,0.9,31.7,0.9,47.7,0l9.5-0.6v-1.4l0,0l0,0l0,0l0,0l0,0l7,0.6l0,0h2l0,0l0,0
	l0,0l0,0l0,0l-8.7-0.6v1.2c0,0,0.2,0,0.2,0.2l8.4,0.6l0,0l0,0l0,0l0,0l0,0l-8.4-0.6c0,0.2-0.2,0.2-0.2,0.2l-9.5,0.6
	c-7.7,0.2-15.8,0.6-23.9,0.6c-8.2,0-15.8-0.2-23.9-0.6l-9.3-0.4c-0.2,0-0.2-0.2-0.2-0.2H700l0,0l0,0h-0.3v3.3h0.2l0,0l0,0l0,0l0,0
	l0,0l0,0h8.1l0,0l0,0l0,0v0.2v1.2l9.5,0.6c15.8,0.9,31.7,0.9,47.7,0l9.5-0.6v-1.4l0,0l0,0l0,0l0,0l0,0l0,0l0,0l0,0l0,0l0,0l0,0l0,0
	l0,0l0,0l0,0l0,0l0,0l0,0l0,0l0,0l0,0l0,0l0,0l0,0l0,0l0,0l0,0l8.4,0.6l0,0l0,0l0,0l0,0l0,0l-8.4-0.6v1.2c0,0,0.2,0,0.2,0.2l8.1,0.6
	l0,0l0,0l0,0l0,0l0,0l-8.1-0.6c0,0.2-0.2,0.2-0.2,0.2l-9.5,0.6c-7.7,0.2-15.8,0.6-23.9,0.6c-8.1,0-15.8-0.2-23.9-0.6l-9.5-0.6
	c-0.2,0-0.2-0.2-0.2-0.2h-7.7l0,0l0,0h-0.2v3.3h0.2l0,0l0,0h8.1l0,0v0.2v1.2l9.5,0.6c15.8,0.9,31.7,0.9,47.7,0l9.5-0.6v2.5v-0.2l0,0
	h5.8h2.5l0,0l0,0h3.1l0.2-2.5l-3.3-0.2l0,0l0,0l0,0l0,0l3.3,0.2l0.2-3.1l-2-0.2l-0.2,2.5c0,0,0,0.2-0.2,0.2l0,0h-0.6
	c0,0-0.2,0-0.2-0.2l3.3-48c0,0,0-0.2,0.2-0.2h0.9l0,0l0,0l-0.2,2.5h2l1.2-14.8h-8.9l0.2,1.7v0.2l0,0v0.6v0.2c0,0,0,0-0.2,0l0,0h-3.3
	l0,0l0,0l0,0l0,0l0,0l0,0l0,0l0,0l0,0l0,0l-4-22.4h-1.2v-1.2h0.4v-0.4h-0.1V1094.4z M725,1108.9C725,1108.9,724.7,1109.1,725,1108.9
	l-0.9,0.2c0,0-0.2,0-0.2-0.2v-0.6c0,0,0-0.2,0.2-0.2h0.6c0,0,0.2,0,0.2,0.2L725,1108.9L725,1108.9z M741.9,1108.9
	C741.9,1108.9,741.9,1109.1,741.9,1108.9l-0.9,0.2c0,0-0.2,0-0.2-0.2v-0.6c0,0,0-0.2,0.2-0.2h0.6c0,0,0.2,0,0.2,0.2L741.9,1108.9
	L741.9,1108.9z M759,1108.9C759,1108.9,759,1109.1,759,1108.9l-0.9,0.2c0,0-0.2,0-0.2-0.2v-0.6c0,0,0-0.2,0.2-0.2h0.6
	c0,0,0.2,0,0.2,0.2L759,1108.9L759,1108.9z M784.1,1173.6L784.1,1173.6C784.1,1173.6,783.9,1173.6,784.1,1173.6L784.1,1173.6
	L784.1,1173.6c-0.2,0-0.2,0-0.2,0C783.6,1173.3,783.6,1173.3,784.1,1173.6c-0.2,0-0.2-0.2-0.2-0.2S783.9,1172.9,784.1,1173.6
	L784.1,1173.6C784.1,1173.3,784.1,1173.3,784.1,1173.6L784.1,1173.6z M784.4,1169.8L784.4,1169.8h-0.2l0,0l0,0l0,0
	C783.9,1169.6,784.1,1169.6,784.4,1169.8L784.4,1169.8C784.4,1169.6,784.4,1169.6,784.4,1169.8
	C784.4,1169.6,784.4,1169.6,784.4,1169.8C784.4,1169.6,784.4,1169.6,784.4,1169.8z M784.4,1168.2L784.4,1168.2L784.4,1168.2
	c-0.2,0-0.2,0-0.2,0l0,0l0,0C784.1,1167.9,784.1,1167.9,784.4,1168.2L784.4,1168.2C784.4,1167.9,784.4,1167.9,784.4,1168.2
	L784.4,1168.2L784.4,1168.2z M784.8,1164.4C784.8,1164.7,784.8,1164.7,784.8,1164.4h-0.2l0,0l0,0l0,0l0,0H784.8L784.8,1164.4
	L784.8,1164.4L784.8,1164.4z M785,1163C785,1163,784.8,1163,785,1163h-0.2l0,0l0,0l0,0C784.4,1162.6,784.4,1162.6,785,1163L785,1163
	C784.8,1162.6,785,1162.6,785,1163C785,1162.6,785,1162.6,785,1163C784.8,1163,785,1163,785,1163z M785,1158.9L785,1158.9
	C785,1159.2,785,1159.2,785,1158.9L785,1158.9c-0.2,0.2-0.2,0-0.2,0l0,0l0,0C784.8,1158.9,784.8,1158.9,785,1158.9L785,1158.9
	L785,1158.9C785.2,1158.9,785,1158.9,785,1158.9z M785.2,1157.7L785.2,1157.7H785l0,0l0,0l0,0l0,0H785.2
	C785.2,1157.4,785.2,1157.4,785.2,1157.7L785.2,1157.7L785.2,1157.7z M785.6,1154.1L785.6,1154.1L785.6,1154.1c-0.2,0-0.2,0-0.2,0
	l0,0l0,0C785,1153.8,785.2,1153.8,785.6,1154.1L785.6,1154.1C785.6,1153.8,785.6,1153.8,785.6,1154.1
	C785.6,1153.8,785.6,1153.8,785.6,1154.1C785.6,1153.8,785.6,1154.1,785.6,1154.1z M785.6,1152.4L785.6,1152.4h-0.2l0,0l0,0l0,0l0,0
	H785.6C785.6,1152,785.6,1152,785.6,1152.4L785.6,1152.4L785.6,1152.4z M785.7,1148.8L785.7,1148.8L785.7,1148.8c-0.2,0-0.2,0-0.2,0
	l0,0l0,0C785.6,1148.4,785.6,1148.4,785.7,1148.8L785.7,1148.8C785.7,1148.4,785.7,1148.4,785.7,1148.8
	C785.7,1148.4,785.7,1148.4,785.7,1148.8C785.7,1148.4,785.7,1148.4,785.7,1148.8z M785.7,1147.1L785.7,1147.1L785.7,1147.1
	L785.7,1147.1c-0.2,0.2-0.2,0-0.2,0l0,0l0,0C785.6,1146.8,785.6,1146.8,785.7,1147.1L785.7,1147.1
	C785.7,1146.8,785.9,1146.8,785.7,1147.1C785.9,1147.1,785.9,1147.1,785.7,1147.1z M785.9,1143.5L785.9,1143.5L785.9,1143.5
	c-0.2,0-0.2,0-0.2-0.2C785.7,1143.1,785.7,1143.1,785.9,1143.5C785.7,1143.1,785.7,1143.1,785.9,1143.5c-0.2-0.2-0.2-0.2-0.2-0.2
	L785.9,1143.5C785.9,1143.1,785.9,1143.1,785.9,1143.5L785.9,1143.5L785.9,1143.5C786.3,1143.5,785.9,1143.5,785.9,1143.5z
	 M786.3,1141.7C786.3,1142,786.3,1142,786.3,1141.7L786.3,1141.7L786.3,1141.7c-0.2,0-0.2,0-0.2,0S785.9,1141.7,786.3,1141.7
	c-0.2-0.2-0.2-0.2-0.2-0.2l0,0L786.3,1141.7C786.3,1141.4,786.3,1141.7,786.3,1141.7L786.3,1141.7L786.3,1141.7z M786.6,1137.1
	L786.6,1137.1L786.6,1137.1C786.3,1136.7,786.3,1136.7,786.6,1137.1C786.3,1136.7,786.3,1136.7,786.6,1137.1L786.6,1137.1
	C786.6,1136.7,786.6,1136.7,786.6,1137.1L786.6,1137.1z M786.6,1136.7L786.6,1136.7L786.6,1136.7c-0.2,0-0.2,0-0.2-0.2
	C786.3,1136.4,786.3,1136.4,786.6,1136.7C786.3,1136.4,786.3,1136.4,786.6,1136.7c-0.2-0.2-0.2-0.2-0.2-0.2L786.6,1136.7
	C786.6,1136.4,786.6,1136.4,786.6,1136.7C786.6,1136.4,786.6,1136.4,786.6,1136.7C786.6,1136.4,786.6,1136.4,786.6,1136.7
	C786.6,1136.4,786.6,1136.7,786.6,1136.7z M786.3,1134.7L786.3,1134.7L786.3,1134.7c0.2,0,0.2,0,0.2,0S786.6,1135,786.3,1134.7
	c0.2,0.2,0.2,0.2,0.2,0.2l0,0l0,0L786.3,1134.7C786.3,1135,786.3,1135,786.3,1134.7C786.3,1135,786.3,1134.7,786.3,1134.7
	L786.3,1134.7z M786.3,1135L786.3,1135C786.6,1135,786.6,1135.3,786.3,1135C786.6,1135.3,786.6,1135.3,786.3,1135L786.3,1135
	L786.3,1135C786.3,1135.3,786.3,1135.3,786.3,1135L786.3,1135z"/>
<path fill="#3964AF" d="M586.6,1113.8v14.1h1.4v-2.2c0-0.2,0-0.2,0.2-0.2h0.9l0,0l0,0l0,0l0,0l0,0l0,0l0,0v8.1l0,0l0,0l0,0l0,0l0,0
	l0,0l0,0h7l0,0l0,0l0,0v0.2v1.2l8.9,0.6l9.2,0.2l8.9,0.2l0,0l0,0l0,0l0,0l0,0l0,0l0,0l0,0l0,0v0.6h0.9c3.1,0,6.3,0,9.5,0h0.9v-0.4
	c0-0.2,0.2-0.6,0.6-0.6l8.1-0.2l7.7-0.2l7.7-0.6l0,0l0,0l0,0h7h2.9l0,0l0,0l0,0l0,0h-9.5v1.2c0,0,0.2,0,0.2,0.2h9.2l0,0l0,0l0,0l0,0
	H659c0,0.2-0.2,0.2-0.2,0.2l-8.1,0.6l-7.7,0.2l-7.5,0.2v0.6c0,0.2-0.2,0.6-0.6,0.6h-1.4c-1.7,0-3.1,0-4.6,0c-1.5,0-3.3,0-4.6,0h-1.7
	c-0.2,0-0.6-0.2-0.6-0.6v-0.6l-8.7-0.2l-9.2-0.2l-9-0.6h-0.2h-6.6l0,0l0,0h6.3l0,0h-6.3l0,0l0,0l0,0l0,0l0,0l0,0l0,0l0,0v4.5l0,0
	l0,0l0,0h7l0,0v0.2v1.2l8.9,0.6c14.5,0.9,29.9,0.9,45.1,0.2l8.9-0.6v-1.4v-0.2l0,0h7h2.9l0,0l0,0l0,0l0,0h-9.5v1.2
	c0,0,0.2,0,0.2,0.2h9.2l0,0l0,0l0,0l0,0h-9.2c0,0.2-0.2,0.2-0.2,0.2l-9.2,0.6c-7,0.2-14.1,0.6-21.2,0.6c-8.1,0-16.4-0.2-24.2-0.6
	l-8.9-0.6c-0.2,0-0.2-0.2-0.2-0.2h-6.3l0,0l0,0l0,0l0,0l0,0v3.1l0,0l0,0l0,0l0,0v0.2l0,0l0,0v1.2l0,0l0,0h6.3l0.2-0.2v-1.2h-6.6l0,0
	l0,0l0,0l0,0h7l0,0l0,0l0,0v0.2v1.2l8.9,0.6c14.5,0.9,29.9,0.9,45.1,0.2l8.9-0.6v-1.2v-0.2l0,0h7h2.9l0,0l0,0l0,0l0,0h-9.5v1.2
	c0,0,0.2,0,0.2,0.2h9.2l0,0l0,0l0,0l0,0H659c0,0.2-0.2,0.2-0.2,0.2l-9.2,0.6c-7,0.2-14.1,0.6-21.2,0.6c-8.1,0-16.4-0.2-24.2-0.6
	l-7,0.9c-0.2,0-0.2-0.2-0.2-0.2h-6.3l0,0l0,0v0.2l0,0l0,0v3.3l0,0h7l0,0l0,0l0,0v0.2v1.2l8.9,0.6c14.1,0.9,29,0.9,45.1,0.2l8.9-0.6
	v-1.2v-0.2l0,0h7h2.9l0,0l0,0l0,0l0,0h-9.5v1.2c0,0,0.2,0,0.2,0.2h9.2l0,0l0,0l0,0l0,0h-8.9c0,0.2-0.2,0.2-0.2,0.2l-9.2,0.6
	c-7.5,0.2-14.8,0.6-21.7,0.6c-8.1,0-16.2-0.2-23.7-0.9l-8.9-0.6c-0.2,0-0.2-0.2-0.2-0.2h-6.3l0,0v3.3l0,0h7l0,0v0.2v1.2l8.9,0.6
	c14.8,0.9,30.1,0.9,45.1,0.2l8.9-0.6v-0.9v-0.2l0,0h7h2.9l0,0l0,0l0,0l0,0h-9.5v1.2c0,0,0.2,0,0.2,0.2h9.2l0,0l0,0l0,0l0,0h-9.2
	c0,0.2-0.2,0.2-0.2,0.2l-9.2,0.6c-7.3,0.2-14.1,0.6-21.5,0.6c-8.1,0-16.2-0.2-23.9-0.6l-8.9-0.6c-0.2,0-0.2-0.2-0.2-0.2h-6.3l0,0
	v3.3h7l0,0v0.2v1.2l8.9,0.6c14.8,0.9,30.1,0.9,45.1,0.2l8.9-0.6v-1.2v-0.2l0,0h7h2.9l0,0l0,0l0,0l0,0h-9v1.2c0,0,0.2,0,0.2,0.2h9.2
	l0,0l0,0l0,0l0,0h-9.2c0,0.2-0.2,0.2-0.2,0.2l-9.2,0.6c-7.3,0.2-14.1,0.6-21.2,0.6c-8.1,0-16.2-0.2-23.9-0.6l-8.9-0.6
	c-0.2,0-0.2-0.2-0.2-0.2h-7.3v3.3h7l0,0v0.2v1.2l8.9,0.6c14.8,0.9,29.5,0.9,45.1,0.2l8.9-0.6v-1.2v0.9l0,0h7h2.9l0,0l0,0l0,0l0,0
	h-9.5v1.2c0,0,0.2,0,0.2,0.2h9.2l0,0l0,0l0,0l0,0H662c0,0.2-0.2,0.2-0.2,0.2l-9.2,0.6c-7.3,0.2-14.1,0.6-21,0.6
	c-8.1,0-16.2-0.2-24.2-0.6l-8.9-0.6c-0.2,0-0.2-0.2-0.2-0.2H592v2v0.2c0,0,0,0-0.2,0h-0.2v1.2h0.2l0,0l0,0h7l0,0l0,0l0,0v0.2v1.2
	l8.9,0.6c14.5,0.9,29.9,0.9,45.1,0.2l8.9-0.6v-0.9l0,0l0,0h7h2.9l0,0l0,0l0,0l0,0h-9.5v1.2c0,0,0.2,0,0.2,0.2h9.2l0,0l0,0l0,0l0,0
	h-9.2c0,0.2-0.2,0.2-0.2,0.2l-9.2,0.6c-7,0.2-14.1,0.6-21.2,0.6c-8.1,0-16.4-0.2-24.2-0.6l-8.9-0.6c-0.2,0-0.2-0.2-0.2-0.2h-6.3l0,0
	l0,0h-0.2l0,0h0.2l0,0l0,0h-0.2v3.1h0.2l0,0l0,0h7l0,0v0.2v1.2l8.9,0.6c15.6,0.9,30.7,0.9,45.1,0.2l8.9-0.6v-0.6v-0.2l0,0h7h2.9l0,0
	l0,0l0,0l0,0h-9.5v1.2c0,0,0.2,0,0.2,0.2h9.2l0,0l0,0l0,0l0,0h-9.2c0,0.2-0.2,0.2-0.2,0.2l-9.2,0.6c-6.6,0.2-13.6,0.6-21,0.6
	c-8.1,0-16.2-0.2-24.5-0.6l-8.9-0.6c-0.2,0-0.2-0.2-0.2-0.2h-6.3l0,0l0,0h-0.2l0,0h0.2l0,0l0,0h-0.2v3.1h0.2l0,0l0,0h7l0,0v0.2v1.2
	l8.9,0.6c15.6,0.9,30.7,0.9,45.1,0.2l8.4-0.6v-2c0,0,0-0.2,0.2-0.2h2.2c0,0,0.2,0,0.2,0.2l0,0v0.6h6.6h1.2l0,0l0,0l0,0l0,0h-7.7v1.2
	l0,0h7.7l0,0l0,0l0,0l0,0h-9.2c0,0.2-0.2,0.2-0.2,0.2l-9.2,0.6c-6.6,0.2-13.6,0.6-21,0.6c-8.1,0-16.2-0.2-24.5-0.6l-8.9-0.6
	c-0.2,0-0.2-0.2-0.2-0.2h-6.3l0,0l0,0h-0.2l0,0h0.2l0,0l0,0h-0.2v3.1h0.2l0,0l0,0h7l0,0v0.2v1.2l8.9,0.6c15.6,0.9,30.7,0.9,45.1,0.2
	l8.9-0.6v-1.2v-0.2l0,0h7h2.9l0,0l0,0l0,0l0,0h-9.5v1.2c0,0,0.2,0,0.2,0.2h9.2l0,0l0,0l0,0l0,0h-9.2c0,0.2-0.2,0.2-0.2,0.2l-9.2,0.6
	c-6.6,0.2-13.6,0.6-21,0.6c-8.1,0-16.2-0.2-24.5-0.6l-8.9-0.6c-0.2,0-0.2-0.2-0.2-0.2H593l0,0l0,0l0,0l0,0h6.3l0.2-0.2v-1.2h-6.6
	l0,0l0,0h-0.2l0,0h0.2l0,0l0,0h-0.2v0.6c0,0.2,0,0.2-0.2,0.2h-3.2c-0.2,0-0.2,0-0.2-0.2v-2.1h-1.9v2.9h3.1l0,0l0,0l0,0l0,0h-3.1v3.3
	h3.1l0,0l0,0h7l0,0l0,0l0,0v0.2l0,0l0,0v1.2l8.9,0.6c14.5,0.9,29.9,0.9,45.1,0.2l8.9-0.6v-1.2v-1.2l0,0h7h2.9l0,0l0,0l0,0l0,0h-9.5
	v1.2c0,0,0.2,0,0.2,0.2h9.2l0,0l0,0l0,0l0,0H661c0,0.2-0.2,0.2-0.2,0.2l-9.2,0.6c-7,0.2-13.9,0.6-21,0.6c-8.4,0-16.4-0.2-24.5-0.6
	l-8.9-0.6c-0.2,0-0.2-0.2-0.2-0.2h-6.3l0,0l0,0h-3.1v3.3h3.1l0,0l0,0h7l0,0l0,0l0,0v0.2l0,0l0,0v1.2l8.9,0.6
	c15.8,0.9,30.7,0.9,45.1,0.2l8.9-0.6v-1.2v-0.2l0,0h7h2.9l0,0l0,0l0,0l0,0H661v1.2c0,0,0.2,0,0.2,0.2h9.2l0,0l0,0l0,0l0,0h-9.2
	c0,0.2-0.2,0.2-0.2,0.2l-9.2,0.6c-6.6,0.2-13.6,0.6-20.7,0.6c-8.1,0-16.2-0.2-24.7-0.6l-8.9-0.6c-0.2,0-0.2-0.2-0.2-0.2h-6.3l0,0
	l0,0h-3.1v1.4c0,0.2,0,0.2-0.2,0.2h-3.3l0,0l0.9,7.3h1.2v-3.3v2.2v-1.4v-0.2l0,0h5l0,0l0,0h7l0,0l0,0l0,0l0,0v0.2l0,0l0,0v1.2
	l8.9,0.6c15.8,0.9,30.7,0.9,45.1,0.2l8.9-0.6v-1.2v-0.4l0,0h7h2.9l0,0l0,0l0,0l0,0h-9.5v1.2c0,0,0.2,0,0.2,0.2h9.2l0,0l0,0l0,0l0,0
	h-9.2c0,0.2-0.2,0.2-0.2,0.2l-9.2,0.6c-6.6,0.2-13.6,0.6-20.7,0.6c-8.1,0-16.2-0.2-24.7-0.6l-8.9-0.6c-0.2,0-0.2-0.2-0.2-0.2h-6.3
	l0,0l0,0h-4.6v3.3l2-0.2l-0.2-2.2c0-0.2,0-0.2,0.2-0.2h0.9h0.2c0,0,0,0,0,0.2l0.2,2.9h1.4l0,0l0,0h7l0,0l0,0l0,0v0.2l0,0l0,0v1.2
	l8.1,0.6l8.1,0.2l7.7,0.2v-3.1l0,0l0,0l0,0l0,0l0,0l0,0l0,0l0,0c0,0,0,0,0.2,0l0,0h7.3h7.3l0,0l0,0l0,0l0,0c0.2,0,0.2,0.2,0.2,0.2
	l0,0l0,0l0,0v3.1h1.2c6.6,0,13.9-0.2,21.2-0.9h1.7v-1.2v-0.2l0,0h7h2.9l0,0l0,0l0,0l0,0h-9.5v1.2c0,0,0.2,0,0.2,0.2h9.2l0,0l0,0l0,0
	l0,0h-9c0,0.2-0.2,0.2-0.6,0.2h-2.8c-7.3,0.6-14.5,0.6-21.2,0.9H636l0,0l0,0c0,0,0,0-0.2,0l0,0l0,0l0,0l0,0l0,0l0,0l0,0l0,0v-3.1h-7
	h-7v3.1l0,0l0,0l0,0l0,0l0,0l0,0l0,0l0,0c0,0,0,0-0.2,0l0,0l0,0l-8.1-0.2l-8.1-0.2l-8.1-0.6c-0.2,0-0.2-0.2-0.2-0.2H591l0,0l0,0
	h-1.4l2.9,29.9h4.6c0,0,0,0,0.2,0h0.2c0,0,0.2,0,0.2,0.2h9.7l0.2-0.2h0.2c0,0,0,0,0.2,0h0.9c0,0,0,0,0.2,0h0.2c0,0,0.2,0,0.2,0.2
	h9.7l0.2-0.2h0.2c0,0,0,0,0.2,0h1.7v-3.6h-0.2c-0.2,0-0.2,0-0.2-0.2v-0.6c0-0.2,0-0.2,0.2-0.2h42.4c0.2,0,0.2,0,0.2,0.2v0.9
	c0,0.2,0,0.2-0.2,0.2h-0.2v2.5h9.5v-6.3c0-0.2,0-0.2,0.2-0.2l0,0c0-0.2,0-0.2,0.2-0.2v-4.5c-0.2,0-0.2,0-0.2-0.2l0,0l-0.2-0.2v-1.4
	h-1.7c-0.2,0-0.2,0-0.2-0.2v-15.6l0,0h-0.6l0,0l0,0l0,0l0,0h0.6l0,0v-1.4l0,0h-0.6l0,0l0,0l0,0l0,0h0.6l0,0v-3.3l0,0h-0.6l0,0l0,0
	l0,0l0,0h0.6l0,0v-1.4l0,0h-0.6l0,0l0,0l0,0l0,0h0.6l0,0v-3.3l0,0h-0.6l0,0l0,0l0,0l0,0h0.6l0,0v-1.4l0,0h-0.6l0,0l0,0l0,0l0,0h0.6
	l0,0v-5.2l0,0h-0.6l0,0l0,0l0,0l0,0h0.6l0,0v-1.2l0,0h-0.6l0,0l0,0l0,0l0,0h0.6l0,0v-3.2l0,0h-0.6l0,0l0,0l0,0l0,0h0.6l0,0v-1.4l0,0
	h-0.6l0,0l0,0l0,0l0,0h0.6l0,0v-3.3l0,0h-0.6l0,0l0,0l0,0l0,0h0.6l0,0v-1.4l0,0h-0.6l0,0l0,0l0,0l0,0h0.6l0,0v-3.3l0,0h-0.6l0,0l0,0
	l0,0l0,0h0.6l0,0v-1.2l0,0h-0.6l0,0l0,0l0,0l0,0h0.6l0,0v-3.3l0,0h-0.6l0,0l0,0l0,0l0,0h0.6l0,0v-1.4l0,0h-0.6l0,0l0,0l0,0l0,0h0.6
	l0,0v-3.3l0,0h-0.6l0,0l0,0l0,0l0,0h0.6l0,0v-1.4l0,0h-0.6l0,0l0,0l0,0l0,0h0.6l0,0v-3.3l0,0h-0.6l0,0l0,0l0,0l0,0h0.6l0,0v-5.5l0,0
	h-0.6l0,0l0,0l0,0l0,0h0.6l0,0v-3.9l0,0h-0.6l0,0l0,0l0,0l0,0h0.6l0,0v-1.4l0,0h-0.6l0,0l0,0l0,0l0,0h0.6l0,0v-3.3l0,0h-0.6l0,0l0,0
	l0,0l0,0h0.6l0,0v-1.4l0,0h-0.6l0,0l0,0l0,0l0,0h0.6l0,0v-3.3l0,0h-0.6l0,0l0,0l0,0l0,0h0.6l0,0v-1.4l0,0h-0.6l0,0l0,0l0,0l0,0h0.6
	l0,0v-3.3l0,0h-0.6l0,0l0,0l0,0l0,0h0.6l0,0v-1.4l0,0h-0.6l0,0l0,0l0,0l0,0h0.6l0,0v-4.6l0,0h-0.6l0,0l0,0l0,0l0,0h0.6l0,0v-4.3l0,0
	h-0.6l0,0l0,0l0,0l0,0h0.6l0,0v-20.3h-0.8v0.9v0.2c0,0,0,0-0.2,0l-3.3,0.6h-0.2c0,0,0,0,0-0.2l-0.9-4.6c0,0-0.2,0-0.2-0.2l-2.5-15.8
	v1.2c0,0.2,0,0.2-0.2,0.2h-63.6c-0.2,0-0.2,0-0.2-0.2v-1.4h-0.2l-3.6,21.2v0.2H595l0,0l0,0h-0.2l-2.9-0.6l0,0l0,0c0,0-0.2,0-0.2-0.2
	v-0.9l0,0H587v-0.6l0,0v0.4L586.6,1113.8L586.6,1113.8z M660.4,1226.1C660.4,1226.5,660.4,1226.5,660.4,1226.1l-1.2,0.2v1.2
	c0,0,0,0.2-0.2,0.2h-58.3c0,0-0.2,0-0.2-0.2v-1.2h-1c0,0-0.2,0-0.2-0.2v-0.9c0,0,0-0.2,0.2-0.2h6.1v-1.7c0,0,0-0.2,0.2-0.2h48
	c0,0,0.2,0,0.2,0.2v1.7h6.1c0,0,0.2,0,0.2,0.2L660.4,1226.1L660.4,1226.1z M646.7,1108.4C646.7,1108.4,646.7,1107.9,646.7,1108.4
	l0.9-0.2c0,0,0.2,0,0.2,0.2v0.6c0,0,0,0.2-0.2,0.2h-0.6c0,0-0.2,0-0.2-0.2v-0.6H646.7z M629.4,1108.4
	C629.4,1108.4,629.4,1107.9,629.4,1108.4l0.9-0.2c0,0,0.2,0,0.2,0.2v0.6c0,0,0,0.2-0.2,0.2h-0.6c0,0-0.2,0-0.2-0.2v-0.6H629.4z
	 M612.5,1108.4C612.5,1108.4,612.5,1107.9,612.5,1108.4l0.9-0.2c0,0,0.2,0,0.2,0.2v0.6c0,0,0,0.2-0.2,0.2h-0.6c0,0-0.2,0-0.2-0.2
	v-0.6H612.5z"/>
<path fill="#3964AF" d="M790.2,1185.1v0.6l0,0l-0.2,0.2l0,0l-3.3-0.2h-0.2c0,0,0,0,0-0.2v-0.2h-2.9l0,0l0,0h-8.4h-0.1l0,0h-2.5l0,0
	h-0.2c0,0.2-0.2,0.2-0.2,0.2l-8.9,0.6c-6.6,0.2-13.6,0.6-21,0.6c-8.1,0-16.2-0.2-24.5-0.6l-9.2-0.6c-0.2,0-0.2-0.2-0.2-0.2h-8.1l0,0
	l0,0h-0.6v5h0.2l0,0l0,0h7.7l0.2-0.2v-1.2h-8.1l0,0l0,0l0,0l0,0h8.1l0,0v0.2v1.2l8.9,0.6c14.5,0.9,29.9,0.9,45.1,0.2l8.9-0.6v-1.2
	v-0.2l0,0h7h5l0,0l0,0h4.5l0,0v0.2v1.4v0.2v4.6h2.5v-9.6L790.2,1185.1L790.2,1185.1z"/>
<rect x="403.4" y="1258.6" fill="#CCCCCC" width="44.3" height="9.5"/>
<rect x="478.9" y="1258.6" fill="#CCCCCC" width="10" height="9.5"/>
<rect x="360.1" y="1260.2" fill="#CCCCCC" width="12.6" height="9.5"/>
<path fill="#3964AF" d="M699.9,1211.6L699.9,1211.6L699.9,1211.6L699.9,1211.6L699.9,1211.6C699.9,1211.6,699.9,1211.8,699.9,1211.6
	h-0.2v15.8c0,0.2,0,0.2-0.2,0.2h-1.7v1.4c0,0.2,0,0.2-0.2,0.2l0,0c0,0.2,0,0.2-0.2,0.2v4.5c0.2,0,0.2,0,0.2,0.2l0,0l0.2,0.2v2.5
	h40.5c0.2,0,0.2,0,0.2,0.2v0.9c0,0.2,0,0.2-0.2,0.2h-0.4v2.5h4.3c0,0,0,0,0.2,0h0.2c0,0,0.2,0,0.2,0.2h9.7l0.2-0.2h0.2
	c0,0,0,0,0.2,0h0.9c0,0,0,0,0.2,0h0.2c0,0,0.2,0,0.2,0.2h9.7l0.2-0.2l0,0h6.6v-2.9h0.1c0,0-0.2,0-0.2-0.2v-0.2c0,0,0-0.2,0.2-0.2
	h13.5v-25.6H784l0,0l0,0h-11.1c0,0.2-0.2,0.2-0.6,0.2l-11.5,0.6l-11.5,0.2l0,0h-0.2v-0.2v-3.1h-7H735v3.1l0,0l0,0l0,0l0,0l0,0l0,0
	l0,0l0,0c0,0,0,0-0.2,0l0,0l0,0l-8.7-0.2l-8.7-0.2l-8.7-0.6c-0.2,0-0.2-0.2-0.2-0.2L699.9,1211.6
	C699.9,1211.8,699.9,1211.6,699.9,1211.6z M711.1,1225.7C711.1,1225.3,711.1,1225.3,711.1,1225.7l6.3-0.2v-1.7c0,0,0-0.2,0.2-0.2h48
	c0,0,0.2,0,0.2,0.2v1.7h6.1c0,0,0.2,0,0.2,0.2v0.9c0,0,0,0.2-0.2,0.2h-1.2v1.2c0,0,0,0.2-0.2,0.2h-58.3c0,0-0.2,0-0.2-0.2v-1.4h-1.2
	c0,0-0.2,0-0.2-0.2L711.1,1225.7L711.1,1225.7z"/>
<path fill="#CCCCCC" d="M347.4,1260.2h-19.3v9.2h30.6v-9.2h-5.5c0,0,0,0-0.2,0H347.4L347.4,1260.2z"/>
<path fill="#CCCCCC" d="M531.1,1288.9L531.1,1288.9C531.1,1288.9,531.1,1289.2,531.1,1288.9L531.1,1288.9
	C531.1,1289.2,531.1,1289.2,531.1,1288.9C531.1,1289.2,531.1,1289.2,531.1,1288.9v0.2l0,0v0.9c-0.2,2-2.2,4-4.3,4.3h-0.9v2.9
	c0,0.2,0,0.2-0.2,0.2h-3.3v12.8h8.4c0,0,0.2,0,0.2,0.2v0.9l0,0l0,0v0.6c0,0,0,0.2-0.2,0.2h-0.2c0,0-0.2,0-0.2-0.2v-0.6h-8.1v4.5h2.5
	l0,0c0-0.2,0.2-0.2,0.2-0.2h1.7l0,0c0,0,0-0.2,0.2-0.2h3.3c0,0,0.2,0,0.2,0.2c0,0,0.2,0,0.2,0.2v1.7c0,0,0,0.2-0.2,0.2h-0.2
	c0,0-0.2,0-0.2-0.2v-0.6l0,0c0,0,0,0-0.2,0h-1.7c0,0,0,0-0.2,0h-0.3c0,0,0,0-0.2,0h-0.4h-1.7H525c0,0,0,0-0.2,0h-3v4.5h2.5v-0.6
	c0-0.2,0.2-0.2,0.2-0.2h1.7l0,0c0,0,0-0.2,0.2-0.2h3.3c0,0,0.2,0,0.2,0.2c0,0,0.2,0,0.2,0.2v0.9h0.9c0,0,0.2,0,0.2,0.2v0.2
	c0,0,0,0.2-0.2,0.2h-1.4c0,0,0,0-0.2,0h-1.7c0,0,0,0-0.2,0h-0.2c0,0,0,0-0.2,0h-0.2h-1.7H525c0,0,0,0-0.2,0h-3v8.9h2.5v-0.2
	c0-0.2,0.2-0.2,0.2-0.2h2.2c0.2,0,0.2,0,0.2,0.2h0.2h1.7c0.2,0,0.2,0.2,0.2,0.2l0,0h7v-8.9h-0.2v4.6c0,0,0,0.2-0.2,0.2h-0.2
	c0,0-0.2,0-0.2-0.2v-5.8c0,0,0-0.2,0.2-0.2l0,0c0,0,0-0.2,0.2-0.2h0.2v-33h-11.1v0.9L531.1,1288.9L531.1,1288.9z"/>
<path fill="#CCCCCC" d="M513.1,1280.3v-0.6h-8.2v7h8.1v-1.4c0,0,0-0.2,0.2-0.2v-4.6C513.1,1280.5,513.1,1280.3,513.1,1280.3z"/>
<path fill="#CCCCCC" d="M505.2,1316.3C505.2,1316.3,505.6,1316.5,505.2,1316.3l0.2,4.6h0.2c0.9,0,2-0.6,2.9-1.2l0,0l0,0l0,0
	c0.9-0.6,1.4-2,1.4-3.1v-0.2v-0.2c0,0,0-0.2,0.2-0.2h0.6v-0.2c0,0,0-0.2,0.2-0.2h0.2h0.2c0.2,0,0.6,0,0.9-0.2h0.2
	c0.2,0,0.2-0.2,0.2-0.2s0,0,0.2-0.2l0,0l0,0l0,0l0,0l0,0c0.2-0.6,0.9-1.4,0.9-2l0,0l0,0h-3.3c0,0-0.2,0-0.2-0.2l0,0
	c0,0-0.2,0-0.2-0.2v-0.6c0,0,0-0.2,0.2-0.2h8.4v-4.6h-6.3c0,0-0.2,0-0.2-0.2v-0.9c0,0,0-0.2,0.2-0.2h6.3v-8.1h-5.8
	c-0.2,0-0.2,0-0.2-0.2v-2.9h-0.9c-2-0.2-4-2.2-4.3-4.3v-0.9l0,0v-0.2l0,0l0,0l0,0l0,0l0,0l0,0h4.6v-0.9H504v28.5L505.2,1316.3
	L505.2,1316.3z"/>
<path fill="#CCCCCC" d="M505.2,1223.9L505.2,1223.9L505.2,1223.9L505.2,1223.9L505.2,1223.9L505.2,1223.9L505.2,1223.9
	c0.2,0,0.2,0,0.2,0h0.9c2,0.2,3.6,2,4.3,4.3v0.9h3.6v-0.9c0-0.2,0-0.2,0.2-0.2h4.5v-12h-6.3c0,0-0.2,0-0.2-0.2v-0.9
	c0,0,0-0.2,0.2-0.2h6.3v-4.5h-4c0,0-0.2,0-0.2-0.2l0,0c0,0,0-0.2,0.2-0.2h4v-3.6h-4c0,0-0.2,0-0.2-0.2v-0.2c0,0,0-0.2,0.2-0.2h4v-4
	h-4c0,0-0.2,0-0.2-0.2v-0.2c0,0,0-0.2,0.2-0.2h4v-3.6H511h-0.2c0,0-0.2,0-0.2-0.2v-1.4c0,0,0-0.2,0.2-0.2h0.2h0.2
	c0.2,0,0.6,0,0.9-0.2l0.2-0.2c0.2,0,0.6-0.2,0.6-0.6l0,0l0,0l0.2-0.2c0.2-0.2,0.2-0.6,0.6-0.9l0,0l0,0v-0.2v-0.2v0.9h-3.3
	c0,0-0.2,0-0.2-0.2c0,0-0.2,0-0.2-0.2v-1.7c0,0,0-0.2,0.2-0.2h0.2h0.2c1.7,0,3.1-1.4,3.1-3.1h-3.3l0,0l0,0l0,0c0,0-0.2,0-0.2-0.2
	v-0.6h-0.9c0,0-0.2,0-0.2-0.2v-0.2v0.1c0-2.5-2-4.5-4.5-4.5v4.6c0,0,0,0.2-0.2,0.2l0,0c0,0,0,0.2-0.2,0.2h-0.2v41.8h0.6
	L505.2,1223.9L505.2,1223.9z"/>
<path fill="#CCCCCC" d="M504.9,1182.1C504.9,1182.1,504.9,1181.9,504.9,1182.1l0.2-0.2h0.2c2.5,0,4.6,2.2,4.6,4.6l0,0h3.3
	c0,0,0,0,0.2,0h0.2h1.7h0.2c0,0,0,0,0.2,0h3.1v-12h-3.5v0.2c0,0.2-0.2,0.2-0.2,0.2H513c-0.2,0-0.2-0.2-0.2-0.2v-0.2h-6.1v2
	c0,0,0,0.2-0.2,0.2h-2v4l0,0v5.5h0.2L504.9,1182.1L504.9,1182.1z"/>
<path fill="#CCCCCC" d="M536.6,1180L536.6,1180l-0.2-4.6h-0.2l0,0l0,0c-0.2,0-0.9,0-1.2,0.2l0,0l0,0h-0.2c-0.2,0-0.9,0.6-1.2,0.6
	l-0.2,0.2c-0.9,0.9-1.4,2-1.4,3.1v0.2v0.2c0,0,0,0.2-0.2,0.2h-0.9v0.9c0,0,0,0.2-0.2,0.2c0,0,0,0.2-0.2,0.2H527v0.2v0.2v0.2l0,0v0.2
	l0,0l0,0v0.2l0.2,0.2l0,0l0,0l0.2,0.2l0,0l0,0c0.6,0.6,1.2,0.9,2,0.9h0.2h0.2c0,0,0.2,0,0.2,0.2v1.4c0,0,0,0.2-0.2,0.2
	c0,0,0,0.2-0.2,0.2h-3.3c0,1.7,1.7,3.1,3.1,3.1h0.2h0.2c0,0,0.2,0,0.2,0.2v1.4c0,0,0,0.2-0.2,0.2c0,0,0,0.2-0.2,0.2h-3.3v0.2v0.2
	c0,0.2,0,0.2,0,0.2l0,0v0.2l0,0l0,0v0.2l0.2,0.2l0,0l0,0l0.2,0.2l0,0l0,0l0.2,0.2l0,0l0.2,0.2l0,0l0,0h0.2c0.2,0.2,0.6,0.2,0.9,0.2
	h0.2h0.2c0,0,0.2,0,0.2,0.2v1.4c0,0,0,0.2-0.2,0.2c0,0,0,0.2-0.2,0.2h-3.3c0,0.9,0.2,1.4,0.9,2c0.6,0.6,1.4,0.9,2.2,0.9l0,0h0.2h0.2
	c0,0,0.2,0,0.2,0.2v1.4c0,0,0,0.2-0.2,0.2l0,0c0,0,0,0.2-0.2,0.2h-3.3c0,0.9,0.2,1.4,0.9,2c0.6,0.6,1.4,0.9,2.2,0.9l0,0l0,0l0,0
	c0,0,0.2,0,0.2,0.2v1.4c0,0,0,0.2-0.2,0.2c0,0,0,0.2-0.2,0.2h-3.3c0,0.6,0.2,1.4,0.9,2l0.2,0.2c0.6,0.6,1.4,0.9,2,0.9l0,0l0,0l0,0
	l0,0h0.2c0,0,0.2,0,0.2,0.2v0.6h4.5c0,0,0.2,0,0.2,0.2l0,0l0,0l0,0l0,0c0,2.5-2,4.6-4.5,4.6l0,0v0.2l0,0v0.9c0,0,0,0.2-0.2,0.2h-8.1
	v12h4.5c0.2,0,0.2,0,0.2,0.2v3.1h3.6v-0.9c0.6-2.2,1.7-3.6,4.3-4.3h0.9l0,0h0.2l0,0l0,0l0,0l0,0v4.6h0.6v-51h-0.4
	C536.8,1180,536.6,1180,536.6,1180z"/>
<path fill="#CCCCCC" d="M84.8,1271.6v-14.1H71.3v16.2h13.9L84.8,1271.6C84.8,1271.8,84.8,1271.6,84.8,1271.6z"/>
<path fill="#CCCCCC" d="M463.9,1186.5v4.6l0.2,0.2v38.2h0.6c0.2,0,0.2,0,0.2,0.2v2.5H490c0.2,0,0.2,0,0.2,0.2v5h0.6
	c0,0,0.2,0,0.2,0.2h7.3l0.2-0.2h1.4l-0.2-56.3h-35.6v4.6C463.9,1186.3,463.9,1186.5,463.9,1186.5z"/>
<path fill="#CCCCCC" d="M238.6,1229.9v7.7h4.5v-0.6l0,0h8.4l0,0v0.6l0,0v-0.6v-4.5c0-0.2,0-0.2,0.2-0.2h21.5v-2.5
	c0-0.2,0-0.2,0.2-0.2h2.2c0.2,0,0.2,0,0.2,0.2v2.5h16.7v-4.6H292l0,0v-8.4l0,0h0.6v-37.6h-54.1v47.1v1.1H238.6L238.6,1229.9z"/>
<rect x="125.4" y="1233.4" fill="#CCCCCC" width="10" height="4.5"/>
<path fill="#CCCCCC" d="M374.4,1186.3C374.7,1186.3,374.7,1186.3,374.4,1186.3l0.2,0.6c0,0,0,0.2-0.2,0.2h-5v4.5l0,0c0,0,0,0,0,0.2
	v34.9h3.6c0.2,0,0.2,0,0.2,0.2v10.9l0,0v-0.6l0,0h8.4l0,0v0.6h4.5v-7.7v-0.2v-38c0-0.2,0-0.2,0.2-0.2l0,0c0-0.2,0.2-0.2,0.2-0.2v-4
	l-3.1,2.9l0,0l0,0l0,0l-0.2-0.2l0,0l3.1-3.1l0,0l-0.2-0.2H386c-0.2,0-0.2,0-0.2-0.2v-2.9v-0.2v-1.7h-17v4.6L374.4,1186.3
	L374.4,1186.3z"/>
<path fill="#CCCCCC" d="M389.2,1183.5v2.5h4c0.2,0,0.6,0.2,0.6,0.6v0.2c0,0.2-0.2,0.6-0.6,0.6h-4.7v4.3c0.2,0,0.2,0.2,0.2,0.2h0.2
	c0.2,0,0.2,0,0.2,0.2v38v0.2v7.5h4.5v-0.6l0,0h8.4l0,0v0.6h0.2v-5c0-0.2,0-0.2,0.2-0.2h21.5v-2.5c0-0.2,0-0.2,0.2-0.2h2.2
	c0.2,0,0.2,0,0.2,0.2v2.5h21.7h0.2c0,0,0,0,0,0.2v4.5l0,0h8.4l0,0v0.6h4.5v-7.7c0-0.2,0-0.2,0.2-0.2h0.6v-38.2c0,0,0-0.2,0.2-0.2
	v-4.4h-5c0,0-0.2,0-0.2-0.2v-0.2c0,0,0-0.2,0.2-0.2h4.6v-4.6h-35.3v2.2c0,0.2,0,0.2-0.2,0.2h-2.9c-0.2,0-0.2,0-0.2-0.2v-2.2H389v2
	C389.2,1183.3,389.2,1183.5,389.2,1183.5z"/>
<path fill="#CCCCCC" d="M298.1,1185.4C298.1,1185.4,298.5,1185.4,298.1,1185.4l0.2,12c0,0,0,0.2-0.2,0.2h-4v14.8h0.2
	c0,0,0.2,0,0.2,0.2h5l0.2-0.2h11.8v-21c0,0,0-0.2,0.2-0.2v-4.5h-5c0,0-0.2,0-0.2-0.2v-0.2c0,0,0-0.2,0.2-0.2h4.6v-4.6h-17.7v4.3h4.2
	v-0.3H298.1z M297,1201.4h-1.2c-0.2,0-0.2,0-0.2-0.2c0-0.2,0-0.2,0.2-0.2h1.2C297.3,1201,297.3,1201.2,297,1201.4
	C297.3,1201.4,297.3,1201.4,297,1201.4z"/>
<path fill="#CCCCCC" d="M312.9,1186.5v4.6l0.2,0.2v21h12h0.2l0,0h4.6l0.2-0.2h0.2v-31.3h-17.7L312.9,1186.5
	C313.3,1186.3,313.3,1186.5,312.9,1186.5z"/>
<path fill="#CCCCCC" d="M331.8,1219.1v4.6l0.2,0.2v2.9h36.2v-45.1h-36.5v37.4C332.1,1218.6,331.8,1219.1,331.8,1219.1z"/>
<rect x="403.4" y="1233.4" fill="#CCCCCC" width="44.3" height="7.7"/>
<path fill="#CCCCCC" d="M371.6,1242.6L371.6,1242.6l0.2-14.8h-20.3v2c0,0.2,0,0.2-0.2,0.2H348v12.2h18.1c0,0,0.2,0,0.2,0.2h5.4l0,0
	h-0.1V1242.6z"/>
<path fill="#CCCCCC" d="M163.2,1318.5v2h18.1h16.3c0-0.2,0.2-0.2,0.6-0.2h0.2c0.2,0,0.2,0,0.6,0.2h37.6v-4.6v-0.2v-0.2v-0.2l0,0
	c0,0,0,0,0-0.2l-3.1-2.9l0,0l0.2-0.2l0,0l0,0l3.1,2.9v-4c-0.2,0-0.2-0.2-0.2-0.6v-0.2c0-0.2,0-0.2,0.2-0.2v-38.1h-0.6
	c-0.2,0-0.2,0-0.2-0.2v-7.7h-4.5v0.6l0,0h-8.4l0,0v-0.6l0,0v5c0,0.2,0,0.2-0.2,0.2h-21.5v2.5c0,0.2,0,0.2-0.2,0.2H199
	c-0.2,0-0.2,0-0.2-0.2v-2.5h-21.5c-0.2,0-0.2,0-0.2-0.2v-5l0,0v0.6l0,0h-8.4l0,0v-0.6h-4.5v7.7c0,0.2,0,0.2-0.2,0.2h-1.7v38.4
	c0,0,0,0.2-0.2,0.2v4.5h5c0,0,0.2,0,0.2,0.2v0.2c0,0,0,0.2-0.2,0.2h-4.7v2.9h0.6C163.1,1317.9,163.2,1318.2,163.2,1318.5z"/>
<path fill="#CCCCCC" d="M197.8,1181.6c-0.2,0-0.2,0-0.2-0.2h-34.3v1.7c0,0.2,0,0.2-0.2,0.2h-0.6v2.9h4.6c0,0,0.2,0,0.2,0.2v0.2
	c0,0,0,0.2-0.2,0.2h-4.9v4.5l0.2,0.2v38.2h0.6c0.2,0,0.2,0,0.2,0.2v7.7h4.5v-0.6l0,0h8.4l0,0v0.6h0.2v-5c0-0.2,0-0.2,0.2-0.2h21.5
	v-2.5c0-0.2,0-0.2,0.2-0.2h2.2c0.2,0,0.2,0,0.2,0.2v2.5h21.5c0.2,0,0.2,0,0.2,0.2v5l0,0v-0.6l0,0h8.4l0,0v0.6h4.5v-45.9
	c0,0,0,0,0-0.2v-4.5h-3.6c0,0-0.2,0-0.2-0.2v-0.2c0,0,0-0.2,0.2-0.2h4.5v-4.6h-37.6l-0.2,0.2L197.8,1181.6L197.8,1181.6z"/>
<path fill="#CCCCCC" d="M161.4,1314.8v-4.6l-0.2-0.2v-38.3h-0.6c-0.2,0-0.2,0-0.2-0.2v-7.7h-4.5v0.6l0,0h-8.4l0,0v-0.6l0,0v5
	c0,0.2,0,0.2-0.2,0.2h-21.6v2.5v0.2c0,0,0,0-0.2,0h-2.2c-0.2,0-0.2,0-0.2-0.2v-2.5H97.9c-0.2,0-0.2,0-0.2-0.2v-5l-0.2,0.2h-0.2
	c-0.2,0-0.2-0.2-0.6-0.2H90c0,0.2-0.2,0.2-0.6,0.2h-0.2c-0.2,0-0.2,0-0.2-0.2h-1.2v54.4h73.3L161.4,1314.8
	C161.1,1315.1,161.1,1314.8,161.4,1314.8z"/>
<rect x="177.4" y="1233.4" fill="#CCCCCC" width="10" height="9.5"/>
<path fill="#CCCCCC" d="M97.5,1183.3v10.6v38.4h15.2c0.2,0,0.2,0,0.2,0.2v4.5l0,0h8.4l0,0v0.6h0.9v-7.7c0-0.2,0-0.2,0.2-0.2h2.2
	c0.2,0,0.2,0,0.2,0.2v2.5h34.9v-2.5c0-0.2,0-0.2,0.2-0.2h0.6v-38.2c0,0,0-0.2,0.2-0.2v-4.6c0,0,0,0-0.2,0c0,0,0,0,0-0.2v-2.9h-38
	c-0.2,0-0.2,0-0.2-0.2v-2H99.5l0,0h-2L97.5,1183.3C97.3,1183.3,97.5,1183.3,97.5,1183.3z"/>
<path fill="#CCCCCC" d="M498.2,1263.9C498.2,1263.9,497.9,1263.5,498.2,1263.9l-7.5-0.2l-0.2,0.2h-0.6v5c0,0.2,0,0.2-0.2,0.2h-25.2
	v2.5c0,0.2,0,0.2-0.2,0.2h-0.6v38.2c0,0.2,0,0.2-0.2,0.2l0,0v4.6l0,0c0.2,0,0.2,0,0.2,0.2v5h35.6v-56.3L498.2,1263.9L498.2,1263.9
	L498.2,1263.9z"/>
<rect x="199.9" y="1233.4" fill="#CCCCCC" width="21.5" height="9.5"/>
<rect x="147" y="1233.4" fill="#CCCCCC" width="13.2" height="4.5"/>
<rect x="136.1" y="1233.4" fill="#CCCCCC" width="10" height="9.5"/>
<rect x="98.6" y="1233.4" fill="#CCCCCC" width="13.5" height="9.5"/>
<path fill="#3964AF" d="M791.6,1239.7C791.6,1239.7,791.4,1239.7,791.6,1239.7l-0.2-0.2c0,0,0-0.2,0.2-0.2h0.2v-1.2h-0.2
	c0,0-0.2,0-0.2-0.2l0,0c0,0,0-0.2,0.2-0.2h0.2v-41.4h-6.3c0,0-0.2,0-0.2-0.2v-0.6v-2.4h-0.6c0,0-0.2,0-0.2-0.2c0-0.2,0-0.2,0.2-0.2
	h0.6c0,0,0.2,0,0.2,0.2v2.5h2.5v-4.5h-4.5l0,0l0,0h-11.5c0,0.2-0.2,0.2-0.2,0.2l-8.9,0.6c-7,0.2-13.9,0.6-21,0.6
	c-8.4,0-16.4-0.2-24.5-0.6l-9.2-0.6c-0.2,0-0.2-0.2-0.2-0.2H700l0,0l0,0h-0.3v3.3h0.2l0,0l0,0h8.1l0,0v0.2v1.2l8.9,0.6
	c14.5,0.9,29.9,0.9,45.1,0.2l8.9-0.6v-1.2v-0.2l0,0h12l0,0l0,0h0.9l0,0l0,0l0,0l0,0H783l0,0l0,0h-11.8v1.2c0,0,0.2,0,0.2,0.2h11.5
	l0,0l0,0h0.9l0,0l0,0l0,0l0,0h-0.9l0,0l0,0h-11.5c0,0.2-0.2,0.2-0.2,0.2l-8.9,0.6c-7,0.2-13.9,0.6-21,0.6c-8.4,0-16.4-0.2-24.5-0.6
	l-9.2-0.6c-0.2,0-0.2-0.2-0.2-0.2h-7.7l0,0l0,0h-0.2v3.3h0.2l0,0l0,0l0,0l0,0l0,0l0,0h8.1l0,0v0.2v1.2l8.9,0.6
	c15.8,0.9,30.7,0.9,45.1,0.2l8.9-0.6v-1.2v-0.2l0,0h7h5l0,0l0,0h0.9l0,0l0,0l0,0l0,0h-0.9l0,0l0,0h-11.8v1.2c0,0,0.2,0,0.2,0.2h11.5
	l0,0l0,0h0.9l0,0l0,0l0,0l0,0h-0.9l0,0l0,0h-11.5c0,0.2-0.2,0.2-0.2,0.2l-8.9,0.6c-6.6,0.2-13.6,0.6-20.7,0.6
	c-8.1,0-16.2-0.2-24.7-0.6h-8.4c-0.2,0-0.2-0.2-0.2-0.2h-7.7l0,0l0,0H700v3.3h0.2l0,0l0,0h8.1l0,0v0.2v1.2l8.9,0.6
	c15,0.9,29.9,0.9,45.1,0.2l8.9-0.6v-1.2v-0.2l0,0h7h5l0,0l0,0h0.9l0,0l0,0l0,0l0,0h-0.9l0,0l0,0h-11.8v1.2c0,0,0.2,0,0.2,0.2h11.5
	l0,0l0,0h0.9l0,0l0,0l0,0l0,0h-0.9l0,0l0,0h-10.9c0,0.2-0.2,0.2-0.2,0.2l-8.9,0.6c-7.3,0.2-14.1,0.6-21.2,0.6
	c-8.1,0-16.2-0.2-23.9-0.6l-9.2-0.6c-0.2,0-0.2-0.2-0.2-0.2h-7.7l0,0l0,0h-0.7v3.3h0.2l0,0l0,0h8.1l0,0v0.2v1.2l8.7,0.6l8.7,0.2
	l8.1,0.2v-3v-0.2h0.2h7.3h7.3l0,0h0.2v0.2v3.1l10.9-0.2l11.1-0.6v-1.2v-0.6l0,0h7h5l0,0l0,0h0.9v-16.7c0,0,0-0.2,0.2-0.2
	c0,0,0.2,0,0.2,0.2v44.6v0.9c0,0,0,0.2-0.2,0.2c0,0-0.2,0-0.2-0.2v-0.6h-8.4v1.7c0,0,0,0.2-0.2,0.2l0,0c0,0-0.2,0-0.2-0.2v-0.6h-1.3
	v0.6c0,0,0,0.2-0.2,0.2l0,0c0,0-0.2,0-0.2-0.2v-1.7H772v0.2h0.2c0,0,0.2,0,0.2,0.2v2.9h20.1v-1.8L791.6,1239.7L791.6,1239.7z"/>
<path fill="#CCCCCC" d="M598.5,1274.5h-5.2c-0.2,0-0.2,0-0.2-0.2l0,0h-5l-0.2,0.2h-0.6v1.7c0,0.2,0,0.2-0.2,0.2h-1.4v18.6h13.5
	v-20.7L598.5,1274.5L598.5,1274.5z"/>
<path fill="#CCCCCC" d="M776.7,1296.1v0.9c0,0.2,0,0.2-0.2,0.2H775v1.7h0.9c2.2,0.6,3.6,2,4.3,4.3v0.9l0,0v0.2l0,0l0,0l0,0l0,0l0,0
	h-4.6v21.7h0.6c0,0,0,0,0.2,0l0,0c0.2,0,0.2,0,0.6,0.2h7.3c0-0.2,0.2-0.2,0.6-0.2h0.2c0.2,0,0.2,0,0.6,0.2h5c0-0.2,0.2-0.2,0.6-0.2
	l0,0l0,0c0,0,0,0,0.2,0h1.7v-28.7h-8.2c-0.2,0-0.2,0-0.2-0.2v-1h-1.7c0,0-0.2,0-0.2-0.2L776.7,1296.1L776.7,1296.1z"/>
<path fill="#3964AF" d="M684,1274.5L684,1274.5l-0.2-0.2c0,0-0.2,0-0.2-0.2h-4.9l-0.2,0.2h-5c0,0,0,0-0.2,0l0,0l0,0c0,0,0,0-0.2,0
	H662v1.7c0,0.2,0,0.2-0.2,0.2h-2.2c-0.2,0-0.2,0-0.2-0.2v-1.7h-18.6c0,0-0.2,0-0.2-0.2h-5.2l-0.2,0.2h-0.9v52.1h24.5l0,0
	c0-0.2,0-0.2,0.2-0.2h3.6c0.2,0,0.2,0,0.2,0.2l0,0h25.2v-52.4h-3.3v0.6H684z"/>
<path fill="#3964AF" d="M769,1274.5C768.7,1274.5,768.7,1274.5,769,1274.5l-0.6-0.2c0,0-0.2,0-0.2-0.2h-4.5l-0.2,0.2h-5
	c0,0,0,0-0.2,0h-0.1c0,0,0,0.2-0.2,0.2h-20.7v1.7c0,0.2,0,0.2-0.2,0.2h-2.2c-0.2,0-0.2,0-0.2-0.2v-1.7h-34.9v1.7
	c0,0.2,0,0.2-0.2,0.2h-2.2c-0.2,0-0.2,0-0.2-0.2v-1.7h-0.7c0,0-0.2,0-0.2-0.2h-5.3l-0.2,0.2h-2v52.1h7.3l0,0c0-0.2,0-0.2,0.2-0.2
	h3.6c0.2,0,0.2,0,0.2,0.2l0,0h33.4l0,0c0-0.2,0-0.2,0.2-0.2h3.6c0.2,0,0.2,0,0.2,0.2l0,0H771l0,0c0-0.2,0-0.2,0.2-0.2h0.6v-51.8H769
	V1274.5z"/>
<path fill="#CCCCCC" d="M632.4,1298.1h-24.5c-0.2,0-0.2,0-0.2-0.2v-23.7h-2.5c0,0-0.2,0-0.2-0.2h-5.2c0,0,0,0.2-0.2,0.2v21.5
	c0,0.2,0,0.2-0.2,0.2h-14.1v7.3v22.7h1.7c0,0,0,0,0.2,0c0,0,0,0,0,0.2l0,0h33.4l0,0c0-0.2,0-0.2,0.2-0.2h3.6c0,0,0,0,0.2,0
	c0,0,0,0,0,0.2l0,0h7.7v-21.5L632.4,1298.1z"/>
<path fill="#CCCCCC" d="M794.5,1331.5L794.5,1331.5l-4,0.2c0,0-0.2,0-0.2-0.2v-3.3h-14.8v3.3c0,0,0,0.2-0.2,0.2h-3.6
	c0,0-0.2,0-0.2-0.2v-3.6h-33.7v3.6c0,0,0,0.2-0.2,0.2h-3.6c0,0-0.2,0-0.2-0.2v-3.6H700v3.6c0,0,0,0.2-0.2,0.2h-3.6
	c0,0-0.2,0-0.2-0.2v-3.6h-33.7v3.6c0,0,0,0.2-0.2,0.2l0,0l0,0h-3.6l0,0c0,0-0.2,0-0.2-0.2l0,0v-3.6h-32.9v3.6c0,0,0,0.2-0.2,0.2
	h-3.6c0,0-0.2,0-0.2-0.2v-3.6h-33.7v3.6c0,0,0,0.2-0.2,0.2h-3.3l0,0h232.1v-34.5H795L794.5,1331.5L794.5,1331.5z"/>
<rect x="624.3" y="1275.4" fill="#CCCCCC" width="8.1" height="21.5"/>
<path fill="#CCCCCC" d="M615.7,1274.5h-7v22.5h14.1v-21.2h-1.5c-0.2,0-0.2,0-0.2-0.2v-1.4L615.7,1274.5
	C616,1274.1,616,1274.5,615.7,1274.5z"/>
<path fill="#CCCCCC" d="M688.2,1180.8h-0.6l0,0v-47.1l0,0h0.6h7.7h0.2v-4.6v-18.4h-22.7v54.1h0.2h11.5c0.2,0,0.2,0,0.2,0.2v10.9
	c0,0.2,0,0.2-0.2,0.2h-0.2v0.9l0,0h-5l0,0v-0.9h-5.8h-0.2v44.6h22.5V1181h-0.2L688.2,1180.8L688.2,1180.8z"/>
<g>
	<path fill="#989798" d="M832.6,1271.8v25.6h-16.4v33.9H583.5v-33.9v-25.6h232.6H832.6 M838.2,1266.3h-5.5h-16.4H583.5H578v5.5v25.7
		v33.9v5.5h5.5h232.6h5.5v-5.5v-28.5h10.9h5.5v-5.5v-25.6v-5.7h0.1V1266.3z"/>
</g>
<g>
	<path fill="#989798" d="M708,1062.9l67.2,0.2l7.7,45.7h9.7l0.9-3.3l4.3,0.9l-5.2,73.3h3.6v65.5h-4v-1.7h-96.7v-21h-21.5v21.2h-88.1
		v1.4l-3.6,0.2l-5.5-50.3l3.6-0.2l0.2,0.9h0.9l0.2-88.3h3.6v2.5h4.6l7.3-42l65.3,0.1l6.1,33.1l32.4,0.2L708,1062.9 M703.6,1057.6
		l-0.9,4.5l-5.8,33.7h-23.3l-5.2-28.7l-1-4.5h-4.5l-65.2-0.2H593l-0.9,4.6l-6.1,35.1h-0.2h-3.6h-5.5v5.5l-0.2,82.4l-5.2,0.6l0.6,5.5
		l5.5,50.3l0.6,5l5-0.2l3.6-0.2l5.2-0.2v-1.2h82.4h5.5v-5.5v-15.6h10.6v15.2v5.5h5.5h91.2v1.7h5.5h4h5.5v-5.5v-65.8v-5.2h-3.3
		l4.6-67.4l0.2-5l-4.6-0.9l-4.3-0.9l-5-0.9l-0.9,4.3h-0.6l-7.3-41.2l-0.9-4.5h-5l-67.2-0.2L703.6,1057.6L703.6,1057.6z"/>
</g>
<g>
	<path fill="#989798" d="M542,1169.1v14.8h-0.6v60.1h-34v30.1h33.9v25.2h0.2v33.9h-24.7v-3.3h-14.7v-5.8H84.7v-48H70v-19.8h7.3v-9.5
		H70V1227h7.3l18.6-1.4l0.6-44.9v-0.6h405.1v-7.3h16.4v-4L542,1169.1 M547.2,1163.6h-5.5h-23.8h-5.5v4h-10.9h-5.5v5.5v1.7H96.1h-5.5
		v5.5v0.6l-0.6,39.8l-13.5,0.9h-7h-5.5v5.5v19.8v5.5v4.3v19.8v5.5h5.5h9.2v42v5.5h5.5H496v0.6v5.5h5.5h9.2v3.3h5.5h25.2h5.5v-5.5
		v-33.9v-5.5h-0.2v-19.8v-5.5h-5.7h-28.5v-19h28.5h5.5v-5.7V1189h0.6v-5.7v-14.8L547.2,1163.6L547.2,1163.6z"/>
</g>
<g>
	<rect x="673.7" y="1165.2" fill="#496CB4" width="10.4" height="12"/>
	<text transform="matrix(1 0 0 1 675.6953 1175.1572)" fill="#FFFFFF" font-family="'MyriadPro-Regular'" font-size="12.4246">E</text>
</g>
<g>
	<rect x="334.5" y="1230.3" fill="#496CB4" width="10.4" height="12"/>
	<text transform="matrix(1 0 0 1 336.2138 1240.4531)" fill="#FFFFFF" font-family="'MyriadPro-Regular'" font-size="12.4246">E</text>
</g>
<g>
	<rect x="527.5" y="1274.5" fill="#496CB4" width="10.4" height="12"/>
	<text transform="matrix(1 0 0 1 529.2266 1284.4658)" fill="#FFFFFF" font-family="'MyriadPro-Regular'" font-size="12.4246">E</text>
</g>
<rect x="557.9" y="1324.2" opacity="0.6" fill="#496CB4" enable-background="new    " width="7.7" height="1.4"/>
<rect x="557.9" y="1326.9" opacity="0.6" fill="#496CB4" enable-background="new    " width="7.7" height="1.4"/>
<rect x="557.9" y="1329.1" opacity="0.6" fill="#496CB4" enable-background="new    " width="7.7" height="1.4"/>
<rect x="557.9" y="1331.2" opacity="0.6" fill="#496CB4" enable-background="new    " width="7.7" height="1.4"/>
<rect x="557.9" y="1333.7" opacity="0.6" fill="#496CB4" enable-background="new    " width="7.7" height="1.4"/>
<rect x="557.9" y="1336" opacity="0.6" fill="#496CB4" enable-background="new    " width="7.7" height="1.4"/>
<rect x="557.9" y="1338.2" opacity="0.6" fill="#496CB4" enable-background="new    " width="7.7" height="1.4"/>
<rect x="557.9" y="1312.2" opacity="0.6" fill="#496CB4" enable-background="new    " width="7.7" height="1.4"/>
<rect x="557.9" y="1314.4" opacity="0.6" fill="#496CB4" enable-background="new    " width="7.7" height="1.4"/>
<rect x="557.9" y="1317.1" opacity="0.6" fill="#496CB4" enable-background="new    " width="7.7" height="1.4"/>
<rect x="557.9" y="1319.6" opacity="0.6" fill="#496CB4" enable-background="new    " width="7.7" height="1.4"/>
<rect x="557.9" y="1321.7" opacity="0.6" fill="#496CB4" enable-background="new    " width="7.7" height="1.4"/>
<rect x="548.6" y="1324.2" opacity="0.6" fill="#496CB4" enable-background="new    " width="7.7" height="1.4"/>
<rect x="548.6" y="1326.9" opacity="0.6" fill="#496CB4" enable-background="new    " width="7.7" height="1.4"/>
<rect x="548.6" y="1329.1" opacity="0.6" fill="#496CB4" enable-background="new    " width="7.7" height="1.4"/>
<rect x="548.6" y="1331.2" opacity="0.6" fill="#496CB4" enable-background="new    " width="7.7" height="1.4"/>
<rect x="548.6" y="1333.7" opacity="0.6" fill="#496CB4" enable-background="new    " width="7.7" height="1.4"/>
<rect x="548.6" y="1336" opacity="0.6" fill="#496CB4" enable-background="new    " width="7.7" height="1.4"/>
<rect x="548.6" y="1338.2" opacity="0.6" fill="#496CB4" enable-background="new    " width="7.7" height="1.4"/>
<rect x="548.6" y="1312.2" opacity="0.6" fill="#496CB4" enable-background="new    " width="7.7" height="1.4"/>
<rect x="548.6" y="1314.4" opacity="0.6" fill="#496CB4" enable-background="new    " width="7.7" height="1.4"/>
<rect x="548.6" y="1317.1" opacity="0.6" fill="#496CB4" enable-background="new    " width="7.7" height="1.4"/>
<rect x="548.6" y="1319.6" opacity="0.6" fill="#496CB4" enable-background="new    " width="7.7" height="1.4"/>
<rect x="548.6" y="1321.7" opacity="0.6" fill="#496CB4" enable-background="new    " width="7.7" height="1.4"/>
<rect x="80.9" y="1193.9" opacity="0.6" fill="#496CB4" enable-background="new    " width="7.7" height="1.4"/>
<rect x="80.9" y="1196" opacity="0.6" fill="#496CB4" enable-background="new    " width="7.7" height="1.4"/>
<rect x="80.9" y="1198.3" opacity="0.6" fill="#496CB4" enable-background="new    " width="7.7" height="1.4"/>
<rect x="80.9" y="1201" opacity="0.6" fill="#496CB4" enable-background="new    " width="7.7" height="1.4"/>
<rect x="80.9" y="1202.9" opacity="0.6" fill="#496CB4" enable-background="new    " width="7.7" height="1.4"/>
<rect x="80.9" y="1205.2" opacity="0.6" fill="#496CB4" enable-background="new    " width="7.7" height="1.4"/>
<rect x="80.9" y="1207.8" opacity="0.6" fill="#496CB4" enable-background="new    " width="7.7" height="1.4"/>
<rect x="81.1" y="1181.6" opacity="0.6" fill="#496CB4" enable-background="new    " width="7.7" height="1.4"/>
<rect x="81.1" y="1184.2" opacity="0.6" fill="#496CB4" enable-background="new    " width="7.7" height="1.4"/>
<rect x="81.1" y="1186.3" opacity="0.6" fill="#496CB4" enable-background="new    " width="7.7" height="1.4"/>
<rect x="81.1" y="1188.8" opacity="0.6" fill="#496CB4" enable-background="new    " width="7.7" height="1.4"/>
<rect x="81.1" y="1191" opacity="0.6" fill="#496CB4" enable-background="new    " width="7.7" height="1.4"/>
<rect x="71.7" y="1193.9" opacity="0.6" fill="#496CB4" enable-background="new    " width="7.7" height="1.4"/>
<rect x="71.7" y="1196" opacity="0.6" fill="#496CB4" enable-background="new    " width="7.7" height="1.4"/>
<rect x="71.7" y="1198.3" opacity="0.6" fill="#496CB4" enable-background="new    " width="7.7" height="1.4"/>
<rect x="71.7" y="1201" opacity="0.6" fill="#496CB4" enable-background="new    " width="7.7" height="1.4"/>
<rect x="71.7" y="1202.9" opacity="0.6" fill="#496CB4" enable-background="new    " width="7.7" height="1.4"/>
<rect x="71.7" y="1205.2" opacity="0.6" fill="#496CB4" enable-background="new    " width="7.7" height="1.4"/>
<rect x="71.7" y="1207.8" opacity="0.6" fill="#496CB4" enable-background="new    " width="7.7" height="1.4"/>
<rect x="71.9" y="1181.6" opacity="0.6" fill="#496CB4" enable-background="new    " width="7.7" height="1.4"/>
<rect x="71.9" y="1184.2" opacity="0.6" fill="#496CB4" enable-background="new    " width="7.7" height="1.4"/>
<rect x="71.9" y="1186.3" opacity="0.6" fill="#496CB4" enable-background="new    " width="7.7" height="1.4"/>
<rect x="71.9" y="1188.8" opacity="0.6" fill="#496CB4" enable-background="new    " width="7.7" height="1.4"/>
<rect x="71.9" y="1191" opacity="0.6" fill="#496CB4" enable-background="new    " width="7.7" height="1.4"/>
<g>
	<g>
		<path fill="#4A6DB4" d="M533.3,1199.5c-0.6,0-1.2-0.6-1.2-1.2c0-0.7,0.6-1.2,1.2-1.2c0.7,0,1.2,0.6,1.2,1.2
			C534.4,1199,533.7,1199.5,533.3,1199.5z"/>
		<path fill="#4A6DB4" d="M533.7,1200c1.2,0,1.4,0.9,1.7,1.4l0.9,3.1c0,0.2,0,0.6-0.2,0.6s-0.6,0-0.6-0.2l-0.9-2.9
			c0-0.2-0.2-0.2-0.2-0.2s-0.2,0.2,0,0.2l1.7,5h-1.7c0,2,0,4,0,4c0,0.6-0.2,0.6-0.6,0.6c0,0-0.6,0-0.6-0.6s0-3.6,0-3.6
			c0-0.2,0-0.2-0.2-0.2c-0.2,0-0.2,0-0.2,0.2c0,0,0,3.1,0,3.6s-0.2,0.6-0.6,0.6c0,0-0.6,0-0.6-0.6c0,0,0-1.7,0-4h-1.7l1.4-5
			c0-0.2,0-0.2,0-0.2s-0.2,0-0.2,0.2l-0.9,2.9c0,0.2-0.2,0.2-0.6,0.2c-0.2,0-0.2-0.2-0.2-0.6l0.9-3.1c0.2-0.6,0.6-1.4,1.7-1.4H533.7
			z"/>
	</g>
</g>
<g>
	<g>
		<path fill="#4A6DB4" d="M533.3,1298.1c-0.6,0-1.2-0.6-1.2-1.2c0-0.6,0.6-1.2,1.2-1.2c0.7,0,1.2,0.6,1.2,1.2
			C534.4,1297.6,533.7,1298.1,533.3,1298.1z"/>
		<path fill="#4A6DB4" d="M533.7,1298.4c1.2,0,1.4,0.9,1.7,1.4l0.9,3.1c0,0.2,0,0.6-0.2,0.6s-0.6,0-0.6-0.2l-0.9-2.9
			c0-0.2-0.2-0.2-0.2-0.2s-0.2,0.2,0,0.2l1.7,5h-1.7c0,2,0,4,0,4c0,0.6-0.2,0.6-0.6,0.6c0,0-0.6,0-0.6-0.6s0-3.6,0-3.6
			c0-0.2,0-0.2-0.2-0.2c-0.2,0-0.2,0-0.2,0.2c0,0,0,3.1,0,3.6s-0.2,0.6-0.6,0.6c0,0-0.6,0-0.6-0.6c0,0,0-1.7,0-4h-1.7l1.4-5
			c0-0.2,0-0.2,0-0.2s-0.2,0-0.2,0.2l-0.9,2.9c0,0.2-0.2,0.2-0.6,0.2c-0.2,0-0.2-0.2-0.2-0.6l0.9-3.1c0.2-0.6,0.6-1.4,1.7-1.4H533.7
			z"/>
	</g>
</g>
<g>
	<g>
		<path fill="#4A6DB4" d="M511,1201.4c-0.6,0-1.2-0.6-1.2-1.2s0.6-1.2,1.2-1.2c0.7,0,1.2,0.6,1.2,1.2S511.7,1201.4,511,1201.4z"/>
	</g>
	<path fill="#4A6DB4" d="M509,1203.9v2.2c0,0.6-0.2,0.6-0.6,0.6c-0.2,0-0.6,0-0.6-0.6v-3.1c0-1.4,0.6-1.7,1.7-1.7h1.7
		c1.2,0,1.7,0.2,1.7,1.7v3.1c0,0.6-0.2,0.6-0.6,0.6c-0.2,0-0.6,0-0.6-0.6v-2.2c0-0.2-0.2-0.2-0.2-0.2s-0.2,0-0.2,0.2
		c0,0.2,0,7.7,0,7.7c0,0.6-0.6,0.6-0.6,0.6c-0.2,0-0.6,0-0.6-0.6s0-4.5,0-4.5s0-0.2-0.2-0.2c0,0-0.2,0-0.2,0.2c0,0,0,4.3,0,4.5
		c0,0.2-0.6,0.6-0.6,0.6s-0.6,0-0.6-0.6C509.4,1211.8,509.4,1204.4,509,1203.9C509.4,1203.5,509.4,1203.5,509,1203.9
		C509.4,1203.5,509,1203.9,509,1203.9z"/>
</g>
<g>
	<g>
		<path fill="#4A6DB4" d="M511.2,1298.6c-0.6,0-1.2-0.6-1.2-1.2s0.6-1.2,1.2-1.2c0.6,0,1.2,0.6,1.2,1.2S511.9,1298.6,511.2,1298.6z"
			/>
	</g>
	<path fill="#4A6DB4" d="M509.4,1301.5v2.5c0,0.6-0.2,0.6-0.6,0.6c-0.2,0-0.6,0-0.6-0.6v-3.1c0-1.4,0.9-1.7,2-1.7h2
		c1.2,0,2,0.2,2,1.7v3.1c0,0.6-0.2,0.6-0.6,0.6c-0.3,0-0.6,0-0.6-0.6v-2.5c0-0.2-0.2-0.2-0.2-0.2s-0.2,0-0.2,0.2c0,0.2,0,8.1,0,8.1
		c0,0.6-0.6,0.6-0.6,0.6s-0.6,0-0.6-0.6s0-4.6,0-4.6s0-0.2-0.2-0.2c0,0-0.2,0-0.2,0.2c0,0,0,4.3,0,4.6c0,0.3-0.6,0.6-0.6,0.6
		s-0.6,0-0.6-0.6c0,0,0-7.7,0-8.1c0-0.2-0.2-0.2-0.2-0.2C509.4,1300.9,509.4,1301.3,509.4,1301.5z"/>
</g>
<g>
	<rect x="563.4" y="1339.6" fill="#FFFFFF" width="20.3" height="13.6"/>
	<polygon fill="#4A6DB4" points="576.5,1356.8 569.7,1357.1 573.1,1351.4 	"/>
</g>
<g>
	<rect x="552" y="1155.1" fill="#FFFFFF" width="20.3" height="13.6"/>
	<polygon fill="#4A6DB4" points="559,1151.2 565.6,1151.2 562.2,1156.9 	"/>
</g>
<g>
	<rect x="81.4" y="1213.1" fill="#FFFFFF" width="8.7" height="13.6"/>
	<polygon fill="#4A6DB4" points="82.6,1212 89.1,1212 85.8,1217.6 	"/>
</g>
<g>
	<polygon fill="#FFFFFF" points="538.1,1274.5 504.2,1274.5 503.7,1249.8 538.1,1249.8 	"/>
	<polygon fill="#4A6DB4" points="521.4,1257.2 521.4,1263.5 515.6,1260.2 	"/>
</g>
<g>
	<rect x="591" y="1242.6" fill="#FFFFFF" width="20.3" height="13.6"/>
	<polygon fill="#4A6DB4" points="603.8,1260.2 597.3,1260.2 600.4,1254.6 	"/>
</g>
<g>
	<rect x="678.8" y="1262.4" fill="#FFFFFF" width="6.6" height="11.5"/>
	<polygon fill="#4A6DB4" points="679.3,1258.6 685.7,1258.6 682.6,1264.1 	"/>
</g>
<g>
	<rect x="690.1" y="1262.4" fill="#FFFFFF" width="6.6" height="11.5"/>
	<polygon fill="#4A6DB4" points="690.8,1258.6 697.4,1258.6 694.2,1264.1 	"/>
</g>
<g>
	<rect x="763.2" y="1262.4" fill="#FFFFFF" width="6.6" height="11.5"/>
	<polygon fill="#4A6DB4" points="764.1,1258.6 770.5,1258.6 767.5,1264.1 	"/>
</g>
<g>
	<rect x="768.7" y="1242.6" fill="#FFFFFF" width="20.3" height="13.6"/>
	<polygon fill="#4A6DB4" points="781.9,1260.2 775.4,1260.2 778.4,1254.6 	"/>
</g>
<g>
	
		<text transform="matrix(1 0 0 1 618.7832 1126.9785)" fill="#FFFFFF" font-family="'TradeGothic-BoldCondTwenty'" font-size="9.8581">0116</text>
</g>
<g>
	
		<text transform="matrix(1 0 0 1 655.2939 1301.5059)" fill="#FFFFFF" font-family="'TradeGothic-BoldCondTwenty'" font-size="9.8581">0113</text>
</g>
<g>
	
		<text transform="matrix(1 0 0 1 730.6523 1126.9785)" fill="#FFFFFF" font-family="'TradeGothic-BoldCondTwenty'" font-size="9.8581">0104</text>
</g>
<g>
	
		<text transform="matrix(1 0 0 1 722.9873 1300.9561)" fill="#FFFFFF" font-family="'TradeGothic-BoldCondTwenty'" font-size="9.8581">0103</text>
</g>
<g opacity="0.5">
	<g>
		
			<text transform="matrix(1 0 0 1 63.2724 1072.8477)" fill="#999999" font-family="'TradeGothic-BoldCondTwenty'" font-size="13.6919">Level </text>
	</g>
	<circle fill="#999999" cx="117.9" cy="1070.7" r="23.1"/>
	
		<text transform="matrix(1 0 0 1 106.5908 1087.9209)" fill="#FFFFFF" font-family="'TradeGothic-BoldCondTwenty'" font-size="43.8143">1</text>
</g>
<rect x="794.8" y="1276" opacity="0.6" fill="#496CB4" enable-background="new    " width="1.4" height="7.7"/>
<rect x="797.2" y="1276" opacity="0.6" fill="#496CB4" enable-background="new    " width="1.4" height="7.7"/>
<rect x="799.4" y="1276" opacity="0.6" fill="#496CB4" enable-background="new    " width="1.4" height="7.7"/>
<rect x="802" y="1276" opacity="0.6" fill="#496CB4" enable-background="new    " width="1.4" height="7.7"/>
<rect x="804.1" y="1276" opacity="0.6" fill="#496CB4" enable-background="new    " width="1.4" height="7.7"/>
<rect x="806.4" y="1276" opacity="0.6" fill="#496CB4" enable-background="new    " width="1.4" height="7.7"/>
<rect x="808.6" y="1276" opacity="0.6" fill="#496CB4" enable-background="new    " width="1.4" height="7.7"/>
<rect x="782.7" y="1275.8" opacity="0.6" fill="#496CB4" enable-background="new    " width="1.4" height="7.7"/>
<rect x="785" y="1275.8" opacity="0.6" fill="#496CB4" enable-background="new    " width="1.4" height="7.7"/>
<rect x="787.3" y="1275.8" opacity="0.6" fill="#496CB4" enable-background="new    " width="1.4" height="7.7"/>
<rect x="790" y="1275.8" opacity="0.6" fill="#496CB4" enable-background="new    " width="1.4" height="7.7"/>
<rect x="792.2" y="1275.8" opacity="0.6" fill="#496CB4" enable-background="new    " width="1.4" height="7.7"/>
<rect x="794.8" y="1285.2" opacity="0.6" fill="#496CB4" enable-background="new    " width="1.4" height="7.7"/>
<rect x="797.2" y="1285.2" opacity="0.6" fill="#496CB4" enable-background="new    " width="1.4" height="7.7"/>
<rect x="799.4" y="1285.2" opacity="0.6" fill="#496CB4" enable-background="new    " width="1.4" height="7.7"/>
<rect x="802" y="1285.2" opacity="0.6" fill="#496CB4" enable-background="new    " width="1.4" height="7.7"/>
<rect x="804.1" y="1285.2" opacity="0.6" fill="#496CB4" enable-background="new    " width="1.4" height="7.7"/>
<rect x="806.4" y="1285.2" opacity="0.6" fill="#496CB4" enable-background="new    " width="1.4" height="7.7"/>
<rect x="808.6" y="1285.2" opacity="0.6" fill="#496CB4" enable-background="new    " width="1.4" height="7.7"/>
<rect x="782.7" y="1284.9" opacity="0.6" fill="#496CB4" enable-background="new    " width="1.4" height="7.7"/>
<rect x="785" y="1284.9" opacity="0.6" fill="#496CB4" enable-background="new    " width="1.4" height="7.7"/>
<rect x="787.3" y="1284.9" opacity="0.6" fill="#496CB4" enable-background="new    " width="1.4" height="7.7"/>
<rect x="790" y="1284.9" opacity="0.6" fill="#496CB4" enable-background="new    " width="1.4" height="7.7"/>
<rect x="792.2" y="1284.9" opacity="0.6" fill="#496CB4" enable-background="new    " width="1.4" height="7.7"/>
</svg>
