<?xml version="1.0" encoding="utf-8"?>
<!-- Generator: Adobe Illustrator 19.1.0, SVG Export Plug-In . SVG Version: 6.00 Build 0)  -->
<svg version="1.1" id="Layer_1" xmlns="http://www.w3.org/2000/svg" xmlns:xlink="http://www.w3.org/1999/xlink" x="0px" y="0px"
	 viewBox="0 0 900 600" style="enable-background:new 0 0 900 600;" xml:space="preserve">
<style type="text/css">
	.st0{fill:#CDCCCC;}
	.st1{fill:#3A65B0;}
	.st2{fill:#989798;}
	.st3{fill:#4B6DB4;}
	.st4{fill:#FFFFFF;}
	.st5{font-family:'MyriadPro-Regular';}
	.st6{font-size:12.4246px;}
	.st7{opacity:0.6;fill:#4B6DB4;enable-background:new    ;}
	.st8{fill:#4C6EB5;}
	.st9{font-family:'ArialMT';}
	.st10{font-size:9.8581px;}
	.st11{opacity:0.5;}
	.st12{fill:#989898;}
	.st13{font-size:13.6919px;}
	.st14{font-size:43.8143px;}
</style>
<rect x="112.8" y="361.4" class="st0" width="22.4" height="4.5"/>
<path class="st0" d="M311.7,413.2L311.7,413.2c0-0.2,0-0.6,0.2-0.6l0,0l-3.1-2.9l0,0l0.2-0.2l0,0l0,0l3.1,2.9v-4
	c-0.2,0-0.2-0.2-0.2-0.6v-0.2c0-0.2,0-0.2,0.2-0.2v-37.6h-0.6c-0.2,0-0.2,0-0.2-0.2v-7.7h-4.4v0.6l0,0h-8.4l0,0v-0.6l0,0v5
	c0,0.2,0,0.2-0.2,0.2h-21.7v2.5c0,0,0,0.2-0.2,0.2s-0.2,0-0.2-0.2v-2.5h-2v2.5c0,0,0,0.2-0.2,0.2s-0.2,0-0.2-0.2v-2.5h-21.9
	c-0.2,0-0.2,0-0.2-0.2v-5l0,0v0.6l0,0h-8.4l0,0v-0.6h-4.5v7.7c0,0.2,0,0.2-0.2,0.2H238v37.6l0.2,0.2v0.2c0,0.2-0.2,0.2-0.2,0.6v4
	h4.6c0.2,0,0.6,0.2,0.6,0.6v0.2c0,0.2-0.2,0.6-0.6,0.6h-4.5l0,0v4.5h74.2L311.7,413.2C311.7,413.5,311.7,413.2,311.7,413.2z"/>
<path class="st0" d="M221.3,356.5h-21.5v5c0,0,0,0.2-0.2,0.2h-12.2c0,0-0.2,0-0.2-0.2v-5h-10v9.5h44.3v-9.5H221.3z"/>
<rect x="252.7" y="356.5" class="st0" width="44" height="9.5"/>
<rect x="136" y="356.5" class="st0" width="10" height="9.5"/>
<rect x="98.5" y="356.5" class="st0" width="13.5" height="9.5"/>
<path class="st0" d="M387,413.2L387,413.2c0-0.2,0-0.6,0.2-0.6l-3.1-2.9l0,0l0.2-0.2l0,0l0,0l3.1,2.9v-4c-0.2,0-0.2-0.2-0.2-0.6
	v-0.2c0-0.2,0-0.2,0.2-0.2v-37.6h-0.5c-0.2,0-0.2,0-0.2-0.2v-7.7h-4.5v0.6l0,0h-8.4l0,0v-0.6l0,0v7c0,0.2,0,0.2-0.2,0.2h-22.2v0.9
	c0,0.2,0,0.2-0.2,0.2h-2.3c-0.2,0-0.2,0-0.2-0.2v-0.9h-21.5c-0.2,0-0.2,0-0.2-0.2v-7l0,0v0.6l0,0h-8.5l0,0v-0.6h-4.6v7.7
	c0,0.2,0,0.2-0.2,0.2h-0.6v37.6l0.2,0.2v0.2c0,0.2-0.2,0.2-0.2,0.6v4h4.6c0.2,0,0.6,0.2,0.6,0.6v0.2c0,0.2-0.2,0.6-0.6,0.6h-4.5l0,0
	v4.5h74.2L387,413.2C387.3,413.5,387,413.2,387,413.2z"/>
<polygon class="st1" points="710.8,190.1 772.2,190.1 774.5,190.1 773.4,182.9 770.6,166.9 712,166.9 707.9,190.1 "/>
<rect x="252.7" y="331.3" class="st0" width="44.3" height="8.9"/>
<rect x="478.8" y="331.3" class="st0" width="10" height="9.5"/>
<path class="st0" d="M462.6,408.1v-38.2H462c-0.2,0-0.2,0-0.2-0.2V362h-4.5v0.6l0,0h-8.4l0,0V362l0,0v5v0.2c0,0,0,0-0.2,0h-21.8v2.5
	c0,0.2,0,0.2-0.2,0.2h-2.2c-0.2,0-0.2,0-0.2-0.2v-2.5h-21.6c-0.2,0-0.2,0-0.2-0.2v-5l0,0v0.6l0,0h-8.1l0,0V362h-4.6v7.7
	c0,0.2,0,0.2-0.2,0.2H389v37.6l0.2,0.2v0.2c0,0.2-0.2,0.2-0.2,0.6v4h4.6c0.2,0,0.6,0.2,0.6,0.6v0.2c0,0.2-0.2,0.6-0.6,0.6h-4.5l0,0
	v4.5h74.2v-4.6h-4.6c0,0-0.2,0-0.2-0.2v-0.2c0,0,0-0.2,0.2-0.2h5l0,0L462.6,408.1L462.6,408.1L462.6,408.1z"/>
<path class="st1" d="M783.5,277.6C783.5,277.6,783.5,277.9,783.5,277.6h-8.2c0,0.2-0.2,0.2-0.2,0.2l-9.5,0.6
	c-7.7,0.2-15.8,0.6-23.9,0.6c-8.2,0-15.8-0.2-23.9-0.6l-9.5-0.6c-0.2,0-0.2-0.2-0.2-0.2h-8.2l0,0l0,0h-0.2v3.3h0.2l0,0l0,0h8.1l0,0
	v0.2v1.2l8.9,0.6c15.6,0.9,30.7,0.9,45.1,0.2l8.9-0.6c0.2,0,0.6,0.2,0.6,0.2h0.2v-2.2c0,0,0-0.2,0.2-0.2h2.2c0,0,0.2,0,0.2,0.2v2.2
	l0,0l0,0V281l0,0l0,0h7h1.7l0,0l0,0h2.5l0.2-3.6h-2.2C783.5,277.9,783.5,277.6,783.5,277.6z"/>
<path class="st0" d="M696.4,207.7h3.3l1.4-7.5h-0.2l0,0v-0.9h-10.4v0.9l0,0h-0.2l0,0v-0.9h-10v0.9l0,0h-0.2l0,0v-0.9h-10.6v0.9l0,0
	h-0.2l1.4,7.5h3.6H696.4L696.4,207.7z"/>
<path class="st0" d="M69.9,324.4v18.9h8.4c0-0.2,0.2-0.2,0.6-0.2l0,0h0.9l0,0l0,0h5.7V337v-1.4c0,0,0,0,0-0.2v-10.9h-8.7h-6.9V324.4
	z M82.9,325.5C82.9,325.5,82.5,325.5,82.9,325.5l-11.8,0.2v16.2h13.6v-5.8l0,0l0,0l0,0c0,0-0.2,0-0.2-0.2v-8.1c0,0,0-0.2,0.2-0.2
	c0,0,0.2,0,0.2,0.2v8.1l0,0c0,0,0.2,0,0.2,0.2v6.3c0,0,0,0.2-0.2,0.2H71l0,0c0,0-0.2,0-0.2-0.2l0,0v-16.7c0,0,0-0.2,0.2-0.2H82.9
	C82.5,325.2,82.9,325.2,82.9,325.5z"/>
<polygon class="st1" points="661.3,189.8 658.3,171.4 601.3,171.4 597.8,189.8 "/>
<path class="st1" d="M773.4,192.3v1.4c0,0.2,0,0.2-0.2,0.2h-63.7c-0.2,0-0.2,0-0.2-0.2v-1.4h-2l-4,22.4v0.2h-0.2l-3.2-0.7
	c-0.2,0-0.2-0.2-0.2-0.2v-0.2h-0.2v18.4h0.2l0,0l0,0h8.1l0,0v0.2v1.2l8.9,0.6l9.2,0.2l8.9,0.2l0,0l0,0l0,0l0,0l0,0l0,0l0,0l0,0l0,0
	v0.6h11.8v-0.9c0-0.2,0.2-0.6,0.6-0.6l8.9-0.2l9.2-0.2l8.9-0.6v-1.4l0,0l0,0l0,0l0,0l0,0l0,0l0,0l0,0l11.1,0.9l0,0l0,0l0,0l0,0l0,0
	l-11.1-0.9v1.2c0,0,0.2,0,0.2,0.2l10.9,0.9l0,0l0,0l0,0l0,0l0,0l-10.6-0.9c0,0.2-0.2,0.2-0.2,0.2l-8.9,0.6l-9.2,0.2l-8.7,0.2v0.9
	c0,0.2-0.2,0.6-0.6,0.6h-12.8c-0.2,0-0.6-0.2-0.6-0.6v0.2l-8.7-0.2l-9.2-0.2l-8.9-0.6c-0.2,0-0.2-0.2-0.2-0.2h-6.6l0,0l0,0l0,0l0,0
	l0,0l0,0h-0.2v5h0.2l0,0l0,0l0,0l0,0h-0.2v1.4h0.2l0,0l0,0h7.7l0.2-0.2v-1.2h-8.1l0,0l0,0l0,0l0,0h8.1l0,0v0.2v1.2l9.5,0.6
	c16.2,0.9,31.7,0.9,47.7,0l9.5-0.6v-1.4l0,0l0,0l0,0l0,0l0,0l0,0l0,0l7,0.6l0,0l3.6,0.2l0,0l0,0l0,0l0,0l0,0l-10.6-0.9v1.2
	c0,0,0.2,0,0.2,0.2l10.4,0.9l0,0l0,0l0,0l0,0l0,0l-10.4-0.9c0,0.2-0.2,0.2-0.2,0.2l-9.5,0.6c-8.1,0.6-15.8,0.6-23.9,0.6
	c-8.1,0-15.8-0.2-23.9-0.6l-9.5-0.6c-0.2,0-0.2-0.2-0.2-0.2h-7.6l0,0l0,0h-0.4v3.3h0.2l0,0l0,0h8.1l0,0v0.2v1.2l9.5,0.6
	c15.8,0.9,31.7,0.9,47.7,0l9.5-0.6v-1.4l0,0l0,0l0,0l0,0l0,0l7,0.6l0,0l3.3,0.2l0,0l0,0l0,0l0,0l0,0l-10-0.9v1.2c0,0,0.2,0,0.2,0.2
	l10,0.9l0,0l0,0l0,0l0,0l0,0l-9.7-0.6c0,0.2-0.2,0.2-0.2,0.2l-9.5,0.6c-7.7,0.6-15.8,0.6-23.9,0.6c-8.1,0-15.8-0.2-23.9-0.6
	l-9.5-0.6c-0.2,0-0.2-0.2-0.2-0.2h-8.2l0,0l0,0h-0.2v3.3h0.2l0,0l0,0h8.1l0,0v0.2v1.2l9.5,0.6c15.8,0.9,31.7,0.9,47.7,0l9.5-0.6
	v-1.4l0,0l0,0l0,0l0,0l0,0l0,0l0,0l0,0l0,0l0,0l0,0l7,0.6l0,0l3.1,0.2l0,0l0,0l0,0l0,0l0,0l-9.7-0.9v1.2c0,0,0.2,0,0.2,0.2l9.5,0.9
	l0,0l0,0l0,0l0,0l0,0l-9.5-0.6c0,0.2-0.2,0.2-0.2,0.2l-9.5,0.6c-7.7,0.6-15.8,0.6-23.9,0.6c-8.1,0-15.8-0.2-23.9-0.6l-9.5-0.6
	c-0.2,0-0.2-0.2-0.2-0.2h-7.9l0,0l0,0l0,0l0,0l0,0l0,0h-0.2v3.3h0.2l0,0l0,0h8.1l0,0v0.2v1.2l9.5,0.6c15.8,0.9,31.7,0.9,47.7,0
	l9.5-0.6v-1.4l0,0l0,0l6.6,0.6l0,0l2.9,0.2l0,0l0,0l0,0l0,0l0,0l-9.5-0.6v1.2c0,0,0.2,0,0.2,0.2l9.2,0.9l0,0l0,0l0,0l0,0l0,0
	l-9.2-0.6c0,0.2-0.2,0.2-0.2,0.2l-9.5,0.6c-7.7,0.6-15.8,0.6-23.9,0.6c-8.1,0-15.8-0.2-23.9-0.6l-9.5-0.6c-0.2,0-0.2-0.2-0.2-0.2
	h-7.6l0,0l0,0h-0.2v3.3h0.2l0,0l0,0h8.1l0,0v0.2v1.2l9.5,0.6c15.8,0.9,31.7,0.9,47.7,0l9.5-0.6v-1.4l0,0l0,0l0,0l0,0l0,0l0,0l0,0
	l0,0l0,0l0,0l0,0l9.2,0.6l0,0l0,0l0,0l0,0l0,0l-8.9-0.6v1.2c0,0,0.2,0,0.2,0.2l8.9,0.6l0,0l0,0l0,0l0,0l0,0l-8.4-0.4
	c0,0.2-0.2,0.2-0.2,0.2l-9.5,0.6c-7.7,0.6-15.8,0.6-23.9,0.6c-8.1,0-15.8-0.2-23.9-0.6l-9.5-0.6c-0.2,0-0.2-0.2-0.2-0.2H701l0,0l0,0
	h-0.4v3.3h0.2l0,0l0,0h8.1l0,0v0.2v1.2l9.5,0.6c15.8,0.9,31.7,0.9,47.7,0l9.5-0.6v-1.4l0,0l0,0l0,0l0,0l0,0l7,0.6l0,0h2l0,0l0,0l0,0
	l0,0l0,0l-8.7-0.6v1.2c0,0,0.2,0,0.2,0.2l8.4,0.6l0,0l0,0l0,0l0,0l0,0l-8.4-0.6c0,0.2-0.2,0.2-0.2,0.2l-9.5,0.6
	c-7.7,0.2-15.8,0.6-23.9,0.6c-8.2,0-15.8-0.2-23.9-0.6l-9.3-0.4c-0.2,0-0.2-0.2-0.2-0.2h-9.2l0,0l0,0h-0.3v3.3h0.2l0,0l0,0l0,0l0,0
	l0,0l0,0h8.1l0,0l0,0l0,0v0.2v1.2l9.5,0.6c15.8,0.9,31.7,0.9,47.7,0l9.5-0.6v-1.4l0,0l0,0l0,0l0,0l0,0l0,0l0,0l0,0l0,0l0,0l0,0l0,0
	l0,0l0,0l0,0l0,0l0,0l0,0l0,0l0,0l0,0l0,0l0,0l0,0l0,0l0,0l0,0l8.4,0.6l0,0l0,0l0,0l0,0l0,0l-8.4-0.6v1.2c0,0,0.2,0,0.2,0.2l8.1,0.6
	l0,0l0,0l0,0l0,0l0,0l-8.1-0.6c0,0.2-0.2,0.2-0.2,0.2l-9.5,0.6c-7.7,0.2-15.8,0.6-23.9,0.6c-8.1,0-15.8-0.2-23.9-0.6l-9.5-0.6
	c-0.2,0-0.2-0.2-0.2-0.2h-7.7l0,0l0,0h-0.2v3.3h0.2l0,0l0,0h8.1l0,0v0.2v1.2l9.5,0.6c15.8,0.9,31.7,0.9,47.7,0l9.5-0.6v2.5v-0.2l0,0
	h5.8h2.5l0,0l0,0h3.1l0.2-2.5l-3.3-0.2l0,0l0,0l0,0l0,0l3.3,0.2l0.2-3.1l-2-0.2l-0.2,2.5c0,0,0,0.2-0.2,0.2l0,0h-0.6
	c0,0-0.2,0-0.2-0.2l3.3-48c0,0,0-0.2,0.2-0.2h0.9l0,0l0,0l-0.2,2.5h2l1.2-14.8h-8.9l0.2,1.7v0.2l0,0v0.6v0.2c0,0,0,0-0.2,0l0,0h-3.3
	l0,0l0,0l0,0l0,0l0,0l0,0l0,0l0,0l0,0l0,0l-4-22.4h-1.2v-1.2h0.4v-0.4h-0.1v0.8H773.4z M724.9,206.8
	C724.9,206.8,724.6,207,724.9,206.8L724,207c0,0-0.2,0-0.2-0.2v-0.6c0,0,0-0.2,0.2-0.2h0.6c0,0,0.2,0,0.2,0.2L724.9,206.8
	L724.9,206.8z M741.8,206.8C741.8,206.8,741.8,207,741.8,206.8l-0.9,0.2c0,0-0.2,0-0.2-0.2v-0.6c0,0,0-0.2,0.2-0.2h0.6
	c0,0,0.2,0,0.2,0.2L741.8,206.8L741.8,206.8z M758.9,206.8C758.9,206.8,758.9,207,758.9,206.8L758,207c0,0-0.2,0-0.2-0.2v-0.6
	c0,0,0-0.2,0.2-0.2h0.6c0,0,0.2,0,0.2,0.2L758.9,206.8L758.9,206.8z M784,271.5L784,271.5C784,271.5,783.8,271.5,784,271.5
	L784,271.5L784,271.5c-0.2,0-0.2,0-0.2,0C783.5,271.2,783.5,271.2,784,271.5c-0.2,0-0.2-0.2-0.2-0.2S783.8,270.8,784,271.5
	L784,271.5C784,271.2,784,271.2,784,271.5L784,271.5z M784.3,267.7L784.3,267.7h-0.2l0,0l0,0l0,0C783.8,267.5,784,267.5,784.3,267.7
	L784.3,267.7C784.3,267.5,784.3,267.5,784.3,267.7C784.3,267.5,784.3,267.5,784.3,267.7C784.3,267.5,784.3,267.5,784.3,267.7z
	 M784.3,266.1L784.3,266.1L784.3,266.1c-0.2,0-0.2,0-0.2,0l0,0l0,0C784,265.8,784,265.8,784.3,266.1L784.3,266.1
	C784.3,265.8,784.3,265.8,784.3,266.1L784.3,266.1L784.3,266.1z M784.7,262.3C784.7,262.6,784.7,262.6,784.7,262.3h-0.2l0,0l0,0l0,0
	l0,0H784.7L784.7,262.3L784.7,262.3L784.7,262.3z M784.9,260.9C784.9,260.9,784.7,260.9,784.9,260.9h-0.2l0,0l0,0l0,0
	C784.3,260.5,784.3,260.5,784.9,260.9L784.9,260.9C784.7,260.5,784.9,260.5,784.9,260.9C784.9,260.5,784.9,260.5,784.9,260.9
	C784.7,260.9,784.9,260.9,784.9,260.9z M784.9,256.8L784.9,256.8C784.9,257.1,784.9,257.1,784.9,256.8L784.9,256.8
	c-0.2,0.2-0.2,0-0.2,0l0,0l0,0C784.7,256.8,784.7,256.8,784.9,256.8L784.9,256.8L784.9,256.8C785.1,256.8,784.9,256.8,784.9,256.8z
	 M785.1,255.6L785.1,255.6h-0.2l0,0l0,0l0,0l0,0H785.1C785.1,255.3,785.1,255.3,785.1,255.6L785.1,255.6L785.1,255.6z M785.5,252
	L785.5,252L785.5,252c-0.2,0-0.2,0-0.2,0l0,0l0,0C784.9,251.7,785.1,251.7,785.5,252L785.5,252C785.5,251.7,785.5,251.7,785.5,252
	C785.5,251.7,785.5,251.7,785.5,252C785.5,251.7,785.5,252,785.5,252z M785.5,250.3L785.5,250.3h-0.2l0,0l0,0l0,0l0,0H785.5
	C785.5,249.9,785.5,249.9,785.5,250.3L785.5,250.3L785.5,250.3z M785.6,246.7L785.6,246.7L785.6,246.7c-0.2,0-0.2,0-0.2,0l0,0l0,0
	C785.5,246.3,785.5,246.3,785.6,246.7L785.6,246.7C785.6,246.3,785.6,246.3,785.6,246.7C785.6,246.3,785.6,246.3,785.6,246.7
	C785.6,246.3,785.6,246.3,785.6,246.7z M785.6,245L785.6,245L785.6,245L785.6,245c-0.2,0.2-0.2,0-0.2,0l0,0l0,0
	C785.5,244.7,785.5,244.7,785.6,245L785.6,245C785.6,244.7,785.8,244.7,785.6,245C785.8,245,785.8,245,785.6,245z M785.8,241.4
	L785.8,241.4L785.8,241.4c-0.2,0-0.2,0-0.2-0.2C785.6,241,785.6,241,785.8,241.4C785.6,241,785.6,241,785.8,241.4
	c-0.2-0.2-0.2-0.2-0.2-0.2L785.8,241.4C785.8,241,785.8,241,785.8,241.4L785.8,241.4L785.8,241.4
	C786.2,241.4,785.8,241.4,785.8,241.4z M786.2,239.6C786.2,239.9,786.2,239.9,786.2,239.6L786.2,239.6L786.2,239.6
	c-0.2,0-0.2,0-0.2,0S785.8,239.6,786.2,239.6c-0.2-0.2-0.2-0.2-0.2-0.2l0,0L786.2,239.6C786.2,239.3,786.2,239.6,786.2,239.6
	L786.2,239.6L786.2,239.6z M786.5,235L786.5,235L786.5,235C786.2,234.6,786.2,234.6,786.5,235C786.2,234.6,786.2,234.6,786.5,235
	L786.5,235C786.5,234.6,786.5,234.6,786.5,235L786.5,235z M786.5,234.6L786.5,234.6L786.5,234.6c-0.2,0-0.2,0-0.2-0.2
	C786.2,234.3,786.2,234.3,786.5,234.6C786.2,234.3,786.2,234.3,786.5,234.6c-0.2-0.2-0.2-0.2-0.2-0.2L786.5,234.6
	C786.5,234.3,786.5,234.3,786.5,234.6C786.5,234.3,786.5,234.3,786.5,234.6C786.5,234.3,786.5,234.3,786.5,234.6
	C786.5,234.3,786.5,234.6,786.5,234.6z M786.2,232.6L786.2,232.6L786.2,232.6c0.2,0,0.2,0,0.2,0S786.5,232.9,786.2,232.6
	c0.2,0.2,0.2,0.2,0.2,0.2l0,0l0,0L786.2,232.6C786.2,232.9,786.2,232.9,786.2,232.6C786.2,232.9,786.2,232.6,786.2,232.6
	L786.2,232.6z M786.2,232.9L786.2,232.9C786.5,232.9,786.5,233.2,786.2,232.9C786.5,233.2,786.5,233.2,786.2,232.9L786.2,232.9
	L786.2,232.9C786.2,233.2,786.2,233.2,786.2,232.9L786.2,232.9z"/>
<path class="st1" d="M586.5,211.7v14.1h1.4v-2.2c0-0.2,0-0.2,0.2-0.2h0.9l0,0l0,0l0,0l0,0l0,0l0,0l0,0v8.1l0,0l0,0l0,0l0,0l0,0l0,0
	l0,0h7l0,0l0,0l0,0v0.2v1.2l8.9,0.6l9.2,0.2l8.9,0.2l0,0l0,0l0,0l0,0l0,0l0,0l0,0l0,0l0,0v0.6h0.9c3.1,0,6.3,0,9.5,0h0.9v-0.4
	c0-0.2,0.2-0.6,0.6-0.6l8.1-0.2l7.7-0.2l7.7-0.6l0,0l0,0l0,0h7h2.9l0,0l0,0l0,0l0,0h-9.5v1.2c0,0,0.2,0,0.2,0.2h9.2l0,0l0,0l0,0l0,0
	h-9.3c0,0.2-0.2,0.2-0.2,0.2l-8.1,0.6l-7.7,0.2l-7.5,0.2v0.6c0,0.2-0.2,0.6-0.6,0.6h-1.4c-1.7,0-3.1,0-4.6,0s-3.3,0-4.6,0h-1.7
	c-0.2,0-0.6-0.2-0.6-0.6v-0.6l-8.7-0.2l-9.2-0.2l-9-0.6h-0.2h-6.6l0,0l0,0h6.3l0,0h-6.3l0,0l0,0l0,0l0,0l0,0l0,0l0,0l0,0v4.5l0,0
	l0,0l0,0h7l0,0v0.2v1.2l8.9,0.6c14.5,0.9,29.9,0.9,45.1,0.2l8.9-0.6v-1.4v-0.2l0,0h7h2.9l0,0l0,0l0,0l0,0h-9.5v1.2
	c0,0,0.2,0,0.2,0.2h9.2l0,0l0,0l0,0l0,0h-9.2c0,0.2-0.2,0.2-0.2,0.2l-9.2,0.6c-7,0.2-14.1,0.6-21.2,0.6c-8.1,0-16.4-0.2-24.2-0.6
	l-8.9-0.6c-0.2,0-0.2-0.2-0.2-0.2h-6.3l0,0l0,0l0,0l0,0l0,0v3.1l0,0l0,0l0,0l0,0v0.2l0,0l0,0v1.2l0,0l0,0h6.3l0.2-0.2v-1.2h-6.6l0,0
	l0,0l0,0l0,0h7l0,0l0,0l0,0v0.2v1.2l8.9,0.6c14.5,0.9,29.9,0.9,45.1,0.2l8.9-0.6v-1.2v-0.2l0,0h7h2.9l0,0l0,0l0,0l0,0h-9.5v1.2
	c0,0,0.2,0,0.2,0.2h9.2l0,0l0,0l0,0l0,0h-9.2c0,0.2-0.2,0.2-0.2,0.2l-9.2,0.6c-7,0.2-14.1,0.6-21.2,0.6c-8.1,0-16.4-0.2-24.2-0.6
	l-7,0.9c-0.2,0-0.2-0.2-0.2-0.2h-6.3l0,0l0,0v0.2l0,0l0,0v3.3l0,0h7l0,0l0,0l0,0v0.2v1.2l8.9,0.6c14.1,0.9,29,0.9,45.1,0.2l8.9-0.6
	v-1.2v-0.2l0,0h7h2.9l0,0l0,0l0,0l0,0h-9.5v1.2c0,0,0.2,0,0.2,0.2h9.2l0,0l0,0l0,0l0,0h-8.9c0,0.2-0.2,0.2-0.2,0.2l-9.2,0.6
	c-7.5,0.2-14.8,0.6-21.7,0.6c-8.1,0-16.2-0.2-23.7-0.9l-8.9-0.6c-0.2,0-0.2-0.2-0.2-0.2h-6.3l0,0v3.3l0,0h7l0,0v0.2v1.2l8.9,0.6
	c14.8,0.9,30.1,0.9,45.1,0.2l8.9-0.6V255v-0.2l0,0h7h2.9l0,0l0,0l0,0l0,0h-9.5v1.2c0,0,0.2,0,0.2,0.2h9.2l0,0l0,0l0,0l0,0h-9.2
	c0,0.2-0.2,0.2-0.2,0.2l-9.2,0.6c-7.3,0.2-14.1,0.6-21.5,0.6c-8.1,0-16.2-0.2-23.9-0.6l-8.9-0.6c-0.2,0-0.2-0.2-0.2-0.2h-6.3l0,0
	v3.3h7l0,0v0.2v1.2l8.9,0.6c14.8,0.9,30.1,0.9,45.1,0.2l8.9-0.6v-1.2v-0.2l0,0h7h2.9l0,0l0,0l0,0l0,0h-9v1.2c0,0,0.2,0,0.2,0.2h9.2
	l0,0l0,0l0,0l0,0h-9.2c0,0.2-0.2,0.2-0.2,0.2l-9.2,0.6c-7.3,0.2-14.1,0.6-21.2,0.6c-8.1,0-16.2-0.2-23.9-0.6l-8.9-0.6
	c-0.2,0-0.2-0.2-0.2-0.2h-7.3v3.3h7l0,0v0.2v1.2l8.9,0.6c14.8,0.9,29.5,0.9,45.1,0.2l8.9-0.6v-1.2v0.9l0,0h7h2.9l0,0l0,0l0,0l0,0
	h-9.5v1.2c0,0,0.2,0,0.2,0.2h9.2l0,0l0,0l0,0l0,0h-9.4c0,0.2-0.2,0.2-0.2,0.2l-9.2,0.6c-7.3,0.2-14.1,0.6-21,0.6
	c-8.1,0-16.2-0.2-24.2-0.6l-8.9-0.6c-0.2,0-0.2-0.2-0.2-0.2h-6.3v2v0.2c0,0,0,0-0.2,0h-0.2v1.2h0.2l0,0l0,0h7l0,0l0,0l0,0v0.2v1.2
	l8.9,0.6c14.5,0.9,29.9,0.9,45.1,0.2l8.9-0.6v-0.9l0,0l0,0h7h2.9l0,0l0,0l0,0l0,0H662v1.2c0,0,0.2,0,0.2,0.2h9.2l0,0l0,0l0,0l0,0
	h-9.2c0,0.2-0.2,0.2-0.2,0.2l-9.2,0.6c-7,0.2-14.1,0.6-21.2,0.6c-8.1,0-16.4-0.2-24.2-0.6l-8.9-0.6c-0.2,0-0.2-0.2-0.2-0.2H592l0,0
	l0,0h-0.2l0,0h0.2l0,0l0,0h-0.2v3.1h0.2l0,0l0,0h7l0,0v0.2v1.2l8.9,0.6c15.6,0.9,30.7,0.9,45.1,0.2l8.9-0.6v-0.6v-0.2l0,0h7h2.9l0,0
	l0,0l0,0l0,0h-9.5v1.2c0,0,0.2,0,0.2,0.2h9.2l0,0l0,0l0,0l0,0h-9.2c0,0.2-0.2,0.2-0.2,0.2l-9.2,0.6c-6.6,0.2-13.6,0.6-21,0.6
	c-8.1,0-16.2-0.2-24.5-0.6l-8.9-0.6c-0.2,0-0.2-0.2-0.2-0.2h-6.3l0,0l0,0H592l0,0h0.2l0,0l0,0H592v3.1h0.2l0,0l0,0h7l0,0v0.2v1.2
	l8.9,0.6c15.6,0.9,30.7,0.9,45.1,0.2l8.4-0.6v-2c0,0,0-0.2,0.2-0.2h2.2c0,0,0.2,0,0.2,0.2l0,0v0.6h6.6h1.2l0,0l0,0l0,0l0,0h-7.7v1.2
	l0,0h7.7l0,0l0,0l0,0l0,0h-9.2c0,0.2-0.2,0.2-0.2,0.2l-9.2,0.6c-6.6,0.2-13.6,0.6-21,0.6c-8.1,0-16.2-0.2-24.5-0.6l-8.9-0.6
	c-0.2,0-0.2-0.2-0.2-0.2h-6.3l0,0l0,0h-0.2l0,0h0.2l0,0l0,0h-0.2v3.1h0.2l0,0l0,0h7l0,0v0.2v1.2l8.9,0.6c15.6,0.9,30.7,0.9,45.1,0.2
	l8.9-0.6v-1.2v-0.2l0,0h7h2.9l0,0l0,0l0,0l0,0h-9.5v1.2c0,0,0.2,0,0.2,0.2h9.2l0,0l0,0l0,0l0,0H663c0,0.2-0.2,0.2-0.2,0.2l-9.2,0.6
	c-6.6,0.2-13.6,0.6-21,0.6c-8.1,0-16.2-0.2-24.5-0.6l-8.9-0.6c-0.2,0-0.2-0.2-0.2-0.2h-6.1l0,0l0,0l0,0l0,0h6.3l0.2-0.2v-1.2h-6.6
	l0,0l0,0h-0.2l0,0h0.2l0,0l0,0h-0.2v0.6c0,0.2,0,0.2-0.2,0.2h-3.2c-0.2,0-0.2,0-0.2-0.2v-2.1h-1.9v2.9h3.1l0,0l0,0l0,0l0,0h-3.1v3.3
	h3.1l0,0l0,0h7l0,0l0,0l0,0v0.2l0,0l0,0v1.2l8.9,0.6c14.5,0.9,29.9,0.9,45.1,0.2l8.9-0.6v-1.2v-1.2l0,0h7h2.9l0,0l0,0l0,0l0,0h-9.5
	v1.2c0,0,0.2,0,0.2,0.2h9.2l0,0l0,0l0,0l0,0h-9c0,0.2-0.2,0.2-0.2,0.2l-9.2,0.6c-7,0.2-13.9,0.6-21,0.6c-8.4,0-16.4-0.2-24.5-0.6
	l-8.9-0.6c-0.2,0-0.2-0.2-0.2-0.2h-6.3l0,0l0,0h-3.1v3.3h3.1l0,0l0,0h7l0,0l0,0l0,0v0.2l0,0l0,0v1.2l8.9,0.6
	c15.8,0.9,30.7,0.9,45.1,0.2l8.9-0.6v-1.2v-0.2l0,0h7h2.9l0,0l0,0l0,0l0,0h-9.5v1.2c0,0,0.2,0,0.2,0.2h9.2l0,0l0,0l0,0l0,0h-9.2
	c0,0.2-0.2,0.2-0.2,0.2l-9.2,0.6c-6.6,0.2-13.6,0.6-20.7,0.6c-8.1,0-16.2-0.2-24.7-0.6l-8.9-0.6c-0.2,0-0.2-0.2-0.2-0.2h-6.3l0,0
	l0,0h-3.1v1.4c0,0.2,0,0.2-0.2,0.2h-3.3l0,0l0.9,7.3h1.2v-3.3v2.2v-1.4v-0.2l0,0h5l0,0l0,0h7l0,0l0,0l0,0l0,0v0.2l0,0l0,0v1.2
	l8.9,0.6c15.8,0.9,30.7,0.9,45.1,0.2l8.9-0.6v-1.2v-0.4l0,0h7h2.9l0,0l0,0l0,0l0,0h-9.5v1.2c0,0,0.2,0,0.2,0.2h9.2l0,0l0,0l0,0l0,0
	h-9.2c0,0.2-0.2,0.2-0.2,0.2l-9.2,0.6c-6.6,0.2-13.6,0.6-20.7,0.6c-8.1,0-16.2-0.2-24.7-0.6l-8.9-0.6c-0.2,0-0.2-0.2-0.2-0.2h-6.3
	l0,0l0,0h-4.6v3.3l2-0.2l-0.2-2.2c0-0.2,0-0.2,0.2-0.2h0.9h0.2c0,0,0,0,0,0.2l0.2,2.9h1.4l0,0l0,0h7l0,0l0,0l0,0v0.2l0,0l0,0v1.2
	l8.1,0.6l8.1,0.2l7.7,0.2v-3.1l0,0l0,0l0,0l0,0l0,0l0,0l0,0l0,0c0,0,0,0,0.2,0l0,0h7.3h7.3l0,0l0,0l0,0l0,0c0.2,0,0.2,0.2,0.2,0.2
	l0,0l0,0l0,0v3.1h1.2c6.6,0,13.9-0.2,21.2-0.9h1.7v-1.2v-0.2l0,0h7h2.9l0,0l0,0l0,0l0,0h-9.5v1.2c0,0,0.2,0,0.2,0.2h9.2l0,0l0,0l0,0
	l0,0h-9c0,0.2-0.2,0.2-0.6,0.2h-2.8c-7.3,0.6-14.5,0.6-21.2,0.9h-2.1l0,0l0,0c0,0,0,0-0.2,0l0,0l0,0l0,0l0,0l0,0l0,0l0,0l0,0V307h-7
	h-7v3.1l0,0l0,0l0,0l0,0l0,0l0,0l0,0l0,0c0,0,0,0-0.2,0l0,0l0,0l-8.1-0.2l-8.1-0.2l-8.1-0.6c-0.2,0-0.2-0.2-0.2-0.2h-6.1l0,0l0,0
	h-1.4l2.9,29.9h4.6c0,0,0,0,0.2,0h0.2c0,0,0.2,0,0.2,0.2h9.7l0.2-0.2h0.2c0,0,0,0,0.2,0h0.9c0,0,0,0,0.2,0h0.2c0,0,0.2,0,0.2,0.2
	h9.7l0.2-0.2h0.2c0,0,0,0,0.2,0h1.7v-3.6h-0.2c-0.2,0-0.2,0-0.2-0.2v-0.6c0-0.2,0-0.2,0.2-0.2h42.4c0.2,0,0.2,0,0.2,0.2v0.9
	c0,0.2,0,0.2-0.2,0.2h-0.2v2.5h9.5v-6.3c0-0.2,0-0.2,0.2-0.2l0,0c0-0.2,0-0.2,0.2-0.2v-4.5c-0.2,0-0.2,0-0.2-0.2l0,0l-0.2-0.2V325
	h-1.7c-0.2,0-0.2,0-0.2-0.2v-15.6l0,0h-0.6l0,0l0,0l0,0l0,0h0.6l0,0v-1.4l0,0h-0.6l0,0l0,0l0,0l0,0h0.6l0,0v-3.3l0,0h-0.6l0,0l0,0
	l0,0l0,0h0.6l0,0v-1.4l0,0h-0.6l0,0l0,0l0,0l0,0h0.6l0,0v-3.3l0,0h-0.6l0,0l0,0l0,0l0,0h0.6l0,0v-1.4l0,0h-0.6l0,0l0,0l0,0l0,0h0.6
	l0,0v-5.2l0,0h-0.6l0,0l0,0l0,0l0,0h0.6l0,0V292l0,0h-0.6l0,0l0,0l0,0l0,0h0.6l0,0v-3.2l0,0h-0.6l0,0l0,0l0,0l0,0h0.6l0,0v-1.4l0,0
	h-0.6l0,0l0,0l0,0l0,0h0.6l0,0v-3.3l0,0h-0.6l0,0l0,0l0,0l0,0h0.6l0,0v-1.4l0,0h-0.6l0,0l0,0l0,0l0,0h0.6l0,0v-3.3l0,0h-0.6l0,0l0,0
	l0,0l0,0h0.6l0,0v-1.2l0,0h-0.6l0,0l0,0l0,0l0,0h0.6l0,0v-3.3l0,0h-0.6l0,0l0,0l0,0l0,0h0.6l0,0v-1.4l0,0h-0.6l0,0l0,0l0,0l0,0h0.6
	l0,0v-3.3l0,0h-0.6l0,0l0,0l0,0l0,0h0.6l0,0v-1.4l0,0h-0.6l0,0l0,0l0,0l0,0h0.6l0,0v-3.3l0,0h-0.6l0,0l0,0l0,0l0,0h0.6l0,0V260l0,0
	h-0.6l0,0l0,0l0,0l0,0h0.6l0,0v-3.9l0,0h-0.6l0,0l0,0l0,0l0,0h0.6l0,0v-1.4l0,0h-0.6l0,0l0,0l0,0l0,0h0.6l0,0v-3.3l0,0h-0.6l0,0l0,0
	l0,0l0,0h0.6l0,0V250l0,0h-0.6l0,0l0,0l0,0l0,0h0.6l0,0v-3.3l0,0h-0.6l0,0l0,0l0,0l0,0h0.6l0,0v-1.4l0,0h-0.6l0,0l0,0l0,0l0,0h0.6
	l0,0V242l0,0h-0.6l0,0l0,0l0,0l0,0h0.6l0,0v-1.4l0,0h-0.6l0,0l0,0l0,0l0,0h0.6l0,0V236l0,0h-0.6l0,0l0,0l0,0l0,0h0.6l0,0v-4.3l0,0
	h-0.6l0,0l0,0l0,0l0,0h0.6l0,0v-20.3h-0.8v0.9v0.2c0,0,0,0-0.2,0l-3.3,0.6h-0.2c0,0,0,0,0-0.2l-0.9-4.6c0,0-0.2,0-0.2-0.2l-2.5-15.8
	v1.2c0,0.2,0,0.2-0.2,0.2h-63.6c-0.2,0-0.2,0-0.2-0.2v-1.4h-0.2l-3.6,21.2v0.2h-0.2l0,0l0,0h-0.2l-2.9-0.6l0,0l0,0
	c0,0-0.2,0-0.2-0.2v-0.9l0,0h-4.7v-0.6l0,0v0.4L586.5,211.7L586.5,211.7z M660.3,324C660.3,324.4,660.3,324.4,660.3,324l-1.2,0.2
	v1.2c0,0,0,0.2-0.2,0.2h-58.3c0,0-0.2,0-0.2-0.2v-1.2h-1c0,0-0.2,0-0.2-0.2v-0.9c0,0,0-0.2,0.2-0.2h6.1v-1.7c0,0,0-0.2,0.2-0.2h48
	c0,0,0.2,0,0.2,0.2v1.7h6.1c0,0,0.2,0,0.2,0.2L660.3,324L660.3,324z M646.6,206.3C646.6,206.3,646.6,205.8,646.6,206.3l0.9-0.2
	c0,0,0.2,0,0.2,0.2v0.6c0,0,0,0.2-0.2,0.2h-0.6c0,0-0.2,0-0.2-0.2v-0.6H646.6z M629.3,206.3C629.3,206.3,629.3,205.8,629.3,206.3
	l0.9-0.2c0,0,0.2,0,0.2,0.2v0.6c0,0,0,0.2-0.2,0.2h-0.6c0,0-0.2,0-0.2-0.2v-0.6H629.3z M612.4,206.3
	C612.4,206.3,612.4,205.8,612.4,206.3l0.9-0.2c0,0,0.2,0,0.2,0.2v0.6c0,0,0,0.2-0.2,0.2h-0.6c0,0-0.2,0-0.2-0.2v-0.6H612.4z"/>
<path class="st1" d="M790.1,283v0.6l0,0l-0.2,0.2l0,0l-3.3-0.2h-0.2c0,0,0,0,0-0.2v-0.2h-2.9l0,0l0,0h-8.4H775l0,0h-2.5l0,0h-0.2
	c0,0.2-0.2,0.2-0.2,0.2l-8.9,0.6c-6.6,0.2-13.6,0.6-21,0.6c-8.1,0-16.2-0.2-24.5-0.6l-9.2-0.6c-0.2,0-0.2-0.2-0.2-0.2h-8.1l0,0l0,0
	h-0.6v5h0.2l0,0l0,0h7.7l0.2-0.2v-1.2h-8.1l0,0l0,0l0,0l0,0h8.1l0,0v0.2v1.2l8.9,0.6c14.5,0.9,29.9,0.9,45.1,0.2l8.9-0.6v-1.2V287
	l0,0h7h5l0,0l0,0h4.5l0,0v0.2v1.4v0.2v4.6h2.5v-9.6L790.1,283L790.1,283z"/>
<rect x="403.3" y="356.5" class="st0" width="44.3" height="9.5"/>
<rect x="478.8" y="356.5" class="st0" width="10" height="9.5"/>
<rect x="360" y="358.1" class="st0" width="12.6" height="9.5"/>
<path class="st1" d="M699.8,309.5L699.8,309.5L699.8,309.5L699.8,309.5L699.8,309.5C699.8,309.5,699.8,309.7,699.8,309.5h-0.2v15.8
	c0,0.2,0,0.2-0.2,0.2h-1.7v1.4c0,0.2,0,0.2-0.2,0.2l0,0c0,0.2,0,0.2-0.2,0.2v4.5c0.2,0,0.2,0,0.2,0.2l0,0l0.2,0.2v2.5h40.5
	c0.2,0,0.2,0,0.2,0.2v0.9c0,0.2,0,0.2-0.2,0.2h-0.4v2.5h4.3c0,0,0,0,0.2,0h0.2c0,0,0.2,0,0.2,0.2h9.7l0.2-0.2h0.2c0,0,0,0,0.2,0h0.9
	c0,0,0,0,0.2,0h0.2c0,0,0.2,0,0.2,0.2h9.7l0.2-0.2l0,0h6.6v-2.9h0.1c0,0-0.2,0-0.2-0.2v-0.2c0,0,0-0.2,0.2-0.2h13.5v-25.6h-0.7l0,0
	l0,0h-11.1c0,0.2-0.2,0.2-0.6,0.2l-11.5,0.6l-11.5,0.2l0,0H749v-0.2v-3.1h-7h-7.1v3.1l0,0l0,0l0,0l0,0l0,0l0,0l0,0l0,0
	c0,0,0,0-0.2,0l0,0l0,0L726,310l-8.7-0.2l-8.7-0.6c-0.2,0-0.2-0.2-0.2-0.2L699.8,309.5C699.8,309.7,699.8,309.5,699.8,309.5z
	 M711,323.6C711,323.2,711,323.2,711,323.6l6.3-0.2v-1.7c0,0,0-0.2,0.2-0.2h48c0,0,0.2,0,0.2,0.2v1.7h6.1c0,0,0.2,0,0.2,0.2v0.9
	c0,0,0,0.2-0.2,0.2h-1.2v1.2c0,0,0,0.2-0.2,0.2h-58.3c0,0-0.2,0-0.2-0.2v-1.4h-1.2c0,0-0.2,0-0.2-0.2L711,323.6L711,323.6z"/>
<path class="st0" d="M347.3,358.1H328v9.2h30.6v-9.2h-5.5c0,0,0,0-0.2,0H347.3L347.3,358.1z"/>
<path class="st0" d="M531,386.8L531,386.8C531,386.8,531,387.1,531,386.8L531,386.8C531,387.1,531,387.1,531,386.8
	C531,387.1,531,387.1,531,386.8v0.2l0,0v0.9c-0.2,2-2.2,4-4.3,4.3h-0.9v2.9c0,0.2,0,0.2-0.2,0.2h-3.3v12.8h8.4c0,0,0.2,0,0.2,0.2
	v0.9l0,0l0,0v0.6c0,0,0,0.2-0.2,0.2h-0.2c0,0-0.2,0-0.2-0.2v-0.6h-8.1v4.5h2.5l0,0c0-0.2,0.2-0.2,0.2-0.2h1.7l0,0c0,0,0-0.2,0.2-0.2
	h3.3c0,0,0.2,0,0.2,0.2c0,0,0.2,0,0.2,0.2v1.7c0,0,0,0.2-0.2,0.2h-0.2c0,0-0.2,0-0.2-0.2v-0.6l0,0c0,0,0,0-0.2,0H528c0,0,0,0-0.2,0
	h-0.3c0,0,0,0-0.2,0h-0.4h-1.7h-0.3c0,0,0,0-0.2,0h-3v4.5h2.5v-0.6c0-0.2,0.2-0.2,0.2-0.2h1.7l0,0c0,0,0-0.2,0.2-0.2h3.3
	c0,0,0.2,0,0.2,0.2c0,0,0.2,0,0.2,0.2v0.9h0.9c0,0,0.2,0,0.2,0.2v0.2c0,0,0,0.2-0.2,0.2h-1.4c0,0,0,0-0.2,0h-1.7c0,0,0,0-0.2,0h-0.2
	c0,0,0,0-0.2,0h-0.2h-1.7h-0.2c0,0,0,0-0.2,0h-3v8.9h2.5v-0.2c0-0.2,0.2-0.2,0.2-0.2h2.2c0.2,0,0.2,0,0.2,0.2h0.2h1.7
	c0.2,0,0.2,0.2,0.2,0.2l0,0h7v-8.9h-0.2v4.6c0,0,0,0.2-0.2,0.2h-0.2c0,0-0.2,0-0.2-0.2V419c0,0,0-0.2,0.2-0.2l0,0c0,0,0-0.2,0.2-0.2
	h0.2v-33h-11.1v0.9L531,386.8L531,386.8z"/>
<path class="st0" d="M513,378.2v-0.6h-8.2v7h8.1v-1.4c0,0,0-0.2,0.2-0.2v-4.6C513,378.4,513,378.2,513,378.2z"/>
<path class="st0" d="M505.1,414.2C505.1,414.2,505.5,414.4,505.1,414.2l0.2,4.6h0.2c0.9,0,2-0.6,2.9-1.2l0,0l0,0l0,0
	c0.9-0.6,1.4-2,1.4-3.1v-0.2v-0.2c0,0,0-0.2,0.2-0.2h0.6v-0.2c0,0,0-0.2,0.2-0.2h0.2h0.2c0.2,0,0.6,0,0.9-0.2h0.2
	c0.2,0,0.2-0.2,0.2-0.2s0,0,0.2-0.2l0,0l0,0l0,0l0,0l0,0c0.2-0.6,0.9-1.4,0.9-2l0,0l0,0h-3.3c0,0-0.2,0-0.2-0.2l0,0
	c0,0-0.2,0-0.2-0.2v-0.6c0,0,0-0.2,0.2-0.2h8.4v-4.6h-6.3c0,0-0.2,0-0.2-0.2V404c0,0,0-0.2,0.2-0.2h6.3v-8.1h-5.8
	c-0.2,0-0.2,0-0.2-0.2v-2.9h-0.9c-2-0.2-4-2.2-4.3-4.3v-0.9l0,0v-0.2l0,0l0,0l0,0l0,0l0,0l0,0h4.6v-0.9h-8v28.5L505.1,414.2
	L505.1,414.2z"/>
<path class="st0" d="M505.1,321.8L505.1,321.8L505.1,321.8L505.1,321.8L505.1,321.8L505.1,321.8L505.1,321.8c0.2,0,0.2,0,0.2,0h0.9
	c2,0.2,3.6,2,4.3,4.3v0.9h3.6v-0.9c0-0.2,0-0.2,0.2-0.2h4.5v-12h-6.3c0,0-0.2,0-0.2-0.2v-0.9c0,0,0-0.2,0.2-0.2h6.3v-4.5h-4
	c0,0-0.2,0-0.2-0.2l0,0c0,0,0-0.2,0.2-0.2h4v-3.6h-4c0,0-0.2,0-0.2-0.2v-0.2c0,0,0-0.2,0.2-0.2h4v-4h-4c0,0-0.2,0-0.2-0.2v-0.2
	c0,0,0-0.2,0.2-0.2h4v-3.6h-7.9h-0.2c0,0-0.2,0-0.2-0.2v-1.4c0,0,0-0.2,0.2-0.2h0.2h0.2c0.2,0,0.6,0,0.9-0.2l0.2-0.2
	c0.2,0,0.6-0.2,0.6-0.6l0,0l0,0l0.2-0.2c0.2-0.2,0.2-0.6,0.6-0.9l0,0l0,0v-0.2V291v0.9h-3.3c0,0-0.2,0-0.2-0.2c0,0-0.2,0-0.2-0.2
	v-1.7c0,0,0-0.2,0.2-0.2h0.2h0.2c1.7,0,3.1-1.4,3.1-3.1h-3.3l0,0l0,0l0,0c0,0-0.2,0-0.2-0.2v-0.6h-0.9c0,0-0.2,0-0.2-0.2v-0.2v0.1
	c0-2.5-2-4.5-4.5-4.5v4.6c0,0,0,0.2-0.2,0.2l0,0c0,0,0,0.2-0.2,0.2h-0.2v41.8h0.6L505.1,321.8L505.1,321.8z"/>
<path class="st0" d="M504.8,280C504.8,280,504.8,279.8,504.8,280l0.2-0.2h0.2c2.5,0,4.6,2.2,4.6,4.6l0,0h3.3c0,0,0,0,0.2,0h0.2h1.7
	h0.2c0,0,0,0,0.2,0h3.1v-12h-3.5v0.2c0,0.2-0.2,0.2-0.2,0.2h-2.1c-0.2,0-0.2-0.2-0.2-0.2v-0.2h-6.1v2c0,0,0,0.2-0.2,0.2h-2v4l0,0
	v5.5h0.2L504.8,280L504.8,280z"/>
<path class="st0" d="M536.5,277.9L536.5,277.9l-0.2-4.6h-0.2l0,0l0,0c-0.2,0-0.9,0-1.2,0.2l0,0l0,0h-0.2c-0.2,0-0.9,0.6-1.2,0.6
	l-0.2,0.2c-0.9,0.9-1.4,2-1.4,3.1v0.2v0.2c0,0,0,0.2-0.2,0.2h-0.9v0.9c0,0,0,0.2-0.2,0.2c0,0,0,0.2-0.2,0.2h-3.5v0.2v0.2v0.2l0,0
	v0.2l0,0l0,0v0.2l0.2,0.2l0,0l0,0l0.2,0.2l0,0l0,0c0.6,0.6,1.2,0.9,2,0.9h0.2h0.2c0,0,0.2,0,0.2,0.2v1.4c0,0,0,0.2-0.2,0.2
	c0,0,0,0.2-0.2,0.2h-3.3c0,1.7,1.7,3.1,3.1,3.1h0.2h0.2c0,0,0.2,0,0.2,0.2v1.4c0,0,0,0.2-0.2,0.2c0,0,0,0.2-0.2,0.2h-3.3v0.2v0.2
	c0,0.2,0,0.2,0,0.2l0,0v0.2l0,0l0,0v0.2l0.2,0.2l0,0l0,0l0.2,0.2l0,0l0,0l0.2,0.2l0,0l0.2,0.2l0,0l0,0h0.2c0.2,0.2,0.6,0.2,0.9,0.2
	h0.2h0.2c0,0,0.2,0,0.2,0.2v1.4c0,0,0,0.2-0.2,0.2c0,0,0,0.2-0.2,0.2H525c0,0.9,0.2,1.4,0.9,2c0.6,0.6,1.4,0.9,2.2,0.9l0,0h0.2h0.2
	c0,0,0.2,0,0.2,0.2v1.4c0,0,0,0.2-0.2,0.2l0,0c0,0,0,0.2-0.2,0.2H525c0,0.9,0.2,1.4,0.9,2c0.6,0.6,1.4,0.9,2.2,0.9l0,0l0,0l0,0
	c0,0,0.2,0,0.2,0.2v1.4c0,0,0,0.2-0.2,0.2c0,0,0,0.2-0.2,0.2h-3.3c0,0.6,0.2,1.4,0.9,2l0.2,0.2c0.6,0.6,1.4,0.9,2,0.9l0,0l0,0l0,0
	l0,0h0.2c0,0,0.2,0,0.2,0.2v0.6h4.5c0,0,0.2,0,0.2,0.2l0,0l0,0l0,0l0,0c0,2.5-2,4.6-4.5,4.6l0,0v0.2l0,0v0.9c0,0,0,0.2-0.2,0.2H520
	v12h4.5c0.2,0,0.2,0,0.2,0.2v3.1h3.6v-0.9c0.6-2.2,1.7-3.6,4.3-4.3h0.9l0,0h0.2l0,0l0,0l0,0l0,0v4.6h0.6v-51h-0.4
	C536.7,277.9,536.5,277.9,536.5,277.9z"/>
<path class="st0" d="M84.7,369.5v-14.1H71.2v16.2h13.9L84.7,369.5C84.7,369.7,84.7,369.5,84.7,369.5z"/>
<path class="st0" d="M463.8,284.4v4.6l0.2,0.2v38.2h0.6c0.2,0,0.2,0,0.2,0.2v2.5h25.1c0.2,0,0.2,0,0.2,0.2v5h0.6c0,0,0.2,0,0.2,0.2
	h7.3l0.2-0.2h1.4l-0.2-56.3H464v4.6C463.8,284.2,463.8,284.4,463.8,284.4z"/>
<path class="st0" d="M238.5,327.8v7.7h4.5v-0.6l0,0h8.4l0,0v0.6l0,0v-0.6v-4.5c0-0.2,0-0.2,0.2-0.2h21.5v-2.5c0-0.2,0-0.2,0.2-0.2
	h2.2c0.2,0,0.2,0,0.2,0.2v2.5h16.7v-4.6h-0.5l0,0v-8.4l0,0h0.6v-37.6h-54.1v47.1v1.1H238.5L238.5,327.8z"/>
<rect x="125.3" y="331.3" class="st0" width="10" height="4.5"/>
<path class="st0" d="M374.3,284.2C374.6,284.2,374.6,284.2,374.3,284.2l0.2,0.6c0,0,0,0.2-0.2,0.2h-5v4.5l0,0c0,0,0,0,0,0.2v34.9
	h3.6c0.2,0,0.2,0,0.2,0.2v10.9l0,0v-0.6l0,0h8.4l0,0v0.6h4.5V328v-0.2v-38c0-0.2,0-0.2,0.2-0.2l0,0c0-0.2,0.2-0.2,0.2-0.2v-4
	l-3.1,2.9l0,0l0,0l0,0l-0.2-0.2l0,0l3.1-3.1l0,0l-0.2-0.2h-0.1c-0.2,0-0.2,0-0.2-0.2v-2.9v-0.2v-1.7h-17v4.6L374.3,284.2
	L374.3,284.2z"/>
<path class="st0" d="M389.1,281.4v2.5h4c0.2,0,0.6,0.2,0.6,0.6v0.2c0,0.2-0.2,0.6-0.6,0.6h-4.7v4.3c0.2,0,0.2,0.2,0.2,0.2h0.2
	c0.2,0,0.2,0,0.2,0.2v38v0.2v7.5h4.5v-0.6l0,0h8.4l0,0v0.6h0.2v-5c0-0.2,0-0.2,0.2-0.2h21.5V328c0-0.2,0-0.2,0.2-0.2h2.2
	c0.2,0,0.2,0,0.2,0.2v2.5h21.7h0.2c0,0,0,0,0,0.2v4.5l0,0h8.4l0,0v0.6h4.5v-7.7c0-0.2,0-0.2,0.2-0.2h0.6v-38.2c0,0,0-0.2,0.2-0.2
	v-4.4h-5c0,0-0.2,0-0.2-0.2v-0.2c0,0,0-0.2,0.2-0.2h4.6v-4.6h-35.3v2.2c0,0.2,0,0.2-0.2,0.2h-2.9c-0.2,0-0.2,0-0.2-0.2v-2.2h-34.3v2
	C389.1,281.2,389.1,281.4,389.1,281.4z"/>
<path class="st0" d="M298,283.3C298,283.3,298.4,283.3,298,283.3l0.2,12c0,0,0,0.2-0.2,0.2h-4v14.8h0.2c0,0,0.2,0,0.2,0.2h5l0.2-0.2
	h11.8v-21c0,0,0-0.2,0.2-0.2v-4.5h-5c0,0-0.2,0-0.2-0.2v-0.2c0,0,0-0.2,0.2-0.2h4.6v-4.6h-17.7v4.3h4.2v-0.3h0.3V283.3z
	 M296.9,299.3h-1.2c-0.2,0-0.2,0-0.2-0.2s0-0.2,0.2-0.2h1.2C297.2,298.9,297.2,299.1,296.9,299.3
	C297.2,299.3,297.2,299.3,296.9,299.3z"/>
<path class="st0" d="M312.8,284.4v4.6l0.2,0.2v21h12h0.2l0,0h4.6l0.2-0.2h0.2v-31.3h-17.7L312.8,284.4
	C313.2,284.2,313.2,284.4,312.8,284.4z"/>
<path class="st0" d="M331.7,317v4.6l0.2,0.2v2.9h36.2v-45.1h-36.5L331.7,317C332,316.5,331.7,317,331.7,317z"/>
<rect x="403.3" y="331.3" class="st0" width="44.3" height="7.7"/>
<path class="st0" d="M371.5,340.5L371.5,340.5l0.2-14.8h-20.3v2c0,0.2,0,0.2-0.2,0.2h-3.3v12.2H366c0,0,0.2,0,0.2,0.2h5.4l0,0h-0.1
	V340.5z"/>
<path class="st0" d="M163.1,416.4v2h18.1h16.3c0-0.2,0.2-0.2,0.6-0.2h0.2c0.2,0,0.2,0,0.6,0.2h37.6v-4.6v-0.2v-0.2v-0.2l0,0
	c0,0,0,0,0-0.2l-3.1-2.9l0,0l0.2-0.2l0,0l0,0l3.1,2.9v-4c-0.2,0-0.2-0.2-0.2-0.6V408c0-0.2,0-0.2,0.2-0.2v-38.1h-0.6
	c-0.2,0-0.2,0-0.2-0.2v-7.7h-4.5v0.6l0,0H223l0,0v-0.6l0,0v5c0,0.2,0,0.2-0.2,0.2h-21.5v2.5c0,0.2,0,0.2-0.2,0.2h-2.2
	c-0.2,0-0.2,0-0.2-0.2V367h-21.5c-0.2,0-0.2,0-0.2-0.2v-5l0,0v0.6l0,0h-8.4l0,0v-0.6h-4.5v7.7c0,0.2,0,0.2-0.2,0.2h-1.7v38.4
	c0,0,0,0.2-0.2,0.2v4.5h5c0,0,0.2,0,0.2,0.2v0.2c0,0,0,0.2-0.2,0.2h-4.7v2.9h0.6C163,415.8,163.1,416.1,163.1,416.4z"/>
<path class="st0" d="M197.7,279.5c-0.2,0-0.2,0-0.2-0.2h-34.3v1.7c0,0.2,0,0.2-0.2,0.2h-0.6v2.9h4.6c0,0,0.2,0,0.2,0.2v0.2
	c0,0,0,0.2-0.2,0.2h-4.9v4.5l0.2,0.2v38.2h0.6c0.2,0,0.2,0,0.2,0.2v7.7h4.5v-0.6l0,0h8.4l0,0v0.6h0.2v-5c0-0.2,0-0.2,0.2-0.2h21.5
	v-2.5c0-0.2,0-0.2,0.2-0.2h2.2c0.2,0,0.2,0,0.2,0.2v2.5H222c0.2,0,0.2,0,0.2,0.2v5l0,0v-0.6l0,0h8.4l0,0v0.6h4.5v-45.9
	c0,0,0,0,0-0.2v-4.5h-3.6c0,0-0.2,0-0.2-0.2v-0.2c0,0,0-0.2,0.2-0.2h4.5v-4.6h-37.6l-0.2,0.2L197.7,279.5L197.7,279.5z"/>
<path class="st0" d="M161.3,412.7v-4.6l-0.2-0.2v-38.3h-0.6c-0.2,0-0.2,0-0.2-0.2v-7.7h-4.5v0.6l0,0h-8.4l0,0v-0.6l0,0v5
	c0,0.2,0,0.2-0.2,0.2h-21.6v2.5v0.2c0,0,0,0-0.2,0h-2.2c-0.2,0-0.2,0-0.2-0.2v-2.5H97.8c-0.2,0-0.2,0-0.2-0.2v-5l-0.2,0.2h-0.2
	c-0.2,0-0.2-0.2-0.6-0.2h-6.7c0,0.2-0.2,0.2-0.6,0.2h-0.2c-0.2,0-0.2,0-0.2-0.2h-1.2v54.4H161L161.3,412.7
	C161,413,161,412.7,161.3,412.7z"/>
<rect x="177.3" y="331.3" class="st0" width="10" height="9.5"/>
<path class="st0" d="M97.4,281.2v10.6v38.4h15.2c0.2,0,0.2,0,0.2,0.2v4.5l0,0h8.4l0,0v0.6h0.9v-7.7c0-0.2,0-0.2,0.2-0.2h2.2
	c0.2,0,0.2,0,0.2,0.2v2.5h34.9v-2.5c0-0.2,0-0.2,0.2-0.2h0.6v-38.2c0,0,0-0.2,0.2-0.2v-4.6c0,0,0,0-0.2,0c0,0,0,0,0-0.2v-2.9h-38
	c-0.2,0-0.2,0-0.2-0.2v-2H99.4l0,0h-2V281.2C97.2,281.2,97.4,281.2,97.4,281.2z"/>
<path class="st0" d="M498.1,361.8C498.1,361.8,497.8,361.4,498.1,361.8l-7.5-0.2l-0.2,0.2h-0.6v5c0,0.2,0,0.2-0.2,0.2h-25.2v2.5
	c0,0.2,0,0.2-0.2,0.2h-0.6v38.2c0,0.2,0,0.2-0.2,0.2l0,0v4.6l0,0c0.2,0,0.2,0,0.2,0.2v5h35.6v-56.3L498.1,361.8L498.1,361.8
	L498.1,361.8z"/>
<rect x="199.8" y="331.3" class="st0" width="21.5" height="9.5"/>
<rect x="146.9" y="331.3" class="st0" width="13.2" height="4.5"/>
<rect x="136" y="331.3" class="st0" width="10" height="9.5"/>
<rect x="98.5" y="331.3" class="st0" width="13.5" height="9.5"/>
<path class="st1" d="M791.5,337.6C791.5,337.6,791.3,337.6,791.5,337.6l-0.2-0.2c0,0,0-0.2,0.2-0.2h0.2V336h-0.2c0,0-0.2,0-0.2-0.2
	l0,0c0,0,0-0.2,0.2-0.2h0.2v-41.4h-6.3c0,0-0.2,0-0.2-0.2v-0.6V291h-0.6c0,0-0.2,0-0.2-0.2s0-0.2,0.2-0.2h0.6c0,0,0.2,0,0.2,0.2v2.5
	h2.5v-4.5h-4.5l0,0l0,0h-11.5c0,0.2-0.2,0.2-0.2,0.2l-8.9,0.6c-7,0.2-13.9,0.6-21,0.6c-8.4,0-16.4-0.2-24.5-0.6l-9.2-0.6
	c-0.2,0-0.2-0.2-0.2-0.2h-8l0,0l0,0h-0.3v3.3h0.2l0,0l0,0h8.1l0,0v0.2v1.2l8.9,0.6c14.5,0.9,29.9,0.9,45.1,0.2l8.9-0.6v-1.2v-0.2
	l0,0h12l0,0l0,0h0.9l0,0l0,0l0,0l0,0h-0.8l0,0l0,0h-11.8v1.2c0,0,0.2,0,0.2,0.2h11.5l0,0l0,0h0.9l0,0l0,0l0,0l0,0h-0.9l0,0l0,0
	h-11.5c0,0.2-0.2,0.2-0.2,0.2l-8.9,0.6c-7,0.2-13.9,0.6-21,0.6c-8.4,0-16.4-0.2-24.5-0.6l-9.2-0.6c-0.2,0-0.2-0.2-0.2-0.2h-7.7l0,0
	l0,0h-0.2v3.3h0.2l0,0l0,0l0,0l0,0l0,0l0,0h8.1l0,0v0.2v1.2l8.9,0.6c15.8,0.9,30.7,0.9,45.1,0.2l8.9-0.6v-1.2v-0.2l0,0h7h5l0,0l0,0
	h0.9l0,0l0,0l0,0l0,0h-0.9l0,0l0,0h-11.8v1.2c0,0,0.2,0,0.2,0.2h11.5l0,0l0,0h0.9l0,0l0,0l0,0l0,0h-0.9l0,0l0,0H771
	c0,0.2-0.2,0.2-0.2,0.2l-8.9,0.6c-6.6,0.2-13.6,0.6-20.7,0.6c-8.1,0-16.2-0.2-24.7-0.6h-8.4c-0.2,0-0.2-0.2-0.2-0.2h-7.7l0,0l0,0
	h-0.3v3.3h0.2l0,0l0,0h8.1l0,0v0.2v1.2l8.9,0.6c15,0.9,29.9,0.9,45.1,0.2l8.9-0.6v-1.2v-0.2l0,0h7h5l0,0l0,0h0.9l0,0l0,0l0,0l0,0
	h-0.9l0,0l0,0h-11.8v1.2c0,0,0.2,0,0.2,0.2H783l0,0l0,0h0.9l0,0l0,0l0,0l0,0H783l0,0l0,0h-10.9c0,0.2-0.2,0.2-0.2,0.2l-8.9,0.6
	c-7.3,0.2-14.1,0.6-21.2,0.6c-8.1,0-16.2-0.2-23.9-0.6l-9.2-0.6c-0.2,0-0.2-0.2-0.2-0.2h-7.7l0,0l0,0h-0.7v3.3h0.2l0,0l0,0h8.1l0,0
	v0.2v1.2l8.7,0.6l8.7,0.2l8.1,0.2v-3v-0.2h0.2h7.3h7.3l0,0h0.2v0.2v3.1l10.9-0.2l11.1-0.6v-1.2v-0.6l0,0h7h5l0,0l0,0h0.9v-16.7
	c0,0,0-0.2,0.2-0.2c0,0,0.2,0,0.2,0.2v44.6v0.9c0,0,0,0.2-0.2,0.2c0,0-0.2,0-0.2-0.2v-0.6h-8.4v1.7c0,0,0,0.2-0.2,0.2l0,0
	c0,0-0.2,0-0.2-0.2v-0.6h-1.3v0.6c0,0,0,0.2-0.2,0.2l0,0c0,0-0.2,0-0.2-0.2v-1.7h-1.4v0.2h0.2c0,0,0.2,0,0.2,0.2v2.9h20.1V337
	L791.5,337.6L791.5,337.6z"/>
<path class="st0" d="M598.4,372.4h-5.2c-0.2,0-0.2,0-0.2-0.2l0,0h-5l-0.2,0.2h-0.6v1.7c0,0.2,0,0.2-0.2,0.2h-1.4v18.6h13.5v-20.7
	L598.4,372.4L598.4,372.4z"/>
<path class="st0" d="M776.6,394v0.9c0,0.2,0,0.2-0.2,0.2h-1.5v1.7h0.9c2.2,0.6,3.6,2,4.3,4.3v0.9l0,0v0.2l0,0l0,0l0,0l0,0l0,0h-4.6
	v21.7h0.6c0,0,0,0,0.2,0l0,0c0.2,0,0.2,0,0.6,0.2h7.3c0-0.2,0.2-0.2,0.6-0.2h0.2c0.2,0,0.2,0,0.6,0.2h5c0-0.2,0.2-0.2,0.6-0.2l0,0
	l0,0c0,0,0,0,0.2,0h1.7v-28.7h-8.2c-0.2,0-0.2,0-0.2-0.2v-1H783c0,0-0.2,0-0.2-0.2L776.6,394L776.6,394z"/>
<path class="st1" d="M683.9,372.4L683.9,372.4l-0.2-0.2c0,0-0.2,0-0.2-0.2h-4.9l-0.2,0.2h-5c0,0,0,0-0.2,0l0,0l0,0c0,0,0,0-0.2,0
	h-11.1v1.7c0,0.2,0,0.2-0.2,0.2h-2.2c-0.2,0-0.2,0-0.2-0.2v-1.7h-18.6c0,0-0.2,0-0.2-0.2h-5.2l-0.2,0.2h-0.9v52.1h24.5l0,0
	c0-0.2,0-0.2,0.2-0.2h3.6c0.2,0,0.2,0,0.2,0.2l0,0h25.2v-52.4h-3.3v0.6L683.9,372.4L683.9,372.4z"/>
<path class="st1" d="M768.9,372.4C768.6,372.4,768.6,372.4,768.9,372.4l-0.6-0.2c0,0-0.2,0-0.2-0.2h-4.5l-0.2,0.2h-5c0,0,0,0-0.2,0
	h-0.1c0,0,0,0.2-0.2,0.2h-20.7v1.7c0,0.2,0,0.2-0.2,0.2h-2.2c-0.2,0-0.2,0-0.2-0.2v-1.7h-34.9v1.7c0,0.2,0,0.2-0.2,0.2h-2.2
	c-0.2,0-0.2,0-0.2-0.2v-1.7h-0.7c0,0-0.2,0-0.2-0.2h-5.3l-0.2,0.2h-2v52.1h7.3l0,0c0-0.2,0-0.2,0.2-0.2h3.6c0.2,0,0.2,0,0.2,0.2l0,0
	h33.4l0,0c0-0.2,0-0.2,0.2-0.2h3.6c0.2,0,0.2,0,0.2,0.2l0,0h33.5l0,0c0-0.2,0-0.2,0.2-0.2h0.6v-51.8L768.9,372.4L768.9,372.4z"/>
<path class="st0" d="M632.3,396h-24.5c-0.2,0-0.2,0-0.2-0.2v-23.7h-2.5c0,0-0.2,0-0.2-0.2h-5.2c0,0,0,0.2-0.2,0.2v21.5
	c0,0.2,0,0.2-0.2,0.2h-14.1v7.3v22.7h1.7c0,0,0,0,0.2,0c0,0,0,0,0,0.2l0,0h33.4l0,0c0-0.2,0-0.2,0.2-0.2h3.6c0,0,0,0,0.2,0
	c0,0,0,0,0,0.2l0,0h7.7v-21.5L632.3,396z"/>
<path class="st0" d="M794.4,429.4L794.4,429.4l-4,0.2c0,0-0.2,0-0.2-0.2v-3.3h-14.8v3.3c0,0,0,0.2-0.2,0.2h-3.6c0,0-0.2,0-0.2-0.2
	v-3.6h-33.7v3.6c0,0,0,0.2-0.2,0.2h-3.6c0,0-0.2,0-0.2-0.2v-3.6h-33.8v3.6c0,0,0,0.2-0.2,0.2h-3.6c0,0-0.2,0-0.2-0.2v-3.6h-33.7v3.6
	c0,0,0,0.2-0.2,0.2l0,0l0,0h-3.6l0,0c0,0-0.2,0-0.2-0.2l0,0v-3.6h-32.9v3.6c0,0,0,0.2-0.2,0.2h-3.6c0,0-0.2,0-0.2-0.2v-3.6h-33.7
	v3.6c0,0,0,0.2-0.2,0.2h-3.3l0,0h232.1v-34.5h-21.3L794.4,429.4L794.4,429.4z"/>
<rect x="624.2" y="373.3" class="st0" width="8.1" height="21.5"/>
<path class="st0" d="M615.6,372.4h-7v22.5h14.1v-21.2h-1.5c-0.2,0-0.2,0-0.2-0.2v-1.4L615.6,372.4
	C615.9,372,615.9,372.4,615.6,372.4z"/>
<path class="st0" d="M688.1,278.7h-0.6l0,0v-47.1l0,0h0.6h7.7h0.2V227v-18.4h-22.7v54.1h0.2H685c0.2,0,0.2,0,0.2,0.2v10.9
	c0,0.2,0,0.2-0.2,0.2h-0.2v0.9l0,0h-5l0,0V274H674h-0.2v44.6h22.5v-39.7h-0.2L688.1,278.7L688.1,278.7z"/>
<g>
	<path class="st2" d="M832.5,369.7v25.6h-16.4v33.9H583.4v-33.9v-25.6H816H832.5 M838.1,364.2h-5.5h-16.4H583.4h-5.5v5.5v25.7v33.9
		v5.5h5.5H816h5.5v-5.5v-28.5h10.9h5.5v-5.5v-25.6V364h0.1v0.2H838.1z"/>
</g>
<g>
	<path class="st2" d="M707.9,160.8l67.2,0.2l7.7,45.7h9.7l0.9-3.3l4.3,0.9l-5.2,73.3h3.6v65.5h-4v-1.7h-96.7v-21h-21.5v21.2h-88.1
		v1.4l-3.6,0.2l-5.5-50.3l3.6-0.2l0.2,0.9h0.9l0.2-88.3h3.6v2.5h4.6l7.3-42l65.3,0.1l6.1,33.1l32.4,0.2L707.9,160.8 M703.5,155.5
		l-0.9,4.5l-5.8,33.7h-23.3l-5.2-28.7l-1-4.5h-4.5l-65.2-0.2h-4.7l-0.9,4.6l-6.1,35.1h-0.2h-3.6h-5.5v5.5l-0.2,82.4l-5.2,0.6
		l0.6,5.5l5.5,50.3l0.6,5l5-0.2l3.6-0.2l5.2-0.2v-1.2h82.4h5.5V342v-15.6h10.6v15.2v5.5h5.5h91.2v1.7h5.5h4h5.5v-5.5v-65.8v-5.2
		h-3.3l4.6-67.4l0.2-5l-4.6-0.9l-4.3-0.9l-5-0.9l-0.9,4.3H788l-7.3-41.2l-0.9-4.5h-5l-67.2-0.2L703.5,155.5L703.5,155.5z"/>
</g>
<g>
	<path class="st2" d="M541.9,267v14.8h-0.6v60.1h-34V372h33.9v25.2h0.2v33.9h-24.7v-3.3H502V422H84.6v-48H69.9v-19.8h7.3v-9.5h-7.3
		v-19.8h7.3l18.6-1.4l0.6-44.9V278h405.1v-7.3h16.4v-4L541.9,267 M547.1,261.5h-5.5h-23.8h-5.5v4h-10.9h-5.5v5.5v1.7H96h-5.5v5.5
		v0.6l-0.6,39.8l-13.5,0.9h-7h-5.5v5.5v19.8v5.5v4.3v19.8v5.5h5.5h9.2v42v5.5h5.5h411.8v0.6v5.5h5.5h9.2v3.3h5.5h25.2h5.5v-5.5
		v-33.9v-5.5h-0.2v-19.8v-5.5h-5.7h-28.5v-19h28.5h5.5v-5.7v-55h0.6v-5.7v-14.8L547.1,261.5L547.1,261.5z"/>
</g>
<g>
	<rect x="673.6" y="263.1" class="st3" width="10.4" height="12"/>
	<text transform="matrix(1 0 0 1 675.5953 273.0573)" class="st4 st5 st6">E</text>
</g>
<g>
	<rect x="334.4" y="328.2" class="st3" width="10.4" height="12"/>
	<text transform="matrix(1 0 0 1 336.1138 338.3531)" class="st4 st5 st6">E</text>
</g>
<g>
	<rect x="527.4" y="372.4" class="st3" width="10.4" height="12"/>
	<text transform="matrix(1 0 0 1 529.1266 382.3658)" class="st4 st5 st6">E</text>
</g>
<rect x="557.8" y="422.1" class="st7" width="7.7" height="1.4"/>
<rect x="557.8" y="424.8" class="st7" width="7.7" height="1.4"/>
<rect x="557.8" y="427" class="st7" width="7.7" height="1.4"/>
<rect x="557.8" y="429.1" class="st7" width="7.7" height="1.4"/>
<rect x="557.8" y="431.6" class="st7" width="7.7" height="1.4"/>
<rect x="557.8" y="433.9" class="st7" width="7.7" height="1.4"/>
<rect x="557.8" y="436.1" class="st7" width="7.7" height="1.4"/>
<rect x="557.8" y="410.1" class="st7" width="7.7" height="1.4"/>
<rect x="557.8" y="412.3" class="st7" width="7.7" height="1.4"/>
<rect x="557.8" y="415" class="st7" width="7.7" height="1.4"/>
<rect x="557.8" y="417.5" class="st7" width="7.7" height="1.4"/>
<rect x="557.8" y="419.6" class="st7" width="7.7" height="1.4"/>
<rect x="548.5" y="422.1" class="st7" width="7.7" height="1.4"/>
<rect x="548.5" y="424.8" class="st7" width="7.7" height="1.4"/>
<rect x="548.5" y="427" class="st7" width="7.7" height="1.4"/>
<rect x="548.5" y="429.1" class="st7" width="7.7" height="1.4"/>
<rect x="548.5" y="431.6" class="st7" width="7.7" height="1.4"/>
<rect x="548.5" y="433.9" class="st7" width="7.7" height="1.4"/>
<rect x="548.5" y="436.1" class="st7" width="7.7" height="1.4"/>
<rect x="548.5" y="410.1" class="st7" width="7.7" height="1.4"/>
<rect x="548.5" y="412.3" class="st7" width="7.7" height="1.4"/>
<rect x="548.5" y="415" class="st7" width="7.7" height="1.4"/>
<rect x="548.5" y="417.5" class="st7" width="7.7" height="1.4"/>
<rect x="548.5" y="419.6" class="st7" width="7.7" height="1.4"/>
<rect x="80.8" y="291.8" class="st7" width="7.7" height="1.4"/>
<rect x="80.8" y="293.9" class="st7" width="7.7" height="1.4"/>
<rect x="80.8" y="296.2" class="st7" width="7.7" height="1.4"/>
<rect x="80.8" y="298.9" class="st7" width="7.7" height="1.4"/>
<rect x="80.8" y="300.8" class="st7" width="7.7" height="1.4"/>
<rect x="80.8" y="303.1" class="st7" width="7.7" height="1.4"/>
<rect x="80.8" y="305.7" class="st7" width="7.7" height="1.4"/>
<rect x="81" y="279.5" class="st7" width="7.7" height="1.4"/>
<rect x="81" y="282.1" class="st7" width="7.7" height="1.4"/>
<rect x="81" y="284.2" class="st7" width="7.7" height="1.4"/>
<rect x="81" y="286.7" class="st7" width="7.7" height="1.4"/>
<rect x="81" y="288.9" class="st7" width="7.7" height="1.4"/>
<rect x="71.6" y="291.8" class="st7" width="7.7" height="1.4"/>
<rect x="71.6" y="293.9" class="st7" width="7.7" height="1.4"/>
<rect x="71.6" y="296.2" class="st7" width="7.7" height="1.4"/>
<rect x="71.6" y="298.9" class="st7" width="7.7" height="1.4"/>
<rect x="71.6" y="300.8" class="st7" width="7.7" height="1.4"/>
<rect x="71.6" y="303.1" class="st7" width="7.7" height="1.4"/>
<rect x="71.6" y="305.7" class="st7" width="7.7" height="1.4"/>
<rect x="71.8" y="279.5" class="st7" width="7.7" height="1.4"/>
<rect x="71.8" y="282.1" class="st7" width="7.7" height="1.4"/>
<rect x="71.8" y="284.2" class="st7" width="7.7" height="1.4"/>
<rect x="71.8" y="286.7" class="st7" width="7.7" height="1.4"/>
<rect x="71.8" y="288.9" class="st7" width="7.7" height="1.4"/>
<g>
	<g>
		<path class="st8" d="M533.2,297.4c-0.6,0-1.2-0.6-1.2-1.2c0-0.7,0.6-1.2,1.2-1.2c0.7,0,1.2,0.6,1.2,1.2
			C534.3,296.9,533.6,297.4,533.2,297.4z"/>
		<path class="st8" d="M533.6,297.9c1.2,0,1.4,0.9,1.7,1.4l0.9,3.1c0,0.2,0,0.6-0.2,0.6s-0.6,0-0.6-0.2l-0.9-2.9
			c0-0.2-0.2-0.2-0.2-0.2s-0.2,0.2,0,0.2l1.7,5h-1.7c0,2,0,4,0,4c0,0.6-0.2,0.6-0.6,0.6c0,0-0.6,0-0.6-0.6s0-3.6,0-3.6
			c0-0.2,0-0.2-0.2-0.2s-0.2,0-0.2,0.2c0,0,0,3.1,0,3.6s-0.2,0.6-0.6,0.6c0,0-0.6,0-0.6-0.6c0,0,0-1.7,0-4h-1.7l1.4-5
			c0-0.2,0-0.2,0-0.2s-0.2,0-0.2,0.2l-0.9,2.9c0,0.2-0.2,0.2-0.6,0.2c-0.2,0-0.2-0.2-0.2-0.6l0.9-3.1c0.2-0.6,0.6-1.4,1.7-1.4H533.6
			z"/>
	</g>
</g>
<g>
	<g>
		<path class="st8" d="M533.2,396c-0.6,0-1.2-0.6-1.2-1.2s0.6-1.2,1.2-1.2c0.7,0,1.2,0.6,1.2,1.2C534.3,395.5,533.6,396,533.2,396z"
			/>
		<path class="st8" d="M533.6,396.3c1.2,0,1.4,0.9,1.7,1.4l0.9,3.1c0,0.2,0,0.6-0.2,0.6s-0.6,0-0.6-0.2l-0.9-2.9
			c0-0.2-0.2-0.2-0.2-0.2s-0.2,0.2,0,0.2l1.7,5h-1.7c0,2,0,4,0,4c0,0.6-0.2,0.6-0.6,0.6c0,0-0.6,0-0.6-0.6s0-3.6,0-3.6
			c0-0.2,0-0.2-0.2-0.2s-0.2,0-0.2,0.2c0,0,0,3.1,0,3.6s-0.2,0.6-0.6,0.6c0,0-0.6,0-0.6-0.6c0,0,0-1.7,0-4h-1.7l1.4-5
			c0-0.2,0-0.2,0-0.2s-0.2,0-0.2,0.2l-0.9,2.9c0,0.2-0.2,0.2-0.6,0.2c-0.2,0-0.2-0.2-0.2-0.6l0.9-3.1c0.2-0.6,0.6-1.4,1.7-1.4H533.6
			z"/>
	</g>
</g>
<g>
	<g>
		<path class="st8" d="M510.9,299.3c-0.6,0-1.2-0.6-1.2-1.2s0.6-1.2,1.2-1.2c0.7,0,1.2,0.6,1.2,1.2S511.6,299.3,510.9,299.3z"/>
	</g>
	<path class="st8" d="M508.9,301.8v2.2c0,0.6-0.2,0.6-0.6,0.6c-0.2,0-0.6,0-0.6-0.6v-3.1c0-1.4,0.6-1.7,1.7-1.7h1.7
		c1.2,0,1.7,0.2,1.7,1.7v3.1c0,0.6-0.2,0.6-0.6,0.6c-0.2,0-0.6,0-0.6-0.6v-2.2c0-0.2-0.2-0.2-0.2-0.2s-0.2,0-0.2,0.2s0,7.7,0,7.7
		c0,0.6-0.6,0.6-0.6,0.6c-0.2,0-0.6,0-0.6-0.6s0-4.5,0-4.5s0-0.2-0.2-0.2c0,0-0.2,0-0.2,0.2c0,0,0,4.3,0,4.5s-0.6,0.6-0.6,0.6
		s-0.6,0-0.6-0.6C509.3,309.7,509.3,302.3,508.9,301.8C509.3,301.4,509.3,301.4,508.9,301.8C509.3,301.4,508.9,301.8,508.9,301.8z"
		/>
</g>
<g>
	<g>
		<path class="st8" d="M511.1,396.5c-0.6,0-1.2-0.6-1.2-1.2s0.6-1.2,1.2-1.2s1.2,0.6,1.2,1.2S511.8,396.5,511.1,396.5z"/>
	</g>
	<path class="st8" d="M509.3,399.4v2.5c0,0.6-0.2,0.6-0.6,0.6c-0.2,0-0.6,0-0.6-0.6v-3.1c0-1.4,0.9-1.7,2-1.7h2c1.2,0,2,0.2,2,1.7
		v3.1c0,0.6-0.2,0.6-0.6,0.6c-0.3,0-0.6,0-0.6-0.6v-2.5c0-0.2-0.2-0.2-0.2-0.2s-0.2,0-0.2,0.2s0,8.1,0,8.1c0,0.6-0.6,0.6-0.6,0.6
		s-0.6,0-0.6-0.6s0-4.6,0-4.6s0-0.2-0.2-0.2c0,0-0.2,0-0.2,0.2c0,0,0,4.3,0,4.6c0,0.3-0.6,0.6-0.6,0.6s-0.6,0-0.6-0.6
		c0,0,0-7.7,0-8.1c0-0.2-0.2-0.2-0.2-0.2C509.3,398.8,509.3,399.2,509.3,399.4z"/>
</g>
<g>
	<rect x="563.3" y="437.5" class="st4" width="20.3" height="13.6"/>
	<polygon class="st8" points="576.4,454.7 569.6,455 573,449.3 	"/>
</g>
<g>
	<rect x="551.9" y="253" class="st4" width="20.3" height="13.6"/>
	<polygon class="st8" points="558.9,249.1 565.5,249.1 562.1,254.8 	"/>
</g>
<g>
	<rect x="81.3" y="311" class="st4" width="8.7" height="13.6"/>
	<polygon class="st8" points="82.5,309.9 89,309.9 85.7,315.5 	"/>
</g>
<g>
	<polygon class="st4" points="538,372.4 504.1,372.4 503.6,347.7 538,347.7 	"/>
	<polygon class="st8" points="521.3,355.1 521.3,361.4 515.5,358.1 	"/>
</g>
<g>
	<rect x="590.9" y="340.5" class="st4" width="20.3" height="13.6"/>
	<polygon class="st8" points="603.7,358.1 597.2,358.1 600.3,352.5 	"/>
</g>
<g>
	<rect x="678.7" y="360.3" class="st4" width="6.6" height="11.5"/>
	<polygon class="st8" points="679.2,356.5 685.6,356.5 682.5,362 	"/>
</g>
<g>
	<rect x="690" y="360.3" class="st4" width="6.6" height="11.5"/>
	<polygon class="st8" points="690.7,356.5 697.3,356.5 694.1,362 	"/>
</g>
<g>
	<rect x="763.1" y="360.3" class="st4" width="6.6" height="11.5"/>
	<polygon class="st8" points="764,356.5 770.4,356.5 767.4,362 	"/>
</g>
<g>
	<rect x="768.6" y="340.5" class="st4" width="20.3" height="13.6"/>
	<polygon class="st8" points="781.8,358.1 775.3,358.1 778.3,352.5 	"/>
</g>
<g>
	<text transform="matrix(1 0 0 1 618.6832 224.8785)" class="st4 st9 st10">0116</text>
</g>
<g>
	<text transform="matrix(1 0 0 1 655.1938 399.4059)" class="st4 st9 st10">0113</text>
</g>
<g>
	<text transform="matrix(1 0 0 1 730.5522 224.8785)" class="st4 st9 st10">0104</text>
</g>
<g>
	<text transform="matrix(1 0 0 1 722.8873 398.8561)" class="st4 st9 st10">0103</text>
</g>
<g class="st11">
	<g>
		<text transform="matrix(1 0 0 1 63.1724 170.7477)" class="st12 st9 st13">Level </text>
	</g>
	<circle class="st12" cx="117.8" cy="168.6" r="23.1"/>
	<text transform="matrix(1 0 0 1 106.4908 185.8209)" class="st4 st9 st14">1</text>
</g>
<rect x="794.7" y="373.9" class="st7" width="1.4" height="7.7"/>
<rect x="797.1" y="373.9" class="st7" width="1.4" height="7.7"/>
<rect x="799.3" y="373.9" class="st7" width="1.4" height="7.7"/>
<rect x="801.9" y="373.9" class="st7" width="1.4" height="7.7"/>
<rect x="804" y="373.9" class="st7" width="1.4" height="7.7"/>
<rect x="806.3" y="373.9" class="st7" width="1.4" height="7.7"/>
<rect x="808.5" y="373.9" class="st7" width="1.4" height="7.7"/>
<rect x="782.6" y="373.7" class="st7" width="1.4" height="7.7"/>
<rect x="784.9" y="373.7" class="st7" width="1.4" height="7.7"/>
<rect x="787.2" y="373.7" class="st7" width="1.4" height="7.7"/>
<rect x="789.9" y="373.7" class="st7" width="1.4" height="7.7"/>
<rect x="792.1" y="373.7" class="st7" width="1.4" height="7.7"/>
<rect x="794.7" y="383.1" class="st7" width="1.4" height="7.7"/>
<rect x="797.1" y="383.1" class="st7" width="1.4" height="7.7"/>
<rect x="799.3" y="383.1" class="st7" width="1.4" height="7.7"/>
<rect x="801.9" y="383.1" class="st7" width="1.4" height="7.7"/>
<rect x="804" y="383.1" class="st7" width="1.4" height="7.7"/>
<rect x="806.3" y="383.1" class="st7" width="1.4" height="7.7"/>
<rect x="808.5" y="383.1" class="st7" width="1.4" height="7.7"/>
<rect x="782.6" y="382.8" class="st7" width="1.4" height="7.7"/>
<rect x="784.9" y="382.8" class="st7" width="1.4" height="7.7"/>
<rect x="787.2" y="382.8" class="st7" width="1.4" height="7.7"/>
<rect x="789.9" y="382.8" class="st7" width="1.4" height="7.7"/>
<rect x="792.1" y="382.8" class="st7" width="1.4" height="7.7"/>
</svg>
