<?xml version="1.0" encoding="utf-8"?>
<!-- Generator: Adobe Illustrator 19.1.0, SVG Export Plug-In . SVG Version: 6.00 Build 0)  -->
<svg version="1.1" id="Layer_1" xmlns="http://www.w3.org/2000/svg" xmlns:xlink="http://www.w3.org/1999/xlink" x="0px" y="0px"
	 viewBox="0 0 900 600" style="enable-background:new 0 0 900 600;" xml:space="preserve">
<style type="text/css">
	.st0{fill:#989798;}
	.st1{fill:#FFFFFF;}
	.st2{fill:#4C6EB5;}
	.st3{fill:#CDCCCC;}
	.st4{fill:#3A65B0;}
	.st5{fill:#4B6DB4;}
	.st6{font-family:'MyriadPro-Regular';}
	.st7{font-size:12.4246px;}
	.st8{opacity:0.6;fill:#4B6DB4;enable-background:new    ;}
	.st9{fill:none;stroke:#989798;stroke-width:10;stroke-miterlimit:10;}
	.st10{font-family:'ArialMT';}
	.st11{font-size:9.8581px;}
	.st12{opacity:0.5;}
	.st13{fill:#989898;}
	.st14{font-size:13.6919px;}
	.st15{font-size:43.8143px;}
</style>
<g>
	<g>
		<path class="st0" d="M736.4,173.4l67.2,0.2l7.7,45.7h9.7l0.9-3.3l4.3,0.9l-5.2,73.3h3.6v65.4h-4v20.7l19.8,0.2v20.1l-16.4-0.2
			v41.8h-99.8v0.2h-21.5h-88.1V356l-3.6,0.2l-5.5-50.3l3.6-0.2l0.2,0.9h0.9l0.2-88.3h3.6v2.5h4.6l7.3-42l65.3,0.2l7.5,40.2h6.3
			l0.6,45.7h20.3l-0.2-45.9h3.3L736.4,173.4 M732,168l-0.9,4.6l-6.6,40.5h-4.3v5.5l0.2,40.5h-9.5l-0.6-40.5v-5.2h-5.2H703l-6.6-35.6
			l-0.7-4.3h-4.5l-65.2-0.2h-4.6l-0.9,4.4l-6.1,35.1h-0.6H610h-5.4v5.5l-0.2,82.4l-5.2,0.6l0.6,5.5l5.5,50.3l0.6,5l3.1-0.2v76.9v5.5
			h5.5h88.1h21.5h5.5v0.2h94.6h5.5v-5.7v-36.2l10.9,0.3h5.5v-5.5v-20.1v-5.2h-5.2h-14.1v-9.7h4v-5.5v-65.5v-5.5h-3.6l4.6-67.4l0.2-5
			l-4.6-0.9l-4.3-0.9l-5-0.9l-0.9,4.3h-0.6l-7.3-41.2l-0.9-4.5h-4.5l-67.2-0.2L732,168L732,168z"/>
	</g>
	<g>
		<path class="st0" d="M571.1,272.4v14.8h-0.6v60h-33.9v30.1h33.9v25.2h0.2v33.9H546v-3.3h-14.7V427H113.8v-48l-0.2-59.6l-17,0.5
			l0.6-36l28.5-0.6h203.6v12.2l11.8,0.2V283l189.8,0.2V276h16.4v-4h23.8 M576.7,266.8h-5.4h-23.9h-5.8v4h-10.9h-5.5v5.5v1.7
			l-184.6-0.5h-5.5v5.5v7.3h-0.7v-7v-5.5h-5.5H125.6l0,0l0,0L96.9,278h-5.2v5.2l-0.2,36.2v5.5l5.5-0.2l11.1-0.2l0.2,54.4v48v5.5h5.5
			h411.8v0.6v5.5h5.5h9.2v3.3h5.5h24.7h5.5v-5.5v-33.9v-5.5h-0.2v-19.8v-5.5h-5.5h-28.5v-19.3h28.5h5.5v-5.5V292h0.6v-5.5v-13.9
			v-5.7L576.7,266.8L576.7,266.8z"/>
	</g>
	<g>
		<rect x="535.7" y="352.3" class="st1" width="13.6" height="20.3"/>
		<polygon class="st2" points="553,359.5 553,366 547.4,362.9 		"/>
	</g>
	<g>
		<rect x="601.6" y="360.9" class="st1" width="13.6" height="20.3"/>
		<rect x="602.3" y="398" class="st1" width="13.6" height="13.2"/>
		<polygon class="st2" points="597.7,374.2 597.7,367.6 603.2,370.6 		"/>
	</g>
	<g>
		<rect x="675.3" y="370.6" class="st1" width="6.6" height="11.5"/>
		<polygon class="st2" points="676.3,366.8 682.6,366.8 679.5,372.5 		"/>
	</g>
	<g>
		<rect x="331.7" y="272.6" class="st1" width="6.6" height="25.6"/>
		<polygon class="st2" points="332.6,268.7 339,268.7 335.8,274.3 		"/>
	</g>
	<g>
		<rect x="729.9" y="370.6" class="st1" width="6.6" height="11.5"/>
		<polygon class="st2" points="730.6,366.8 737.2,366.8 733.9,372.5 		"/>
	</g>
	<g>
		<rect x="794.3" y="370.6" class="st1" width="6.6" height="11.5"/>
		<polygon class="st2" points="794.9,366.8 801.6,366.8 798.1,372.5 		"/>
	</g>
	<path class="st3" d="M561.4,392.3L561.4,392.3C561.8,392.3,561.8,392.3,561.4,392.3C561.8,392.3,561.8,392.3,561.4,392.3
		C561.8,392.3,561.8,392.3,561.4,392.3C561.8,392.5,561.8,392.5,561.4,392.3v0.2l0,0v0.9c-0.6,2.2-2,3.6-4.3,4h-0.9v3.3
		c0,0.2-0.2,0.2-0.2,0.2h-3.1v7.7h8.4c0,0,0.2,0,0.2,0.2v0.9c0,0,0,0.2-0.2,0.2h-0.6v0.9c0,0,0,0,0,0.2c0,0,0,0-0.2,0h-3.2v0.2l0,0
		l0,0l0,0l0,0l0,0l0,0l0,0l0,0l0,0l0,0l0,0l0,0l0,0l0,0l0,0l0,0l0.2,0.2l0,0l0.2,0.2l0,0c0,0,0,0,0.2,0l0,0l0,0l0,0l0,0l0,0l0,0l0,0
		l0,0l0,0l0,0l0,0l0,0l0,0l0,0l0,0l0,0l0,0l0,0l0,0l0,0l0,0h0.6l0,0c0,0,0.2,0,0.2,0.2v0.6h1.4c0,0,0.2,0,0.2,0.2l0,0l0,0l0,0v0.2
		c0,0.2,0,0.2,0,0.2s0,0,0,0.2l0,0l0,0l0,0l0,0l0,0l0,0l0,0l0,0l0,0l0,0l0,0l0,0l0,0l0,0l0,0l0,0l0,0l0,0l0,0l0,0l0,0l0,0l0,0l0,0
		l0,0l0,0l0,0l0.2,0.2l0,0l0,0l0.2,0.2l0,0v0.2l0,0l0,0l0.2,0.2l0,0l0,0l0,0l0,0h0.2l0,0l0,0l0,0l0,0l0,0l0,0l0,0l0,0h0.2h0.2l0,0
		l0,0l0,0h0.2c0,0,0,0,0.2,0h0.2v-4.4c0,0,0-0.2,0.2-0.2l0,0c0,0,0,0,0.2,0h0.2v-23.1h-11v0.9L561.4,392.3L561.4,392.3z"/>
	<path class="st3" d="M631.7,283.8L631.7,283.8L631.7,283.8L631.7,283.8L631.7,283.8L631.7,283.8
		C631.9,283.8,631.9,283.8,631.7,283.8h0.2l0,0h0.9c2.2,0.2,3.6,2,4.3,4v0.6h63.6v-13.2h-80.8v12.7h12L631.7,283.8L631.7,283.8z"/>
	<path class="st3" d="M567.5,419.6C567.5,419.9,567.5,419.9,567.5,419.6l-0.2,0.2l0,0l0,0h-0.2c0,0,0,0-0.2,0s-0.2,0-0.2,0
		s0,0-0.2,0l0,0l0,0l0,0h-0.2h-0.2l0,0l0,0l0,0l0,0l0,0l0,0l0,0l0,0l0,0l0,0l0,0l0,0l0,0l0,0l0,0l0,0l0,0l0,0l-0.2-0.2l0,0l0,0l0,0
		l0,0l0,0l-0.2-0.2l0,0l0,0l0,0l0,0l0,0l0,0l0,0l0,0l0,0l0,0l0,0l0,0l0,0l0,0l0,0l0,0l0,0l0,0l0,0l0,0l0,0l0,0l0,0l0,0l0,0l0,0l0,0
		l0,0l0,0l0,0c0-0.2,0-0.2,0-0.2s0,0,0-0.6v-0.2l0,0h-2.2h-0.2h-1.7l0,0l0,0h-0.2h-1.7h-0.6h-0.7h-2.2v7.7h2.2v-0.2
		c0-0.2,0.2-0.2,0.2-0.2h2.2c0.2,0,0.2,0,0.2,0.2h1.4c0.2,0,0.2,0.2,0.2,0.2v0.2h2.2c0,0,0.2,0,0.2,0.2v0.9c0,0,0,0.2-0.2,0.2h-2.2
		l0,0c0,0.2-0.2,0.2-0.2,0.2l0,0c-0.2,0-0.2-0.2-0.2-0.2l0,0h-5.8v5l0,0v3.1h14.1v-17.3l0,0L567.5,419.6L567.5,419.6z"/>
	<path class="st3" d="M728,297.7v0.6h17.7v-8.1h-15.2v2.2c0,0.2-0.2,0.2-0.2,0.2h-1.7c0,0.2-0.2,0.2-0.2,0.2l0,0v4.5l0,0
		C727.7,297.4,728,297.4,728,297.7z"/>
	<path class="st3" d="M249,375.5L249,375.5c0.2,0,0.6,0.2,0.6,0.2h6.1v-12.2h-0.1c-0.2,0-0.6-0.2-0.6-0.2h-10.9
		c0,0.2-0.2,0.2-0.6,0.2h-14.1v11.1h2.2c0.2,0,0.2,0.2,0.2,0.2v0.9H244h0.2h4.6L249,375.5C248.7,375.7,248.7,375.5,249,375.5z
		 M236.3,373.5h-1.2c-0.2,0-0.2-0.2-0.2-0.2l0.2-0.2h1.2c0.2,0,0.2,0.2,0.2,0.2L236.3,373.5z"/>
	<path class="st3" d="M342.7,417L342.7,417v-4.5l0,0c-0.2,0-0.2-0.2-0.2-0.2v-33.9v-2.5h-0.2c-0.2,0-0.2-0.2-0.2-0.2v-7.5h-5.5
		c-0.2,0-0.2-0.2-0.2-0.2l0,0h-7l0,0c0,0.2-0.2,0.2-0.2,0.2h-0.9v12.2c0,0.2-0.2,0.2-0.2,0.2h-28.7v41.8h43.2v-4.6
		C342.3,417.2,342.3,417,342.7,417z"/>
	<path class="st3" d="M434,362.9v4.6c0,0.2-0.2,0.2-0.2,0.2H432c-0.2,0-0.2-0.2-0.2-0.2l0,0h-7l0,0c0,0.2-0.2,0.2-0.2,0.2h-4.7v7.5
		c0,0.2-0.2,0.2-0.2,0.2h-0.6v36.7c0,0.2-0.2,0.2-0.2,0.2l0,0v4.5l0,0c0.2,0,0.2,0.2,0.2,0.2v4.6h36.2v-59.3h-21.4v0.3h0.1
		L434,362.9L434,362.9z"/>
	<path class="st3" d="M473,389.7v4.6c0,0,0,0.2-0.2,0.2h-0.2c0,0-0.2,0-0.2-0.2v-4.6h-6.6l1.4,1.4l0,0l0,0l0,0l0,0l0,0l-1.7-1.7l0,0
		h-8.7v32.2h17.4v-32.2L473,389.7z"/>
	<path class="st3" d="M412.9,417.5C412.9,417.5,412.5,417.5,412.9,417.5L412.9,417.5L412.9,417.5L412.9,417.5v-1.2
		c0.6-2,2-3.3,4.3-4h0.6v-36.5h-0.6c-0.2,0-0.2-0.2-0.2-0.2v-7.5h-4.7c-0.2,0-0.2-0.2-0.2-0.2l0,0h-7l0,0c0,0.2-0.2,0.2-0.2,0.2
		h-0.6v6.6c0,0.2-0.2,0.2-0.2,0.2h-21.6v0.6c0,0.2-0.2,0.2-0.2,0.2h-2.2c-0.2,0-0.2-0.2-0.2-0.2v-0.6h-21.5c-0.2,0-0.2-0.2-0.2-0.2
		v-6.6h-0.6c-0.2,0-0.2-0.2-0.2-0.2l0,0h-7.2l0,0c0,0.2-0.2,0.2-0.2,0.2h-4.5v7.5c0,0.2-0.2,0.2-0.2,0.2h-0.6v36.5h0.6
		c2,0.2,4,2,4.3,4l0.2,0.9l0,0l0,0v0.2l0,0h-4.6v4.6h74.2v-4.6h-6.3v0.1H412.9z"/>
	<path class="st3" d="M717.1,289.9c0-0.2,0.2-0.2,0.2-0.2l0,0v-4.5l0,0c-0.2,0-0.2-0.2-0.2-0.2v-1.2h-11.8v14.1h11.8V289.9z"/>
	<path class="st3" d="M266,420.2v-3.6v-0.2v-4.6l-0.2-0.2v-16.7c0-0.2,0.2-0.6,0.6-0.6v-6.8c-0.2,0-0.6-0.2-0.6-0.6v-8.4
		c0-0.2,0.2-0.6,0.2-0.6v-1.7c-0.2,0-0.2-0.2-0.2-0.6v-12h-2.9h-0.2c-0.2,0-0.6-0.2-0.6-0.2h-4.5c0,0.2-0.2,0.2-0.6,0.2h-0.9v13.3
		c0,0.2-0.2,0.2-0.2,0.2H253V410c0,0.2-0.2,0.2-0.2,0.2h-10.6H242h-4.6h-0.2h-9.7v5c0,0.2-0.2,0.6-0.2,0.6v4.5
		c0.2,0,0.2,0.2,0.2,0.6v1.2v0.9h25.6h5.2h7.3v-2.5C266,420.5,266,420.5,266,420.2z"/>
	<path class="st3" d="M543.6,420.7C543.6,420.7,543.3,420.7,543.6,420.7c0,0.2-0.2,0.2-0.2,0.2l0,0c-0.2,0-0.2-0.2-0.2-0.2l0,0H541
		c0,0-0.2,0-0.2-0.2v-0.6c0,0,0-0.2,0.2-0.2h2.5v-0.2c0-0.2,0.2-0.2,0.2-0.2h2.2c0.2,0,0.2,0.2,0.2,0.2v0.2h3.6V412h-8.9l0,0l0,0
		l0,0c0,0.2,0,0.2,0,0.6c0,0,0,0,0,0.2l0,0l0,0c0,0.2,0,0.2,0,0.2v0.2l0,0l0,0l0,0l0,0l0,0l0,0l0,0l0,0l0,0l0,0l0,0l0,0l0,0l0,0
		l-0.2,0.2l0,0l0,0l-0.2,0.2l0,0l0,0l-0.2,0.2l0,0l0,0L540,414l0,0l0,0l-0.2,0.2l0,0l0,0l0,0l0,0l0,0l0,0l0,0l0,0l0,0l0,0l0,0l0,0
		l0,0l0,0l0,0l0,0l0,0l0,0l0,0h-0.2h-0.4l0,0l0,0c0,0,0,0-0.2,0s0,0-0.2,0c0,0,0,0-0.2,0h-0.4H538c0,0-0.2,0-0.2-0.2v-4.4l0,0v10.9
		l0,0v4h2l0,0c0.2,0,0.2,0.2,0.2,0.2v2h11.6v-8.4h-7.5v2.3L543.6,420.7L543.6,420.7z"/>
	<path class="st3" d="M790.6,294.5L790.6,294.5L790.6,294.5C790.6,294.8,790.6,294.8,790.6,294.5L790.6,294.5h-0.2l0,0h-0.9
		c-2.2-0.6-3.6-2-4.3-4v-0.9h-17.9v1.4c0,0.2-0.2,0.2-0.2,0.2h-1.7c-0.2,0-0.2-0.2-0.2-0.2v-1.4h-17.9v12.6h46.1v-12.6h-2.8
		L790.6,294.5L790.6,294.5L790.6,294.5z"/>
	<path class="st3" d="M481.9,410.9c-0.2,0-0.2-0.2-0.2-0.2h-4.5v5c0,0,0,0.2-0.2,0.2h-0.2c0,0-0.2,0-0.2-0.2v-4.6h-1.2v11.5h36.2
		v-11.5H482L481.9,410.9L481.9,410.9z"/>
	<path class="st3" d="M510.6,394.6L510.6,394.6c-0.2,0-0.6,0-0.6-0.2v-4.6h-6.6l1.4,1.4l0,0l0,0l0,0l0,0l0,0l-1.7-1.7l0,0h-8.4v19.8
		h17.7v-19.8h-1.2L510.6,394.6L510.6,394.6z"/>
	<path class="st3" d="M522.1,389.7L522.1,389.7l-1.7,1.7l0,0l0,0l0,0l0,0l0,0l1.4-1.4h-7.1v4.6c0,0,0,0.2-0.2,0.2h-0.2
		c0,0-0.2,0-0.2-0.2V390h-1.2v32.2h16.7V390L522.1,389.7z"/>
	<path class="st3" d="M805.3,291.5c0,0.2-0.2,0.2-0.2,0.2h-1.7c-0.2,0-0.2-0.2-0.2-0.2v-1.4h-8.4v13.7c0,0.2-0.2,0.2-0.2,0.2h-48.3
		c-0.2,0-0.2-0.2-0.2-0.2v-4h-41.8c-0.2,0-0.2-0.2-0.2-0.2v-9.5H655v1.4c0,0,0,0.2-0.2,0.2h-2.2c0,0-0.2,0-0.2-0.2v-1.4h-6.1v0.9
		c0,0.2-0.2,0.2-0.2,0.2l0,0v9.2h0.2c0.2,0,0.2,0.2,0.2,0.2v2.9c0,0.2-0.2,0.2-0.2,0.2h-8.7v25.2c0,0.2-0.2,0.2-0.2,0.2h-23.3
		l1.4,13.2h1.7c0.2,0,0.2,0.2,0.2,0.2v0.2h35.3v-0.2c0-0.2,0.2-0.2,0.2-0.2h39.6c0.2,0,0.2,0.2,0.2,0.2v0.2l35.3-0.2
		c0,0,0-0.2,0.2-0.2h31.4h7.5l0,0l0,0v-7.7l0,0l0,0l0,0l0,0l0,0l0,0l0,0h27.6l0,0v8.7h8.1v-0.6c0-0.2,0.2-0.2,0.2-0.2l0,0h18.9
		v-52.4h-16.7L805.3,291.5L805.3,291.5z"/>
	<path class="st3" d="M521.2,367.6c0,0.2-0.2,0.2-0.2,0.2h-1.7c-0.2,0-0.2-0.2-0.2-0.2v-3.7h-50.7v3.6c0,0.2-0.2,0.2-0.2,0.2h-3.1
		c-0.2,0-0.2-0.2-0.2-0.2l0,0h-7l0,0c0,0.2-0.2,0.2-0.2,0.2h-0.6v20.7h8.7c0.2,0,0.2,0,0.2,0.2h7.3l0.2-0.2h4c0.2,0,0.2,0,0.2,0.2h7
		l0.2-0.2h18.4c0.2,0,0.2,0,0.2,0.2h7.3l0.2-0.2h4c0.2,0,0.2,0,0.2,0.2h7l0.2-0.2h7.7v-20.7h-1.4c-0.2,0-0.2-0.2-0.2-0.2l0,0h-7.3
		V367.6z"/>
	<path class="st3" d="M481.9,409.5H493v-19.8h-8.4l0,0l-1.7,1.7l0,0l0,0h-0.2l0,0l0,0l1.4-1.4h-6.5v4.6c0,0,0,0.2-0.2,0.2h-0.2
		c0,0-0.2,0-0.2-0.2V390h-1.2v19.8h1.4c0.2,0,0.2,0.2,0.2,0.2l0,0h4.5l0,0C481.7,409.7,481.9,409.5,481.9,409.5z"/>
	<path class="st3" d="M381.8,335.5h-3.6v12h24.2v-4.6c0-0.2,0.2-0.2,0.2-0.2h0.9c0,0,0,0,0.2-0.2v-0.2l0,0h8.4l0,0v0.2
		c0,0,0.2,0,0.2,0.2h4.5v-54.4h-1.7h-5.5H382v47.1C382.2,335.5,382.2,335.5,381.8,335.5z"/>
	<path class="st3" d="M635.2,308.6L635.2,308.6L635.2,308.6L635.2,308.6L635.2,308.6H635l0,0h-1c-2.2-0.6-3.6-2-4.3-4v-0.9h-19.5
		l2.5,23.9h22.5v-23.9h-0.1L635.2,308.6L635.2,308.6z"/>
	<path class="st3" d="M535.7,329.5L535.7,329.5L535.7,329.5C535.7,329.3,535.7,329.3,535.7,329.5
		C535.7,329.3,535.7,329.3,535.7,329.5C535.7,329.3,535.7,329.3,535.7,329.5L535.7,329.5h0.2l0,0h0.9c2.2,0.6,4,2,4.3,4.3v0.6h3.6
		v-0.9c0-0.2,0.2-0.2,0.2-0.2h4.5v-11.5h-6.5c0,0-0.2,0-0.2-0.2v-0.9c0,0,0-0.2,0.2-0.2h6.3v-4.6h-3.3c0,0-0.2,0-0.2-0.2v-0.2
		c0,0,0-0.2,0.2-0.2h3.3v-3.8h-3.3c0,0-0.2,0-0.2-0.2l0,0c0,0,0-0.2,0.2-0.2h3.3v-3.6h-3.3c0,0-0.2,0-0.2-0.2l0,0c0,0,0-0.2,0.2-0.2
		h3.3v-3.6h-7.9h-0.2c0,0-0.2,0-0.2-0.2l0,0l0,0l0,0c0,0,0-0.2,0.2-0.2h0.2h0.2l0,0h0.2l0,0l0,0l0,0l0,0l0,0l0,0l0,0l0,0l0,0l0,0
		l0,0l0,0l0,0l0,0l0,0l0,0l0,0l0,0l0,0l0,0l0,0l0,0l0,0c0,0,0,0,0.2,0l0,0l0,0l0,0l0,0l0,0l0,0l0,0l0,0l0,0l0,0l0,0l0,0l0,0l0,0l0,0
		l0,0l0,0l0,0l0,0l0,0l0,0v-0.2l0,0l0,0l0,0h-3.3l0,0l0,0l0,0l0,0c0,0-0.2,0-0.2-0.2v-2c0,0,0-0.2,0.2-0.2h0.2h0.2
		c0.2,0,0.2,0,0.2,0s0,0,0.2,0l0,0l0,0l0,0l0,0l0,0l0,0l0,0l0,0l0,0l0,0l0,0l0,0l0,0l0,0l0,0l0,0l0,0l0,0l0,0l0,0l0,0l0.2-0.2l0,0
		l0.2-0.2l0,0l0,0l0,0l0,0l0,0l0,0l0,0l0,0l0,0l0,0l0,0l0,0l0,0l0,0l0,0l0,0l0,0l0,0v-0.2l0,0l0,0l0,0h-3.3l0,0l0,0l0,0l0,0
		c0,0-0.2,0-0.2-0.2v-0.6h-0.4l0,0c0,0-0.2,0-0.2-0.2l0,0l0,0l0,0l0,0v-0.2l0,0l0,0c0-0.2,0-0.2,0-0.2s0,0,0-0.2l0,0l0,0l0,0
		c0,0,0,0,0-0.2v-0.6l0,0l0,0l0,0l0,0l0,0l0,0l0,0l0,0l0,0l0,0l0,0l0,0l0,0c0-0.2-0.2-0.2-0.2-0.2l-0.2-0.2l0,0l0,0l-0.2-0.2
		l-0.2-0.2l0,0l0,0l0,0l0,0l0,0l0,0l0,0l0,0l0,0l0,0l0,0l0,0l0,0l0,0l0,0l0,0l0,0l0,0l0,0l0,0l0,0l0,0l0,0l0,0l0,0l0,0l0,0l0,0l0,0
		h-0.2l0,0l0,0l0,0v4.5c0,0,0,0.2-0.2,0.2l0,0c0,0,0,0-0.2,0h-0.6v33.1h0.6L535.7,329.5L535.7,329.5z"/>
	<path class="st3" d="M785.5,288.4L785.5,288.4C785.5,288.4,785.7,288.4,785.5,288.4l0.2,0.2h5v-0.2l0,0h0.2c0,0,0,0,0.2,0H817
		l0.6-9.2h-1.7l-0.2,2.2v0.2h-0.2h-0.8c-0.2,0-0.2-0.2-0.2-0.2l1.7-23.9l-10.6-0.9c0,0-0.2,0-0.2-0.2l0,0l-9.2,0.6
		c-8.1,0.2-15.8,0.6-23.9,0.6c-7.7,0-15.8-0.2-23.9-0.6l-9.5-0.6l0,0c0,0,0,0.2-0.2,0.2H730v31.7h55.8v0.1L785.5,288.4L785.5,288.4z
		"/>
	<path class="st3" d="M237.3,360v1.2h5.8c0.2,0,0.2,0,0.6,0.2h11.1c0,0,0.2-0.2,0.6-0.2h2.2c0.2,0,0.2,0,0.6,0.2h4.5
		c0,0,0.2-0.2,0.6-0.2h0.2h2.9v-0.9c0-0.2,0-0.2,0.2-0.6v-9.5c0,0-0.2-0.2-0.2-0.6v-3.3c0-0.2,0-0.2,0.2-0.6v-4.6
		c0,0-0.2-0.2-0.2-0.6v-5.2h-2.9h-0.2h-4.7h-0.2l0,0v12.8c0,0.2-0.2,0.2-0.2,0.2h-6.1h-0.2h-8.7H243h-4.6v1.2c0,0.2,0,0.2-0.2,0.2
		l0.2,8.7l0,0v0.2L237.3,360C237.3,359.8,237.3,360,237.3,360z M262.1,349.1C262.1,348.9,262.1,348.9,262.1,349.1
		c0.2-0.2,0.2,0,0.2,0v0.9c0,0,0.2,0,0.2,0.2s0,0.2-0.2,0.2h-0.2c0,0-0.2,0-0.2-0.2V349L262.1,349.1L262.1,349.1z"/>
	<path class="st3" d="M688.4,360h0.9l0,0h0.2l0,0l0,0l0,0l0,0l0,0l0,0v4.6h0.6v-20.1h-17.7v19.9h11.8v-0.9
		C684.9,362.1,686.9,360.5,688.4,360z"/>
	<path class="st3" d="M746.7,344.8h-17.2v19.8h11.8V364c0.2-2,2-3.6,4.3-4.3h0.9l0,0h0.2l0,0l0,0l0,0l0,0l0,0l0,0l0,0v4.6h0.6
		L746.7,344.8L746.7,344.8z"/>
	<path class="st3" d="M765.7,344.8H748v19.8h11.8V364c0.6-2.2,1.7-3.3,4.3-4.3h0.9l0,0h0.2l0,0l0,0l0,0l0,0l0,0l0,0l0,0v4.6h0.6
		L765.7,344.8L765.7,344.8z"/>
	<path class="st3" d="M711,360L711,360L711,360L711,360L711,360L711,360L711,360h0.2l0,0h0.9c2.2,0.6,3.6,2,4.3,4v0.6h11.8v-19.8
		h-0.4c-0.2,0-0.2-0.2-0.2-0.2l0,0h-17v20.3h0.6V360H711z"/>
	<path class="st3" d="M709,344.5h-17l0,0c0,0.2-0.2,0.2-0.2,0.2h-0.2v19.8h0.6v-4.6l0,0l0,0l0,0l0,0l0,0l0,0h0.2l0,0h0.9
		c2,0.2,3.6,2,4.3,4v0.6h11.8v-20H709L709,344.5L709,344.5z"/>
	<path class="st3" d="M627.2,300.8L627.2,300.8C627.2,301.1,627.2,301.1,627.2,300.8v1.4h2.2c0,0,0,0,0.2,0h0.2l0,0v0.2h5v-0.2l0,0
		l0,0c0,0,0,0,0.2,0h8.7V301c0,0,0,0,0-0.2l0,0l0,0h0.2l0,0l-3.3-3.3l0,0l0,0l0,0l0,0l0.9-0.6l0.9-0.6l0.9-0.2l-0.6-0.2l-0.9-0.6
		l-0.9-0.6l0,0l0,0l0,0l0,0l3.3-3.3H644l0,0l0,0c0,0,0,0,0-0.2v-0.9h-6.6c0,0,0,0-0.2,0H637l0,0v-0.2h-5v0.2l0,0l0,0c0,0,0,0-0.2,0
		l0,0h-4.3v0.9c0,0,0,0,0,0.2l0,0l0,0h-0.2v9.3L627.2,300.8L627.2,300.8z"/>
	<path class="st3" d="M280.5,319.1c-0.2,0-0.6-0.2-0.6-0.2h-11.1v1.4c0.2,0,0.2,0.2,0.2,0.6c0,0.3-0.2,0.6-0.2,0.6v4.5
		c0.2,0,0.2,0.2,0.2,0.6h4.5c0.2,0,0.6,0.2,0.6,0.2h2.2c0-0.2,0.2-0.2,0.6-0.2h12l0,0h1.2l0,0h7v-0.2c0-0.2,0.2-0.2,0.2-0.2
		c0.2,0,0.2,0.2,0.2,0.2v0.2h0.6l0,0h1.2l0,0h0.9l0,0h1.2l0,0h20.3v-7.3H314c0,0.2-0.2,0.2-0.6,0.2c-0.3,0-0.6-0.2-0.6-0.2h-4
		c0,0.2-0.2,0.2-0.6,0.2c-0.3,0-0.6-0.2-0.6-0.2H301c0,0.2-0.2,0.2-0.6,0.2c-0.2,0-0.6-0.2-0.6-0.2h-4.2c0,0.2-0.2,0.2-0.6,0.2
		c-0.2,0-0.6-0.2-0.6-0.2h-7c0,0.2-0.2,0.2-0.6,0.2c-0.2,0-0.6-0.2-0.6-0.2h-4.5C281.2,318.9,280.8,319.1,280.5,319.1z"/>
	<path class="st3" d="M626.7,256.2h-6.6l0,0l0,0H626.7C626.7,256,626.7,256,626.7,256.2L626.7,256.2V255h-6.6l0,0l0,0h6.6l0,0h-6.6
		l0,0l0,0h6.6l0,0l0,0l0,0v0.2V256.2l9.2,0.2c14.5,0.9,29.9,0.9,45.5,0.2l8.9-0.6v-1.1v-0.2v-0.2l0,0l0,0l0,0h9.5l0,0l0,0h-9.5l0,0
		h9.5l0,0l0,0h-9.5v1.2l0,0l0,0l0,0h9.5l0,0l0,0h0.6v-24.8c0,0,0-0.2,0.2-0.2l0,0l0,0l0,0l0,0l0,0v-4.6l0,0l0,0l0,0l0,0l0,0
		c0,0-0.2,0-0.2-0.2V223h-1.2v0.9v0.2l0,0l0,0l0,0l-3.3,0.6l0,0c0,0-0.2,0-0.2-0.2l-2.2-13.5c0,0,0,0,0-0.2l-4.6-27h-57.3l-7,40.5
		c0,0.2-0.2,0.2-0.2,0.2l-3.3-0.6c-0.2,0-0.2-0.2-0.2-0.2v-1h-4v13.6h1.4v-2.2c0-0.2,0.2-0.2,0.2-0.2h0.9c0.2,0,0.2,0.2,0.2,0.2
		v21.7L626.7,256.2L626.7,256.2L626.7,256.2z M648,200.5C648,200.1,648.3,200.1,648,200.5l24.2-0.2c0,0,0.2,0,0.2,0.2v0.6
		c0,0,0,0.2-0.2,0.2h-0.9v2.5c0,0,0,0.2-0.2,0.2c0,0-0.2,0-0.2-0.2v-2.9c0,0,0-0.2,0.2-0.2h0.9v-0.2h-23.7v0.2h0.9
		c0,0,0.2,0,0.2,0.2v2.9c0,0,0,0.2-0.2,0.2s-0.2,0-0.2-0.2v-2.5h-0.9c0,0-0.2,0-0.2-0.2v-0.6H648L648,200.5z M620.2,244.5
		C619.9,244.5,619.9,244.5,620.2,244.5C619.9,244.5,619.9,244.5,620.2,244.5l6.3-0.2c0-0.2,0.2-0.2,0.2-0.2v-0.6h-6.6l0,0l0,0h6.6
		l0,0h-6.6l0,0l0,0h6.6l0,0l0,0l0,0v0.2v0.9l8.9,0.6l9.2,0.2l8.9,0.2l0,0l0,0l0,0l0,0l0,0l0,0l0,0l0,0v0.6h11.5v-0.6l0,0l0,0l0,0
		l0,0l0,0l0,0l0,0l0,0l12-0.2l12-0.6v-0.9v-0.2v-0.2l0,0l0,0l0,0h9.5l0,0l0,0h-8.4l0,0h9.5l0,0l0,0h-9.5v0.6c0.2,0,0.2,0.2,0.2,0.2
		h9.2l0,0l0,0h-9.1l0,0h9.2l0,0l0,0h-9.2c0,0-0.2,0-0.2,0.2l-12,0.6l-11.5,0.2v0.6c0,0.2-0.2,0.6-0.6,0.6h-12.2
		c-0.2,0-0.6-0.2-0.6-0.6v-0.6l-8.7-0.2l-9.2-0.2l-8.9-0.6c0,0-0.2,0-0.2-0.2h-6.3C619.9,245.1,619.9,244.7,620.2,244.5
		C619.9,244.7,619.9,244.7,620.2,244.5h6.3l0,0H620.2z M620.2,251.2C619.9,251.2,619.9,251.2,620.2,251.2
		C619.9,250.8,619.9,250.8,620.2,251.2l6.3-0.2c0-0.2,0.2-0.2,0.2-0.2v-0.6h-6.6l0,0l0,0h6.6l0,0h-6.6l0,0l0,0h6.6l0,0l0,0l0,0v0.2
		v0.2v0.9l8.9,0.6c14.8,0.9,30.1,0.9,45.1,0.2l8.9-0.6V250v-0.1v-0.2l0,0l0,0l0,0h9.5l0,0l0,0h-8.9l0,0h9.5l0,0l0,0h-9.5v0.6
		c0.2,0,0.2,0.2,0.2,0.2h9.2l0,0l0,0h-9.2l0,0h9.2l0,0l0,0h-9.2c0,0-0.2,0-0.2,0.2l-9.2,0.6c-7,0.2-14.1,0.6-21.2,0.6
		c-8.1,0-16.2-0.2-23.9-0.6l-8.9-0.6c0,0-0.2,0-0.2-0.2L620.2,251.2C619.9,251.5,619.9,251.2,620.2,251.2
		C619.9,251.2,619.9,251.2,620.2,251.2h6.3l0,0H620.2z"/>
	<path class="st3" d="M654.4,360L654.4,360L654.4,360L654.4,360L654.4,360h0.2l0,0h0.9c2.2,0.6,3.6,2,4.3,4v0.6h11.8v-19.8h-17.7
		v19.8h0.6L654.4,360L654.4,360L654.4,360z"/>
	<path class="st3" d="M734.1,225.9L734.1,225.9L734.1,225.9L734.1,225.9L734.1,225.9L734.1,225.9
		C733.9,226.1,733.9,226.1,734.1,225.9c-0.2,0.2-0.2,0.2-0.2,0.2l-3.3-0.6l0,0l0,0l0,0l0,0l0,0l0,0l0,0l0,0l0,0l0,0l0,0l0,0v-0.6
		h-0.2v1.4c0,0,0,0.2-0.2,0.2l0,0l0,0l0,0h-0.6l0,0v4.6l0,0h0.2l0,0l0,0l0,0c0,0,0.2,0,0.2,0.2v24.8h8.4l0,0h-7.7l0,0l0,0h7.7l0,0
		l0,0l0,0v-0.9h-8.1l0,0l0,0h8.1l0,0h-8.1l0,0l0,0h8.1l0,0l0,0l0,0v0.2v1.2l9.5,0.6c16.2,0.9,31.7,0.9,47.7,0l9.5-0.6v-1.4l0,0l0,0
		l0,0l0,0l0,0l0,0l10,0.6l0,0l0,0l0,0l-10-0.6l0,0l10,0.6l0,0l0,0l0,0l-10-0.6v0.9l0,0l0,0l10,0.9l0,0l0,0h0.2l1.7-22.4v-0.2h0.2
		h0.9h0.2v0.2l-0.2,2.5h0.9h0.9l1.2-14.1h-8.7l0.2,1.7v0.2c0,0,0,0-0.2,0l-3.3,0.6c-0.2,0-0.2,0-0.2-0.2l-7.7-45.9h-58.8l-5.2,31.3
		c0,0,0,0.2-0.2,0.2L734.1,225.9L734.1,225.9z M816.3,250.2L816.3,250.2l-10.6-0.9l0,0L816.3,250.2L816.3,250.2
		C816.3,250.6,816.3,250.6,816.3,250.2L816.3,250.2l-10.6-0.6v0.6c0.2,0,0.2,0.2,0.2,0.6l10.4,0.9l0,0l0,0l0,0l-10.4-0.9l0,0l10,0.9
		l0,0l0,0l0,0l-10.4-0.9h-0.2l-9.5,0.6c-8.1,0.2-15.8,0.6-23.9,0.6c-8.2,0-15.8-0.2-23.9-0.6l-9.5-0.6c0,0-0.2,0-0.2-0.2h-7.7l0,0
		l0,0h7.5l0,0h-7.5l0,0l0,0h7.5c0-0.2,0.2-0.2,0.2-0.2v-0.6h-8.1l0,0l0,0h8.1l0,0h-8.1l0,0l0,0h8.1l0,0l0,0l0,0v0.2v0.2v0.9l9.5,0.6
		c16.2,0.9,31.7,0.9,47.7,0l9.5-0.6v-1.2l0,0l0,0l0,0l0,0l0,0l0,0L816.3,250.2C816.3,250,816.3,250,816.3,250.2L816.3,250.2z
		 M759.6,200.5C759.6,200.1,759.6,200.1,759.6,200.5l24.2-0.2c0,0,0.2,0,0.2,0.2v0.6c0,0,0,0.2-0.2,0.2h-0.9v2.5c0,0,0,0.2-0.2,0.2
		c0,0-0.2,0-0.2-0.2v-2.5c0,0,0-0.2,0.2-0.2h0.9v-0.2h-23.7v0.2h0.9c0,0,0.2,0,0.2,0.2v2.5c0,0,0,0.2-0.2,0.2c0,0-0.2,0-0.2-0.2
		v-2.5h-1c0,0-0.2,0-0.2-0.2v-0.6H759.6z M738.6,242.7L738.6,242.7C738.6,242.5,738.6,242.5,738.6,242.7
		C738.6,242.5,738.6,242.5,738.6,242.7L738.6,242.7l0.2,0.2v0.9l8.9,0.6l8.9,0.6l8.9,0.2l0,0l0,0l0,0l0,0l0,0l0,0l0,0l0,0l0,0l0,0
		l0,0l0,0v0.6H777v-0.4l0,0l0,0l0,0l0,0l0,0l0,0l0,0l0,0l0,0l9.2-0.2l9.2-0.6l8.9-0.6v-0.9l0,0l0,0v-0.2l0,0l0,0l0,0l0,0l0,0l0,0
		l0,0l10.9,0.9l0,0l0,0l0,0l-10.9-0.9l0,0l11.1,0.9l0,0l0,0l0,0l-11.1-0.9v0.6c0.2,0,0.2,0.2,0.2,0.6l10.6,0.9l0,0l0,0l0,0
		l-10.6-0.9l0,0l10.6,0.9l0,0l0,0l0,0l-10.9-0.9c0,0,0,0-0.2,0v1.2l0,0l0,0v-1.2l-8.9,0.6l-9.2,0.6l-8.7,0.2v0.6
		c0,0.2-0.2,0.6-0.6,0.6h-11.1l0,0l0,0l0,0l0,0l0,0l0,0l0,0l0,0l0,0l0,0l0,0l0,0l0,0v-0.6l-8.7-0.2l-8.9-0.6l-8.9-0.6
		c0,0-0.2,0-0.2-0.2h-7.7l0,0l0,0h7.5l0,0h-7.5l0,0l0,0h7.5c0-0.2,0.2-0.2,0.2-0.2v-0.6h-8.1l0,0l0,0L738.6,242.7L738.6,242.7
		l-7.7,0.2l0,0l0,0L738.6,242.7L738.6,242.7z"/>
	<path class="st3" d="M767.6,360L767.6,360L767.6,360L767.6,360L767.6,360L767.6,360h0.2l0,0h0.9c2.2,0.6,3.6,2,4.3,4v0.6h11.5
		v-20.3h-16.7v0.2c0,0.2-0.2,0.2-0.2,0.2h-0.2v19.8h0.6v-4.4L767.6,360L767.6,360z"/>
	<path class="st3" d="M252.2,408.9v-32H249c0,0-0.2,0-0.2-0.2h-4.6H244h-12.2v2c0,0.2-0.2,0.2-0.2,0.2h-2.2V409h7.7
		c0,0,0.2,0,0.2,0.2h4.6l0.2-0.2h10.3v-0.1H252.2z"/>
	<path class="st3" d="M700.7,274.3v-17.2h-10.4c0,0-0.2,0-0.2-0.2l0,0l-8.9,0.6c-7,0.2-13.9,0.6-21,0.6c-8.4,0-16.4-0.2-24.5-0.6
		l-8.9-0.6v0.2c0,0,0,0.2-0.2,0.2h-7.3V275h81.4L700.7,274.3L700.7,274.3z"/>
	<path class="st3" d="M268.2,386.3c0,0.2-0.2,0.6-0.6,0.6v6.6c0.2,0,0.6,0.2,0.6,0.6v16.7c0,0.2-0.2,0.6-0.6,0.6v4.3
		c0.2,0,0.6,0.2,0.6,0.6v3.3h0.6h0.2v0.2l-0.2,2l25.9-0.2v-40.7h-26.4v5.4H268.2z"/>
	<path class="st4" d="M780.4,423.1L780.4,423.1L780.4,423.1l1.2-3.6c2.2-9.5,2.2-19.5,0-29l-1.2-3.6l0,0l0,0v-7l0,0h-8.1l0,0v7
		l1.2,3.6c2.2,9.5,2.2,19.8,0,29.2l-1.2,3.6v7l0,0h7.7l0,0v-7.4h0.3L780.4,423.1L780.4,423.1z"/>
	<path class="st4" d="M772.3,423.1L772.3,423.1L772.3,423.1l1.2-3.6c2.2-9.5,2.2-19.5,0-29l-1.2-3.6l0,0l0,0v-7l0,0h-7.7l0,0v7
		l1.2,3.6c2.2,10,2.2,19.8,0,29l-1.2,3.6v7l0,0h8.1l0,0v-7H772.3z"/>
	<path class="st3" d="M664.7,377.2c0,0.2-0.2,0.2-0.2,0.2H655v2c0,0.2-0.2,0.2-0.2,0.2h-0.9v18.1c0,0.2-0.2,0.2-0.2,0.2h-38.2
		c0,0,0,0,0,0.2h-0.2h-0.2v9.2h0.2c0.2,0,0.2,0.2,0.2,0.2v0.2c0,0,0,0,0,0.2v1.4c0,0,0,0,0,0.2v20.4h54.6v-1.4
		c0-0.2,0.2-0.2,0.2-0.2h1.2v-51h-1.7c-0.2,0-0.2-0.2-0.2-0.2l0,0L664.7,377.2L664.7,377.2z"/>
	<path class="st4" d="M764,423.1L764,423.1L764,423.1l1.2-3.6c2.2-9.5,2.2-19.3,0-29l-1.2-3.6l0,0l0,0v-7l0,0h-8.1l0,0v7l1.2,3.6
		c2.2,9.5,2.2,19.8,0,29.2l-1.2,3.6v7l0,0h8.1l0,0V423.1z"/>
	<path class="st3" d="M808.5,406.2v0.9l0,0v0.2l0,0l0,0l0,0l0,0l0,0h-4.6v22.5l0,0v1.7h16.4v-31.7h-16.4v2.2h0.9
		C806.3,402.4,808.2,404.4,808.5,406.2z"/>
	<path class="st3" d="M268,341.4v4.5c0.2,0,0.2,0.2,0.2,0.6v1.2h46.9c0.2,0,0.2,0,0.6,0.2h4.6c0,0,0.2-0.2,0.6-0.2h1.4
		c0.2,0,0.2,0,0.6,0.2h3.6v-18h-48.9l0,0c0,0.2-0.2,0.2-0.2,0.2h-3.3c-0.2,0-0.2-0.2-0.2-0.2l0,0h-4.3v5.2c0,0.2-0.2,0.2-0.2,0.2
		H269v5.5C268.2,341.2,268.2,341.4,268,341.4z"/>
	<path class="st3" d="M268.2,378.1v0.6h29.4c0.2,0,0.6,0.2,0.6,0.2h28.4v-16.7h-4c0,0.2-0.2,0.2-0.6,0.2h-1.4
		c-0.2,0-0.6-0.2-0.6-0.2h-4.5c0,0.2-0.2,0.2-0.6,0.2h-21.7v0.6c0,0.2-0.2,0.6-0.6,0.6h-24.5v11.5c0,0.2-0.2,0.6-0.2,0.6v1.7
		C268.2,377.7,268.2,377.9,268.2,378.1z"/>
	<path class="st3" d="M237.3,299.4v48.8h4.6c0,0,0.2,0,0.2,0.2h8.7l0.2-0.2h5.5v-47.3h-3.1c-0.2,0-0.2-0.2-0.2-0.2v-1.2h-3.1
		c0,0-0.2,0-0.2-0.2h-4.5l-0.4,0.2L237.3,299.4L237.3,299.4z"/>
	<path class="st3" d="M257.8,299.4v35.3l0,0c0,0,0.2,0,0.2,0.2h4.6l0.2-0.2h2.9v-8.1v-0.2v-0.2v-4.7v-0.2v-0.2v-21c0,0,0,0-0.2-0.2
		H261l-0.2,0.2h-3.1v-0.7L257.8,299.4L257.8,299.4z"/>
	<path class="st4" d="M788.5,423.1L788.5,423.1L788.5,423.1l1.2-3.6c2.2-9.5,2.2-19.5,0-29l-1.2-3.6l0,0l0,0v-7l0,0h-7.7l0,0v7
		l1.2,3.6c2.2,9.7,2.2,19.8,0,29.2l-1.2,3.6v7l0,0h8.1l0,0v-7.4h-0.3L788.5,423.1L788.5,423.1z"/>
	<path class="st4" d="M803.1,407.8h0.6c0-0.2,0.2-0.2,0.2-0.2h0.2v-4.5h-0.2c-0.2,0-0.2,0-0.2-0.2h-0.9c-0.2,0-0.2-0.2-0.2-0.2
		v-24.8h-1.2c-0.2,0-0.2-0.2-0.2-0.2l0,0h-4.6l0,0c0,0.2-0.2,0.2-0.2,0.2h-2.5v2c0,0.2-0.2,0.2-0.2,0.2h-4.6l0,0v7l1.2,3.6
		c2.2,9.5,2.2,19.5,0,29l-1.2,3.6v7l0,0H803v-22.2C802.4,407.8,802.7,407.8,803.1,407.8z"/>
	<path class="st3" d="M652.4,344.8L652.4,344.8c-0.6,0-0.6-0.2-0.6-0.2l0,0h-17v20.3h11.8v-0.6c0.6-2.2,1.7-3.3,4.3-4.3h0.9l0,0h0.2
		l0,0l0,0l0,0l0,0l0,0l0,0l0,0v4.6h0.6v-20L652.4,344.8L652.4,344.8z"/>
	<path class="st3" d="M424.1,342.6L424.1,342.6l0.2-0.6l0,0h8.4l0,0v0.2c0,0,0.2,0,0.2,0.2h0.9c0.2,0,0.2,0.2,0.2,0.2v2.5h21.2
		v-46.6l-0.2-0.2v-0.2c0-0.2,0.2-0.6,0.6-0.6l0,0v-4l-3.1,2.9l0,0l0,0l-0.2-0.2l0,0l0,0l3.1-2.9c-0.2,0-0.2-0.2-0.2-0.6v-0.2
		c0-0.2,0-0.2,0.2-0.2v-2.2h-0.7c-0.2,0-0.2-0.2-0.2-0.2v-2h-35.1v54.3h4.6v0.2h0.1V342.6z"/>
	<path class="st3" d="M457.2,290.5h-0.6v2.2l0,0h4.5c0.2,0,0.6,0.2,0.6,0.6v0.2c0,0.2-0.2,0.6-0.6,0.6h-4.5v3.6
		c0.2,0,0.6,0.2,0.6,0.6v0.2c0,0.2,0,0.2-0.2,0.2v46.6h36.2v-2.5c0-0.2,0.2-0.2,0.2-0.2h6.3c0.2,0,0.2,0.2,0.2,0.2l0,0h7l0,0
		c0-0.2,0.2-0.2,0.2-0.2h1.7c0.2,0,0.2,0.2,0.2,0.2v4.6h20.6v-57.5h-5.5c-0.2,0-0.2-0.2-0.2-0.2V288h-66.7v2
		C457.4,290.5,457.4,290.5,457.2,290.5z"/>
	<path class="st3" d="M628.2,377.2c0,0.2-0.2,0.2-0.2,0.2h-7v0.6c0,0.2-0.2,0.2-0.2,0.2h-3.3v1.4c0,0.2-0.2,0.2-0.2,0.2h-1.7v16.7
		H634v-19.3h-1.1c-0.2,0-0.2-0.2-0.2-0.2l0,0L628.2,377.2L628.2,377.2z"/>
	<path class="st3" d="M632.2,360h0.9l0,0h0.2l0,0l0,0l0,0l0,0l0,0l0,0l0,0v4.6h0.6v-20.3h-17v0.2c0,0.2-0.2,0.2-0.2,0.2h-0.9v18.9
		h5.2c0.2,0,0.2,0.2,0.2,0.2v0.6h7v-0.5C628.2,362.1,630,360.5,632.2,360z"/>
	<path class="st4" d="M755.9,423.1L755.9,423.1L755.9,423.1l1.2-3.6c2.2-9.5,2.2-19.5,0-29l-1.2-3.6l0,0l0,0v-7l0,0h-18.1
		c-0.2,0-0.2-0.2-0.2-0.2v-1.9h-2c-0.2,0-0.2-0.2-0.2-0.2l0,0h-4.5l0,0c0,0.2,0,0.2-0.2,0.2v2c0,0.2-0.2,0.2-0.2,0.2h-0.9v50.3H756
		l0,0L755.9,423.1L755.9,423.1L755.9,423.1z"/>
	<path class="st4" d="M722.2,377.2c0,0.2-0.2,0.2-0.2,0.2h-29.2v2c0,0.2-0.2,0.2-0.2,0.2h-3c-0.2,0-0.2-0.2-0.2-0.2v-2h-9.5
		c-0.2,0-0.2-0.2-0.2-0.2l0,0h-4.5l0,0c0,0.2-0.2,0.2-0.2,0.2h-1.7V430H728v-50.4h-0.6c-0.2,0-0.2-0.2-0.2-0.2v-2
		c-0.2,0-0.2-0.2-0.2-0.2l0,0L722.2,377.2L722.2,377.2z"/>
	<path class="st3" d="M646.4,377.4h-11.1v19.3h17.2v-17.1h-0.9c-0.2,0-0.2-0.2-0.2-0.2v-2c-0.2,0-0.2-0.2-0.2-0.2l0,0h-4.6l0,0
		C646.7,377.4,646.4,377.4,646.4,377.4z"/>
	<path class="st3" d="M540.2,411.4C540.2,411.4,540.2,411.1,540.2,411.4L540.2,411.4l9.2-0.2v-4.7h-7.8c0,0-0.2,0-0.2-0.2v-0.9
		c0,0,0-0.2,0.2-0.2h7.7v-4.5h-5.8c-0.2,0-0.2-0.2-0.2-0.2v-3.9h-0.6c-2-0.2-4-2-4.3-4v-0.9l0,0v0.2l0,0l0,0l0,0l0,0l0,0l0,0h4.6
		v-0.6h-8.1v19.8h0.2c0,0,0,0,0.2,0l0,0c0,0,0.2,0,0.2,0.2v4.5h0.2c0.2,0,0.2,0,0.2,0s0,0,0.2,0l0,0l0,0l0,0l0,0c0,0,0,0,0.2,0h0.2
		l0,0l0,0l0,0l0,0l0,0l0,0l0,0l0,0l0,0l0,0l0,0l0,0l0,0l0,0l0,0l0,0l0.2-0.2l0,0l0,0l0,0l0,0l0,0l0.2-0.2l0,0l0,0l0.2-0.2l0,0l0,0
		l0.2-0.2l0,0l0,0l0,0l0,0l0,0l0,0l0,0l0,0l0,0l0,0l0,0l0,0l0,0v-0.2v-0.2l0,0l0,0l0,0v-0.2v-0.2l0,0l0,0l0,0L540.2,411.4
		L540.2,411.4z"/>
	<path class="st3" d="M293.9,316.9L293.9,316.9c0-0.6,0.2-0.9,0.6-0.9c0.3,0,0.6,0.2,0.6,0.2h4.5c0-0.2,0.2-0.2,0.6-0.2
		c0.3,0,0.6,0.2,0.6,0.6v0.2h5.2v-28.7h-17.7v28.7L293.9,316.9L293.9,316.9z"/>
	<path class="st3" d="M280,316.9L280,316.9c0-0.6,0.2-0.9,0.6-0.9c0.2,0,0.6,0.2,0.6,0.2h4.5c0-0.2,0.2-0.2,0.6-0.2h0.2v-27.8h-17.7
		v28.7L280,316.9L280,316.9z"/>
	<path class="st3" d="M308.1,316c0.2,0,0.6,0.2,0.6,0.2h4.5c0-0.2,0.2-0.2,0.6-0.2c0.3,0,0.6,0.2,0.6,0.6v0.2h12v-28.7H308
		L308.1,316C307.8,316,307.8,316,308.1,316z"/>
	<path class="st3" d="M320.3,349.1h-4.5c0,0.2-0.2,0.2-0.6,0.2h-21.7v0.2c0,0.2-0.2,0.6-0.2,0.6v9.2c0.2,0,0.2,0.2,0.2,0.6l0,0v0.2
		h21.7c0.2,0,0.6,0.2,0.6,0.2h4.5c0-0.2,0.2-0.2,0.6-0.2h1.2v-11h-1.2C320.6,349.5,320.3,349.5,320.3,349.1z"/>
	<path class="st3" d="M567.5,287L567.5,287c-0.2,0-0.2,0-0.2,0l0,0c0,0-0.2,0-0.2-0.2v-4.5h-0.3c-0.2,0-0.2,0-0.2,0s0,0-0.2,0l0,0
		l0,0l0,0c0,0,0,0-0.2,0H566l0,0l0,0l0,0l0,0l0,0l0,0l0,0l0,0l0,0l0,0l0,0l0,0l0,0l0,0l0,0l0,0l0,0l-0.2,0.2l0,0l0,0l0,0l0,0l0,0
		l-0.2,0.2l0,0l0,0l-0.2,0.2l0,0l0,0l0,0l0,0l0,0l0,0l0,0l0,0l0,0l0,0l0,0l0,0l0,0l0,0l0,0l0,0l0,0l0,0l0,0l0,0l0,0l0,0l0,0l0,0l0,0
		l0,0l0,0l0,0c0,0.2,0,0.2,0,0.2l0,0c0,0,0,0,0,0.2v0.2l0,0l0,0l0,0l0,0c0,0,0,0.2-0.2,0.2h-0.6v0.6c0,0,0,0.2-0.2,0.2l0,0
		c0,0,0,0.2-0.2,0.2H561l0,0l0,0v0.2l0,0l0,0l0,0l0,0l0,0l0,0l0,0l0,0l0,0l0,0l0,0l0,0l0,0l0,0l0,0c0,0,0.2,0,0.2,0.2l0,0l0.2,0.2
		l0,0c0,0,0,0,0.2,0.2l0,0l0,0l0,0l0,0l0,0l0,0l0,0l0,0l0,0l0,0l0,0l0,0l0,0l0,0l0,0l0,0h0.2l0,0l0,0h0.2h0.2c0,0,0.2,0,0.2,0.2v1.4
		c0,0,0,0.2-0.2,0.2l0,0c0,0,0,0.2-0.2,0.2h-3.3l0,0v0.2l0,0l0,0l0,0l0,0l0,0l0,0l0,0l0,0l0,0l0,0l0,0l0,0l0,0l0,0l0,0l0,0
		c0,0,0.2,0,0.2,0.2l0,0l0.2,0.2l0,0c0,0,0.2,0,0.2,0.2l0,0l0,0l0,0l0,0l0,0l0,0l0,0l0,0l0,0l0,0l0,0l0,0l0,0l0,0l0,0l0,0l0,0l0,0
		h0.2l0,0l0,0h0.6h0.2c0,0,0.2,0,0.2,0.2v1.4c0,0,0,0.2-0.2,0.2l0,0c0,0,0,0-0.2,0h-3.5l0,0v0.2l0,0l0,0l0,0l0,0l0,0l0,0l0,0l0,0
		l0,0l0,0l0,0l0,0l0,0l0,0l0,0l0,0l0,0l0,0l0,0l0,0l0,0l0,0l0.2,0.2l0,0c0,0,0,0,0.2,0l0,0l0,0l0,0l0,0l0,0l0,0l0,0l0,0l0,0l0,0l0,0
		l0,0l0,0l0,0l0,0l0,0h0.2l0,0l0,0h0.6l0,0l0,0l0,0c0,0,0.2,0,0.2,0.2v1.4c0,0,0,0.2-0.2,0.2l0,0c0,0,0,0-0.2,0h-3.3l0,0v0.2l0,0
		l0,0l0,0l0,0l0,0l0,0l0,0l0,0l0,0l0,0l0,0c0,0,0,0,0,0.2l0,0l0,0l0,0l0,0l0,0c0,0,0,0.2,0.2,0.2l0.2,0.2l0,0l0.2,0.2l0,0l0,0l0,0
		l0,0l0,0l0,0l0,0l0,0l0,0l0,0l0,0l0,0l0,0l0,0l0,0l0,0l0,0l0,0l0,0l0,0h0.2l0,0l0,0h0.2h0.2c0,0,0.2,0,0.2,0.2v1.4
		c0,0,0,0.2-0.2,0.2l0,0c0,0,0,0.2-0.2,0.2H552l0,0l0,0v0.2l0,0l0,0l0,0l0,0l0,0l0,0l0,0l0,0l0,0l0,0l0,0c0,0,0,0,0,0.2l0,0l0,0l0,0
		c0,0,0.2,0,0.2,0.2l0,0l0.2,0.2l0,0l0.2,0.2l0,0l0,0c0,0,0,0,0.2,0c0,0,0,0,0.2,0l0,0l0,0l0,0l0,0l0,0l0,0l0,0l0,0l0,0l0,0l0,0l0,0
		l0,0l0,0h0.2l0,0l0,0h0.2h0.2l0,0c0,0,0.2,0,0.2,0.2l0,0v1.4l0,0c0,0,0,0.2-0.2,0.2l0,0l0,0c0,0,0,0.2-0.2,0.2h-3.3l0,0v0.2l0,0
		l0,0l0,0l0,0l0,0l0,0l0,0l0,0l0,0l0,0l0,0l0,0l0,0l0,0l0,0c0,0,0.2,0,0.2,0.2l0,0l0.2,0.2l0,0c0,0,0.2,0,0.2,0.2l0,0l0,0l0,0l0,0
		l0,0l0,0l0,0l0,0l0,0l0,0l0,0l0,0l0,0l0,0l0,0l0,0l0,0h0.2l0,0l0,0h0.2h0.2c0,0,0.2,0,0.2,0.2v0.9h4.5c0,0,0.2,0,0.2,0.2v0.2l0,0
		l0,0l0,0l-0.2,0.9c-0.6,2-1.7,3.1-4,3.6h-0.1v0.2v0.9c0,0,0,0.2-0.2,0.2H544v11.5h4.5c0.2,0,0.2,0.2,0.2,0.2v3.1h3.6v-0.6
		c0.6-2,2.2-3.6,4.3-4h0.9l0,0h0.2l0,0l0,0l0,0l0,0l0,0l0,0v4.6h0.6v-10.6c0-0.2,0.2-0.2,0.2-0.2h0.2l-0.2-14.5l0,0
		c0,0-0.2,0-0.2-0.2v-7.3c0,0,0,0,0-0.2L567.5,287L567.5,287z"/>
	<path class="st3" d="M358.8,364.4v8.9h43.7v-8.9h-19h-0.2h-5.2c0,0,0,0-0.2,0H358.8z"/>
	<path class="st3" d="M152.9,420.1h40.5c0,0,0.2,0,0.2,0.2v2h31.6v-0.9v-1.2c0-0.2,0.2-0.6,0.2-0.6v-4.4c-0.2,0-0.2-0.2-0.2-0.6v-53
		c0-0.2,0.2-0.6,0.6-0.6h10.6v-1.4l0,0l0,0l0,0c0,0,0,0-0.2,0c0,0,0,0-0.2,0l0,0l0,0l0,0c0,0,0,0-0.2,0l0,0c0,0,0,0-0.2,0l0,0l0,0
		l0,0l0,0c0,0,0,0-0.2,0l0,0c0,0,0,0-0.2,0l0,0l0,0l0,0l0,0c0,0,0,0-0.2,0l0,0c0,0,0,0-0.2,0l0,0l0,0c0,0,0,0-0.2,0s-0.2,0-0.2,0
		h-0.7h-0.2l0,0c0,0,0,0-0.2,0l0,0h-0.2l-0.2-0.2l0,0l0,0c0,0,0,0,0-0.2l0,0c0,0,0,0,0-0.2l0,0l0,0l0.2-0.2h0.2l0,0c0,0,0,0,0.2,0
		l0,0c0,0,0,0,0.2,0h0.2c0,0,0,0,0.2,0l0,0l0,0l0,0l0,0c0,0,0,0,0.2,0h0.2l0,0l0,0l0,0l0,0c0,0,0,0,0.2,0h0.2l0,0l0,0l0,0l0,0
		c0,0,0,0,0.2,0h0.2l0,0c0,0,0,0,0.2,0h0.6l0,0v-8.4v-51.5c0-0.2,0.2-0.2,0.2-0.2h8.7h0.2h4.6h0.2h3.1v-1.5c0-0.2,0.2-0.2,0.2-0.2
		h3.3c0.2,0,0.2,0.2,0.2,0.2v1.4h3.3h0.2h4.6l0,0v-10h-72.5v2c0,0,0,0.2-0.2,0.2H152c0,0-0.2,0-0.2-0.2v-2h-32.1v45.5
		c0,0.2-0.2,0.2-0.2,0.2h-3.1v40.6h0.6l0,0c0.2,0,0.2,0.2,0.2,0.2v47.1h34.5L152.9,420.1C152.6,420.2,152.9,420.1,152.9,420.1z"/>
	<path class="st3" d="M346.5,321.1L346.5,321.1L346.5,321.1L346.5,321.1C346.5,321.3,346.5,321.3,346.5,321.1
		C346.5,321.3,346.5,321.3,346.5,321.1v0.2l0,0v0.6c-0.2,2-2,3.6-4.3,4.3h-0.6v4.3H358c0.2,0,0.2,0.2,0.2,0.2v1.7h20.6v-0.6
		c0-0.2,0.2-0.2,0.2-0.2h1.4v-11.1h-38.8v0.6H346.5L346.5,321.1z"/>
	<path class="st3" d="M291.2,360.5c0-0.2,0-0.2,0.2-0.6v-9.5c0,0-0.2-0.2-0.2-0.6v-0.6h-23.1v0.2c0,0.2,0,0.2-0.2,0.6v9.5
		c0.2,0,0.2,0.2,0.2,0.6v0.6h23.1V360.5z"/>
	<path class="st3" d="M380.9,319.1v-17.7h-39.1v11.8h0.6c2,0.2,3.6,2,4.3,4v0.9l0,0v0.2l0,0l0,0l0,0l0,0l0,0l0,0h-4.6v0.6h39.1v0.1
		H381L380.9,319.1L380.9,319.1z"/>
	<path class="st3" d="M380.9,300.2v-12h-39.1v1.7l0,0c0,0,0.2,0,0.2,0.2s0,0.2-0.2,0.2l0,0v2.2h4.6l0,0l0,0l0,0l0,0l0,0l0,0v0.2l0,0
		v0.6c-0.2,2-2,3.6-4.3,4.3h-0.9v2.5L380.9,300.2L380.9,300.2z"/>
	<path class="st3" d="M542.5,420.5h-2v-0.6h2.5v-0.2l0,0h-2.5c0,0-0.2,0-0.2,0.2v0.9c0,0,0,0.2,0.2,0.2h2.2
		C542.5,420.5,542.5,420.5,542.5,420.5L542.5,420.5z"/>
	<path class="st3" d="M541.6,405.8L541.6,405.8L541.6,405.8c0.2-0.2,0-0.2,0-0.2S541.6,405.5,541.6,405.8L541.6,405.8z"/>
	<g>
		<rect x="705.7" y="271.2" class="st5" width="10.4" height="12"/>
		<text transform="matrix(1 0 0 1 707.6283 281.4156)" class="st1 st6 st7">E</text>
	</g>
	<g>
		<rect x="366.6" y="336.8" class="st5" width="10.4" height="12"/>
		<text transform="matrix(1 0 0 1 368.5306 346.7105)" class="st1 st6 st7">E</text>
	</g>
	<g>
		<rect x="551.9" y="378.1" class="st5" width="10.4" height="12"/>
		<text transform="matrix(1 0 0 1 553.6732 388.3521)" class="st1 st6 st7">E</text>
	</g>
	<rect x="587" y="432.5" class="st8" width="7.7" height="1.4"/>
	<rect x="587" y="435.1" class="st8" width="7.7" height="1.4"/>
	<rect x="587" y="437.3" class="st8" width="7.7" height="1.4"/>
	<rect x="587" y="439.5" class="st8" width="7.7" height="1.4"/>
	<rect x="587" y="442" class="st8" width="7.7" height="1.4"/>
	<rect x="587" y="444.4" class="st8" width="7.7" height="1.4"/>
	<rect x="587.3" y="420.5" class="st8" width="7.7" height="1.4"/>
	<rect x="587.3" y="422.8" class="st8" width="7.7" height="1.4"/>
	<rect x="587.3" y="425" class="st8" width="7.7" height="1.4"/>
	<rect x="587.3" y="427.9" class="st8" width="7.7" height="1.4"/>
	<rect x="587.3" y="430.1" class="st8" width="7.7" height="1.4"/>
	<rect x="577.8" y="432.5" class="st8" width="7.7" height="1.4"/>
	<rect x="577.8" y="435.1" class="st8" width="7.7" height="1.4"/>
	<rect x="577.8" y="437.3" class="st8" width="7.7" height="1.4"/>
	<rect x="577.8" y="439.5" class="st8" width="7.7" height="1.4"/>
	<rect x="577.8" y="442" class="st8" width="7.7" height="1.4"/>
	<rect x="577.8" y="444.4" class="st8" width="7.7" height="1.4"/>
	<rect x="577.8" y="420.5" class="st8" width="7.7" height="1.4"/>
	<rect x="577.8" y="422.8" class="st8" width="7.7" height="1.4"/>
	<rect x="577.8" y="425" class="st8" width="7.7" height="1.4"/>
	<rect x="577.8" y="427.9" class="st8" width="7.7" height="1.4"/>
	<rect x="577.8" y="430.1" class="st8" width="7.7" height="1.4"/>
	<rect x="820.3" y="378.1" class="st8" width="1.4" height="7.7"/>
	<rect x="822.5" y="378.1" class="st8" width="1.4" height="7.7"/>
	<rect x="824.7" y="378.1" class="st8" width="1.4" height="7.7"/>
	<rect x="827.2" y="378.1" class="st8" width="1.4" height="7.7"/>
	<rect x="829.4" y="378.1" class="st8" width="1.4" height="7.7"/>
	<rect x="831.6" y="378.1" class="st8" width="1.4" height="7.7"/>
	<rect x="834.2" y="378.1" class="st8" width="1.4" height="7.7"/>
	<rect x="808" y="377.9" class="st8" width="1.4" height="7.7"/>
	<rect x="810.6" y="377.9" class="st8" width="1.4" height="7.7"/>
	<rect x="812.8" y="377.9" class="st8" width="1.4" height="7.7"/>
	<rect x="815.2" y="377.9" class="st8" width="1.4" height="7.7"/>
	<rect x="817.4" y="377.9" class="st8" width="1.4" height="7.7"/>
	<rect x="820.3" y="387.4" class="st8" width="1.4" height="7.7"/>
	<rect x="822.5" y="387.4" class="st8" width="1.4" height="7.7"/>
	<rect x="824.7" y="387.4" class="st8" width="1.4" height="7.7"/>
	<rect x="827.2" y="387.4" class="st8" width="1.4" height="7.7"/>
	<rect x="829.4" y="387.4" class="st8" width="1.4" height="7.7"/>
	<rect x="831.6" y="387.4" class="st8" width="1.4" height="7.7"/>
	<rect x="834.2" y="387.4" class="st8" width="1.4" height="7.7"/>
	<rect x="808" y="387.4" class="st8" width="1.4" height="7.7"/>
	<rect x="810.6" y="387.4" class="st8" width="1.4" height="7.7"/>
	<rect x="812.8" y="387.4" class="st8" width="1.4" height="7.7"/>
	<rect x="815.2" y="387.4" class="st8" width="1.4" height="7.7"/>
	<rect x="817.4" y="387.4" class="st8" width="1.4" height="7.7"/>
	<rect x="589.8" y="245.6" class="st8" width="7.7" height="1.4"/>
	<rect x="589.8" y="248.3" class="st8" width="7.7" height="1.4"/>
	<rect x="589.8" y="250.2" class="st8" width="7.7" height="1.4"/>
	<rect x="589.8" y="252.6" class="st8" width="7.7" height="1.4"/>
	<rect x="589.8" y="255.1" class="st8" width="7.7" height="1.4"/>
	<rect x="589.8" y="257.4" class="st8" width="7.7" height="1.4"/>
	<rect x="589.8" y="259.5" class="st8" width="7.7" height="1.4"/>
	<rect x="590" y="233.6" class="st8" width="7.7" height="1.4"/>
	<rect x="590" y="235.9" class="st8" width="7.7" height="1.4"/>
	<rect x="590" y="238.1" class="st8" width="7.7" height="1.4"/>
	<rect x="590" y="240.9" class="st8" width="7.7" height="1.4"/>
	<rect x="590" y="243.1" class="st8" width="7.7" height="1.4"/>
	<rect x="580.6" y="245.6" class="st8" width="7.7" height="1.4"/>
	<rect x="580.6" y="248.3" class="st8" width="7.7" height="1.4"/>
	<rect x="580.6" y="250.2" class="st8" width="7.7" height="1.4"/>
	<rect x="580.6" y="252.6" class="st8" width="7.7" height="1.4"/>
	<rect x="580.6" y="255.1" class="st8" width="7.7" height="1.4"/>
	<rect x="580.6" y="257.4" class="st8" width="7.7" height="1.4"/>
	<rect x="580.6" y="259.5" class="st8" width="7.7" height="1.4"/>
	<rect x="580.6" y="233.6" class="st8" width="7.7" height="1.4"/>
	<rect x="580.6" y="235.9" class="st8" width="7.7" height="1.4"/>
	<rect x="580.6" y="238.1" class="st8" width="7.7" height="1.4"/>
	<rect x="580.6" y="240.9" class="st8" width="7.7" height="1.4"/>
	<rect x="580.6" y="243.1" class="st8" width="7.7" height="1.4"/>
	<rect x="107.4" y="300.5" class="st8" width="7.7" height="1.4"/>
	<rect x="107.4" y="303" class="st8" width="7.7" height="1.4"/>
	<rect x="107.4" y="305.2" class="st8" width="7.7" height="1.4"/>
	<rect x="107.4" y="307.5" class="st8" width="7.7" height="1.4"/>
	<rect x="107.4" y="309.9" class="st8" width="7.7" height="1.4"/>
	<rect x="107.4" y="312.2" class="st8" width="7.7" height="1.4"/>
	<rect x="107.4" y="314.4" class="st8" width="7.7" height="1.4"/>
	<rect x="107.4" y="288.4" class="st8" width="7.7" height="1.4"/>
	<rect x="107.4" y="290.7" class="st8" width="7.7" height="1.4"/>
	<rect x="107.4" y="293.3" class="st8" width="7.7" height="1.4"/>
	<rect x="107.4" y="295.7" class="st8" width="7.7" height="1.4"/>
	<rect x="107.4" y="298" class="st8" width="7.7" height="1.4"/>
	<rect x="98" y="300.5" class="st8" width="7.7" height="1.4"/>
	<rect x="98" y="303" class="st8" width="7.7" height="1.4"/>
	<rect x="98" y="305.2" class="st8" width="7.7" height="1.4"/>
	<rect x="98" y="307.5" class="st8" width="7.7" height="1.4"/>
	<rect x="98" y="309.9" class="st8" width="7.7" height="1.4"/>
	<rect x="98" y="312.2" class="st8" width="7.7" height="1.4"/>
	<rect x="98" y="314.4" class="st8" width="7.7" height="1.4"/>
	<rect x="98.2" y="288.4" class="st8" width="7.7" height="1.4"/>
	<rect x="98.2" y="290.7" class="st8" width="7.7" height="1.4"/>
	<rect x="98.2" y="293.3" class="st8" width="7.7" height="1.4"/>
	<rect x="98.2" y="295.7" class="st8" width="7.7" height="1.4"/>
	<rect x="98.2" y="298" class="st8" width="7.7" height="1.4"/>
	<g>
		<g>
			<path class="st2" d="M558.6,307.7c-0.6,0-1.2-0.6-1.2-1.2s0.6-1.2,1.2-1.2c0.7,0,1.2,0.6,1.2,1.2
				C559.7,307.2,559.2,307.7,558.6,307.7z"/>
			<path class="st2" d="M559.2,308.3c1.2,0,1.4,0.9,1.7,1.4l0.9,3.1c0,0.2,0,0.6-0.2,0.6s-0.6,0-0.6-0.2l-0.9-2.9
				c0-0.2-0.2-0.2-0.2-0.2c-0.2,0-0.2,0.2,0,0.2l1.7,5h-2c0,2,0,4,0,4c0,0.6-0.2,0.6-0.6,0.6c0,0-0.6,0-0.6-0.6s0-3.6,0-3.6
				c0-0.2,0-0.2-0.2-0.2s-0.2,0-0.2,0.2c0,0,0,3.1,0,3.6s-0.2,0.6-0.6,0.6c0,0-0.6,0-0.6-0.6c0,0,0-1.7,0-4h-1.7l1.4-5
				c0-0.2,0-0.2,0-0.2c-0.2,0-0.2,0-0.2,0.2l-0.9,2.9c0,0.2-0.2,0.2-0.6,0.2c-0.2,0-0.2-0.2-0.2-0.6l0.9-3.1
				c0.2-0.6,0.6-1.4,1.7-1.4H559.2z"/>
		</g>
	</g>
	<g>
		<g>
			<path class="st2" d="M541.6,307.7c-0.6,0-1.2-0.6-1.2-1.2c0-0.7,0.6-1.2,1.2-1.2s1.2,0.6,1.2,1.2
				C542.9,307.2,542.3,307.7,541.6,307.7z"/>
		</g>
		<path class="st2" d="M539.4,310.8v2.5c0,0.6-0.2,0.6-0.6,0.6c-0.3,0-0.6,0-0.6-0.6V310c0-1.4,0.9-2,2-2h2c1.2,0,2,0.2,2,2v3.3
			c0,0.6-0.2,0.6-0.6,0.6c-0.2,0-0.6,0-0.6-0.6v-2.5c0-0.2-0.2-0.2-0.2-0.2s-0.2,0-0.2,0.2s0,8.9,0,8.9c0,0.6-0.6,0.6-0.6,0.6
			s-0.6,0-0.6-0.6s0-5,0-5s0-0.2-0.2-0.2c0,0-0.2,0-0.2,0.2c0,0,0,4.6,0,5c0,0.6-0.6,0.6-0.9,0.6c-0.4,0-0.6,0-0.6-0.6
			C539.4,319.8,539.4,311.4,539.4,310.8c0-0.2-0.2-0.2-0.2-0.2C539.7,310.6,539.4,310.6,539.4,310.8z"/>
	</g>
	<polyline class="st9" points="573.1,440.3 573.1,450.1 597.7,450.1 597.7,441.2 610.7,441.2 	"/>
	<g>
		<text transform="matrix(1 0 0 1 693.9623 408.7047)" class="st1 st10 st11">0011</text>
	</g>
	<g>
		<text transform="matrix(1 0 0 1 761.6526 408.1588)" class="st1 st10 st11">0003</text>
	</g>
</g>
<g>
	<g>
		<path class="st2" d="M561.9,410.9c-0.6,0-1.2-0.6-1.2-1.2s0.6-1.2,1.2-1.2s1.2,0.6,1.2,1.2C562.9,410.4,562.4,410.9,561.9,410.9z"
			/>
		<path class="st2" d="M562.4,411.1c1.2,0,1.4,0.9,1.7,1.4l0.9,3.1c0,0.2,0,0.6-0.2,0.6s-0.6,0-0.6-0.2l-0.9-2.9
			c0-0.2-0.2-0.2-0.2-0.2c-0.2,0-0.2,0.2,0,0.2l1.7,5h-1.7c0,2,0,4,0,4c0,0.6-0.2,0.6-0.6,0.6c0,0-0.6,0-0.6-0.6s0-3.6,0-3.6
			c0-0.2,0-0.2-0.2-0.2s-0.2,0-0.2,0.2c0,0,0,3.1,0,3.6s-0.2,0.6-0.6,0.6c0,0-0.6,0-0.6-0.6c0,0,0-1.7,0-4h-1.4l1.4-5
			c0-0.2,0-0.2,0-0.2c-0.2,0-0.2,0-0.2,0.2l-0.9,2.9c0,0.2-0.2,0.2-0.6,0.2c-0.2,0-0.2-0.2-0.2-0.6l0.9-3.1c0.2-0.6,0.6-1.4,1.7-1.4
			H562.4z"/>
	</g>
</g>
<g>
	<g>
		<path class="st2" d="M539.9,411.4c-0.6,0-1.2-0.6-1.2-1.2s0.6-1.2,1.2-1.2s1.2,0.6,1.2,1.2C541.1,410.9,540.5,411.4,539.9,411.4z"
			/>
	</g>
	<path class="st2" d="M537.7,414.1v2.5c0,0.6-0.2,0.6-0.6,0.6c-0.2,0-0.6,0-0.6-0.6v-3.1c0-1.4,0.9-1.7,2-1.7h2c1.2,0,2,0.2,2,1.7
		v3.1c0,0.6-0.2,0.6-0.6,0.6c-0.3,0-0.6,0-0.6-0.6v-2.5c0-0.2-0.2-0.2-0.2-0.2s-0.2,0-0.2,0.2s0,8.1,0,8.1c0,0.6-0.6,0.6-0.6,0.6
		s-0.6,0-0.6-0.6s0-4.6,0-4.6s0-0.2-0.2-0.2c0,0-0.2,0-0.2,0.2c0,0,0,4.3,0,4.6c0,0.6-0.6,0.6-0.6,0.6s-0.6,0-0.6-0.6
		c0,0,0-7.7,0-8.1c0-0.3-0.2-0.2-0.2-0.2C538,413.9,537.7,413.9,537.7,414.1z"/>
</g>
<g class="st12">
	<g>
		<text transform="matrix(1 0 0 1 54.0463 170.2809)" class="st13 st10 st14">Level </text>
	</g>
	<circle class="st13" cx="108.8" cy="168" r="23.1"/>
	<text transform="matrix(1 0 0 1 97.3685 184.2574)" class="st1 st10 st15">0</text>
</g>
</svg>
