<?xml version="1.0" encoding="UTF-8" standalone="no"?>
<!-- Generator: Adobe Illustrator 19.1.0, SVG Export Plug-In . SVG Version: 6.00 Build 0)  -->

<svg
   xmlns:dc="http://purl.org/dc/elements/1.1/"
   xmlns:cc="http://creativecommons.org/ns#"
   xmlns:rdf="http://www.w3.org/1999/02/22-rdf-syntax-ns#"
   xmlns:svg="http://www.w3.org/2000/svg"
   xmlns="http://www.w3.org/2000/svg"
   xmlns:sodipodi="http://sodipodi.sourceforge.net/DTD/sodipodi-0.dtd"
   xmlns:inkscape="http://www.inkscape.org/namespaces/inkscape"
   version="1.1"
   id="Layer_1"
   x="0px"
   y="0px"
   viewBox="0 0 475.60001 252.70001"
   xml:space="preserve"
   inkscape:version="0.91 r13725"
   sodipodi:docname="olmsted_level2.svg"
   width="475.60001"
   height="252.70001"><metadata
     id="metadata7636"><rdf:RDF><cc:Work
         rdf:about=""><dc:format>image/svg+xml</dc:format><dc:type
           rdf:resource="http://purl.org/dc/dcmitype/StillImage" /><dc:title></dc:title></cc:Work></rdf:RDF></metadata><defs
     id="defs7634" /><sodipodi:namedview
     pagecolor="#ffffff"
     bordercolor="#666666"
     borderopacity="1"
     objecttolerance="10"
     gridtolerance="10"
     guidetolerance="10"
     inkscape:pageopacity="0"
     inkscape:pageshadow="2"
     inkscape:window-width="1596"
     inkscape:window-height="861"
     id="namedview7632"
     showgrid="false"
     fit-margin-top="0"
     fit-margin-left="0"
     fit-margin-right="0"
     fit-margin-bottom="0"
     inkscape:zoom="0.35777778"
     inkscape:cx="237.9"
     inkscape:cy="125.90001"
     inkscape:window-x="0"
     inkscape:window-y="18"
     inkscape:window-maximized="0"
     inkscape:current-layer="Layer_1" /><style
     type="text/css"
     id="style7076">
	.st0{enable-background:new    ;}
	.st1{fill:#989898;}
	.st2{fill:#FFFFFF;}
	.st3{fill:#4B6DB4;}
	.st4{opacity:0.6;fill:#4B6DB4;enable-background:new    ;}
	.st5{fill:#3A65B0;}
	.st6{fill:#CDCCCC;}
	.st7{fill:#989798;}
	.st8{fill:#4C6EB5;}
</style><g
     id="g7638"
     transform="translate(-212.1,-173.19999)"><g
       id="g7078"
       class="st0"
       style="enable-background:new"><path
         id="path7080"
         d="m 214.5,185.9 0,-5 0.8,0 0,4.3 1.4,0 0,0.7 -2.2,0 0,0 z"
         class="st1"
         inkscape:connector-curvature="0"
         style="fill:#989898" /><path
         id="path7082"
         d="m 219.7,184.4 -1.7,0 0,0.5 c 0,0.4 0.1,0.6 0.4,0.6 0.3,0 0.4,-0.1 0.4,-0.6 l 0,-0.1 0.7,0 c 0,0.7 -0.4,1.4 -1.2,1.4 -0.8,0 -1.2,-0.6 -1.2,-1.4 l 0,-1.1 c 0,-0.8 0.4,-1.4 1.2,-1.4 0.8,0 1.2,0.6 1.2,1.4 l 0,0.7 0.2,0 z m -0.9,-0.9 0,-0.2 c 0,-0.4 -0.1,-0.6 -0.4,-0.6 -0.3,0 -0.4,0.1 -0.4,0.6 l 0,0.2 0.8,0 z"
         class="st1"
         inkscape:connector-curvature="0"
         style="fill:#989898" /><path
         id="path7084"
         d="m 221.8,182.2 0.7,0 -0.8,3.7 -0.8,0 -0.8,-3.7 0.7,0 0.5,2.5 0,0 0.5,-2.5 z"
         class="st1"
         inkscape:connector-curvature="0"
         style="fill:#989898" /><path
         id="path7086"
         d="m 225.5,184.4 -1.7,0 0,0.5 c 0,0.4 0.1,0.6 0.4,0.6 0.3,0 0.4,-0.1 0.4,-0.6 l 0,-0.1 0.7,0 c 0,0.7 -0.4,1.4 -1.2,1.4 -0.8,0 -1.2,-0.6 -1.2,-1.4 l 0,-1.1 c 0,-0.8 0.4,-1.4 1.2,-1.4 0.8,0 1.2,0.6 1.2,1.4 l 0,0.7 0.2,0 z m -0.9,-0.9 0,-0.2 c 0,-0.4 -0.1,-0.6 -0.4,-0.6 -0.3,0 -0.4,0.1 -0.4,0.6 l 0,0.2 0.8,0 z"
         class="st1"
         inkscape:connector-curvature="0"
         style="fill:#989898" /><path
         id="path7088"
         d="m 226.2,185.9 0,-5 0.7,0 0,5 -0.7,0 z"
         class="st1"
         inkscape:connector-curvature="0"
         style="fill:#989898" /></g><circle
       id="circle7090"
       r="11.7"
       cy="184.89999"
       cx="242"
       class="st1"
       style="fill:#989898" /><g
       id="g7092"
       class="st0"
       style="enable-background:new"><path
         id="path7094"
         d="m 240.2,180.9 -2,0 0,-1.5 c 1.2,-0.6 2.4,-1.2 3.2,-2.1 l 1.4,0 0,16.3 -2.6,0 c 0,0 0,-12.7 0,-12.7 z"
         class="st2"
         inkscape:connector-curvature="0"
         style="fill:#ffffff" /></g><rect
       id="rect7096"
       height="6.0999999"
       width="5.3000002"
       class="st3"
       y="313.70001"
       x="399.79999"
       style="fill:#4b6db4" /><g
       id="g7098"
       class="st0"
       style="enable-background:new"><path
         id="path7100"
         d="m 403.6,316.8 -1.7,0 0,1.5 1.9,0 0,0.5 -2.4,0 0,-4.3 2.3,0 0,0.5 -1.8,0 0,1.4 1.7,0 0,0.4 z"
         class="st2"
         inkscape:connector-curvature="0"
         style="fill:#ffffff" /></g><rect
       id="rect7102"
       height="6.0999999"
       width="5.3000002"
       class="st3"
       y="219"
       x="530.79999"
       style="fill:#4b6db4" /><g
       id="g7104"
       class="st0"
       style="enable-background:new"><path
         id="path7106"
         d="m 534.3,222.1 -1.7,0 0,1.5 1.9,0 0,0.5 -2.4,0 0,-4.3 2.3,0 0,0.5 -1.8,0 0,1.4 1.7,0 0,0.4 0,0 z"
         class="st2"
         inkscape:connector-curvature="0"
         style="fill:#ffffff" /></g><rect
       id="rect7108"
       height="3.8"
       width="0.69999999"
       class="st4"
       y="421.70001"
       x="247.3"
       style="opacity:0.6;fill:#4b6db4;enable-background:new" /><rect
       id="rect7110"
       height="3.8"
       width="0.69999999"
       class="st4"
       y="421.70001"
       x="246.10001"
       style="opacity:0.6;fill:#4b6db4;enable-background:new" /><rect
       id="rect7112"
       height="3.8"
       width="0.69999999"
       class="st4"
       y="421.70001"
       x="244.8"
       style="opacity:0.6;fill:#4b6db4;enable-background:new" /><rect
       id="rect7114"
       height="3.8"
       width="0.69999999"
       class="st4"
       y="421.70001"
       x="243.8"
       style="opacity:0.6;fill:#4b6db4;enable-background:new" /><rect
       id="rect7116"
       height="3.8"
       width="0.69999999"
       class="st4"
       y="421.70001"
       x="242.5"
       style="opacity:0.6;fill:#4b6db4;enable-background:new" /><rect
       id="rect7118"
       height="3.8"
       width="0.69999999"
       class="st4"
       y="421.70001"
       x="241.3"
       style="opacity:0.6;fill:#4b6db4;enable-background:new" /><rect
       id="rect7120"
       height="3.8"
       width="0.69999999"
       class="st4"
       y="421.70001"
       x="240.2"
       style="opacity:0.6;fill:#4b6db4;enable-background:new" /><rect
       id="rect7122"
       height="3.8"
       width="0.69999999"
       class="st4"
       y="422.10001"
       x="253.3"
       style="opacity:0.6;fill:#4b6db4;enable-background:new" /><rect
       id="rect7124"
       height="3.8"
       width="0.69999999"
       class="st4"
       y="422.10001"
       x="252.2"
       style="opacity:0.6;fill:#4b6db4;enable-background:new" /><rect
       id="rect7126"
       height="3.8"
       width="0.69999999"
       class="st4"
       y="422.10001"
       x="251.10001"
       style="opacity:0.6;fill:#4b6db4;enable-background:new" /><rect
       id="rect7128"
       height="3.8"
       width="0.69999999"
       class="st4"
       y="422.10001"
       x="249.8"
       style="opacity:0.6;fill:#4b6db4;enable-background:new" /><rect
       id="rect7130"
       height="3.8"
       width="0.69999999"
       class="st4"
       y="422.10001"
       x="248.60001"
       style="opacity:0.6;fill:#4b6db4;enable-background:new" /><rect
       id="rect7132"
       height="3.8"
       width="0.69999999"
       class="st4"
       y="417.29999"
       x="247.3"
       style="opacity:0.6;fill:#4b6db4;enable-background:new" /><rect
       id="rect7134"
       height="3.8"
       width="0.69999999"
       class="st4"
       y="417.29999"
       x="246.10001"
       style="opacity:0.6;fill:#4b6db4;enable-background:new" /><rect
       id="rect7136"
       height="3.8"
       width="0.69999999"
       class="st4"
       y="417.29999"
       x="244.8"
       style="opacity:0.6;fill:#4b6db4;enable-background:new" /><rect
       id="rect7138"
       height="3.8"
       width="0.69999999"
       class="st4"
       y="417.29999"
       x="243.8"
       style="opacity:0.6;fill:#4b6db4;enable-background:new" /><rect
       id="rect7140"
       height="3.8"
       width="0.69999999"
       class="st4"
       y="417.29999"
       x="242.5"
       style="opacity:0.6;fill:#4b6db4;enable-background:new" /><rect
       id="rect7142"
       height="3.8"
       width="0.69999999"
       class="st4"
       y="417.29999"
       x="241.3"
       style="opacity:0.6;fill:#4b6db4;enable-background:new" /><rect
       id="rect7144"
       height="3.8"
       width="0.69999999"
       class="st4"
       y="417.29999"
       x="240.2"
       style="opacity:0.6;fill:#4b6db4;enable-background:new" /><rect
       id="rect7146"
       height="3.8"
       width="0.69999999"
       class="st4"
       y="417.29999"
       x="253.3"
       style="opacity:0.6;fill:#4b6db4;enable-background:new" /><rect
       id="rect7148"
       height="3.8"
       width="0.69999999"
       class="st4"
       y="417.29999"
       x="252.2"
       style="opacity:0.6;fill:#4b6db4;enable-background:new" /><rect
       id="rect7150"
       height="3.8"
       width="0.69999999"
       class="st4"
       y="417.29999"
       x="251.10001"
       style="opacity:0.6;fill:#4b6db4;enable-background:new" /><rect
       id="rect7152"
       height="3.8"
       width="0.69999999"
       class="st4"
       y="417.29999"
       x="249.8"
       style="opacity:0.6;fill:#4b6db4;enable-background:new" /><rect
       id="rect7154"
       height="3.8"
       width="0.69999999"
       class="st4"
       y="417.29999"
       x="248.60001"
       style="opacity:0.6;fill:#4b6db4;enable-background:new" /><rect
       id="rect7156"
       height="0.80000001"
       width="5.3000002"
       class="st4"
       y="195.60001"
       x="508.79999"
       style="opacity:0.6;fill:#4b6db4;enable-background:new" /><rect
       id="rect7158"
       height="0.80000001"
       width="5.3000002"
       class="st4"
       y="194.3"
       x="508.79999"
       style="opacity:0.6;fill:#4b6db4;enable-background:new" /><rect
       id="rect7160"
       height="0.80000001"
       width="5.3000002"
       class="st4"
       y="192.5"
       x="508.79999"
       style="opacity:0.6;fill:#4b6db4;enable-background:new" /><rect
       id="rect7162"
       height="0.80000001"
       width="5.3000002"
       class="st4"
       y="190.8"
       x="508.79999"
       style="opacity:0.6;fill:#4b6db4;enable-background:new" /><rect
       id="rect7164"
       height="0.80000001"
       width="5.3000002"
       class="st4"
       y="189.5"
       x="508.79999"
       style="opacity:0.6;fill:#4b6db4;enable-background:new" /><rect
       id="rect7166"
       height="0.80000001"
       width="5.3000002"
       class="st4"
       y="187.7"
       x="508.79999"
       style="opacity:0.6;fill:#4b6db4;enable-background:new" /><rect
       id="rect7168"
       height="0.80000001"
       width="5.3000002"
       class="st4"
       y="186.39999"
       x="508.79999"
       style="opacity:0.6;fill:#4b6db4;enable-background:new" /><rect
       id="rect7170"
       height="0.80000001"
       width="5.3000002"
       class="st4"
       y="203.7"
       x="508.79999"
       style="opacity:0.6;fill:#4b6db4;enable-background:new" /><rect
       id="rect7172"
       height="0.80000001"
       width="5.3000002"
       class="st4"
       y="202.39999"
       x="508.79999"
       style="opacity:0.6;fill:#4b6db4;enable-background:new" /><rect
       id="rect7174"
       height="0.80000001"
       width="5.3000002"
       class="st4"
       y="200.7"
       x="508.79999"
       style="opacity:0.6;fill:#4b6db4;enable-background:new" /><rect
       id="rect7176"
       height="0.80000001"
       width="5.3000002"
       class="st4"
       y="198.89999"
       x="508.79999"
       style="opacity:0.6;fill:#4b6db4;enable-background:new" /><rect
       id="rect7178"
       height="0.80000001"
       width="5.3000002"
       class="st4"
       y="197.39999"
       x="508.79999"
       style="opacity:0.6;fill:#4b6db4;enable-background:new" /><rect
       id="rect7180"
       height="0.80000001"
       width="5.3000002"
       class="st4"
       y="195.60001"
       x="515.09998"
       style="opacity:0.6;fill:#4b6db4;enable-background:new" /><rect
       id="rect7182"
       height="0.80000001"
       width="5.3000002"
       class="st4"
       y="194.3"
       x="515.09998"
       style="opacity:0.6;fill:#4b6db4;enable-background:new" /><rect
       id="rect7184"
       height="0.80000001"
       width="5.3000002"
       class="st4"
       y="192.5"
       x="515.09998"
       style="opacity:0.6;fill:#4b6db4;enable-background:new" /><rect
       id="rect7186"
       height="0.80000001"
       width="5.3000002"
       class="st4"
       y="190.8"
       x="515.09998"
       style="opacity:0.6;fill:#4b6db4;enable-background:new" /><rect
       id="rect7188"
       height="0.80000001"
       width="5.3000002"
       class="st4"
       y="189.5"
       x="515.09998"
       style="opacity:0.6;fill:#4b6db4;enable-background:new" /><rect
       id="rect7190"
       height="0.80000001"
       width="5.3000002"
       class="st4"
       y="187.7"
       x="515.09998"
       style="opacity:0.6;fill:#4b6db4;enable-background:new" /><rect
       id="rect7192"
       height="0.80000001"
       width="5.3000002"
       class="st4"
       y="186.39999"
       x="515.09998"
       style="opacity:0.6;fill:#4b6db4;enable-background:new" /><rect
       id="rect7194"
       height="0.80000001"
       width="5.3000002"
       class="st4"
       y="203.7"
       x="515.09998"
       style="opacity:0.6;fill:#4b6db4;enable-background:new" /><rect
       id="rect7196"
       height="0.80000001"
       width="5.3000002"
       class="st4"
       y="202.39999"
       x="515.09998"
       style="opacity:0.6;fill:#4b6db4;enable-background:new" /><rect
       id="rect7198"
       height="0.80000001"
       width="5.3000002"
       class="st4"
       y="200.7"
       x="515.09998"
       style="opacity:0.6;fill:#4b6db4;enable-background:new" /><rect
       id="rect7200"
       height="0.80000001"
       width="5.3000002"
       class="st4"
       y="198.89999"
       x="515.09998"
       style="opacity:0.6;fill:#4b6db4;enable-background:new" /><rect
       id="rect7202"
       height="0.80000001"
       width="5.3000002"
       class="st4"
       y="197.39999"
       x="515.09998"
       style="opacity:0.6;fill:#4b6db4;enable-background:new" /><rect
       id="rect7204"
       height="0.80000001"
       width="5.3000002"
       class="st4"
       y="232.39999"
       x="670.5"
       style="opacity:0.6;fill:#4b6db4;enable-background:new" /><rect
       id="rect7206"
       height="0.80000001"
       width="5.3000002"
       class="st4"
       y="230.8"
       x="670.5"
       style="opacity:0.6;fill:#4b6db4;enable-background:new" /><rect
       id="rect7208"
       height="0.80000001"
       width="5.3000002"
       class="st4"
       y="229.3"
       x="670.5"
       style="opacity:0.6;fill:#4b6db4;enable-background:new" /><rect
       id="rect7210"
       height="0.80000001"
       width="5.3000002"
       class="st4"
       y="227.60001"
       x="670.5"
       style="opacity:0.6;fill:#4b6db4;enable-background:new" /><rect
       id="rect7212"
       height="0.80000001"
       width="5.3000002"
       class="st4"
       y="226.10001"
       x="670.5"
       style="opacity:0.6;fill:#4b6db4;enable-background:new" /><rect
       id="rect7214"
       height="0.80000001"
       width="5.3000002"
       class="st4"
       y="224.60001"
       x="670.5"
       style="opacity:0.6;fill:#4b6db4;enable-background:new" /><rect
       id="rect7216"
       height="0.80000001"
       width="5.3000002"
       class="st4"
       y="222.89999"
       x="670.5"
       style="opacity:0.6;fill:#4b6db4;enable-background:new" /><rect
       id="rect7218"
       height="0.80000001"
       width="5.3000002"
       class="st4"
       y="240.39999"
       x="670.5"
       style="opacity:0.6;fill:#4b6db4;enable-background:new" /><rect
       id="rect7220"
       height="0.80000001"
       width="5.3000002"
       class="st4"
       y="239.10001"
       x="670.5"
       style="opacity:0.6;fill:#4b6db4;enable-background:new" /><rect
       id="rect7222"
       height="0.80000001"
       width="5.3000002"
       class="st4"
       y="237.3"
       x="670.5"
       style="opacity:0.6;fill:#4b6db4;enable-background:new" /><rect
       id="rect7224"
       height="0.80000001"
       width="5.3000002"
       class="st4"
       y="235.7"
       x="670.5"
       style="opacity:0.6;fill:#4b6db4;enable-background:new" /><rect
       id="rect7226"
       height="0.80000001"
       width="5.3000002"
       class="st4"
       y="234.2"
       x="670.5"
       style="opacity:0.6;fill:#4b6db4;enable-background:new" /><rect
       id="rect7228"
       height="0.80000001"
       width="5.3000002"
       class="st4"
       y="232.39999"
       x="676.59998"
       style="opacity:0.6;fill:#4b6db4;enable-background:new" /><rect
       id="rect7230"
       height="0.80000001"
       width="5.3000002"
       class="st4"
       y="230.8"
       x="676.59998"
       style="opacity:0.6;fill:#4b6db4;enable-background:new" /><rect
       id="rect7232"
       height="0.80000001"
       width="5.3000002"
       class="st4"
       y="229.3"
       x="676.59998"
       style="opacity:0.6;fill:#4b6db4;enable-background:new" /><rect
       id="rect7234"
       height="0.80000001"
       width="5.3000002"
       class="st4"
       y="227.60001"
       x="676.59998"
       style="opacity:0.6;fill:#4b6db4;enable-background:new" /><rect
       id="rect7236"
       height="0.80000001"
       width="5.3000002"
       class="st4"
       y="226.10001"
       x="676.59998"
       style="opacity:0.6;fill:#4b6db4;enable-background:new" /><rect
       id="rect7238"
       height="0.80000001"
       width="5.3000002"
       class="st4"
       y="224.60001"
       x="676.59998"
       style="opacity:0.6;fill:#4b6db4;enable-background:new" /><rect
       id="rect7240"
       height="0.80000001"
       width="5.3000002"
       class="st4"
       y="222.89999"
       x="676.59998"
       style="opacity:0.6;fill:#4b6db4;enable-background:new" /><rect
       id="rect7242"
       height="0.80000001"
       width="5.3000002"
       class="st4"
       y="240.39999"
       x="676.59998"
       style="opacity:0.6;fill:#4b6db4;enable-background:new" /><rect
       id="rect7244"
       height="0.80000001"
       width="5.3000002"
       class="st4"
       y="239.10001"
       x="676.59998"
       style="opacity:0.6;fill:#4b6db4;enable-background:new" /><rect
       id="rect7246"
       height="0.80000001"
       width="5.3000002"
       class="st4"
       y="237.3"
       x="676.59998"
       style="opacity:0.6;fill:#4b6db4;enable-background:new" /><rect
       id="rect7248"
       height="0.80000001"
       width="5.3000002"
       class="st4"
       y="235.7"
       x="676.59998"
       style="opacity:0.6;fill:#4b6db4;enable-background:new" /><rect
       id="rect7250"
       height="0.80000001"
       width="5.3000002"
       class="st4"
       y="234.2"
       x="676.59998"
       style="opacity:0.6;fill:#4b6db4;enable-background:new" /><rect
       id="rect7252"
       height="14.5"
       width="0.69999999"
       class="st4"
       y="218"
       x="488.20001"
       style="opacity:0.6;fill:#4b6db4;enable-background:new" /><rect
       id="rect7254"
       height="14.5"
       width="0.69999999"
       class="st4"
       y="218"
       x="487"
       style="opacity:0.6;fill:#4b6db4;enable-background:new" /><rect
       id="rect7256"
       height="14.5"
       width="0.69999999"
       class="st4"
       y="218"
       x="486"
       style="opacity:0.6;fill:#4b6db4;enable-background:new" /><rect
       id="rect7258"
       height="14.5"
       width="0.69999999"
       class="st4"
       y="218"
       x="484.70001"
       style="opacity:0.6;fill:#4b6db4;enable-background:new" /><rect
       id="rect7260"
       height="14.5"
       width="0.69999999"
       class="st4"
       y="218"
       x="483.39999"
       style="opacity:0.6;fill:#4b6db4;enable-background:new" /><rect
       id="rect7262"
       height="14.5"
       width="0.69999999"
       class="st4"
       y="218"
       x="482.20001"
       style="opacity:0.6;fill:#4b6db4;enable-background:new" /><rect
       id="rect7264"
       height="14.5"
       width="0.69999999"
       class="st4"
       y="218"
       x="480.89999"
       style="opacity:0.6;fill:#4b6db4;enable-background:new" /><rect
       id="rect7266"
       height="14.5"
       width="0.69999999"
       class="st4"
       y="218"
       x="494.29999"
       style="opacity:0.6;fill:#4b6db4;enable-background:new" /><rect
       id="rect7268"
       height="14.5"
       width="0.69999999"
       class="st4"
       y="218"
       x="493.10001"
       style="opacity:0.6;fill:#4b6db4;enable-background:new" /><rect
       id="rect7270"
       height="14.5"
       width="0.69999999"
       class="st4"
       y="218"
       x="492"
       style="opacity:0.6;fill:#4b6db4;enable-background:new" /><rect
       id="rect7272"
       height="14.5"
       width="0.69999999"
       class="st4"
       y="218"
       x="490.70001"
       style="opacity:0.6;fill:#4b6db4;enable-background:new" /><rect
       id="rect7274"
       height="14.5"
       width="0.69999999"
       class="st4"
       y="218"
       x="489.5"
       style="opacity:0.6;fill:#4b6db4;enable-background:new" /><rect
       id="rect7276"
       height="0.69999999"
       width="11.7"
       class="st4"
       y="301"
       x="492.29999"
       style="opacity:0.6;fill:#4b6db4;enable-background:new" /><rect
       id="rect7278"
       height="0.69999999"
       width="11.7"
       class="st4"
       y="302.20001"
       x="492.29999"
       style="opacity:0.6;fill:#4b6db4;enable-background:new" /><rect
       id="rect7280"
       height="0.69999999"
       width="11.7"
       class="st4"
       y="303.39999"
       x="492.29999"
       style="opacity:0.6;fill:#4b6db4;enable-background:new" /><rect
       id="rect7282"
       height="0.69999999"
       width="11.7"
       class="st4"
       y="304.60001"
       x="492.29999"
       style="opacity:0.6;fill:#4b6db4;enable-background:new" /><rect
       id="rect7284"
       height="0.69999999"
       width="11.7"
       class="st4"
       y="305.70001"
       x="492.29999"
       style="opacity:0.6;fill:#4b6db4;enable-background:new" /><rect
       id="rect7286"
       height="7.3000002"
       width="0.69999999"
       class="st4"
       y="332.89999"
       x="538.29999"
       style="opacity:0.6;fill:#4b6db4;enable-background:new" /><rect
       id="rect7288"
       height="7.3000002"
       width="0.69999999"
       class="st4"
       y="332.89999"
       x="537.09998"
       style="opacity:0.6;fill:#4b6db4;enable-background:new" /><rect
       id="rect7290"
       height="7.3000002"
       width="0.69999999"
       class="st4"
       y="332.89999"
       x="535.90002"
       style="opacity:0.6;fill:#4b6db4;enable-background:new" /><rect
       id="rect7292"
       height="7.3000002"
       width="0.69999999"
       class="st4"
       y="332.89999"
       x="534.79999"
       style="opacity:0.6;fill:#4b6db4;enable-background:new" /><rect
       id="rect7294"
       height="7.3000002"
       width="0.69999999"
       class="st4"
       y="332.89999"
       x="533.5"
       style="opacity:0.6;fill:#4b6db4;enable-background:new" /><rect
       id="rect7296"
       height="14"
       width="0.69999999"
       class="st4"
       y="201.2"
       x="488.20001"
       style="opacity:0.6;fill:#4b6db4;enable-background:new" /><rect
       id="rect7298"
       height="14"
       width="0.69999999"
       class="st4"
       y="201.2"
       x="487"
       style="opacity:0.6;fill:#4b6db4;enable-background:new" /><rect
       id="rect7300"
       height="14"
       width="0.69999999"
       class="st4"
       y="201.2"
       x="486"
       style="opacity:0.6;fill:#4b6db4;enable-background:new" /><rect
       id="rect7302"
       height="14"
       width="0.69999999"
       class="st4"
       y="201.2"
       x="484.70001"
       style="opacity:0.6;fill:#4b6db4;enable-background:new" /><rect
       id="rect7304"
       height="14"
       width="0.69999999"
       class="st4"
       y="201.2"
       x="483.39999"
       style="opacity:0.6;fill:#4b6db4;enable-background:new" /><rect
       id="rect7306"
       height="14"
       width="0.69999999"
       class="st4"
       y="201.2"
       x="482.20001"
       style="opacity:0.6;fill:#4b6db4;enable-background:new" /><rect
       id="rect7308"
       height="14"
       width="0.69999999"
       class="st4"
       y="201.2"
       x="480.89999"
       style="opacity:0.6;fill:#4b6db4;enable-background:new" /><rect
       id="rect7310"
       height="14"
       width="0.69999999"
       class="st4"
       y="201.2"
       x="494.29999"
       style="opacity:0.6;fill:#4b6db4;enable-background:new" /><rect
       id="rect7312"
       height="14"
       width="0.69999999"
       class="st4"
       y="201.2"
       x="493.10001"
       style="opacity:0.6;fill:#4b6db4;enable-background:new" /><rect
       id="rect7314"
       height="14"
       width="0.69999999"
       class="st4"
       y="201.2"
       x="492"
       style="opacity:0.6;fill:#4b6db4;enable-background:new" /><rect
       id="rect7316"
       height="14"
       width="0.69999999"
       class="st4"
       y="201.2"
       x="490.70001"
       style="opacity:0.6;fill:#4b6db4;enable-background:new" /><rect
       id="rect7318"
       height="14"
       width="0.69999999"
       class="st4"
       y="201.2"
       x="489.5"
       style="opacity:0.6;fill:#4b6db4;enable-background:new" /><path
       id="path7320"
       d="m 599,207.2 3.8,0 0,-21 -0.4,0 -0.2,0 0,-0.1 0,-0.7 0,0 0,-1 -3,0 -0.1,0 -3.8,0 -0.1,0 -3.6,0 -0.4,0 -3.8,0 -0.2,0 -3,0 0,0.8 c 0,0.1 -0.1,0.1 -0.1,0.1 l 0,0 -0.5,0 0,7.5 0.1,0 0,0 c 0,0 0,0 0.1,0 0,0 0,0 0.1,0 0.1,0 0.1,0.1 0.1,0.1 l 0,6 c 0,0.1 -0.1,0.1 -0.1,0.1 0,0 0,0 -0.1,0 0,0 0,0 -0.1,0 l -0.1,0 0,7.5 12.3,0 0.1,0 0,0.1 2.6,0 c 0.2,0.7 0.2,0.6 0.4,0.6 z"
       class="st5"
       inkscape:connector-curvature="0"
       style="fill:#3a65b0" /><path
       id="path7322"
       d="m 571.3,203.2 c 0,0 0,-0.2 0,0 0,-0.2 0,-0.2 0,0 0,-0.2 0,-0.2 0,0 l 0,0 0,0 0,0 0,0 0,-2.6 0,0 0,0 0,0 0,0 0,0 0,0 c 0,0 0,0 0,-0.1 l 0,-0.8 c 0,0 0,0 0,-0.1 l 0,0 0,0 0,0 0,0 0,0 0,0 0,-2.6 0,0 0,0 0,0 0,0 0,0 0,0 c 0,0 0,0 0,-0.1 l 0,-4.9 c 0,0 0,0 0,-0.1 l 0,0 0,0 0,0 0,0 0,0 0,0 0,-3.1 0,0 0,0 0,0 0,0 0,0 0,0 c 0,0 0,0 0,-0.1 l 0,-4.1 -3.5,0 -0.1,0 -3,0 0,0.8 c 0,0.1 -0.1,0.1 -0.1,0.1 l 0,0 -1.4,0 c -0.1,0 -0.1,-0.1 -0.1,-0.1 l 0,-0.8 -2.8,0 -0.4,0 -3.8,0 -0.1,0 -3.5,0 0,10 10.2,0 c 0.1,0 0.1,0.1 0.1,0.1 l 0,0 0,0.7 c 0,0 0,0 0,0.1 l 0,0 0,0 0,0 0,0 0,0 0,0 0,2.6 0,0 0,0 0,0 0,0 0,0 0,0 c 0,0 0,0 0,0.1 l 0,9 0.1,0 5.3,0 0,-0.4 c 0.4,-1.2 1.2,-2.3 2.5,-2.5 l 0.5,0 0,0 0,0 0,0 0,0 0,0 0,0 0.1,-1.1 0,0 z"
       class="st6"
       inkscape:connector-curvature="0"
       style="fill:#cdcccc" /><path
       id="path7324"
       d="m 643.6,184.2 0,0.8 0,0 c 0,0.1 -0.1,0.1 -0.1,0.1 l -0.4,0 0,12.5 4.4,0 0,0 0,0 0,0 0,0 0,0 0,0 0,0 0,0 0,-0.5 c 0.4,-1.4 1.2,-2.1 2.5,-2.5 l 0.4,0 0,-10.4 -3.5,0 -0.1,0 -3.2,0 0,0 z"
       class="st6"
       inkscape:connector-curvature="0"
       style="fill:#cdcccc" /><path
       id="path7326"
       d="m 524.7,403.1 0,10.8 10.2,0 0,-19 -8.1,0 0,4.9 c 0,0.1 -0.1,0.1 -0.1,0.1 l -1.8,0 0,0.1 c 0,0.1 0,0.1 -0.1,0.1 l 0,2.6 c -0.1,0.3 -0.1,0.3 -0.1,0.4 z"
       class="st6"
       inkscape:connector-curvature="0"
       style="fill:#cdcccc" /><path
       id="path7328"
       d="m 520.8,405.2 -11.1,0 0,8.6 14.2,0 0,-8.6 -0.1,0 c -0.1,0 -0.1,0 -0.1,-0.1 l -2.9,0.1 c 0.4,-0.1 0.2,0 0,0 z"
       class="st6"
       inkscape:connector-curvature="0"
       style="fill:#cdcccc" /><path
       id="path7330"
       d="m 551.6,184.2 -6.7,0 0,0.8 c 0,0.1 -0.1,0.1 -0.1,0.1 l -1.6,0 0,9.7 0.1,0 0.5,0 c 1.2,0.1 2.1,1.2 2.5,2.5 l 0,0 0,0.4 5.1,0 0.2,-13.5 0,0 z"
       class="st6"
       inkscape:connector-curvature="0"
       style="fill:#cdcccc" /><path
       id="path7332"
       d="m 270.8,362.4 0,-3.8 0,-4.8 -14.6,0 0,1.4 2.8,0 0,0 0,0 0,0 0,0 0,0 0,0 0,0 0,0 0,0 0,0 0,0 0,0 0,0.7 c -0.4,1.2 -1.2,2.1 -2.5,2.5 l -0.3,0 0,3.8 14.6,0.2 c 0,0.1 0,0 0,0 z"
       class="st6"
       inkscape:connector-curvature="0"
       style="fill:#cdcccc" /><path
       id="path7334"
       d="m 561.4,198.2 c -1.4,-0.4 -2.1,-1 -2.5,-2.5 l 0,0 0,-0.7 0,0 0,0 0,0 0,0 0,0 0,0 -6.9,0 0,1.9 0,1.7 c 0,0.1 -0.1,0.1 -0.1,0.1 l -2.7,0 0,8.3 7.4,0 3,0 2.1,0 0,-8.7 -0.3,0 0,-0.1 z"
       class="st6"
       inkscape:connector-curvature="0"
       style="fill:#cdcccc" /><path
       id="path7336"
       d="m 400.4,312.5 0,0 c 0,0.1 0,0.1 0,0 0,0.1 0,0.1 0,0 l 0,0 0,0 0,0 9.1,0.1 0,-2.7 c 0,-0.1 0.1,-0.1 0.1,-0.1 l 0.1,0 0,-0.4 -4.7,0 -0.1,0 -4.7,0 0,0.4 0,0 0,0 0,0 c 0,0 0,0 0,0.1 l 0,0.4 c 0,0.1 -0.1,0.1 -0.1,0.1 l 0,0 0.3,2.1 0,0 c -0.4,0 -0.4,0 0,0 z"
       class="st6"
       inkscape:connector-curvature="0"
       style="fill:#cdcccc" /><path
       id="path7338"
       d="m 419.5,318.6 0,0 0,0 0,0 0.1,-8.6 c 0,0 0,0 0,-0.1 l 0,0 0,0 0,0 0,-0.5 -4.7,0 -0.1,0 -4.7,0 0,0.4 0.4,0 0.5,0 c 0.1,0 0.1,0.1 0.1,0.1 l 0,5.6 3.8,0 c 0.1,0 0.1,0.1 0.1,0.1 l 0,6 0.8,0 0,-0.4 c 0.1,-1.2 1.2,-2.3 2.5,-2.5 l 1.2,-0.1 0,0 0,0 c -0.1,0 -0.1,0 0,0 z"
       class="st6"
       inkscape:connector-curvature="0"
       style="fill:#cdcccc" /><path
       id="path7340"
       d="m 387.8,309.4 0,0 -0.4,0 -0.1,0 -0.1,0 -0.2,0 -0.1,0 -0.1,0 -0.6,0 0.1,0 -0.1,0 -0.2,0 -0.4,0 -0.1,0 -0.1,0 0,0 -0.1,0.1 -0.4,0 c -0.1,0 -0.1,0 -0.1,-0.1 l -4.4,0 0,0.4 0.1,0.1 c 0,0.1 -0.1,0.1 -0.1,0.1 l 0,0 -0.1,0 -0.1,0 c -0.1,0 -0.1,-0.1 -0.1,-0.1 0,-0.1 0,-0.1 0.1,-0.1 l 0,-0.4 -4.7,0 c 0,0 0,0 -0.1,0.1 0,0 0,0 -0.1,0 l -0.1,0 c -0.1,0 -0.1,0 -0.1,-0.1 l 0,0 -0.6,0 -0.1,0 -0.1,0 -0.1,0 -0.1,0 -0.1,0 -0.1,0 0.5,0 -0.1,0 -0.1,0 -0.1,0 -0.1,0 -0.4,0 -0.1,0 -0.1,0 -0.2,0 -0.1,0 -0.1,0 -0.1,0 -0.8,0 -0.1,0 -0.1,0 -1,0 -0.1,0 -0.3,0 0,0 0,0.4 0.1,0.1 c 0,0.1 -0.1,0.1 -0.1,0.1 l -0.1,0 -0.2,0 -0.4,0 c -0.1,0 -0.1,-0.1 -0.1,-0.1 0,-0.1 0,-0.1 0.1,-0.1 l 0,-0.4 -4.4,0 0,12.3 0.4,0 0,-2.6 0,0 0,0 0,0 0,0 0,0 0,0 0,0 0,0 0,0 0,0 0.1,0 c 0,0 0,0 0.1,0 l 0.4,0 c 1.2,0.4 2.3,1.2 2.5,2.5 l 0,0.4 0.4,0 0,0 c 0,-0.1 0.1,-0.1 0.1,-0.1 l 0.4,0 c 0.1,0 0.1,0.1 0.1,0.1 l 0,0 0.7,0 0.4,0 0,0 3,0 1.8,0 4.8,0 0,0 1,0 0,0 3,0 0,0 0,0 3.5,0 -0.3,-12.6 0,0 z"
       class="st6"
       inkscape:connector-curvature="0"
       style="fill:#cdcccc" /><path
       id="path7342"
       d="m 556.1,220.7 0,0 -0.4,0 0,0.4 0,0.1 -0.1,0 -0.4,0 c -0.1,0 -0.1,-0.1 -0.1,-0.1 l 0,-0.4 -7,0 0,11.7 0,0 0,0.4 0,0 0,10.5 14.7,0 0,-0.8 0,-0.1 0.1,0 1.7,0 c 0.1,0 0.1,0.1 0.1,0.1 l 0,0 0,0.8 2.1,0 0,-22.9 -6.3,0 0,0.4 0,0.1 -0.1,0 -0.4,0 c -0.1,0 -0.1,-0.1 -0.1,-0.1 l 0,-0.4 -0.4,0 c -0.1,0 -0.1,-0.1 -0.1,-0.1 l -2.6,0 c -0.3,0.1 -0.5,0.4 -0.7,0.4 z"
       class="st6"
       inkscape:connector-curvature="0"
       style="fill:#cdcccc" /><path
       id="path7344"
       d="m 520,380.7 0,0 0,2.3 c 0,0.1 -0.1,0.1 -0.1,0.1 l 0,0 0,2.3 0,0 c 0.1,0 0.1,0.1 0.1,0.1 l 0,0 14.9,0 0,-5.1 -3,0 -11.9,0.3 0,0 z"
       class="st6"
       inkscape:connector-curvature="0"
       style="fill:#cdcccc" /><path
       id="path7346"
       d="m 510.3,344.1 c 0,0 0.1,0 0,0 l 0.4,0 c 0.1,0 0.1,0.1 0.1,0.4 l -0.8,6.9 0,0 0,0 0,0 0,0 0,0 0,0 c 0,0 0,0 -0.1,0 l 0,0 0,0 -0.4,0 -0.4,0 0,0 0,0 0,0 0,0 0,0 0,0 0,0 0,2.6 0,0 0,0 0,0 0,0 0,0 0,0 c 0,0 0,0 0,0.1 l 0.4,0 c 0.1,0 0.1,0.1 0.1,0.1 l 0,24.8 0.4,0 c 0.1,0 0.1,0.1 0.1,0.1 l 0,0.4 3,0 c 0.1,0 0.1,0.1 0.1,0.1 l 0,2.5 6.1,0 0,-2.6 c 0,-0.1 0.1,-0.1 0.1,-0.1 l 0.7,0 11.7,0 3,0 0,-28.8 -0.1,0 0,0 0,0 c 0,0 0,0 -0.1,0 l 0,0 0,0 0,0 0,0 0,0 0,0 -0.8,-6.7 c 0,-0.1 0,-0.1 0.1,-0.4 0.1,0 0.1,0 0.1,0.1 l 0.1,-0.1 c 0.1,0 0.1,0 0.4,0.1 l 0.4,3.5 0,-4.1 -25.6,0 0,4.7 0.4,-3.6 c 0.2,0 0.3,0 0.6,0 z"
       class="st5"
       inkscape:connector-curvature="0"
       style="fill:#3a65b0" /><path
       id="path7348"
       d="m 535.1,295.1 -17.4,0 0,0.1 c 0,0.1 0,0.1 -0.1,0.1 l 0,2.6 c 0.1,0 0.1,0.1 0.1,0.1 l 0,1.7 0.8,0 c 0.1,0 0.1,0.1 0.1,0.1 l 0,3.8 c 0,0.1 -0.1,0.1 -0.1,0.1 l -0.8,0 0,3.4 14,0 3.4,0 0,-4.9 0,-2.6 0,-4.5 0,0 z"
       class="st6"
       inkscape:connector-curvature="0"
       style="fill:#cdcccc" /><path
       id="path7350"
       d="m 530.1,388.6 c 0,0.1 0,0.1 0,0 l -0.5,0.1 c -0.1,0 -0.1,-0.1 -0.1,-0.1 l 0,-2.3 -6.9,0 0,7.4 0,0 c 0.1,0 0.1,0.1 0.1,0.1 l 0,0 2.6,0 0,0 c 0,-0.1 0.1,-0.1 0.1,-0.1 l 3.8,0 0,-2.3 c 0,-0.1 0.1,-0.1 0.1,-0.1 l 0.4,0 c 0.1,0 0.1,0.1 0.1,0.1 l 0,2.3 4.9,0 0,-7.4 -4.9,0 0.3,2.3 0,0 z"
       class="st6"
       inkscape:connector-curvature="0"
       style="fill:#cdcccc" /><path
       id="path7352"
       d="m 673.6,198.6 0,0 0,0.7 c -0.4,1.2 -1.2,2.1 -2.5,2.5 l 0,0 -0.4,0 0,5.3 11.4,0 0,-8.4 -8.5,-0.1 0,0 0,0 z"
       class="st6"
       inkscape:connector-curvature="0"
       style="fill:#cdcccc" /><path
       id="path7354"
       d="m 670.6,194.7 c 0,0.3 0,0.3 0,0 l -0.1,2.6 c 0.1,0 0.1,0.1 0.1,0.1 l 0,0.1 11.4,0 0,-6.9 -11.4,0 0,4.1 z"
       class="st6"
       inkscape:connector-curvature="0"
       style="fill:#cdcccc" /><path
       id="path7356"
       d="m 533,198.8 0,0 0,-13.4 -1.2,0 -0.1,0 0,-0.1 0,-1 -6.9,0 0,13.8 0.1,0 c 0.1,0 0.1,0.1 0.1,0.1 l 0,0 0,0 0,0.4 0,0 c 0,0.1 -0.1,0.1 -0.1,0.1 l 0,0 -0.1,0 0,8.3 9.9,0 0,-0.1 0,-0.5 c 0.1,-1.2 1.2,-2.3 2.5,-2.5 l 0.4,0 0,-5.1 -4.4,0 c 0.1,0 0.1,0 -0.2,0 z"
       class="st6"
       inkscape:connector-curvature="0"
       style="fill:#cdcccc" /><path
       id="path7358"
       d="m 671.2,186.8 c 1.2,0.4 2.3,1.2 2.5,2.5 l 0,0.5 0,0.1 -0.1,0 -2.6,0 0,0.4 11.4,0 0,-6 -11.4,0 0,2.5 0.2,0 z"
       class="st6"
       inkscape:connector-curvature="0"
       style="fill:#cdcccc" /><path
       id="path7360"
       d="m 641.9,242.3 0.4,0 0,-21.9 -11.6,0 c -0.1,0 -0.1,-0.1 -0.1,-0.1 l 0,0 -2.6,0 c 0,0.1 -0.1,0.1 -0.1,0.1 l -4.4,0 0,21.8 0.4,0 c 0.1,0 0.1,0.1 0.1,0.1 l 0,0.8 3,0 0.4,0 3.6,0 0.4,0 3.8,0 0.1,0 3.8,0 0.1,0 3,0 -0.3,-0.8 c -0.1,0 0,0 0,0 z"
       class="st5"
       inkscape:connector-curvature="0"
       style="fill:#3a65b0" /><path
       id="path7362"
       d="m 622.2,242.3 0.4,0 0,-7.8 -0.1,0 c 0,0 0,0 -0.1,0 0,0 0,0 -0.1,0 -0.1,0 -0.1,-0.1 -0.1,-0.1 l 0,-6 c 0,-0.1 0.1,-0.1 0.1,-0.1 0,0 0,0 0.1,0 0,0 0,0 0.1,0 l 0.1,0 0,-7.8 -11.7,0 c -0.1,0 -0.1,-0.1 -0.1,-0.1 l 0,0 -2.8,0 c 0,0.1 -0.1,0.1 -0.1,0.1 l -0.1,0 0,7.8 0.1,0 c 0,0 0,0 0.1,0 0,0 0,0 0.1,0 0.1,0 0.1,0.1 0.1,0.1 l 0,6 c 0,0.1 -0.1,0.1 -0.1,0.1 0,0 0,0 -0.1,0 0,0 0,0 -0.1,0 l -0.1,0 0,8.7 3.4,0 0,0 0,0 0.4,0 0,0 0,0 3.6,0 0.4,0 3.8,0 0.1,0 3,0 -0.3,-0.9 c -0.1,0 0,0 0,0 z"
       class="st5"
       inkscape:connector-curvature="0"
       style="fill:#3a65b0" /><path
       id="path7364"
       d="m 542.1,195.1 0,0 c 0.1,0 0.1,0 0,0 0.1,0 0.1,0 0,0 l 0,0 0.1,-10.2 c 0,-0.1 0.1,-0.1 0.1,-0.1 l 0,0 0.4,0 0,-0.5 -10.5,0 0,0.4 1.4,0 0,0 c 0.1,0 0.1,0.1 0.1,0.1 l 0,13.1 5.1,0 0,-0.4 c 0.4,-1.2 1.4,-2.3 2.5,-2.5 l 0.8,0.1 0,0 0,0 0,0 z"
       class="st6"
       inkscape:connector-curvature="0"
       style="fill:#cdcccc" /><rect
       id="rect7366"
       height="5.5"
       width="3.8"
       class="st6"
       y="316.10001"
       x="410.39999"
       style="fill:#cdcccc" /><path
       id="path7368"
       d="m 660.6,193.2 3.8,0 2.5,0 c 0.1,0 0.1,0 0.1,0.1 l 2.6,0 c 0,-0.1 0.1,-0.1 0.1,-0.1 l 0.1,0 0,-3.4 0,0 0,0 0,-3 0,0 0,-2.6 -6.6,0 0,0.8 0,0 0,0.1 0,0 -0.1,0 0,0 -1.6,0 c -0.1,0 -0.1,-0.1 -0.1,-0.1 l 0,0 0,-0.8 -10.5,0 0,9 9.7,0 0,0 z"
       class="st6"
       inkscape:connector-curvature="0"
       style="fill:#cdcccc" /><path
       id="path7370"
       d="m 270,312 0,0 c -1.4,-0.4 -2.3,-1.2 -2.5,-2.5 l 0,-0.4 -3.6,0 -1.4,0 0,12.5 3.8,0 0,-0.4 0,0 c 0.4,-1.4 1.2,-2.3 2.5,-2.5 l 0.5,0 0,0 0,0 0,0 0,0 0,0 0,0 0,0 0,0 0,0 0,0 0,0 0,2.6 0.8,0 0,-9.6 -0.1,0.3 0,0 z"
       class="st6"
       inkscape:connector-curvature="0"
       style="fill:#cdcccc" /><path
       id="path7372"
       d="m 590.9,220.7 c -0.1,0 -0.1,-0.3 0,0 l 0,0 -2.6,-0.1 c 0,0.1 -0.1,0.1 -0.1,0.1 l -0.1,0 0,22.9 3.4,0 0.4,0 3.6,0 0.4,0 3.8,0 0.1,0 3,0 0,-1 0,0 c 0,-0.1 0.1,-0.1 0.1,-0.1 l 1.7,0 c 0.1,0 0.1,0.1 0.1,0.1 l 0,0 0,0.8 2.6,0 0,-23.1 -16.4,0 0,0.4 0,0 z"
       class="st5"
       inkscape:connector-curvature="0"
       style="fill:#3a65b0" /><path
       id="path7374"
       d="m 516.8,295.4 0,-0.7 c 0,-0.1 0.1,-0.1 0.1,-0.1 l 18.2,0 0,-49.2 -25.7,0 0,0.4 c 0,0.1 -0.1,0.1 -0.1,0.1 l -0.4,0 -0.1,2.8 0.4,0 c 0.1,0 0.1,0.1 0.1,0.1 l 0,0.1 0,58.3 1.2,0 c 0.1,0 0.1,0.1 0.1,0.1 l 0,0.8 c 0.1,0 0.1,0.1 0.1,0.1 l 5.6,0 c 0,-0.1 0,-0.1 0.1,-0.1 l 0,-10.2 c 0,-0.1 0.1,-0.1 0.1,-0.1 l 0.3,-2.4 c 0.1,0 0,0 0,0 z"
       class="st5"
       inkscape:connector-curvature="0"
       style="fill:#3a65b0" /><path
       id="path7376"
       d="m 262,323.2 c -0.3,0 -0.3,-0.2 0,0 l -0.1,-0.5 -0.1,0 c -0.1,0 -0.1,-0.1 -0.1,-0.1 0,-0.1 0,-0.1 0.1,-0.1 l 0,-0.4 0,-0.8 0,-0.8 0,-1.2 0,-0.8 0,-0.8 0,-0.8 0,-0.8 0,-0.8 0,-0.4 c -0.1,0 -0.1,-0.1 -0.1,-0.1 0,-0.1 0.1,-0.1 0.1,-0.1 l 0,0 0,-4.7 -9.9,0 0,3.8 c 0.1,0 0.1,0.1 0.1,0.1 l 0,0.8 0,0.8 0,0.8 0,0.7 c 0,0.1 0,0.1 -0.1,0.1 l 0,0.7 c 0.1,0 0.1,0.1 0.1,0.1 l 0,0.1 0,0.8 0,0.8 0,0.8 0,0.8 0,0.4 c 0.1,0 0.1,0.1 0.1,0.1 0,0.1 -0.1,0.1 -0.1,0.1 l -0.1,0 0,6.3 0.4,0 0,0 4.9,0 4.4,0 0,-0.8 0,0 c 0,-0.1 0.1,-0.1 0.1,-0.1 l 2.3,0 0,-0.1 -2.8,0 -0.1,0 0,-0.1 0,-0.1 c 0.1,-1 1.2,-2.3 2.5,-2.5 l 0.4,0 0,-1 0,-0.1 -1.9,0 -0.1,-0.1 0,0 0,0 z"
       class="st6"
       inkscape:connector-curvature="0"
       style="fill:#cdcccc" /><path
       id="path7378"
       d="m 619.1,207.2 3.4,0 0,-21.3 c 0,-0.1 0.1,-0.1 0.1,-0.1 0.1,0 0.1,0.1 0.1,0.1 l 0,21.3 0,0 0,-21.3 c 0,-0.1 0.1,-0.1 0.1,-0.1 l 0,0 0.4,0 0,-1.2 -0.4,0 0.1,0 -3.8,0 -0.1,0 -3.8,0 -0.2,0 -3.6,0 -0.4,0 -3.8,0 -0.1,0 -2.8,0 0,0.8 c 0,0.1 -0.1,0.1 -0.1,0.1 l 0,0 -1.2,0 0,0.4 0.4,0 0,0 0.1,0 0,0.1 c 0,-0.1 0.1,-0.1 0.1,-0.1 0.1,0 0.1,0.1 0.1,0.1 l 0,21.3 12.5,0 c 0.1,0 0.1,0.1 0.1,0.1 l 2.6,0 c 0,-0.1 0.2,-0.2 0.2,-0.2 z"
       class="st5"
       inkscape:connector-curvature="0"
       style="fill:#3a65b0" /><path
       id="path7380"
       d="m 430,328.6 0,12.5 0,0.4 19,0 0,-24.8 -19,0 0,9 c 0,0.1 -0.1,0.1 -0.1,0.1 l 0,2.6 c 0,0.1 0.1,0.1 0.1,0.2 z"
       class="st6"
       inkscape:connector-curvature="0"
       style="fill:#cdcccc" /><path
       id="path7382"
       d="m 540.1,243.3 0,0 2.8,0 0,-0.8 0,0 c 0,-0.1 0.1,-0.1 0.1,-0.1 l 1.7,0 c 0.1,0 0.1,0.1 0.1,0.1 l 0,0 0,0.8 2.3,0 0,-17.4 0,0 0,-0.4 c 0,-0.1 0.1,-0.1 0.1,-0.1 l 0,0 0,-6 -2.5,0 0,0.7 0,0 c 0,0.1 -0.1,0.1 -0.1,0.1 l -1.7,0 c -0.1,0 -0.1,-0.1 -0.1,-0.1 l 0,0 0,-0.7 0,0 0,0 0,0 0,0 0,0 0,0 c 0,0 0,0 0,-0.1 l 0,0 -2.6,0 0,0 c 0,0.1 -0.1,0.1 -0.1,0.1 l -0.1,0 -0.4,0 0,0.7 0,0 c 0,0.1 -0.1,0.1 -0.1,0.1 l -0.8,0 0,0 1.8,1.8 0,0 0,0 0,0 0,0 0,0 0,0 0,0 0,0 0,0 0,0 0,0 0,0 -0.5,0.4 0,0 -0.4,0.1 0.4,0.1 0,0 0.5,0.4 0,0 0,0 0,0 0,0 0,0 0,0 0,0 0,0 0,0 0,0 0,0 0,0 -1.8,1.8 0,0 3.8,0 c 0,0 0,0 0.1,0 l 0,0 0,0 0,0 0,0 0,0 0,0 0,0 0,0 0,0 0,0.4 c 0,0.1 -0.1,0.1 -0.1,0.1 l 0,0 0,0 -6.3,0 0,17.3 3.8,0 0,0 0,0 0.1,0.7 0,0 z"
       class="st6"
       inkscape:connector-curvature="0"
       style="fill:#cdcccc" /><path
       id="path7384"
       d="m 449.6,341.5 4.4,0 0,-0.1 -0.1,-0.1 c 0,-0.1 0.1,-0.1 0.1,-0.1 l 0.1,0 0.1,0 0.1,0 c 0.1,0 0.1,0.1 0.1,0.1 0,0.1 0,0.1 -0.1,0.1 l 0,0.1 33.6,0.1 0,-24.8 -10,0 0,0 c 0,0 0,0 -0.1,0 l 0,0 0,0 0,0 0,0 0,0 0,0 -2.6,0 0,0 0,0 0,0 0,0 0,0 0,0 c 0,0 0,0 -0.1,0 l -17.4,0 c 0,0 0,0 -0.1,0 l 0,0 0,0 0,0 0,0 0,0 0,0 -2.6,0 0,0 0,0 0,0 0,0 0,0 0,0 c 0,0 0,0 -0.1,0 l -0.1,0 0,0.4 c 0,0.1 -0.1,0.1 -0.1,0.1 l -2.3,0 c -0.1,0 -0.1,-0.1 -0.1,-0.1 l 0,-0.4 -2.1,0 -0.6,24.7 0,0 z"
       class="st6"
       inkscape:connector-curvature="0"
       style="fill:#cdcccc" /><path
       id="path7386"
       d="m 409.2,333 0,-3.5 -11.7,0 0,1.8 c 0,0.1 -0.1,0.1 -0.1,0.1 l 0,0 0,0 -2.3,0 0,1.7 14.1,-0.1 0,0 z"
       class="st6"
       inkscape:connector-curvature="0"
       style="fill:#cdcccc" /><path
       id="path7388"
       d="m 420.2,329.3 0,0 0,0 0,0 0,0 0,0 0,0 0,0 -0.1,4.9 0,0 0,-2.6 0,0 0,0 0,0 0,0 0,0 0,0 0,0 0,0 0,0 0,0 0.1,0 c 0,0 0,0 0.1,0 l 0.4,0 c 1.2,0.1 2.1,1.2 2.5,2.5 l 0,0 0,0.4 5.7,0 0,-4.8 -5.7,0 c 0,0 0,0 -0.1,0 l 0,0 0,0 0,0 0,0 0,0 0,0 -2.9,-0.4 c 0.1,0 0.1,0 0,0 l 0,0 z"
       class="st6"
       inkscape:connector-curvature="0"
       style="fill:#cdcccc" /><path
       id="path7390"
       d="m 666.9,193.9 -2.5,0 -3.8,0 -9.3,0 0,0.8 c 0,0 0,0 0,0.1 l 0,0 0,0 0,0 0,0 0,0 0,0 0,2.6 0,0 0,0 0,0 0,0 0,0 0,0 c 0,0 0,0 0,0.1 l 0,0.1 0.8,0 c 0,0 0,0 0.1,0 l 0,0 0,0 0,0 0,0 0,0 0,0 2.6,0 c 0,-0.1 0.1,-0.1 0.1,-0.1 l 0.7,0 c 0.1,0 0.1,0.1 0.1,0.1 l 0,0 0,9 9.9,0 0,-0.4 c 0.4,-1.2 1.4,-2.3 2.5,-2.5 l 0.5,0 0.1,0 0,0.1 0,2.6 0.8,0 0,-5.5 0,0 c 0,-0.1 0.1,-0.1 0.1,-0.1 l 0,-2.6 c -0.1,0 -0.1,-0.1 -0.1,-0.1 l 0,0 0,-0.7 0,0 c 0,-0.1 0.1,-0.1 0.1,-0.1 l 0,-2.6 c -0.1,0 -0.1,-0.1 -0.1,-0.1 l 0,-0.8 -0.1,0 c -0.1,0 -0.1,0 -0.1,-0.1 l -2.4,0.2 c 0.1,0 0.1,0 0,0 z"
       class="st6"
       inkscape:connector-curvature="0"
       style="fill:#cdcccc" /><path
       id="path7392"
       d="m 293.3,321.6 2.6,0 0,-12.3 -0.1,0 -0.2,0 -0.1,0 -0.1,0 -0.1,0 -0.1,0 -0.1,0 0.1,0 -0.1,0 -0.1,0 -0.5,0 -0.1,0 -0.2,0 -0.1,0 -0.1,0 -0.7,0 -0.1,0 -0.5,0 0,0 -0.1,0 -0.1,0 -0.4,0 -0.1,0 -0.1,0 -0.4,0 0,0.4 0,0.1 c 0,0.1 -0.1,0.1 -0.1,0.1 l 0,0 -0.2,0 0,0 c -0.1,0 -0.1,-0.1 -0.1,-0.1 l 0,-0.1 0,-0.4 -4.4,0 -0.1,0.1 0,0 -0.1,0 0,0 c -0.1,0 -0.1,0 -0.1,-0.1 l -0.7,0 -0.1,0 -0.1,0 -0.1,0 -0.1,0 -0.7,0 -0.4,0 -0.1,0 -0.4,0 -0.1,0 0.7,0 0,12.3 0.1,0 0,-2.6 0,0 0,0 0,0 0,0 0,0 0,0 0,0 0,0 0,0 0,0 0.1,0 c 0,0 0,0 0.1,0 l 0.4,0 c 1.2,0.4 2.3,1.2 2.5,2.5 l 0,0.4 3.4,0 2.4,-0.3 0,0 z"
       class="st6"
       inkscape:connector-curvature="0"
       style="fill:#cdcccc" /><path
       id="path7394"
       d="m 296.7,318.6 0,0 0,0 0,0 c 0,0 0.2,0 0,0 l 0,0 0,0 0,0 0.4,-0.1 c 0,0 0,0 0.1,0 l 0.4,0 c 1.2,0.1 2.3,1.2 2.5,2.5 l 0,0.4 2.9,0 5.1,0 0,-12.3 -1.9,0 -0.1,0.1 0,0 0,0 -0.1,0 0,0 c -0.1,0 -0.1,0 -0.1,-0.1 l 0,0 -0.4,0 -0.1,0 0,0 -0.1,0 -0.1,0 -0.1,0 -0.2,0 -0.1,0 -0.5,0 -0.1,0 -0.1,0 -0.2,0 -0.1,0 -0.1,0 -0.1,0 -0.5,0 -0.2,0 -0.1,0 -0.1,0 -0.1,0 -0.4,0 -0.3,0 0,0 0,0 -0.1,0 0,0 -0.1,0.1 0,0 0,0 -0.1,0 0,0 c -0.1,0 -0.1,0 -0.1,-0.1 l -4.5,0 0,12.3 -0.3,0 0,-2.6 0.1,0 -0.1,-0.2 0,0 z"
       class="st6"
       inkscape:connector-curvature="0"
       style="fill:#cdcccc" /><path
       id="path7396"
       d="m 639,207.2 3.4,0 0,-21.6 -0.4,0 -0.1,0 0,-0.1 0,-1 -3,0 -0.2,0 -3.8,0 -0.1,0 -3.8,0 0,0 0,0 -0.5,0 0,0 0,0 -3.6,0 -0.4,0 -2.8,0 0,1.7 c 0,0.1 -0.1,0.1 -0.1,0.1 l -0.4,0 0,20.9 12.5,0 c 0.1,0 0.1,0.1 0.1,0.1 l 2.6,0 c 0.4,0 0.4,-0.1 0.6,-0.1 z"
       class="st5"
       inkscape:connector-curvature="0"
       style="fill:#3a65b0" /><path
       id="path7398"
       d="m 655.2,201.4 0,0 0,0 0,0 0,0 c -0.3,0 -0.3,0 0,0 l 0,0 0,0 0,0 -0.7,0 c -1.2,-0.4 -2.3,-1.2 -2.5,-2.5 l 0,-0.4 -8.6,0 0,8.4 6.3,0 0.4,0 0.4,0 3,0 1.8,0 -0.1,-5.5 0,0 z"
       class="st6"
       inkscape:connector-curvature="0"
       style="fill:#cdcccc" /><path
       id="path7400"
       d="m 270.8,403 0,0 -8.6,-0.1 0,0 -3,0 0,0 0,0 0,0 -3,0 0,1.7 2.8,0 0,0 0,0 0,0 0,0 0,0 0,0 0,0 0,0 0,0 0,0 0,0 0,0 0,0.5 c -0.1,1.2 -1.2,2.1 -2.5,2.5 l 0,0 -0.4,0 0,4.4 14.7,0 0,-5.3 c 0,0.2 0,-3.7 0,-3.7 z"
       class="st6"
       inkscape:connector-curvature="0"
       style="fill:#cdcccc" /><path
       id="path7402"
       d="m 321.3,341.6 0,0 0,0 0.4,0 0,0 0.1,0 0,0 0.1,0 0,0 0.1,0 0,0 0.1,0 0,0 0.1,0 0,0 0.4,0 0,0 0.4,0 0,0 0.1,0 0,0 -0.4,0 0,0 0.2,0 0,0 0.1,0 0,0 0.1,0 0,0 0.5,0 0,0 0.1,0 0,0 0.4,0 0,0 0.1,0 0,0 0.1,0 0,0 0.1,0 0,0 -0.1,0 0,0 0.1,0 0,0 0.1,0 0,0 0.1,0 0,0 0.1,0 0,0 0,0 0,-0.4 0,-0.1 c 0,-0.1 0.1,-0.1 0.1,-0.1 l 0,0 0,0 0.1,0 0,0 0,0 c 0.1,0 0.1,0.1 0.1,0.1 l 0,0.1 0,0.4 5.1,0 0,0 0,0 0,0 c 0,0 0,0 0.1,0 l 0.1,0 0,0 0,0 c 0,0 0,0 0.1,0 l 0,0 0,0 0,0 0,0 0,0 0.4,0 0,0 0.4,0 0,0 0.4,0 0,0 0.4,0 0,0 0.1,0 0,0 0.1,0 0,0 0.1,0 0,-12.2 -0.1,0 0,2.6 0,0 0,0 0,0 0,0 0,0 0,0 0,0 0,0 c 0,0 0,0 -0.1,0 l 0,0 0,0 -0.1,0 c 0,0 0,0 -0.1,0 l -0.2,0 c -1.2,-0.4 -2.1,-1.2 -2.5,-2.5 l 0,-0.4 -8.4,0 c 0.5,0.2 0.5,12.5 0.5,12.5 z"
       class="st6"
       inkscape:connector-curvature="0"
       style="fill:#cdcccc" /><path
       id="path7404"
       d="m 333.7,341.6 0,0 0,0 0.4,0 0,0 0.1,0 0,0 0.1,0 0,0 0.1,0 0,0 0.1,0 0,0 0.4,0 0,0 0.1,0 0,0 0.1,0 0,0 -0.1,0 0,0 0,0 0,0 0,0 0,-0.4 -0.1,-0.1 c 0,-0.1 0.1,-0.1 0.1,-0.1 l 0.1,0 0,0 0.1,0 0,0 0.1,0 c 0.1,0 0.1,0.1 0.1,0.1 0,0.1 0,0.1 -0.1,0.1 l 0,0.4 4.7,0 0,0 0,0 0,0 c 0,0 0,0 0.1,0 l 0,0 0,0 0,0 c 0,0 0,0 0.1,0 l 0,0 0,0 0,0 0.1,0 0,0 0.4,0 0,0 0.4,0 0,0 0.4,0 0,0 0.4,0 0,0 0.4,0 0,0 0.4,0 0,0 0.4,0 0,0 0.4,0 0,0 0.4,0 0,0 0.1,0 0,0 0.1,0 0,0 0.1,0 0,0 0.1,0 0,0 0.1,0 0,0 0.1,0 0,0 0.1,0 0,0 0,0 0,-0.4 0,0 0,0 0,0 c 0,0 0,0 0,-0.1 l 0,0 0,-7.9 0,-2.8 0,-0.8 -0.1,0 0,2.6 0,0 0,0 0,0 0,0 0,0 0,0 0,0 0,0 c 0,0 0,0 -0.1,0 l 0,0 0,0 -0.1,0 c 0,0 0,0 -0.1,0 l -0.5,0 c -1.2,-0.4 -2.3,-1.2 -2.5,-2.5 l 0,-0.4 -8.1,0 0,12.2 0.6,0.1 0,0 z"
       class="st6"
       inkscape:connector-curvature="0"
       style="fill:#cdcccc" /><path
       id="path7406"
       d="m 368.7,334.2 3.8,0 0,-1.4 0,0 0,0 c 0,0 -0.1,0 -0.1,-0.1 l 0,-0.1 c 0,0 0,0 0,-0.1 l 0,-2.6 -3.6,0 c 0,0 0,0 -0.1,0 l -0.1,0 c 0,0 -0.1,0 -0.1,-0.1 l 0,-0.1 0,0 -2.5,0 0,4.7 0,0 c 0.1,0 0.1,0.1 0.1,0.1 l 0,0.1 0,0.5 c 0.4,1 1,1.9 2.1,2.1 l 0.4,0 0,-1.2 c 0,0 0,0 0,-0.1 l 0,0 0,0 0,-0.1 0,-0.1 0,-1 c 0,0 0,-0.1 0.1,-0.1 -0.2,-0.4 0,-0.4 0,-0.4 z"
       class="st6"
       inkscape:connector-curvature="0"
       style="fill:#cdcccc" /><path
       id="path7408"
       d="m 321.6,318.6 0,0 0,0 0,0 0,0 0,0 0,0 0,0 0.4,-0.1 c 0,0 0,0 0.1,0 l 0.4,0 c 1.2,0.4 2.3,1.2 2.5,2.5 l 0,0.4 1.2,0 6.7,0 2.5,0 0,-12.3 0,0 -0.1,0 -0.2,0 -0.1,0 -0.1,0 -0.5,0 -0.2,0 -0.2,0 -0.1,0 -0.1,0 -0.1,0 -0.1,0 -0.5,0 -0.1,0 -0.1,0 -0.1,0 -0.1,0 -0.1,0 -0.1,0 -0.1,0 -0.1,0 0,0 -0.3,0 0.1,0 0,0 0,0 -0.1,0 -0.8,0 c -0.1,0 -0.1,0 -0.1,-0.1 l -4.7,0 0,0.4 0,0.1 c 0,0.1 -0.1,0.1 -0.1,0.1 l 0,0 0,0 -0.6,0 0,0 0,0 c -0.1,0 -0.1,-0.1 -0.1,-0.1 l 0,0 0,0 -0.1,0 -0.4,0 -0.1,0 -0.2,0 -0.4,0 0.4,0 -0.1,0 -0.2,0 -0.1,0 -0.2,0 -0.1,0 -0.1,0 -0.3,0 -0.1,0 -0.5,0 -0.1,0 0,0 -0.8,0 -0.1,0 -0.1,0 -0.1,0 -0.2,0 -0.1,0 -0.1,0 -0.3,0 0,12.3 0.1,0 0.3,-3.2 0,0 0,0 0,0 z"
       class="st6"
       inkscape:connector-curvature="0"
       style="fill:#cdcccc" /><path
       id="path7410"
       d="m 352.1,321.6 0,0 c 0,0 0.1,0 0,0 l 0.8,-0.1 0,-0.4 0,0 c 0,0 0,-0.1 0.1,-0.1 l 0,0 0,0 0,0 0,-2.6 0,0 0,0 0,0 -0.1,-0.1 0,0 0,-9 0,0 -0.1,0 0,0 -0.1,0 -0.4,0 -0.1,0 -0.1,0 -0.1,0 -0.1,0 -0.2,0 -0.1,0 -0.1,0 0,0 -0.1,0 -0.1,0 0,0.4 0.1,0.1 c 0,0.1 -0.1,0.1 -0.1,0.1 l -0.1,0 0,0 -0.1,0 0,0 -0.1,0 c -0.1,0 -0.1,-0.1 -0.1,-0.1 0,-0.1 0,-0.1 0.1,-0.1 l 0,-0.4 -5.3,0 c 0,0 0,0 -0.1,0.1 0,0 0,0 -0.1,0 l 0,0 -0.1,0 0,0 c -0.1,0 -0.1,0 -0.1,-0.1 l -0.1,0 -0.1,0 -0.5,0 -0.1,0 -0.1,0 -0.2,0 -0.4,0 -0.1,0 0.7,0 -0.1,0 -0.1,0 -0.1,0 -0.1,0 -0.6,0 -0.1,0 -0.1,0 -0.1,0 -0.1,0 -0.1,0 -0.5,0 -0.2,0 -0.9,0 -0.1,0 -0.1,0 -0.1,0 -0.1,0 0,0.4 0.1,0.1 c 0,0.1 -0.1,0.1 -0.1,0.1 l 0,0 0,0 -0.1,0 0,0 0,0 c -0.1,0 -0.1,-0.1 -0.1,-0.1 l 0,-0.1 0,-0.1 -4.7,0 0,12.3 4.7,0 0,0 0.4,0 0,0 1.8,0 0,0 0,0 3.4,0 0,0 3.6,0 0,0 0,0 c 0.1,0 0.1,0.1 0.1,0.1 l 0,0.1 2.1,-0.5 0,0 0,0 z"
       class="st6"
       inkscape:connector-curvature="0"
       style="fill:#cdcccc" /><path
       id="path7412"
       d="m 259.3,402.1 0,0 0,0 0,0 3,0 0,0 8.6,0 0,-0.1 0,-3.8 0,-5.1 -14.7,0 0,1.4 2.8,0 0,0 0,0 0,0 0,0 0,0 0,0 0,0 0,0 0,0 0,0 0,0 0,0 0,0.5 c -0.4,1.2 -1.2,2.3 -2.5,2.5 l -0.3,0 0,4.3 3.1,0.3 0,0 z"
       class="st6"
       inkscape:connector-curvature="0"
       style="fill:#cdcccc" /><path
       id="path7414"
       d="m 277.3,321.1 0,0.4 6.1,0 0,0 0,0 0.4,0 0,-12.3 0,0 -0.1,0 -0.4,0 -0.2,0 -0.1,0 -0.1,0 -0.1,0 0,0 -0.1,0 -0.1,0 -0.6,0 -0.1,0 0,0.4 0.1,0.1 c 0,0.1 -0.1,0.1 -0.1,0.1 l -0.1,0 -0.1,0 -0.1,0 c -0.1,0 -0.1,-0.1 -0.1,-0.1 0,-0.1 0,-0.1 0.1,-0.1 l 0,-0.1 -4.5,0 -0.1,0.1 -0.4,0 -0.1,0 0,0 0,0 -0.1,0 -0.5,0 -0.4,0 -0.1,0 0.1,0 0,0 -0.1,0 -0.2,0 -0.7,0 0,9.3 0.5,0 c 0.9,-0.3 2,1 2.3,2.2 z"
       class="st6"
       inkscape:connector-curvature="0"
       style="fill:#cdcccc" /><path
       id="path7416"
       d="m 420.5,334.9 c 0,0.2 -0.2,0.2 0,0 l 0,0 -0.4,0.1 0,5.5 9,0 0,-5.5 -5.7,0 0,0 c -0.1,0 -0.1,-0.1 -0.1,-0.1 l 0,-0.1 -2.8,0.1 0,0 0,0 0,0 z"
       class="st6"
       inkscape:connector-curvature="0"
       style="fill:#cdcccc" /><path
       id="path7418"
       d="m 586.9,220.7 -16.4,0 c -0.1,0 -0.1,-0.1 -0.1,-0.1 l 0,0 -2.1,0 c 0,0.1 -0.1,0.1 -0.1,0.1 l -0.5,0 0,10.9 0,1 0,0.4 0,10.5 0.1,0 3.8,0 0.1,0 3.8,0 0.4,0 3.6,0 0.4,0 3,0 0,-1 0,0 c 0,-0.1 0.1,-0.1 0.1,-0.1 l 1.7,0 c 0.1,0 0.1,0.1 0.1,0.1 l 0,0 0,0.8 2.6,0 -0.5,-22.6 0,0 z"
       class="st5"
       inkscape:connector-curvature="0"
       style="fill:#3a65b0" /><path
       id="path7420"
       d="m 256.3,352.9 14.7,0 0,-6.7 0,-2.5 -14.7,0 0,0.7 2.8,0 0.1,0 0,0.1 0,0.7 c -0.4,1.2 -1.2,2.1 -2.5,2.5 l -0.4,0 0,0.5 0,0 0,4.7 0,0 z"
       class="st6"
       inkscape:connector-curvature="0"
       style="fill:#cdcccc" /><path
       id="path7422"
       d="m 270.8,372.5 0,-5.1 0,-3.8 0,-0.1 -14.6,0 0,1.7 2.8,0 0,0 0,0 0,0 0,0 0,0 0,0 0,0 0,0 0,0 0,0 0,0 0,0 0,0.5 c -0.1,1 -1.2,2.3 -2.5,2.5 l -0.3,0 0,4.3 14.6,0 0,0 z"
       class="st6"
       inkscape:connector-curvature="0"
       style="fill:#cdcccc" /><path
       id="path7424"
       d="m 315.9,321.6 4.7,0 0,-12.3 -4.4,0 c 0,0 0,0 -0.1,0.1 0,0 0,0 -0.1,0 l -0.4,0 c -0.1,0 -0.1,0 -0.1,-0.1 l -0.2,0 -0.1,0 -0.1,0 -0.1,0 -0.1,0 -0.6,0 -0.1,0 -0.4,0 -0.1,0 0.5,0 -0.1,0 -0.1,0 -0.1,0 -0.1,0 -0.1,0 -0.5,0 -0.1,0 -0.1,0 -0.1,0 -0.1,0 0.1,0 -0.1,0 -0.1,0 -0.1,0 -0.1,0 0,0 0,0.4 0,0.1 c 0,0.1 -0.1,0.1 -0.1,0.1 l 0,0 0,0 -0.1,0 0,0 0,0 -0.1,0 c -0.1,0 -0.1,-0.1 -0.1,-0.1 0,-0.1 0,-0.1 0.1,-0.1 l 0,-0.4 -2.3,0 0,12.3 0.1,0 0,-2.6 0,0 0,0 0,0 0,0 0,0 0,0 0,0 0,0 0,0 0,0 0.1,0 c 0,0 0,0 0.1,0 l 0.4,0 c 1.2,0.4 2.1,1 2.5,2.5 l 0,0 0,0.4 0.5,0 2.3,-0.3 0,0 z"
       class="st6"
       inkscape:connector-curvature="0"
       style="fill:#cdcccc" /><path
       id="path7426"
       d="m 670.6,222 0,0 c 0,-0.1 0,-0.1 0,0 l 0,-1.7 -0.4,0 -20.2,0 c -0.1,0 -0.1,-0.1 -0.1,-0.1 l 0,0 -2.6,0 c 0,0.1 -0.1,0.1 -0.1,0.1 l -3.8,0 0,7.8 0.1,0 c 0,0 0,0 0.1,0 0,0 0,0 0.1,0 0.1,0 0.1,0.1 0.1,0.1 l 0,6 c 0,0.1 -0.1,0.1 -0.1,0.1 0,0 0,0 -0.1,0 0,0 0,0 -0.1,0 l -0.1,0 0,7.8 0.4,0 c 0.1,0 0.1,0.1 0.1,0.1 l 0,0.8 2.8,0 0.4,0 3.8,0 0.1,0 3.8,0 0.1,0 3.8,0 0.1,0 3,0 0,-0.8 c 0,-0.1 0.1,-0.1 0.1,-0.1 l 1.7,0 c 0.1,0 0.1,0.1 0.1,0.1 l 0,0.8 2.8,0 0,0 0,0 0,0 0,0 0,0 0,0 0,0 c 0,0 0,0 0.1,0 l 4.1,0 -0.1,-21 0,0 0,0 z"
       class="st5"
       inkscape:connector-curvature="0"
       style="fill:#3a65b0" /><path
       id="path7428"
       d="m 270.8,392.1 0,-5.1 0,-3.8 0,0 -14.6,0 0,1.7 2.8,0 0,0 0,0 0,0 0,0 0,0 0,0 0,0 0,0 0,0 0,0 0,0 0,0 0,0.5 c -0.1,1.2 -1.2,2.3 -2.5,2.5 l -0.3,0 0,4.3 14.6,-0.1 0,0 z"
       class="st6"
       inkscape:connector-curvature="0"
       style="fill:#cdcccc" /><path
       id="path7430"
       d="m 419.5,340.8 0,-8.1 0,0 0,0 -0.7,0 c -1.2,-0.4 -2.1,-1.2 -2.5,-2.5 l 0,-0.5 -5.5,0 0,11 8.7,0.1 0,0 z"
       class="st6"
       inkscape:connector-curvature="0"
       style="fill:#cdcccc" /><path
       id="path7432"
       d="m 270.8,382.2 0,0 0,-4.1 0,-5.1 -14.6,0 0,1.4 2.8,0 0,0 0,0 0,0 0,0 0,0 0,0 0,0 0,0 0,0 0,0 0,0 0,0 0,0.7 c -0.1,1 -1.4,2.3 -2.5,2.5 l -0.3,0 0,4.3 14.6,0.3 0,0 z"
       class="st6"
       inkscape:connector-curvature="0"
       style="fill:#cdcccc" /><path
       id="path7434"
       d="m 218.1,394 0,18.3 23.1,0 0,-11.7 c 0,-0.1 0.1,-0.1 0.1,-0.1 l 0,0 7.9,0 0,0 -2.5,0 0,0 0,0 0,0 0,0 0,0 0,0 0,0 0,0 0,0 0,0 0,0 0,-0.1 c 0,0 0,0 0,-0.1 l 0,-0.4 c 0.4,-1.2 1.2,-2.3 2.5,-2.5 l 0.4,0 0,-2.6 -31.5,-0.8 0,0 z"
       class="st6"
       inkscape:connector-curvature="0"
       style="fill:#cdcccc" /><path
       id="path7436"
       d="m 237.2,377.3 11.7,0 0,-7.9 0,-0.8 -0.4,0 0,0 c -1.2,-0.4 -2.3,-1.4 -2.5,-2.5 l 0,-0.5 0,-0.1 -9,0 0,11.9 0.2,-0.1 0,0 0,0 z"
       class="st6"
       inkscape:connector-curvature="0"
       style="fill:#cdcccc" /><path
       id="path7438"
       d="m 236.5,377.3 0,-9.1 0,0 0,0 c 0,0 0,0 -0.1,0 l 0,0 0,0 0,0 0,0 -0.5,0 c -1.2,-0.4 -2.3,-1.2 -2.5,-2.5 l 0,-0.4 -15.3,0 0,11.9 18.4,0.1 0,0 z"
       class="st6"
       inkscape:connector-curvature="0"
       style="fill:#cdcccc" /><path
       id="path7440"
       d="m 218.1,345.5 0,19.3 13.4,0 0,-0.4 -2.6,0 0,0 0,0 0,0 0,0 0,0 0,0 0,0 0,0 0,0 0,0 0,0 0,0 0,0 0,-0.7 0,0 c 0.4,-1.4 1,-2.1 2.5,-2.5 l 0,0 0.2,0 0,-15.5 -13.5,-0.2 0,0 z"
       class="st6"
       inkscape:connector-curvature="0"
       style="fill:#cdcccc" /><path
       id="path7442"
       d="m 241,345.5 -9,0 0,14 5.6,0 0,-0.4 0,0 c 0.4,-1.4 1.2,-2.1 2.5,-2.5 l 0,0 0.5,0 0.1,0 0,0.1 0,2.6 0.4,0 C 241,359.4 241,345.5 241,345.5 Z"
       class="st6"
       inkscape:connector-curvature="0"
       style="fill:#cdcccc" /><path
       id="path7444"
       d="m 246.3,378.7 0,-0.5 0,-0.1 -28.2,0 0,15.2 31.3,0 0,-10 c 0,0 0,0 0,-0.1 l 0,-0.4 0,0 0,-1.2 -0.4,0 c -1.4,-0.5 -2.3,-1.7 -2.7,-2.9 z"
       class="st6"
       inkscape:connector-curvature="0"
       style="fill:#cdcccc" /><path
       id="path7446"
       d="m 574.9,190.7 0,0.5 0,0.1 8.1,0 0,-6 -0.4,0 0,0 c -0.1,0 -0.1,-0.1 -0.1,-0.1 l 0,0 0,-0.8 -3,0 -0.1,0 -3.6,0 -0.4,0 -3.5,0 0,3.8 c 1.2,0 2.7,1.2 3,2.5 z"
       class="st6"
       inkscape:connector-curvature="0"
       style="fill:#cdcccc" /><path
       id="path7448"
       d="m 242.5,318.9 0,2.1 7.8,0 0,-8.4 -7.8,0 0,3.4 0,0 c 0,0.1 -0.1,0.1 -0.1,0.1 l 0,0 -0.4,0 -0.5,0 0,0 0,2.5 0.5,0 c 0.1,0 0.1,0 0.1,0.1 l 0.4,0.2 0,0 c -0.1,-0.2 0,-0.2 0,0 z"
       class="st6"
       inkscape:connector-curvature="0"
       style="fill:#cdcccc" /><path
       id="path7450"
       d="m 519.4,223.1 0,0 0,0 0,0 0,0 0,0 0,0 -0.1,2.3 4.4,0 c 0.1,0 0.1,0.1 0.1,0.1 l 0,0 0,0.4 c 0,0.1 -0.1,0.1 -0.1,0.1 l -3.1,0 0,17.3 9.9,0 0,-17.3 -2.6,0 -0.1,0 0,-0.1 0,-0.4 0,-5.5 -2.3,0 0,0 -1.7,0 0,0 -0.8,0 0,0.4 c -0.1,1 -1.4,2.3 -2.5,2.5 l -1.1,0.2 0,0 0,0 0,0 z"
       class="st6"
       inkscape:connector-curvature="0"
       style="fill:#cdcccc" /><path
       id="path7452"
       d="m 509.5,392.8 0,1 1.2,0 0,-0.4 c 0.4,-1.2 1.2,-2.1 2.5,-2.5 l 0.7,0 0,0 0,0 0,0 0,0 0,0 0,0 0,0 0,0 0,0 0,0 0,0 0,0 0,3.1 0,0 4.7,0 0,0 0,0 -4.1,0 c -0.1,0 -0.1,-0.1 -0.1,-0.1 l 0,-7.8 -0.1,0 0,7.8 c 0,0.1 -0.1,0.1 -0.1,0.1 -0.1,0 -0.1,-0.1 -0.1,-0.1 l 0,-7.8 -1.7,0 c -0.1,0 -0.1,-0.1 -0.1,-0.1 l 0,-0.4 c 0,-0.1 0.1,-0.1 0.1,-0.1 l 1.4,0 0,-2.6 -1.2,0 c -0.1,0 -0.1,-0.1 -0.1,-0.1 l 0,-0.1 -2.8,0 0,3 0,0 c 0.1,0 0.1,0.1 0.1,0.1 l 0,0.4 c 0,0.1 -0.1,0.1 -0.1,0.1 l 0,0 0,1 c 0,0.1 -0.1,0.1 -0.1,0.1 l 0,0 -0.1,0.1 -0.5,0 0,0 0,5.1 0.5,0 c -0.1,0 0,0.2 0,0.2 z"
       class="st6"
       inkscape:connector-curvature="0"
       style="fill:#cdcccc" /><path
       id="path7454"
       d="m 364.7,309.4 0,0 -0.4,0 -0.1,0 -0.1,0 -0.1,0 -0.1,0 -0.1,0 -0.1,0 0,0 -0.1,0 -0.1,0 -0.1,0 -0.2,0 -0.1,0 -0.1,0 -0.1,0 -0.1,0 -0.1,0 -0.1,0 -0.1,0 0.1,0 0,0 -0.1,0 -0.3,0 0,0.4 0,0.1 c 0,0.1 -0.1,0.1 -0.1,0.1 l 0,0 0,0 -0.1,0 0,0 0,0 c -0.1,0 -0.1,-0.1 -0.1,-0.1 l 0,-0.1 0,-0.4 -4.4,0 c 0,0 0,0 -0.1,0.1 0,0 0,0 -0.1,0 l -0.1,0 c -0.1,0 -0.1,0 -0.1,-0.1 l -0.1,0 -0.1,0 -0.1,0 -0.1,0 -0.1,0 -0.1,0 -1.8,0 -1,0 0,2.1 0,0.1 0,4.7 0,0.1 0,1.8 0.4,0 c 1.2,0.1 2.3,1.2 2.5,2.5 l 0,0.4 c 0,0 0,0 0,0.1 l 0,0.1 0,0 0,0 0,0 0,0 0,0 0,0 0,0 0,0 0,0 0,0 0,0 -2.6,0 0,0.1 3.1,0 6.9,0 0.8,0 -0.1,-12 0,0 z"
       class="st6"
       inkscape:connector-curvature="0"
       style="fill:#cdcccc" /><path
       id="path7456"
       d="m 382.9,330.6 -3.1,0 c 0,0 0,0 -0.1,0.1 l 0,0.1 c 0,0 0,0 -0.1,0.1 l -0.1,0 0,0 c 0,0 0,0 -0.1,0 l 0,0 0,0 0,0 -3.7,0 0,0.8 0,0 0,1.7 0,0 0,0 0,0 0,0 0,0.1 -0.1,0.1 0,0 0,0 0,1.4 4.4,0 0,-0.4 0,0 c 0.4,-1.2 1.4,-2.3 2.5,-2.5 l 0.4,0 c 0,0 0,0 0.1,0 l 0.1,0 0,0 0,0 -0.2,-1.5 0,0 z"
       class="st6"
       inkscape:connector-curvature="0"
       style="fill:#cdcccc" /><path
       id="path7458"
       d="m 311.3,329.4 -2.5,0 0,12.2 1.9,0 0,-0.4 -0.1,-0.1 c 0,-0.1 0.1,-0.1 0.1,-0.1 l 0.1,0 0,0 0.1,0 0,0 0,0 c 0.1,0 0.1,0.1 0.1,0.1 l 0,0.1 0,0.4 0.1,0 0,0 0.4,0 0,0 0.1,0 0,0 0.1,0 0,0 0.1,0 0,0 0.1,0 0,0 -0.1,0 0,0 0.1,0 0,0 0.1,0 0,0 0.1,0 0,0 0.7,0 0,0 0.1,0 0,0 0.1,0 0,0 0.1,0 0,0 0.1,0 0,0 0.1,0 0,0 0.8,0 0,0 0.1,0 0,0 0.1,0 0,0 0.1,0 0,0 0.6,0 0,0 0.1,0 0,0 0.1,0 0,0 0.1,0 0,0 0.1,0 0,0 0.1,0 0,0 0,0 0,0 c 0,0 0,0 0.1,0 l 0,0 -0.7,0 0,0 c 0,0 0,0 0.1,0 l 0,0 0,0 0,0 4.4,0 0,-12.2 -0.1,0 0,2.6 0,0 0,0 0,0 0,0 0,0 0,0 0,0 0,0 c 0,0 0,0 -0.1,0 l 0,0 0,0 0,0 c 0,0 0,0 -0.1,0 l -0.4,0 c -1.2,-0.1 -2.1,-1.2 -2.5,-2.5 l 0,-0.4 -1,0 -3.9,0.3 0,0 z"
       class="st6"
       inkscape:connector-curvature="0"
       style="fill:#cdcccc" /><path
       id="path7460"
       d="m 346,330.3 0,3 0,7.9 c 0,0 0,0 0,0.1 l 0,0 0,0 0,0 0,0.4 4.7,0 0,0 0,0 0,0 c 0,0 0,0 0.1,0 l 0,0 0.1,0 0,0 c 0,0 0,0 0.1,0 l 0,0 0,0 0,0 0,0 0,0 0.1,0 0,0 0.1,0 0,0 0.1,0 0,0 0.1,0 0,0 0.1,0 0,0 0.1,0 0,0 0.1,0 0,0 0.1,0 0,0 0.1,0 0,0 0.1,0 0,0 0,0 0,0 0.4,0 0,0 0.4,0 0,0 0.4,0 0,0 0.4,0 0,0 0.4,0 0,0 0.4,0 0,0 0.1,0 0,0 0,0 0,0 0,0 c 0,0 0,0 0.1,0 l 0.1,0 c 0,0 0,0 0.1,0 l 0,0 0,0 0,0 4.4,0 0,-0.4 0,0 0,0 0,-3.4 -1.7,0 0,0 0,0 0,0 c 0,0 0,0 -0.1,0 l 0,0 0,0 c 0,0 0,0 -0.1,0 l 0,-0.1 0,0 0,0 0,0 0,0 0,-1.7 0,0 0,0 0,0 0,0 0,0 0.1,-0.1 0,0 0,0 0,0 0,0 1.7,0 0,0 0,-6.3 -1.1,0 -3,0 -5.7,0 0,0.4 c -0.4,1.4 -1.2,2.3 -2.5,2.5 l -0.3,0 c 0,0 0,0 -0.1,0 l -0.1,0 0,0 0,0 c 0,0 0,0 -0.1,0 l 0,0 0,0 0,0 0,0 0,0 0,0 0,0 0,0 0,-2.6 -0.1,0 0,0.7 0,0 0,-0.4 -0.1,0 0,0 z"
       class="st6"
       inkscape:connector-curvature="0"
       style="fill:#cdcccc" /><path
       id="path7462"
       d="m 571.9,195.9 0.4,0 c 1.2,0.4 2.1,1.2 2.5,2.5 l 0,0.5 0,0 0,0 0,0 0,0 0,0 0,0 0,0 0,0 8.3,0 0,-7.3 -11,0 -0.2,4.3 0,0 z"
       class="st6"
       inkscape:connector-curvature="0"
       style="fill:#cdcccc" /><path
       id="path7464"
       d="m 360.9,341.2 11.6,0 0,-3.1 -1.4,0 C 371,338.1 371,338 371,338 l 0,0 c 0,-0.1 0.1,-0.1 0.1,-0.1 l 1.4,0 0,-2.8 -3.6,0 0,2.6 0,0 0,0 0,0 0,0 0,0 0,0 0,0 0,0 c 0,0 0,0 -0.1,0 l 0,0 0,0 0,0 0,0 -0.4,0 c -1.4,-0.4 -2.1,-1.2 -2.5,-2.5 l 0,-0.4 -0.2,0 c -0.1,0 -0.1,-0.1 -0.1,-0.1 l 0,-4.9 -1.1,0 0,0.4 c -0.4,1.4 -1.2,2.3 -2.5,2.5 l -0.5,0 0,0 -0.1,0 -0.5,8.5 0,0 z"
       class="st6"
       inkscape:connector-curvature="0"
       style="fill:#cdcccc" /><path
       id="path7466"
       d="m 284.2,329.4 0,12.2 0.1,0 0,0 0.1,0 0,0 0.1,0 0,0 0.1,0 0,0 0.1,0 0,0 0.1,0 0,0 0.5,0 0,0 0.1,0 0,0 0.1,0 0,0 0.1,0 0,0 0.1,0 0,0 0,0 0,0 0,0 0,0 c 0,0 0,0 0.1,0 l 0,0 -0.4,0 0,0 c 0,0 0,0 0.1,0 l 0,0 0,0 0,0 4.7,0 0,-0.4 0,-0.1 c 0,-0.1 0.1,-0.1 0.1,-0.1 l 0,0 0,0 0,0 0.1,0 0,0 0,0 0,0 c 0.1,0 0.1,0.1 0.1,0.1 l 0,0.1 0,0.4 0.1,0 0,0 -0.1,0 0,0 0.1,0 0,0 0.1,0 0,0 0.6,0 0,0 0.1,0 0,0 0.1,0 0,0 0.1,0 0,0 0.1,0 0,0 0.4,0 0,0 1.7,0 0,0 0.4,0 0,0 0.1,0 0,0 0.4,0 0,0 0.4,0 0,0 0.4,0 0,0 0.4,0 0,-12.2 -0.1,0 0,2.6 0,0 0,0 0,0 0,0 0,0 0,0 0,0 0,0 c 0,0 0,0 -0.1,0 l 0,0 0,0 -0.1,0 c 0,0 0,0 -0.1,0 l -0.4,0 c -1.2,-0.4 -2.1,-1.2 -2.5,-2.5 l 0,-0.4 -2.4,0 -6,0.3 0,0 z"
       class="st6"
       inkscape:connector-curvature="0"
       style="fill:#cdcccc" /><path
       id="path7468"
       d="m 296.5,341.6 4.4,0 0,-0.4 -0.1,-0.1 c 0,-0.1 0.1,-0.1 0.1,-0.1 l 0.1,0 0,0 0.1,0 0,0 0.1,0 c 0.1,0 0.1,0.1 0.1,0.1 0,0.1 0,0.1 -0.1,0.1 l 0,0.4 0.1,0 0,0 0.4,0 0,0 0.1,0 0,0 0.4,0 0,0 0.1,0 0,0 0.1,0 0,0 0.1,0 0,0 0.4,0 0,0 0.1,0 0,0 0.1,0 0,0 0.1,0 0,0 0.1,0 0,0 0.1,0 0,0 -0.4,0 0,0 0,0 0,0 0.1,0 0,0 0.1,0 0,0 0.1,0 0,0 0.4,0 0,0 0.4,0 0,0 0.5,0 0,0 0.4,0 0,0 0,0 0,0 c 0,0 0,0 0.1,0 l 0,0 0.1,0 0,0 c 0,0 0,0 0.1,0 l 0,0 0,0 0,0 1.9,0 0,-12.2 0.5,0 0,2.6 0,0 0,0 0,0 0,0 0,0 0,0 0,0 0,0 c 0,0 0,0 -0.1,0 l 0,0 0,0 -0.1,0 c 0,0 0,0 -0.1,0 l -0.4,0 c -1.2,-0.4 -2.1,-1.2 -2.5,-2.5 l 0,0 0,-0.4 -8,0 0,12.5 -0.1,-0.1 0.1,0.1 0,0 z"
       class="st6"
       inkscape:connector-curvature="0"
       style="fill:#cdcccc" /><path
       id="path7470"
       d="m 510.9,394.6 0,0 0,0 c 0,0.4 -0.1,0.4 -0.1,0.4 l 0,0 -1.2,0 0,9.6 11,0 c 0.1,0 0.1,0 0.1,0.1 l 2.6,0 c 0,-0.1 0.1,-0.1 0.1,-0.1 l 0.1,0 0,-1.4 c 0,-0.1 0,-0.1 0.1,-0.1 l 0,-2.6 c -0.1,0 -0.1,-0.1 -0.1,-0.1 l 0,-0.7 c 0,-0.1 0.1,-0.1 0.1,-0.1 l 1.8,0 0,-4.4 0,0 0,2.6 0,0 0,0 0,0 0,0 0,0 0,0 0,0 0,0 c 0,0 0,0 -0.1,0 l 0,0 0,0 0,0 0,0 -0.5,0 0,0 c -1.4,-0.4 -2.3,-1.2 -2.5,-2.5 l 0,-0.4 -0.7,0 c -0.1,0 -0.1,-0.1 -0.1,-0.1 l 0,-0.1 0,0 -2.6,0 0,0 0,0.1 c 0,0.1 -0.1,0.1 -0.1,0.1 l -4.9,0 c -0.1,0 -0.1,-0.1 -0.1,-0.1 l 0,-0.1 0,0 -2.9,-0.1 0,0 z"
       class="st6"
       inkscape:connector-curvature="0"
       style="fill:#cdcccc" /><path
       id="path7472"
       d="m 521.4,394 c 0,0 0.3,0 0,0 l 0,0 0.1,-7.5 -6.5,0 0,7.4 3.6,0 c 0.1,0 0.1,0.1 0.1,0.1 l 0,0 2.7,0 0,0 0,0 z"
       class="st6"
       inkscape:connector-curvature="0"
       style="fill:#cdcccc" /><path
       id="path7474"
       d="m 246.1,328.2 c 0,0 0.2,0 0,0 l 1.4,-0.1 0,0 0,0 0,0 0,-1.7 0,0 0,0 0,-0.1 c 0,0 0,-0.1 0.1,-0.1 l 0.1,0 0,0 0,0 1.4,0 0,0 0,0 0.1,0 c 0,0 0.1,0 0.1,0.1 l 0,0.1 0,0 0,0 0,1.7 0,0 0,0 0,0 1.1,0 0,-2.6 -0.2,0 c -0.1,0 -0.1,-0.1 -0.1,-0.1 l 0,-3.4 -7.9,0 0,6.9 0.1,0 0,-2.8 0,-0.1 0.1,0 0.5,0 c 1.2,0.4 2.3,1.2 2.5,2.5 l 0,0.4 0.4,0 0.3,-0.7 0,0 z"
       class="st6"
       inkscape:connector-curvature="0"
       style="fill:#cdcccc" /><path
       id="path7476"
       d="m 249.3,351.8 0,-3 0,0 0,-6 -7.4,0 0,16.5 7.4,0 0,0 -2.8,0 0,0 0,0 0,0 0,0 0,0 0,0 0,0 0,0 0,0 0,0 0,0 0,0 0,0 0,-0.5 c 0.4,-1.2 1.2,-2.3 2.5,-2.5 l 0.4,0 -0.1,-4.5 0,0 z"
       class="st6"
       inkscape:connector-curvature="0"
       style="fill:#cdcccc" /><path
       id="path7478"
       d="m 239,319.3 0,0 0,0 0,0 c -0.1,0 -0.1,0 0,0 l 0,0 c -0.1,0 -0.1,0 0,0 -0.1,0 -0.1,0 0,0 l 0,0 0,0 0,0 0,0 -0.1,-0.4 0,0 0,-0.4 0,0 c 0.4,-1.2 1,-2.1 2.1,-2.5 l 0,-6.9 -22.9,0 0,35.3 22.9,0 0,-3.5 -2.6,0 0,0 0,0 0,0 0,0 0,0 0,0 0,0 0,0 0,0 0,0 0,0 0,0 0,0 0,-0.5 c 0.4,-1.2 1.2,-2.3 2.5,-2.5 l 0.4,0 0,-18.6 -2.3,0 0,0 z"
       class="st6"
       inkscape:connector-curvature="0"
       style="fill:#cdcccc" /><path
       id="path7480"
       d="m 382.4,329.9 -9.2,0 0,0.1 0,0.1 1.4,0 0,0 0,0 0.4,0 7.4,0 0,-0.2 0,0 0,0 z"
       class="st6"
       inkscape:connector-curvature="0"
       style="fill:#cdcccc" /><path
       id="path7482"
       d="m 374.4,340.8 0,0 c 0.1,0 0.4,0 0.4,0.1 l 0,-10 -0.4,0 0,9.9 0,0 z"
       class="st6"
       inkscape:connector-curvature="0"
       style="fill:#cdcccc" /><path
       id="path7484"
       d="m 488.9,306.7 0,34.9 -217.2,0 0,71.7 -55.2,0 0,-71.7 -1.7,0 0,-34.9 274.1,0 m 2.7,-2.9 -2.7,0 -273.9,0 -2.9,0 0,2.6 0,34.9 0,2.6 1.8,0 0,69.1 0,2.6 2.6,0 55.2,0 2.6,0 0,-2.6 0,-69.1 214.4,0 2.6,0 0,-2.6 0,-34.9 0.3,-2.6 0,0 z"
       class="st7"
       inkscape:connector-curvature="0"
       style="fill:#989798" /><path
       id="path7486"
       d="m 682.1,182.3 0,62.6 -146.2,0 0,62.6 -28.3,0 0,-123.4 0.8,0 0,-1.7 173.7,-0.1 m 2.7,-2.9 -2.6,0 -173.7,0 -2.6,0 0,1.7 -0.8,0 0,2.6 0,123.5 0,2.6 2.6,0 28.3,0 2.6,0 0,-2.6 0,-59.8 143.4,0 2.6,0 0,-2.6 0,-62.6 0.2,-2.8 0,0 z"
       class="st7"
       inkscape:connector-curvature="0"
       style="fill:#989798" /><path
       id="path7488"
       d="m 536.5,343.4 0,72.7 -29.3,0 0,-72.7 29.3,0 m 2.7,-2.6 -2.6,0 -29.2,0 -2.6,0 0,2.6 0,72.7 0,2.6 2.6,0 29.2,0 2.6,0 0,-2.6 0,-72.7 0,-2.6 0,0 z"
       class="st7"
       inkscape:connector-curvature="0"
       style="fill:#989798" /><g
       id="g7490"
       class="st0"
       style="enable-background:new"><path
         id="path7492"
         d="m 590.8,194.5 -0.5,0 0,-0.4 c 0.2,-0.1 0.5,-0.2 0.7,-0.5 l 0.4,0 0,3.6 -0.5,0 0,-2.7 -0.1,0 z"
         class="st2"
         inkscape:connector-curvature="0"
         style="fill:#ffffff" /><path
         id="path7494"
         d="m 593,194.5 -0.5,0 0,-0.4 c 0.2,-0.1 0.5,-0.2 0.7,-0.5 l 0.4,0 0,3.6 -0.5,0 0,-2.7 -0.1,0 z"
         class="st2"
         inkscape:connector-curvature="0"
         style="fill:#ffffff" /><path
         id="path7496"
         d="m 594.6,197.4 0,-0.5 c 0.7,-1.1 1.2,-1.8 1.2,-2.3 0,-0.2 -0.1,-0.4 -0.2,-0.4 -0.2,0 -0.2,0.1 -0.2,0.4 l 0,0.2 -0.6,0 0,-0.1 c 0,-0.5 0.4,-1 0.8,-1 0.5,0 0.8,0.4 0.8,0.7 0,0.6 -0.1,1 -1.1,2.4 l 1.1,0 0,0.5 -1.8,0.1 0,0 z"
         class="st2"
         inkscape:connector-curvature="0"
         style="fill:#ffffff" /><path
         id="path7498"
         d="m 597.5,196.2 0,0.2 c 0,0.2 0.1,0.4 0.2,0.4 0.1,0 0.2,-0.1 0.2,-0.4 l 0,-0.2 c 0,-0.4 -0.1,-0.5 -0.5,-0.5 l 0,-0.5 c 0.4,0 0.5,-0.1 0.5,-0.5 0,-0.4 -0.1,-0.5 -0.2,-0.5 -0.1,0 -0.2,0.1 -0.2,0.4 l 0,0.1 -0.5,0 0,-0.1 c 0,-0.5 0.2,-0.8 0.8,-0.8 0.5,0 0.7,0.5 0.7,0.8 0,0.4 -0.1,0.6 -0.4,0.8 0.4,0.2 0.5,0.4 0.5,0.8 0,0.7 -0.2,1 -0.8,1 -0.5,0 -0.8,-0.2 -0.8,-0.8 l 0,-0.2 0.5,0 0,0 z"
         class="st2"
         inkscape:connector-curvature="0"
         style="fill:#ffffff" /></g><g
       id="g7500"
       class="st0"
       style="enable-background:new"><path
         id="path7502"
         d="m 609.5,194.5 -0.5,0 0,-0.4 c 0.2,-0.1 0.5,-0.2 0.7,-0.5 l 0.4,0 0,3.6 -0.5,0 0,-2.7 -0.1,0 z"
         class="st2"
         inkscape:connector-curvature="0"
         style="fill:#ffffff" /><path
         id="path7504"
         d="m 611.8,194.5 -0.5,0 0,-0.4 c 0.2,-0.1 0.5,-0.2 0.7,-0.5 l 0.4,0 0,3.6 -0.5,0 0,-2.7 -0.1,0 z"
         class="st2"
         inkscape:connector-curvature="0"
         style="fill:#ffffff" /><path
         id="path7506"
         d="m 613.5,197.4 0,-0.5 c 0.7,-1.1 1.2,-1.8 1.2,-2.3 0,-0.2 -0.1,-0.4 -0.2,-0.4 -0.2,0 -0.2,0.1 -0.2,0.4 l 0,0.2 -0.6,0 0,-0.1 c 0,-0.5 0.4,-1 0.8,-1 0.5,0 0.8,0.4 0.8,0.7 0,0.6 -0.1,1 -1.1,2.4 l 1.1,0 0,0.5 -1.8,0.1 0,0 z"
         class="st2"
         inkscape:connector-curvature="0"
         style="fill:#ffffff" /><path
         id="path7508"
         d="m 615.7,194.3 0,-0.5 1.7,0 0,0.4 -0.7,3.2 -0.6,0 0.7,-3.1 -1.1,0 z"
         class="st2"
         inkscape:connector-curvature="0"
         style="fill:#ffffff" /></g><g
       id="g7510"
       class="st0"
       style="enable-background:new"><path
         id="path7512"
         d="m 628.5,194.5 -0.5,0 0,-0.4 c 0.2,-0.1 0.5,-0.2 0.7,-0.5 l 0.4,0 0,3.6 -0.5,0 0,-2.7 -0.1,0 z"
         class="st2"
         inkscape:connector-curvature="0"
         style="fill:#ffffff" /><path
         id="path7514"
         d="m 630.6,194.5 -0.5,0 0,-0.4 c 0.2,-0.1 0.5,-0.2 0.7,-0.5 l 0.4,0 0,3.6 -0.5,0 0,-2.7 -0.1,0 z"
         class="st2"
         inkscape:connector-curvature="0"
         style="fill:#ffffff" /><path
         id="path7516"
         d="m 632.7,196.2 0,0.2 c 0,0.2 0.1,0.4 0.2,0.4 0.1,0 0.2,-0.1 0.2,-0.4 l 0,-0.2 c 0,-0.4 -0.1,-0.5 -0.5,-0.5 l 0,-0.5 c 0.4,0 0.5,-0.1 0.5,-0.5 0,-0.4 -0.1,-0.5 -0.2,-0.5 -0.1,0 -0.2,0.1 -0.2,0.4 l 0,0.1 -0.5,0 0,-0.1 c 0,-0.5 0.2,-0.8 0.8,-0.8 0.5,0 0.7,0.5 0.7,0.8 0,0.4 -0.1,0.6 -0.4,0.8 0.4,0.2 0.5,0.4 0.5,0.8 0,0.7 -0.2,1 -0.8,1 -0.5,0 -0.8,-0.2 -0.8,-0.8 l 0,-0.2 0.5,0 0,0 z"
         class="st2"
         inkscape:connector-curvature="0"
         style="fill:#ffffff" /><path
         id="path7518"
         d="m 635,196.2 0,0.2 c 0,0.2 0.1,0.4 0.2,0.4 0.1,0 0.2,-0.1 0.2,-0.4 l 0,-0.2 c 0,-0.4 -0.1,-0.5 -0.5,-0.5 l 0,-0.5 c 0.4,0 0.5,-0.1 0.5,-0.5 0,-0.4 -0.1,-0.5 -0.2,-0.5 -0.1,0 -0.2,0.1 -0.2,0.4 l 0,0.1 -0.5,0 0,-0.1 c 0,-0.5 0.2,-0.8 0.8,-0.8 0.5,0 0.7,0.5 0.7,0.8 0,0.4 -0.1,0.6 -0.4,0.8 0.4,0.2 0.5,0.4 0.5,0.8 0,0.7 -0.2,1 -0.8,1 -0.5,0 -0.8,-0.2 -0.8,-0.8 l 0,-0.2 0.5,0 0,0 z"
         class="st2"
         inkscape:connector-curvature="0"
         style="fill:#ffffff" /></g><g
       id="g7520"
       class="st0"
       style="enable-background:new"><path
         id="path7522"
         d="m 611.3,231.7 -0.5,0 0,-0.4 c 0.2,-0.1 0.5,-0.2 0.7,-0.5 l 0.4,0 0,3.6 -0.5,0 0,-2.8 -0.1,0 0,0.1 0,0 z"
         class="st2"
         inkscape:connector-curvature="0"
         style="fill:#ffffff" /><path
         id="path7524"
         d="m 613.5,231.7 -0.5,0 0,-0.4 c 0.2,-0.1 0.5,-0.2 0.7,-0.5 l 0.4,0 0,3.6 -0.5,0 0,-2.8 -0.1,0 0,0.1 0,0 z"
         class="st2"
         inkscape:connector-curvature="0"
         style="fill:#ffffff" /><path
         id="path7526"
         d="m 615,234.5 0,-0.5 c 0.7,-1.1 1.2,-1.8 1.2,-2.3 0,-0.2 -0.1,-0.4 -0.2,-0.4 -0.2,0 -0.2,0.1 -0.2,0.4 l 0,0.2 -0.6,0 0,-0.1 c 0,-0.5 0.4,-1 0.8,-1 0.4,0 0.8,0.4 0.8,0.7 0,0.6 -0.1,1 -1.1,2.4 l 1.1,0 0,0.5 -1.8,0.1 0,0 z"
         class="st2"
         inkscape:connector-curvature="0"
         style="fill:#ffffff" /><path
         id="path7528"
         d="m 618.5,231.8 0,0 c 0,-0.3 -0.1,-0.5 -0.2,-0.5 -0.1,0 -0.2,0.1 -0.2,0.4 l 0,0.8 c 0.1,-0.1 0.2,-0.2 0.5,-0.2 0.4,0 0.6,0.2 0.6,0.7 l 0,0.4 c 0,0.7 -0.2,1.1 -0.8,1.1 -0.6,0 -0.8,-0.2 -0.8,-1 l 0,-1.8 c 0,-0.6 0.2,-1 0.8,-1 0.5,0 0.7,0.4 0.7,0.7 l 0,0.2 -0.6,0.2 0,0 z m -0.6,1.9 c 0,0.2 0.1,0.4 0.2,0.4 0.1,0 0.2,-0.1 0.2,-0.4 l 0,-0.6 c 0,-0.2 -0.1,-0.4 -0.2,-0.4 -0.1,0 -0.2,0.1 -0.4,0.1 l 0,0.8 0.2,0.1 0,0 z"
         class="st2"
         inkscape:connector-curvature="0"
         style="fill:#ffffff" /></g><g
       id="g7530"
       class="st0"
       style="enable-background:new"><path
         id="path7532"
         d="m 574.3,231.7 -0.5,0 0,-0.4 c 0.2,-0.1 0.5,-0.2 0.7,-0.5 l 0.4,0 0,3.6 -0.5,0 0,-2.8 -0.1,0 0,0.1 0,0 z"
         class="st2"
         inkscape:connector-curvature="0"
         style="fill:#ffffff" /><path
         id="path7534"
         d="m 576.5,231.7 -0.5,0 0,-0.4 c 0.2,-0.1 0.5,-0.2 0.7,-0.5 l 0.4,0 0,3.6 -0.5,0 0,-2.8 -0.1,0 0,0.1 0,0 z"
         class="st2"
         inkscape:connector-curvature="0"
         style="fill:#ffffff" /><path
         id="path7536"
         d="m 578.8,231.7 -0.6,0 0,-0.4 c 0.2,-0.1 0.5,-0.2 0.7,-0.5 l 0.4,0 0,3.6 -0.5,0 0,-2.8 -0.1,0 0.1,0.1 0,0 z"
         class="st2"
         inkscape:connector-curvature="0"
         style="fill:#ffffff" /><path
         id="path7538"
         d="m 581.4,231.8 0,0 c 0,-0.3 -0.1,-0.5 -0.2,-0.5 -0.1,0 -0.2,0.1 -0.2,0.4 l 0,0.8 c 0.1,-0.1 0.2,-0.2 0.5,-0.2 0.4,0 0.6,0.2 0.6,0.7 l 0,0.4 c 0,0.7 -0.2,1.1 -0.8,1.1 -0.6,0 -0.8,-0.2 -0.8,-1 l 0,-1.8 c 0,-0.6 0.2,-1 0.8,-1 0.5,0 0.7,0.4 0.7,0.7 l 0,0.2 -0.6,0.2 0,0 z m -0.5,1.9 c 0,0.2 0.1,0.4 0.2,0.4 0.1,0 0.2,-0.1 0.2,-0.4 l 0,-0.6 c 0,-0.2 -0.1,-0.4 -0.2,-0.4 -0.1,0 -0.2,0.1 -0.4,0.1 l 0,0.8 0.2,0.1 0,0 z"
         class="st2"
         inkscape:connector-curvature="0"
         style="fill:#ffffff" /></g><g
       id="g7540"
       class="st0"
       style="enable-background:new"><path
         id="path7542"
         d="m 517.4,268.4 -0.5,0 0,-0.4 c 0.2,-0.1 0.5,-0.2 0.7,-0.5 l 0.4,0 0,3.6 -0.5,0 0,-2.8 -0.1,0 0,0.1 0,0 z"
         class="st2"
         inkscape:connector-curvature="0"
         style="fill:#ffffff" /><path
         id="path7544"
         d="m 519.1,271.2 0,-0.5 c 0.7,-1.1 1.2,-1.8 1.2,-2.3 0,-0.2 -0.1,-0.4 -0.2,-0.4 -0.2,0 -0.2,0.1 -0.2,0.4 l 0,0.2 -0.6,0 0,-0.1 c 0,-0.5 0.4,-1 0.8,-1 0.4,0 0.8,0.4 0.8,0.7 0,0.6 -0.1,1 -1.1,2.4 l 1.1,0 0,0.5 -1.8,0.1 0,0 z"
         class="st2"
         inkscape:connector-curvature="0"
         style="fill:#ffffff" /><path
         id="path7546"
         d="m 521.3,268.6 c 0,-0.6 0.2,-1 0.8,-1 0.6,0 0.8,0.2 0.8,1 l 0,1.8 c 0,0.6 -0.2,1 -0.8,1 -0.6,0 -0.8,-0.2 -0.8,-1 l 0,-1.8 z m 1.1,-0.2 c 0,-0.2 -0.1,-0.4 -0.2,-0.4 -0.1,0 -0.2,0.1 -0.2,0.4 l 0,2 c 0,0.2 0.1,0.4 0.2,0.4 0.1,0 0.2,-0.1 0.2,-0.4 l 0,-2 z"
         class="st2"
         inkscape:connector-curvature="0"
         style="fill:#ffffff" /><path
         id="path7548"
         d="m 523.9,269.3 c -0.2,-0.1 -0.4,-0.5 -0.4,-0.7 0,-0.7 0.4,-1 0.8,-1 0.5,0 0.8,0.4 0.8,1 0,0.2 -0.1,0.5 -0.4,0.7 0.2,0.2 0.4,0.5 0.4,0.8 0,0.6 -0.2,1 -0.8,1 -0.6,0 -0.8,-0.4 -0.8,-1 0.1,-0.4 0.1,-0.6 0.4,-0.8 z m 0.8,1 c 0,-0.4 -0.1,-0.6 -0.4,-0.6 -0.2,0 -0.4,0.2 -0.4,0.6 0,0.4 0.1,0.6 0.4,0.6 0.3,0 0.4,-0.3 0.4,-0.6 z m 0,-1.7 c 0,-0.4 -0.1,-0.5 -0.2,-0.5 -0.1,0 -0.2,0.1 -0.2,0.5 0,0.4 0.1,0.5 0.2,0.5 0.1,0 0.2,-0.3 0.2,-0.5 z"
         class="st2"
         inkscape:connector-curvature="0"
         style="fill:#ffffff" /></g><g
       id="g7550"
       class="st0"
       style="enable-background:new"><path
         id="path7552"
         d="m 517.4,358.5 -0.5,0 0,-0.4 c 0.2,-0.1 0.5,-0.2 0.7,-0.5 l 0.4,0 0,3.6 -0.5,0 0,-2.8 -0.1,0 0,0.1 0,0 z"
         class="st2"
         inkscape:connector-curvature="0"
         style="fill:#ffffff" /><path
         id="path7554"
         d="m 519.1,361.4 0,-0.5 c 0.7,-1.1 1.2,-1.8 1.2,-2.3 0,-0.2 -0.1,-0.4 -0.2,-0.4 -0.2,0 -0.2,0.1 -0.2,0.4 l 0,0.2 -0.6,0 0,-0.1 c 0,-0.5 0.4,-1 0.8,-1 0.4,0 0.8,0.4 0.8,0.7 0,0.6 -0.1,1 -1.1,2.4 l 1.1,0 0,0.5 -1.8,0.1 0,0 z"
         class="st2"
         inkscape:connector-curvature="0"
         style="fill:#ffffff" /><path
         id="path7556"
         d="m 521.9,358.5 -0.5,0 0,-0.4 c 0.2,-0.1 0.5,-0.2 0.7,-0.5 l 0.4,0 0,3.6 -0.5,0 0,-2.8 -0.1,0 0,0.1 0,0 z"
         class="st2"
         inkscape:connector-curvature="0"
         style="fill:#ffffff" /><path
         id="path7558"
         d="m 523.5,361.4 0,-0.5 c 0.7,-1.1 1.2,-1.8 1.2,-2.3 0,-0.2 -0.1,-0.4 -0.2,-0.4 -0.2,0 -0.2,0.1 -0.2,0.4 l 0,0.2 -0.6,0 0,-0.1 c 0,-0.5 0.4,-1 0.8,-1 0.4,0 0.8,0.4 0.8,0.7 0,0.6 -0.1,1 -1.1,2.4 l 1.1,0 0,0.5 -1.8,0.1 0,0 z"
         class="st2"
         inkscape:connector-curvature="0"
         style="fill:#ffffff" /></g><g
       id="g7560"
       class="st0"
       style="enable-background:new"><path
         id="path7562"
         d="m 593.6,231.7 -0.5,0 0,-0.4 c 0.2,-0.1 0.5,-0.2 0.7,-0.5 l 0.4,0 0,3.6 -0.5,0 0,-2.8 -0.1,0 0,0.1 0,0 z"
         class="st2"
         inkscape:connector-curvature="0"
         style="fill:#ffffff" /><path
         id="path7564"
         d="m 595.9,231.7 -0.5,0 0,-0.4 c 0.2,-0.1 0.5,-0.2 0.7,-0.5 l 0.4,0 0,3.6 -0.5,0 0,-2.8 -0.1,0 0,0.1 0,0 z"
         class="st2"
         inkscape:connector-curvature="0"
         style="fill:#ffffff" /><path
         id="path7566"
         d="m 597.5,234.5 0,-0.5 c 0.7,-1.1 1.2,-1.8 1.2,-2.3 0,-0.2 -0.1,-0.4 -0.2,-0.4 -0.2,0 -0.2,0.1 -0.2,0.4 l 0,0.2 -0.6,0 0,-0.1 c 0,-0.5 0.4,-1 0.8,-1 0.4,0 0.8,0.4 0.8,0.7 0,0.6 -0.1,1 -1.1,2.4 l 1.1,0 0,0.5 -1.8,0.1 0,0 z"
         class="st2"
         inkscape:connector-curvature="0"
         style="fill:#ffffff" /><path
         id="path7568"
         d="m 599.7,234.5 0,-0.5 c 0.7,-1.1 1.2,-1.8 1.2,-2.3 0,-0.2 -0.1,-0.4 -0.2,-0.4 -0.2,0 -0.2,0.1 -0.2,0.4 l 0,0.2 -0.6,0 0,-0.1 c 0,-0.5 0.4,-1 0.8,-1 0.5,0 0.8,0.4 0.8,0.7 0,0.6 -0.1,1 -1.1,2.4 l 1.1,0 0,0.5 -1.8,0.1 0,0 z"
         class="st2"
         inkscape:connector-curvature="0"
         style="fill:#ffffff" /></g><g
       id="g7570"
       class="st0"
       style="enable-background:new"><path
         id="path7572"
         d="m 630.1,231.7 -0.5,0 0,-0.4 c 0.2,-0.1 0.5,-0.2 0.7,-0.5 l 0.4,0 0,3.6 -0.5,0 0,-2.8 -0.1,0 0,0.1 0,0 z"
         class="st2"
         inkscape:connector-curvature="0"
         style="fill:#ffffff" /><path
         id="path7574"
         d="m 632.4,231.7 -0.5,0 0,-0.4 c 0.2,-0.1 0.5,-0.2 0.7,-0.5 l 0.4,0 0,3.6 -0.6,0 0,-2.7 0,0 z"
         class="st2"
         inkscape:connector-curvature="0"
         style="fill:#ffffff" /><path
         id="path7576"
         d="m 634.5,233.5 0,0.2 c 0,0.2 0.1,0.4 0.2,0.4 0.1,0 0.2,-0.1 0.2,-0.4 l 0,-0.2 c 0,-0.4 -0.1,-0.5 -0.5,-0.5 l 0,-0.5 c 0.4,0 0.5,-0.1 0.5,-0.5 0,-0.4 -0.1,-0.5 -0.2,-0.5 -0.1,0 -0.2,0.1 -0.2,0.4 l 0,0.1 -0.5,0 0,-0.1 c 0,-0.5 0.2,-0.8 0.8,-0.8 0.5,0 0.7,0.5 0.7,0.8 0,0.3 -0.1,0.6 -0.4,0.8 0.4,0.2 0.5,0.4 0.5,0.8 0,0.7 -0.2,1 -0.8,1 -0.5,0 -0.8,-0.2 -0.8,-0.8 l 0,-0.2 0.5,0 0,0 z"
         class="st2"
         inkscape:connector-curvature="0"
         style="fill:#ffffff" /><path
         id="path7578"
         d="m 636.2,234.5 0,-0.5 c 0.7,-1.1 1.2,-1.8 1.2,-2.3 0,-0.2 -0.1,-0.4 -0.2,-0.4 -0.2,0 -0.2,0.1 -0.2,0.4 l 0,0.2 -0.7,0 0,-0.1 c 0,-0.5 0.4,-1 0.8,-1 0.4,0 0.8,0.4 0.8,0.7 0,0.6 -0.1,1 -1.1,2.4 l 1.1,0 0,0.5 -1.7,0.1 0,0 z"
         class="st2"
         inkscape:connector-curvature="0"
         style="fill:#ffffff" /></g><g
       id="g7580"
       class="st0"
       style="enable-background:new"><path
         id="path7582"
         d="m 651.6,231.7 -0.5,0 0,-0.4 c 0.2,-0.1 0.5,-0.2 0.7,-0.5 l 0.4,0 0,3.6 -0.5,0 0,-2.8 -0.1,0 0,0.1 0,0 z"
         class="st2"
         inkscape:connector-curvature="0"
         style="fill:#ffffff" /><path
         id="path7584"
         d="m 653.9,231.7 -0.5,0 0,-0.4 c 0.2,-0.1 0.5,-0.2 0.7,-0.5 l 0.4,0 0,3.6 -0.5,0 0,-2.8 -0.1,0 0,0.1 0,0 z"
         class="st2"
         inkscape:connector-curvature="0"
         style="fill:#ffffff" /><path
         id="path7586"
         d="m 656,233.5 0,0.2 c 0,0.2 0.1,0.4 0.2,0.4 0.1,0 0.2,-0.1 0.2,-0.4 l 0,-0.2 c 0,-0.4 -0.1,-0.5 -0.5,-0.5 l 0,-0.5 c 0.4,0 0.5,-0.1 0.5,-0.5 0,-0.4 -0.1,-0.5 -0.2,-0.5 -0.1,0 -0.2,0.1 -0.2,0.4 l 0,0.1 -0.5,0 0,-0.1 c 0,-0.5 0.2,-0.8 0.8,-0.8 0.5,0 0.7,0.5 0.7,0.8 0,0.3 -0.1,0.6 -0.4,0.8 0.4,0.2 0.5,0.4 0.5,0.8 0,0.7 -0.2,1 -0.8,1 -0.5,0 -0.8,-0.2 -0.8,-0.8 l 0,-0.2 0.5,0 0,0 z"
         class="st2"
         inkscape:connector-curvature="0"
         style="fill:#ffffff" /><path
         id="path7588"
         d="m 658.9,231.8 0,0 c 0,-0.3 -0.1,-0.5 -0.2,-0.5 -0.1,0 -0.2,0.1 -0.2,0.4 l 0,0.8 c 0.1,-0.1 0.2,-0.2 0.5,-0.2 0.4,0 0.6,0.2 0.6,0.7 l 0,0.4 c 0,0.7 -0.2,1.1 -0.8,1.1 -0.6,0 -0.8,-0.2 -0.8,-1 l 0,-1.8 c 0,-0.6 0.2,-1 0.8,-1 0.5,0 0.7,0.4 0.7,0.7 l 0,0.2 -0.6,0.2 0,0 z m -0.6,1.9 c 0,0.2 0.1,0.4 0.2,0.4 0.1,0 0.2,-0.1 0.2,-0.4 l 0,-0.6 c 0,-0.2 -0.1,-0.4 -0.2,-0.4 -0.1,0 -0.2,0.1 -0.4,0.1 l 0,0.8 0.2,0.1 0,0 z"
         class="st2"
         inkscape:connector-curvature="0"
         style="fill:#ffffff" /></g><rect
       id="rect7590"
       height="10.4"
       width="6.9000001"
       class="st2"
       y="210.39999"
       x="678.90002"
       style="fill:#ffffff" /><polygon
       id="polygon7592"
       points="687.7,213.9 687.7,217.2 684.8,215.7 "
       class="st8"
       style="fill:#4c6eb5" /><rect
       id="rect7594"
       height="10.4"
       width="6.9000001"
       class="st2"
       y="210.3"
       x="502.70001"
       style="fill:#ffffff" /><polygon
       id="polygon7596"
       points="500.5,216.9 500.5,213.4 503.4,215.2 "
       class="st8"
       style="fill:#4c6eb5" /><rect
       id="rect7598"
       height="2.0999999"
       width="6.9000001"
       class="st2"
       y="246"
       x="503.89999"
       style="fill:#ffffff" /><polygon
       id="polygon7600"
       points="500.5,248.7 500.5,245.5 503.4,247.2 "
       class="st8"
       style="fill:#4c6eb5" /><rect
       id="rect7602"
       height="6.9000001"
       width="2.0999999"
       class="st2"
       y="305.70001"
       x="512.20001"
       style="fill:#ffffff" /><polygon
       id="polygon7604"
       points="515.1,315.9 511.8,315.9 513.6,313.1 "
       class="st8"
       style="fill:#4c6eb5" /><rect
       id="rect7606"
       height="2.0999999"
       width="6.9000001"
       class="st2"
       y="326.29999"
       x="486.39999"
       style="fill:#ffffff" /><polygon
       id="polygon7608"
       points="496.5,325.9 496.6,329.1 493.7,327.5 "
       class="st8"
       style="fill:#4c6eb5" /><rect
       id="rect7610"
       height="2.0999999"
       width="6.9000001"
       class="st2"
       y="352.20001"
       x="500.5"
       style="fill:#ffffff" /><polygon
       id="polygon7612"
       points="497.3,355 497.3,351.7 500.3,353.2 "
       class="st8"
       style="fill:#4c6eb5" /><rect
       id="rect7614"
       height="2.0999999"
       width="6.9000001"
       class="st2"
       y="380.39999"
       x="500.5"
       style="fill:#ffffff" /><polygon
       id="polygon7616"
       points="497.3,383.1 497.3,379.8 500.3,381.6 "
       class="st8"
       style="fill:#4c6eb5" /><g
       id="g7618"><path
         id="path7620"
         d="m 542.1,230.7 c -0.4,0 -0.5,-0.4 -0.5,-0.5 0,-0.4 0.4,-0.5 0.5,-0.5 0.1,0 0.5,0.4 0.5,0.5 0,0 -0.4,0.5 -0.5,0.5 z"
         class="st8"
         inkscape:connector-curvature="0"
         style="fill:#4c6eb5" /><path
         id="path7622"
         d="m 542.2,230.8 c 0.5,0 0.8,0.4 0.8,0.7 l 0.4,1.7 c 0,0.1 0,0.4 -0.1,0.4 -0.1,0 -0.4,0 -0.4,-0.1 l -0.1,-1.4 c 0,-0.1 -0.1,-0.1 -0.1,-0.1 -0.1,0 -0.1,0.1 0,0.1 l 0.8,2.6 -0.8,0 c 0,1 0,1.9 0,1.9 0,0.4 -0.1,0.4 -0.4,0.4 0,0 -0.4,0 -0.4,-0.4 0,-0.4 0,-1.9 0,-1.9 0,-0.1 0,-0.1 -0.1,-0.1 -0.1,0 -0.1,0 -0.1,0.1 0,0 0,1.7 0,1.9 0,0.2 -0.1,0.4 -0.4,0.4 0,0 -0.4,0 -0.4,-0.4 0,0 0,-0.8 0,-1.9 l -0.8,0 0.8,-2.6 c 0,-0.1 0,-0.1 0,-0.1 -0.1,0 -0.1,0 -0.1,0.1 l -0.4,1.7 c 0,0.1 -0.1,0.1 -0.4,0.1 -0.1,0 -0.1,-0.1 -0.1,-0.4 l 0.4,-1.7 c 0.1,-0.4 0.4,-0.7 0.8,-0.7 l 1.2,0 0,-0.2 -0.1,-0.1 0,0 z"
         class="st8"
         inkscape:connector-curvature="0"
         style="fill:#4c6eb5" /></g><g
       id="g7624"><path
         id="path7626"
         d="m 525.6,230.4 c -0.4,0 -0.7,-0.4 -0.7,-0.7 0,-0.4 0.4,-0.7 0.7,-0.7 0.4,0 0.7,0.4 0.7,0.7 0.2,0.4 -0.2,0.7 -0.7,0.7 z"
         class="st8"
         inkscape:connector-curvature="0"
         style="fill:#4c6eb5" /></g><path
       id="path7628"
       d="m 524.8,231.9 0,1.4 c 0,0.4 -0.1,0.4 -0.4,0.4 -0.2,0 -0.4,0 -0.4,-0.4 l 0,-1.7 c 0,-0.8 0.4,-0.8 0.8,-0.8 l 1,0 c 0.7,0 0.8,0.1 0.8,0.8 l 0,1.7 c 0,0.4 -0.1,0.4 -0.4,0.4 -0.2,0 -0.4,0 -0.4,-0.4 l 0,-1.4 c 0,-0.1 -0.1,-0.1 -0.1,-0.1 0,0 -0.1,0 -0.1,0.1 0,0.1 0,4.4 0,4.4 0,0.4 -0.4,0.4 -0.4,0.4 -0.1,0 -0.4,0 -0.4,-0.4 0,-0.4 0,-2.6 0,-2.6 0,0 0,-0.1 -0.1,-0.1 0,0 -0.1,0 -0.1,0.1 0,0 0,2.3 0,2.6 0,0.4 -0.4,0.4 -0.4,0.4 -0.1,0 -0.4,0 -0.4,-0.4 1,0.1 1,-4.3 1,-4.4 l 0,0 0,0 z"
       class="st8"
       inkscape:connector-curvature="0"
       style="fill:#4c6eb5" /><rect
       id="rect7630"
       height="3"
       width="5.5999999"
       class="st2"
       y="413.5"
       x="241.5"
       style="fill:#ffffff" /></g></svg>