<?xml version="1.0" encoding="utf-8"?>
<!-- Generator: Adobe Illustrator 19.1.0, SVG Export Plug-In . SVG Version: 6.00 Build 0)  -->
<svg version="1.1" id="Layer_1" xmlns="http://www.w3.org/2000/svg" xmlns:xlink="http://www.w3.org/1999/xlink" x="0px" y="0px"
	 viewBox="0 0 900 600" style="enable-background:new 0 0 900 600;" xml:space="preserve">
<style type="text/css">
	.st0{enable-background:new    ;}
	.st1{fill:#989898;}
	.st2{fill:#FFFFFF;}
	.st3{opacity:0.6;fill:#4B6DB4;enable-background:new    ;}
	.st4{fill:#CDCCCC;}
	.st5{fill:#3A65B0;}
	.st6{fill:#989798;}
	.st7{fill:#4C6EB5;}
	.st8{fill:none;}
	.st9{opacity:0.5;}
	.st10{opacity:0.5;fill:#989798;enable-background:new    ;}
</style>
<g class="st0">
	<path class="st1" d="M215.1,57.9v-5h0.8v4.3h1.4v0.7H215.1z"/>
	<path class="st1" d="M220.1,56.1h-1.7v0.5c0,0.4,0.1,0.6,0.4,0.6c0.2,0,0.4-0.1,0.4-0.6v-0.2h0.7c0,0.7-0.4,1.4-1.2,1.4
		c-0.8,0-1.2-0.6-1.2-1.4v-1c0-0.8,0.4-1.4,1.2-1.4c0.8,0,1.2,0.6,1.2,1.4v0.7H220.1z M219.3,55.5v-0.2c0-0.4-0.1-0.6-0.4-0.6
		c-0.2,0-0.4,0.1-0.4,0.6v0.2H219.3z"/>
	<path class="st1" d="M222.3,54.1h0.7l-0.8,3.7h-0.7l-0.8-3.7h0.7l0.5,2.5l0,0L222.3,54.1z"/>
	<path class="st1" d="M226,56.1h-1.7v0.5c0,0.4,0.1,0.6,0.4,0.6c0.2,0,0.4-0.1,0.4-0.6v-0.2h0.7c0,0.7-0.4,1.4-1.2,1.4
		c-0.8,0-1.2-0.6-1.2-1.4v-1c0-0.8,0.4-1.4,1.2-1.4c0.8,0,1.2,0.6,1.2,1.4v0.7H226z M225.1,55.5v-0.2c0-0.4-0.1-0.6-0.4-0.6
		c-0.2,0-0.4,0.1-0.4,0.6v0.2H225.1z"/>
	<path class="st1" d="M226.6,57.9v-5h0.7v5H226.6z"/>
</g>
<circle class="st1" cx="242.5" cy="56.7" r="11.7"/>
<g class="st0">
	<path class="st2" d="M237.7,53c0-3,1.1-4.4,3.8-4.4s3.8,1.4,3.8,4.4v7.8c0,3-1.1,4.4-3.8,4.4c-2.8,0-3.8-1.4-3.8-4.4
		C237.7,60.7,237.7,53,237.7,53z M242.9,52.4c0-1-0.5-1.5-1.2-1.5c-0.8,0-1.2,0.5-1.2,1.5v9.1c0,1,0.5,1.5,1.2,1.5
		c0.8,0,1.2-0.5,1.2-1.5V52.4z"/>
</g>
<rect x="382.1" y="379.4" class="st3" width="5.3" height="0.8"/>
<rect x="382.1" y="377.9" class="st3" width="5.3" height="0.8"/>
<rect x="382.1" y="376.2" class="st3" width="5.3" height="0.8"/>
<rect x="382.1" y="374.9" class="st3" width="5.3" height="0.8"/>
<rect x="382.1" y="373.1" class="st3" width="5.3" height="0.8"/>
<rect x="382.1" y="371.7" class="st3" width="5.3" height="0.8"/>
<rect x="382.1" y="370.1" class="st3" width="5.3" height="0.8"/>
<rect x="382.1" y="387.4" class="st3" width="5.3" height="0.8"/>
<rect x="382.1" y="386.1" class="st3" width="5.3" height="0.8"/>
<rect x="382.1" y="384.4" class="st3" width="5.3" height="0.8"/>
<rect x="382.1" y="382.8" class="st3" width="5.3" height="0.8"/>
<rect x="382.1" y="381.2" class="st3" width="5.3" height="0.8"/>
<rect x="388.4" y="379.4" class="st3" width="5.3" height="0.8"/>
<rect x="388.4" y="377.9" class="st3" width="5.3" height="0.8"/>
<rect x="388.4" y="376.2" class="st3" width="5.3" height="0.8"/>
<rect x="388.4" y="374.9" class="st3" width="5.3" height="0.8"/>
<rect x="388.4" y="373.1" class="st3" width="5.3" height="0.8"/>
<rect x="388.4" y="371.7" class="st3" width="5.3" height="0.8"/>
<rect x="388.4" y="370.1" class="st3" width="5.3" height="0.8"/>
<rect x="388.2" y="387.4" class="st3" width="5.3" height="0.8"/>
<rect x="388.2" y="386.1" class="st3" width="5.3" height="0.8"/>
<rect x="388.2" y="384.4" class="st3" width="5.3" height="0.8"/>
<rect x="388.2" y="382.8" class="st3" width="5.3" height="0.8"/>
<rect x="388.2" y="381.2" class="st3" width="5.3" height="0.8"/>
<path class="st4" d="M446.6,164.3L446.6,164.3L446.6,164.3C446.4,164.3,446.4,164.3,446.6,164.3L446.6,164.3L446.6,164.3
	L446.6,164.3L446.6,164.3L446.6,164.3C446.4,164.3,446.4,164.3,446.6,164.3L446.6,164.3L446.6,164.3L446.6,164.3L446.6,164.3
	L446.6,164.3L446.6,164.3L446.6,164.3L446.6,164.3L446.6,164.3L446.6,164.3L446.6,164.3L446.6,164.3L446.6,164.3L446.6,164.3
	L446.6,164.3L446.6,164.3L446.6,164.3L446.6,164.3L446.6,164.3L446.6,164.3L446.6,164.3L446.6,164.3L446.6,164.3L446.6,164.3
	L446.6,164.3L446.6,164.3L446.6,164.3L446.6,164.3L446.6,164.3c-0.1-0.1-0.1-0.1-0.1-0.4l0,0l0,0l0.4-3.5h-0.4v2.8l0,0l0,0l0,0l0,0
	l0,0l0,0l0,0c0,0,0,0,0,0.1c0,0,0,0-0.1,0l0,0l0,0l0,0l0,0l0,0l0,0h-0.7l0,0l-0.5-0.1l0,0l-0.5-0.4l0,0l-0.4-0.4l0,0l-0.4-0.5l0,0
	l-0.4-0.5l0,0l-0.1-0.7l0,0v-0.4l-7.5-0.7v8.7l0,0l0,0c0,0,0.1,0,0.1,0.1v0.1l-0.4,2.1l-0.4,1.8l9.6,1.7l0.7-3.8l0,0l0,0l0,0l0,0
	l0,0l0,0l0,0l0,0l0,0l0,0l0,0l0,0l0,0l0,0l0,0l0,0l0,0l0,0l0,0l0,0l0,0l0,0l0,0l0,0l0,0l0,0l0,0l0,0l0,0l0,0l0,0l0,0l0,0l0,0l0,0
	l0,0l0,0l0,0l0,0l0,0l0,0l0,0h0.4l0.4-2.8l0,0l0,0l0,0l0,0l0,0l0,0l0,0l0,0l0,0l0,0l0,0c0,0,0,0,0.1,0l0,0L446.6,164.3z"/>
<path class="st4" d="M446.9,159.1l0.1-2.6h-0.1l0,0l0,0l0,0l0,0l0,0l0,0l0,0l0,0l0,0l0,0l0,0l0,0l0,0l0,0v-15.8h-1.7v2.8l0,0l0,0
	l0,0l0,0c0,0,0,0,0,0.1l0,0l0,0c0,0,0,0-0.1,0s0,0,0,0l0,0l0,0h-0.5l0,0l-0.7-0.4l0,0l-0.5-0.4l0,0l-0.4-0.4l0,0l-0.4-0.4l-0.4-0.5
	l0,0l-0.1-0.5l0,0v-0.2h-6.3h-0.1v18.4l1.4,0.1c0,0,0,0,0.1,0h0.1l2.6,0.4l2.1,0.1c0,0,0,0,0.1,0c0,0,0,0,0.1,0h0.7h0.5l0,0l0,0l0,0
	l0,0l0,0l0,0l0,0l0,0l0,0l0,0l0,0l0,0l0,0l0,0l0,0l0,0l0,0l0,0l0,0l2.6,0.1l0,0l0,0l0,0l0,0l0,0l0,0l0,0l0,0l0,0l0,0l0,0l0,0l0,0
	l0,0l0,0l0,0l0,0l0,0l0,0h0.4v-0.4l0,0l0,0l0,0l0,0l0,0l0,0l0,0l0,0l0,0l0,0l0,0l0,0l0,0l0,0l0,0l0,0l0,0l0,0l0,0l0,0l0,0l0,0l0,0
	l0,0l0,0l0,0l0,0C446.9,159.4,446.9,159.1,446.9,159.1L446.9,159.1L446.9,159.1z"/>
<path class="st4" d="M346.3,305.2c-0.1,0.1-0.1,0.1-0.4,0l-0.8-0.8H343l-0.8,0.8c-0.1,0.1-0.1,0.1-0.4,0l-0.8-0.8h-2.1l-0.8,0.8
	c-0.1,0.1-0.1,0.1-0.4,0l-0.8-0.8h-2.1v12.3h0.8l0.7-0.7c0.1-0.1,0.1-0.1,0.4,0l0.7,0.7h2.1l0.7-0.7c0.1-0.1,0.1-0.1,0.4,0l0.7,0.7
	h2.1l0.7-0.7c0.1-0.1,0.1-0.1,0.4,0l0.7,0.7h2.1l0.7-0.7c0.1-0.1,0.1-0.1,0.4,0l0.7,0.7h2.1l0.7-0.7c0.1-0.1,0.1-0.1,0.4,0l0.7,0.7
	h1.4v-0.5l-0.8-0.8c-0.1-0.1-0.1-0.1,0-0.4l0.8-0.8V312l-0.8-0.8c-0.1-0.1-0.1-0.1,0-0.4l0.8-0.8v-2.1l-0.8-0.8
	c-0.1-0.1-0.1-0.1,0-0.4l0.1-0.1h-0.1l0,0l-0.5-0.1l0,0l-0.5-0.4l0,0l-0.4-0.4l0,0l-0.4-0.4l0,0l-0.4-0.5l0,0l-0.1-0.5l0,0v-0.4
	h-0.8l-0.8,0.8l0,0h-0.2l-0.8-0.8h-2.1L346.3,305.2z"/>
<path class="st4" d="M358.5,335.5c-0.1-0.1-0.1-0.1,0-0.4l0.8-0.8v-0.7h-3h-3.1h-0.1l-0.7,0.7l0,0h-0.2l-0.7-0.7h-1.9h-0.2h-4.1l0,0
	h-3.5h-3.1h-3.4v18.8h23.8V352l-0.8-0.8c-0.1-0.1-0.1-0.1,0-0.4l0.8-0.8v-2l-0.8-0.8c-0.1-0.1-0.1-0.1,0-0.4l0.8-0.8v-2.1l-0.8-0.8
	c-0.1-0.1-0.1-0.1,0-0.4l0.8-0.8v-2.1l-1-0.7c-0.1-0.1-0.1-0.1,0-0.4l0.8-0.8v-2.6L358.5,335.5z"/>
<path class="st4" d="M358.5,274.4l0.7-0.7v-2.3l-0.7-0.7c-0.1-0.1-0.1-0.1,0-0.4l0.7-0.7v-2.5v-20.6h-3.3h-0.1h-2.1h-0.1l0,0l0,0
	h-10.2h-0.1H337h-0.1l0,0h-1.2V283h1.2l0.7-0.7h0.1h0.1l0.7,0.7h2.3l0.7-0.7h0.1h0.1l0.7,0.7h2.3l0.7-0.7h0.1h0.1l0.7,0.7h3.5h1.2
	l0.7-0.7c0.1-0.1,0.1-0.1,0.4,0l0.7,0.7h2.3l0.7-0.7c0.1-0.1,0.1-0.1,0.4,0l0.7,0.7h2.6l-0.4-0.4c-0.1-0.1-0.1-0.1,0-0.4l0.7-0.7
	v-2.1H357l0,0l0,0l0,0l0,0l0,0c0,0,0,0-0.1,0l0,0l0,0l0,0l0,0l0,0l0,0l0,0l0,0l0,0l0,0l0,0l0,0l0,0v-0.7l0,0l0.1-0.5l0,0l0.4-0.5
	l0,0l0.4-0.4l0,0l0.4-0.4l0,0l0.5-0.4l0,0l0.5-0.1l0,0h0.4v-0.7l-0.7-0.7C358.5,274.6,358.5,274.4,358.5,274.4z"/>
<path class="st4" d="M446.9,130.2L446.9,130.2h0.5l0,0l0,0l0,0l0,0l0.1,0.1l0,0l0,0l0,0l0.7,6.1l0,0l0,0l0,0l0,0l0,0l0,0l0,0l0,0
	h-0.5l0.1,1.7l0,0h0.1h0.5l0,0l0.5,0.1l0,0l0.5,0.4l0,0l0.4,0.4l0,0l0.4,0.4l0,0l0.4,0.5l0,0l0.1,0.5l0,0v0.4h1.2l0,0
	c0-0.1,0.1-0.1,0.1-0.1h1h0.1v0.1v0.1l2.1-0.1l-0.4-2.1h-1l0,0l0,0l0,0h-0.1c0,0-0.1,0-0.1-0.1v-0.1l0,0l0,0v-1.2l0,0l0,0l0,0v-0.1
	c0,0,0-0.1,0.1-0.1l0,0l0,0l0,0h0.8V137h-0.8l0,0l0,0l0,0h-0.1c0,0-0.1,0-0.1-0.1l0,0l0,0l0,0l0,0l-0.1-1.4l0,0l0,0l0,0l0,0v-0.1
	c0,0,0-0.1,0.1-0.1h0.1l0,0l0,0l0,0h0.8v-0.1l-0.8,0.1l0,0l0,0l0,0l0,0h-0.1c0,0-0.1,0-0.1-0.1v-0.1l0,0l0,0l-0.1-1.4l0,0l0,0v-0.1
	c0,0,0-0.1,0.1-0.1l0,0l0,0l0,0l0,0l0.8-0.1l-0.1-1h-0.4l0,0c0,0,0,0-0.1,0l0,0l0,0l0,0l-0.1-0.1l-0.1-0.1l0,0l0,0l-0.1-0.4l0,0
	v-0.4l0,0l0.1-0.4l0,0l-1,0.1c-0.1,0-0.1,0-0.4-0.1c0-0.1,0-0.1,0.1-0.4l1-0.1l0,0l0,0l0,0l-0.1-0.1c0,0,0,0-0.1-0.1l0,0
	c0,0,0,0,0-0.1l-0.1-0.4l0,0v-0.4l0,0l0,0v-0.1v-0.1l0,0l0,0l0,0l0,0l0,0h0.4v-0.4l-4.4,0.7l0,0c0,0,0,0-0.1,0l0,0l0,0l0,0l0,0l0,0
	l0,0l0,0l0,0l0,0l0,0l0,0l0,0l0,0l0,0l0,0l-0.1-0.1V129l0,0l0,0l0,0l0,0l0,0l0,0l0,0l0,0l0,0l0,0c0,0,0,0,0-0.1l0,0l0,0l0,0l0,0l0,0
	l0,0l0,0l0,0l0,0l0,0l0,0l0,0l0,0l0,0l0,0l0,0l0,0l0,0l0,0l0.5-0.1l0.4-0.4l0.4-0.4l-1.7-1.2l0,0l0,0l0,0l0,0l0,0l0,0l0,0l0,0l0,0
	l0,0l0,0l-0.1-0.8c0-0.1,0-0.1,0.1-0.4l0.5-0.1l0.4-0.4l0.4-0.4l-1.7-1.2c0,0,0,0-0.1-0.1v-0.1l-3.2-0.6l0.7,4.7L446.9,130.2z"/>
<path class="st4" d="M348.4,298.3L348.4,298.3l0.8-0.8v-2.1l-0.8-0.8c-0.1-0.1-0.1-0.1,0-0.4l0.8-0.8v-2l-0.8-0.8v-0.1v-0.2l0.8-0.8
	v-2.1l-0.8-0.8c-0.1-0.1-0.1-0.1,0-0.4l0.8-0.8v-2.1H348l-0.7,0.7c-0.1,0.1-0.1,0.1-0.4,0l-0.7-0.7h-2.3l-0.7,0.7
	c-0.1,0.1-0.1,0.1-0.4,0l-0.7-0.7H340l-0.7,0.7c-0.1,0.1-0.1,0.1-0.4,0l-0.7-0.7h-3.1v20h0.1l0.8-0.8c0.1-0.1,0.1-0.1,0.4,0l0.8,0.8
	h2.1l0.8-0.8c0.1-0.1,0.1-0.1,0.4,0l0.8,0.8h2.1l0.8-0.8c0.1-0.1,0.1-0.1,0.4,0l0.8,0.8h2.1l0.4-0.4h-1.2l0,0l0,0l0,0l0,0l0,0l0,0
	l0,0l0,0l0,0l0,0l0,0l0,0l0,0l0,0l0,0l0,0c0,0,0,0,0-0.1l0,0l0,0l0,0l0,0l0,0l0,0l0,0l0,0v-0.7l0,0l0.1-0.5l0,0l0.4-0.5l0,0l0.4-0.4
	l0,0l0.4-0.4l0,0l0.5-0.4l0,0l0.5-0.1l0,0h0.4v-0.7L348.4,298.3L348.4,298.3z"/>
<polygon class="st5" points="363.2,440.7 363.2,411.4 363.2,405.5 363.2,404.8 362.1,404.8 362,404.8 359,404.8 358.9,404.8 
	357.2,404.8 345.9,404.8 345.5,404.8 342.5,404.8 342.3,404.8 342.3,404.8 341.2,404.8 341.2,440.7 343.7,440.7 350.3,440.7 "/>
<path class="st4" d="M380.2,415.6L380.2,415.6C379.9,415.6,379.9,415.5,380.2,415.6l-2.8-0.1c0,0.1-0.1,0.1-0.1,0.1l0,0h-0.4v0.8
	c0,0.1-0.1,0.1-0.1,0.1v2.6c0.1,0,0.1,0.1,0.1,0.1v1.2c0,0.1-0.1,0.1-0.1,0.1v2.6c0.1,0,0.1,0.1,0.1,0.1v6.1h0.8
	c0.1,0,0.1,0.1,0.1,0.1v1.9l0,0c0,0.1-0.1,0.1-0.1,0.1v2.6c0.1,0,0.1,0.1,0.1,0.1v0.4h5.1V434v-0.5v-2.6l0,0v-1.4
	c0-0.1,0.1-0.1,0.1-0.1l0,0h2.1v-14.5H380v0.5h0.2V415.6z"/>
<path class="st5" d="M353.7,452.3L353.7,452.3L353.7,452.3h20.1l0,0l0,0l11,1.8l0.4-3.6l-11-1.8h-20.9l-11,1.8l0.4,3.6L353.7,452.3z
	"/>
<path class="st5" d="M353.7,456.6L353.7,456.6L353.7,456.6h20.1l0,0l0,0l11,1.8l0.4-3.6l-11-1.8h-20.9l-11,1.8l0.4,3.6L353.7,456.6z
	"/>
<path class="st4" d="M380.2,260.2v-9c0-0.1,0.1-0.1,0.1-0.1h0.1v-4.4h-3.1h-0.1h-6.9l0,0v3.8h0.1c0.1,0,0.1,0.1,0.1,0.1v3.8
	c0,0.1-0.1,0.1-0.1,0.1h-0.1l0,0v0.7h0.1c0.1,0,0.1,0,0.4,0.1h0.1c0.1,0,0.1,0.1,0.1,0.1l-0.1,0.1h-0.1v4.3c0,0.1-0.1,0.1-0.1,0.1
	h-0.1v6.3v0.1h0.4v-3l0,0l0,0l0,0l0,0l0,0l0,0l0,0l0,0l0,0l0,0l0,0l0,0l0,0l0,0l0,0c0,0,0,0,0.1,0l0,0l0,0l0,0l0,0l0,0l0,0h0.7l0,0
	l0.7,0.1l0,0l0.5,0.4l0,0l0.5,0.4l0.4,0.4l0,0l0.4,0.5l0,0l0.4,0.5l0.1,0.4l0.4-0.4l0,0l0.4-0.4l0,0l0.4-0.1l0,0h0.4l0,0
	c0,0,0,0,0.1,0l0,0l0,0c0,0,0,0,0.1,0l0,0l0,0c0,0,0,0,0,0.1l0,0l0,0l0,0l0,0l0,0v1h0.1h0.4c0.1,0,0.1,0.1,0.1,0.1l0,0h3.6v-1
	c0-0.1,0.1-0.1,0.1-0.1h2.5v-0.1h-2.8h-0.1l0,0v-0.4l0,0l0.1-0.5l0,0l0.4-0.5l0,0l0.4-0.4l0,0l0.4-0.4l0,0l0.5-0.4l0,0l0.5-0.1l0,0
	h0.4v-1v-0.1h-2.6c-0.1,0-0.1-0.1-0.1-0.1L380.2,260.2L380.2,260.2C380.2,260.4,380.2,260.4,380.2,260.2z"/>
<path class="st4" d="M351.5,364.3L351.5,364.3h4.1v-0.1c0-0.1,0.1-0.1,0.1-0.1h12.7c0.1,0,0.1,0.1,0.1,0.1v0.1h1.2h0.1l0,0h0.1l0,0
	h0.1h3v-10.4h-0.4v3.1v0.1h-0.1h-0.7l0,0l-0.7-0.1l0,0l-0.5-0.4l-0.5-0.4l0,0l-0.4-0.4l-0.4-0.5l0,0l-0.4-0.5l0,0l-0.1-0.7l0,0v-0.4
	l0,0l0,0h-0.7h-0.4l0,0c0,0,0,0,0,0.1s-0.1,0.1-0.1,0.1h-10.5c-0.1,0-0.1-0.1-0.1-0.1v-0.1l0,0h-0.7h-0.7h-0.7h-0.7h-1h-0.7H352
	h-0.8h-0.4v10.4L351.5,364.3L351.5,364.3z"/>
<path class="st4" d="M419.7,106.8L419.7,106.8l-2.8,0.8c0,0,0,0-0.1,0l0,0l-10.5,3.1l0,0l0,0h-0.1l0,0l0,0l-3.4,0.8l0,0l0,0
	l-2.3,0.7l0,0l0,0l-1.9,0.5l0,0l0,0l-4.4,1.4c0,0,0,0-0.1,0l-15.8,4.8l0,0l0,0l-3.4,0.8c0,0,0,0-0.1,0l-3,0.8l0,0l0,0l-3.8,1.2v2.1
	h14.8v-6.1l0,0l0,0l0,0l0,0l0,0l0,0l0,0l0,0l7-2.1l0,0l0,0h39.9l-0.8-3.6l-1-3.8l-1.2-3.6L419.7,106.8
	C419.9,106.8,419.9,106.8,419.7,106.8z"/>
<path class="st4" d="M374.2,433v-0.7l0,0l0,0l0,0l0,0l0,0l0,0l0,0l0,0l0,0l0,0l0,0l0,0h2.8v-1h-5h-6.1h-1.7v9.7h1.7h6.1h2.1h3.1l0,0
	h0.1v-4.8v-0.4h-0.4C375.4,435.3,374.5,434.3,374.2,433z"/>
<path class="st4" d="M449.4,110.7L449.4,110.7L449.4,110.7L449.4,110.7L449.4,110.7L449.4,110.7L449.4,110.7L449.4,110.7
	L449.4,110.7L449.4,110.7L449.4,110.7L449.4,110.7L449.4,110.7L449.4,110.7L449.4,110.7L449.4,110.7L449.4,110.7L449.4,110.7
	L449.4,110.7L449.4,110.7L449.4,110.7L449.4,110.7L449.4,110.7L449.4,110.7L449.4,110.7L449.4,110.7L449.4,110.7L449.4,110.7
	L449.4,110.7L449.4,110.7L449.4,110.7L449.4,110.7L449.4,110.7L449.4,110.7L449.4,110.7L449.4,110.7L449.4,110.7L449.4,110.7
	L449.4,110.7L449.4,110.7L449.4,110.7C449.4,110.5,449.4,110.5,449.4,110.7C449.4,110.5,449.3,110.5,449.4,110.7L449.4,110.7
	l-0.4-0.8l0,0l0,0l0,0l0,0l0,0l0,0l0,0l0,0l0,0l0,0l0,0l0,0l0,0l0,0l0,0l0,0l0,0l0,0l0,0l0,0l0,0l0,0l0,0l0,0l0,0l0,0l0,0l0,0l0,0
	l0,0l0,0l-0.5-2.3h-0.1l0,0l0,0l0,0l0,0l0,0l0,0l0,0l0,0l0,0l0,0l0,0l0,0l0,0l0,0l0,0l0,0l0,0l-1.2-4.1l-2.6,0.8l0,0l0,0l0,0l0,0
	l0,0l0,0l0,0l0,0l0,0l0,0l0,0l0,0l0,0l0,0l0,0l0,0l0,0l0,0l0,0l0,0l-1-3.5l-0.1-0.4l-6.3,1.9l-0.4,0.1c0,0,0,0-0.1,0l0,0l-3.8,1
	c0,0,0,0-0.1,0l-2.6,0.8v0.1l1.2,3.8l1.2,4.1l1,4.3l0,0l0,0l0,0l0,0l0,0l0,0l0,0l0,0l0,0l0,0l0,0l0,0l0,0v0.1l0.4,1.7l0,0l0,0l0,0
	l0,0l0,0l0,0l0,0l0,0l0,0l0,0l0,0l0,0l0,0l0,0l0,0l0,0l0,0l0,0l0,0l0,0l0,0l0,0l0,0l0,0l0,0l0,0l0,0l0,0l0,0l0,0l0,0l0,0l1,5.5
	l3.4-0.7l-0.5-2.8l0,0v-0.1l0,0l0,0l0,0l0,0l0,0l0,0l0,0l0,0l0,0l0,0h0.7l0,0h0.7l0,0l0.5,0.1l0,0l0.5,0.4l0,0l0.4,0.4l0,0l0.4,0.4
	l0,0l0.4,0.5l0,0l0.1,0.4l11.9-2.1l1.4-0.4l-2.1-9.9L449.4,110.7L449.4,110.7z"/>
<path class="st4" d="M364.1,411.4v8.4h9l0,0l0,0l0,0l0,0l0,0l0,0l0,0l0,0v-0.7c0.1-1.2,1.2-2.3,2.6-2.6h0.4v-11h-4.3
	c-0.1,0-0.1-0.1-0.1-0.1V405h-6.1h-1.4v0.5L364.1,411.4L364.1,411.4z"/>
<path class="st4" d="M438.5,123.4C438.5,123.5,438.5,123.5,438.5,123.4L438.5,123.4C438.5,123.5,438.5,123.5,438.5,123.4
	L438.5,123.4L438.5,123.4L438.5,123.4L438.5,123.4L438.5,123.4L438.5,123.4L438.5,123.4L438.5,123.4L438.5,123.4L438.5,123.4
	l-3.1,0.7l0.4,3.8l0,0l0,0l0,0l0,0v0.5l-0.1,11.2l0,0l0,0c0,0,0,0,0.1,0h6.5c0.1,0,0.1,0.1,0.1,0.1h2.6c0-0.1,0.1-0.1,0.1-0.1h1.8
	l-0.4-3.8l-1.4-13.4l-2.1,0.4l-1.4,0.4l0,0l0,0l0,0l0,0l0,0l0,0l0,0l0,0l0,0l0,0l0,0l0,0l0,0l0,0l0,0l0,0L438.5,123.4L438.5,123.4z"
	/>
<path class="st4" d="M328.9,178.5L328.9,178.5l0.1-0.5l0,0l0,0l0,0l0,0l0,0v-0.4h0.1v-0.4l0,0l0,0l0,0l0,0l0,0l0,0l0,0l0,0l0,0v-0.4
	l0,0l0,0h0.1V176l0,0l0,0l0,0v-0.4l0,0V175h0.1v-0.4h-0.1v-0.4h0.1V174h-0.1l0,0v-0.1l0,0v-0.1l0,0v-0.2h0.1v-0.4l0,0v-0.4l0,0l0,0
	l0,0l0,0l0,0l0,0l0,0l0,0l0,0l0,0l0,0l0,0l0,0v-0.4h0.1v-0.1v-0.4v-0.1h-0.1v-0.4h0.1v-0.7l0,0h-0.1v-0.1l0,0v-0.1v-0.1v-0.1l0,0
	h0.1v-0.4h-0.1v-0.4h0.1l0,0l0,0l0,0l0,0l0,0h-0.2c-0.1,0-0.1-0.1-0.1-0.1v-40.9c0-0.1,0.1-0.1,0.1-0.1h0.4V128h0.1v-0.7l0,0V127
	h-0.1v-0.1l0,0v-0.1h0.1l0,0v-1l0,0l0,0h-0.1v-0.4v-0.1l0,0l0,0l0,0v-0.1c0,0,0,0,0-0.1l0,0l0,0l0,0l0,0l0,0l0,0V125l0,0v-0.4l0,0
	v-0.4l0,0v-0.7l0,0v-0.7l0,0v-0.4l0,0v-0.1v-0.8c0,0,0,0,0-0.1l0,0l0,0l0,0l0,0V121l0,0v-0.5l0,0v-0.7h-0.1v-0.4h0.1v-0.5l0,0l0,0
	l0,0l0,0l0,0l0,0l0,0l0,0l0,0l0,0l0,0l0,0l0,0v-0.1l0,0l0,0v-0.1h-0.1v-0.4h0.1l0,0l0,0l0,0l0,0l0,0v-0.1c0,0,0,0,0-0.1H327v2.5
	c0,0.1-0.1,0.1-0.1,0.1h-6.1v9.6c0,0.1-0.1,0.1-0.1,0.1h-24.8v0.8v0.4v4.4v0.1l0,0v0.1l0,0h0.8c0.1,0,0.1,0.1,0.1,0.1v1.4
	c0,0.1-0.1,0.1-0.1,0.1h-0.8v4.4l0,0l0,0v0.7v0.4v5.1l0,0l0,0l0,0v3v0.4v0.4v0.1l0,0v0.1v6.3v0.4v0.1h0.8c0.1,0,0.1,0.1,0.1,0.1v1.4
	v0.1l0,0l0,0c0,0,0,0-0.1,0h-0.8v5.3v0.4v0.4v0.4v2.6v0.4v0.4v0.4v3.5l0,0l0,0v2.6h0.8c0.1,0,0.1,0.1,0.1,0.1v0.8l0,0v0.5h0.8l0,0
	h2.8h2.5h0.4h0.4h1.4l0,0l0,0h0.7v-0.5v-0.4l0,0l0,0c0-0.1,0.1-0.1,0.1-0.1h1h0.1l0,0h0.1l0,0c0.1,0,0.1,0.1,0.1,0.1v0.8h1.2h0.1
	h0.5h0.1h4.4h0.4h4.8h0.4h0.1l0,0h0.7h0.1l0,0h0.2h9.1v0.4h-0.1L328.9,178.5L328.9,178.5z"/>
<path class="st4" d="M335.8,182.6L335.8,182.6L335.8,182.6h0.4l0,0h2.1h1.7l0,0h0.4l0,0h4.4l0,0h1.2l0,0h1.9v-0.7
	c0-0.1,0.1-0.1,0.1-0.1h1h0.4c0.1,0,0.1,0.1,0.1,0.1v0.1v0.4v0.1h2.6c0.1,0,0.1,0.1,0.1,0.1v0.1c0.1,0,0.1,0.1,0.1,0.1v2.6h0.4
	l0.4-0.1l0.4-0.4l0.4-0.4l0.4-0.4l0.1-0.5v-0.2V183v-0.1l0,0l0,0c0,0,0,0,0.1,0v-0.1c0-0.1,0.1-0.1,0.1-0.1h0.7l0,0h0.4l0,0h2.5l0,0
	h0.4l0,0h0.8l0,0h0.5l0,0h0.4l0,0h0.4l0,0h2.6v-6.5v-0.8V175v-3.5v-0.4V169l0,0v-0.4l0,0v-1.7h-0.8c-0.1,0-0.1-0.1-0.1-0.1v-34.5
	v-1.9v-0.1l0,0h0.1h0.1l0,0l0,0h0.4h0.1V130v-2.1l0,0v-0.8h-3.7c-0.1,0-0.1-0.1-0.1-0.1v-4.8h-29v3v1.2c0.1,0,0.1,0.1,0.1,0.1v1.9
	c0,0.1-0.1,0.1-0.1,0.1h-0.8v12.2h0.8c0.1,0,0.1,0.1,0.1,0.1v1.9c0,0.1-0.1,0.1-0.1,0.1h-0.4l0,0h-0.5v10.5h0.8
	c0.1,0,0.1,0.1,0.1,0.1v1.9c0,0.1-0.1,0.1-0.1,0.1h-0.8v11.9h0.8c0.1,0,0.1,0.1,0.1,0.1v1.9c0,0.1,0,0.1-0.1,0.1v0.5l0,0v1.8v0.4
	l0,0v6.3v2.3v0.4v0.7l0,0l0,0h0.4l0,0L335.8,182.6L335.8,182.6z"/>
<path class="st4" d="M454.2,179.9l1-5.7v-0.1l0.1-0.5l0,0l-0.4-0.1l0,0l-0.5-0.4l0,0l-0.4-0.4l0,0l-0.4-0.4l0,0l-0.4-0.5l0,0
	l-0.1-0.5l0,0l-0.1-0.7l0,0v-0.5V170h0.1l2.8,0.4l0.1-0.7l0.4-4.3l0.4-2.8l0.1-0.8l0,0v-0.1l0,0l0.4-5.1l0.4-9.3h-1.9v1.9
	c0,0.1-0.1,0.1-0.1,0.1h-3.8v0.4l0,0l-0.1,0.5l0,0l-0.7,0.4l0,0l-0.4,0.4l0,0l-0.4,0.4l0,0l-0.4,0.4l0,0l-0.5,0.1l0,0h-0.5l0,0l0,0
	v0.8l-0.1,3.6l2.8,0.1l0,0l0,0l0,0l0,0l0,0l0,0c0,0,0,0,0,0.1l0,0l0,0l-0.1,0.7l0,0l-0.4,0.5l0,0l-0.4,0.5l0,0l-0.4,0.4l0,0
	l-0.5,0.4l0,0l-0.5,0.4l0,0l-0.5,0.1l0,0h-0.6l-0.4,4.4l2.8,0.4l0,0l0,0l0,0c0,0,0,0,0.1,0l0,0l0,0l0,0l0,0l0,0l0,0l-0.1,0.7l0,0
	l-0.4,0.5l-0.4,0.5l0,0l-0.4,0.4l0,0l-0.5,0.4l0,0l-0.5,0.4l0,0l-0.7,0.1l0,0h-0.5l-0.7,4.4l0,0l-0.4,2.5l0,0L446,175l0,0l0,0l0,0
	l0,0l0,0l0,0l0,0l0,0l0,0l0,0l0,0l0,0l0,0l0,0l0,0l0,0l0,0l0,0l0,0l0,0l0,0l0,0l0,0l0,0l0,0l0,0l0,0l0,0l0,0l0,0l0,0l0,0l0,0l0,0
	l0,0l-0.5,2.6l0,0l0,0l0,0l0,0l0,0l0,0l0,0l0,0l0,0l0,0l0,0l0,0l0,0l0,0l0,0l0,0l0,0l0,0l0,0l0,0l0,0l0,0l0,0l0,0l0,0l0,0l0,0l0,0
	l0,0l0,0l0,0l0,0l0,0l0,0l0,0l0,0l0,0l0,0l0,0l0,0l0,0l0,0l0,0l0,0l0,0l0,0l0,0l0,0l0,0l0,0l0,0l0,0l0,0l0,0l0,0l0,0l0,0l0,0l0,0
	l0,0l0,0l0,0l0,0l0,0l0,0l0,0l0,0l0,0l0,0l0,0l0,0l0,0l0,0v0.1l2.3,0.4l6.9,1.4L454.2,179.9z"/>
<path class="st4" d="M443.8,178.6L443.8,178.6l-0.5-0.4l0,0l-0.4-0.4l0,0l-0.4-0.4l0,0l-0.4-0.5l0,0l-0.1-0.5l0,0v-0.7l0,0V175l0,0
	l0,0l0,0c0,0,0,0,0-0.1l0,0l0,0l0,0c0,0,0,0,0.1,0l0,0l2.8,0.5v-0.1l-10.2-1.8l-0.4,1.2l-0.4,2.5l-0.7,3.1h0.1
	c0.1,0,0.1,0.1,0.1,0.4l-0.4,0.8c0,0,0,0.1-0.1,0.1l0,0h-0.1l-0.8,3h0.1c0.1,0,0.1,0.1,0.1,0.4l-0.4,0.8c0,0,0,0.1-0.1,0.1h-0.1
	h-0.1l-0.4,1.2l0.7,0.4c0,0,0.1,0,0.1,0.1l0.4,0.1l0,0l0,0l0,0l0,0l0,0l0,0l0,0l0,0l0,0l0,0l0,0l0,0l0,0l0,0l0,0l0,0l0,0l0,0l0,0
	l0,0l0,0l0.8,1.8l0.4-0.1l0.4-0.4l0.4-0.5l0,0l0,0l0,0c0,0,0,0,0.1,0l0,0l0,0l0,0l0,0l0,0l0,0l0,0l0.8,0.4c0,0,0.1,0,0.1,0.1
	l0.8,1.8l0.4-0.1l0.4-0.4l0.4-0.5l0,0l0,0l0,0l0,0l0,0c0,0,0,0,0.1,0l0,0l0,0l0,0l0,0l0,0l0,0l0,0l0,0l0,0l0,0l0,0l0,0l0.4,0.1l0,0
	l0,0l0.4,0.1c0,0,0.1,0,0.1,0.1l0.8,1.8l0.4-0.4l0.4-0.4l0.4-0.5c0-0.1,0.1-0.1,0.4-0.1c0.2,0,0.1,0.1,0.1,0.4l-0.4,0.5l0,0
	l-0.2,0.6l0,0l-0.4,0.4l0,0l0,0c0,0,0,0-0.1,0s0,0-0.1,0l0,0l0,0l0,0l0,0l-1-1.9h-0.1l-1.4,4.4l0.8,0.4v-0.1v-0.1l0,0l0,0l0,0
	l0.1-0.4l0,0l0,0l0,0l0,0l-0.1-0.4c0,0,0,0,0-0.1l0.1-0.4l0,0l0,0l0.1-0.4l0,0l0.4-0.4l0,0l0,0l0.4-0.1h0.1l0.4,0.1c0,0,0,0,0.1,0
	l0.1,0.4l0,0l0,0l0.1,0.4l0,0v0.4l0,0l0,0l-0.1,0.4l0,0l-0.4,0.4l-0.1,0.4l0,0l0,0l0,0l0,0c0,0,0,0-0.1,0v0.1l0.8,0.4l1.4-4.8l0,0
	l0,0l0,0l0,0l0,0l0,0l0,0l0,0l0,0l0,0l0,0l0,0l0,0l0,0l0,0l0,0l0,0l0,0l0,0l0,0l0,0l0,0l0,0l0,0l0,0l0,0l0,0l0,0l0,0l0,0l0,0l0,0
	l0,0l0,0l0,0l0,0l0,0l0,0l0,0l0,0l0,0l0,0l0,0l0,0l0,0l0,0l0,0l0,0l0,0l0,0l0,0l0,0l0,0l0,0l0,0l0,0l0,0l0,0l0,0l0,0l0,0l0,0l0,0
	l0,0l0,0l0,0l0,0l0,0l0,0l0,0l0,0l0,0l0,0l0,0l0,0l0,0l0,0l0,0l0,0l0,0l0,0c0,0,0,0,0.1,0l0,0l0.4,0.1l0.4-0.8l-0.4-0.1l0,0
	c-0.1,0-0.1-0.1-0.1-0.1l0,0l0,0l0,0l0,0l0,0l1.7-6l0,0l0,0l0,0l0,0c0-0.1,0.1-0.1,0.4-0.1l0,0l0,0l0,0l0.4,0.1l0.8-3.4h-0.4
	l-0.4,1.2l0,0l0,0l0,0v0.1c0,0,0,0-0.1,0.1h-0.1l0,0l0,0l0,0l-1.4-0.4l0,0l0,0h-0.1l-0.1-0.1v-1l0,0l0,0l0.4-1.2h-0.1l-0.4,1.2l0,0
	l0,0l0,0v0.1l-0.1,0.1H442l0,0l0,0l-1.4-0.4l0,0l0,0h-0.1c0,0,0,0-0.1-0.1v-0.1l0,0l0,0l0,0l0.4-1.2l0,0h-0.1l-0.4,1.2l0,0l0,0v0.1
	l-0.1,0.1l0,0l0,0l0,0l-1.4-0.4l0,0l0,0l0,0l0,0l0,0l0,0l0,0c0,0,0,0,0-0.1v-0.1l0,0l0,0l0.4-1.2h-0.1l0,0l0,0c0,0,0,0-0.1,0l0,0
	l0,0l0,0l0,0l0,0l0,0l0,0l0,0l0,0l0,0l0,0l0,0l0,0l0,0l0,0l0,0l0,0l0,0l0,0l0,0l0,0l0,0l0,0l0,0l0,0l0,0l0,0l0,0l0,0l0,0l0,0l0,0
	l0,0l0,0l0,0l0,0l0,0l0.1-0.5c0,0,0,0,0-0.1l0,0l0,0l0,0l0,0l0,0l0,0l0,0l0,0l0,0l0,0l0,0l0,0l0,0l0,0l0,0l0,0l0,0l0,0l0,0l0,0l0,0
	l0,0l0,0l0,0l0,0l0,0l0,0l0,0l0,0l0,0l6.9,1.2l0,0L443.8,178.6z"/>
<path class="st4" d="M432.9,128.3L432.9,128.3L432.9,128.3L432.9,128.3C432.8,128.3,432.8,128.3,432.9,128.3L432.9,128.3
	L432.9,128.3L432.9,128.3L432.9,128.3l-0.8-4.9l-0.8-4.8h-17.6l0.1,0.4l0,0c0,0,0,0,0,0.1l0.1,0.5l0,0l0,0l0.1,0.5l0,0
	c0,0,0,0,0,0.1l0.4,1.8l0.8,3.8l0.8,3.8l0.7,3.8l0.5,3.8l0.4,3.8l0.4,3.8l0.1,3.8v3.8l-0.1,3.8l-0.4,3.8l-0.4,3.8l-0.5,3.8l-0.7,3.8
	l-0.8,3.8l-0.8,3.8l-0.8,3.8l-1,3.4l1,0.4h0.1l0,0l4.4,1.4h0.1l0,0l1,0.4h0.1l0,0l0.8,0.4l0,0h0.1l0,0l0,0l1.2,0.4l0,0l4.4,1.4h0.1
	l0,0l1,0.4l1.2-3.6l1-3.8l1-3.8l0.8-3.8l0.8-3.8l0.7-4.1l0,0l0,0l0,0l0,0l0,0l0,0c0,0,0,0,0.1,0l0,0h1.7v-40.3L432.9,128.3
	L432.9,128.3z"/>
<path class="st4" d="M313.2,117.8L313.2,117.8h-6v0.8c0,0.1-0.1,0.1-0.1,0.1h-1.7c-0.1,0-0.1-0.1-0.1-0.1v-0.4v-0.5h-3.4h-0.1l0,0
	l0,0h-0.4h-0.1h-5.1v0.1v0.1l0,0v1.2c0,0.1-0.1,0.1-0.1,0.1h-0.8l0,0v6.9v0.4v3h24.3v-11.9h-4.1h-0.1L313.2,117.8L313.2,117.8z"/>
<path class="st4" d="M339.3,325.7c-0.1,0.1-0.1,0.1-0.4,0l-0.7-0.7h-3v7.9h3.4h3.1h3v-0.4l-0.7-0.7v-0.1v-0.1l0.7-0.7v-2.6h-0.4l0,0
	l-0.5-0.1l0,0l-0.5-0.4l0,0l-0.4-0.4l0,0l-0.4-0.4l0,0l-0.4-0.5l0,0L342,326l0,0v-0.7V325h-1.5L339.3,325.7z"/>
<path class="st4" d="M374.3,387.3h0.7l0,0l0,0l0,0l0,0l0,0l0,0l0,0l0,0l0,0l0,0l0,0l0,0v2.8l0,0c0,0,0,0,0.1,0v-5.6h-0.8h-5.6
	c-0.1,0-0.1-0.1-0.1-0.1V384c0-0.1,0.1-0.1,0.1-0.1h5.5v-5.1h-15.3V390h12.9v-0.4C372,388.6,372.9,387.4,374.3,387.3z"/>
<path class="st4" d="M374.3,387.3h0.7l0,0l0,0l0,0l0,0l0,0l0,0l0,0l0,0l0,0l0,0l0,0l0,0v2.8l0,0c0,0,0,0,0.1,0v-5.6h-0.8h-5.6
	c-0.1,0-0.1-0.1-0.1-0.1V384c0-0.1,0.1-0.1,0.1-0.1h5.5v-5.1h-15.3V390h12.9v-0.4C372,388.6,372.9,387.4,374.3,387.3z"/>
<path class="st4" d="M341.8,387.3h-0.7l0,0l0,0l0,0l0,0l0,0l0,0l0,0l0,0l0,0l0,0l0,0l0,0v2.8l0,0c0,0,0,0-0.1,0v-5.6h0.8h5.6
	c0.1,0,0.1-0.1,0.1-0.1V384c0-0.1-0.1-0.1-0.1-0.1h-5.6v-5.1h15.7V390h-13.1v-0.4C344.2,388.6,343.2,387.4,341.8,387.3z"/>
<path class="st4" d="M341.8,387.3h-0.7l0,0l0,0l0,0l0,0l0,0l0,0l0,0l0,0l0,0l0,0l0,0l0,0v2.8l0,0c0,0,0,0-0.1,0v-5.6h0.8h5.6
	c0.1,0,0.1-0.1,0.1-0.1V384c0-0.1-0.1-0.1-0.1-0.1h-5.6v-5.1h15.7V390h-13.1v-0.4C344.2,388.6,343.2,387.4,341.8,387.3z"/>
<path class="st4" d="M342.9,318.2l-0.8-0.8H340l-0.8,0.8c-0.1,0.1-0.1,0.1-0.4,0l-0.8-0.8h-2.8v6.9h0.8l0.8-0.8
	c0.1-0.1,0.1-0.1,0.4,0l0.8,0.8h2.1l0.8-0.8c0.1-0.1,0.1-0.1,0.4,0l0.4,0.4v-0.1l0,0l0.1-0.5l0,0l0.4-0.5l0,0l0.4-0.4l0,0l0.4-0.4
	l0,0l0.5-0.4l0.5-0.1l0,0h0.4l0,0l-0.8-0.8c-0.1-0.1-0.1-0.1,0-0.4l0.8-0.8v-1.9h-0.8L342.9,318.2
	C342.9,318.3,342.9,318.3,342.9,318.2z"/>
<path class="st4" d="M341.1,378L341.1,378L341.1,378L341.1,378L341.1,378L341.1,378L341.1,378L341.1,378h17.6l0,0l0,0l0,0l0,0l0,0
	l0,0l0,0l0,0h9.3l0,0l0,0l0,0l0,0l0,0l0,0l0,0l0,0h6.5c0-0.1,0.1-0.1,0.1-0.1s0.1,0,0.1,0.1h0.4h0.8v-11.4h-0.8h-34.3v1.4
	c0,0.1-0.1,0.1-0.1,0.1l0,0l0,0v3.1v0.1v3.1v0.1c0,0.1-0.1,0.1-0.1,0.1v2.6c0,0,0,0,0.1,0l0,0l0,0l0,0l0,0l0,0l0,0L341.1,378
	L341.1,378z"/>
<path class="st4" d="M381.1,342.2h0.8l0.7-0.7c0.1-0.1,0.1-0.1,0.4,0l0.7,0.7h2.1l0.8-0.8c0.1-0.1,0.1-0.1,0.4,0l0.8,0.8h2.5v-4.9
	l0,0v-0.7l0,0v-0.7v-0.7l0,0v-0.7V334l0,0v-0.7l0,0v-0.1h-14.9v1.7h2.8l0,0l0,0l0,0l0,0l0,0l0,0l0,0l0,0l0,0l0,0l0,0l0,0l0,0l0,0
	l0,0l0,0c0,0,0,0,0,0.1l0,0l0,0l0,0l0,0l0,0l0,0l0,0l0,0l0,0v0.7l0,0l-0.1,0.5l-0.4,0.5l0,0l-0.4,0.4l0,0l-0.4,0.4l0,0l-0.5,0.4l0,0
	l-0.5,0.1l0,0h-0.7v4.4h3.1c0.1,0,0.1,0.1,0.1,0.1h2.7C381,342.5,381,342.2,381.1,342.2z"/>
<path class="st4" d="M369.3,264.7v-1.4h-0.1c-0.1,0-0.1-0.1-0.1-0.1v-5.1c-0.1,0-0.1-0.1-0.1-0.1v-7.5h-2.8h-5.1v16.6h0.1v-2.8v-0.1
	h0.1h0.5l0,0l0.5,0.1l0,0l0.5,0.4l0,0l0.4,0.4l0,0l0.4,0.4l0,0l0.4,0.5l0,0l0.1,0.5l0,0v0.4h0.4v-0.6c0-0.1,0.1-0.1,0.1-0.1h1.4l0,0
	l0,0l0,0c0,0,0,0,0-0.1v-1.7c0,0,0,0,0-0.1l0,0l0.1-0.1l0,0l0,0l0,0l0,0l0,0l0,0l0,0l0,0l0,0l0,0l0,0l0,0l0,0l0,0h1.7l0,0l0,0l0,0
	l0,0l0,0h0.1c0,0,0,0,0,0.1l0,0l0,0l0,0l0,0l0,0v1.7l0,0l0,0l0,0l0,0l0,0h0.8v-1.7L369.3,264.7L369.3,264.7z"/>
<path class="st4" d="M387.7,194.7H387h-0.8h-0.7h-0.7H384h-0.8h-0.7h-0.4h-0.7h-0.7v10.9v5.1v5.6v5.1v0.5v5.1v0.5v4.1v6.9h5.7V238
	l0,0l0.1-0.5l0,0l0.4-0.5l0,0l0.4-0.4l0,0l0.4-0.4l0,0l0.5-0.4l0,0l0.5-0.1l0,0h0.7l0,0l0,0l0,0l0,0l0,0c0,0,0,0,0.1,0l0,0l0,0l0,0
	l0,0l0,0l0,0v-1.1v-1l0,0v-0.7V232v-0.7l0,0v-10v-0.8l0,0v-0.7V219v-0.7l0,0v-0.6v-0.8l0,0v-0.7v-0.7v-0.8l0,0V214v-0.3V213l0,0
	v-0.1v-0.7l0,0v-0.7v-0.8V210l0,0v-0.5v-4.1v-1V200v-0.4V199l0,0v-0.5v-0.7v-1.2l0,0v-0.7V195l0,0v-0.2h-0.7h-0.7L387.7,194.7
	L387.7,194.7L387.7,194.7z"/>
<path class="st5" d="M379.8,474.6L379.8,474.6L379.8,474.6L379.8,474.6C379.8,474.5,379.8,474.5,379.8,474.6L379.8,474.6
	L379.8,474.6L379.8,474.6L379.8,474.6L379.8,474.6L379.8,474.6L379.8,474.6L379.8,474.6v-0.7c0.4-0.8,1-1.4,1.9-1.8
	c-0.8-0.4-1.4-1-1.7-2.1v-0.7v-0.1h0.1l2.5,0.4l1.4-10.8l-11-1.8h-19l-11,1.8l1.4,10.8l2.3-0.4l0,0l0,0l0,0l0,0l0,0l0,0l0,0l0,0l0,0
	l0,0l0,0l0,0v0.7c-0.1,0.8-0.7,1.8-1.7,2.1c0.8,0.4,1.7,0.8,1.9,1.8l0.1,0.5l0,0l0,0l0,0l0,0l0,0l0,0l0,0l0,0l0,0l0,0l0,0l0,0
	l-2.3,0.4l0.4,2.1h2.6c0.1,0,0.1,0.1,0.1,0.1v0.1l0,0l0,0l0,0l0,0l0,0l0,0c0,0,0,0,0,0.1h5.7c0,0,0,0,0-0.1l0,0l0,0l0,0l0,0l0,0l0,0
	v-0.1c0-0.1,0.1-0.1,0.1-0.1h27.3l0.4-2.1L379.8,474.6L379.8,474.6z"/>
<path class="st4" d="M355.8,297.8L355.8,297.8l0.1-0.7l0,0l0.4-0.5l0,0l0.4-0.4l0,0l0.4-0.4l0,0l0.5-0.4l0,0l0.5-0.1l0,0h0.7h0.1
	l0,0l0.1-0.1v-2.3l-0.7-0.7c-0.1-0.1-0.1-0.1,0-0.4l0.7-0.7v-2.3l-0.7-0.7V288v-0.1l0.7-0.7v-3.6h-1l-0.7,0.7
	c-0.1,0.1-0.1,0.1-0.4,0l-0.7-0.7h-2.1l-0.7,0.7c-0.1,0.1-0.1,0.1-0.4,0l-0.7-0.7h-2.6v0.1l0.7,0.7c0.1,0.1,0.1,0.1,0,0.4l-0.7,0.7
	v2.1l0.7,0.7c0.1,0.1,0.1,0.1,0,0.4l-0.7,0.7v2.1l0.7,0.7c0.1,0.1,0.1,0.1,0,0.4l-0.7,0.7v2.1l0.7,0.7c0.1,0.1,0.1,0.1,0,0.4
	l-0.7,0.7v1h0.8l0.8-0.8c0.1-0.1,0.1-0.1,0.4,0l0.8,0.8L355.8,297.8L355.8,297.8z"/>
<path class="st4" d="M341.1,193.4h0.7l0,0h0.4l-0.1-0.1c0-0.1,0.1-0.1,0.1-0.1h4.8c0.1,0,0.1,0.1,0.1,0.1s0,0.1-0.1,0.1h0.4l0,0h0.7
	l0,0h0.7l0,0h0.4l-0.1-0.1c0-0.1,0.1-0.1,0.1-0.1h4.8c0.1,0,0.1,0.1,0.1,0.1s0,0.1-0.1,0.1h0.4l0,0h1.4l0,0h0.4l-0.1-0.1
	c0-0.1,0.1-0.1,0.1-0.1h4.8c0.1,0,0.1,0.1,0.1,0.1s0,0.1-0.1,0.1h0.4l0,0h1.4l0,0h0.4l-0.1-0.1c0-0.1,0.1-0.1,0.1-0.1h4.8
	c0.1,0,0.1,0.1,0.1,0.1s0,0.1-0.1,0.1h0.4l0,0h1.4l0,0h0.4l-0.1-0.1c0-0.1,0.1-0.1,0.1-0.1h4.8c0.1,0,0.1,0.1,0.1,0.1s0,0.1-0.1,0.1
	h0.5l0,0h0.7l0,0h0.8l-0.1-0.1c0-0.1,0.1-0.1,0.1-0.1h4.8c0.1,0,0.1,0.1,0.1,0.1s0,0.1-0.1,0.1h0.5l0,0h0.7l0,0h0.8l-0.1-0.1
	c0-0.1,0.1-0.1,0.1-0.1h4.7v-4.4v-0.7v-0.7l0,0v-0.7v-0.6l0,0v-0.7v-1v-0.7l0,0V183v-0.7l0,0V182l0,0l0,0l-11.4-3.5l0,0l0,0
	l-0.4-0.1l0,0l-2.1-0.7l0,0l0,0l-10.8-3.4l0,0v1.7v0.7v0.4v0.1v0.4v6.3c0,0.1-0.1,0.1-0.1,0.1h-0.5h-2.6l0,0l0,0l0,0h-6.3v0.4l0,0
	l-0.1,0.5l0,0l-0.4,0.4l0,0l0.8,0.4l0,0l-0.5,0.4l0,0l-0.5,0.1l0,0h-0.5c0,0,0,0-0.1,0l0,0l0,0c0,0,0,0-0.1,0l0,0l0,0l0,0l0,0l0,0
	l0,0l0,0c0,0,0,0,0-0.1l0,0l0,0l0,0v-2.4h-0.5h-0.2H351h-0.1h-11l0,0l0,0l0,0h-0.5l0,0H336l0,0l0,0v0.7l0,0v8.6h4.7
	c0.1,0,0.1,0.1,0.1,0.1s0,0.1-0.1,0.1L341.1,193.4L341.1,193.4z"/>
<path class="st4" d="M364.6,298.3L364.6,298.3L364.6,298.3L364.6,298.3L364.6,298.3L364.6,298.3L364.6,298.3L364.6,298.3
	C364.5,298.3,364.5,298.3,364.6,298.3L364.6,298.3L364.6,298.3L364.6,298.3L364.6,298.3L364.6,298.3L364.6,298.3L364.6,298.3
	L364.6,298.3L364.6,298.3L364.6,298.3L364.6,298.3L364.6,298.3L364.6,298.3L364.6,298.3L364.6,298.3L364.6,298.3l-0.1-0.7l0,0
	l0.1-0.5l0,0l0.4-0.5l0,0l0.4-0.4l0,0l0.4-0.4l0,0l0.5-0.4l0,0l0.5-0.1l0,0h0.4v-13.5h-7.4l0,0v4.4l0.7,0.7c0.1,0.1,0.1,0.1,0,0.4
	l-0.7,0.7v2.3l0.7,0.7c0.1,0.1,0.1,0.1,0,0.4l-0.7,0.7v2.3l0.7,0.7c0.1,0.1,0.1,0.1,0,0.4l-0.7,0.7v3.5h7.5l0,0h-2.6
	C364.9,298.3,364.9,298.3,364.6,298.3z"/>
<path class="st5" d="M382.9,436.9v-0.5h-4.8v4.4v0.8c0,0.1-0.1,0.1-0.1,0.1h-1.1l0,0h-3.1h-2.1h-6.1h-15.3h-6.5h-2.6l0.8,8.1l11-1.8
	l0,0l0,0h20.9l0,0l11,1.8l0.8-8.1h-2.6l0,0c-0.1,0-0.1-0.1-0.1-0.1v-0.8V440c0-0.1,0.1-0.1,0.1-0.1h0.1v-2.6h-0.1l0,0
	C383.2,437,382.9,437,382.9,436.9z"/>
<path class="st4" d="M393.2,181.7L393.2,181.7C393.3,181.7,393.3,181.7,393.2,181.7l1,0.4l0,0h0.1l0,0l0,0l0,0l0,0l0,0l3.4,0.8l0,0
	l0,0l0.7,0.4c0,0,0,0,0.1,0l1,0.4l0,0l0,0l1.4,0.4l0,0l0,0l1.7,0.4h0.1l0,0l2.5,0.8l0,0l0,0l0.4,0.1l0,0l0,0l0,0l1.7,0.4h0.1l0,0
	l0,0l0.4,0.1h0.1l0,0l0.4,0.1h0.1l0,0l1.4,0.4l0.8-3.4l0.8-3.8l0.8-3.8l0.7-3.8l0.7-3.8l0.5-3.8l0.4-3.8l0.4-3.8l0.1-3.8V149
	l-0.1-3.8l-0.4-3.8l-0.4-3.8l-0.5-3.8l-0.7-3.8l-0.8-3.8l-0.8-3.8l-0.8-3.6h-17.6l0.1,0.4l0,0c0,0,0,0,0,0.1l0.1,0.4c0,0,0,0,0,0.1
	v0.1l0.1,0.5l0,0c0,0,0,0,0,0.1l0.1,0.4c0,0,0,0,0,0.1s0,0.1,0,0.1l0.4,0.7l0.8,3.4l0.8,3.4l0.7,3.5l0,0l0,0l0,0l0,0l0,0
	c0,0,0,0-0.1,0l0,0l0,0l0,0l0,0h-2.1l0.4,1.7l0.5,3.4l0.4,3.4l0.4,3.4l0.1,3.5l0.1,3.4v3.5l-0.1,3.4l-0.4,3.4l-0.4,3.4l-0.5,3.4
	l-0.7,3.4l-0.8,3.4l-0.8,3.6c0,0,0,0,0,0.1s0,0,0,0.1l-0.8,2.6l1.7,0.5C393.2,181.7,393.2,181.7,393.2,181.7z"/>
<path class="st4" d="M378.1,270.9L378.1,270.9l-0.1-0.4c0,0,0,0,0-0.1l0,0l0,0l0,0l0,0l0,0l0,0h0.4h-0.2c0,0,0,0-0.1,0l-0.1-0.1
	c0,0,0,0,0-0.1v-0.4c0,0,0,0,0-0.1v-0.4c0,0,0,0,0-0.1l0.1-0.1c0,0,0,0,0.1,0h0.4c0,0,0,0,0.1,0h0.4c0,0,0,0,0.1,0l0.1,0.1h0.4l0,0
	h-0.1l-0.1,0.1c0,0,0,0-0.1,0H379c0,0,0,0-0.1,0h-0.4h-0.2l-0.1-0.1l0,0l-0.1-0.4v-0.1l0.1-0.4l0,0l0.1-0.1c0,0,0,0,0.1,0l0,0h-2.8
	c-0.1,0-0.1-0.1-0.1-0.1h-4.8c0,0.1-0.1,0.1-0.1,0.1h-0.8v1.4c0,0.1-0.1,0.1-0.1,0.1h-1.5c-0.1,0-0.1-0.1-0.1-0.1v-1.4h-1.4
	c0,0,0,0,0.1,0l0,0l0,0l0,0v0.1l0,0v0.1v0.1l0,0v0.1l0,0l0,0l0,0c0,0,0,0-0.1,0l0,0h-0.1c0,0-0.1,0-0.4,0c-0.3,0-0.4,0-0.4,0
	l-0.1,0.1l0,0l0,0l0,0c-0.1,0.1-0.1,0.1-0.4,0c0,0,0,0,0-0.1l0,0v0.1c-0.1,0.1-0.1,0.1-0.4,0l0,0c0,0,0,0,0-0.1l-0.1-0.4l0,0V268
	l0,0v-0.1v-0.1l0,0h-1.2c-0.1,0-0.1-0.1-0.1-0.1h-2.7c0,0.1-0.1,0.1-0.1,0.1h-0.8v0.7l0.7,0.7v0.1v0.1l-0.7,0.7v2.3l0.7,0.7
	c0.1,0.1,0.1,0.1,0,0.4l-0.7,0.7v2.6c0,0.1-0.1,0.1-0.1,0.1h-0.1v2.6h0.1c0.1,0,0.1,0.1,0.1,0.1v0.5l0.5,0.5h7.5
	c0.1,0,0.1,0.1,0.1,0.1v14.5c0,0.1-0.1,0.1-0.1,0.1l0,0v2.6l0,0c0.1,0,0.1,0.1,0.1,0.1v0.8c0,0.1-0.1,0.1-0.1,0.1h-8.3
	c-0.1,0-0.1-0.1-0.1-0.1h-2.6c0,0.1-0.1,0.1-0.1,0.1h-1.4l-0.7,0.7c-0.1,0.1-0.1,0.1-0.4,0l-0.7-0.7H351v0.8c0,0.1-0.1,0.1-0.1,0.1
	v2.6c0.1,0,0.1,0.1,0.1,0.1v0.7h1.7c0,0,0,0,0.1,0l0,0l0,0l0,0l0,0l0,0l0,0h2.6l0,0l0,0l0,0l0,0l0,0l0,0c0,0,0,0,0.1,0h13.7
	c0.1,0,0.1,0.1,0.1,0.1v0.7c0,0.1-0.1,0.1-0.1,0.1l0,0v2.6l0,0c0.1,0,0.1,0.1,0.1,0.1v10c0,0.1-0.1,0.1-0.1,0.1l0,0v2.6l0,0
	c0.1,0,0.1,0.1,0.1,0.1v7.5c0,0.1-0.1,0.1-0.1,0.1v2.6c0.1,0,0.1,0.1,0.1,0.1v5.5l0,0v4.3c0,0.1-0.1,0.1-0.1,0.1v2.6
	c0.1,0,0.1,0.1,0.1,0.1v8.6h0.4l0,0h0.7c0.1,0,0.1,0.1,0.1,0.1v0.1c0.1,0,0.1,0.1,0.1,0.1h3.1c0-0.1,0.1-0.1,0.1-0.1v-0.1
	c0-0.1,0.1-0.1,0.1-0.1h0.5l0,0h0.4v-4.8c0-0.1,0.1-0.1,0.1-0.1v-2.6c-0.1,0-0.1-0.1-0.1-0.1v-7c0-0.1,0.1-0.1,0.1-0.1v-2.6
	c-0.1,0-0.1-0.1-0.1-0.1v-7c0-0.1,0.1-0.1,0.1-0.1V324c-0.1,0-0.1-0.1-0.1-0.1v-7c0-0.1,0.1-0.1,0.1-0.1v-2.6
	c-0.1,0-0.1-0.1-0.1-0.1v-7.4c0-0.1,0.1-0.1,0.1-0.1V304c-0.1,0-0.1-0.1-0.1-0.1V297c0-0.1,0.1-0.1,0.1-0.1v-2.6
	c-0.1,0-0.1-0.1-0.1-0.1v-7.5c0-0.1,0.1-0.1,0.1-0.1V284c-0.1,0-0.1-0.1-0.1-0.1v-3.4c0-0.1,0.1-0.1,0.1-0.1h4.4h0.4l0,0h1.2V272
	v-0.6L378.1,270.9L378.1,270.9z"/>
<path class="st4" d="M369.3,245.1h10.4v-6v-7.5v-4.1v-0.7v-5.1v-0.5v-4.9v-5.6v-4.9v-10.5h-44.3v50.3h33.8
	C369.3,245.1,369.3,245.1,369.3,245.1z"/>
<path class="st4" d="M328.5,113C328.5,112.9,328.8,112.9,328.5,113l0.4-0.1V103c0-0.1,0.1-0.1,0.1-0.1l0.1,0.1v9.9h25.6V96.4
	l-25.6-12.3v9.7c0,0.1-0.1,0.1-0.1,0.1l-0.1-0.1v-9.9l0,0l0,0l0,0l0,0l0,0l0,0l0,0h21.2c0.1,0,0.1,0.1,0.1,0.1
	c0,0.1-0.1,0.1-0.1,0.1h-20.2l25,12.3l25-12.3h-20.2c-0.1,0-0.1-0.1-0.1-0.1c0-0.1,0.1-0.1,0.1-0.1h21l0,0l0,0l0,0l0,0l0,0l0,0l0,0
	l0,0l0,0l0,0V96c0,0.1-0.1,0.1-0.1,0.1l-0.1-0.1V84.3l-25.7,12.2V113h9.9c0.1,0,0.1,0.1,0.1,0.1v8.7l15.5-4.7v-11.9
	c0-0.1,0.1-0.1,0.1-0.1c0.1,0,0.1,0.1,0.1,0.1v11l1.4-3.6V82H327v34.3h0.8L328.5,113L328.5,113z M380.6,102.8L380.6,102.8
	C380.6,103,380.6,103,380.6,102.8v3.6c0,0,0,0,0,0.1c0,0,0,0,0,0.1v1.4c0,0.1-0.1,0.1-0.1,0.1h-8.1c-0.1,0-0.1-0.1-0.1-0.1v-1.4
	c0,0,0,0,0-0.1c0,0,0,0,0-0.1v-3.5c0,0,0,0,0-0.1c0,0,0,0,0-0.1v-4.4c0-0.1,0.1-0.1,0.1-0.1h8.1c0.1,0,0.1,0.1,0.1,0.1V102.8z"/>
<path class="st4" d="M385.9,127h-20.8v1.4v0.4v0.5v0.4v0.8l0,0l0,0v0.4v1.8v0.4v0.8v0.4v0.7v0.4v1.8V148v0.1l0,0v0.1v4.8v0.4v2.1
	l0,0l0,0l0,0v3.4v0.4v3.8l0,0v0.1l0,0l0,0v3.8v0.4v2.1v0.7v0.4v2.6l0,0l3.1,0.8h0.1l0,0l0,0h0.1l1.7,0.5h0.1h0.1l0.5,0.1l0,0l0,0
	l0.4,0.1h0.1l0,0l1.9,0.5l0,0l0,0h0.1l0,0l0,0l1,0.4h0.1l0,0l0.8,0.4l0,0c0,0,0,0,0.1,0l0,0l0.4,0.1h0.1l0,0l1.8,0.5h0.1l0,0
	l0.4,0.1h0.4l0,0l2.1,0.7l0,0l0,0c0,0,0,0,0.1,0l0.4,0.1l0,0l0,0l1.8,0.5l0,0l0,0l1.4,0.4h0.1l0,0l0.7,0.4h0.1l0,0l1,0.4l0.8-3.1
	l0.8-3.4l0.7-3.4l0.7-3.4l0.5-3.4l0.4-3.4l0.4-3.4l0.1-3.4v-3.4l-0.1-3.4l-0.4-3.4l-0.4-3.4l-0.4-3.4l-0.7-3.4l-0.7-3.4l-0.8-3.4
	l-0.8-3.4l-0.7-2.1v5.7C385.9,126.9,385.9,127,385.9,127z"/>
<path class="st4" d="M363.8,411.7L363.8,411.7c-0.4,0-0.4-0.1-0.4-0.1v29h0.4V411.7L363.8,411.7z"/>
<path class="st4" d="M450.7,148.6L450.7,148.6v0.5l-0.1,0.5l-0.4,0.4l-0.4,0.4l-0.4,0.4l-0.4,0.4l-0.5,0.1h-0.4v-2.6
	c0,0.1-0.1,0.1-0.1,0.1l-0.4,7.5c0,0.1-0.1,0.1-0.1,0.1l0,0l2.8,0.1v0.4l-0.1,0.5l-0.4,0.4l-0.4,0.4l-0.4,0.4l-0.5,0.4l-0.5,0.1
	h-0.8l0,0c0.1,0,0.1,0.1,0.1,0.1v0.1h0.4l0,0l0.5-0.1l0,0l0.5-0.4l0,0l0.5-0.4l0,0l0.4-0.4l0,0l0.4-0.5l0,0l0.4-0.5l0,0l0.1-0.7l0,0
	l0,0c0,0,0,0,0-0.1l0,0l0,0l0,0l0,0l0,0l0,0l-2.8-0.1l0.1-3.6v-0.8l0,0l0,0h0.5l0,0l0.5-0.1l0,0l0.4-0.4l0,0l0.4-0.4l0,0l0.4-0.4
	l0,0l0.4-0.5l0,0l0.1-0.5l0,0V149h-0.1C450.8,148.9,450.7,148.9,450.7,148.6z"/>
<path class="st4" d="M374.7,294.4C374.9,294.4,374.9,294.3,374.7,294.4l0.1-0.4v-1.7h14.9v-0.4h-15.2c-0.1,0-0.1,0.1-0.1,0.1v1.8
	l0,0v-6.9l0,0v4.7c0,0.1,0.1,0.1,0.1,0.1h15.2v-0.4h-14.9v-4.4v-0.1c0-0.1-0.1-0.1-0.1-0.1l0,0l0,0h-0.4c-0.1,0-0.1,0.1-0.1,0.1v7.4
	c0,0.1,0.1,0.1,0.1,0.1L374.7,294.4L374.7,294.4z"/>
<path class="st4" d="M374.7,314.5C374.9,314.5,374.9,314.5,374.7,314.5l0.1-0.4v-1.7h14.9V312l0,0h-15.2c-0.1,0-0.1,0.1-0.1,0.1v1.8
	l0,0v-6.8l0,0v4.7c0,0.1,0.1,0.1,0.1,0.1h15.2v-0.4h-14.9v-4.4V307c0-0.1-0.1-0.1-0.1-0.1l0,0l0,0h-0.4c-0.1,0-0.1,0.1-0.1,0.1v7
	c0,0.1,0.1,0.1,0.1,0.1h0.4V314.5L374.7,314.5z"/>
<path class="st4" d="M446.9,199.2L446.9,199.2L446.9,199.2L446.9,199.2L446.9,199.2L446.9,199.2z"/>
<g>
	<g>
		<path class="st6" d="M390.7,403.3v78.2h-54.5v-78.2H390.7 M393.3,400.5h-2.6h-54.5h-2.6v2.6v78.2v2.6h2.6h54.5h2.6v-2.6v-78.2
			V400.5L393.3,400.5z"/>
	</g>
	<g>
		<path class="st6" d="M383.4,78.9v36.6l65.1-20.4c0,0,10.5,15.7,10.5,53.4s-13.7,54.9-13.7,54.9l-53.6-17.3v178h-14.9l0.1,24.8
			h-42.2V184.6h-7v-4.7h-35.5v-64h35.6V78.6h55.7 M386,75.9h-2.6h-55.7h-2.6v2.6v34.4h-32.9h-2.6v2.6v64.4v2.6h2.6h33v1.7v2.6h2.6
			h4.3v201.5v2.6h2.6h42.2h2.8v-2.5l-0.1-22h12.2h2.6v-2.6V190l50,16l1.9,0.5l1.2-1.7c0.1-0.1,3.6-4.8,7.4-14c3.4-8.4,7-22.7,7-42.7
			c0-38.4-10.5-54.4-11-55.1l-1.2-1.7l-2.1,0.7l-61.7,19.3V78.7L386,75.9L386,75.9z"/>
	</g>
</g>
<g>
	<g class="st0">
		<path class="st2" d="M347.8,423.4h-1.1v-0.5l1-2.3h0.6v2.3h0.4v0.5h-0.4v0.8h-0.7v-0.8H347.8z M347.8,422.9v-1.4l0,0l-0.6,1.4
			H347.8z"/>
		<path class="st2" d="M349,424.2v-0.5c0.7-1.1,1.2-1.8,1.2-2.3c0-0.2-0.1-0.4-0.2-0.4c-0.2,0-0.2,0.1-0.2,0.4v0.2h-0.6v-0.1
			c0-0.5,0.4-1,0.8-1s0.8,0.4,0.8,0.7c0,0.6-0.1,1-1.1,2.4h1.1v0.5L349,424.2L349,424.2z"/>
		<path class="st2" d="M351.2,421.6c0-0.6,0.2-1,0.8-1s0.8,0.2,0.8,1v1.8c0,0.6-0.2,1-0.8,1s-0.8-0.2-0.8-1V421.6z M352.3,421.4
			c0-0.2-0.1-0.4-0.2-0.4s-0.2,0.1-0.2,0.4v2c0,0.2,0.1,0.4,0.2,0.4s0.2-0.1,0.2-0.4V421.4z"/>
	</g>
</g>
<g>
	<g class="st0">
		<path class="st2" d="M360.2,464.5h-1.1v-0.4l1-2.3h0.6v2.3h0.4v0.5h-0.4v0.8h-0.6L360.2,464.5L360.2,464.5L360.2,464.5z
			 M360.3,464.1v-1.4l0,0l-0.6,1.4H360.3z"/>
		<path class="st2" d="M361.6,465.3v-0.5c0.7-1.1,1.2-1.8,1.2-2.3c0-0.2-0.1-0.4-0.2-0.4c-0.2,0-0.2,0.1-0.2,0.4v0.2h-0.6v-0.1
			c0-0.5,0.4-1,0.8-1c0.5,0,0.8,0.4,0.8,0.7c0,0.6-0.1,1-1.1,2.4h1.1v0.5L361.6,465.3L361.6,465.3z"/>
		<path class="st2" d="M364.5,462.5H364v-0.4c0.2-0.1,0.5-0.2,0.7-0.5h0.4v3.6h-0.5v-2.8h-0.1L364.5,462.5L364.5,462.5z"/>
	</g>
</g>
<g>
	<rect x="342.9" y="399.3" class="st2" width="5.5" height="6"/>
	<polygon class="st7" points="344.1,396.9 347.4,396.9 345.9,399.6 	"/>
</g>
<g>
	<rect x="356.7" y="399" class="st2" width="5.5" height="6"/>
	<polygon class="st7" points="357.7,396.5 361.2,396.5 359.5,399.5 	"/>
</g>
<g>
	<rect x="371" y="388" class="st2" width="5.5" height="3.8"/>
	<polygon class="st7" points="375.4,394 372,394 373.6,391.2 	"/>
</g>
<g>
	<rect x="339.2" y="388.7" class="st2" width="5.5" height="3.8"/>
	<polygon class="st7" points="343.6,395.1 340.2,395.1 341.8,392.2 	"/>
</g>
<g>
	<g>
		<path class="st7" d="M350.4,381.3c0.4,0,0.5-0.4,0.5-0.5s-0.4-0.5-0.5-0.5s-0.5,0.4-0.5,0.5C349.9,380.9,350.1,381.3,350.4,381.3z
			"/>
		<path class="st7" d="M350.1,381.6c-0.5,0-0.8,0.4-0.8,0.7l-0.4,1.7c0,0.1,0,0.4,0.1,0.4s0.4,0,0.4-0.1l0.4-1.7
			c0-0.1,0.1-0.1,0.1-0.1s0.1,0.1,0,0.1l-0.8,2.6h0.8c0,1,0,1.9,0,1.9c0,0.4,0.1,0.4,0.4,0.4c0,0,0.4,0,0.4-0.4s0-1.9,0-1.9
			c0-0.1,0-0.1,0.1-0.1s0.1,0,0.1,0.1c0,0,0,1.7,0,1.9c0,0.4,0.1,0.4,0.4,0.4c0,0,0.4,0,0.4-0.4c0,0,0-0.8,0-1.9h0.8l-0.8-2.6
			c0-0.1,0-0.1,0-0.1s0.1,0,0.1,0.1l0.4,1.7c0,0.1,0.1,0.1,0.4,0.1c0.2,0,0.1-0.1,0.1-0.4l-0.4-1.7c-0.1-0.4-0.4-0.7-0.8-0.7H350.1z
			"/>
	</g>
</g>
<g>
	<g>
		<path class="st7" d="M366.8,381.2c0.4,0,0.7-0.4,0.7-0.7s-0.4-0.7-0.7-0.7s-0.7,0.4-0.7,0.7S366.3,381.2,366.8,381.2z"/>
	</g>
	<path class="st7" d="M367.6,382.6v1.4c0,0.4,0.1,0.4,0.4,0.4c0.1,0,0.4,0,0.4-0.4v-1.7c0-0.8-0.4-0.8-0.8-0.8h-1
		c-0.7,0-0.8,0.1-0.8,0.8v1.7c0,0.4,0.1,0.4,0.4,0.4c0.1,0,0.4,0,0.4-0.4v-1.4c0-0.1,0.1-0.1,0.1-0.1s0.1,0,0.1,0.1s0,4.4,0,4.4
		c0,0.4,0.4,0.4,0.4,0.4s0.4,0,0.4-0.4s0-2.6,0-2.6s0-0.1,0.1-0.1c0,0,0.1,0,0.1,0.1c0,0,0,2.3,0,2.6s0.4,0.4,0.4,0.4s0.4,0,0.4-0.4
		C367.5,387.1,367.5,382.8,367.6,382.6C367.5,382.6,367.6,382.6,367.6,382.6L367.6,382.6z"/>
</g>
<line class="st8" x1="394.3" y1="403.5" x2="394.3" y2="358.7"/>
<rect x="389.7" y="437" class="st2" width="6.9" height="10.4"/>
<polygon class="st7" points="398.6,440.7 398.6,444.1 395.6,442.4 "/>
<g class="st9">
	<polygon class="st6" points="681.1,346.4 515.5,346.4 512.9,346.4 512.9,348.1 512.1,348.1 512.1,350.7 512.1,439.8 487,439.8 
		487,479.9 513.7,479.9 516.3,479.9 516.3,477.3 516.3,476.8 543,476.8 545.6,476.8 545.6,474.2 545.6,414.4 680.9,414.4 
		683.5,414.4 683.5,411.8 683.5,349.2 683.7,346.4 	"/>
	<rect x="398" y="439.8" class="st10" width="89" height="40.1"/>
</g>
<rect x="509.4" y="485.3" class="st10" width="31.6" height="70"/>
</svg>
