<?xml version="1.0" encoding="UTF-8" standalone="no"?>
<!-- Generator: Adobe Illustrator 19.1.0, SVG Export Plug-In . SVG Version: 6.00 Build 0)  -->

<svg
   xmlns:dc="http://purl.org/dc/elements/1.1/"
   xmlns:cc="http://creativecommons.org/ns#"
   xmlns:rdf="http://www.w3.org/1999/02/22-rdf-syntax-ns#"
   xmlns:svg="http://www.w3.org/2000/svg"
   xmlns="http://www.w3.org/2000/svg"
   xmlns:sodipodi="http://sodipodi.sourceforge.net/DTD/sodipodi-0.dtd"
   xmlns:inkscape="http://www.inkscape.org/namespaces/inkscape"
   version="1.1"
   id="Layer_1"
   x="0px"
   y="0px"
   viewBox="0 0 468.60001 510.29999"
   xml:space="preserve"
   inkscape:version="0.91 r13725"
   sodipodi:docname="olmsted_level0.svg"
   width="468.60001"
   height="510.29999"><metadata
     id="metadata5914"><rdf:RDF><cc:Work
         rdf:about=""><dc:format>image/svg+xml</dc:format><dc:type
           rdf:resource="http://purl.org/dc/dcmitype/StillImage" /><dc:title></dc:title></cc:Work></rdf:RDF></metadata><defs
     id="defs5912" /><sodipodi:namedview
     pagecolor="#ffffff"
     bordercolor="#666666"
     borderopacity="1"
     objecttolerance="10"
     gridtolerance="10"
     guidetolerance="10"
     inkscape:pageopacity="0"
     inkscape:pageshadow="2"
     inkscape:window-width="1596"
     inkscape:window-height="861"
     id="namedview5910"
     showgrid="false"
     fit-margin-top="0"
     fit-margin-left="0"
     fit-margin-right="0"
     fit-margin-bottom="0"
     inkscape:zoom="0.71555556"
     inkscape:cx="48.247754"
     inkscape:cy="117.36893"
     inkscape:window-x="0"
     inkscape:window-y="18"
     inkscape:window-maximized="0"
     inkscape:current-layer="Layer_1" /><style
     type="text/css"
     id="style5660">
	.st0{enable-background:new    ;}
	.st1{fill:#989898;}
	.st2{fill:#FFFFFF;}
	.st3{opacity:0.6;fill:#4B6DB4;enable-background:new    ;}
	.st4{fill:#CDCCCC;}
	.st5{fill:#3A65B0;}
	.st6{fill:#989798;}
	.st7{fill:#4C6EB5;}
	.st8{fill:none;}
	.st9{opacity:0.5;}
	.st10{opacity:0.5;fill:#989798;enable-background:new    ;}
</style><g
     id="g5916"
     transform="translate(-215.1,-45.000001)"><g
       id="g5662"
       class="st0"
       style="enable-background:new"><path
         id="path5664"
         d="m 215.1,57.9 0,-5 0.8,0 0,4.3 1.4,0 0,0.7 -2.2,0 z"
         class="st1"
         inkscape:connector-curvature="0"
         style="fill:#989898" /><path
         id="path5666"
         d="m 220.1,56.1 -1.7,0 0,0.5 c 0,0.4 0.1,0.6 0.4,0.6 0.2,0 0.4,-0.1 0.4,-0.6 l 0,-0.2 0.7,0 c 0,0.7 -0.4,1.4 -1.2,1.4 -0.8,0 -1.2,-0.6 -1.2,-1.4 l 0,-1 c 0,-0.8 0.4,-1.4 1.2,-1.4 0.8,0 1.2,0.6 1.2,1.4 l 0,0.7 0.2,0 z m -0.8,-0.6 0,-0.2 c 0,-0.4 -0.1,-0.6 -0.4,-0.6 -0.2,0 -0.4,0.1 -0.4,0.6 l 0,0.2 0.8,0 z"
         class="st1"
         inkscape:connector-curvature="0"
         style="fill:#989898" /><path
         id="path5668"
         d="m 222.3,54.1 0.7,0 -0.8,3.7 -0.7,0 -0.8,-3.7 0.7,0 0.5,2.5 0,0 0.4,-2.5 z"
         class="st1"
         inkscape:connector-curvature="0"
         style="fill:#989898" /><path
         id="path5670"
         d="m 226,56.1 -1.7,0 0,0.5 c 0,0.4 0.1,0.6 0.4,0.6 0.2,0 0.4,-0.1 0.4,-0.6 l 0,-0.2 0.7,0 c 0,0.7 -0.4,1.4 -1.2,1.4 -0.8,0 -1.2,-0.6 -1.2,-1.4 l 0,-1 c 0,-0.8 0.4,-1.4 1.2,-1.4 0.8,0 1.2,0.6 1.2,1.4 l 0,0.7 0.2,0 z m -0.9,-0.6 0,-0.2 c 0,-0.4 -0.1,-0.6 -0.4,-0.6 -0.2,0 -0.4,0.1 -0.4,0.6 l 0,0.2 0.8,0 z"
         class="st1"
         inkscape:connector-curvature="0"
         style="fill:#989898" /><path
         id="path5672"
         d="m 226.6,57.9 0,-5 0.7,0 0,5 -0.7,0 z"
         class="st1"
         inkscape:connector-curvature="0"
         style="fill:#989898" /></g><circle
       id="circle5674"
       r="11.7"
       cy="56.700001"
       cx="242.5"
       class="st1"
       style="fill:#989898" /><g
       id="g5676"
       class="st0"
       style="enable-background:new"><path
         id="path5678"
         d="m 237.7,53 c 0,-3 1.1,-4.4 3.8,-4.4 2.7,0 3.8,1.4 3.8,4.4 l 0,7.8 c 0,3 -1.1,4.4 -3.8,4.4 -2.8,0 -3.8,-1.4 -3.8,-4.4 0,-0.1 0,-7.8 0,-7.8 z m 5.2,-0.6 c 0,-1 -0.5,-1.5 -1.2,-1.5 -0.8,0 -1.2,0.5 -1.2,1.5 l 0,9.1 c 0,1 0.5,1.5 1.2,1.5 0.8,0 1.2,-0.5 1.2,-1.5 l 0,-9.1 z"
         class="st2"
         inkscape:connector-curvature="0"
         style="fill:#ffffff" /></g><rect
       id="rect5680"
       height="0.80000001"
       width="5.3000002"
       class="st3"
       y="379.39999"
       x="382.10001"
       style="opacity:0.6;fill:#4b6db4;enable-background:new" /><rect
       id="rect5682"
       height="0.80000001"
       width="5.3000002"
       class="st3"
       y="377.89999"
       x="382.10001"
       style="opacity:0.6;fill:#4b6db4;enable-background:new" /><rect
       id="rect5684"
       height="0.80000001"
       width="5.3000002"
       class="st3"
       y="376.20001"
       x="382.10001"
       style="opacity:0.6;fill:#4b6db4;enable-background:new" /><rect
       id="rect5686"
       height="0.80000001"
       width="5.3000002"
       class="st3"
       y="374.89999"
       x="382.10001"
       style="opacity:0.6;fill:#4b6db4;enable-background:new" /><rect
       id="rect5688"
       height="0.80000001"
       width="5.3000002"
       class="st3"
       y="373.10001"
       x="382.10001"
       style="opacity:0.6;fill:#4b6db4;enable-background:new" /><rect
       id="rect5690"
       height="0.80000001"
       width="5.3000002"
       class="st3"
       y="371.70001"
       x="382.10001"
       style="opacity:0.6;fill:#4b6db4;enable-background:new" /><rect
       id="rect5692"
       height="0.80000001"
       width="5.3000002"
       class="st3"
       y="370.10001"
       x="382.10001"
       style="opacity:0.6;fill:#4b6db4;enable-background:new" /><rect
       id="rect5694"
       height="0.80000001"
       width="5.3000002"
       class="st3"
       y="387.39999"
       x="382.10001"
       style="opacity:0.6;fill:#4b6db4;enable-background:new" /><rect
       id="rect5696"
       height="0.80000001"
       width="5.3000002"
       class="st3"
       y="386.10001"
       x="382.10001"
       style="opacity:0.6;fill:#4b6db4;enable-background:new" /><rect
       id="rect5698"
       height="0.80000001"
       width="5.3000002"
       class="st3"
       y="384.39999"
       x="382.10001"
       style="opacity:0.6;fill:#4b6db4;enable-background:new" /><rect
       id="rect5700"
       height="0.80000001"
       width="5.3000002"
       class="st3"
       y="382.79999"
       x="382.10001"
       style="opacity:0.6;fill:#4b6db4;enable-background:new" /><rect
       id="rect5702"
       height="0.80000001"
       width="5.3000002"
       class="st3"
       y="381.20001"
       x="382.10001"
       style="opacity:0.6;fill:#4b6db4;enable-background:new" /><rect
       id="rect5704"
       height="0.80000001"
       width="5.3000002"
       class="st3"
       y="379.39999"
       x="388.39999"
       style="opacity:0.6;fill:#4b6db4;enable-background:new" /><rect
       id="rect5706"
       height="0.80000001"
       width="5.3000002"
       class="st3"
       y="377.89999"
       x="388.39999"
       style="opacity:0.6;fill:#4b6db4;enable-background:new" /><rect
       id="rect5708"
       height="0.80000001"
       width="5.3000002"
       class="st3"
       y="376.20001"
       x="388.39999"
       style="opacity:0.6;fill:#4b6db4;enable-background:new" /><rect
       id="rect5710"
       height="0.80000001"
       width="5.3000002"
       class="st3"
       y="374.89999"
       x="388.39999"
       style="opacity:0.6;fill:#4b6db4;enable-background:new" /><rect
       id="rect5712"
       height="0.80000001"
       width="5.3000002"
       class="st3"
       y="373.10001"
       x="388.39999"
       style="opacity:0.6;fill:#4b6db4;enable-background:new" /><rect
       id="rect5714"
       height="0.80000001"
       width="5.3000002"
       class="st3"
       y="371.70001"
       x="388.39999"
       style="opacity:0.6;fill:#4b6db4;enable-background:new" /><rect
       id="rect5716"
       height="0.80000001"
       width="5.3000002"
       class="st3"
       y="370.10001"
       x="388.39999"
       style="opacity:0.6;fill:#4b6db4;enable-background:new" /><rect
       id="rect5718"
       height="0.80000001"
       width="5.3000002"
       class="st3"
       y="387.39999"
       x="388.20001"
       style="opacity:0.6;fill:#4b6db4;enable-background:new" /><rect
       id="rect5720"
       height="0.80000001"
       width="5.3000002"
       class="st3"
       y="386.10001"
       x="388.20001"
       style="opacity:0.6;fill:#4b6db4;enable-background:new" /><rect
       id="rect5722"
       height="0.80000001"
       width="5.3000002"
       class="st3"
       y="384.39999"
       x="388.20001"
       style="opacity:0.6;fill:#4b6db4;enable-background:new" /><rect
       id="rect5724"
       height="0.80000001"
       width="5.3000002"
       class="st3"
       y="382.79999"
       x="388.20001"
       style="opacity:0.6;fill:#4b6db4;enable-background:new" /><rect
       id="rect5726"
       height="0.80000001"
       width="5.3000002"
       class="st3"
       y="381.20001"
       x="388.20001"
       style="opacity:0.6;fill:#4b6db4;enable-background:new" /><path
       id="path5728"
       d="m 446.6,164.3 0,0 0,0 c -0.2,0 -0.2,0 0,0 l 0,0 0,0 0,0 0,0 0,0 c -0.2,0 -0.2,0 0,0 l 0,0 0,0 0,0 0,0 0,0 0,0 0,0 0,0 0,0 0,0 0,0 0,0 0,0 0,0 0,0 0,0 0,0 0,0 0,0 0,0 0,0 0,0 0,0 0,0 0,0 0,0 0,0 0,0 0,0 c -0.1,-0.1 -0.1,-0.1 -0.1,-0.4 l 0,0 0,0 0.4,-3.5 -0.4,0 0,2.8 0,0 0,0 0,0 0,0 0,0 0,0 0,0 c 0,0 0,0 0,0.1 0,0 0,0 -0.1,0 l 0,0 0,0 0,0 0,0 0,0 0,0 -0.7,0 0,0 -0.5,-0.1 0,0 -0.5,-0.4 0,0 -0.4,-0.4 0,0 -0.4,-0.5 0,0 -0.4,-0.5 0,0 -0.1,-0.7 0,0 0,-0.4 -7.5,-0.7 0,8.7 0,0 0,0 c 0,0 0.1,0 0.1,0.1 l 0,0.1 -0.4,2.1 -0.4,1.8 9.6,1.7 0.7,-3.8 0,0 0,0 0,0 0,0 0,0 0,0 0,0 0,0 0,0 0,0 0,0 0,0 0,0 0,0 0,0 0,0 0,0 0,0 0,0 0,0 0,0 0,0 0,0 0,0 0,0 0,0 0,0 0,0 0,0 0,0 0,0 0,0 0,0 0,0 0,0 0,0 0,0 0,0 0,0 0,0 0,0 0,0 0.4,0 0.4,-2.8 0,0 0,0 0,0 0,0 0,0 0,0 0,0 0,0 0,0 0,0 0,0 c 0,0 0,0 0.1,0 l 0,0 0.2,-3.2 z"
       class="st4"
       inkscape:connector-curvature="0"
       style="fill:#cdcccc" /><path
       id="path5730"
       d="m 446.9,159.1 0.1,-2.6 -0.1,0 0,0 0,0 0,0 0,0 0,0 0,0 0,0 0,0 0,0 0,0 0,0 0,0 0,0 0,0 0,-15.8 -1.7,0 0,2.8 0,0 0,0 0,0 0,0 c 0,0 0,0 0,0.1 l 0,0 0,0 c 0,0 0,0 -0.1,0 -0.1,0 0,0 0,0 l 0,0 0,0 -0.5,0 0,0 -0.7,-0.4 0,0 -0.5,-0.4 0,0 -0.4,-0.4 0,0 -0.4,-0.4 -0.4,-0.5 0,0 -0.1,-0.5 0,0 0,-0.2 -6.3,0 -0.1,0 0,18.4 1.4,0.1 c 0,0 0,0 0.1,0 l 0.1,0 2.6,0.4 2.1,0.1 c 0,0 0,0 0.1,0 0,0 0,0 0.1,0 l 0.7,0 0.5,0 0,0 0,0 0,0 0,0 0,0 0,0 0,0 0,0 0,0 0,0 0,0 0,0 0,0 0,0 0,0 0,0 0,0 0,0 0,0 2.6,0.1 0,0 0,0 0,0 0,0 0,0 0,0 0,0 0,0 0,0 0,0 0,0 0,0 0,0 0,0 0,0 0,0 0,0 0,0 0,0 0.4,0 0,-0.4 0,0 0,0 0,0 0,0 0,0 0,0 0,0 0,0 0,0 0,0 0,0 0,0 0,0 0,0 0,0 0,0 0,0 0,0 0,0 0,0 0,0 0,0 0,0 0,0 0,0 0,0 0,0 c 0.5,-0.1 0.5,-0.4 0.5,-0.4 l 0,0 0,0 z"
       class="st4"
       inkscape:connector-curvature="0"
       style="fill:#cdcccc" /><path
       id="path5732"
       d="m 346.3,305.2 c -0.1,0.1 -0.1,0.1 -0.4,0 l -0.8,-0.8 -2.1,0 -0.8,0.8 c -0.1,0.1 -0.1,0.1 -0.4,0 l -0.8,-0.8 -2.1,0 -0.8,0.8 c -0.1,0.1 -0.1,0.1 -0.4,0 l -0.8,-0.8 -2.1,0 0,12.3 0.8,0 0.7,-0.7 c 0.1,-0.1 0.1,-0.1 0.4,0 l 0.7,0.7 2.1,0 0.7,-0.7 c 0.1,-0.1 0.1,-0.1 0.4,0 l 0.7,0.7 2.1,0 0.7,-0.7 c 0.1,-0.1 0.1,-0.1 0.4,0 l 0.7,0.7 2.1,0 0.7,-0.7 c 0.1,-0.1 0.1,-0.1 0.4,0 l 0.7,0.7 2.1,0 0.7,-0.7 c 0.1,-0.1 0.1,-0.1 0.4,0 l 0.7,0.7 1.4,0 0,-0.5 -0.8,-0.8 c -0.1,-0.1 -0.1,-0.1 0,-0.4 l 0.8,-0.8 0,-2.2 -0.8,-0.8 c -0.1,-0.1 -0.1,-0.1 0,-0.4 l 0.8,-0.8 0,-2.1 -0.8,-0.8 c -0.1,-0.1 -0.1,-0.1 0,-0.4 l 0.1,-0.1 -0.1,0 0,0 -0.5,-0.1 0,0 -0.5,-0.4 0,0 -0.4,-0.4 0,0 -0.4,-0.4 0,0 -0.4,-0.5 0,0 -0.1,-0.5 0,0 0,-0.4 -0.8,0 -0.8,0.8 0,0 -0.2,0 -0.8,-0.8 -2.1,0 -0.3,1.3 z"
       class="st4"
       inkscape:connector-curvature="0"
       style="fill:#cdcccc" /><path
       id="path5734"
       d="m 358.5,335.5 c -0.1,-0.1 -0.1,-0.1 0,-0.4 l 0.8,-0.8 0,-0.7 -3,0 -3.1,0 -0.1,0 -0.7,0.7 0,0 -0.2,0 -0.7,-0.7 -1.9,0 -0.2,0 -4.1,0 0,0 -3.5,0 -3.1,0 -3.4,0 0,18.8 23.8,0 0,-0.4 -0.8,-0.8 c -0.1,-0.1 -0.1,-0.1 0,-0.4 l 0.8,-0.8 0,-2 -0.8,-0.8 c -0.1,-0.1 -0.1,-0.1 0,-0.4 l 0.8,-0.8 0,-2.1 -0.8,-0.8 c -0.1,-0.1 -0.1,-0.1 0,-0.4 l 0.8,-0.8 0,-2.1 -1,-0.7 c -0.1,-0.1 -0.1,-0.1 0,-0.4 l 0.8,-0.8 0,-2.6 -0.4,0.2 z"
       class="st4"
       inkscape:connector-curvature="0"
       style="fill:#cdcccc" /><path
       id="path5736"
       d="m 358.5,274.4 0.7,-0.7 0,-2.3 -0.7,-0.7 c -0.1,-0.1 -0.1,-0.1 0,-0.4 l 0.7,-0.7 0,-2.5 0,-20.6 -3.3,0 -0.1,0 -2.1,0 -0.1,0 0,0 0,0 -10.2,0 -0.1,0 -6.3,0 -0.1,0 0,0 -1.2,0 0,36.5 1.2,0 0.7,-0.7 0.1,0 0.1,0 0.7,0.7 2.3,0 0.7,-0.7 0.1,0 0.1,0 0.7,0.7 2.3,0 0.7,-0.7 0.1,0 0.1,0 0.7,0.7 3.5,0 1.2,0 0.7,-0.7 c 0.1,-0.1 0.1,-0.1 0.4,0 l 0.7,0.7 2.3,0 0.7,-0.7 c 0.1,-0.1 0.1,-0.1 0.4,0 l 0.7,0.7 2.6,0 -0.4,-0.4 c -0.1,-0.1 -0.1,-0.1 0,-0.4 l 0.7,-0.7 0,-2.1 -2.8,0 0,0 0,0 0,0 0,0 0,0 c 0,0 0,0 -0.1,0 l 0,0 0,0 0,0 0,0 0,0 0,0 0,0 0,0 0,0 0,0 0,0 0,0 0,0 0,-0.7 0,0 0.1,-0.5 0,0 0.4,-0.5 0,0 0.4,-0.4 0,0 0.4,-0.4 0,0 0.5,-0.4 0,0 0.5,-0.1 0,0 0.4,0 0,-0.7 -0.7,-0.7 c -0.4,-0.4 -0.4,-0.6 -0.4,-0.6 z"
       class="st4"
       inkscape:connector-curvature="0"
       style="fill:#cdcccc" /><path
       id="path5738"
       d="m 446.9,130.2 0,0 0.5,0 0,0 0,0 0,0 0,0 0.1,0.1 0,0 0,0 0,0 0.7,6.1 0,0 0,0 0,0 0,0 0,0 0,0 0,0 0,0 -0.5,0 0.1,1.7 0,0 0.1,0 0.5,0 0,0 0.5,0.1 0,0 0.5,0.4 0,0 0.4,0.4 0,0 0.4,0.4 0,0 0.4,0.5 0,0 0.1,0.5 0,0 0,0.4 1.2,0 0,0 c 0,-0.1 0.1,-0.1 0.1,-0.1 l 1,0 0.1,0 0,0.1 0,0.1 2.1,-0.1 -0.4,-2.1 -1,0 0,0 0,0 0,0 -0.1,0 c 0,0 -0.1,0 -0.1,-0.1 l 0,-0.1 0,0 0,0 0,-1.2 0,0 0,0 0,0 0,-0.1 c 0,0 0,-0.1 0.1,-0.1 l 0,0 0,0 0,0 0.8,0 0,-0.1 -0.8,0 0,0 0,0 0,0 -0.1,0 c 0,0 -0.1,0 -0.1,-0.1 l 0,0 0,0 0,0 0,0 -0.1,-1.4 0,0 0,0 0,0 0,0 0,-0.1 c 0,0 0,-0.1 0.1,-0.1 l 0.1,0 0,0 0,0 0,0 0.8,0 0,-0.1 -0.8,0.1 0,0 0,0 0,0 0,0 -0.1,0 c 0,0 -0.1,0 -0.1,-0.1 l 0,-0.1 0,0 0,0 -0.1,-1.4 0,0 0,0 0,-0.1 c 0,0 0,-0.1 0.1,-0.1 l 0,0 0,0 0,0 0,0 0.8,-0.1 -0.1,-1 -0.4,0 0,0 c 0,0 0,0 -0.1,0 l 0,0 0,0 0,0 -0.1,-0.1 -0.1,-0.1 0,0 0,0 -0.1,-0.4 0,0 0,-0.4 0,0 0.1,-0.4 0,0 -1,0.1 c -0.1,0 -0.1,0 -0.4,-0.1 0,-0.1 0,-0.1 0.1,-0.4 l 1,-0.1 0,0 0,0 0,0 -0.1,-0.1 c 0,0 0,0 -0.1,-0.1 l 0,0 c 0,0 0,0 0,-0.1 l -0.1,-0.4 0,0 0,-0.4 0,0 0,0 0,-0.1 0,-0.1 0,0 0,0 0,0 0,0 0,0 0.4,0 0,-0.4 -4.4,0.7 0,0 c 0,0 0,0 -0.1,0 l 0,0 0,0 0,0 0,0 0,0 0,0 0,0 0,0 0,0 0,0 0,0 0,0 0,0 0,0 0,0 -0.1,-0.1 0,-0.4 0,0 0,0 0,0 0,0 0,0 0,0 0,0 0,0 0,0 0,0 c 0,0 0,0 0,-0.1 l 0,0 0,0 0,0 0,0 0,0 0,0 0,0 0,0 0,0 0,0 0,0 0,0 0,0 0,0 0,0 0,0 0,0 0,0 0,0 0.5,-0.1 0.4,-0.4 0.4,-0.4 -1.7,-1.2 0,0 0,0 0,0 0,0 0,0 0,0 0,0 0,0 0,0 0,0 0,0 -0.1,-0.8 c 0,-0.1 0,-0.1 0.1,-0.4 l 0.5,-0.1 0.4,-0.4 0.4,-0.4 -1.7,-1.2 c 0,0 0,0 -0.1,-0.1 l 0,-0.1 -3.2,-0.6 0.7,4.7 1.7,2.8 z"
       class="st4"
       inkscape:connector-curvature="0"
       style="fill:#cdcccc" /><path
       id="path5740"
       d="m 348.4,298.3 0,0 0.8,-0.8 0,-2.1 -0.8,-0.8 c -0.1,-0.1 -0.1,-0.1 0,-0.4 l 0.8,-0.8 0,-2 -0.8,-0.8 0,-0.1 0,-0.2 0.8,-0.8 0,-2.1 -0.8,-0.8 c -0.1,-0.1 -0.1,-0.1 0,-0.4 l 0.8,-0.8 0,-2.1 -1.2,0 -0.7,0.7 c -0.1,0.1 -0.1,0.1 -0.4,0 l -0.7,-0.7 -2.3,0 -0.7,0.7 c -0.1,0.1 -0.1,0.1 -0.4,0 l -0.7,-0.7 -2.1,0 -0.7,0.7 c -0.1,0.1 -0.1,0.1 -0.4,0 l -0.7,-0.7 -3.1,0 0,20 0.1,0 0.8,-0.8 c 0.1,-0.1 0.1,-0.1 0.4,0 l 0.8,0.8 2.1,0 0.8,-0.8 c 0.1,-0.1 0.1,-0.1 0.4,0 l 0.8,0.8 2.1,0 0.8,-0.8 c 0.1,-0.1 0.1,-0.1 0.4,0 l 0.8,0.8 2.1,0 0.4,-0.4 -1.2,0 0,0 0,0 0,0 0,0 0,0 0,0 0,0 0,0 0,0 0,0 0,0 0,0 0,0 0,0 0,0 0,0 c 0,0 0,0 0,-0.1 l 0,0 0,0 0,0 0,0 0,0 0,0 0,0 0,0 0,-0.7 0,0 0.1,-0.5 0,0 0.4,-0.5 0,0 0.4,-0.4 0,0 0.4,-0.4 0,0 0.5,-0.4 0,0 0.5,-0.1 0,0 0.4,0 0,-0.7 -1,-0.8 0,0 z"
       class="st4"
       inkscape:connector-curvature="0"
       style="fill:#cdcccc" /><polygon
       id="polygon5742"
       points="363.2,404.8 362.1,404.8 362,404.8 359,404.8 358.9,404.8 357.2,404.8 345.9,404.8 345.5,404.8 342.5,404.8 342.3,404.8 342.3,404.8 341.2,404.8 341.2,440.7 343.7,440.7 350.3,440.7 363.2,440.7 363.2,411.4 363.2,405.5 "
       class="st5"
       style="fill:#3a65b0" /><path
       id="path5744"
       d="m 380.2,415.6 0,0 c -0.3,0 -0.3,-0.1 0,0 l -2.8,-0.1 c 0,0.1 -0.1,0.1 -0.1,0.1 l 0,0 -0.4,0 0,0.8 c 0,0.1 -0.1,0.1 -0.1,0.1 l 0,2.6 c 0.1,0 0.1,0.1 0.1,0.1 l 0,1.2 c 0,0.1 -0.1,0.1 -0.1,0.1 l 0,2.6 c 0.1,0 0.1,0.1 0.1,0.1 l 0,6.1 0.8,0 c 0.1,0 0.1,0.1 0.1,0.1 l 0,1.9 0,0 c 0,0.1 -0.1,0.1 -0.1,0.1 l 0,2.6 c 0.1,0 0.1,0.1 0.1,0.1 l 0,0.4 5.1,0 0,-0.5 0,-0.5 0,-2.6 0,0 0,-1.4 c 0,-0.1 0.1,-0.1 0.1,-0.1 l 0,0 2.1,0 0,-14.5 -5.1,0 0,0.5 0.2,0 0,0.2 z"
       class="st4"
       inkscape:connector-curvature="0"
       style="fill:#cdcccc" /><path
       id="path5746"
       d="m 353.7,452.3 0,0 0,0 20.1,0 0,0 0,0 11,1.8 0.4,-3.6 -11,-1.8 -20.9,0 -11,1.8 0.4,3.6 11,-1.8 z"
       class="st5"
       inkscape:connector-curvature="0"
       style="fill:#3a65b0" /><path
       id="path5748"
       d="m 353.7,456.6 0,0 0,0 20.1,0 0,0 0,0 11,1.8 0.4,-3.6 -11,-1.8 -20.9,0 -11,1.8 0.4,3.6 11,-1.8 z"
       class="st5"
       inkscape:connector-curvature="0"
       style="fill:#3a65b0" /><path
       id="path5750"
       d="m 380.2,260.2 0,-9 c 0,-0.1 0.1,-0.1 0.1,-0.1 l 0.1,0 0,-4.4 -3.1,0 -0.1,0 -6.9,0 0,0 0,3.8 0.1,0 c 0.1,0 0.1,0.1 0.1,0.1 l 0,3.8 c 0,0.1 -0.1,0.1 -0.1,0.1 l -0.1,0 0,0 0,0.7 0.1,0 c 0.1,0 0.1,0 0.4,0.1 l 0.1,0 c 0.1,0 0.1,0.1 0.1,0.1 l -0.1,0.1 -0.1,0 0,4.3 c 0,0.1 -0.1,0.1 -0.1,0.1 l -0.1,0 0,6.3 0,0.1 0.4,0 0,-3 0,0 0,0 0,0 0,0 0,0 0,0 0,0 0,0 0,0 0,0 0,0 0,0 0,0 0,0 0,0 c 0,0 0,0 0.1,0 l 0,0 0,0 0,0 0,0 0,0 0,0 0.7,0 0,0 0.7,0.1 0,0 0.5,0.4 0,0 0.5,0.4 0.4,0.4 0,0 0.4,0.5 0,0 0.4,0.5 0.1,0.4 0.4,-0.4 0,0 0.4,-0.4 0,0 0.4,-0.1 0,0 0.4,0 0,0 c 0,0 0,0 0.1,0 l 0,0 0,0 c 0,0 0,0 0.1,0 l 0,0 0,0 c 0,0 0,0 0,0.1 l 0,0 0,0 0,0 0,0 0,0 0,1 0.1,0 0.4,0 c 0.1,0 0.1,0.1 0.1,0.1 l 0,0 3.6,0 0,-1 c 0,-0.1 0.1,-0.1 0.1,-0.1 l 2.5,0 0,-0.1 -2.8,0 -0.1,0 0,0 0,-0.4 0,0 0.1,-0.5 0,0 0.4,-0.5 0,0 0.4,-0.4 0,0 0.4,-0.4 0,0 0.5,-0.4 0,0 0.5,-0.1 0,0 0.4,0 0,-1 0,-0.1 -2.6,0 c -0.1,0 -0.1,-0.1 -0.1,-0.1 l -0.3,-1 0,0 c 0,0.2 0,0.2 0,0 z"
       class="st4"
       inkscape:connector-curvature="0"
       style="fill:#cdcccc" /><path
       id="path5752"
       d="m 351.5,364.3 0,0 4.1,0 0,-0.1 c 0,-0.1 0.1,-0.1 0.1,-0.1 l 12.7,0 c 0.1,0 0.1,0.1 0.1,0.1 l 0,0.1 1.2,0 0.1,0 0,0 0.1,0 0,0 0.1,0 3,0 0,-10.4 -0.4,0 0,3.1 0,0.1 -0.1,0 -0.7,0 0,0 -0.7,-0.1 0,0 -0.5,-0.4 -0.5,-0.4 0,0 -0.4,-0.4 -0.4,-0.5 0,0 -0.4,-0.5 0,0 -0.1,-0.7 0,0 0,-0.4 0,0 0,0 -0.7,0 -0.4,0 0,0 c 0,0 0,0 0,0.1 0,0.1 -0.1,0.1 -0.1,0.1 l -10.5,0 c -0.1,0 -0.1,-0.1 -0.1,-0.1 l 0,-0.1 0,0 -0.7,0 -0.7,0 -0.7,0 -0.7,0 -1,0 -0.7,0 -0.5,0 -0.8,0 -0.4,0 0,10.4 0.7,0.2 0,0 z"
       class="st4"
       inkscape:connector-curvature="0"
       style="fill:#cdcccc" /><path
       id="path5754"
       d="m 419.7,106.8 0,0 -2.8,0.8 c 0,0 0,0 -0.1,0 l 0,0 -10.5,3.1 0,0 0,0 -0.1,0 0,0 0,0 -3.4,0.8 0,0 0,0 -2.3,0.7 0,0 0,0 -1.9,0.5 0,0 0,0 -4.4,1.4 c 0,0 0,0 -0.1,0 l -15.8,4.8 0,0 0,0 -3.4,0.8 c 0,0 0,0 -0.1,0 l -3,0.8 0,0 0,0 -3.8,1.2 0,2.1 14.8,0 0,-6.1 0,0 0,0 0,0 0,0 0,0 0,0 0,0 0,0 7,-2.1 0,0 0,0 39.9,0 -0.8,-3.6 -1,-3.8 -1.2,-3.6 -7,2.2 c 0.2,0 0.2,0 0,0 z"
       class="st4"
       inkscape:connector-curvature="0"
       style="fill:#cdcccc" /><path
       id="path5756"
       d="m 374.2,433 0,-0.7 0,0 0,0 0,0 0,0 0,0 0,0 0,0 0,0 0,0 0,0 0,0 0,0 2.8,0 0,-1 -5,0 -6.1,0 -1.7,0 0,9.7 1.7,0 6.1,0 2.1,0 3.1,0 0,0 0.1,0 0,-4.8 0,-0.4 -0.4,0 c -1.5,-0.5 -2.4,-1.5 -2.7,-2.8 z"
       class="st4"
       inkscape:connector-curvature="0"
       style="fill:#cdcccc" /><path
       id="path5758"
       d="m 449.4,110.7 0,0 0,0 0,0 0,0 0,0 0,0 0,0 0,0 0,0 0,0 0,0 0,0 0,0 0,0 0,0 0,0 0,0 0,0 0,0 0,0 0,0 0,0 0,0 0,0 0,0 0,0 0,0 0,0 0,0 0,0 0,0 0,0 0,0 0,0 0,0 0,0 0,0 0,0 0,0 0,0 c 0,-0.2 0,-0.2 0,0 0,-0.2 -0.1,-0.2 0,0 l 0,0 -0.4,-0.8 0,0 0,0 0,0 0,0 0,0 0,0 0,0 0,0 0,0 0,0 0,0 0,0 0,0 0,0 0,0 0,0 0,0 0,0 0,0 0,0 0,0 0,0 0,0 0,0 0,0 0,0 0,0 0,0 0,0 0,0 0,0 -0.5,-2.3 -0.1,0 0,0 0,0 0,0 0,0 0,0 0,0 0,0 0,0 0,0 0,0 0,0 0,0 0,0 0,0 0,0 0,0 0,0 -1.2,-4.1 -2.6,0.8 0,0 0,0 0,0 0,0 0,0 0,0 0,0 0,0 0,0 0,0 0,0 0,0 0,0 0,0 0,0 0,0 0,0 0,0 0,0 0,0 -1,-3.5 -0.1,-0.4 -6.3,1.9 -0.4,0.1 c 0,0 0,0 -0.1,0 l 0,0 -3.8,1 c 0,0 0,0 -0.1,0 l -2.6,0.8 0,0.1 1.2,3.8 1.2,4.1 1,4.3 0,0 0,0 0,0 0,0 0,0 0,0 0,0 0,0 0,0 0,0 0,0 0,0 0,0 0,0.1 0.4,1.7 0,0 0,0 0,0 0,0 0,0 0,0 0,0 0,0 0,0 0,0 0,0 0,0 0,0 0,0 0,0 0,0 0,0 0,0 0,0 0,0 0,0 0,0 0,0 0,0 0,0 0,0 0,0 0,0 0,0 0,0 0,0 0,0 1,5.5 3.4,-0.7 -0.5,-2.8 0,0 0,-0.1 0,0 0,0 0,0 0,0 0,0 0,0 0,0 0,0 0,0 0,0 0.7,0 0,0 0.7,0 0,0 0.5,0.1 0,0 0.5,0.4 0,0 0.4,0.4 0,0 0.4,0.4 0,0 0.4,0.5 0,0 0.1,0.4 11.9,-2.1 1.4,-0.4 -2.1,-9.9 -3.4,0.7 0,0 z"
       class="st4"
       inkscape:connector-curvature="0"
       style="fill:#cdcccc" /><path
       id="path5760"
       d="m 364.1,411.4 0,8.4 9,0 0,0 0,0 0,0 0,0 0,0 0,0 0,0 0,0 0,-0.7 c 0.1,-1.2 1.2,-2.3 2.6,-2.6 l 0.4,0 0,-11 -4.3,0 c -0.1,0 -0.1,-0.1 -0.1,-0.1 l 0,-0.4 -6.1,0 -1.4,0 0,0.5 -0.1,5.9 0,0 z"
       class="st4"
       inkscape:connector-curvature="0"
       style="fill:#cdcccc" /><path
       id="path5762"
       d="m 438.5,123.4 c 0,0.1 0,0.1 0,0 l 0,0 c 0,0.1 0,0.1 0,0 l 0,0 0,0 0,0 0,0 0,0 0,0 0,0 0,0 0,0 0,0 -3.1,0.7 0.4,3.8 0,0 0,0 0,0 0,0 0,0.5 -0.1,11.2 0,0 0,0 c 0,0 0,0 0.1,0 l 6.5,0 c 0.1,0 0.1,0.1 0.1,0.1 l 2.6,0 c 0,-0.1 0.1,-0.1 0.1,-0.1 l 1.8,0 -0.4,-3.8 -1.4,-13.4 -2.1,0.4 -1.4,0.4 0,0 0,0 0,0 0,0 0,0 0,0 0,0 0,0 0,0 0,0 0,0 0,0 0,0 0,0 0,0 0,0 -3.1,0.2 0,0 z"
       class="st4"
       inkscape:connector-curvature="0"
       style="fill:#cdcccc" /><path
       id="path5764"
       d="m 328.9,178.5 0,0 0.1,-0.5 0,0 0,0 0,0 0,0 0,0 0,-0.4 0.1,0 0,-0.4 0,0 0,0 0,0 0,0 0,0 0,0 0,0 0,0 0,0 0,-0.4 0,0 0,0 0.1,0 0,-0.8 0,0 0,0 0,0 0,-0.4 0,0 0,-0.6 0.1,0 0,-0.4 -0.1,0 0,-0.4 0.1,0 0,-0.2 -0.1,0 0,0 0,-0.1 0,0 0,-0.1 0,0 0,-0.2 0.1,0 0,-0.4 0,0 0,-0.4 0,0 0,0 0,0 0,0 0,0 0,0 0,0 0,0 0,0 0,0 0,0 0,0 0,0 0,-0.4 0.1,0 0,-0.1 0,-0.4 0,-0.1 -0.1,0 0,-0.4 0.1,0 0,-0.7 0,0 -0.1,0 0,-0.1 0,0 0,-0.1 0,-0.1 0,-0.1 0,0 0.1,0 0,-0.4 -0.1,0 0,-0.4 0.1,0 0,0 0,0 0,0 0,0 0,0 -0.2,0 c -0.1,0 -0.1,-0.1 -0.1,-0.1 l 0,-40.9 c 0,-0.1 0.1,-0.1 0.1,-0.1 l 0.4,0 0,-0.4 0.1,0 0,-0.7 0,0 0,-0.3 -0.1,0 0,-0.1 0,0 0,-0.1 0.1,0 0,0 0,-1 0,0 0,0 -0.1,0 0,-0.4 0,-0.1 0,0 0,0 0,0 0,-0.1 c 0,0 0,0 0,-0.1 l 0,0 0,0 0,0 0,0 0,0 0,0 0,-0.1 0,0 0,-0.4 0,0 0,-0.4 0,0 0,-0.7 0,0 0,-0.7 0,0 0,-0.4 0,0 0,-0.1 0,-0.8 c 0,0 0,0 0,-0.1 l 0,0 0,0 0,0 0,0 0,-0.4 0,0 0,-0.5 0,0 0,-0.7 -0.1,0 0,-0.4 0.1,0 0,-0.5 0,0 0,0 0,0 0,0 0,0 0,0 0,0 0,0 0,0 0,0 0,0 0,0 0,0 0,-0.1 0,0 0,0 0,-0.1 -0.1,0 0,-0.4 0.1,0 0,0 0,0 0,0 0,0 0,0 0,-0.1 c 0,0 0,0 0,-0.1 l -2.6,0 0,2.5 c 0,0.1 -0.1,0.1 -0.1,0.1 l -6.1,0 0,9.6 c 0,0.1 -0.1,0.1 -0.1,0.1 l -24.8,0 0,0.8 0,0.4 0,4.4 0,0.1 0,0 0,0.1 0,0 0.8,0 c 0.1,0 0.1,0.1 0.1,0.1 l 0,1.4 c 0,0.1 -0.1,0.1 -0.1,0.1 l -0.8,0 0,4.4 0,0 0,0 0,0.7 0,0.4 0,5.1 0,0 0,0 0,0 0,3 0,0.4 0,0.4 0,0.1 0,0 0,0.1 0,6.3 0,0.4 0,0.1 0.8,0 c 0.1,0 0.1,0.1 0.1,0.1 l 0,1.4 0,0.1 0,0 0,0 c 0,0 0,0 -0.1,0 l -0.8,0 0,5.3 0,0.4 0,0.4 0,0.4 0,2.6 0,0.4 0,0.4 0,0.4 0,3.5 0,0 0,0 0,2.6 0.8,0 c 0.1,0 0.1,0.1 0.1,0.1 l 0,0.8 0,0 0,0.5 0.8,0 0,0 2.8,0 2.5,0 0.4,0 0.4,0 1.4,0 0,0 0,0 0.7,0 0,-0.5 0,-0.4 0,0 0,0 c 0,-0.1 0.1,-0.1 0.1,-0.1 l 1,0 0.1,0 0,0 0.1,0 0,0 c 0.1,0 0.1,0.1 0.1,0.1 l 0,0.8 1.2,0 0.1,0 0.5,0 0.1,0 4.4,0 0.4,0 4.8,0 0.4,0 0.1,0 0,0 0.7,0 0.1,0 0,0 0.2,0 9.1,0 0,0.4 -0.1,0 -0.3,-0.4 0,0 z"
       class="st4"
       inkscape:connector-curvature="0"
       style="fill:#cdcccc" /><path
       id="path5766"
       d="m 335.8,182.6 0,0 0,0 0.4,0 0,0 2.1,0 1.7,0 0,0 0.4,0 0,0 4.4,0 0,0 1.2,0 0,0 1.9,0 0,-0.7 c 0,-0.1 0.1,-0.1 0.1,-0.1 l 1,0 0.4,0 c 0.1,0 0.1,0.1 0.1,0.1 l 0,0.1 0,0.4 0,0.1 2.6,0 c 0.1,0 0.1,0.1 0.1,0.1 l 0,0.1 c 0.1,0 0.1,0.1 0.1,0.1 l 0,2.6 0.4,0 0.4,-0.1 0.4,-0.4 0.4,-0.4 0.4,-0.4 0.1,-0.5 0,-0.2 0,-0.4 0,-0.1 0,0 0,0 c 0,0 0,0 0.1,0 l 0,-0.1 c 0,-0.1 0.1,-0.1 0.1,-0.1 l 0.7,0 0,0 0.4,0 0,0 2.5,0 0,0 0.4,0 0,0 0.8,0 0,0 0.5,0 0,0 0.4,0 0,0 0.4,0 0,0 2.6,0 0,-6.5 0,-0.8 0,-0.4 0,-3.5 0,-0.4 0,-2.1 0,0 0,-0.4 0,0 0,-1.7 -0.8,0 c -0.1,0 -0.1,-0.1 -0.1,-0.1 l 0,-34.5 0,-1.9 0,-0.1 0,0 0.1,0 0.1,0 0,0 0,0 0.4,0 0.1,0 0,-0.3 0,-2.1 0,0 0,-0.8 -3.7,0 c -0.1,0 -0.1,-0.1 -0.1,-0.1 l 0,-4.8 -29,0 0,3 0,1.2 c 0.1,0 0.1,0.1 0.1,0.1 l 0,1.9 c 0,0.1 -0.1,0.1 -0.1,0.1 l -0.8,0 0,12.2 0.8,0 c 0.1,0 0.1,0.1 0.1,0.1 l 0,1.9 c 0,0.1 -0.1,0.1 -0.1,0.1 l -0.4,0 0,0 -0.5,0 0,10.5 0.8,0 c 0.1,0 0.1,0.1 0.1,0.1 l 0,1.9 c 0,0.1 -0.1,0.1 -0.1,0.1 l -0.8,0 0,11.9 0.8,0 c 0.1,0 0.1,0.1 0.1,0.1 l 0,1.9 c 0,0.1 0,0.1 -0.1,0.1 l 0,0.5 0,0 0,1.8 0,0.4 0,0 0,6.3 0,2.3 0,0.4 0,0.7 0,0 0,0 0.4,0 0,0 5.2,0.8 0,0 z"
       class="st4"
       inkscape:connector-curvature="0"
       style="fill:#cdcccc" /><path
       id="path5768"
       d="m 454.2,179.9 1,-5.7 0,-0.1 0.1,-0.5 0,0 -0.4,-0.1 0,0 -0.5,-0.4 0,0 -0.4,-0.4 0,0 -0.4,-0.4 0,0 -0.4,-0.5 0,0 -0.1,-0.5 0,0 -0.1,-0.7 0,0 0,-0.5 0,-0.1 0.1,0 2.8,0.4 0.1,-0.7 0.4,-4.3 0.4,-2.8 0.1,-0.8 0,0 0,-0.1 0,0 0.4,-5.1 0.4,-9.3 -1.9,0 0,1.9 c 0,0.1 -0.1,0.1 -0.1,0.1 l -3.8,0 0,0.4 0,0 -0.1,0.5 0,0 -0.7,0.4 0,0 -0.4,0.4 0,0 -0.4,0.4 0,0 -0.4,0.4 0,0 -0.5,0.1 0,0 -0.5,0 0,0 0,0 0,0.8 -0.1,3.6 2.8,0.1 0,0 0,0 0,0 0,0 0,0 0,0 c 0,0 0,0 0,0.1 l 0,0 0,0 -0.1,0.7 0,0 -0.4,0.5 0,0 -0.4,0.5 0,0 -0.4,0.4 0,0 -0.5,0.4 0,0 -0.5,0.4 0,0 -0.5,0.1 0,0 -0.6,0 -0.4,4.4 2.8,0.4 0,0 0,0 0,0 c 0,0 0,0 0.1,0 l 0,0 0,0 0,0 0,0 0,0 0,0 -0.1,0.7 0,0 -0.4,0.5 -0.4,0.5 0,0 -0.4,0.4 0,0 -0.5,0.4 0,0 -0.5,0.4 0,0 -0.7,0.1 0,0 -0.5,0 -0.7,4.4 0,0 -0.4,2.5 0,0 -0.1,0.8 0,0 0,0 0,0 0,0 0,0 0,0 0,0 0,0 0,0 0,0 0,0 0,0 0,0 0,0 0,0 0,0 0,0 0,0 0,0 0,0 0,0 0,0 0,0 0,0 0,0 0,0 0,0 0,0 0,0 0,0 0,0 0,0 0,0 0,0 0,0 -0.5,2.6 0,0 0,0 0,0 0,0 0,0 0,0 0,0 0,0 0,0 0,0 0,0 0,0 0,0 0,0 0,0 0,0 0,0 0,0 0,0 0,0 0,0 0,0 0,0 0,0 0,0 0,0 0,0 0,0 0,0 0,0 0,0 0,0 0,0 0,0 0,0 0,0 0,0 0,0 0,0 0,0 0,0 0,0 0,0 0,0 0,0 0,0 0,0 0,0 0,0 0,0 0,0 0,0 0,0 0,0 0,0 0,0 0,0 0,0 0,0 0,0 0,0 0,0 0,0 0,0 0,0 0,0 0,0 0,0 0,0 0,0 0,0 0,0 0,0 0,0.1 2.3,0.4 6.9,1.4 -0.5,0.4 z"
       class="st4"
       inkscape:connector-curvature="0"
       style="fill:#cdcccc" /><path
       id="path5770"
       d="m 443.8,178.6 0,0 -0.5,-0.4 0,0 -0.4,-0.4 0,0 -0.4,-0.4 0,0 -0.4,-0.5 0,0 -0.1,-0.5 0,0 0,-0.7 0,0 0,-0.7 0,0 0,0 0,0 c 0,0 0,0 0,-0.1 l 0,0 0,0 0,0 c 0,0 0,0 0.1,0 l 0,0 2.8,0.5 0,-0.1 -10.2,-1.8 -0.4,1.2 -0.4,2.5 -0.7,3.1 0.1,0 c 0.1,0 0.1,0.1 0.1,0.4 l -0.4,0.8 c 0,0 0,0.1 -0.1,0.1 l 0,0 -0.1,0 -0.8,3 0.1,0 c 0.1,0 0.1,0.1 0.1,0.4 l -0.4,0.8 c 0,0 0,0.1 -0.1,0.1 l -0.1,0 -0.1,0 -0.4,1.2 0.7,0.4 c 0,0 0.1,0 0.1,0.1 l 0.4,0.1 0,0 0,0 0,0 0,0 0,0 0,0 0,0 0,0 0,0 0,0 0,0 0,0 0,0 0,0 0,0 0,0 0,0 0,0 0,0 0,0 0,0 0.8,1.8 0.4,-0.1 0.4,-0.4 0.4,-0.5 0,0 0,0 0,0 c 0,0 0,0 0.1,0 l 0,0 0,0 0,0 0,0 0,0 0,0 0,0 0.8,0.4 c 0,0 0.1,0 0.1,0.1 l 0.8,1.8 0.4,-0.1 0.4,-0.4 0.4,-0.5 0,0 0,0 0,0 0,0 0,0 c 0,0 0,0 0.1,0 l 0,0 0,0 0,0 0,0 0,0 0,0 0,0 0,0 0,0 0,0 0,0 0,0 0.4,0.1 0,0 0,0 0.4,0.1 c 0,0 0.1,0 0.1,0.1 l 0.8,1.8 0.4,-0.4 0.4,-0.4 0.4,-0.5 c 0,-0.1 0.1,-0.1 0.4,-0.1 0.2,0 0.1,0.1 0.1,0.4 l -0.4,0.5 0,0 -0.2,0.6 0,0 -0.4,0.4 0,0 0,0 c 0,0 0,0 -0.1,0 -0.1,0 0,0 -0.1,0 l 0,0 0,0 0,0 0,0 -1,-1.9 -0.1,0 -1.4,4.4 0.8,0.4 0,-0.1 0,-0.1 0,0 0,0 0,0 0.1,-0.4 0,0 0,0 0,0 0,0 -0.1,-0.4 c 0,0 0,0 0,-0.1 l 0.1,-0.4 0,0 0,0 0.1,-0.4 0,0 0.4,-0.4 0,0 0,0 0.4,-0.1 0.1,0 0.4,0.1 c 0,0 0,0 0.1,0 l 0.1,0.4 0,0 0,0 0.1,0.4 0,0 0,0.4 0,0 0,0 -0.1,0.4 0,0 -0.4,0.4 -0.1,0.4 0,0 0,0 0,0 0,0 c 0,0 0,0 -0.1,0 l 0,0.1 0.8,0.4 1.4,-4.8 0,0 0,0 0,0 0,0 0,0 0,0 0,0 0,0 0,0 0,0 0,0 0,0 0,0 0,0 0,0 0,0 0,0 0,0 0,0 0,0 0,0 0,0 0,0 0,0 0,0 0,0 0,0 0,0 0,0 0,0 0,0 0,0 0,0 0,0 0,0 0,0 0,0 0,0 0,0 0,0 0,0 0,0 0,0 0,0 0,0 0,0 0,0 0,0 0,0 0,0 0,0 0,0 0,0 0,0 0,0 0,0 0,0 0,0 0,0 0,0 0,0 0,0 0,0 0,0 0,0 0,0 0,0 0,0 0,0 0,0 0,0 0,0 0,0 0,0 0,0 0,0 0,0 0,0 0,0 0,0 0,0 c 0,0 0,0 0.1,0 l 0,0 0.4,0.1 0.4,-0.8 -0.4,-0.1 0,0 c -0.1,0 -0.1,-0.1 -0.1,-0.1 l 0,0 0,0 0,0 0,0 0,0 1.7,-6 0,0 0,0 0,0 0,0 c 0,-0.1 0.1,-0.1 0.4,-0.1 l 0,0 0,0 0,0 0.4,0.1 0.8,-3.4 -0.4,0 -0.4,1.2 0,0 0,0 0,0 0,0.1 c 0,0 0,0 -0.1,0.1 l -0.1,0 0,0 0,0 0,0 -1.4,-0.4 0,0 0,0 -0.1,0 -0.1,-0.1 0,-1 0,0 0,0 0.4,-1.2 -0.1,0 -0.4,1.2 0,0 0,0 0,0 0,0.1 -0.1,0.1 -0.1,0 0,0 0,0 -1.4,-0.4 0,0 0,0 -0.1,0 c 0,0 0,0 -0.1,-0.1 l 0,-0.1 0,0 0,0 0,0 0.4,-1.2 0,0 -0.1,0 -0.4,1.2 0,0 0,0 0,0.1 -0.1,0.1 0,0 0,0 0,0 -1.4,-0.4 0,0 0,0 0,0 0,0 0,0 0,0 0,0 c 0,0 0,0 0,-0.1 l 0,-0.1 0,0 0,0 0.4,-1.2 -0.1,0 0,0 0,0 c 0,0 0,0 -0.1,0 l 0,0 0,0 0,0 0,0 0,0 0,0 0,0 0,0 0,0 0,0 0,0 0,0 0,0 0,0 0,0 0,0 0,0 0,0 0,0 0,0 0,0 0,0 0,0 0,0 0,0 0,0 0,0 0,0 0,0 0,0 0,0 0,0 0,0 0,0 0,0 0,0 0,0 0.1,-0.5 c 0,0 0,0 0,-0.1 l 0,0 0,0 0,0 0,0 0,0 0,0 0,0 0,0 0,0 0,0 0,0 0,0 0,0 0,0 0,0 0,0 0,0 0,0 0,0 0,0 0,0 0,0 0,0 0,0 0,0 0,0 0,0 0,0 0,0 0,0 6.9,1.2 0,0 -2.2,-0.7 z"
       class="st4"
       inkscape:connector-curvature="0"
       style="fill:#cdcccc" /><path
       id="path5772"
       d="m 432.9,128.3 0,0 0,0 0,0 c -0.1,0 -0.1,0 0,0 l 0,0 0,0 0,0 0,0 -0.8,-4.9 -0.8,-4.8 -17.6,0 0.1,0.4 0,0 c 0,0 0,0 0,0.1 l 0.1,0.5 0,0 0,0 0.1,0.5 0,0 c 0,0 0,0 0,0.1 l 0.4,1.8 0.8,3.8 0.8,3.8 0.7,3.8 0.5,3.8 0.4,3.8 0.4,3.8 0.1,3.8 0,3.8 -0.1,3.8 -0.4,3.8 -0.4,3.8 -0.5,3.8 -0.7,3.8 -0.8,3.8 -0.8,3.8 -0.8,3.8 -1,3.4 1,0.4 0.1,0 0,0 4.4,1.4 0.1,0 0,0 1,0.4 0.1,0 0,0 0.8,0.4 0,0 0.1,0 0,0 0,0 1.2,0.4 0,0 4.4,1.4 0.1,0 0,0 1,0.4 1.2,-3.6 1,-3.8 1,-3.8 0.8,-3.8 0.8,-3.8 0.7,-4.1 0,0 0,0 0,0 0,0 0,0 0,0 c 0,0 0,0 0.1,0 l 0,0 1.7,0 0,-40.3 -1.3,0.5 0,0 z"
       class="st4"
       inkscape:connector-curvature="0"
       style="fill:#cdcccc" /><path
       id="path5774"
       d="m 313.2,117.8 0,0 -6,0 0,0.8 c 0,0.1 -0.1,0.1 -0.1,0.1 l -1.7,0 c -0.1,0 -0.1,-0.1 -0.1,-0.1 l 0,-0.4 0,-0.5 -3.4,0 -0.1,0 0,0 0,0 -0.4,0 -0.1,0 -5.1,0 0,0.1 0,0.1 0,0 0,1.2 c 0,0.1 -0.1,0.1 -0.1,0.1 l -0.8,0 0,0 0,6.9 0,0.4 0,3 24.3,0 0,-11.9 -4.1,0 -0.1,0 -2.2,0.2 0,0 z"
       class="st4"
       inkscape:connector-curvature="0"
       style="fill:#cdcccc" /><path
       id="path5776"
       d="m 339.3,325.7 c -0.1,0.1 -0.1,0.1 -0.4,0 l -0.7,-0.7 -3,0 0,7.9 3.4,0 3.1,0 3,0 0,-0.4 -0.7,-0.7 0,-0.1 0,-0.1 0.7,-0.7 0,-2.6 -0.4,0 0,0 -0.5,-0.1 0,0 -0.5,-0.4 0,0 -0.4,-0.4 0,0 -0.4,-0.4 0,0 -0.4,-0.5 0,0 -0.1,-0.5 0,0 0,-0.7 0,-0.3 -1.5,0 -1.2,0.7 z"
       class="st4"
       inkscape:connector-curvature="0"
       style="fill:#cdcccc" /><path
       id="path5778"
       d="m 374.3,387.3 0.7,0 0,0 0,0 0,0 0,0 0,0 0,0 0,0 0,0 0,0 0,0 0,0 0,0 0,2.8 0,0 c 0,0 0,0 0.1,0 l 0,-5.6 -0.8,0 -5.6,0 c -0.1,0 -0.1,-0.1 -0.1,-0.1 l 0,-0.4 c 0,-0.1 0.1,-0.1 0.1,-0.1 l 5.5,0 0,-5.1 -15.3,0 0,11.2 12.9,0 0,-0.4 c 0.2,-1 1.1,-2.2 2.5,-2.3 z"
       class="st4"
       inkscape:connector-curvature="0"
       style="fill:#cdcccc" /><path
       id="path5780"
       d="m 374.3,387.3 0.7,0 0,0 0,0 0,0 0,0 0,0 0,0 0,0 0,0 0,0 0,0 0,0 0,0 0,2.8 0,0 c 0,0 0,0 0.1,0 l 0,-5.6 -0.8,0 -5.6,0 c -0.1,0 -0.1,-0.1 -0.1,-0.1 l 0,-0.4 c 0,-0.1 0.1,-0.1 0.1,-0.1 l 5.5,0 0,-5.1 -15.3,0 0,11.2 12.9,0 0,-0.4 c 0.2,-1 1.1,-2.2 2.5,-2.3 z"
       class="st4"
       inkscape:connector-curvature="0"
       style="fill:#cdcccc" /><path
       id="path5782"
       d="m 341.8,387.3 -0.7,0 0,0 0,0 0,0 0,0 0,0 0,0 0,0 0,0 0,0 0,0 0,0 0,0 0,2.8 0,0 c 0,0 0,0 -0.1,0 l 0,-5.6 0.8,0 5.6,0 c 0.1,0 0.1,-0.1 0.1,-0.1 l 0,-0.4 c 0,-0.1 -0.1,-0.1 -0.1,-0.1 l -5.6,0 0,-5.1 15.7,0 0,11.2 -13.1,0 0,-0.4 c -0.2,-1 -1.2,-2.2 -2.6,-2.3 z"
       class="st4"
       inkscape:connector-curvature="0"
       style="fill:#cdcccc" /><path
       id="path5784"
       d="m 341.8,387.3 -0.7,0 0,0 0,0 0,0 0,0 0,0 0,0 0,0 0,0 0,0 0,0 0,0 0,0 0,2.8 0,0 c 0,0 0,0 -0.1,0 l 0,-5.6 0.8,0 5.6,0 c 0.1,0 0.1,-0.1 0.1,-0.1 l 0,-0.4 c 0,-0.1 -0.1,-0.1 -0.1,-0.1 l -5.6,0 0,-5.1 15.7,0 0,11.2 -13.1,0 0,-0.4 c -0.2,-1 -1.2,-2.2 -2.6,-2.3 z"
       class="st4"
       inkscape:connector-curvature="0"
       style="fill:#cdcccc" /><path
       id="path5786"
       d="m 342.9,318.2 -0.8,-0.8 -2.1,0 -0.8,0.8 c -0.1,0.1 -0.1,0.1 -0.4,0 l -0.8,-0.8 -2.8,0 0,6.9 0.8,0 0.8,-0.8 c 0.1,-0.1 0.1,-0.1 0.4,0 l 0.8,0.8 2.1,0 0.8,-0.8 c 0.1,-0.1 0.1,-0.1 0.4,0 l 0.4,0.4 0,-0.1 0,0 0.1,-0.5 0,0 0.4,-0.5 0,0 0.4,-0.4 0,0 0.4,-0.4 0,0 0.5,-0.4 0.5,-0.1 0,0 0.4,0 0,0 -0.8,-0.8 c -0.1,-0.1 -0.1,-0.1 0,-0.4 l 0.8,-0.8 0,-1.9 -0.8,0 -0.7,0.6 c 0,0.1 0,0.1 0,0 z"
       class="st4"
       inkscape:connector-curvature="0"
       style="fill:#cdcccc" /><path
       id="path5788"
       d="m 341.1,378 0,0 0,0 0,0 0,0 0,0 0,0 0,0 17.6,0 0,0 0,0 0,0 0,0 0,0 0,0 0,0 0,0 9.3,0 0,0 0,0 0,0 0,0 0,0 0,0 0,0 0,0 6.5,0 c 0,-0.1 0.1,-0.1 0.1,-0.1 0,0 0.1,0 0.1,0.1 l 0.4,0 0.8,0 0,-11.4 -0.8,0 -34.3,0 0,1.4 c 0,0.1 -0.1,0.1 -0.1,0.1 l 0,0 0,0 0,3.1 0,0.1 0,3.1 0,0.1 c 0,0.1 -0.1,0.1 -0.1,0.1 l 0,2.6 c 0,0 0,0 0.1,0 l 0,0 0,0 0,0 0,0 0,0 0,0 0.4,0.8 0,0 z"
       class="st4"
       inkscape:connector-curvature="0"
       style="fill:#cdcccc" /><path
       id="path5790"
       d="m 381.1,342.2 0.8,0 0.7,-0.7 c 0.1,-0.1 0.1,-0.1 0.4,0 l 0.7,0.7 2.1,0 0.8,-0.8 c 0.1,-0.1 0.1,-0.1 0.4,0 l 0.8,0.8 2.5,0 0,-4.9 0,0 0,-0.7 0,0 0,-0.7 0,-0.7 0,0 0,-0.7 0,-0.5 0,0 0,-0.7 0,0 0,-0.1 -14.9,0 0,1.7 2.8,0 0,0 0,0 0,0 0,0 0,0 0,0 0,0 0,0 0,0 0,0 0,0 0,0 0,0 0,0 0,0 0,0 c 0,0 0,0 0,0.1 l 0,0 0,0 0,0 0,0 0,0 0,0 0,0 0,0 0,0 0,0.7 0,0 -0.1,0.5 -0.4,0.5 0,0 -0.4,0.4 0,0 -0.4,0.4 0,0 -0.5,0.4 0,0 -0.5,0.1 0,0 -0.7,0 0,4.4 3.1,0 c 0.1,0 0.1,0.1 0.1,0.1 l 2.7,0 c -0.1,0 -0.1,-0.3 0,-0.3 z"
       class="st4"
       inkscape:connector-curvature="0"
       style="fill:#cdcccc" /><path
       id="path5792"
       d="m 369.3,264.7 0,-1.4 -0.1,0 c -0.1,0 -0.1,-0.1 -0.1,-0.1 l 0,-5.1 C 369,258.1 369,258 369,258 l 0,-7.5 -2.8,0 -5.1,0 0,16.6 0.1,0 0,-2.8 0,-0.1 0.1,0 0.5,0 0,0 0.5,0.1 0,0 0.5,0.4 0,0 0.4,0.4 0,0 0.4,0.4 0,0 0.4,0.5 0,0 0.1,0.5 0,0 0,0.4 0.4,0 0,-0.6 c 0,-0.1 0.1,-0.1 0.1,-0.1 l 1.4,0 0,0 0,0 0,0 c 0,0 0,0 0,-0.1 l 0,-1.7 c 0,0 0,0 0,-0.1 l 0,0 0.1,-0.1 0,0 0,0 0,0 0,0 0,0 0,0 0,0 0,0 0,0 0,0 0,0 0,0 0,0 0,0 1.7,0 0,0 0,0 0,0 0,0 0,0 0.1,0 c 0,0 0,0 0,0.1 l 0,0 0,0 0,0 0,0 0,0 0,1.7 0,0 0,0 0,0 0,0 0,0 0.8,0 0,-1.7 0.6,0.4 0,0 z"
       class="st4"
       inkscape:connector-curvature="0"
       style="fill:#cdcccc" /><path
       id="path5794"
       d="m 387.7,194.7 -0.7,0 -0.8,0 -0.7,0 -0.7,0 -0.8,0 -0.8,0 -0.7,0 -0.4,0 -0.7,0 -0.7,0 0,10.9 0,5.1 0,5.6 0,5.1 0,0.5 0,5.1 0,0.5 0,4.1 0,6.9 5.7,0 0,-0.5 0,0 0.1,-0.5 0,0 0.4,-0.5 0,0 0.4,-0.4 0,0 0.4,-0.4 0,0 0.5,-0.4 0,0 0.5,-0.1 0,0 0.7,0 0,0 0,0 0,0 0,0 0,0 c 0,0 0,0 0.1,0 l 0,0 0,0 0,0 0,0 0,0 0,0 0,-1.1 0,-1 0,0 0,-0.7 0,-0.9 0,-0.7 0,0 0,-10 0,-0.8 0,0 0,-0.7 0,-0.8 0,-0.7 0,0 0,-0.6 0,-0.8 0,0 0,-0.7 0,-0.7 0,-0.8 0,0 0,-0.7 0,-0.3 0,-0.7 0,0 0,-0.1 0,-0.7 0,0 0,-0.7 0,-0.8 0,-0.7 0,0 0,-0.5 0,-4.1 0,-1 0,-4.4 0,-0.4 0,-0.6 0,0 0,-0.5 0,-0.7 0,-1.2 0,0 0,-0.7 0,-0.9 0,0 0,-0.2 -0.7,0 -0.7,0 -0.4,-0.1 0,0 0,0 z"
       class="st4"
       inkscape:connector-curvature="0"
       style="fill:#cdcccc" /><path
       id="path5796"
       d="m 379.8,474.6 0,0 0,0 0,0 c 0,-0.1 0,-0.1 0,0 l 0,0 0,0 0,0 0,0 0,0 0,0 0,0 0,0 0,-0.7 c 0.4,-0.8 1,-1.4 1.9,-1.8 -0.8,-0.4 -1.4,-1 -1.7,-2.1 l 0,-0.7 0,-0.1 0.1,0 2.5,0.4 1.4,-10.8 -11,-1.8 -19,0 -11,1.8 1.4,10.8 2.3,-0.4 0,0 0,0 0,0 0,0 0,0 0,0 0,0 0,0 0,0 0,0 0,0 0,0 0,0.7 c -0.1,0.8 -0.7,1.8 -1.7,2.1 0.8,0.4 1.7,0.8 1.9,1.8 l 0.1,0.5 0,0 0,0 0,0 0,0 0,0 0,0 0,0 0,0 0,0 0,0 0,0 0,0 -2.3,0.4 0.4,2.1 2.6,0 c 0.1,0 0.1,0.1 0.1,0.1 l 0,0.1 0,0 0,0 0,0 0,0 0,0 0,0 c 0,0 0,0 0,0.1 l 5.7,0 c 0,0 0,0 0,-0.1 l 0,0 0,0 0,0 0,0 0,0 0,0 0,-0.1 c 0,-0.1 0.1,-0.1 0.1,-0.1 l 27.3,0 0.4,-2.1 -1.5,-0.1 0,0 z"
       class="st5"
       inkscape:connector-curvature="0"
       style="fill:#3a65b0" /><path
       id="path5798"
       d="m 355.8,297.8 0,0 0.1,-0.7 0,0 0.4,-0.5 0,0 0.4,-0.4 0,0 0.4,-0.4 0,0 0.5,-0.4 0,0 0.5,-0.1 0,0 0.7,0 0.1,0 0,0 0.1,-0.1 0,-2.3 -0.7,-0.7 c -0.1,-0.1 -0.1,-0.1 0,-0.4 l 0.7,-0.7 0,-2.3 -0.7,-0.7 0,-0.1 0,-0.1 0.7,-0.7 0,-3.6 -1,0 -0.7,0.7 c -0.1,0.1 -0.1,0.1 -0.4,0 l -0.7,-0.7 -2.1,0 -0.7,0.7 c -0.1,0.1 -0.1,0.1 -0.4,0 l -0.7,-0.7 -2.6,0 0,0.1 0.7,0.7 c 0.1,0.1 0.1,0.1 0,0.4 l -0.7,0.7 0,2.1 0.7,0.7 c 0.1,0.1 0.1,0.1 0,0.4 l -0.7,0.7 0,2.1 0.7,0.7 c 0.1,0.1 0.1,0.1 0,0.4 l -0.7,0.7 0,2.1 0.7,0.7 c 0.1,0.1 0.1,0.1 0,0.4 l -0.7,0.7 0,1 0.8,0 0.8,-0.8 c 0.1,-0.1 0.1,-0.1 0.4,0 l 0.8,0.8 3.3,-0.4 0,0 z"
       class="st4"
       inkscape:connector-curvature="0"
       style="fill:#cdcccc" /><path
       id="path5800"
       d="m 341.1,193.4 0.7,0 0,0 0.4,0 -0.1,-0.1 c 0,-0.1 0.1,-0.1 0.1,-0.1 l 4.8,0 c 0.1,0 0.1,0.1 0.1,0.1 0,0 0,0.1 -0.1,0.1 l 0.4,0 0,0 0.7,0 0,0 0.7,0 0,0 0.4,0 -0.1,-0.1 c 0,-0.1 0.1,-0.1 0.1,-0.1 l 4.8,0 c 0.1,0 0.1,0.1 0.1,0.1 0,0 0,0.1 -0.1,0.1 l 0.4,0 0,0 1.4,0 0,0 0.4,0 -0.1,-0.1 c 0,-0.1 0.1,-0.1 0.1,-0.1 l 4.8,0 c 0.1,0 0.1,0.1 0.1,0.1 0,0 0,0.1 -0.1,0.1 l 0.4,0 0,0 1.4,0 0,0 0.4,0 -0.1,-0.1 c 0,-0.1 0.1,-0.1 0.1,-0.1 l 4.8,0 c 0.1,0 0.1,0.1 0.1,0.1 0,0 0,0.1 -0.1,0.1 l 0.4,0 0,0 1.4,0 0,0 0.4,0 -0.1,-0.1 c 0,-0.1 0.1,-0.1 0.1,-0.1 l 4.8,0 c 0.1,0 0.1,0.1 0.1,0.1 0,0 0,0.1 -0.1,0.1 l 0.5,0 0,0 0.7,0 0,0 0.8,0 -0.1,-0.1 c 0,-0.1 0.1,-0.1 0.1,-0.1 l 4.8,0 c 0.1,0 0.1,0.1 0.1,0.1 0,0 0,0.1 -0.1,0.1 l 0.5,0 0,0 0.7,0 0,0 0.8,0 -0.1,-0.1 c 0,-0.1 0.1,-0.1 0.1,-0.1 l 4.7,0 0,-4.4 0,-0.7 0,-0.7 0,0 0,-0.7 0,-0.6 0,0 0,-0.7 0,-1 0,-0.7 0,0 0,-0.7 0,-0.7 0,0 0,-0.3 0,0 0,0 -11.4,-3.5 0,0 0,0 -0.4,-0.1 0,0 -2.1,-0.7 0,0 0,0 -10.8,-3.4 0,0 0,1.7 0,0.7 0,0.4 0,0.1 0,0.4 0,6.3 c 0,0.1 -0.1,0.1 -0.1,0.1 l -0.5,0 -2.6,0 0,0 0,0 0,0 -6.3,0 0,0.4 0,0 -0.1,0.5 0,0 -0.4,0.4 0,0 0.8,0.4 0,0 -0.5,0.4 0,0 -0.5,0.1 0,0 -0.5,0 c 0,0 0,0 -0.1,0 l 0,0 0,0 c 0,0 0,0 -0.1,0 l 0,0 0,0 0,0 0,0 0,0 0,0 0,0 c 0,0 0,0 0,-0.1 l 0,0 0,0 0,0 0,-2.4 -0.5,0 -0.2,0 -1.2,0 -0.1,0 -11,0 0,0 0,0 0,0 -0.5,0 0,0 -3.4,0 0,0 0,0 0,0.7 0,0 0,8.6 4.7,0 c 0.1,0 0.1,0.1 0.1,0.1 0,0 0,0.1 -0.1,0.1 l 0.4,0.2 0,0 z"
       class="st4"
       inkscape:connector-curvature="0"
       style="fill:#cdcccc" /><path
       id="path5802"
       d="m 364.6,298.3 0,0 0,0 0,0 0,0 0,0 0,0 0,0 c -0.1,0 -0.1,0 0,0 l 0,0 0,0 0,0 0,0 0,0 0,0 0,0 0,0 0,0 0,0 0,0 0,0 0,0 0,0 0,0 0,0 -0.1,-0.7 0,0 0.1,-0.5 0,0 0.4,-0.5 0,0 0.4,-0.4 0,0 0.4,-0.4 0,0 0.5,-0.4 0,0 0.5,-0.1 0,0 0.4,0 0,-13.5 -7.4,0 0,0 0,4.4 0.7,0.7 c 0.1,0.1 0.1,0.1 0,0.4 l -0.7,0.7 0,2.3 0.7,0.7 c 0.1,0.1 0.1,0.1 0,0.4 l -0.7,0.7 0,2.3 0.7,0.7 c 0.1,0.1 0.1,0.1 0,0.4 l -0.7,0.7 0,3.5 7.5,0 0,0 -2.6,0 c 0.2,-1.4 0.2,-1.4 -0.1,-1.4 z"
       class="st4"
       inkscape:connector-curvature="0"
       style="fill:#cdcccc" /><path
       id="path5804"
       d="m 382.9,436.9 0,-0.5 -4.8,0 0,4.4 0,0.8 c 0,0.1 -0.1,0.1 -0.1,0.1 l -1.1,0 0,0 -3.1,0 -2.1,0 -6.1,0 -15.3,0 -6.5,0 -2.6,0 0.8,8.1 11,-1.8 0,0 0,0 20.9,0 0,0 11,1.8 0.8,-8.1 -2.6,0 0,0 c -0.1,0 -0.1,-0.1 -0.1,-0.1 l 0,-0.8 0,-0.8 c 0,-0.1 0.1,-0.1 0.1,-0.1 l 0.1,0 0,-2.6 -0.1,0 0,0 c 0.1,-0.3 -0.2,-0.3 -0.2,-0.4 z"
       class="st5"
       inkscape:connector-curvature="0"
       style="fill:#3a65b0" /><path
       id="path5806"
       d="m 393.2,181.7 0,0 c 0.1,0 0.1,0 0,0 l 1,0.4 0,0 0.1,0 0,0 0,0 0,0 0,0 0,0 3.4,0.8 0,0 0,0 0.7,0.4 c 0,0 0,0 0.1,0 l 1,0.4 0,0 0,0 1.4,0.4 0,0 0,0 1.7,0.4 0.1,0 0,0 2.5,0.8 0,0 0,0 0.4,0.1 0,0 0,0 0,0 1.7,0.4 0.1,0 0,0 0,0 0.4,0.1 0.1,0 0,0 0.4,0.1 0.1,0 0,0 1.4,0.4 0.8,-3.4 0.8,-3.8 0.8,-3.8 0.7,-3.8 0.7,-3.8 0.5,-3.8 0.4,-3.8 0.4,-3.8 0.1,-3.8 0,-3.6 -0.1,-3.8 -0.4,-3.8 -0.4,-3.8 -0.5,-3.8 -0.7,-3.8 -0.8,-3.8 -0.8,-3.8 -0.8,-3.6 -17.6,0 0.1,0.4 0,0 c 0,0 0,0 0,0.1 l 0.1,0.4 c 0,0 0,0 0,0.1 l 0,0.1 0.1,0.5 0,0 c 0,0 0,0 0,0.1 l 0.1,0.4 c 0,0 0,0 0,0.1 0,0.1 0,0.1 0,0.1 l 0.4,0.7 0.8,3.4 0.8,3.4 0.7,3.5 0,0 0,0 0,0 0,0 0,0 c 0,0 0,0 -0.1,0 l 0,0 0,0 0,0 0,0 -2.1,0 0.4,1.7 0.5,3.4 0.4,3.4 0.4,3.4 0.1,3.5 0.1,3.4 0,3.5 -0.1,3.4 -0.4,3.4 -0.4,3.4 -0.5,3.4 -0.7,3.4 -0.8,3.4 -0.8,3.6 c 0,0 0,0 0,0.1 0,0.1 0,0 0,0.1 l -0.8,2.6 1.7,0.5 c 0.3,0 0.3,0 0.3,0 z"
       class="st4"
       inkscape:connector-curvature="0"
       style="fill:#cdcccc" /><path
       id="path5808"
       d="m 378.1,270.9 0,0 -0.1,-0.4 c 0,0 0,0 0,-0.1 l 0,0 0,0 0,0 0,0 0,0 0,0 0.4,0 -0.2,0 c 0,0 0,0 -0.1,0 l -0.1,-0.1 c 0,0 0,0 0,-0.1 l 0,-0.4 c 0,0 0,0 0,-0.1 l 0,-0.4 c 0,0 0,0 0,-0.1 l 0.1,-0.1 c 0,0 0,0 0.1,0 l 0.4,0 c 0,0 0,0 0.1,0 l 0.4,0 c 0,0 0,0 0.1,0 l 0.1,0.1 0.4,0 0,0 -0.1,0 -0.1,0.1 c 0,0 0,0 -0.1,0 l -0.4,0 c 0,0 0,0 -0.1,0 l -0.4,0 -0.2,0 -0.1,-0.1 0,0 -0.1,-0.4 0,-0.1 0.1,-0.4 0,0 0.1,-0.1 c 0,0 0,0 0.1,0 l 0,0 -2.8,0 c -0.1,0 -0.1,-0.1 -0.1,-0.1 l -4.8,0 c 0,0.1 -0.1,0.1 -0.1,0.1 l -0.8,0 0,1.4 c 0,0.1 -0.1,0.1 -0.1,0.1 l -1.5,0 c -0.1,0 -0.1,-0.1 -0.1,-0.1 l 0,-1.4 -1.4,0 c 0,0 0,0 0.1,0 l 0,0 0,0 0,0 0,0.1 0,0 0,0.1 0,0.1 0,0 0,0.1 0,0 0,0 0,0 c 0,0 0,0 -0.1,0 l 0,0 -0.1,0 c 0,0 -0.1,0 -0.4,0 -0.3,0 -0.4,0 -0.4,0 l -0.1,0.1 0,0 0,0 0,0 c -0.1,0.1 -0.1,0.1 -0.4,0 0,0 0,0 0,-0.1 l 0,0 0,0.1 c -0.1,0.1 -0.1,0.1 -0.4,0 l 0,0 c 0,0 0,0 0,-0.1 l -0.1,-0.4 0,0 0,-0.2 0,0 0,-0.1 0,-0.1 0,0 -1.2,0 c -0.1,0 -0.1,-0.1 -0.1,-0.1 l -2.7,0 c 0,0.1 -0.1,0.1 -0.1,0.1 l -0.8,0 0,0.7 0.7,0.7 0,0.1 0,0.1 -0.7,0.7 0,2.3 0.7,0.7 c 0.1,0.1 0.1,0.1 0,0.4 l -0.7,0.7 0,2.6 c 0,0.1 -0.1,0.1 -0.1,0.1 l -0.1,0 0,2.6 0.1,0 c 0.1,0 0.1,0.1 0.1,0.1 l 0,0.5 0.5,0.5 7.5,0 c 0.1,0 0.1,0.1 0.1,0.1 l 0,14.5 c 0,0.1 -0.1,0.1 -0.1,0.1 l 0,0 0,2.6 0,0 c 0.1,0 0.1,0.1 0.1,0.1 l 0,0.8 c 0,0.1 -0.1,0.1 -0.1,0.1 l -8.3,0 c -0.1,0 -0.1,-0.1 -0.1,-0.1 l -2.6,0 c 0,0.1 -0.1,0.1 -0.1,0.1 l -1.4,0 -0.7,0.7 c -0.1,0.1 -0.1,0.1 -0.4,0 l -0.7,-0.7 -2.6,0 0,0.8 c 0,0.1 -0.1,0.1 -0.1,0.1 l 0,2.6 c 0.1,0 0.1,0.1 0.1,0.1 l 0,0.7 1.7,0 c 0,0 0,0 0.1,0 l 0,0 0,0 0,0 0,0 0,0 0,0 2.6,0 0,0 0,0 0,0 0,0 0,0 0,0 c 0,0 0,0 0.1,0 l 13.7,0 c 0.1,0 0.1,0.1 0.1,0.1 l 0,0.7 c 0,0.1 -0.1,0.1 -0.1,0.1 l 0,0 0,2.6 0,0 c 0.1,0 0.1,0.1 0.1,0.1 l 0,10 c 0,0.1 -0.1,0.1 -0.1,0.1 l 0,0 0,2.6 0,0 c 0.1,0 0.1,0.1 0.1,0.1 l 0,7.5 c 0,0.1 -0.1,0.1 -0.1,0.1 l 0,2.6 c 0.1,0 0.1,0.1 0.1,0.1 l 0,5.5 0,0 0,4.3 c 0,0.1 -0.1,0.1 -0.1,0.1 l 0,2.6 c 0.1,0 0.1,0.1 0.1,0.1 l 0,8.6 0.4,0 0,0 0.7,0 c 0.1,0 0.1,0.1 0.1,0.1 l 0,0.1 c 0.1,0 0.1,0.1 0.1,0.1 l 3.1,0 c 0,-0.1 0.1,-0.1 0.1,-0.1 l 0,-0.1 c 0,-0.1 0.1,-0.1 0.1,-0.1 l 0.5,0 0,0 0.4,0 0,-4.8 c 0,-0.1 0.1,-0.1 0.1,-0.1 l 0,-2.6 c -0.1,0 -0.1,-0.1 -0.1,-0.1 l 0,-7 c 0,-0.1 0.1,-0.1 0.1,-0.1 l 0,-2.6 c -0.1,0 -0.1,-0.1 -0.1,-0.1 l 0,-7 c 0,-0.1 0.1,-0.1 0.1,-0.1 l 0,-2.6 c -0.1,0 -0.1,-0.1 -0.1,-0.1 l 0,-7 c 0,-0.1 0.1,-0.1 0.1,-0.1 l 0,-2.6 c -0.1,0 -0.1,-0.1 -0.1,-0.1 l 0,-7.4 c 0,-0.1 0.1,-0.1 0.1,-0.1 l 0,-2.6 c -0.1,0 -0.1,-0.1 -0.1,-0.1 l 0,-6.9 c 0,-0.1 0.1,-0.1 0.1,-0.1 l 0,-2.6 c -0.1,0 -0.1,-0.1 -0.1,-0.1 l 0,-7.5 c 0,-0.1 0.1,-0.1 0.1,-0.1 l 0,-2.6 c -0.1,0 -0.1,-0.1 -0.1,-0.1 l 0,-3.4 c 0,-0.1 0.1,-0.1 0.1,-0.1 l 4.4,0 0.4,0 0,0 1.2,0 0,-8.4 0,-0.6 -2.8,-0.5 0,0 z"
       class="st4"
       inkscape:connector-curvature="0"
       style="fill:#cdcccc" /><path
       id="path5810"
       d="m 369.3,245.1 10.4,0 0,-6 0,-7.5 0,-4.1 0,-0.7 0,-5.1 0,-0.5 0,-4.9 0,-5.6 0,-4.9 0,-10.5 -44.3,0 0,50.3 33.8,0 c 0.1,-0.5 0.1,-0.5 0.1,-0.5 z"
       class="st4"
       inkscape:connector-curvature="0"
       style="fill:#cdcccc" /><path
       id="path5812"
       d="m 328.5,113 c 0,-0.1 0.3,-0.1 0,0 l 0.4,-0.1 0,-9.9 c 0,-0.1 0.1,-0.1 0.1,-0.1 l 0.1,0.1 0,9.9 25.6,0 0,-16.5 -25.6,-12.3 0,9.7 c 0,0.1 -0.1,0.1 -0.1,0.1 l -0.1,-0.1 0,-9.9 0,0 0,0 0,0 0,0 0,0 0,0 0,0 21.2,0 c 0.1,0 0.1,0.1 0.1,0.1 0,0.1 -0.1,0.1 -0.1,0.1 l -20.2,0 25,12.3 25,-12.3 -20.2,0 c -0.1,0 -0.1,-0.1 -0.1,-0.1 0,-0.1 0.1,-0.1 0.1,-0.1 l 21,0 0,0 0,0 0,0 0,0 0,0 0,0 0,0 0,0 0,0 0,0 0,12.1 c 0,0.1 -0.1,0.1 -0.1,0.1 l -0.1,-0.1 0,-11.7 -25.7,12.2 0,16.5 9.9,0 c 0.1,0 0.1,0.1 0.1,0.1 l 0,8.7 15.5,-4.7 0,-11.9 c 0,-0.1 0.1,-0.1 0.1,-0.1 0.1,0 0.1,0.1 0.1,0.1 l 0,11 1.4,-3.6 0,-30.6 -54.9,0 0,34.3 0.8,0 0.7,-3.3 0,0 z m 52.1,-10.2 0,0 c 0,0.2 0,0.2 0,0 l 0,3.6 c 0,0 0,0 0,0.1 0,0 0,0 0,0.1 l 0,1.4 c 0,0.1 -0.1,0.1 -0.1,0.1 l -8.1,0 c -0.1,0 -0.1,-0.1 -0.1,-0.1 l 0,-1.4 c 0,0 0,0 0,-0.1 0,0 0,0 0,-0.1 l 0,-3.5 c 0,0 0,0 0,-0.1 0,0 0,0 0,-0.1 l 0,-4.4 c 0,-0.1 0.1,-0.1 0.1,-0.1 l 8.1,0 c 0.1,0 0.1,0.1 0.1,0.1 l 0,4.5 z"
       class="st4"
       inkscape:connector-curvature="0"
       style="fill:#cdcccc" /><path
       id="path5814"
       d="m 385.9,127 -20.8,0 0,1.4 0,0.4 0,0.5 0,0.4 0,0.8 0,0 0,0 0,0.4 0,1.8 0,0.4 0,0.8 0,0.4 0,0.7 0,0.4 0,1.8 0,10.8 0,0.1 0,0 0,0.1 0,4.8 0,0.4 0,2.1 0,0 0,0 0,0 0,3.4 0,0.4 0,3.8 0,0 0,0.1 0,0 0,0 0,3.8 0,0.4 0,2.1 0,0.7 0,0.4 0,2.6 0,0 3.1,0.8 0.1,0 0,0 0,0 0.1,0 1.7,0.5 0.1,0 0.1,0 0.5,0.1 0,0 0,0 0.4,0.1 0.1,0 0,0 1.9,0.5 0,0 0,0 0.1,0 0,0 0,0 1,0.4 0.1,0 0,0 0.8,0.4 0,0 c 0,0 0,0 0.1,0 l 0,0 0.4,0.1 0.1,0 0,0 1.8,0.5 0.1,0 0,0 0.4,0.1 0.4,0 0,0 2.1,0.7 0,0 0,0 c 0,0 0,0 0.1,0 l 0.4,0.1 0,0 0,0 1.8,0.5 0,0 0,0 1.4,0.4 0.1,0 0,0 0.7,0.4 0.1,0 0,0 1,0.4 0.8,-3.1 0.8,-3.4 0.7,-3.4 0.7,-3.4 0.5,-3.4 0.4,-3.4 0.4,-3.4 0.1,-3.4 0,-3.4 -0.1,-3.4 -0.4,-3.4 -0.4,-3.4 -0.4,-3.4 -0.7,-3.4 -0.7,-3.4 -0.8,-3.4 -0.8,-3.4 -0.7,-2.1 0,5.7 c 0.3,1.6 0.3,1.7 0.3,1.7 z"
       class="st4"
       inkscape:connector-curvature="0"
       style="fill:#cdcccc" /><path
       id="path5816"
       d="m 363.8,411.7 0,0 c -0.4,0 -0.4,-0.1 -0.4,-0.1 l 0,29 0.4,0 0,-28.9 0,0 z"
       class="st4"
       inkscape:connector-curvature="0"
       style="fill:#cdcccc" /><path
       id="path5818"
       d="m 450.7,148.6 0,0 0,0.5 -0.1,0.5 -0.4,0.4 -0.4,0.4 -0.4,0.4 -0.4,0.4 -0.5,0.1 -0.4,0 0,-2.6 c 0,0.1 -0.1,0.1 -0.1,0.1 l -0.4,7.5 c 0,0.1 -0.1,0.1 -0.1,0.1 l 0,0 2.8,0.1 0,0.4 -0.1,0.5 -0.4,0.4 -0.4,0.4 -0.4,0.4 -0.5,0.4 -0.5,0.1 -0.8,0 0,0 c 0.1,0 0.1,0.1 0.1,0.1 l 0,0.1 0.4,0 0,0 0.5,-0.1 0,0 0.5,-0.4 0,0 0.5,-0.4 0,0 0.4,-0.4 0,0 0.4,-0.5 0,0 0.4,-0.5 0,0 0.1,-0.7 0,0 0,0 c 0,0 0,0 0,-0.1 l 0,0 0,0 0,0 0,0 0,0 0,0 -2.8,-0.1 0.1,-3.6 0,-0.8 0,0 0,0 0.5,0 0,0 0.5,-0.1 0,0 0.4,-0.4 0,0 0.4,-0.4 0,0 0.4,-0.4 0,0 0.4,-0.5 0,0 0.1,-0.5 0,0 0,-0.4 -0.1,0 c 0.4,-0.1 0.3,-0.1 0.3,-0.4 z"
       class="st4"
       inkscape:connector-curvature="0"
       style="fill:#cdcccc" /><path
       id="path5820"
       d="m 374.7,294.4 c 0.2,0 0.2,-0.1 0,0 l 0.1,-0.4 0,-1.7 14.9,0 0,-0.4 -15.2,0 c -0.1,0 -0.1,0.1 -0.1,0.1 l 0,1.8 0,0 0,-6.9 0,0 0,4.7 c 0,0.1 0.1,0.1 0.1,0.1 l 15.2,0 0,-0.4 -14.9,0 0,-4.4 0,-0.1 c 0,-0.1 -0.1,-0.1 -0.1,-0.1 l 0,0 0,0 -0.4,0 c -0.1,0 -0.1,0.1 -0.1,0.1 l 0,7.4 c 0,0.1 0.1,0.1 0.1,0.1 l 0.4,0.1 0,0 z"
       class="st4"
       inkscape:connector-curvature="0"
       style="fill:#cdcccc" /><path
       id="path5822"
       d="m 374.7,314.5 c 0.2,0 0.2,0 0,0 l 0.1,-0.4 0,-1.7 14.9,0 0,-0.4 0,0 -15.2,0 c -0.1,0 -0.1,0.1 -0.1,0.1 l 0,1.8 0,0 0,-6.8 0,0 0,4.7 c 0,0.1 0.1,0.1 0.1,0.1 l 15.2,0 0,-0.4 -14.9,0 0,-4.4 0,-0.1 c 0,-0.1 -0.1,-0.1 -0.1,-0.1 l 0,0 0,0 -0.4,0 c -0.1,0 -0.1,0.1 -0.1,0.1 l 0,7 c 0,0.1 0.1,0.1 0.1,0.1 l 0.4,0 0,0.4 0,0 z"
       class="st4"
       inkscape:connector-curvature="0"
       style="fill:#cdcccc" /><path
       id="path5824"
       d="m 446.9,199.2 0,0 0,0 0,0 0,0 0,0 z"
       class="st4"
       inkscape:connector-curvature="0"
       style="fill:#cdcccc" /><g
       id="g5826"><g
         id="g5828"><path
           id="path5830"
           d="m 390.7,403.3 0,78.2 -54.5,0 0,-78.2 54.5,0 m 2.6,-2.8 -2.6,0 -54.5,0 -2.6,0 0,2.6 0,78.2 0,2.6 2.6,0 54.5,0 2.6,0 0,-2.6 0,-78.2 0,-2.6 0,0 z"
           class="st6"
           inkscape:connector-curvature="0"
           style="fill:#989798" /></g><g
         id="g5832"><path
           id="path5834"
           d="m 383.4,78.9 0,36.6 65.1,-20.4 c 0,0 10.5,15.7 10.5,53.4 0,37.7 -13.7,54.9 -13.7,54.9 l -53.6,-17.3 0,178 -14.9,0 0.1,24.8 -42.2,0 0,-204.3 -7,0 0,-4.7 -35.5,0 0,-64 35.6,0 0,-37.3 55.7,0 m 2.5,-2.7 -2.6,0 -55.7,0 -2.6,0 0,2.6 0,34.4 -32.9,0 -2.6,0 0,2.6 0,64.4 0,2.6 2.6,0 33,0 0,1.7 0,2.6 2.6,0 4.3,0 0,201.5 0,2.6 2.6,0 42.2,0 2.8,0 0,-2.5 -0.1,-22 12.2,0 2.6,0 0,-2.6 0,-173.8 50,16 1.9,0.5 1.2,-1.7 c 0.1,-0.1 3.6,-4.8 7.4,-14 3.4,-8.4 7,-22.7 7,-42.7 0,-38.4 -10.5,-54.4 -11,-55.1 l -1.2,-1.7 -2.1,0.7 -61.7,19.3 0,-32.6 0.1,-2.8 0,0 z"
           class="st6"
           inkscape:connector-curvature="0"
           style="fill:#989798" /></g></g><g
       id="g5836"><g
         id="g5838"
         class="st0"
         style="enable-background:new"><path
           id="path5840"
           d="m 347.8,423.4 -1.1,0 0,-0.5 1,-2.3 0.6,0 0,2.3 0.4,0 0,0.5 -0.4,0 0,0.8 -0.7,0 0,-0.8 0.2,0 z m 0,-0.5 0,-1.4 0,0 -0.6,1.4 0.6,0 z"
           class="st2"
           inkscape:connector-curvature="0"
           style="fill:#ffffff" /><path
           id="path5842"
           d="m 349,424.2 0,-0.5 c 0.7,-1.1 1.2,-1.8 1.2,-2.3 0,-0.2 -0.1,-0.4 -0.2,-0.4 -0.2,0 -0.2,0.1 -0.2,0.4 l 0,0.2 -0.6,0 0,-0.1 c 0,-0.5 0.4,-1 0.8,-1 0.4,0 0.8,0.4 0.8,0.7 0,0.6 -0.1,1 -1.1,2.4 l 1.1,0 0,0.5 -1.8,0.1 0,0 z"
           class="st2"
           inkscape:connector-curvature="0"
           style="fill:#ffffff" /><path
           id="path5844"
           d="m 351.2,421.6 c 0,-0.6 0.2,-1 0.8,-1 0.6,0 0.8,0.2 0.8,1 l 0,1.8 c 0,0.6 -0.2,1 -0.8,1 -0.6,0 -0.8,-0.2 -0.8,-1 l 0,-1.8 z m 1.1,-0.2 c 0,-0.2 -0.1,-0.4 -0.2,-0.4 -0.1,0 -0.2,0.1 -0.2,0.4 l 0,2 c 0,0.2 0.1,0.4 0.2,0.4 0.1,0 0.2,-0.1 0.2,-0.4 l 0,-2 z"
           class="st2"
           inkscape:connector-curvature="0"
           style="fill:#ffffff" /></g></g><g
       id="g5846"><g
         id="g5848"
         class="st0"
         style="enable-background:new"><path
           id="path5850"
           d="m 360.2,464.5 -1.1,0 0,-0.4 1,-2.3 0.6,0 0,2.3 0.4,0 0,0.5 -0.4,0 0,0.8 -0.6,0 0.1,-0.9 0,0 0,0 z m 0.1,-0.4 0,-1.4 0,0 -0.6,1.4 0.6,0 z"
           class="st2"
           inkscape:connector-curvature="0"
           style="fill:#ffffff" /><path
           id="path5852"
           d="m 361.6,465.3 0,-0.5 c 0.7,-1.1 1.2,-1.8 1.2,-2.3 0,-0.2 -0.1,-0.4 -0.2,-0.4 -0.2,0 -0.2,0.1 -0.2,0.4 l 0,0.2 -0.6,0 0,-0.1 c 0,-0.5 0.4,-1 0.8,-1 0.5,0 0.8,0.4 0.8,0.7 0,0.6 -0.1,1 -1.1,2.4 l 1.1,0 0,0.5 -1.8,0.1 0,0 z"
           class="st2"
           inkscape:connector-curvature="0"
           style="fill:#ffffff" /><path
           id="path5854"
           d="m 364.5,462.5 -0.5,0 0,-0.4 c 0.2,-0.1 0.5,-0.2 0.7,-0.5 l 0.4,0 0,3.6 -0.5,0 0,-2.8 -0.1,0 0,0.1 0,0 z"
           class="st2"
           inkscape:connector-curvature="0"
           style="fill:#ffffff" /></g></g><g
       id="g5856"><rect
         id="rect5858"
         height="6"
         width="5.5"
         class="st2"
         y="399.29999"
         x="342.89999"
         style="fill:#ffffff" /><polygon
         id="polygon5860"
         points="344.1,396.9 347.4,396.9 345.9,399.6 "
         class="st7"
         style="fill:#4c6eb5" /></g><g
       id="g5862"><rect
         id="rect5864"
         height="6"
         width="5.5"
         class="st2"
         y="399"
         x="356.70001"
         style="fill:#ffffff" /><polygon
         id="polygon5866"
         points="357.7,396.5 361.2,396.5 359.5,399.5 "
         class="st7"
         style="fill:#4c6eb5" /></g><g
       id="g5868"><rect
         id="rect5870"
         height="3.8"
         width="5.5"
         class="st2"
         y="388"
         x="371"
         style="fill:#ffffff" /><polygon
         id="polygon5872"
         points="375.4,394 372,394 373.6,391.2 "
         class="st7"
         style="fill:#4c6eb5" /></g><g
       id="g5874"><rect
         id="rect5876"
         height="3.8"
         width="5.5"
         class="st2"
         y="388.70001"
         x="339.20001"
         style="fill:#ffffff" /><polygon
         id="polygon5878"
         points="343.6,395.1 340.2,395.1 341.8,392.2 "
         class="st7"
         style="fill:#4c6eb5" /></g><g
       id="g5880"><g
         id="g5882"><path
           id="path5884"
           d="m 350.4,381.3 c 0.4,0 0.5,-0.4 0.5,-0.5 0,-0.1 -0.4,-0.5 -0.5,-0.5 -0.1,0 -0.5,0.4 -0.5,0.5 0,0.1 0.2,0.5 0.5,0.5 z"
           class="st7"
           inkscape:connector-curvature="0"
           style="fill:#4c6eb5" /><path
           id="path5886"
           d="m 350.1,381.6 c -0.5,0 -0.8,0.4 -0.8,0.7 l -0.4,1.7 c 0,0.1 0,0.4 0.1,0.4 0.1,0 0.4,0 0.4,-0.1 l 0.4,-1.7 c 0,-0.1 0.1,-0.1 0.1,-0.1 0,0 0.1,0.1 0,0.1 l -0.8,2.6 0.8,0 c 0,1 0,1.9 0,1.9 0,0.4 0.1,0.4 0.4,0.4 0,0 0.4,0 0.4,-0.4 0,-0.4 0,-1.9 0,-1.9 0,-0.1 0,-0.1 0.1,-0.1 0.1,0 0.1,0 0.1,0.1 0,0 0,1.7 0,1.9 0,0.4 0.1,0.4 0.4,0.4 0,0 0.4,0 0.4,-0.4 0,0 0,-0.8 0,-1.9 l 0.8,0 -0.8,-2.6 c 0,-0.1 0,-0.1 0,-0.1 0,0 0.1,0 0.1,0.1 l 0.4,1.7 c 0,0.1 0.1,0.1 0.4,0.1 0.2,0 0.1,-0.1 0.1,-0.4 l -0.4,-1.7 c -0.1,-0.4 -0.4,-0.7 -0.8,-0.7 l -1.4,0 z"
           class="st7"
           inkscape:connector-curvature="0"
           style="fill:#4c6eb5" /></g></g><g
       id="g5888"><g
         id="g5890"><path
           id="path5892"
           d="m 366.8,381.2 c 0.4,0 0.7,-0.4 0.7,-0.7 0,-0.3 -0.4,-0.7 -0.7,-0.7 -0.3,0 -0.7,0.4 -0.7,0.7 0,0.3 0.2,0.7 0.7,0.7 z"
           class="st7"
           inkscape:connector-curvature="0"
           style="fill:#4c6eb5" /></g><path
         id="path5894"
         d="m 367.6,382.6 0,1.4 c 0,0.4 0.1,0.4 0.4,0.4 0.1,0 0.4,0 0.4,-0.4 l 0,-1.7 c 0,-0.8 -0.4,-0.8 -0.8,-0.8 l -1,0 c -0.7,0 -0.8,0.1 -0.8,0.8 l 0,1.7 c 0,0.4 0.1,0.4 0.4,0.4 0.1,0 0.4,0 0.4,-0.4 l 0,-1.4 c 0,-0.1 0.1,-0.1 0.1,-0.1 0,0 0.1,0 0.1,0.1 0,0.1 0,4.4 0,4.4 0,0.4 0.4,0.4 0.4,0.4 0,0 0.4,0 0.4,-0.4 0,-0.4 0,-2.6 0,-2.6 0,0 0,-0.1 0.1,-0.1 0,0 0.1,0 0.1,0.1 0,0 0,2.3 0,2.6 0,0.3 0.4,0.4 0.4,0.4 0,0 0.4,0 0.4,-0.4 -1.1,0.1 -1.1,-4.2 -1,-4.4 -0.1,0 0,0 0,0 l 0,0 z"
         class="st7"
         inkscape:connector-curvature="0"
         style="fill:#4c6eb5" /></g><line
       id="line5896"
       y2="358.70001"
       x2="394.29999"
       y1="403.5"
       x1="394.29999"
       class="st8"
       style="fill:none" /><rect
       id="rect5898"
       height="10.4"
       width="6.9000001"
       class="st2"
       y="437"
       x="389.70001"
       style="fill:#ffffff" /><polygon
       id="polygon5900"
       points="398.6,440.7 398.6,444.1 395.6,442.4 "
       class="st7"
       style="fill:#4c6eb5" /><g
       id="g5902"
       class="st9"
       style="opacity:0.5"><polygon
         id="polygon5904"
         points="512.9,348.1 512.1,348.1 512.1,350.7 512.1,439.8 487,439.8 487,479.9 513.7,479.9 516.3,479.9 516.3,477.3 516.3,476.8 543,476.8 545.6,476.8 545.6,474.2 545.6,414.4 680.9,414.4 683.5,414.4 683.5,411.8 683.5,349.2 683.7,346.4 681.1,346.4 515.5,346.4 512.9,346.4 "
         class="st6"
         style="fill:#989798" /><rect
         id="rect5906"
         height="40.099998"
         width="89"
         class="st10"
         y="439.79999"
         x="398"
         style="opacity:0.5;fill:#989798;enable-background:new" /></g><rect
       id="rect5908"
       height="70"
       width="31.6"
       class="st10"
       y="485.29999"
       x="509.39999"
       style="opacity:0.5;fill:#989798;enable-background:new" /></g></svg>