<?xml version="1.0" encoding="utf-8"?>
<!-- Generator: Adobe Illustrator 17.1.0, SVG Export Plug-In . SVG Version: 6.00 Build 0)  -->
<!DOCTYPE svg PUBLIC "-//W3C//DTD SVG 1.1//EN" "http://www.w3.org/Graphics/SVG/1.1/DTD/svg11.dtd">
<svg version="1.1" id="Layer_1" xmlns="http://www.w3.org/2000/svg" xmlns:xlink="http://www.w3.org/1999/xlink" x="0px" y="0px"
	 viewBox="402.1 649 475.7 789.9" enable-background="new 402.1 649 475.7 789.9" xml:space="preserve">
<g enable-background="new    ">
	<path fill="#999999" d="M404.5,1198.9v-5h0.8v4.3h1.4v0.7H404.5L404.5,1198.9z"/>
	<path fill="#999999" d="M409.7,1197.4h-1.7v0.5c0,0.4,0.1,0.6,0.4,0.6s0.4-0.1,0.4-0.6v-0.1h0.7c0,0.7-0.4,1.4-1.2,1.4
		s-1.2-0.6-1.2-1.4v-1.1c0-0.8,0.4-1.4,1.2-1.4c0.8,0,1.2,0.6,1.2,1.4v0.7H409.7z M408.8,1196.5v-0.2c0-0.4-0.1-0.6-0.4-0.6
		c-0.3,0-0.4,0.1-0.4,0.6v0.2H408.8z"/>
	<path fill="#999999" d="M411.8,1195.2h0.7l-0.8,3.7h-0.8l-0.8-3.7h0.7l0.5,2.5l0,0L411.8,1195.2z"/>
	<path fill="#999999" d="M415.5,1197.4h-1.7v0.5c0,0.4,0.1,0.6,0.4,0.6s0.4-0.1,0.4-0.6v-0.1h0.7c0,0.7-0.4,1.4-1.2,1.4
		s-1.2-0.6-1.2-1.4v-1.1c0-0.8,0.4-1.4,1.2-1.4c0.8,0,1.2,0.6,1.2,1.4v0.7H415.5z M414.6,1196.5v-0.2c0-0.4-0.1-0.6-0.4-0.6
		s-0.4,0.1-0.4,0.6v0.2H414.6z"/>
	<path fill="#999999" d="M416.2,1198.9v-5h0.7v5H416.2z"/>
</g>
<circle fill="#999999" cx="432" cy="1197.9" r="11.7"/>
<g enable-background="new    ">
	<path fill="#FFFFFF" d="M430.2,1193.9h-2v-1.5c1.2-0.6,2.4-1.2,3.2-2.1h1.4v16.3h-2.6C430.2,1206.6,430.2,1193.9,430.2,1193.9z"/>
</g>
<g enable-background="new    ">
	<path fill="#999999" d="M405.1,661.9v-5h0.8v4.3h1.4v0.7H405.1z"/>
	<path fill="#999999" d="M410.1,660.1h-1.7v0.5c0,0.4,0.1,0.6,0.4,0.6c0.2,0,0.4-0.1,0.4-0.6v-0.2h0.7c0,0.7-0.4,1.4-1.2,1.4
		c-0.8,0-1.2-0.6-1.2-1.4v-1c0-0.8,0.4-1.4,1.2-1.4c0.8,0,1.2,0.6,1.2,1.4v0.7H410.1z M409.3,659.5v-0.2c0-0.4-0.1-0.6-0.4-0.6
		c-0.2,0-0.4,0.1-0.4,0.6v0.2H409.3z"/>
	<path fill="#999999" d="M412.3,658.1h0.7l-0.8,3.7h-0.7l-0.8-3.7h0.7l0.5,2.5l0,0L412.3,658.1z"/>
	<path fill="#999999" d="M416,660.1h-1.7v0.5c0,0.4,0.1,0.6,0.4,0.6c0.2,0,0.4-0.1,0.4-0.6v-0.2h0.7c0,0.7-0.4,1.4-1.2,1.4
		c-0.8,0-1.2-0.6-1.2-1.4v-1c0-0.8,0.4-1.4,1.2-1.4c0.8,0,1.2,0.6,1.2,1.4v0.7H416z M415.1,659.5v-0.2c0-0.4-0.1-0.6-0.4-0.6
		c-0.2,0-0.4,0.1-0.4,0.6v0.2H415.1z"/>
	<path fill="#999999" d="M416.6,661.9v-5h0.7v5H416.6z"/>
</g>
<circle fill="#999999" cx="432.5" cy="660.7" r="11.7"/>
<g enable-background="new    ">
	<path fill="#FFFFFF" d="M427.7,657c0-3,1.1-4.4,3.8-4.4s3.8,1.4,3.8,4.4v7.8c0,3-1.1,4.4-3.8,4.4c-2.8,0-3.8-1.4-3.8-4.4
		C427.7,664.7,427.7,657,427.7,657z M432.9,656.4c0-1-0.5-1.5-1.2-1.5c-0.8,0-1.2,0.5-1.2,1.5v9.1c0,1,0.5,1.5,1.2,1.5
		c0.8,0,1.2-0.5,1.2-1.5V656.4z"/>
</g>
<rect x="589.8" y="1326.7" fill="#496CB4" width="5.3" height="6.1"/>
<g enable-background="new    ">
	<path fill="#FFFFFF" d="M593.6,1329.8h-1.7v1.5h1.9v0.5h-2.4v-4.3h2.3v0.5h-1.8v1.4h1.7V1329.8z"/>
</g>
<rect x="720.8" y="1232" fill="#496CB4" width="5.3" height="6.1"/>
<g enable-background="new    ">
	<path fill="#FFFFFF" d="M724.3,1235.1h-1.7v1.5h1.9v0.5h-2.4v-4.3h2.3v0.5h-1.8v1.4h1.7V1235.1L724.3,1235.1z"/>
</g>
<rect x="437.3" y="1434.7" opacity="0.6" fill="#496CB4" enable-background="new    " width="0.7" height="3.8"/>
<rect x="436.1" y="1434.7" opacity="0.6" fill="#496CB4" enable-background="new    " width="0.7" height="3.8"/>
<rect x="434.8" y="1434.7" opacity="0.6" fill="#496CB4" enable-background="new    " width="0.7" height="3.8"/>
<rect x="433.8" y="1434.7" opacity="0.6" fill="#496CB4" enable-background="new    " width="0.7" height="3.8"/>
<rect x="432.5" y="1434.7" opacity="0.6" fill="#496CB4" enable-background="new    " width="0.7" height="3.8"/>
<rect x="431.3" y="1434.7" opacity="0.6" fill="#496CB4" enable-background="new    " width="0.7" height="3.8"/>
<rect x="430.2" y="1434.7" opacity="0.6" fill="#496CB4" enable-background="new    " width="0.7" height="3.8"/>
<rect x="443.3" y="1435.1" opacity="0.6" fill="#496CB4" enable-background="new    " width="0.7" height="3.8"/>
<rect x="442.2" y="1435.1" opacity="0.6" fill="#496CB4" enable-background="new    " width="0.7" height="3.8"/>
<rect x="441.1" y="1435.1" opacity="0.6" fill="#496CB4" enable-background="new    " width="0.7" height="3.8"/>
<rect x="439.8" y="1435.1" opacity="0.6" fill="#496CB4" enable-background="new    " width="0.7" height="3.8"/>
<rect x="438.6" y="1435.1" opacity="0.6" fill="#496CB4" enable-background="new    " width="0.7" height="3.8"/>
<rect x="437.3" y="1430.3" opacity="0.6" fill="#496CB4" enable-background="new    " width="0.7" height="3.8"/>
<rect x="436.1" y="1430.3" opacity="0.6" fill="#496CB4" enable-background="new    " width="0.7" height="3.8"/>
<rect x="434.8" y="1430.3" opacity="0.6" fill="#496CB4" enable-background="new    " width="0.7" height="3.8"/>
<rect x="433.8" y="1430.3" opacity="0.6" fill="#496CB4" enable-background="new    " width="0.7" height="3.8"/>
<rect x="432.5" y="1430.3" opacity="0.6" fill="#496CB4" enable-background="new    " width="0.7" height="3.8"/>
<rect x="431.3" y="1430.3" opacity="0.6" fill="#496CB4" enable-background="new    " width="0.7" height="3.8"/>
<rect x="430.2" y="1430.3" opacity="0.6" fill="#496CB4" enable-background="new    " width="0.7" height="3.8"/>
<rect x="443.3" y="1430.3" opacity="0.6" fill="#496CB4" enable-background="new    " width="0.7" height="3.8"/>
<rect x="442.2" y="1430.3" opacity="0.6" fill="#496CB4" enable-background="new    " width="0.7" height="3.8"/>
<rect x="441.1" y="1430.3" opacity="0.6" fill="#496CB4" enable-background="new    " width="0.7" height="3.8"/>
<rect x="439.8" y="1430.3" opacity="0.6" fill="#496CB4" enable-background="new    " width="0.7" height="3.8"/>
<rect x="438.6" y="1430.3" opacity="0.6" fill="#496CB4" enable-background="new    " width="0.7" height="3.8"/>
<rect x="698.8" y="1208.6" opacity="0.6" fill="#496CB4" enable-background="new    " width="5.3" height="0.8"/>
<rect x="698.8" y="1207.3" opacity="0.6" fill="#496CB4" enable-background="new    " width="5.3" height="0.8"/>
<rect x="698.8" y="1205.5" opacity="0.6" fill="#496CB4" enable-background="new    " width="5.3" height="0.8"/>
<rect x="698.8" y="1203.8" opacity="0.6" fill="#496CB4" enable-background="new    " width="5.3" height="0.8"/>
<rect x="698.8" y="1202.5" opacity="0.6" fill="#496CB4" enable-background="new    " width="5.3" height="0.8"/>
<rect x="698.8" y="1200.7" opacity="0.6" fill="#496CB4" enable-background="new    " width="5.3" height="0.8"/>
<rect x="698.8" y="1199.4" opacity="0.6" fill="#496CB4" enable-background="new    " width="5.3" height="0.8"/>
<rect x="698.8" y="1216.7" opacity="0.6" fill="#496CB4" enable-background="new    " width="5.3" height="0.8"/>
<rect x="698.8" y="1215.4" opacity="0.6" fill="#496CB4" enable-background="new    " width="5.3" height="0.8"/>
<rect x="698.8" y="1213.7" opacity="0.6" fill="#496CB4" enable-background="new    " width="5.3" height="0.8"/>
<rect x="698.8" y="1211.9" opacity="0.6" fill="#496CB4" enable-background="new    " width="5.3" height="0.8"/>
<rect x="698.8" y="1210.4" opacity="0.6" fill="#496CB4" enable-background="new    " width="5.3" height="0.8"/>
<rect x="705.1" y="1208.6" opacity="0.6" fill="#496CB4" enable-background="new    " width="5.3" height="0.8"/>
<rect x="705.1" y="1207.3" opacity="0.6" fill="#496CB4" enable-background="new    " width="5.3" height="0.8"/>
<rect x="705.1" y="1205.5" opacity="0.6" fill="#496CB4" enable-background="new    " width="5.3" height="0.8"/>
<rect x="705.1" y="1203.8" opacity="0.6" fill="#496CB4" enable-background="new    " width="5.3" height="0.8"/>
<rect x="705.1" y="1202.5" opacity="0.6" fill="#496CB4" enable-background="new    " width="5.3" height="0.8"/>
<rect x="705.1" y="1200.7" opacity="0.6" fill="#496CB4" enable-background="new    " width="5.3" height="0.8"/>
<rect x="705.1" y="1199.4" opacity="0.6" fill="#496CB4" enable-background="new    " width="5.3" height="0.8"/>
<rect x="705.1" y="1216.7" opacity="0.6" fill="#496CB4" enable-background="new    " width="5.3" height="0.8"/>
<rect x="705.1" y="1215.4" opacity="0.6" fill="#496CB4" enable-background="new    " width="5.3" height="0.8"/>
<rect x="705.1" y="1213.7" opacity="0.6" fill="#496CB4" enable-background="new    " width="5.3" height="0.8"/>
<rect x="705.1" y="1211.9" opacity="0.6" fill="#496CB4" enable-background="new    " width="5.3" height="0.8"/>
<rect x="705.1" y="1210.4" opacity="0.6" fill="#496CB4" enable-background="new    " width="5.3" height="0.8"/>
<rect x="860.5" y="1245.4" opacity="0.6" fill="#496CB4" enable-background="new    " width="5.3" height="0.8"/>
<rect x="860.5" y="1243.8" opacity="0.6" fill="#496CB4" enable-background="new    " width="5.3" height="0.8"/>
<rect x="860.5" y="1242.3" opacity="0.6" fill="#496CB4" enable-background="new    " width="5.3" height="0.8"/>
<rect x="860.5" y="1240.6" opacity="0.6" fill="#496CB4" enable-background="new    " width="5.3" height="0.8"/>
<rect x="860.5" y="1239.1" opacity="0.6" fill="#496CB4" enable-background="new    " width="5.3" height="0.8"/>
<rect x="860.5" y="1237.6" opacity="0.6" fill="#496CB4" enable-background="new    " width="5.3" height="0.8"/>
<rect x="860.5" y="1235.9" opacity="0.6" fill="#496CB4" enable-background="new    " width="5.3" height="0.8"/>
<rect x="860.5" y="1253.4" opacity="0.6" fill="#496CB4" enable-background="new    " width="5.3" height="0.8"/>
<rect x="860.5" y="1252.1" opacity="0.6" fill="#496CB4" enable-background="new    " width="5.3" height="0.8"/>
<rect x="860.5" y="1250.3" opacity="0.6" fill="#496CB4" enable-background="new    " width="5.3" height="0.8"/>
<rect x="860.5" y="1248.7" opacity="0.6" fill="#496CB4" enable-background="new    " width="5.3" height="0.8"/>
<rect x="860.5" y="1247.2" opacity="0.6" fill="#496CB4" enable-background="new    " width="5.3" height="0.8"/>
<rect x="866.6" y="1245.4" opacity="0.6" fill="#496CB4" enable-background="new    " width="5.3" height="0.8"/>
<rect x="866.6" y="1243.8" opacity="0.6" fill="#496CB4" enable-background="new    " width="5.3" height="0.8"/>
<rect x="866.6" y="1242.3" opacity="0.6" fill="#496CB4" enable-background="new    " width="5.3" height="0.8"/>
<rect x="866.6" y="1240.6" opacity="0.6" fill="#496CB4" enable-background="new    " width="5.3" height="0.8"/>
<rect x="866.6" y="1239.1" opacity="0.6" fill="#496CB4" enable-background="new    " width="5.3" height="0.8"/>
<rect x="866.6" y="1237.6" opacity="0.6" fill="#496CB4" enable-background="new    " width="5.3" height="0.8"/>
<rect x="866.6" y="1235.9" opacity="0.6" fill="#496CB4" enable-background="new    " width="5.3" height="0.8"/>
<rect x="866.6" y="1253.4" opacity="0.6" fill="#496CB4" enable-background="new    " width="5.3" height="0.8"/>
<rect x="866.6" y="1252.1" opacity="0.6" fill="#496CB4" enable-background="new    " width="5.3" height="0.8"/>
<rect x="866.6" y="1250.3" opacity="0.6" fill="#496CB4" enable-background="new    " width="5.3" height="0.8"/>
<rect x="866.6" y="1248.7" opacity="0.6" fill="#496CB4" enable-background="new    " width="5.3" height="0.8"/>
<rect x="866.6" y="1247.2" opacity="0.6" fill="#496CB4" enable-background="new    " width="5.3" height="0.8"/>
<rect x="678.2" y="1231" opacity="0.6" fill="#496CB4" enable-background="new    " width="0.7" height="14.5"/>
<rect x="677" y="1231" opacity="0.6" fill="#496CB4" enable-background="new    " width="0.7" height="14.5"/>
<rect x="676" y="1231" opacity="0.6" fill="#496CB4" enable-background="new    " width="0.7" height="14.5"/>
<rect x="674.7" y="1231" opacity="0.6" fill="#496CB4" enable-background="new    " width="0.7" height="14.5"/>
<rect x="673.4" y="1231" opacity="0.6" fill="#496CB4" enable-background="new    " width="0.7" height="14.5"/>
<rect x="672.2" y="1231" opacity="0.6" fill="#496CB4" enable-background="new    " width="0.7" height="14.5"/>
<rect x="670.9" y="1231" opacity="0.6" fill="#496CB4" enable-background="new    " width="0.7" height="14.5"/>
<rect x="684.3" y="1231" opacity="0.6" fill="#496CB4" enable-background="new    " width="0.7" height="14.5"/>
<rect x="683.1" y="1231" opacity="0.6" fill="#496CB4" enable-background="new    " width="0.7" height="14.5"/>
<rect x="682" y="1231" opacity="0.6" fill="#496CB4" enable-background="new    " width="0.7" height="14.5"/>
<rect x="680.7" y="1231" opacity="0.6" fill="#496CB4" enable-background="new    " width="0.7" height="14.5"/>
<rect x="679.5" y="1231" opacity="0.6" fill="#496CB4" enable-background="new    " width="0.7" height="14.5"/>
<rect x="682.3" y="1314" opacity="0.6" fill="#496CB4" enable-background="new    " width="11.7" height="0.7"/>
<rect x="682.3" y="1315.2" opacity="0.6" fill="#496CB4" enable-background="new    " width="11.7" height="0.7"/>
<rect x="682.3" y="1316.4" opacity="0.6" fill="#496CB4" enable-background="new    " width="11.7" height="0.7"/>
<rect x="682.3" y="1317.6" opacity="0.6" fill="#496CB4" enable-background="new    " width="11.7" height="0.7"/>
<rect x="682.3" y="1318.7" opacity="0.6" fill="#496CB4" enable-background="new    " width="11.7" height="0.7"/>
<rect x="728.3" y="1345.9" opacity="0.6" fill="#496CB4" enable-background="new    " width="0.7" height="7.3"/>
<rect x="727.1" y="1345.9" opacity="0.6" fill="#496CB4" enable-background="new    " width="0.7" height="7.3"/>
<rect x="725.9" y="1345.9" opacity="0.6" fill="#496CB4" enable-background="new    " width="0.7" height="7.3"/>
<rect x="724.8" y="1345.9" opacity="0.6" fill="#496CB4" enable-background="new    " width="0.7" height="7.3"/>
<rect x="723.5" y="1345.9" opacity="0.6" fill="#496CB4" enable-background="new    " width="0.7" height="7.3"/>
<rect x="678.2" y="1214.2" opacity="0.6" fill="#496CB4" enable-background="new    " width="0.7" height="14"/>
<rect x="677" y="1214.2" opacity="0.6" fill="#496CB4" enable-background="new    " width="0.7" height="14"/>
<rect x="676" y="1214.2" opacity="0.6" fill="#496CB4" enable-background="new    " width="0.7" height="14"/>
<rect x="674.7" y="1214.2" opacity="0.6" fill="#496CB4" enable-background="new    " width="0.7" height="14"/>
<rect x="673.4" y="1214.2" opacity="0.6" fill="#496CB4" enable-background="new    " width="0.7" height="14"/>
<rect x="672.2" y="1214.2" opacity="0.6" fill="#496CB4" enable-background="new    " width="0.7" height="14"/>
<rect x="670.9" y="1214.2" opacity="0.6" fill="#496CB4" enable-background="new    " width="0.7" height="14"/>
<rect x="684.3" y="1214.2" opacity="0.6" fill="#496CB4" enable-background="new    " width="0.7" height="14"/>
<rect x="683.1" y="1214.2" opacity="0.6" fill="#496CB4" enable-background="new    " width="0.7" height="14"/>
<rect x="682" y="1214.2" opacity="0.6" fill="#496CB4" enable-background="new    " width="0.7" height="14"/>
<rect x="680.7" y="1214.2" opacity="0.6" fill="#496CB4" enable-background="new    " width="0.7" height="14"/>
<rect x="679.5" y="1214.2" opacity="0.6" fill="#496CB4" enable-background="new    " width="0.7" height="14"/>
<path fill="#3964AF" d="M789,1220.2h3.8v-21h-0.4h-0.2v-0.1v-0.7l0,0v-1h-3h-0.1h-3.8h-0.1h-3.6h-0.4h-3.8h-0.2h-3v0.8
	c0,0.1-0.1,0.1-0.1,0.1l0,0h-0.5v7.5h0.1l0,0c0,0,0,0,0.1,0c0,0,0,0,0.1,0s0.1,0.1,0.1,0.1v6c0,0.1-0.1,0.1-0.1,0.1s0,0-0.1,0
	c0,0,0,0-0.1,0h-0.1v7.5h12.3h0.1v0.1h2.6C788.8,1220.3,788.8,1220.2,789,1220.2z"/>
<path fill="#CCCCCC" d="M761.3,1216.2C761.3,1216.2,761.3,1216,761.3,1216.2C761.3,1216,761.3,1216,761.3,1216.2
	C761.3,1216,761.3,1216,761.3,1216.2L761.3,1216.2L761.3,1216.2L761.3,1216.2L761.3,1216.2v-2.6l0,0l0,0l0,0l0,0l0,0l0,0
	c0,0,0,0,0-0.1v-0.8c0,0,0,0,0-0.1l0,0l0,0l0,0l0,0l0,0l0,0v-2.6l0,0l0,0l0,0l0,0l0,0l0,0c0,0,0,0,0-0.1v-4.9c0,0,0,0,0-0.1l0,0l0,0
	l0,0l0,0l0,0l0,0v-3.1l0,0l0,0l0,0l0,0l0,0l0,0c0,0,0,0,0-0.1v-4.1h-3.5h-0.1h-3v0.8c0,0.1-0.1,0.1-0.1,0.1l0,0h-1.4
	c-0.1,0-0.1-0.1-0.1-0.1v-0.8h-2.8h-0.4h-3.8H746h-3.5v10h10.2c0.1,0,0.1,0.1,0.1,0.1l0,0v0.7c0,0,0,0,0,0.1l0,0l0,0l0,0l0,0l0,0
	l0,0v2.6l0,0l0,0l0,0l0,0l0,0l0,0c0,0,0,0,0,0.1v9h0.1h5.3v-0.4c0.4-1.2,1.2-2.3,2.5-2.5h0.5l0,0l0,0l0,0l0,0l0,0l0,0L761.3,1216.2
	L761.3,1216.2z"/>
<path fill="#CCCCCC" d="M833.6,1197.2v0.8l0,0c0,0.1-0.1,0.1-0.1,0.1h-0.4v12.5h4.4l0,0l0,0l0,0l0,0l0,0l0,0l0,0l0,0v-0.5
	c0.4-1.4,1.2-2.1,2.5-2.5h0.4v-10.4h-3.5h-0.1H833.6L833.6,1197.2z"/>
<path fill="#CCCCCC" d="M714.7,1416.1v10.8h10.2v-19h-8.1v4.9c0,0.1-0.1,0.1-0.1,0.1h-1.8v0.1c0,0.1,0,0.1-0.1,0.1v2.6
	C714.7,1416,714.7,1416,714.7,1416.1z"/>
<path fill="#CCCCCC" d="M710.8,1418.2h-11.1v8.6h14.2v-8.6h-0.1c-0.1,0-0.1,0-0.1-0.1L710.8,1418.2
	C711.2,1418.1,711,1418.2,710.8,1418.2z"/>
<path fill="#CCCCCC" d="M741.6,1197.2h-6.7v0.8c0,0.1-0.1,0.1-0.1,0.1h-1.6v9.7h0.1h0.5c1.2,0.1,2.1,1.2,2.5,2.5l0,0v0.4h5.1
	L741.6,1197.2L741.6,1197.2z"/>
<path fill="#CCCCCC" d="M460.8,1375.4v-3.8v-4.8h-14.6v1.4h2.8l0,0l0,0l0,0l0,0l0,0l0,0l0,0l0,0l0,0l0,0l0,0l0,0v0.7
	c-0.4,1.2-1.2,2.1-2.5,2.5h-0.3v3.8L460.8,1375.4C460.8,1375.5,460.8,1375.4,460.8,1375.4z"/>
<path fill="#CCCCCC" d="M751.4,1211.2c-1.4-0.4-2.1-1-2.5-2.5l0,0v-0.7l0,0l0,0l0,0l0,0l0,0l0,0H742v1.9v1.7c0,0.1-0.1,0.1-0.1,0.1
	h-2.7v8.3h7.4h3h2.1v-8.7h-0.3V1211.2z"/>
<path fill="#CCCCCC" d="M590.4,1325.5L590.4,1325.5C590.4,1325.6,590.4,1325.6,590.4,1325.5C590.4,1325.6,590.4,1325.6,590.4,1325.5
	L590.4,1325.5L590.4,1325.5L590.4,1325.5l9.1,0.1v-2.7c0-0.1,0.1-0.1,0.1-0.1h0.1v-0.4H595h-0.1h-4.7v0.4l0,0l0,0l0,0c0,0,0,0,0,0.1
	v0.4c0,0.1-0.1,0.1-0.1,0.1l0,0L590.4,1325.5L590.4,1325.5C590,1325.5,590,1325.5,590.4,1325.5z"/>
<path fill="#CCCCCC" d="M609.5,1331.6L609.5,1331.6L609.5,1331.6L609.5,1331.6l0.1-8.6c0,0,0,0,0-0.1l0,0l0,0l0,0v-0.5h-4.7h-0.1
	h-4.7v0.4h0.4h0.5c0.1,0,0.1,0.1,0.1,0.1v5.6h3.8c0.1,0,0.1,0.1,0.1,0.1v6h0.8v-0.4c0.1-1.2,1.2-2.3,2.5-2.5L609.5,1331.6
	L609.5,1331.6L609.5,1331.6C609.4,1331.6,609.4,1331.6,609.5,1331.6z"/>
<path fill="#CCCCCC" d="M577.8,1322.4L577.8,1322.4h-0.4h-0.1h-0.1H577h-0.1h-0.1h-0.6h0.1h-0.1H576h-0.4h-0.1h-0.1l0,0l-0.1,0.1
	h-0.4c-0.1,0-0.1,0-0.1-0.1h-4.4v0.4l0.1,0.1c0,0.1-0.1,0.1-0.1,0.1l0,0h-0.1h-0.1c-0.1,0-0.1-0.1-0.1-0.1c0-0.1,0-0.1,0.1-0.1v-0.4
	h-4.7c0,0,0,0-0.1,0.1c0,0,0,0-0.1,0h-0.1c-0.1,0-0.1,0-0.1-0.1l0,0h-0.6h-0.1h-0.1h-0.1h-0.1H564h-0.1h0.5h-0.1h-0.1h-0.1H564h-0.4
	h-0.1h-0.1h-0.2h-0.1H563h-0.1h-0.8H562h-0.1h-1h-0.1h-0.3l0,0v0.4l0.1,0.1c0,0.1-0.1,0.1-0.1,0.1h-0.1h-0.2h-0.4
	c-0.1,0-0.1-0.1-0.1-0.1c0-0.1,0-0.1,0.1-0.1v-0.4h-4.4v12.3h0.4v-2.6l0,0l0,0l0,0l0,0l0,0l0,0l0,0l0,0l0,0l0,0h0.1c0,0,0,0,0.1,0
	h0.4c1.2,0.4,2.3,1.2,2.5,2.5v0.4h0.4l0,0c0-0.1,0.1-0.1,0.1-0.1h0.4c0.1,0,0.1,0.1,0.1,0.1l0,0h0.7h0.4l0,0h3h1.8h4.8l0,0h1l0,0h3
	l0,0l0,0h3.5L577.8,1322.4L577.8,1322.4z"/>
<path fill="#CCCCCC" d="M746.1,1233.7L746.1,1233.7h-0.4v0.4v0.1h-0.1h-0.4c-0.1,0-0.1-0.1-0.1-0.1v-0.4h-7v11.7l0,0v0.4l0,0v10.5
	h14.7v-0.8v-0.1h0.1h1.7c0.1,0,0.1,0.1,0.1,0.1l0,0v0.8h2.1v-22.9h-6.3v0.4v0.1h-0.1H750c-0.1,0-0.1-0.1-0.1-0.1v-0.4h-0.4
	c-0.1,0-0.1-0.1-0.1-0.1h-2.6C746.5,1233.4,746.3,1233.7,746.1,1233.7z"/>
<path fill="#CCCCCC" d="M710,1393.7L710,1393.7v2.3c0,0.1-0.1,0.1-0.1,0.1l0,0v2.3l0,0c0.1,0,0.1,0.1,0.1,0.1l0,0h14.9v-5.1h-3
	L710,1393.7L710,1393.7z"/>
<path fill="#3964AF" d="M700.3,1357.1C700.3,1357.1,700.4,1357.1,700.3,1357.1h0.4c0.1,0,0.1,0.1,0.1,0.4l-0.8,6.9l0,0l0,0l0,0l0,0
	l0,0l0,0c0,0,0,0-0.1,0l0,0l0,0h-0.4h-0.4l0,0l0,0l0,0l0,0l0,0l0,0l0,0v2.6l0,0l0,0l0,0l0,0l0,0l0,0c0,0,0,0,0,0.1h0.4
	c0.1,0,0.1,0.1,0.1,0.1v24.8h0.4c0.1,0,0.1,0.1,0.1,0.1v0.4h3c0.1,0,0.1,0.1,0.1,0.1v2.5h6.1v-2.6c0-0.1,0.1-0.1,0.1-0.1h0.7h11.7h3
	v-28.8h-0.1l0,0l0,0c0,0,0,0-0.1,0l0,0l0,0l0,0l0,0l0,0l0,0l-0.8-6.7c0-0.1,0-0.1,0.1-0.4c0.1,0,0.1,0,0.1,0.1l0.1-0.1
	c0.1,0,0.1,0,0.4,0.1l0.4,3.5v-4.1h-25.6v4.7l0.4-3.6C699.9,1357.1,700,1357.1,700.3,1357.1z"/>
<path fill="#CCCCCC" d="M725.1,1308.1h-17.4v0.1c0,0.1,0,0.1-0.1,0.1v2.6c0.1,0,0.1,0.1,0.1,0.1v1.7h0.8c0.1,0,0.1,0.1,0.1,0.1v3.8
	c0,0.1-0.1,0.1-0.1,0.1h-0.8v3.4h14h3.4v-4.9v-2.6V1308.1L725.1,1308.1z"/>
<path fill="#CCCCCC" d="M720.1,1401.6C720.1,1401.7,720.1,1401.7,720.1,1401.6l-0.5,0.1c-0.1,0-0.1-0.1-0.1-0.1v-2.3h-6.9v7.4l0,0
	c0.1,0,0.1,0.1,0.1,0.1l0,0h2.6l0,0c0-0.1,0.1-0.1,0.1-0.1h3.8v-2.3c0-0.1,0.1-0.1,0.1-0.1h0.4c0.1,0,0.1,0.1,0.1,0.1v2.3h4.9v-7.4
	h-4.9L720.1,1401.6L720.1,1401.6z"/>
<path fill="#CCCCCC" d="M863.6,1211.6L863.6,1211.6v0.7c-0.4,1.2-1.2,2.1-2.5,2.5l0,0h-0.4v5.3h11.4v-8.4L863.6,1211.6L863.6,1211.6
	L863.6,1211.6z"/>
<path fill="#CCCCCC" d="M860.6,1207.7C860.6,1208,860.6,1208,860.6,1207.7l-0.1,2.6c0.1,0,0.1,0.1,0.1,0.1v0.1H872v-6.9h-11.4
	V1207.7z"/>
<path fill="#CCCCCC" d="M723,1211.8L723,1211.8v-13.4h-1.2h-0.1v-0.1v-1h-6.9v13.8h0.1c0.1,0,0.1,0.1,0.1,0.1l0,0l0,0v0.4l0,0
	c0,0.1-0.1,0.1-0.1,0.1l0,0h-0.1v8.3h9.9v-0.1v-0.5c0.1-1.2,1.2-2.3,2.5-2.5h0.4v-5.1h-4.4C723.3,1211.8,723.3,1211.8,723,1211.8z"
	/>
<path fill="#CCCCCC" d="M861.2,1199.8c1.2,0.4,2.3,1.2,2.5,2.5v0.5v0.1h-0.1H861v0.4h11.4v-6H861v2.5H861.2z"/>
<path fill="#3964AF" d="M831.9,1255.3h0.4v-21.9h-11.6c-0.1,0-0.1-0.1-0.1-0.1l0,0H818c0,0.1-0.1,0.1-0.1,0.1h-4.4v21.8h0.4
	c0.1,0,0.1,0.1,0.1,0.1v0.8h3h0.4h3.6h0.4h3.8h0.1h3.8h0.1h3L831.9,1255.3C831.8,1255.3,831.9,1255.3,831.9,1255.3z"/>
<path fill="#3964AF" d="M812.2,1255.3h0.4v-7.8h-0.1c0,0,0,0-0.1,0c0,0,0,0-0.1,0s-0.1-0.1-0.1-0.1v-6c0-0.1,0.1-0.1,0.1-0.1
	s0,0,0.1,0c0,0,0,0,0.1,0h0.1v-7.8h-11.7c-0.1,0-0.1-0.1-0.1-0.1l0,0H798c0,0.1-0.1,0.1-0.1,0.1h-0.1v7.8h0.1c0,0,0,0,0.1,0
	c0,0,0,0,0.1,0s0.1,0.1,0.1,0.1v6c0,0.1-0.1,0.1-0.1,0.1s0,0-0.1,0c0,0,0,0-0.1,0h-0.1v8.7h3.4l0,0l0,0h0.4l0,0l0,0h3.6h0.4h3.8h0.1
	h3L812.2,1255.3C812.1,1255.3,812.2,1255.3,812.2,1255.3z"/>
<path fill="#CCCCCC" d="M732.1,1208.1L732.1,1208.1C732.2,1208.1,732.2,1208.1,732.1,1208.1C732.2,1208.1,732.2,1208.1,732.1,1208.1
	L732.1,1208.1l0.1-10.2c0-0.1,0.1-0.1,0.1-0.1l0,0h0.4v-0.5h-10.5v0.4h1.4l0,0c0.1,0,0.1,0.1,0.1,0.1v13.1h5.1v-0.4
	c0.4-1.2,1.4-2.3,2.5-2.5L732.1,1208.1L732.1,1208.1L732.1,1208.1L732.1,1208.1z"/>
<rect x="600.4" y="1329.1" fill="#CCCCCC" width="3.8" height="5.5"/>
<path fill="#CCCCCC" d="M850.6,1206.2h3.8h2.5c0.1,0,0.1,0,0.1,0.1h2.6c0-0.1,0.1-0.1,0.1-0.1h0.1v-3.4l0,0l0,0v-3l0,0v-2.6h-6.6
	v0.8l0,0v0.1l0,0h-0.1l0,0h-1.6c-0.1,0-0.1-0.1-0.1-0.1l0,0v-0.8h-10.5v9H850.6L850.6,1206.2z"/>
<path fill="#CCCCCC" d="M460,1325L460,1325c-1.4-0.4-2.3-1.2-2.5-2.5v-0.4h-3.6h-1.4v12.5h3.8v-0.4l0,0c0.4-1.4,1.2-2.3,2.5-2.5h0.5
	l0,0l0,0l0,0l0,0l0,0l0,0l0,0l0,0l0,0l0,0l0,0v2.6h0.8v-9.6L460,1325L460,1325z"/>
<path fill="#3964AF" d="M780.9,1233.7C780.8,1233.7,780.8,1233.4,780.9,1233.7L780.9,1233.7l-2.6-0.1c0,0.1-0.1,0.1-0.1,0.1h-0.1
	v22.9h3.4h0.4h3.6h0.4h3.8h0.1h3v-1l0,0c0-0.1,0.1-0.1,0.1-0.1h1.7c0.1,0,0.1,0.1,0.1,0.1l0,0v0.8h2.6v-23.1h-16.4V1233.7
	L780.9,1233.7z"/>
<path fill="#3964AF" d="M706.8,1308.4v-0.7c0-0.1,0.1-0.1,0.1-0.1h18.2v-49.2h-25.7v0.4c0,0.1-0.1,0.1-0.1,0.1h-0.4l-0.1,2.8h0.4
	c0.1,0,0.1,0.1,0.1,0.1v0.1v58.3h1.2c0.1,0,0.1,0.1,0.1,0.1v0.8c0.1,0,0.1,0.1,0.1,0.1h5.6c0-0.1,0-0.1,0.1-0.1v-10.2
	c0-0.1,0.1-0.1,0.1-0.1L706.8,1308.4C706.9,1308.4,706.8,1308.4,706.8,1308.4z"/>
<path fill="#CCCCCC" d="M452,1336.2C451.7,1336.2,451.7,1336,452,1336.2l-0.1-0.5h-0.1c-0.1,0-0.1-0.1-0.1-0.1c0-0.1,0-0.1,0.1-0.1
	v-0.4v-0.8v-0.8v-1.2v-0.8v-0.8v-0.8v-0.8v-0.8v-0.4c-0.1,0-0.1-0.1-0.1-0.1c0-0.1,0.1-0.1,0.1-0.1l0,0v-4.7h-9.9v3.8
	c0.1,0,0.1,0.1,0.1,0.1v0.8v0.8v0.8v0.7c0,0.1,0,0.1-0.1,0.1v0.7c0.1,0,0.1,0.1,0.1,0.1v0.1v0.8v0.8v0.8v0.8v0.4
	c0.1,0,0.1,0.1,0.1,0.1c0,0.1-0.1,0.1-0.1,0.1h-0.1v6.3h0.4l0,0h4.9h4.4v-0.8l0,0c0-0.1,0.1-0.1,0.1-0.1h2.3v-0.1h-2.8h-0.1v-0.1
	v-0.1c0.1-1,1.2-2.3,2.5-2.5h0.4v-1v-0.1h-1.9v-0.1L452,1336.2L452,1336.2z"/>
<path fill="#3964AF" d="M809.1,1220.2h3.4v-21.3c0-0.1,0.1-0.1,0.1-0.1c0.1,0,0.1,0.1,0.1,0.1v21.3l0,0v-21.3c0-0.1,0.1-0.1,0.1-0.1
	l0,0h0.4v-1.2h-0.4h0.1h-3.8H809h-3.8H805h-3.6H801h-3.8h-0.1h-2.8v0.8c0,0.1-0.1,0.1-0.1,0.1l0,0H793v0.4h0.4l0,0h0.1v0.1
	c0-0.1,0.1-0.1,0.1-0.1c0.1,0,0.1,0.1,0.1,0.1v21.3h12.5c0.1,0,0.1,0.1,0.1,0.1h2.6C808.9,1220.3,809.1,1220.2,809.1,1220.2z"/>
<path fill="#CCCCCC" d="M620,1341.6v12.5v0.4h19v-24.8h-19v9c0,0.1-0.1,0.1-0.1,0.1v2.6C619.9,1341.5,620,1341.5,620,1341.6z"/>
<path fill="#CCCCCC" d="M730.1,1256.3L730.1,1256.3h2.8v-0.8l0,0c0-0.1,0.1-0.1,0.1-0.1h1.7c0.1,0,0.1,0.1,0.1,0.1l0,0v0.8h2.3
	v-17.4l0,0v-0.4c0-0.1,0.1-0.1,0.1-0.1l0,0v-6h-2.5v0.7l0,0c0,0.1-0.1,0.1-0.1,0.1h-1.7c-0.1,0-0.1-0.1-0.1-0.1l0,0v-0.7l0,0l0,0
	l0,0l0,0l0,0l0,0c0,0,0,0,0-0.1l0,0h-2.6l0,0c0,0.1-0.1,0.1-0.1,0.1H730h-0.4v0.7l0,0c0,0.1-0.1,0.1-0.1,0.1h-0.8l0,0l1.8,1.8l0,0
	l0,0l0,0l0,0l0,0l0,0l0,0l0,0l0,0l0,0l0,0l0,0l-0.5,0.4l0,0l-0.4,0.1l0.4,0.1l0,0l0.5,0.4l0,0l0,0l0,0l0,0l0,0l0,0l0,0l0,0l0,0l0,0
	l0,0l0,0l-1.8,1.8l0,0h3.8c0,0,0,0,0.1,0l0,0l0,0l0,0l0,0l0,0l0,0l0,0l0,0l0,0v0.4c0,0.1-0.1,0.1-0.1,0.1l0,0l0,0h-6.3v17.3h3.8l0,0
	l0,0L730.1,1256.3L730.1,1256.3z"/>
<path fill="#CCCCCC" d="M639.6,1354.5h4.4v-0.1l-0.1-0.1c0-0.1,0.1-0.1,0.1-0.1h0.1h0.1h0.1c0.1,0,0.1,0.1,0.1,0.1
	c0,0.1,0,0.1-0.1,0.1v0.1l33.6,0.1v-24.8h-10l0,0c0,0,0,0-0.1,0l0,0l0,0l0,0l0,0l0,0l0,0h-2.6l0,0l0,0l0,0l0,0l0,0l0,0
	c0,0,0,0-0.1,0h-17.4c0,0,0,0-0.1,0l0,0l0,0l0,0l0,0l0,0l0,0H645l0,0l0,0l0,0l0,0l0,0l0,0c0,0,0,0-0.1,0h-0.1v0.4
	c0,0.1-0.1,0.1-0.1,0.1h-2.3c-0.1,0-0.1-0.1-0.1-0.1v-0.4h-2.1L639.6,1354.5L639.6,1354.5z"/>
<path fill="#CCCCCC" d="M599.2,1346v-3.5h-11.7v1.8c0,0.1-0.1,0.1-0.1,0.1l0,0l0,0h-2.3v1.7L599.2,1346L599.2,1346z"/>
<path fill="#CCCCCC" d="M610.2,1342.3L610.2,1342.3L610.2,1342.3L610.2,1342.3L610.2,1342.3L610.2,1342.3L610.2,1342.3L610.2,1342.3
	l-0.1,4.9l0,0v-2.6l0,0l0,0l0,0l0,0l0,0l0,0l0,0l0,0l0,0l0,0h0.1c0,0,0,0,0.1,0h0.4c1.2,0.1,2.1,1.2,2.5,2.5l0,0v0.4h5.7v-4.8h-5.7
	c0,0,0,0-0.1,0l0,0l0,0l0,0l0,0l0,0l0,0L610.2,1342.3C610.3,1342.3,610.3,1342.3,610.2,1342.3L610.2,1342.3z"/>
<path fill="#CCCCCC" d="M856.9,1206.9h-2.5h-3.8h-9.3v0.8c0,0,0,0,0,0.1l0,0l0,0l0,0l0,0l0,0l0,0v2.6l0,0l0,0l0,0l0,0l0,0l0,0
	c0,0,0,0,0,0.1v0.1h0.8c0,0,0,0,0.1,0l0,0l0,0l0,0l0,0l0,0l0,0h2.6c0-0.1,0.1-0.1,0.1-0.1h0.7c0.1,0,0.1,0.1,0.1,0.1l0,0v9h9.9v-0.4
	c0.4-1.2,1.4-2.3,2.5-2.5h0.5h0.1v0.1v2.6h0.8v-5.5l0,0c0-0.1,0.1-0.1,0.1-0.1v-2.6c-0.1,0-0.1-0.1-0.1-0.1l0,0v-0.7l0,0
	c0-0.1,0.1-0.1,0.1-0.1v-2.6c-0.1,0-0.1-0.1-0.1-0.1v-0.8h-0.1c-0.1,0-0.1,0-0.1-0.1L856.9,1206.9
	C857,1206.9,857,1206.9,856.9,1206.9z"/>
<path fill="#CCCCCC" d="M483.3,1334.6h2.6v-12.3h-0.1h-0.2h-0.1h-0.1h-0.1h-0.1h-0.1h0.1h-0.1H485h-0.5h-0.1h-0.2h-0.1H484h-0.7
	h-0.1h-0.5l0,0h-0.1h-0.1h-0.4H482h-0.1h-0.4v0.4v0.1c0,0.1-0.1,0.1-0.1,0.1l0,0h-0.2l0,0c-0.1,0-0.1-0.1-0.1-0.1v-0.1v-0.4h-4.4
	l-0.1,0.1l0,0h-0.1l0,0c-0.1,0-0.1,0-0.1-0.1h-0.7h-0.1h-0.1h-0.1h-0.1h-0.7h-0.4h-0.1h-0.4h-0.1h0.7v12.3h0.1v-2.6l0,0l0,0l0,0l0,0
	l0,0l0,0l0,0l0,0l0,0l0,0h0.1c0,0,0,0,0.1,0h0.4c1.2,0.4,2.3,1.2,2.5,2.5v0.4h3.4L483.3,1334.6L483.3,1334.6z"/>
<path fill="#CCCCCC" d="M486.7,1331.6L486.7,1331.6L486.7,1331.6L486.7,1331.6C486.7,1331.6,486.9,1331.6,486.7,1331.6L486.7,1331.6
	L486.7,1331.6L486.7,1331.6l0.4-0.1c0,0,0,0,0.1,0h0.4c1.2,0.1,2.3,1.2,2.5,2.5v0.4h2.9h5.1v-12.3h-1.9l-0.1,0.1l0,0l0,0H496l0,0
	c-0.1,0-0.1,0-0.1-0.1l0,0h-0.4h-0.1l0,0h-0.1h-0.1h-0.1h-0.2h-0.1h-0.5h-0.1h-0.1h-0.2h-0.1h-0.1h-0.1h-0.5h-0.2h-0.1h-0.1h-0.1
	h-0.4h-0.3l0,0l0,0h-0.1l0,0l-0.1,0.1l0,0l0,0h-0.1l0,0c-0.1,0-0.1,0-0.1-0.1H487v12.3h-0.3v-2.6h0.1L486.7,1331.6L486.7,1331.6z"/>
<path fill="#3964AF" d="M829,1220.2h3.4v-21.6H832h-0.1v-0.1v-1h-3h-0.2h-3.8h-0.1H821l0,0l0,0h-0.5l0,0l0,0h-3.6h-0.4h-2.8v1.7
	c0,0.1-0.1,0.1-0.1,0.1h-0.4v20.9h12.5c0.1,0,0.1,0.1,0.1,0.1h2.6C828.8,1220.3,828.8,1220.2,829,1220.2z"/>
<path fill="#CCCCCC" d="M845.2,1214.4L845.2,1214.4L845.2,1214.4L845.2,1214.4L845.2,1214.4C844.9,1214.4,844.9,1214.4,845.2,1214.4
	L845.2,1214.4L845.2,1214.4L845.2,1214.4h-0.7c-1.2-0.4-2.3-1.2-2.5-2.5v-0.4h-8.6v8.4h6.3h0.4h0.4h3h1.8L845.2,1214.4L845.2,1214.4
	z"/>
<path fill="#CCCCCC" d="M460.8,1416L460.8,1416l-8.6-0.1l0,0h-3l0,0l0,0l0,0h-3v1.7h2.8l0,0l0,0l0,0l0,0l0,0l0,0l0,0l0,0l0,0l0,0
	l0,0l0,0v0.5c-0.1,1.2-1.2,2.1-2.5,2.5l0,0h-0.4v4.4h14.7v-5.3C460.8,1419.9,460.8,1416,460.8,1416z"/>
<path fill="#CCCCCC" d="M511.3,1354.6L511.3,1354.6L511.3,1354.6h0.4l0,0h0.1l0,0h0.1l0,0h0.1l0,0h0.1l0,0h0.1l0,0h0.4l0,0h0.4l0,0
	h0.1l0,0h-0.4l0,0h0.2l0,0h0.1l0,0h0.1l0,0h0.5l0,0h0.1l0,0h0.4l0,0h0.1l0,0h0.1l0,0h0.1l0,0h-0.1l0,0h0.1l0,0h0.1l0,0h0.1l0,0h0.1
	l0,0l0,0v-0.4v-0.1c0-0.1,0.1-0.1,0.1-0.1l0,0l0,0h0.1l0,0l0,0c0.1,0,0.1,0.1,0.1,0.1v0.1v0.4h5.1l0,0l0,0l0,0c0,0,0,0,0.1,0h0.1
	l0,0l0,0c0,0,0,0,0.1,0l0,0l0,0l0,0l0,0l0,0h0.4l0,0h0.4l0,0h0.4l0,0h0.4l0,0h0.1l0,0h0.1l0,0h0.1v-12.2h-0.1v2.6l0,0l0,0l0,0l0,0
	l0,0l0,0l0,0l0,0c0,0,0,0-0.1,0l0,0l0,0H522c0,0,0,0-0.1,0h-0.2c-1.2-0.4-2.1-1.2-2.5-2.5v-0.4h-8.4
	C511.3,1342.3,511.3,1354.6,511.3,1354.6z"/>
<path fill="#CCCCCC" d="M523.7,1354.6L523.7,1354.6L523.7,1354.6h0.4l0,0h0.1l0,0h0.1l0,0h0.1l0,0h0.1l0,0h0.4l0,0h0.1l0,0h0.1l0,0
	H525l0,0l0,0l0,0l0,0v-0.4l-0.1-0.1c0-0.1,0.1-0.1,0.1-0.1h0.1l0,0h0.1l0,0h0.1c0.1,0,0.1,0.1,0.1,0.1c0,0.1,0,0.1-0.1,0.1v0.4h4.7
	l0,0l0,0l0,0c0,0,0,0,0.1,0l0,0l0,0l0,0c0,0,0,0,0.1,0l0,0l0,0l0,0h0.1l0,0h0.4l0,0h0.4l0,0h0.4l0,0h0.4l0,0h0.4l0,0h0.4l0,0h0.4
	l0,0h0.4l0,0h0.4l0,0h0.1l0,0h0.1l0,0h0.1l0,0h0.1l0,0h0.1l0,0h0.1l0,0h0.1l0,0l0,0v-0.4l0,0l0,0l0,0c0,0,0,0,0-0.1l0,0v-7.9v-2.8
	v-0.8h-0.1v2.6l0,0l0,0l0,0l0,0l0,0l0,0l0,0l0,0c0,0,0,0-0.1,0l0,0l0,0h-0.1c0,0,0,0-0.1,0h-0.5c-1.2-0.4-2.3-1.2-2.5-2.5v-0.4h-8.1
	v12.2L523.7,1354.6L523.7,1354.6z"/>
<path fill="#CCCCCC" d="M558.7,1347.2h3.8v-1.4l0,0l0,0c0,0-0.1,0-0.1-0.1v-0.1c0,0,0,0,0-0.1v-2.6h-3.6c0,0,0,0-0.1,0h-0.1
	c0,0-0.1,0-0.1-0.1v-0.1l0,0H556v4.7l0,0c0.1,0,0.1,0.1,0.1,0.1v0.1v0.5c0.4,1,1,1.9,2.1,2.1h0.4v-1.2c0,0,0,0,0-0.1l0,0l0,0v-0.1
	v-0.1v-1c0,0,0-0.1,0.1-0.1C558.5,1347.2,558.7,1347.2,558.7,1347.2z"/>
<path fill="#CCCCCC" d="M511.6,1331.6L511.6,1331.6L511.6,1331.6L511.6,1331.6L511.6,1331.6L511.6,1331.6L511.6,1331.6L511.6,1331.6
	l0.4-0.1c0,0,0,0,0.1,0h0.4c1.2,0.4,2.3,1.2,2.5,2.5v0.4h1.2h6.7h2.5v-12.3l0,0h-0.1h-0.2H525h-0.1h-0.5h-0.2H524h-0.1h-0.1h-0.1
	h-0.1h-0.5H523h-0.1h-0.1h-0.1h-0.1h-0.1h-0.1h-0.1l0,0H522h0.1l0,0l0,0H522h-0.8c-0.1,0-0.1,0-0.1-0.1h-4.7v0.4v0.1
	c0,0.1-0.1,0.1-0.1,0.1l0,0l0,0h-0.6l0,0l0,0c-0.1,0-0.1-0.1-0.1-0.1l0,0l0,0h-0.1h-0.4H515h-0.2h-0.4h0.4h-0.1h-0.2h-0.1h-0.2h-0.1
	H514h-0.3h-0.1h-0.5H513l0,0h-0.8h-0.1H512h-0.1h-0.2h-0.1h-0.1h-0.3v12.3h0.1L511.6,1331.6L511.6,1331.6L511.6,1331.6L511.6,1331.6
	z"/>
<path fill="#CCCCCC" d="M542.1,1334.6L542.1,1334.6C542.1,1334.6,542.2,1334.6,542.1,1334.6l0.8-0.1v-0.4l0,0c0,0,0-0.1,0.1-0.1l0,0
	l0,0l0,0v-2.6l0,0l0,0l0,0l-0.1-0.1l0,0v-9l0,0h-0.1l0,0h-0.1h-0.4h-0.1h-0.1H542h-0.1h-0.2h-0.1h-0.1l0,0h-0.1h-0.1v0.4l0.1,0.1
	c0,0.1-0.1,0.1-0.1,0.1h-0.1l0,0h-0.1l0,0H541c-0.1,0-0.1-0.1-0.1-0.1c0-0.1,0-0.1,0.1-0.1v-0.4h-5.3c0,0,0,0-0.1,0.1c0,0,0,0-0.1,0
	l0,0h-0.1l0,0c-0.1,0-0.1,0-0.1-0.1h-0.1h-0.1h-0.5h-0.1h-0.1h-0.2h-0.4h-0.1h0.7h-0.1h-0.1h-0.1H534h-0.6h-0.1h-0.1h-0.1H533h-0.1
	h-0.5h-0.2h-0.9h-0.1h-0.1H531h-0.1v0.4l0.1,0.1c0,0.1-0.1,0.1-0.1,0.1l0,0l0,0h-0.1l0,0l0,0c-0.1,0-0.1-0.1-0.1-0.1v-0.1v-0.1H526
	v12.3h4.7l0,0h0.4l0,0h1.8l0,0l0,0h3.4l0,0h3.6l0,0l0,0c0.1,0,0.1,0.1,0.1,0.1v0.1L542.1,1334.6L542.1,1334.6L542.1,1334.6z"/>
<path fill="#CCCCCC" d="M449.3,1415.1L449.3,1415.1L449.3,1415.1L449.3,1415.1h3l0,0h8.6v-0.1v-3.8v-5.1h-14.7v1.4h2.8l0,0l0,0l0,0
	l0,0l0,0l0,0l0,0l0,0l0,0l0,0l0,0l0,0v0.5c-0.4,1.2-1.2,2.3-2.5,2.5h-0.3v4.3L449.3,1415.1L449.3,1415.1z"/>
<path fill="#CCCCCC" d="M467.3,1334.1v0.4h6.1l0,0l0,0h0.4v-12.3l0,0h-0.1h-0.4h-0.2H473h-0.1h-0.1l0,0h-0.1h-0.1H472h-0.1v0.4
	l0.1,0.1c0,0.1-0.1,0.1-0.1,0.1h-0.1h-0.1h-0.1c-0.1,0-0.1-0.1-0.1-0.1c0-0.1,0-0.1,0.1-0.1v-0.1h-4.5l-0.1,0.1h-0.4h-0.1l0,0l0,0
	h-0.1h-0.5h-0.4h-0.1h0.1l0,0h-0.1h-0.2h-0.7v9.3h0.5C465.9,1331.6,467,1332.9,467.3,1334.1z"/>
<path fill="#CCCCCC" d="M610.5,1347.9C610.5,1348.1,610.3,1348.1,610.5,1347.9L610.5,1347.9l-0.4,0.1v5.5h9v-5.5h-5.7l0,0
	c-0.1,0-0.1-0.1-0.1-0.1v-0.1L610.5,1347.9L610.5,1347.9L610.5,1347.9L610.5,1347.9z"/>
<path fill="#3964AF" d="M776.9,1233.7h-16.4c-0.1,0-0.1-0.1-0.1-0.1l0,0h-2.1c0,0.1-0.1,0.1-0.1,0.1h-0.5v10.9v1v0.4v10.5h0.1h3.8
	h0.1h3.8h0.4h3.6h0.4h3v-1l0,0c0-0.1,0.1-0.1,0.1-0.1h1.7c0.1,0,0.1,0.1,0.1,0.1l0,0v0.8h2.6L776.9,1233.7L776.9,1233.7z"/>
<path fill="#CCCCCC" d="M446.3,1365.9H461v-6.7v-2.5h-14.7v0.7h2.8h0.1v0.1v0.7c-0.4,1.2-1.2,2.1-2.5,2.5h-0.4v0.5l0,0V1365.9
	L446.3,1365.9z"/>
<path fill="#CCCCCC" d="M460.8,1385.5v-5.1v-3.8v-0.1h-14.6v1.7h2.8l0,0l0,0l0,0l0,0l0,0l0,0l0,0l0,0l0,0l0,0l0,0l0,0v0.5
	c-0.1,1-1.2,2.3-2.5,2.5h-0.3v4.3H460.8L460.8,1385.5z"/>
<path fill="#CCCCCC" d="M505.9,1334.6h4.7v-12.3h-4.4c0,0,0,0-0.1,0.1c0,0,0,0-0.1,0h-0.4c-0.1,0-0.1,0-0.1-0.1h-0.2h-0.1h-0.1H505
	h-0.1h-0.6h-0.1h-0.4h-0.1h0.5h-0.1H504h-0.1h-0.1h-0.1h-0.5h-0.1H503h-0.1h-0.1h0.1h-0.1h-0.1h-0.1h-0.1l0,0v0.4v0.1
	c0,0.1-0.1,0.1-0.1,0.1l0,0l0,0h-0.1l0,0l0,0h-0.1c-0.1,0-0.1-0.1-0.1-0.1c0-0.1,0-0.1,0.1-0.1v-0.4h-2.3v12.3h0.1v-2.6l0,0l0,0l0,0
	l0,0l0,0l0,0l0,0l0,0l0,0l0,0h0.1c0,0,0,0,0.1,0h0.4c1.2,0.4,2.1,1,2.5,2.5l0,0v0.4h0.5L505.9,1334.6L505.9,1334.6z"/>
<path fill="#3964AF" d="M860.6,1235L860.6,1235C860.6,1234.9,860.6,1234.9,860.6,1235v-1.7h-0.4H840c-0.1,0-0.1-0.1-0.1-0.1l0,0
	h-2.6c0,0.1-0.1,0.1-0.1,0.1h-3.8v7.8h0.1c0,0,0,0,0.1,0c0,0,0,0,0.1,0c0.1,0,0.1,0.1,0.1,0.1v6c0,0.1-0.1,0.1-0.1,0.1s0,0-0.1,0
	c0,0,0,0-0.1,0h-0.1v7.8h0.4c0.1,0,0.1,0.1,0.1,0.1v0.8h2.8h0.4h3.8h0.1h3.8h0.1h3.8h0.1h3v-0.8c0-0.1,0.1-0.1,0.1-0.1h1.7
	c0.1,0,0.1,0.1,0.1,0.1v0.8h2.8l0,0l0,0l0,0l0,0l0,0l0,0l0,0c0,0,0,0,0.1,0h4.1L860.6,1235L860.6,1235L860.6,1235z"/>
<path fill="#CCCCCC" d="M460.8,1405.1v-5.1v-3.8l0,0h-14.6v1.7h2.8l0,0l0,0l0,0l0,0l0,0l0,0l0,0l0,0l0,0l0,0l0,0l0,0v0.5
	c-0.1,1.2-1.2,2.3-2.5,2.5h-0.3v4.3L460.8,1405.1L460.8,1405.1z"/>
<path fill="#CCCCCC" d="M609.5,1353.8v-8.1l0,0l0,0h-0.7c-1.2-0.4-2.1-1.2-2.5-2.5v-0.5h-5.5v11L609.5,1353.8L609.5,1353.8z"/>
<path fill="#CCCCCC" d="M460.8,1395.2L460.8,1395.2v-4.1v-5.1h-14.6v1.4h2.8l0,0l0,0l0,0l0,0l0,0l0,0l0,0l0,0l0,0l0,0l0,0l0,0v0.7
	c-0.1,1-1.4,2.3-2.5,2.5h-0.3v4.3L460.8,1395.2L460.8,1395.2z"/>
<path fill="#CCCCCC" d="M408.1,1407v18.3h23.1v-11.7c0-0.1,0.1-0.1,0.1-0.1l0,0h7.9l0,0h-2.5l0,0l0,0l0,0l0,0l0,0l0,0l0,0l0,0l0,0
	l0,0l0,0v-0.1c0,0,0,0,0-0.1v-0.4c0.4-1.2,1.2-2.3,2.5-2.5h0.4v-2.6L408.1,1407L408.1,1407z"/>
<path fill="#CCCCCC" d="M427.2,1390.3h11.7v-7.9v-0.8h-0.4l0,0c-1.2-0.4-2.3-1.4-2.5-2.5v-0.5v-0.1h-9v11.9h0.2V1390.3z"/>
<path fill="#CCCCCC" d="M426.5,1390.3v-9.1l0,0l0,0c0,0,0,0-0.1,0l0,0l0,0l0,0l0,0h-0.5c-1.2-0.4-2.3-1.2-2.5-2.5v-0.4h-15.3v11.9
	L426.5,1390.3L426.5,1390.3z"/>
<path fill="#CCCCCC" d="M408.1,1358.5v19.3h13.4v-0.4h-2.6l0,0l0,0l0,0l0,0l0,0l0,0l0,0l0,0l0,0l0,0l0,0l0,0l0,0v-0.7l0,0
	c0.4-1.4,1-2.1,2.5-2.5l0,0h0.2v-15.5L408.1,1358.5L408.1,1358.5z"/>
<path fill="#CCCCCC" d="M431,1358.5h-9v14h5.6v-0.4l0,0c0.4-1.4,1.2-2.1,2.5-2.5l0,0h0.5h0.1v0.1v2.6h0.4
	C431,1372.4,431,1358.5,431,1358.5z"/>
<path fill="#CCCCCC" d="M436.3,1391.7v-0.5v-0.1h-28.2v15.2h31.3v-10c0,0,0,0,0-0.1v-0.4l0,0v-1.2H439
	C437.6,1394.1,436.7,1392.9,436.3,1391.7z"/>
<path fill="#CCCCCC" d="M764.9,1203.7v0.5v0.1h8.1v-6h-0.4l0,0c-0.1,0-0.1-0.1-0.1-0.1l0,0v-0.8h-3h-0.1h-3.6h-0.4h-3.5v3.8
	C763.1,1201.2,764.6,1202.4,764.9,1203.7z"/>
<path fill="#CCCCCC" d="M432.5,1331.9v2.1h7.8v-8.4h-7.8v3.4l0,0c0,0.1-0.1,0.1-0.1,0.1l0,0H432h-0.5l0,0v2.5h0.5
	c0.1,0,0.1,0,0.1,0.1L432.5,1331.9L432.5,1331.9C432.4,1331.7,432.5,1331.7,432.5,1331.9z"/>
<path fill="#CCCCCC" d="M709.4,1236.1L709.4,1236.1L709.4,1236.1L709.4,1236.1L709.4,1236.1L709.4,1236.1L709.4,1236.1l-0.1,2.3h4.4
	c0.1,0,0.1,0.1,0.1,0.1l0,0v0.4c0,0.1-0.1,0.1-0.1,0.1h-3.1v17.3h9.9V1239h-2.6h-0.1v-0.1v-0.4v-5.5h-2.3l0,0h-1.7l0,0H713v0.4
	c-0.1,1-1.4,2.3-2.5,2.5L709.4,1236.1L709.4,1236.1L709.4,1236.1L709.4,1236.1z"/>
<path fill="#CCCCCC" d="M699.5,1405.8v1h1.2v-0.4c0.4-1.2,1.2-2.1,2.5-2.5h0.7l0,0l0,0l0,0l0,0l0,0l0,0l0,0l0,0l0,0l0,0l0,0l0,0v3.1
	l0,0h4.7l0,0l0,0h-4.1c-0.1,0-0.1-0.1-0.1-0.1v-7.8h-0.1v7.8c0,0.1-0.1,0.1-0.1,0.1c-0.1,0-0.1-0.1-0.1-0.1v-7.8h-1.7
	c-0.1,0-0.1-0.1-0.1-0.1v-0.4c0-0.1,0.1-0.1,0.1-0.1h1.4v-2.6h-1.2c-0.1,0-0.1-0.1-0.1-0.1v-0.1h-2.8v3l0,0c0.1,0,0.1,0.1,0.1,0.1
	v0.4c0,0.1-0.1,0.1-0.1,0.1l0,0v1c0,0.1-0.1,0.1-0.1,0.1l0,0l-0.1,0.1H699l0,0v5.1h0.5C699.4,1405.6,699.5,1405.8,699.5,1405.8z"/>
<path fill="#CCCCCC" d="M554.7,1322.4L554.7,1322.4h-0.4h-0.1h-0.1H554h-0.1h-0.1h-0.1l0,0h-0.1h-0.1h-0.1h-0.2h-0.1H553h-0.1h-0.1
	h-0.1h-0.1h-0.1h0.1l0,0h-0.1h-0.3v0.4v0.1c0,0.1-0.1,0.1-0.1,0.1l0,0l0,0H552l0,0l0,0c-0.1,0-0.1-0.1-0.1-0.1v-0.1v-0.4h-4.4
	c0,0,0,0-0.1,0.1c0,0,0,0-0.1,0h-0.1c-0.1,0-0.1,0-0.1-0.1H547h-0.1h-0.1h-0.1h-0.1h-0.1h-1.8h-1v2.1v0.1v4.7v0.1v1.8h0.4
	c1.2,0.1,2.3,1.2,2.5,2.5v0.4c0,0,0,0,0,0.1v0.1l0,0l0,0l0,0l0,0l0,0l0,0l0,0l0,0l0,0l0,0l0,0H544v0.1h3.1h6.9h0.8L554.7,1322.4
	L554.7,1322.4z"/>
<path fill="#CCCCCC" d="M572.9,1343.6h-3.1c0,0,0,0-0.1,0.1v0.1c0,0,0,0-0.1,0.1h-0.1l0,0c0,0,0,0-0.1,0l0,0l0,0l0,0h-3.7v0.8l0,0
	v1.7l0,0l0,0l0,0l0,0v0.1l-0.1,0.1l0,0l0,0v1.4h4.4v-0.4l0,0c0.4-1.2,1.4-2.3,2.5-2.5h0.4c0,0,0,0,0.1,0h0.1l0,0l0,0L572.9,1343.6
	L572.9,1343.6z"/>
<path fill="#CCCCCC" d="M501.3,1342.4h-2.5v12.2h1.9v-0.4l-0.1-0.1c0-0.1,0.1-0.1,0.1-0.1h0.1l0,0h0.1l0,0l0,0
	c0.1,0,0.1,0.1,0.1,0.1v0.1v0.4h0.1l0,0h0.4l0,0h0.1l0,0h0.1l0,0h0.1l0,0h0.1l0,0h-0.1l0,0h0.1l0,0h0.1l0,0h0.1l0,0h0.7l0,0h0.1l0,0
	h0.1l0,0h0.1l0,0h0.1l0,0h0.1l0,0h0.8l0,0h0.1l0,0h0.1l0,0h0.1l0,0h0.6l0,0h0.1l0,0h0.1l0,0h0.1l0,0h0.1l0,0h0.1l0,0l0,0l0,0
	c0,0,0,0,0.1,0l0,0h-0.7l0,0c0,0,0,0,0.1,0l0,0l0,0l0,0h4.4v-12.2h-0.1v2.6l0,0l0,0l0,0l0,0l0,0l0,0l0,0l0,0c0,0,0,0-0.1,0l0,0l0,0
	h0c0,0,0,0-0.1,0h-0.4c-1.2-0.1-2.1-1.2-2.5-2.5v-0.4h-1L501.3,1342.4L501.3,1342.4z"/>
<path fill="#CCCCCC" d="M536,1343.3v3v7.9c0,0,0,0,0,0.1l0,0l0,0l0,0v0.4h4.7l0,0l0,0l0,0c0,0,0,0,0.1,0l0,0h0.1l0,0c0,0,0,0,0.1,0
	l0,0l0,0l0,0l0,0l0,0h0.1l0,0h0.1l0,0h0.1l0,0h0.1l0,0h0.1l0,0h0.1l0,0h0.1l0,0h0.1l0,0h0.1l0,0h0.1l0,0l0,0l0,0h0.4l0,0h0.4l0,0
	h0.4l0,0h0.4l0,0h0.4l0,0h0.4l0,0h0.1l0,0l0,0l0,0l0,0c0,0,0,0,0.1,0h0.1c0,0,0,0,0.1,0l0,0l0,0l0,0h4.4v-0.4l0,0l0,0v-3.4h-1.7l0,0
	l0,0l0,0c0,0,0,0-0.1,0l0,0l0,0c0,0,0,0-0.1,0v-0.1l0,0l0,0l0,0l0,0v-1.7l0,0l0,0l0,0l0,0l0,0l0.1-0.1l0,0l0,0l0,0l0,0h1.7l0,0v-6.3
	H548h-3h-5.7v0.4c-0.4,1.4-1.2,2.3-2.5,2.5h-0.3c0,0,0,0-0.1,0h-0.1l0,0l0,0c0,0,0,0-0.1,0l0,0l0,0l0,0l0,0l0,0l0,0l0,0l0,0v-2.6
	h-0.1v0.7l0,0v-0.4H536L536,1343.3z"/>
<path fill="#CCCCCC" d="M761.9,1208.9h0.4c1.2,0.4,2.1,1.2,2.5,2.5v0.5l0,0l0,0l0,0l0,0l0,0l0,0l0,0l0,0h8.3v-7.3h-11L761.9,1208.9
	L761.9,1208.9z"/>
<path fill="#CCCCCC" d="M550.9,1354.2h11.6v-3.1h-1.4c-0.1,0-0.1-0.1-0.1-0.1l0,0c0-0.1,0.1-0.1,0.1-0.1h1.4v-2.8h-3.6v2.6l0,0l0,0
	l0,0l0,0l0,0l0,0l0,0l0,0c0,0,0,0-0.1,0l0,0l0,0l0,0l0,0h-0.4c-1.4-0.4-2.1-1.2-2.5-2.5v-0.4h-0.2c-0.1,0-0.1-0.1-0.1-0.1v-4.9h-1.1
	v0.4c-0.4,1.4-1.2,2.3-2.5,2.5h-0.5l0,0h-0.1L550.9,1354.2L550.9,1354.2z"/>
<path fill="#CCCCCC" d="M474.2,1342.4v12.2h0.1l0,0h0.1l0,0h0.1l0,0h0.1l0,0h0.1l0,0h0.1l0,0h0.5l0,0h0.1l0,0h0.1l0,0h0.1l0,0h0.1
	l0,0l0,0l0,0l0,0l0,0c0,0,0,0,0.1,0l0,0h-0.4l0,0c0,0,0,0,0.1,0l0,0l0,0l0,0h4.7v-0.4v-0.1c0-0.1,0.1-0.1,0.1-0.1l0,0l0,0l0,0h0.1
	l0,0l0,0l0,0c0.1,0,0.1,0.1,0.1,0.1v0.1v0.4h0.1l0,0h-0.1l0,0h0.1l0,0h0.1l0,0h0.6l0,0h0.1l0,0h0.1l0,0h0.1l0,0h0.1l0,0h0.4l0,0h1.7
	l0,0h0.4l0,0h0.1l0,0h0.4l0,0h0.4l0,0h0.4l0,0h0.4v-12.2h-0.1v2.6l0,0l0,0l0,0l0,0l0,0l0,0l0,0l0,0c0,0,0,0-0.1,0l0,0l0,0h-0.1
	c0,0,0,0-0.1,0h-0.4c-1.2-0.4-2.1-1.2-2.5-2.5v-0.4h-2.4L474.2,1342.4L474.2,1342.4z"/>
<path fill="#CCCCCC" d="M486.5,1354.6h4.4v-0.4l-0.1-0.1c0-0.1,0.1-0.1,0.1-0.1h0.1l0,0h0.1l0,0h0.1c0.1,0,0.1,0.1,0.1,0.1
	c0,0.1,0,0.1-0.1,0.1v0.4h0.1l0,0h0.4l0,0h0.1l0,0h0.4l0,0h0.1l0,0h0.1l0,0h0.1l0,0h0.4l0,0h0.1l0,0h0.1l0,0h0.1l0,0h0.1l0,0h0.1
	l0,0H493l0,0l0,0l0,0h0.1l0,0h0.1l0,0h0.1l0,0h0.4l0,0h0.4l0,0h0.5l0,0h0.4l0,0l0,0l0,0c0,0,0,0,0.1,0l0,0h0.1l0,0c0,0,0,0,0.1,0
	l0,0l0,0l0,0h1.9v-12.2h0.5v2.6l0,0l0,0l0,0l0,0l0,0l0,0l0,0l0,0c0,0,0,0-0.1,0l0,0l0,0h-0.1c0,0,0,0-0.1,0H497
	c-1.2-0.4-2.1-1.2-2.5-2.5l0,0v-0.4h-8v12.4h-0.1L486.5,1354.6L486.5,1354.6z"/>
<path fill="#CCCCCC" d="M700.9,1407.6L700.9,1407.6L700.9,1407.6c0,0.4-0.1,0.4-0.1,0.4l0,0h-1.2v9.6h11c0.1,0,0.1,0,0.1,0.1h2.6
	c0-0.1,0.1-0.1,0.1-0.1h0.1v-1.4c0-0.1,0-0.1,0.1-0.1v-2.6c-0.1,0-0.1-0.1-0.1-0.1v-0.7c0-0.1,0.1-0.1,0.1-0.1h1.8v-4.4l0,0v2.6l0,0
	l0,0l0,0l0,0l0,0l0,0l0,0l0,0c0,0,0,0-0.1,0l0,0l0,0l0,0l0,0h-0.5l0,0c-1.4-0.4-2.3-1.2-2.5-2.5v-0.4h-0.7c-0.1,0-0.1-0.1-0.1-0.1
	v-0.1l0,0h-2.6l0,0v0.1c0,0.1-0.1,0.1-0.1,0.1h-4.9c-0.1,0-0.1-0.1-0.1-0.1v-0.1l0,0L700.9,1407.6L700.9,1407.6z"/>
<path fill="#CCCCCC" d="M711.4,1407C711.4,1407,711.7,1407,711.4,1407L711.4,1407l0.1-7.5H705v7.4h3.6c0.1,0,0.1,0.1,0.1,0.1l0,0
	H711.4L711.4,1407L711.4,1407z"/>
<path fill="#CCCCCC" d="M436.1,1341.2C436.1,1341.2,436.3,1341.2,436.1,1341.2l1.4-0.1l0,0l0,0l0,0v-1.7l0,0l0,0v-0.1
	c0,0,0-0.1,0.1-0.1h0.1l0,0l0,0h1.4l0,0l0,0h0.1c0,0,0.1,0,0.1,0.1v0.1l0,0l0,0v1.7l0,0l0,0l0,0h1.1v-2.6h-0.2
	c-0.1,0-0.1-0.1-0.1-0.1v-3.4h-7.9v6.9h0.1v-2.8v-0.1h0.1h0.5c1.2,0.4,2.3,1.2,2.5,2.5v0.4h0.4L436.1,1341.2L436.1,1341.2z"/>
<path fill="#CCCCCC" d="M439.3,1364.8v-3l0,0v-6h-7.4v16.5h7.4l0,0h-2.8l0,0l0,0l0,0l0,0l0,0l0,0l0,0l0,0l0,0l0,0l0,0l0,0l0,0v-0.5
	c0.4-1.2,1.2-2.3,2.5-2.5h0.4L439.3,1364.8L439.3,1364.8z"/>
<path fill="#CCCCCC" d="M429,1332.3L429,1332.3L429,1332.3L429,1332.3C428.9,1332.3,428.9,1332.3,429,1332.3L429,1332.3
	C428.9,1332.3,428.9,1332.3,429,1332.3C428.9,1332.3,428.9,1332.3,429,1332.3L429,1332.3L429,1332.3L429,1332.3L429,1332.3l-0.1-0.4
	l0,0v-0.4l0,0c0.4-1.2,1-2.1,2.1-2.5v-6.9h-22.9v35.3H431v-3.5h-2.6l0,0l0,0l0,0l0,0l0,0l0,0l0,0l0,0l0,0l0,0l0,0l0,0l0,0v-0.5
	c0.4-1.2,1.2-2.3,2.5-2.5h0.4v-18.6H429L429,1332.3z"/>
<path fill="#CCCCCC" d="M572.4,1342.9h-9.2v0.1v0.1h1.4l0,0l0,0h0.4h7.4L572.4,1342.9L572.4,1342.9L572.4,1342.9z"/>
<path fill="#CCCCCC" d="M564.4,1353.8L564.4,1353.8c0.1,0,0.4,0,0.4,0.1v-10h-0.4V1353.8L564.4,1353.8z"/>
<path fill="#989798" d="M678.9,1319.7v34.9H461.7v71.7h-55.2v-71.7h-1.7v-34.9H678.9 M681.6,1316.8h-2.7H405h-2.9v2.6v34.9v2.6h1.8
	v69.1v2.6h2.6h55.2h2.6v-2.6v-69.1h214.4h2.6v-2.6v-34.9L681.6,1316.8L681.6,1316.8z"/>
<path fill="#989798" d="M872.1,1195.3v62.6H725.9v62.6h-28.3v-123.4h0.8v-1.7L872.1,1195.3 M874.8,1192.4h-2.6H698.5h-2.6v1.7h-0.8
	v2.6v123.5v2.6h2.6H726h2.6v-2.6v-59.8H872h2.6v-2.6v-62.6L874.8,1192.4L874.8,1192.4z"/>
<path fill="#989798" d="M726.5,1356.4v72.7h-29.3v-72.7H726.5 M729.2,1353.8h-2.6h-29.2h-2.6v2.6v72.7v2.6h2.6h29.2h2.6v-2.6v-72.7
	V1353.8L729.2,1353.8z"/>
<g enable-background="new    ">
	<path fill="#FFFFFF" d="M780.8,1207.5h-0.5v-0.4c0.2-0.1,0.5-0.2,0.7-0.5h0.4v3.6h-0.5v-2.7H780.8z"/>
	<path fill="#FFFFFF" d="M783,1207.5h-0.5v-0.4c0.2-0.1,0.5-0.2,0.7-0.5h0.4v3.6h-0.5v-2.7H783z"/>
	<path fill="#FFFFFF" d="M784.6,1210.4v-0.5c0.7-1.1,1.2-1.8,1.2-2.3c0-0.2-0.1-0.4-0.2-0.4c-0.2,0-0.2,0.1-0.2,0.4v0.2h-0.6v-0.1
		c0-0.5,0.4-1,0.8-1c0.5,0,0.8,0.4,0.8,0.7c0,0.6-0.1,1-1.1,2.4h1.1v0.5L784.6,1210.4L784.6,1210.4z"/>
	<path fill="#FFFFFF" d="M787.5,1209.2v0.2c0,0.2,0.1,0.4,0.2,0.4s0.2-0.1,0.2-0.4v-0.2c0-0.4-0.1-0.5-0.5-0.5v-0.5
		c0.4,0,0.5-0.1,0.5-0.5c0-0.4-0.1-0.5-0.2-0.5c-0.1,0-0.2,0.1-0.2,0.4v0.1H787v-0.1c0-0.5,0.2-0.8,0.8-0.8c0.5,0,0.7,0.5,0.7,0.8
		c0,0.4-0.1,0.6-0.4,0.8c0.4,0.2,0.5,0.4,0.5,0.8c0,0.7-0.2,1-0.8,1c-0.5,0-0.8-0.2-0.8-0.8v-0.2L787.5,1209.2L787.5,1209.2z"/>
</g>
<g enable-background="new    ">
	<path fill="#FFFFFF" d="M799.5,1207.5H799v-0.4c0.2-0.1,0.5-0.2,0.7-0.5h0.4v3.6h-0.5v-2.7H799.5z"/>
	<path fill="#FFFFFF" d="M801.8,1207.5h-0.5v-0.4c0.2-0.1,0.5-0.2,0.7-0.5h0.4v3.6h-0.5v-2.7H801.8z"/>
	<path fill="#FFFFFF" d="M803.5,1210.4v-0.5c0.7-1.1,1.2-1.8,1.2-2.3c0-0.2-0.1-0.4-0.2-0.4c-0.2,0-0.2,0.1-0.2,0.4v0.2h-0.6v-0.1
		c0-0.5,0.4-1,0.8-1c0.5,0,0.8,0.4,0.8,0.7c0,0.6-0.1,1-1.1,2.4h1.1v0.5L803.5,1210.4L803.5,1210.4z"/>
	<path fill="#FFFFFF" d="M805.7,1207.3v-0.5h1.7v0.4l-0.7,3.2h-0.6l0.7-3.1H805.7z"/>
</g>
<g enable-background="new    ">
	<path fill="#FFFFFF" d="M818.5,1207.5H818v-0.4c0.2-0.1,0.5-0.2,0.7-0.5h0.4v3.6h-0.5v-2.7H818.5z"/>
	<path fill="#FFFFFF" d="M820.6,1207.5h-0.5v-0.4c0.2-0.1,0.5-0.2,0.7-0.5h0.4v3.6h-0.5v-2.7H820.6z"/>
	<path fill="#FFFFFF" d="M822.7,1209.2v0.2c0,0.2,0.1,0.4,0.2,0.4c0.1,0,0.2-0.1,0.2-0.4v-0.2c0-0.4-0.1-0.5-0.5-0.5v-0.5
		c0.4,0,0.5-0.1,0.5-0.5c0-0.4-0.1-0.5-0.2-0.5c-0.1,0-0.2,0.1-0.2,0.4v0.1h-0.5v-0.1c0-0.5,0.2-0.8,0.8-0.8c0.5,0,0.7,0.5,0.7,0.8
		c0,0.4-0.1,0.6-0.4,0.8c0.4,0.2,0.5,0.4,0.5,0.8c0,0.7-0.2,1-0.8,1c-0.5,0-0.8-0.2-0.8-0.8v-0.2L822.7,1209.2L822.7,1209.2z"/>
	<path fill="#FFFFFF" d="M825,1209.2v0.2c0,0.2,0.1,0.4,0.2,0.4c0.1,0,0.2-0.1,0.2-0.4v-0.2c0-0.4-0.1-0.5-0.5-0.5v-0.5
		c0.4,0,0.5-0.1,0.5-0.5c0-0.4-0.1-0.5-0.2-0.5c-0.1,0-0.2,0.1-0.2,0.4v0.1h-0.5v-0.1c0-0.5,0.2-0.8,0.8-0.8c0.5,0,0.7,0.5,0.7,0.8
		c0,0.4-0.1,0.6-0.4,0.8c0.4,0.2,0.5,0.4,0.5,0.8c0,0.7-0.2,1-0.8,1c-0.5,0-0.8-0.2-0.8-0.8v-0.2L825,1209.2L825,1209.2z"/>
</g>
<g enable-background="new    ">
	<path fill="#FFFFFF" d="M801.3,1244.7h-0.5v-0.4c0.2-0.1,0.5-0.2,0.7-0.5h0.4v3.6h-0.5v-2.8h-0.1L801.3,1244.7L801.3,1244.7z"/>
	<path fill="#FFFFFF" d="M803.5,1244.7H803v-0.4c0.2-0.1,0.5-0.2,0.7-0.5h0.4v3.6h-0.5v-2.8h-0.1L803.5,1244.7L803.5,1244.7z"/>
	<path fill="#FFFFFF" d="M805,1247.5v-0.5c0.7-1.1,1.2-1.8,1.2-2.3c0-0.2-0.1-0.4-0.2-0.4c-0.2,0-0.2,0.1-0.2,0.4v0.2h-0.6v-0.1
		c0-0.5,0.4-1,0.8-1c0.4,0,0.8,0.4,0.8,0.7c0,0.6-0.1,1-1.1,2.4h1.1v0.5L805,1247.5L805,1247.5z"/>
	<path fill="#FFFFFF" d="M808.5,1244.8L808.5,1244.8c0-0.3-0.1-0.5-0.2-0.5c-0.1,0-0.2,0.1-0.2,0.4v0.8c0.1-0.1,0.2-0.2,0.5-0.2
		c0.4,0,0.6,0.2,0.6,0.7v0.4c0,0.7-0.2,1.1-0.8,1.1s-0.8-0.2-0.8-1v-1.8c0-0.6,0.2-1,0.8-1c0.5,0,0.7,0.4,0.7,0.7v0.2L808.5,1244.8
		L808.5,1244.8z M807.9,1246.7c0,0.2,0.1,0.4,0.2,0.4c0.1,0,0.2-0.1,0.2-0.4v-0.6c0-0.2-0.1-0.4-0.2-0.4s-0.2,0.1-0.4,0.1v0.8
		L807.9,1246.7L807.9,1246.7z"/>
</g>
<g enable-background="new    ">
	<path fill="#FFFFFF" d="M764.3,1244.7h-0.5v-0.4c0.2-0.1,0.5-0.2,0.7-0.5h0.4v3.6h-0.5v-2.8h-0.1L764.3,1244.7L764.3,1244.7z"/>
	<path fill="#FFFFFF" d="M766.5,1244.7H766v-0.4c0.2-0.1,0.5-0.2,0.7-0.5h0.4v3.6h-0.5v-2.8h-0.1L766.5,1244.7L766.5,1244.7z"/>
	<path fill="#FFFFFF" d="M768.8,1244.7h-0.6v-0.4c0.2-0.1,0.5-0.2,0.7-0.5h0.4v3.6h-0.5v-2.8h-0.1L768.8,1244.7L768.8,1244.7z"/>
	<path fill="#FFFFFF" d="M771.4,1244.8L771.4,1244.8c0-0.3-0.1-0.5-0.2-0.5c-0.1,0-0.2,0.1-0.2,0.4v0.8c0.1-0.1,0.2-0.2,0.5-0.2
		c0.4,0,0.6,0.2,0.6,0.7v0.4c0,0.7-0.2,1.1-0.8,1.1c-0.6,0-0.8-0.2-0.8-1v-1.8c0-0.6,0.2-1,0.8-1c0.5,0,0.7,0.4,0.7,0.7v0.2
		L771.4,1244.8L771.4,1244.8z M770.9,1246.7c0,0.2,0.1,0.4,0.2,0.4c0.1,0,0.2-0.1,0.2-0.4v-0.6c0-0.2-0.1-0.4-0.2-0.4
		c-0.1,0-0.2,0.1-0.4,0.1v0.8L770.9,1246.7L770.9,1246.7z"/>
</g>
<g enable-background="new    ">
	<path fill="#FFFFFF" d="M707.4,1281.4h-0.5v-0.4c0.2-0.1,0.5-0.2,0.7-0.5h0.4v3.6h-0.5v-2.8h-0.1L707.4,1281.4L707.4,1281.4z"/>
	<path fill="#FFFFFF" d="M709.1,1284.2v-0.5c0.7-1.1,1.2-1.8,1.2-2.3c0-0.2-0.1-0.4-0.2-0.4c-0.2,0-0.2,0.1-0.2,0.4v0.2h-0.6v-0.1
		c0-0.5,0.4-1,0.8-1s0.8,0.4,0.8,0.7c0,0.6-0.1,1-1.1,2.4h1.1v0.5L709.1,1284.2L709.1,1284.2z"/>
	<path fill="#FFFFFF" d="M711.3,1281.6c0-0.6,0.2-1,0.8-1s0.8,0.2,0.8,1v1.8c0,0.6-0.2,1-0.8,1s-0.8-0.2-0.8-1V1281.6z
		 M712.4,1281.4c0-0.2-0.1-0.4-0.2-0.4c-0.1,0-0.2,0.1-0.2,0.4v2c0,0.2,0.1,0.4,0.2,0.4c0.1,0,0.2-0.1,0.2-0.4V1281.4z"/>
	<path fill="#FFFFFF" d="M713.9,1282.3c-0.2-0.1-0.4-0.5-0.4-0.7c0-0.7,0.4-1,0.8-1c0.5,0,0.8,0.4,0.8,1c0,0.2-0.1,0.5-0.4,0.7
		c0.2,0.2,0.4,0.5,0.4,0.8c0,0.6-0.2,1-0.8,1c-0.6,0-0.8-0.4-0.8-1C713.6,1282.7,713.6,1282.5,713.9,1282.3z M714.7,1283.3
		c0-0.4-0.1-0.6-0.4-0.6c-0.2,0-0.4,0.2-0.4,0.6c0,0.4,0.1,0.6,0.4,0.6C714.6,1283.9,714.7,1283.6,714.7,1283.3z M714.7,1281.6
		c0-0.4-0.1-0.5-0.2-0.5c-0.1,0-0.2,0.1-0.2,0.5s0.1,0.5,0.2,0.5S714.7,1281.8,714.7,1281.6z"/>
</g>
<g enable-background="new    ">
	<path fill="#FFFFFF" d="M707.4,1371.5h-0.5v-0.4c0.2-0.1,0.5-0.2,0.7-0.5h0.4v3.6h-0.5v-2.8h-0.1L707.4,1371.5L707.4,1371.5z"/>
	<path fill="#FFFFFF" d="M709.1,1374.4v-0.5c0.7-1.1,1.2-1.8,1.2-2.3c0-0.2-0.1-0.4-0.2-0.4c-0.2,0-0.2,0.1-0.2,0.4v0.2h-0.6v-0.1
		c0-0.5,0.4-1,0.8-1s0.8,0.4,0.8,0.7c0,0.6-0.1,1-1.1,2.4h1.1v0.5L709.1,1374.4L709.1,1374.4z"/>
	<path fill="#FFFFFF" d="M711.9,1371.5h-0.5v-0.4c0.2-0.1,0.5-0.2,0.7-0.5h0.4v3.6H712v-2.8h-0.1L711.9,1371.5L711.9,1371.5z"/>
	<path fill="#FFFFFF" d="M713.5,1374.4v-0.5c0.7-1.1,1.2-1.8,1.2-2.3c0-0.2-0.1-0.4-0.2-0.4c-0.2,0-0.2,0.1-0.2,0.4v0.2h-0.6v-0.1
		c0-0.5,0.4-1,0.8-1s0.8,0.4,0.8,0.7c0,0.6-0.1,1-1.1,2.4h1.1v0.5L713.5,1374.4L713.5,1374.4z"/>
</g>
<g enable-background="new    ">
	<path fill="#FFFFFF" d="M783.6,1244.7h-0.5v-0.4c0.2-0.1,0.5-0.2,0.7-0.5h0.4v3.6h-0.5v-2.8h-0.1L783.6,1244.7L783.6,1244.7z"/>
	<path fill="#FFFFFF" d="M785.9,1244.7h-0.5v-0.4c0.2-0.1,0.5-0.2,0.7-0.5h0.4v3.6H786v-2.8h-0.1L785.9,1244.7L785.9,1244.7z"/>
	<path fill="#FFFFFF" d="M787.5,1247.5v-0.5c0.7-1.1,1.2-1.8,1.2-2.3c0-0.2-0.1-0.4-0.2-0.4c-0.2,0-0.2,0.1-0.2,0.4v0.2h-0.6v-0.1
		c0-0.5,0.4-1,0.8-1c0.4,0,0.8,0.4,0.8,0.7c0,0.6-0.1,1-1.1,2.4h1.1v0.5L787.5,1247.5L787.5,1247.5z"/>
	<path fill="#FFFFFF" d="M789.7,1247.5v-0.5c0.7-1.1,1.2-1.8,1.2-2.3c0-0.2-0.1-0.4-0.2-0.4c-0.2,0-0.2,0.1-0.2,0.4v0.2h-0.6v-0.1
		c0-0.5,0.4-1,0.8-1c0.5,0,0.8,0.4,0.8,0.7c0,0.6-0.1,1-1.1,2.4h1.1v0.5L789.7,1247.5L789.7,1247.5z"/>
</g>
<g enable-background="new    ">
	<path fill="#FFFFFF" d="M820.1,1244.7h-0.5v-0.4c0.2-0.1,0.5-0.2,0.7-0.5h0.4v3.6h-0.5v-2.8h-0.1V1244.7z"/>
	<path fill="#FFFFFF" d="M822.4,1244.7h-0.5v-0.4c0.2-0.1,0.5-0.2,0.7-0.5h0.4v3.6h-0.6L822.4,1244.7L822.4,1244.7z"/>
	<path fill="#FFFFFF" d="M824.5,1246.5v0.2c0,0.2,0.1,0.4,0.2,0.4c0.1,0,0.2-0.1,0.2-0.4v-0.2c0-0.4-0.1-0.5-0.5-0.5v-0.5
		c0.4,0,0.5-0.1,0.5-0.5c0-0.4-0.1-0.5-0.2-0.5c-0.1,0-0.2,0.1-0.2,0.4v0.1H824v-0.1c0-0.5,0.2-0.8,0.8-0.8c0.5,0,0.7,0.5,0.7,0.8
		s-0.1,0.6-0.4,0.8c0.4,0.2,0.5,0.4,0.5,0.8c0,0.7-0.2,1-0.8,1c-0.5,0-0.8-0.2-0.8-0.8v-0.2L824.5,1246.5L824.5,1246.5z"/>
	<path fill="#FFFFFF" d="M826.2,1247.5v-0.5c0.7-1.1,1.2-1.8,1.2-2.3c0-0.2-0.1-0.4-0.2-0.4c-0.2,0-0.2,0.1-0.2,0.4v0.2h-0.7v-0.1
		c0-0.5,0.4-1,0.8-1s0.8,0.4,0.8,0.7c0,0.6-0.1,1-1.1,2.4h1.1v0.5L826.2,1247.5L826.2,1247.5z"/>
</g>
<g enable-background="new    ">
	<path fill="#FFFFFF" d="M841.6,1244.7h-0.5v-0.4c0.2-0.1,0.5-0.2,0.7-0.5h0.4v3.6h-0.5v-2.8h-0.1L841.6,1244.7L841.6,1244.7z"/>
	<path fill="#FFFFFF" d="M843.9,1244.7h-0.5v-0.4c0.2-0.1,0.5-0.2,0.7-0.5h0.4v3.6H844v-2.8h-0.1L843.9,1244.7L843.9,1244.7z"/>
	<path fill="#FFFFFF" d="M846,1246.5v0.2c0,0.2,0.1,0.4,0.2,0.4s0.2-0.1,0.2-0.4v-0.2c0-0.4-0.1-0.5-0.5-0.5v-0.5
		c0.4,0,0.5-0.1,0.5-0.5c0-0.4-0.1-0.5-0.2-0.5c-0.1,0-0.2,0.1-0.2,0.4v0.1h-0.5v-0.1c0-0.5,0.2-0.8,0.8-0.8c0.5,0,0.7,0.5,0.7,0.8
		s-0.1,0.6-0.4,0.8c0.4,0.2,0.5,0.4,0.5,0.8c0,0.7-0.2,1-0.8,1c-0.5,0-0.8-0.2-0.8-0.8v-0.2L846,1246.5L846,1246.5z"/>
	<path fill="#FFFFFF" d="M848.9,1244.8L848.9,1244.8c0-0.3-0.1-0.5-0.2-0.5c-0.1,0-0.2,0.1-0.2,0.4v0.8c0.1-0.1,0.2-0.2,0.5-0.2
		c0.4,0,0.6,0.2,0.6,0.7v0.4c0,0.7-0.2,1.1-0.8,1.1c-0.6,0-0.8-0.2-0.8-1v-1.8c0-0.6,0.2-1,0.8-1c0.5,0,0.7,0.4,0.7,0.7v0.2
		L848.9,1244.8L848.9,1244.8z M848.3,1246.7c0,0.2,0.1,0.4,0.2,0.4c0.1,0,0.2-0.1,0.2-0.4v-0.6c0-0.2-0.1-0.4-0.2-0.4
		c-0.1,0-0.2,0.1-0.4,0.1v0.8L848.3,1246.7L848.3,1246.7z"/>
</g>
<rect x="868.9" y="1223.4" fill="#FFFFFF" width="6.9" height="10.4"/>
<polygon fill="#4A6DB4" points="877.7,1226.9 877.7,1230.2 874.8,1228.7 "/>
<rect x="692.7" y="1223.3" fill="#FFFFFF" width="6.9" height="10.4"/>
<polygon fill="#4A6DB4" points="690.5,1229.9 690.5,1226.4 693.4,1228.2 "/>
<rect x="693.9" y="1259" fill="#FFFFFF" width="6.9" height="2.1"/>
<polygon fill="#4A6DB4" points="690.5,1261.7 690.5,1258.5 693.4,1260.2 "/>
<rect x="702.2" y="1318.7" fill="#FFFFFF" width="2.1" height="6.9"/>
<polygon fill="#4A6DB4" points="705.1,1328.9 701.8,1328.9 703.6,1326.1 "/>
<rect x="676.4" y="1339.3" fill="#FFFFFF" width="6.9" height="2.1"/>
<polygon fill="#4A6DB4" points="686.5,1338.9 686.6,1342.1 683.7,1340.5 "/>
<rect x="690.5" y="1365.2" fill="#FFFFFF" width="6.9" height="2.1"/>
<polygon fill="#4A6DB4" points="687.3,1368 687.3,1364.7 690.3,1366.2 "/>
<rect x="690.5" y="1393.4" fill="#FFFFFF" width="6.9" height="2.1"/>
<polygon fill="#4A6DB4" points="687.3,1396.1 687.3,1392.8 690.3,1394.6 "/>
<g>
	<path fill="#4A6DB4" d="M732.1,1243.7c-0.4,0-0.5-0.4-0.5-0.5c0-0.4,0.4-0.5,0.5-0.5c0.1,0,0.5,0.4,0.5,0.5
		C732.6,1243.2,732.2,1243.7,732.1,1243.7z"/>
	<path fill="#4A6DB4" d="M732.2,1243.8c0.5,0,0.8,0.4,0.8,0.7l0.4,1.7c0,0.1,0,0.4-0.1,0.4s-0.4,0-0.4-0.1l-0.1-1.4
		c0-0.1-0.1-0.1-0.1-0.1c-0.1,0-0.1,0.1,0,0.1l0.8,2.6h-0.8c0,1,0,1.9,0,1.9c0,0.4-0.1,0.4-0.4,0.4c0,0-0.4,0-0.4-0.4s0-1.9,0-1.9
		c0-0.1,0-0.1-0.1-0.1c-0.1,0-0.1,0-0.1,0.1c0,0,0,1.7,0,1.9s-0.1,0.4-0.4,0.4c0,0-0.4,0-0.4-0.4c0,0,0-0.8,0-1.9h-0.8l0.8-2.6
		c0-0.1,0-0.1,0-0.1c-0.1,0-0.1,0-0.1,0.1l-0.4,1.7c0,0.1-0.1,0.1-0.4,0.1c-0.1,0-0.1-0.1-0.1-0.4l0.4-1.7c0.1-0.4,0.4-0.7,0.8-0.7
		h1.2v-0.2L732.2,1243.8L732.2,1243.8z"/>
</g>
<g>
	<path fill="#4A6DB4" d="M715.6,1243.4c-0.4,0-0.7-0.4-0.7-0.7c0-0.4,0.4-0.7,0.7-0.7c0.4,0,0.7,0.4,0.7,0.7
		C716.5,1243.1,716.1,1243.4,715.6,1243.4z"/>
</g>
<path fill="#4A6DB4" d="M714.8,1244.9v1.4c0,0.4-0.1,0.4-0.4,0.4c-0.2,0-0.4,0-0.4-0.4v-1.7c0-0.8,0.4-0.8,0.8-0.8h1
	c0.7,0,0.8,0.1,0.8,0.8v1.7c0,0.4-0.1,0.4-0.4,0.4c-0.2,0-0.4,0-0.4-0.4v-1.4c0-0.1-0.1-0.1-0.1-0.1s-0.1,0-0.1,0.1s0,4.4,0,4.4
	c0,0.4-0.4,0.4-0.4,0.4c-0.1,0-0.4,0-0.4-0.4c0-0.4,0-2.6,0-2.6s0-0.1-0.1-0.1c0,0-0.1,0-0.1,0.1c0,0,0,2.3,0,2.6
	c0,0.4-0.4,0.4-0.4,0.4c-0.1,0-0.4,0-0.4-0.4C714.8,1249.4,714.8,1245,714.8,1244.9L714.8,1244.9L714.8,1244.9z"/>
<rect x="431.5" y="1426.5" fill="#FFFFFF" width="5.6" height="3"/>
<rect x="572.1" y="983.4" opacity="0.6" fill="#496CB4" enable-background="new    " width="5.3" height="0.8"/>
<rect x="572.1" y="981.9" opacity="0.6" fill="#496CB4" enable-background="new    " width="5.3" height="0.8"/>
<rect x="572.1" y="980.2" opacity="0.6" fill="#496CB4" enable-background="new    " width="5.3" height="0.8"/>
<rect x="572.1" y="978.9" opacity="0.6" fill="#496CB4" enable-background="new    " width="5.3" height="0.8"/>
<rect x="572.1" y="977.1" opacity="0.6" fill="#496CB4" enable-background="new    " width="5.3" height="0.8"/>
<rect x="572.1" y="975.7" opacity="0.6" fill="#496CB4" enable-background="new    " width="5.3" height="0.8"/>
<rect x="572.1" y="974.1" opacity="0.6" fill="#496CB4" enable-background="new    " width="5.3" height="0.8"/>
<rect x="572.1" y="991.4" opacity="0.6" fill="#496CB4" enable-background="new    " width="5.3" height="0.8"/>
<rect x="572.1" y="990.1" opacity="0.6" fill="#496CB4" enable-background="new    " width="5.3" height="0.8"/>
<rect x="572.1" y="988.4" opacity="0.6" fill="#496CB4" enable-background="new    " width="5.3" height="0.8"/>
<rect x="572.1" y="986.8" opacity="0.6" fill="#496CB4" enable-background="new    " width="5.3" height="0.8"/>
<rect x="572.1" y="985.2" opacity="0.6" fill="#496CB4" enable-background="new    " width="5.3" height="0.8"/>
<rect x="578.4" y="983.4" opacity="0.6" fill="#496CB4" enable-background="new    " width="5.3" height="0.8"/>
<rect x="578.4" y="981.9" opacity="0.6" fill="#496CB4" enable-background="new    " width="5.3" height="0.8"/>
<rect x="578.4" y="980.2" opacity="0.6" fill="#496CB4" enable-background="new    " width="5.3" height="0.8"/>
<rect x="578.4" y="978.9" opacity="0.6" fill="#496CB4" enable-background="new    " width="5.3" height="0.8"/>
<rect x="578.4" y="977.1" opacity="0.6" fill="#496CB4" enable-background="new    " width="5.3" height="0.8"/>
<rect x="578.4" y="975.7" opacity="0.6" fill="#496CB4" enable-background="new    " width="5.3" height="0.8"/>
<rect x="578.4" y="974.1" opacity="0.6" fill="#496CB4" enable-background="new    " width="5.3" height="0.8"/>
<rect x="578.2" y="991.4" opacity="0.6" fill="#496CB4" enable-background="new    " width="5.3" height="0.8"/>
<rect x="578.2" y="990.1" opacity="0.6" fill="#496CB4" enable-background="new    " width="5.3" height="0.8"/>
<rect x="578.2" y="988.4" opacity="0.6" fill="#496CB4" enable-background="new    " width="5.3" height="0.8"/>
<rect x="578.2" y="986.8" opacity="0.6" fill="#496CB4" enable-background="new    " width="5.3" height="0.8"/>
<rect x="578.2" y="985.2" opacity="0.6" fill="#496CB4" enable-background="new    " width="5.3" height="0.8"/>
<path fill="#CCCCCC" d="M636.6,768.3L636.6,768.3L636.6,768.3C636.4,768.3,636.4,768.3,636.6,768.3L636.6,768.3L636.6,768.3
	L636.6,768.3L636.6,768.3L636.6,768.3C636.4,768.3,636.4,768.3,636.6,768.3L636.6,768.3L636.6,768.3L636.6,768.3L636.6,768.3
	L636.6,768.3L636.6,768.3L636.6,768.3L636.6,768.3L636.6,768.3L636.6,768.3L636.6,768.3L636.6,768.3L636.6,768.3L636.6,768.3
	L636.6,768.3L636.6,768.3L636.6,768.3L636.6,768.3L636.6,768.3L636.6,768.3L636.6,768.3L636.6,768.3L636.6,768.3L636.6,768.3
	L636.6,768.3L636.6,768.3L636.6,768.3L636.6,768.3L636.6,768.3c-0.1-0.1-0.1-0.1-0.1-0.4l0,0l0,0l0.4-3.5h-0.4v2.8l0,0l0,0l0,0l0,0
	l0,0l0,0l0,0c0,0,0,0,0,0.1c0,0,0,0-0.1,0l0,0l0,0l0,0l0,0l0,0l0,0h-0.7l0,0l-0.5-0.1l0,0l-0.5-0.4l0,0l-0.4-0.4l0,0l-0.4-0.5l0,0
	l-0.4-0.5l0,0l-0.1-0.7l0,0v-0.4l-7.5-0.7v8.7l0,0l0,0c0,0,0.1,0,0.1,0.1v0.1l-0.4,2.1l-0.4,1.8l9.6,1.7l0.7-3.8l0,0l0,0l0,0l0,0
	l0,0l0,0l0,0l0,0l0,0l0,0l0,0l0,0l0,0l0,0l0,0l0,0l0,0l0,0l0,0l0,0l0,0l0,0l0,0l0,0l0,0l0,0l0,0l0,0l0,0l0,0l0,0l0,0l0,0l0,0l0,0
	l0,0l0,0l0,0l0,0l0,0l0,0l0,0h0.4l0.4-2.8l0,0l0,0l0,0l0,0l0,0l0,0l0,0l0,0l0,0l0,0l0,0c0,0,0,0,0.1,0l0,0L636.6,768.3z"/>
<path fill="#CCCCCC" d="M636.9,763.1l0.1-2.6h-0.1l0,0l0,0l0,0l0,0l0,0l0,0l0,0l0,0l0,0l0,0l0,0l0,0l0,0l0,0v-15.8h-1.7v2.8l0,0l0,0
	l0,0l0,0c0,0,0,0,0,0.1l0,0l0,0c0,0,0,0-0.1,0s0,0,0,0l0,0l0,0h-0.5l0,0l-0.7-0.4l0,0l-0.5-0.4l0,0l-0.4-0.4l0,0l-0.4-0.4l-0.4-0.5
	l0,0l-0.1-0.5l0,0v-0.2h-6.3h-0.1v18.4l1.4,0.1c0,0,0,0,0.1,0h0.1l2.6,0.4l2.1,0.1c0,0,0,0,0.1,0c0,0,0,0,0.1,0h0.7h0.5l0,0l0,0l0,0
	l0,0l0,0l0,0l0,0l0,0l0,0l0,0l0,0l0,0l0,0l0,0l0,0l0,0l0,0l0,0l0,0l2.6,0.1l0,0l0,0l0,0l0,0l0,0l0,0l0,0l0,0l0,0l0,0l0,0l0,0l0,0
	l0,0l0,0l0,0l0,0l0,0l0,0h0.4v-0.4l0,0l0,0l0,0l0,0l0,0l0,0l0,0l0,0l0,0l0,0l0,0l0,0l0,0l0,0l0,0l0,0l0,0l0,0l0,0l0,0l0,0l0,0l0,0
	l0,0l0,0l0,0l0,0C636.9,763.4,636.9,763.1,636.9,763.1L636.9,763.1L636.9,763.1z"/>
<path fill="#CCCCCC" d="M536.3,909.2c-0.1,0.1-0.1,0.1-0.4,0l-0.8-0.8H533l-0.8,0.8c-0.1,0.1-0.1,0.1-0.4,0l-0.8-0.8h-2.1l-0.8,0.8
	c-0.1,0.1-0.1,0.1-0.4,0l-0.8-0.8h-2.1v12.3h0.8l0.7-0.7c0.1-0.1,0.1-0.1,0.4,0l0.7,0.7h2.1l0.7-0.7c0.1-0.1,0.1-0.1,0.4,0l0.7,0.7
	h2.1l0.7-0.7c0.1-0.1,0.1-0.1,0.4,0l0.7,0.7h2.1l0.7-0.7c0.1-0.1,0.1-0.1,0.4,0l0.7,0.7h2.1l0.7-0.7c0.1-0.1,0.1-0.1,0.4,0l0.7,0.7
	h1.4v-0.5l-0.8-0.8c-0.1-0.1-0.1-0.1,0-0.4l0.8-0.8V916l-0.8-0.8c-0.1-0.1-0.1-0.1,0-0.4l0.8-0.8v-2.1l-0.8-0.8
	c-0.1-0.1-0.1-0.1,0-0.4l0.1-0.1h-0.1l0,0l-0.5-0.1l0,0l-0.5-0.4l0,0l-0.4-0.4l0,0l-0.4-0.4l0,0l-0.4-0.5l0,0l-0.1-0.5l0,0v-0.4
	h-0.8l-0.8,0.8l0,0h-0.2l-0.8-0.8h-2.1L536.3,909.2z"/>
<path fill="#CCCCCC" d="M548.5,939.5c-0.1-0.1-0.1-0.1,0-0.4l0.8-0.8v-0.7h-3h-3.1h-0.1l-0.7,0.7l0,0h-0.2l-0.7-0.7h-1.9h-0.2h-4.1
	l0,0h-3.5h-3.1h-3.4v18.8h23.8V956l-0.8-0.8c-0.1-0.1-0.1-0.1,0-0.4l0.8-0.8v-2l-0.8-0.8c-0.1-0.1-0.1-0.1,0-0.4l0.8-0.8v-2.1
	l-0.8-0.8c-0.1-0.1-0.1-0.1,0-0.4l0.8-0.8v-2.1l-1-0.7c-0.1-0.1-0.1-0.1,0-0.4l0.8-0.8v-2.6L548.5,939.5z"/>
<path fill="#CCCCCC" d="M548.5,878.4l0.7-0.7v-2.3l-0.7-0.7c-0.1-0.1-0.1-0.1,0-0.4l0.7-0.7v-2.5v-20.6h-3.3h-0.1h-2.1h-0.1l0,0l0,0
	h-10.2h-0.1H527h-0.1l0,0h-1.2V887h1.2l0.7-0.7h0.1h0.1l0.7,0.7h2.3l0.7-0.7h0.1h0.1l0.7,0.7h2.3l0.7-0.7h0.1h0.1l0.7,0.7h3.5h1.2
	l0.7-0.7c0.1-0.1,0.1-0.1,0.4,0l0.7,0.7h2.3l0.7-0.7c0.1-0.1,0.1-0.1,0.4,0l0.7,0.7h2.6l-0.4-0.4c-0.1-0.1-0.1-0.1,0-0.4l0.7-0.7
	v-2.1H547l0,0l0,0l0,0l0,0l0,0c0,0,0,0-0.1,0l0,0l0,0l0,0l0,0l0,0l0,0l0,0l0,0l0,0l0,0l0,0l0,0l0,0v-0.7l0,0l0.1-0.5l0,0l0.4-0.5
	l0,0l0.4-0.4l0,0l0.4-0.4l0,0l0.5-0.4l0,0l0.5-0.1l0,0h0.4v-0.7l-0.7-0.7C548.5,878.6,548.5,878.4,548.5,878.4z"/>
<path fill="#CCCCCC" d="M636.9,734.2L636.9,734.2h0.5l0,0l0,0l0,0l0,0l0.1,0.1l0,0l0,0l0,0l0.7,6.1l0,0l0,0l0,0l0,0l0,0l0,0l0,0l0,0
	h-0.5l0.1,1.7l0,0h0.1h0.5l0,0l0.5,0.1l0,0l0.5,0.4l0,0l0.4,0.4l0,0l0.4,0.4l0,0l0.4,0.5l0,0l0.1,0.5l0,0v0.4h1.2l0,0
	c0-0.1,0.1-0.1,0.1-0.1h1h0.1v0.1v0.1l2.1-0.1l-0.4-2.1h-1l0,0l0,0l0,0h-0.1c0,0-0.1,0-0.1-0.1v-0.1l0,0l0,0v-1.2l0,0l0,0l0,0v-0.1
	c0,0,0-0.1,0.1-0.1l0,0l0,0l0,0h0.8V741h-0.8l0,0l0,0l0,0h-0.1c0,0-0.1,0-0.1-0.1l0,0l0,0l0,0l0,0l-0.1-1.4l0,0l0,0l0,0l0,0v-0.1
	c0,0,0-0.1,0.1-0.1h0.1l0,0l0,0l0,0h0.8v-0.1l-0.8,0.1l0,0l0,0l0,0l0,0h-0.1c0,0-0.1,0-0.1-0.1v-0.1l0,0l0,0l-0.1-1.4l0,0l0,0v-0.1
	c0,0,0-0.1,0.1-0.1l0,0l0,0l0,0l0,0l0.8-0.1l-0.1-1h-0.4l0,0c0,0,0,0-0.1,0l0,0l0,0l0,0l-0.1-0.1l-0.1-0.1l0,0l0,0l-0.1-0.4l0,0
	v-0.4l0,0l0.1-0.4l0,0l-1,0.1c-0.1,0-0.1,0-0.4-0.1c0-0.1,0-0.1,0.1-0.4l1-0.1l0,0l0,0l0,0l-0.1-0.1c0,0,0,0-0.1-0.1l0,0
	c0,0,0,0,0-0.1l-0.1-0.4l0,0v-0.4l0,0l0,0v-0.1v-0.1l0,0l0,0l0,0l0,0l0,0h0.4v-0.4l-4.4,0.7l0,0c0,0,0,0-0.1,0l0,0l0,0l0,0l0,0l0,0
	l0,0l0,0l0,0l0,0l0,0l0,0l0,0l0,0l0,0l0,0l-0.1-0.1V733l0,0l0,0l0,0l0,0l0,0l0,0l0,0l0,0l0,0l0,0c0,0,0,0,0-0.1l0,0l0,0l0,0l0,0l0,0
	l0,0l0,0l0,0l0,0l0,0l0,0l0,0l0,0l0,0l0,0l0,0l0,0l0,0l0,0l0.5-0.1l0.4-0.4l0.4-0.4l-1.7-1.2l0,0l0,0l0,0l0,0l0,0l0,0l0,0l0,0l0,0
	l0,0l0,0l-0.1-0.8c0-0.1,0-0.1,0.1-0.4l0.5-0.1l0.4-0.4l0.4-0.4l-1.7-1.2c0,0,0,0-0.1-0.1v-0.1l-3.2-0.6l0.7,4.7L636.9,734.2z"/>
<path fill="#CCCCCC" d="M538.4,902.3L538.4,902.3l0.8-0.8v-2.1l-0.8-0.8c-0.1-0.1-0.1-0.1,0-0.4l0.8-0.8v-2l-0.8-0.8v-0.1v-0.2
	l0.8-0.8v-2.1l-0.8-0.8c-0.1-0.1-0.1-0.1,0-0.4l0.8-0.8v-2.1H538l-0.7,0.7c-0.1,0.1-0.1,0.1-0.4,0l-0.7-0.7h-2.3l-0.7,0.7
	c-0.1,0.1-0.1,0.1-0.4,0l-0.7-0.7H530l-0.7,0.7c-0.1,0.1-0.1,0.1-0.4,0l-0.7-0.7h-3.1v20h0.1l0.8-0.8c0.1-0.1,0.1-0.1,0.4,0l0.8,0.8
	h2.1l0.8-0.8c0.1-0.1,0.1-0.1,0.4,0l0.8,0.8h2.1l0.8-0.8c0.1-0.1,0.1-0.1,0.4,0l0.8,0.8h2.1l0.4-0.4h-1.2l0,0l0,0l0,0l0,0l0,0l0,0
	l0,0l0,0l0,0l0,0l0,0l0,0l0,0l0,0l0,0l0,0c0,0,0,0,0-0.1l0,0l0,0l0,0l0,0l0,0l0,0l0,0l0,0v-0.7l0,0l0.1-0.5l0,0l0.4-0.5l0,0l0.4-0.4
	l0,0l0.4-0.4l0,0l0.5-0.4l0,0l0.5-0.1l0,0h0.4v-0.7L538.4,902.3L538.4,902.3z"/>
<polygon fill="#3964AF" points="553.2,1044.7 553.2,1015.4 553.2,1009.5 553.2,1008.8 552.1,1008.8 552,1008.8 549,1008.8 
	548.9,1008.8 547.2,1008.8 535.9,1008.8 535.5,1008.8 532.5,1008.8 532.3,1008.8 532.3,1008.8 531.2,1008.8 531.2,1044.7 
	533.7,1044.7 540.3,1044.7 "/>
<path fill="#CCCCCC" d="M570.2,1019.6L570.2,1019.6C569.9,1019.6,569.9,1019.5,570.2,1019.6l-2.8-0.1c0,0.1-0.1,0.1-0.1,0.1l0,0
	h-0.4v0.8c0,0.1-0.1,0.1-0.1,0.1v2.6c0.1,0,0.1,0.1,0.1,0.1v1.2c0,0.1-0.1,0.1-0.1,0.1v2.6c0.1,0,0.1,0.1,0.1,0.1v6.1h0.8
	c0.1,0,0.1,0.1,0.1,0.1v1.9l0,0c0,0.1-0.1,0.1-0.1,0.1v2.6c0.1,0,0.1,0.1,0.1,0.1v0.4h5.1v-0.5v-0.5v-2.6l0,0v-1.4
	c0-0.1,0.1-0.1,0.1-0.1l0,0h2.1v-14.5H570v0.5h0.2V1019.6z"/>
<path fill="#3964AF" d="M543.7,1056.3L543.7,1056.3L543.7,1056.3h20.1l0,0l0,0l11,1.8l0.4-3.6l-11-1.8h-20.9l-11,1.8l0.4,3.6
	L543.7,1056.3z"/>
<path fill="#3964AF" d="M543.7,1060.6L543.7,1060.6L543.7,1060.6h20.1l0,0l0,0l11,1.8l0.4-3.6l-11-1.8h-20.9l-11,1.8l0.4,3.6
	L543.7,1060.6z"/>
<path fill="#CCCCCC" d="M570.2,864.2v-9c0-0.1,0.1-0.1,0.1-0.1h0.1v-4.4h-3.1h-0.1h-6.9l0,0v3.8h0.1c0.1,0,0.1,0.1,0.1,0.1v3.8
	c0,0.1-0.1,0.1-0.1,0.1h-0.1l0,0v0.7h0.1c0.1,0,0.1,0,0.4,0.1h0.1c0.1,0,0.1,0.1,0.1,0.1l-0.1,0.1h-0.1v4.3c0,0.1-0.1,0.1-0.1,0.1
	h-0.1v6.3v0.1h0.4v-3l0,0l0,0l0,0l0,0l0,0l0,0l0,0l0,0l0,0l0,0l0,0l0,0l0,0l0,0l0,0c0,0,0,0,0.1,0l0,0l0,0l0,0l0,0l0,0l0,0h0.7l0,0
	l0.7,0.1l0,0l0.5,0.4l0,0l0.5,0.4l0.4,0.4l0,0l0.4,0.5l0,0l0.4,0.5l0.1,0.4l0.4-0.4l0,0l0.4-0.4l0,0l0.4-0.1l0,0h0.4l0,0
	c0,0,0,0,0.1,0l0,0l0,0c0,0,0,0,0.1,0l0,0l0,0c0,0,0,0,0,0.1l0,0l0,0l0,0l0,0l0,0v1h0.1h0.4c0.1,0,0.1,0.1,0.1,0.1l0,0h3.6v-1
	c0-0.1,0.1-0.1,0.1-0.1h2.5v-0.1h-2.8h-0.1l0,0v-0.4l0,0l0.1-0.5l0,0l0.4-0.5l0,0l0.4-0.4l0,0l0.4-0.4l0,0l0.5-0.4l0,0l0.5-0.1l0,0
	h0.4v-1v-0.1h-2.6c-0.1,0-0.1-0.1-0.1-0.1L570.2,864.2L570.2,864.2C570.2,864.4,570.2,864.4,570.2,864.2z"/>
<path fill="#CCCCCC" d="M541.5,968.3L541.5,968.3h4.1v-0.1c0-0.1,0.1-0.1,0.1-0.1h12.7c0.1,0,0.1,0.1,0.1,0.1v0.1h1.2h0.1l0,0h0.1
	l0,0h0.1h3v-10.4h-0.4v3.1v0.1h-0.1h-0.7l0,0l-0.7-0.1l0,0l-0.5-0.4l-0.5-0.4l0,0l-0.4-0.4l-0.4-0.5l0,0l-0.4-0.5l0,0l-0.1-0.7l0,0
	v-0.4l0,0l0,0h-0.7h-0.4l0,0c0,0,0,0,0,0.1c0,0.1-0.1,0.1-0.1,0.1h-10.5c-0.1,0-0.1-0.1-0.1-0.1v-0.1l0,0h-0.7h-0.7h-0.7h-0.7h-1
	h-0.7H542h-0.8h-0.4v10.4L541.5,968.3L541.5,968.3z"/>
<path fill="#CCCCCC" d="M609.7,710.8L609.7,710.8l-2.8,0.8c0,0,0,0-0.1,0l0,0l-10.5,3.1l0,0l0,0h-0.1l0,0l0,0l-3.4,0.8l0,0l0,0
	l-2.3,0.7l0,0l0,0l-1.9,0.5l0,0l0,0l-4.4,1.4c0,0,0,0-0.1,0l-15.8,4.8l0,0l0,0l-3.4,0.8c0,0,0,0-0.1,0l-3,0.8l0,0l0,0l-3.8,1.2v2.1
	h14.8v-6.1l0,0l0,0l0,0l0,0l0,0l0,0l0,0l0,0l7-2.1l0,0l0,0h39.9l-0.8-3.6l-1-3.8l-1.2-3.6L609.7,710.8
	C609.9,710.8,609.9,710.8,609.7,710.8z"/>
<path fill="#CCCCCC" d="M564.2,1037v-0.7l0,0l0,0l0,0l0,0l0,0l0,0l0,0l0,0l0,0l0,0l0,0l0,0h2.8v-1h-5h-6.1h-1.7v9.7h1.7h6.1h2.1h3.1
	l0,0h0.1v-4.8v-0.4h-0.4C565.4,1039.3,564.5,1038.3,564.2,1037z"/>
<path fill="#CCCCCC" d="M639.4,714.7L639.4,714.7L639.4,714.7L639.4,714.7L639.4,714.7L639.4,714.7L639.4,714.7L639.4,714.7
	L639.4,714.7L639.4,714.7L639.4,714.7L639.4,714.7L639.4,714.7L639.4,714.7L639.4,714.7L639.4,714.7L639.4,714.7L639.4,714.7
	L639.4,714.7L639.4,714.7L639.4,714.7L639.4,714.7L639.4,714.7L639.4,714.7L639.4,714.7L639.4,714.7L639.4,714.7L639.4,714.7
	L639.4,714.7L639.4,714.7L639.4,714.7L639.4,714.7L639.4,714.7L639.4,714.7L639.4,714.7L639.4,714.7L639.4,714.7L639.4,714.7
	L639.4,714.7L639.4,714.7L639.4,714.7C639.4,714.5,639.4,714.5,639.4,714.7C639.4,714.5,639.3,714.5,639.4,714.7L639.4,714.7
	l-0.4-0.8l0,0l0,0l0,0l0,0l0,0l0,0l0,0l0,0l0,0l0,0l0,0l0,0l0,0l0,0l0,0l0,0l0,0l0,0l0,0l0,0l0,0l0,0l0,0l0,0l0,0l0,0l0,0l0,0l0,0
	l0,0l0,0l-0.5-2.3h-0.1l0,0l0,0l0,0l0,0l0,0l0,0l0,0l0,0l0,0l0,0l0,0l0,0l0,0l0,0l0,0l0,0l0,0l-1.2-4.1l-2.6,0.8l0,0l0,0l0,0l0,0
	l0,0l0,0l0,0l0,0l0,0l0,0l0,0l0,0l0,0l0,0l0,0l0,0l0,0l0,0l0,0l0,0l-1-3.5l-0.1-0.4l-6.3,1.9l-0.4,0.1c0,0,0,0-0.1,0l0,0l-3.8,1
	c0,0,0,0-0.1,0l-2.6,0.8v0.1l1.2,3.8l1.2,4.1l1,4.3l0,0l0,0l0,0l0,0l0,0l0,0l0,0l0,0l0,0l0,0l0,0l0,0l0,0v0.1l0.4,1.7l0,0l0,0l0,0
	l0,0l0,0l0,0l0,0l0,0l0,0l0,0l0,0l0,0l0,0l0,0l0,0l0,0l0,0l0,0l0,0l0,0l0,0l0,0l0,0l0,0l0,0l0,0l0,0l0,0l0,0l0,0l0,0l0,0l1,5.5
	l3.4-0.7l-0.5-2.8l0,0v-0.1l0,0l0,0l0,0l0,0l0,0l0,0l0,0l0,0l0,0l0,0h0.7l0,0h0.7l0,0l0.5,0.1l0,0l0.5,0.4l0,0l0.4,0.4l0,0l0.4,0.4
	l0,0l0.4,0.5l0,0l0.1,0.4l11.9-2.1l1.4-0.4l-2.1-9.9L639.4,714.7L639.4,714.7z"/>
<path fill="#CCCCCC" d="M554.1,1015.4v8.4h9l0,0l0,0l0,0l0,0l0,0l0,0l0,0l0,0v-0.7c0.1-1.2,1.2-2.3,2.6-2.6h0.4v-11h-4.3
	c-0.1,0-0.1-0.1-0.1-0.1v-0.4h-6.1h-1.4v0.5L554.1,1015.4L554.1,1015.4z"/>
<path fill="#CCCCCC" d="M628.5,727.4C628.5,727.5,628.5,727.5,628.5,727.4L628.5,727.4C628.5,727.5,628.5,727.5,628.5,727.4
	L628.5,727.4L628.5,727.4L628.5,727.4L628.5,727.4L628.5,727.4L628.5,727.4L628.5,727.4L628.5,727.4L628.5,727.4L628.5,727.4
	l-3.1,0.7l0.4,3.8l0,0l0,0l0,0l0,0v0.5l-0.1,11.2l0,0l0,0c0,0,0,0,0.1,0h6.5c0.1,0,0.1,0.1,0.1,0.1h2.6c0-0.1,0.1-0.1,0.1-0.1h1.8
	l-0.4-3.8l-1.4-13.4l-2.1,0.4l-1.4,0.4l0,0l0,0l0,0l0,0l0,0l0,0l0,0l0,0l0,0l0,0l0,0l0,0l0,0l0,0l0,0l0,0L628.5,727.4L628.5,727.4z"
	/>
<path fill="#CCCCCC" d="M518.9,782.5L518.9,782.5l0.1-0.5l0,0l0,0l0,0l0,0l0,0v-0.4h0.1v-0.4l0,0l0,0l0,0l0,0l0,0l0,0l0,0l0,0l0,0
	v-0.4l0,0l0,0h0.1V780l0,0l0,0l0,0v-0.4l0,0V779h0.1v-0.4h-0.1v-0.4h0.1V778h-0.1l0,0v-0.1l0,0v-0.1l0,0v-0.2h0.1v-0.4l0,0v-0.4l0,0
	l0,0l0,0l0,0l0,0l0,0l0,0l0,0l0,0l0,0l0,0l0,0l0,0v-0.4h0.1v-0.1v-0.4v-0.1h-0.1v-0.4h0.1v-0.7l0,0h-0.1v-0.1l0,0v-0.1v-0.1v-0.1
	l0,0h0.1v-0.4h-0.1v-0.4h0.1l0,0l0,0l0,0l0,0l0,0h-0.2c-0.1,0-0.1-0.1-0.1-0.1v-40.9c0-0.1,0.1-0.1,0.1-0.1h0.4V732h0.1v-0.7l0,0
	V731h-0.1v-0.1l0,0v-0.1h0.1l0,0v-1l0,0l0,0h-0.1v-0.4v-0.1l0,0l0,0l0,0v-0.1c0,0,0,0,0-0.1l0,0l0,0l0,0l0,0l0,0l0,0V729l0,0v-0.4
	l0,0v-0.4l0,0v-0.7l0,0v-0.7l0,0v-0.4l0,0v-0.1v-0.8c0,0,0,0,0-0.1l0,0l0,0l0,0l0,0V725l0,0v-0.5l0,0v-0.7h-0.1v-0.4h0.1v-0.5l0,0
	l0,0l0,0l0,0l0,0l0,0l0,0l0,0l0,0l0,0l0,0l0,0l0,0v-0.1l0,0l0,0v-0.1h-0.1v-0.4h0.1l0,0l0,0l0,0l0,0l0,0v-0.1c0,0,0,0,0-0.1H517v2.5
	c0,0.1-0.1,0.1-0.1,0.1h-6.1v9.6c0,0.1-0.1,0.1-0.1,0.1h-24.8v0.8v0.4v4.4v0.1l0,0v0.1l0,0h0.8c0.1,0,0.1,0.1,0.1,0.1v1.4
	c0,0.1-0.1,0.1-0.1,0.1h-0.8v4.4l0,0l0,0v0.7v0.4v5.1l0,0l0,0l0,0v3v0.4v0.4v0.1l0,0v0.1v6.3v0.4v0.1h0.8c0.1,0,0.1,0.1,0.1,0.1v1.4
	v0.1l0,0l0,0c0,0,0,0-0.1,0h-0.8v5.3v0.4v0.4v0.4v2.6v0.4v0.4v0.4v3.5l0,0l0,0v2.6h0.8c0.1,0,0.1,0.1,0.1,0.1v0.8l0,0v0.5h0.8l0,0
	h2.8h2.5h0.4h0.4h1.4l0,0l0,0h0.7v-0.5v-0.4l0,0l0,0c0-0.1,0.1-0.1,0.1-0.1h1h0.1l0,0h0.1l0,0c0.1,0,0.1,0.1,0.1,0.1v0.8h1.2h0.1
	h0.5h0.1h4.4h0.4h4.8h0.4h0.1l0,0h0.7h0.1l0,0h0.2h9.1v0.4h-0.1L518.9,782.5L518.9,782.5z"/>
<path fill="#CCCCCC" d="M525.8,786.6L525.8,786.6L525.8,786.6h0.4l0,0h2.1h1.7l0,0h0.4l0,0h4.4l0,0h1.2l0,0h1.9v-0.7
	c0-0.1,0.1-0.1,0.1-0.1h1h0.4c0.1,0,0.1,0.1,0.1,0.1v0.1v0.4v0.1h2.6c0.1,0,0.1,0.1,0.1,0.1v0.1c0.1,0,0.1,0.1,0.1,0.1v2.6h0.4
	l0.4-0.1l0.4-0.4l0.4-0.4l0.4-0.4l0.1-0.5v-0.2V787v-0.1l0,0l0,0c0,0,0,0,0.1,0v-0.1c0-0.1,0.1-0.1,0.1-0.1h0.7l0,0h0.4l0,0h2.5l0,0
	h0.4l0,0h0.8l0,0h0.5l0,0h0.4l0,0h0.4l0,0h2.6v-6.5v-0.8V779v-3.5v-0.4V773l0,0v-0.4l0,0v-1.7h-0.8c-0.1,0-0.1-0.1-0.1-0.1v-34.5
	v-1.9v-0.1l0,0h0.1h0.1l0,0l0,0h0.4h0.1V734v-2.1l0,0v-0.8h-3.7c-0.1,0-0.1-0.1-0.1-0.1v-4.8h-29v3v1.2c0.1,0,0.1,0.1,0.1,0.1v1.9
	c0,0.1-0.1,0.1-0.1,0.1h-0.8v12.2h0.8c0.1,0,0.1,0.1,0.1,0.1v1.9c0,0.1-0.1,0.1-0.1,0.1h-0.4l0,0h-0.5v10.5h0.8
	c0.1,0,0.1,0.1,0.1,0.1v1.9c0,0.1-0.1,0.1-0.1,0.1h-0.8v11.9h0.8c0.1,0,0.1,0.1,0.1,0.1v1.9c0,0.1,0,0.1-0.1,0.1v0.5l0,0v1.8v0.4
	l0,0v6.3v2.3v0.4v0.7l0,0l0,0h0.4l0,0L525.8,786.6L525.8,786.6z"/>
<path fill="#CCCCCC" d="M644.2,783.9l1-5.7v-0.1l0.1-0.5l0,0l-0.4-0.1l0,0l-0.5-0.4l0,0l-0.4-0.4l0,0l-0.4-0.4l0,0l-0.4-0.5l0,0
	l-0.1-0.5l0,0l-0.1-0.7l0,0v-0.5V774h0.1l2.8,0.4l0.1-0.7l0.4-4.3l0.4-2.8l0.1-0.8l0,0v-0.1l0,0l0.4-5.1l0.4-9.3h-1.9v1.9
	c0,0.1-0.1,0.1-0.1,0.1h-3.8v0.4l0,0l-0.1,0.5l0,0l-0.7,0.4l0,0l-0.4,0.4l0,0l-0.4,0.4l0,0l-0.4,0.4l0,0l-0.5,0.1l0,0h-0.5l0,0l0,0
	v0.8l-0.1,3.6l2.8,0.1l0,0l0,0l0,0l0,0l0,0l0,0c0,0,0,0,0,0.1l0,0l0,0l-0.1,0.7l0,0l-0.4,0.5l0,0l-0.4,0.5l0,0l-0.4,0.4l0,0
	l-0.5,0.4l0,0l-0.5,0.4l0,0l-0.5,0.1l0,0h-0.6l-0.4,4.4l2.8,0.4l0,0l0,0l0,0c0,0,0,0,0.1,0l0,0l0,0l0,0l0,0l0,0l0,0l-0.1,0.7l0,0
	l-0.4,0.5l-0.4,0.5l0,0l-0.4,0.4l0,0l-0.5,0.4l0,0l-0.5,0.4l0,0l-0.7,0.1l0,0h-0.5l-0.7,4.4l0,0l-0.4,2.5l0,0L636,779l0,0l0,0l0,0
	l0,0l0,0l0,0l0,0l0,0l0,0l0,0l0,0l0,0l0,0l0,0l0,0l0,0l0,0l0,0l0,0l0,0l0,0l0,0l0,0l0,0l0,0l0,0l0,0l0,0l0,0l0,0l0,0l0,0l0,0l0,0
	l0,0l-0.5,2.6l0,0l0,0l0,0l0,0l0,0l0,0l0,0l0,0l0,0l0,0l0,0l0,0l0,0l0,0l0,0l0,0l0,0l0,0l0,0l0,0l0,0l0,0l0,0l0,0l0,0l0,0l0,0l0,0
	l0,0l0,0l0,0l0,0l0,0l0,0l0,0l0,0l0,0l0,0l0,0l0,0l0,0l0,0l0,0l0,0l0,0l0,0l0,0l0,0l0,0l0,0l0,0l0,0l0,0l0,0l0,0l0,0l0,0l0,0l0,0
	l0,0l0,0l0,0l0,0l0,0l0,0l0,0l0,0l0,0l0,0l0,0l0,0l0,0l0,0v0.1l2.3,0.4l6.9,1.4L644.2,783.9z"/>
<path fill="#CCCCCC" d="M633.8,782.6L633.8,782.6l-0.5-0.4l0,0l-0.4-0.4l0,0l-0.4-0.4l0,0l-0.4-0.5l0,0l-0.1-0.5l0,0v-0.7l0,0V779
	l0,0l0,0l0,0c0,0,0,0,0-0.1l0,0l0,0l0,0c0,0,0,0,0.1,0l0,0l2.8,0.5v-0.1l-10.2-1.8l-0.4,1.2l-0.4,2.5l-0.7,3.1h0.1
	c0.1,0,0.1,0.1,0.1,0.4l-0.4,0.8c0,0,0,0.1-0.1,0.1l0,0h-0.1l-0.8,3h0.1c0.1,0,0.1,0.1,0.1,0.4l-0.4,0.8c0,0,0,0.1-0.1,0.1h-0.1
	h-0.1l-0.4,1.2l0.7,0.4c0,0,0.1,0,0.1,0.1l0.4,0.1l0,0l0,0l0,0l0,0l0,0l0,0l0,0l0,0l0,0l0,0l0,0l0,0l0,0l0,0l0,0l0,0l0,0l0,0l0,0
	l0,0l0,0l0.8,1.8l0.4-0.1l0.4-0.4l0.4-0.5l0,0l0,0l0,0c0,0,0,0,0.1,0l0,0l0,0l0,0l0,0l0,0l0,0l0,0l0.8,0.4c0,0,0.1,0,0.1,0.1
	l0.8,1.8l0.4-0.1l0.4-0.4l0.4-0.5l0,0l0,0l0,0l0,0l0,0c0,0,0,0,0.1,0l0,0l0,0l0,0l0,0l0,0l0,0l0,0l0,0l0,0l0,0l0,0l0,0l0.4,0.1l0,0
	l0,0l0.4,0.1c0,0,0.1,0,0.1,0.1l0.8,1.8l0.4-0.4l0.4-0.4l0.4-0.5c0-0.1,0.1-0.1,0.4-0.1c0.2,0,0.1,0.1,0.1,0.4l-0.4,0.5l0,0
	l-0.2,0.6l0,0l-0.4,0.4l0,0l0,0c0,0,0,0-0.1,0c-0.1,0,0,0-0.1,0l0,0l0,0l0,0l0,0l-1-1.9h-0.1l-1.4,4.4l0.8,0.4v-0.1v-0.1l0,0l0,0
	l0,0l0.1-0.4l0,0l0,0l0,0l0,0l-0.1-0.4c0,0,0,0,0-0.1l0.1-0.4l0,0l0,0l0.1-0.4l0,0l0.4-0.4l0,0l0,0l0.4-0.1h0.1l0.4,0.1
	c0,0,0,0,0.1,0l0.1,0.4l0,0l0,0l0.1,0.4l0,0v0.4l0,0l0,0l-0.1,0.4l0,0l-0.4,0.4l-0.1,0.4l0,0l0,0l0,0l0,0c0,0,0,0-0.1,0v0.1l0.8,0.4
	l1.4-4.8l0,0l0,0l0,0l0,0l0,0l0,0l0,0l0,0l0,0l0,0l0,0l0,0l0,0l0,0l0,0l0,0l0,0l0,0l0,0l0,0l0,0l0,0l0,0l0,0l0,0l0,0l0,0l0,0l0,0
	l0,0l0,0l0,0l0,0l0,0l0,0l0,0l0,0l0,0l0,0l0,0l0,0l0,0l0,0l0,0l0,0l0,0l0,0l0,0l0,0l0,0l0,0l0,0l0,0l0,0l0,0l0,0l0,0l0,0l0,0l0,0
	l0,0l0,0l0,0l0,0l0,0l0,0l0,0l0,0l0,0l0,0l0,0l0,0l0,0l0,0l0,0l0,0l0,0l0,0l0,0l0,0l0,0c0,0,0,0,0.1,0l0,0l0.4,0.1l0.4-0.8l-0.4-0.1
	l0,0c-0.1,0-0.1-0.1-0.1-0.1l0,0l0,0l0,0l0,0l0,0l1.7-6l0,0l0,0l0,0l0,0c0-0.1,0.1-0.1,0.4-0.1l0,0l0,0l0,0l0.4,0.1l0.8-3.4h-0.4
	l-0.4,1.2l0,0l0,0l0,0v0.1c0,0,0,0-0.1,0.1h-0.1l0,0l0,0l0,0l-1.4-0.4l0,0l0,0h-0.1l-0.1-0.1v-1l0,0l0,0l0.4-1.2h-0.1l-0.4,1.2l0,0
	l0,0l0,0v0.1l-0.1,0.1H632l0,0l0,0l-1.4-0.4l0,0l0,0h-0.1c0,0,0,0-0.1-0.1v-0.1l0,0l0,0l0,0l0.4-1.2l0,0h-0.1l-0.4,1.2l0,0l0,0v0.1
	l-0.1,0.1h0l0,0l0,0l-1.4-0.4l0,0l0,0l0,0l0,0l0,0l0,0l0,0c0,0,0,0,0-0.1v-0.1l0,0l0,0l0.4-1.2h-0.1l0,0l0,0c0,0,0,0-0.1,0l0,0l0,0
	l0,0l0,0l0,0l0,0l0,0l0,0l0,0l0,0l0,0l0,0l0,0l0,0l0,0l0,0l0,0l0,0l0,0l0,0l0,0l0,0l0,0l0,0l0,0l0,0l0,0l0,0l0,0l0,0l0,0l0,0l0,0
	l0,0l0,0l0,0l0,0l0.1-0.5c0,0,0,0,0-0.1l0,0l0,0l0,0l0,0l0,0l0,0l0,0l0,0l0,0l0,0l0,0l0,0l0,0l0,0l0,0l0,0l0,0l0,0l0,0l0,0l0,0l0,0
	l0,0l0,0l0,0l0,0l0,0l0,0l0,0l0,0l6.9,1.2l0,0L633.8,782.6z"/>
<path fill="#CCCCCC" d="M622.9,732.3L622.9,732.3L622.9,732.3L622.9,732.3C622.8,732.3,622.8,732.3,622.9,732.3L622.9,732.3
	L622.9,732.3L622.9,732.3L622.9,732.3l-0.8-4.9l-0.8-4.8h-17.6l0.1,0.4l0,0c0,0,0,0,0,0.1l0.1,0.5l0,0l0,0l0.1,0.5l0,0
	c0,0,0,0,0,0.1l0.4,1.8l0.8,3.8l0.8,3.8l0.7,3.8l0.5,3.8l0.4,3.8l0.4,3.8l0.1,3.8v3.8l-0.1,3.8l-0.4,3.8l-0.4,3.8l-0.5,3.8l-0.7,3.8
	l-0.8,3.8l-0.8,3.8l-0.8,3.8l-1,3.4l1,0.4h0.1l0,0l4.4,1.4h0.1l0,0l1,0.4h0.1l0,0l0.8,0.4l0,0h0.1l0,0l0,0l1.2,0.4l0,0l4.4,1.4h0.1
	l0,0l1,0.4l1.2-3.6l1-3.8l1-3.8l0.8-3.8l0.8-3.8l0.7-4.1l0,0l0,0l0,0l0,0l0,0l0,0c0,0,0,0,0.1,0l0,0h1.7v-40.3L622.9,732.3
	L622.9,732.3z"/>
<path fill="#CCCCCC" d="M503.2,721.8L503.2,721.8h-6v0.8c0,0.1-0.1,0.1-0.1,0.1h-1.7c-0.1,0-0.1-0.1-0.1-0.1v-0.4v-0.5h-3.4h-0.1
	l0,0l0,0h-0.4h-0.1h-5.1v0.1v0.1l0,0v1.2c0,0.1-0.1,0.1-0.1,0.1h-0.8l0,0v6.9v0.4v3h24.3v-11.9h-4.1h-0.1L503.2,721.8L503.2,721.8z"
	/>
<path fill="#CCCCCC" d="M529.3,929.7c-0.1,0.1-0.1,0.1-0.4,0l-0.7-0.7h-3v7.9h3.4h3.1h3v-0.4l-0.7-0.7v-0.1v-0.1l0.7-0.7v-2.6h-0.4
	l0,0l-0.5-0.1l0,0l-0.5-0.4l0,0l-0.4-0.4l0,0l-0.4-0.4l0,0l-0.4-0.5l0,0L532,930l0,0v-0.7V929h-1.5L529.3,929.7z"/>
<path fill="#CCCCCC" d="M564.3,991.3h0.7l0,0l0,0l0,0l0,0l0,0l0,0l0,0l0,0l0,0l0,0l0,0l0,0v2.8l0,0c0,0,0,0,0.1,0v-5.6h-0.8h-5.6
	c-0.1,0-0.1-0.1-0.1-0.1V988c0-0.1,0.1-0.1,0.1-0.1h5.5v-5.1h-15.3V994h12.9v-0.4C562,992.6,562.9,991.4,564.3,991.3z"/>
<path fill="#CCCCCC" d="M564.3,991.3h0.7l0,0l0,0l0,0l0,0l0,0l0,0l0,0l0,0l0,0l0,0l0,0l0,0v2.8l0,0c0,0,0,0,0.1,0v-5.6h-0.8h-5.6
	c-0.1,0-0.1-0.1-0.1-0.1V988c0-0.1,0.1-0.1,0.1-0.1h5.5v-5.1h-15.3V994h12.9v-0.4C562,992.6,562.9,991.4,564.3,991.3z"/>
<path fill="#CCCCCC" d="M531.8,991.3h-0.7l0,0l0,0l0,0l0,0l0,0l0,0l0,0l0,0l0,0l0,0l0,0l0,0v2.8l0,0c0,0,0,0-0.1,0v-5.6h0.8h5.6
	c0.1,0,0.1-0.1,0.1-0.1V988c0-0.1-0.1-0.1-0.1-0.1h-5.6v-5.1h15.7V994h-13.1v-0.4C534.2,992.6,533.2,991.4,531.8,991.3z"/>
<path fill="#CCCCCC" d="M531.8,991.3h-0.7l0,0l0,0l0,0l0,0l0,0l0,0l0,0l0,0l0,0l0,0l0,0l0,0v2.8l0,0c0,0,0,0-0.1,0v-5.6h0.8h5.6
	c0.1,0,0.1-0.1,0.1-0.1V988c0-0.1-0.1-0.1-0.1-0.1h-5.6v-5.1h15.7V994h-13.1v-0.4C534.2,992.6,533.2,991.4,531.8,991.3z"/>
<path fill="#CCCCCC" d="M532.9,922.2l-0.8-0.8H530l-0.8,0.8c-0.1,0.1-0.1,0.1-0.4,0l-0.8-0.8h-2.8v6.9h0.8l0.8-0.8
	c0.1-0.1,0.1-0.1,0.4,0l0.8,0.8h2.1l0.8-0.8c0.1-0.1,0.1-0.1,0.4,0l0.4,0.4v-0.1l0,0l0.1-0.5l0,0l0.4-0.5l0,0l0.4-0.4l0,0l0.4-0.4
	l0,0l0.5-0.4l0.5-0.1l0,0h0.4l0,0l-0.8-0.8c-0.1-0.1-0.1-0.1,0-0.4l0.8-0.8v-1.9h-0.8L532.9,922.2
	C532.9,922.3,532.9,922.3,532.9,922.2z"/>
<path fill="#CCCCCC" d="M531.1,982L531.1,982L531.1,982L531.1,982L531.1,982L531.1,982L531.1,982L531.1,982h17.6l0,0l0,0l0,0l0,0
	l0,0l0,0l0,0l0,0h9.3l0,0l0,0l0,0l0,0l0,0l0,0l0,0l0,0h6.5c0-0.1,0.1-0.1,0.1-0.1s0.1,0,0.1,0.1h0.4h0.8v-11.4h-0.8h-34.3v1.4
	c0,0.1-0.1,0.1-0.1,0.1l0,0l0,0v3.1v0.1v3.1v0.1c0,0.1-0.1,0.1-0.1,0.1v2.6c0,0,0,0,0.1,0l0,0l0,0l0,0l0,0l0,0l0,0L531.1,982
	L531.1,982z"/>
<path fill="#CCCCCC" d="M571.1,946.2h0.8l0.7-0.7c0.1-0.1,0.1-0.1,0.4,0l0.7,0.7h2.1l0.8-0.8c0.1-0.1,0.1-0.1,0.4,0l0.8,0.8h2.5
	v-4.9l0,0v-0.7l0,0v-0.7v-0.7l0,0v-0.7V938l0,0v-0.7l0,0v-0.1h-14.9v1.7h2.8l0,0l0,0l0,0l0,0l0,0l0,0l0,0l0,0l0,0l0,0l0,0l0,0l0,0
	l0,0l0,0l0,0c0,0,0,0,0,0.1l0,0l0,0l0,0l0,0l0,0l0,0l0,0l0,0l0,0v0.7l0,0l-0.1,0.5l-0.4,0.5l0,0l-0.4,0.4l0,0l-0.4,0.4l0,0l-0.5,0.4
	l0,0l-0.5,0.1l0,0h-0.7v4.4h3.1c0.1,0,0.1,0.1,0.1,0.1h2.7C571,946.5,571,946.2,571.1,946.2z"/>
<path fill="#CCCCCC" d="M559.3,868.7v-1.4h-0.1c-0.1,0-0.1-0.1-0.1-0.1v-5.1c-0.1,0-0.1-0.1-0.1-0.1v-7.5h-2.8h-5.1v16.6h0.1v-2.8
	v-0.1h0.1h0.5l0,0l0.5,0.1l0,0l0.5,0.4l0,0l0.4,0.4l0,0l0.4,0.4l0,0l0.4,0.5l0,0l0.1,0.5l0,0v0.4h0.4v-0.6c0-0.1,0.1-0.1,0.1-0.1
	h1.4l0,0l0,0l0,0c0,0,0,0,0-0.1v-1.7c0,0,0,0,0-0.1l0,0l0.1-0.1l0,0l0,0l0,0l0,0l0,0l0,0l0,0l0,0l0,0l0,0l0,0l0,0l0,0l0,0h1.7l0,0
	l0,0l0,0l0,0l0,0h0.1c0,0,0,0,0,0.1l0,0l0,0l0,0l0,0l0,0v1.7l0,0l0,0l0,0l0,0l0,0h0.8v-1.7L559.3,868.7L559.3,868.7z"/>
<path fill="#CCCCCC" d="M577.7,798.7H577h-0.8h-0.7h-0.7H574h-0.8h-0.7h-0.4h-0.7h-0.7v10.9v5.1v5.6v5.1v0.5v5.1v0.5v4.1v6.9h5.7
	V842l0,0l0.1-0.5l0,0l0.4-0.5l0,0l0.4-0.4l0,0l0.4-0.4l0,0l0.5-0.4l0,0l0.5-0.1l0,0h0.7l0,0l0,0l0,0l0,0l0,0c0,0,0,0,0.1,0l0,0l0,0
	l0,0l0,0l0,0l0,0v-1.1v-1l0,0v-0.7V836v-0.7l0,0v-10v-0.8l0,0v-0.7V823v-0.7l0,0v-0.6v-0.8l0,0v-0.7v-0.7v-0.8l0,0V818v-0.3V817l0,0
	v-0.1v-0.7l0,0v-0.7v-0.8V814l0,0v-0.5v-4.1v-1V804v-0.4V803l0,0v-0.5v-0.7v-1.2l0,0v-0.7V799l0,0v-0.2h-0.7h-0.7L577.7,798.7
	L577.7,798.7L577.7,798.7z"/>
<path fill="#3964AF" d="M569.8,1078.6L569.8,1078.6L569.8,1078.6L569.8,1078.6C569.8,1078.5,569.8,1078.5,569.8,1078.6L569.8,1078.6
	L569.8,1078.6L569.8,1078.6L569.8,1078.6L569.8,1078.6L569.8,1078.6L569.8,1078.6L569.8,1078.6v-0.7c0.4-0.8,1-1.4,1.9-1.8
	c-0.8-0.4-1.4-1-1.7-2.1v-0.7v-0.1h0.1l2.5,0.4l1.4-10.8l-11-1.8h-19l-11,1.8l1.4,10.8l2.3-0.4l0,0l0,0l0,0l0,0l0,0l0,0l0,0l0,0l0,0
	l0,0l0,0l0,0v0.7c-0.1,0.8-0.7,1.8-1.7,2.1c0.8,0.4,1.7,0.8,1.9,1.8l0.1,0.5l0,0l0,0l0,0l0,0l0,0l0,0l0,0l0,0l0,0l0,0l0,0l0,0
	l-2.3,0.4l0.4,2.1h2.6c0.1,0,0.1,0.1,0.1,0.1v0.1l0,0l0,0l0,0l0,0l0,0l0,0c0,0,0,0,0,0.1h5.7c0,0,0,0,0-0.1l0,0l0,0l0,0l0,0l0,0l0,0
	v-0.1c0-0.1,0.1-0.1,0.1-0.1h27.3l0.4-2.1L569.8,1078.6L569.8,1078.6z"/>
<path fill="#CCCCCC" d="M545.8,901.8L545.8,901.8l0.1-0.7l0,0l0.4-0.5l0,0l0.4-0.4l0,0l0.4-0.4l0,0l0.5-0.4l0,0l0.5-0.1l0,0h0.7h0.1
	l0,0l0.1-0.1v-2.3l-0.7-0.7c-0.1-0.1-0.1-0.1,0-0.4l0.7-0.7v-2.3l-0.7-0.7V892v-0.1l0.7-0.7v-3.6h-1l-0.7,0.7
	c-0.1,0.1-0.1,0.1-0.4,0l-0.7-0.7h-2.1l-0.7,0.7c-0.1,0.1-0.1,0.1-0.4,0l-0.7-0.7h-2.6v0.1l0.7,0.7c0.1,0.1,0.1,0.1,0,0.4l-0.7,0.7
	v2.1l0.7,0.7c0.1,0.1,0.1,0.1,0,0.4l-0.7,0.7v2.1l0.7,0.7c0.1,0.1,0.1,0.1,0,0.4l-0.7,0.7v2.1l0.7,0.7c0.1,0.1,0.1,0.1,0,0.4
	l-0.7,0.7v1h0.8l0.8-0.8c0.1-0.1,0.1-0.1,0.4,0l0.8,0.8L545.8,901.8L545.8,901.8z"/>
<path fill="#CCCCCC" d="M531.1,797.4h0.7l0,0h0.4l-0.1-0.1c0-0.1,0.1-0.1,0.1-0.1h4.8c0.1,0,0.1,0.1,0.1,0.1s0,0.1-0.1,0.1h0.4l0,0
	h0.7l0,0h0.7l0,0h0.4l-0.1-0.1c0-0.1,0.1-0.1,0.1-0.1h4.8c0.1,0,0.1,0.1,0.1,0.1s0,0.1-0.1,0.1h0.4l0,0h1.4l0,0h0.4l-0.1-0.1
	c0-0.1,0.1-0.1,0.1-0.1h4.8c0.1,0,0.1,0.1,0.1,0.1s0,0.1-0.1,0.1h0.4l0,0h1.4l0,0h0.4l-0.1-0.1c0-0.1,0.1-0.1,0.1-0.1h4.8
	c0.1,0,0.1,0.1,0.1,0.1s0,0.1-0.1,0.1h0.4l0,0h1.4l0,0h0.4l-0.1-0.1c0-0.1,0.1-0.1,0.1-0.1h4.8c0.1,0,0.1,0.1,0.1,0.1s0,0.1-0.1,0.1
	h0.5l0,0h0.7l0,0h0.8l-0.1-0.1c0-0.1,0.1-0.1,0.1-0.1h4.8c0.1,0,0.1,0.1,0.1,0.1s0,0.1-0.1,0.1h0.5l0,0h0.7l0,0h0.8l-0.1-0.1
	c0-0.1,0.1-0.1,0.1-0.1h4.7v-4.4v-0.7v-0.7l0,0v-0.7v-0.6l0,0v-0.7v-1v-0.7l0,0V787v-0.7l0,0V786l0,0l0,0l-11.4-3.5l0,0l0,0
	l-0.4-0.1l0,0l-2.1-0.7l0,0l0,0l-10.8-3.4l0,0v1.7v0.7v0.4v0.1v0.4v6.3c0,0.1-0.1,0.1-0.1,0.1h-0.5h-2.6l0,0l0,0l0,0h-6.3v0.4l0,0
	l-0.1,0.5l0,0l-0.4,0.4l0,0l0.8,0.4l0,0l-0.5,0.4l0,0l-0.5,0.1l0,0h-0.5c0,0,0,0-0.1,0l0,0l0,0c0,0,0,0-0.1,0l0,0l0,0l0,0l0,0l0,0
	l0,0l0,0c0,0,0,0,0-0.1l0,0l0,0l0,0v-2.4h-0.5h-0.2H541h-0.1h-11l0,0l0,0l0,0h-0.5l0,0H526l0,0l0,0v0.7l0,0v8.6h4.7
	c0.1,0,0.1,0.1,0.1,0.1s0,0.1-0.1,0.1L531.1,797.4L531.1,797.4z"/>
<path fill="#CCCCCC" d="M554.6,902.3L554.6,902.3L554.6,902.3L554.6,902.3L554.6,902.3L554.6,902.3L554.6,902.3L554.6,902.3
	C554.5,902.3,554.5,902.3,554.6,902.3L554.6,902.3L554.6,902.3L554.6,902.3L554.6,902.3L554.6,902.3L554.6,902.3L554.6,902.3
	L554.6,902.3L554.6,902.3L554.6,902.3L554.6,902.3L554.6,902.3L554.6,902.3L554.6,902.3L554.6,902.3L554.6,902.3l-0.1-0.7l0,0
	l0.1-0.5l0,0l0.4-0.5l0,0l0.4-0.4l0,0l0.4-0.4l0,0l0.5-0.4l0,0l0.5-0.1l0,0h0.4v-13.5h-7.4l0,0v4.4l0.7,0.7c0.1,0.1,0.1,0.1,0,0.4
	l-0.7,0.7v2.3l0.7,0.7c0.1,0.1,0.1,0.1,0,0.4l-0.7,0.7v2.3l0.7,0.7c0.1,0.1,0.1,0.1,0,0.4l-0.7,0.7v3.5h7.5l0,0h-2.6
	C554.9,902.3,554.9,902.3,554.6,902.3z"/>
<path fill="#3964AF" d="M572.9,1040.9v-0.5h-4.8v4.4v0.8c0,0.1-0.1,0.1-0.1,0.1h-1.1l0,0h-3.1h-2.1h-6.1h-15.3h-6.5h-2.6l0.8,8.1
	l11-1.8l0,0l0,0h20.9l0,0l11,1.8l0.8-8.1h-2.6l0,0c-0.1,0-0.1-0.1-0.1-0.1v-0.8v-0.8c0-0.1,0.1-0.1,0.1-0.1h0.1v-2.6h-0.1l0,0
	C573.2,1041,572.9,1041,572.9,1040.9z"/>
<path fill="#CCCCCC" d="M583.2,785.7L583.2,785.7C583.3,785.7,583.3,785.7,583.2,785.7l1,0.4l0,0h0.1l0,0l0,0l0,0l0,0l0,0l3.4,0.8
	l0,0l0,0l0.7,0.4c0,0,0,0,0.1,0l1,0.4l0,0l0,0l1.4,0.4l0,0l0,0l1.7,0.4h0.1l0,0l2.5,0.8l0,0l0,0l0.4,0.1l0,0l0,0l0,0l1.7,0.4h0.1
	l0,0l0,0l0.4,0.1h0.1l0,0l0.4,0.1h0.1l0,0l1.4,0.4l0.8-3.4l0.8-3.8l0.8-3.8l0.7-3.8l0.7-3.8l0.5-3.8l0.4-3.8l0.4-3.8l0.1-3.8V753
	l-0.1-3.8l-0.4-3.8l-0.4-3.8l-0.5-3.8l-0.7-3.8l-0.8-3.8l-0.8-3.8l-0.8-3.6h-17.6l0.1,0.4l0,0c0,0,0,0,0,0.1l0.1,0.4c0,0,0,0,0,0.1
	v0.1l0.1,0.5l0,0c0,0,0,0,0,0.1l0.1,0.4c0,0,0,0,0,0.1s0,0.1,0,0.1l0.4,0.7l0.8,3.4l0.8,3.4l0.7,3.5l0,0l0,0l0,0l0,0l0,0
	c0,0,0,0-0.1,0l0,0l0,0l0,0l0,0h-2.1l0.4,1.7l0.5,3.4l0.4,3.4l0.4,3.4l0.1,3.5l0.1,3.4v3.5l-0.1,3.4l-0.4,3.4l-0.4,3.4l-0.5,3.4
	l-0.7,3.4l-0.8,3.4l-0.8,3.6c0,0,0,0,0,0.1s0,0,0,0.1l-0.8,2.6l1.7,0.5C583.2,785.7,583.2,785.7,583.2,785.7z"/>
<path fill="#CCCCCC" d="M568.1,874.9L568.1,874.9l-0.1-0.4c0,0,0,0,0-0.1l0,0l0,0l0,0l0,0l0,0l0,0h0.4h-0.2c0,0,0,0-0.1,0l-0.1-0.1
	c0,0,0,0,0-0.1v-0.4c0,0,0,0,0-0.1v-0.4c0,0,0,0,0-0.1l0.1-0.1c0,0,0,0,0.1,0h0.4c0,0,0,0,0.1,0h0.4c0,0,0,0,0.1,0l0.1,0.1h0.4l0,0
	h-0.1l-0.1,0.1c0,0,0,0-0.1,0H569c0,0,0,0-0.1,0h-0.4h-0.2l-0.1-0.1l0,0l-0.1-0.4v-0.1l0.1-0.4l0,0l0.1-0.1c0,0,0,0,0.1,0l0,0h-2.8
	c-0.1,0-0.1-0.1-0.1-0.1h-4.8c0,0.1-0.1,0.1-0.1,0.1h-0.8v1.4c0,0.1-0.1,0.1-0.1,0.1h-1.5c-0.1,0-0.1-0.1-0.1-0.1v-1.4h-1.4
	c0,0,0,0,0.1,0l0,0l0,0l0,0v0.1l0,0v0.1v0.1l0,0v0.1l0,0l0,0l0,0c0,0,0,0-0.1,0l0,0h-0.1c0,0-0.1,0-0.4,0c-0.3,0-0.4,0-0.4,0
	l-0.1,0.1l0,0l0,0l0,0c-0.1,0.1-0.1,0.1-0.4,0c0,0,0,0,0-0.1l0,0v0.1c-0.1,0.1-0.1,0.1-0.4,0l0,0c0,0,0,0,0-0.1l-0.1-0.4l0,0V872
	l0,0v-0.1v-0.1l0,0h-1.2c-0.1,0-0.1-0.1-0.1-0.1h-2.7c0,0.1-0.1,0.1-0.1,0.1h-0.8v0.7l0.7,0.7v0.1v0.1l-0.7,0.7v2.3l0.7,0.7
	c0.1,0.1,0.1,0.1,0,0.4l-0.7,0.7v2.6c0,0.1-0.1,0.1-0.1,0.1h-0.1v2.6h0.1c0.1,0,0.1,0.1,0.1,0.1v0.5l0.5,0.5h7.5
	c0.1,0,0.1,0.1,0.1,0.1v14.5c0,0.1-0.1,0.1-0.1,0.1l0,0v2.6l0,0c0.1,0,0.1,0.1,0.1,0.1v0.8c0,0.1-0.1,0.1-0.1,0.1h-8.3
	c-0.1,0-0.1-0.1-0.1-0.1h-2.6c0,0.1-0.1,0.1-0.1,0.1h-1.4l-0.7,0.7c-0.1,0.1-0.1,0.1-0.4,0l-0.7-0.7H541v0.8c0,0.1-0.1,0.1-0.1,0.1
	v2.6c0.1,0,0.1,0.1,0.1,0.1v0.7h1.7c0,0,0,0,0.1,0l0,0l0,0l0,0l0,0l0,0l0,0h2.6l0,0l0,0l0,0l0,0l0,0l0,0c0,0,0,0,0.1,0h13.7
	c0.1,0,0.1,0.1,0.1,0.1v0.7c0,0.1-0.1,0.1-0.1,0.1l0,0v2.6l0,0c0.1,0,0.1,0.1,0.1,0.1v10c0,0.1-0.1,0.1-0.1,0.1l0,0v2.6l0,0
	c0.1,0,0.1,0.1,0.1,0.1v7.5c0,0.1-0.1,0.1-0.1,0.1v2.6c0.1,0,0.1,0.1,0.1,0.1v5.5l0,0v4.3c0,0.1-0.1,0.1-0.1,0.1v2.6
	c0.1,0,0.1,0.1,0.1,0.1v8.6h0.4l0,0h0.7c0.1,0,0.1,0.1,0.1,0.1v0.1c0.1,0,0.1,0.1,0.1,0.1h3.1c0-0.1,0.1-0.1,0.1-0.1v-0.1
	c0-0.1,0.1-0.1,0.1-0.1h0.5l0,0h0.4v-4.8c0-0.1,0.1-0.1,0.1-0.1v-2.6c-0.1,0-0.1-0.1-0.1-0.1v-7c0-0.1,0.1-0.1,0.1-0.1v-2.6
	c-0.1,0-0.1-0.1-0.1-0.1v-7c0-0.1,0.1-0.1,0.1-0.1V928c-0.1,0-0.1-0.1-0.1-0.1v-7c0-0.1,0.1-0.1,0.1-0.1v-2.6
	c-0.1,0-0.1-0.1-0.1-0.1v-7.4c0-0.1,0.1-0.1,0.1-0.1V908c-0.1,0-0.1-0.1-0.1-0.1V901c0-0.1,0.1-0.1,0.1-0.1v-2.6
	c-0.1,0-0.1-0.1-0.1-0.1v-7.5c0-0.1,0.1-0.1,0.1-0.1V888c-0.1,0-0.1-0.1-0.1-0.1v-3.4c0-0.1,0.1-0.1,0.1-0.1h4.4h0.4l0,0h1.2V876
	v-0.6L568.1,874.9L568.1,874.9z"/>
<path fill="#CCCCCC" d="M559.3,849.1h10.4v-6v-7.5v-4.1v-0.7v-5.1v-0.5v-4.9v-5.6v-4.9v-10.5h-44.3v50.3h33.8
	C559.3,849.1,559.3,849.1,559.3,849.1z"/>
<path fill="#CCCCCC" d="M518.5,717C518.5,716.9,518.8,716.9,518.5,717l0.4-0.1V707c0-0.1,0.1-0.1,0.1-0.1l0.1,0.1v9.9h25.6v-16.5
	l-25.6-12.3v9.7c0,0.1-0.1,0.1-0.1,0.1l-0.1-0.1v-9.9l0,0l0,0l0,0l0,0l0,0l0,0l0,0h21.2c0.1,0,0.1,0.1,0.1,0.1
	c0,0.1-0.1,0.1-0.1,0.1h-20.2l25,12.3l25-12.3h-20.2c-0.1,0-0.1-0.1-0.1-0.1c0-0.1,0.1-0.1,0.1-0.1h21l0,0l0,0l0,0l0,0l0,0l0,0l0,0
	l0,0l0,0l0,0V700c0,0.1-0.1,0.1-0.1,0.1l-0.1-0.1v-11.7l-25.7,12.2V717h9.9c0.1,0,0.1,0.1,0.1,0.1v8.7l15.5-4.7v-11.9
	c0-0.1,0.1-0.1,0.1-0.1c0.1,0,0.1,0.1,0.1,0.1v11l1.4-3.6V686H517v34.3h0.8L518.5,717L518.5,717z M570.6,706.8L570.6,706.8
	C570.6,707,570.6,707,570.6,706.8v3.6c0,0,0,0,0,0.1c0,0,0,0,0,0.1v1.4c0,0.1-0.1,0.1-0.1,0.1h-8.1c-0.1,0-0.1-0.1-0.1-0.1v-1.4
	c0,0,0,0,0-0.1c0,0,0,0,0-0.1v-3.5c0,0,0,0,0-0.1c0,0,0,0,0-0.1v-4.4c0-0.1,0.1-0.1,0.1-0.1h8.1c0.1,0,0.1,0.1,0.1,0.1V706.8z"/>
<path fill="#CCCCCC" d="M575.9,731h-20.8v1.4v0.4v0.5v0.4v0.8l0,0l0,0v0.4v1.8v0.4v0.8v0.4v0.7v0.4v1.8V752v0.1l0,0v0.1v4.8v0.4v2.1
	l0,0l0,0l0,0v3.4v0.4v3.8l0,0v0.1l0,0l0,0v3.8v0.4v2.1v0.7v0.4v2.6l0,0l3.1,0.8h0.1l0,0l0,0h0.1l1.7,0.5h0.1h0.1l0.5,0.1l0,0l0,0
	l0.4,0.1h0.1l0,0l1.9,0.5l0,0l0,0h0.1l0,0l0,0l1,0.4h0.1l0,0l0.8,0.4l0,0c0,0,0,0,0.1,0l0,0l0.4,0.1h0.1l0,0l1.8,0.5h0.1l0,0
	l0.4,0.1h0.4l0,0l2.1,0.7l0,0l0,0c0,0,0,0,0.1,0l0.4,0.1l0,0l0,0l1.8,0.5l0,0l0,0l1.4,0.4h0.1l0,0l0.7,0.4h0.1l0,0l1,0.4l0.8-3.1
	l0.8-3.4l0.7-3.4l0.7-3.4l0.5-3.4l0.4-3.4l0.4-3.4l0.1-3.4v-3.4l-0.1-3.4l-0.4-3.4l-0.4-3.4l-0.4-3.4l-0.7-3.4l-0.7-3.4l-0.8-3.4
	l-0.8-3.4l-0.7-2.1v5.7C575.9,730.9,575.9,731,575.9,731z"/>
<path fill="#CCCCCC" d="M553.8,1015.7L553.8,1015.7c-0.4,0-0.4-0.1-0.4-0.1v29h0.4V1015.7L553.8,1015.7z"/>
<path fill="#CCCCCC" d="M640.7,752.6L640.7,752.6v0.5l-0.1,0.5l-0.4,0.4l-0.4,0.4l-0.4,0.4l-0.4,0.4l-0.5,0.1h-0.4v-2.6
	c0,0.1-0.1,0.1-0.1,0.1l-0.4,7.5c0,0.1-0.1,0.1-0.1,0.1l0,0l2.8,0.1v0.4l-0.1,0.5l-0.4,0.4l-0.4,0.4l-0.4,0.4l-0.5,0.4l-0.5,0.1
	h-0.8l0,0c0.1,0,0.1,0.1,0.1,0.1v0.1h0.4l0,0l0.5-0.1l0,0l0.5-0.4l0,0l0.5-0.4l0,0l0.4-0.4l0,0l0.4-0.5l0,0l0.4-0.5l0,0l0.1-0.7l0,0
	l0,0c0,0,0,0,0-0.1l0,0l0,0l0,0l0,0l0,0l0,0l-2.8-0.1l0.1-3.6v-0.8l0,0l0,0h0.5l0,0l0.5-0.1l0,0l0.4-0.4l0,0l0.4-0.4l0,0l0.4-0.4
	l0,0l0.4-0.5l0,0l0.1-0.5l0,0V753h-0.1C640.8,752.9,640.7,752.9,640.7,752.6z"/>
<path fill="#CCCCCC" d="M564.7,898.4C564.9,898.4,564.9,898.3,564.7,898.4l0.1-0.4v-1.7h14.9v-0.4h-15.2c-0.1,0-0.1,0.1-0.1,0.1v1.8
	l0,0v-6.9l0,0v4.7c0,0.1,0.1,0.1,0.1,0.1h15.2v-0.4h-14.9v-4.4v-0.1c0-0.1-0.1-0.1-0.1-0.1l0,0l0,0h-0.4c-0.1,0-0.1,0.1-0.1,0.1v7.4
	c0,0.1,0.1,0.1,0.1,0.1L564.7,898.4L564.7,898.4z"/>
<path fill="#CCCCCC" d="M564.7,918.5C564.9,918.5,564.9,918.5,564.7,918.5l0.1-0.4v-1.7h14.9V916l0,0h-15.2c-0.1,0-0.1,0.1-0.1,0.1
	v1.8l0,0v-6.8l0,0v4.7c0,0.1,0.1,0.1,0.1,0.1h15.2v-0.4h-14.9v-4.4V911c0-0.1-0.1-0.1-0.1-0.1l0,0l0,0h-0.4c-0.1,0-0.1,0.1-0.1,0.1
	v7c0,0.1,0.1,0.1,0.1,0.1h0.4V918.5L564.7,918.5z"/>
<path fill="#CCCCCC" d="M636.9,803.2L636.9,803.2L636.9,803.2L636.9,803.2L636.9,803.2L636.9,803.2z"/>
<g>
	<g>
		<path fill="#989798" d="M580.7,1007.3v78.2h-54.5v-78.2H580.7 M583.3,1004.5h-2.6h-54.5h-2.6v2.6v78.2v2.6h2.6h54.5h2.6v-2.6
			v-78.2V1004.5L583.3,1004.5z"/>
	</g>
	<g>
		<path fill="#989798" d="M573.4,682.9v36.6l65.1-20.4c0,0,10.5,15.7,10.5,53.4s-13.7,54.9-13.7,54.9l-53.6-17.3v178h-14.9l0.1,24.8
			h-42.2V788.6h-7v-4.7h-35.5v-64h35.6v-37.3h55.7 M576,679.9h-2.6h-55.7h-2.6v2.6v34.4h-32.9h-2.6v2.6v64.4v2.6h2.6h33v1.7v2.6h2.6
			h4.3v201.5v2.6h2.6h42.2h2.8v-2.5l-0.1-22h12.2h2.6v-2.6V794l50,16l1.9,0.5l1.2-1.7c0.1-0.1,3.6-4.8,7.4-14c3.4-8.4,7-22.7,7-42.7
			c0-38.4-10.5-54.4-11-55.1l-1.2-1.7l-2.1,0.7l-61.7,19.3v-32.6L576,679.9L576,679.9z"/>
	</g>
</g>
<g>
	<g enable-background="new    ">
		<path fill="#FFFFFF" d="M537.8,1027.4h-1.1v-0.5l1-2.3h0.6v2.3h0.4v0.5h-0.4v0.8h-0.7v-0.8H537.8z M537.8,1026.9v-1.4l0,0
			l-0.6,1.4H537.8z"/>
		<path fill="#FFFFFF" d="M539,1028.2v-0.5c0.7-1.1,1.2-1.8,1.2-2.3c0-0.2-0.1-0.4-0.2-0.4c-0.2,0-0.2,0.1-0.2,0.4v0.2h-0.6v-0.1
			c0-0.5,0.4-1,0.8-1s0.8,0.4,0.8,0.7c0,0.6-0.1,1-1.1,2.4h1.1v0.5L539,1028.2L539,1028.2z"/>
		<path fill="#FFFFFF" d="M541.2,1025.6c0-0.6,0.2-1,0.8-1s0.8,0.2,0.8,1v1.8c0,0.6-0.2,1-0.8,1s-0.8-0.2-0.8-1V1025.6z
			 M542.3,1025.4c0-0.2-0.1-0.4-0.2-0.4s-0.2,0.1-0.2,0.4v2c0,0.2,0.1,0.4,0.2,0.4s0.2-0.1,0.2-0.4V1025.4z"/>
	</g>
</g>
<g>
	<g enable-background="new    ">
		<path fill="#FFFFFF" d="M550.2,1068.5h-1.1v-0.4l1-2.3h0.6v2.3h0.4v0.5h-0.4v0.8h-0.6v-1L550.2,1068.5L550.2,1068.5z
			 M550.3,1068.1v-1.4l0,0l-0.6,1.4H550.3z"/>
		<path fill="#FFFFFF" d="M551.6,1069.3v-0.5c0.7-1.1,1.2-1.8,1.2-2.3c0-0.2-0.1-0.4-0.2-0.4c-0.2,0-0.2,0.1-0.2,0.4v0.2h-0.6v-0.1
			c0-0.5,0.4-1,0.8-1c0.5,0,0.8,0.4,0.8,0.7c0,0.6-0.1,1-1.1,2.4h1.1v0.5L551.6,1069.3L551.6,1069.3z"/>
		<path fill="#FFFFFF" d="M554.5,1066.5H554v-0.4c0.2-0.1,0.5-0.2,0.7-0.5h0.4v3.6h-0.5v-2.8h-0.1V1066.5z"/>
	</g>
</g>
<g>
	<rect x="532.9" y="1003.3" fill="#FFFFFF" width="5.5" height="6"/>
	<polygon fill="#4A6DB4" points="534.1,1000.9 537.4,1000.9 535.9,1003.6 	"/>
</g>
<g>
	<rect x="546.7" y="1003" fill="#FFFFFF" width="5.5" height="6"/>
	<polygon fill="#4A6DB4" points="547.7,1000.5 551.2,1000.5 549.5,1003.5 	"/>
</g>
<g>
	<rect x="561" y="992" fill="#FFFFFF" width="5.5" height="3.8"/>
	<polygon fill="#4A6DB4" points="565.4,998 562,998 563.6,995.2 	"/>
</g>
<g>
	<rect x="529.2" y="992.7" fill="#FFFFFF" width="5.5" height="3.8"/>
	<polygon fill="#4A6DB4" points="533.6,999.1 530.2,999.1 531.8,996.2 	"/>
</g>
<g>
	<g>
		<path fill="#4A6DB4" d="M540.4,985.3c0.4,0,0.5-0.4,0.5-0.5c0-0.1-0.4-0.5-0.5-0.5s-0.5,0.4-0.5,0.5
			C539.9,984.9,540.1,985.3,540.4,985.3z"/>
		<path fill="#4A6DB4" d="M540.1,985.6c-0.5,0-0.8,0.4-0.8,0.7l-0.4,1.7c0,0.1,0,0.4,0.1,0.4c0.1,0,0.4,0,0.4-0.1l0.4-1.7
			c0-0.1,0.1-0.1,0.1-0.1s0.1,0.1,0,0.1l-0.8,2.6h0.8c0,1,0,1.9,0,1.9c0,0.4,0.1,0.4,0.4,0.4c0,0,0.4,0,0.4-0.4c0-0.4,0-1.9,0-1.9
			c0-0.1,0-0.1,0.1-0.1s0.1,0,0.1,0.1c0,0,0,1.7,0,1.9c0,0.4,0.1,0.4,0.4,0.4c0,0,0.4,0,0.4-0.4c0,0,0-0.8,0-1.9h0.8l-0.8-2.6
			c0-0.1,0-0.1,0-0.1s0.1,0,0.1,0.1l0.4,1.7c0,0.1,0.1,0.1,0.4,0.1c0.2,0,0.1-0.1,0.1-0.4l-0.4-1.7c-0.1-0.4-0.4-0.7-0.8-0.7H540.1z
			"/>
	</g>
</g>
<g>
	<g>
		<path fill="#4A6DB4" d="M556.8,985.2c0.4,0,0.7-0.4,0.7-0.7c0-0.3-0.4-0.7-0.7-0.7c-0.3,0-0.7,0.4-0.7,0.7
			C556.1,984.8,556.3,985.2,556.8,985.2z"/>
	</g>
	<path fill="#4A6DB4" d="M557.6,986.6v1.4c0,0.4,0.1,0.4,0.4,0.4c0.1,0,0.4,0,0.4-0.4v-1.7c0-0.8-0.4-0.8-0.8-0.8h-1
		c-0.7,0-0.8,0.1-0.8,0.8v1.7c0,0.4,0.1,0.4,0.4,0.4c0.1,0,0.4,0,0.4-0.4v-1.4c0-0.1,0.1-0.1,0.1-0.1s0.1,0,0.1,0.1s0,4.4,0,4.4
		c0,0.4,0.4,0.4,0.4,0.4s0.4,0,0.4-0.4s0-2.6,0-2.6s0-0.1,0.1-0.1c0,0,0.1,0,0.1,0.1c0,0,0,2.3,0,2.6c0,0.3,0.4,0.4,0.4,0.4
		s0.4,0,0.4-0.4C557.5,991.1,557.5,986.8,557.6,986.6C557.5,986.6,557.6,986.6,557.6,986.6L557.6,986.6z"/>
</g>
<line fill="none" x1="584.3" y1="1007.5" x2="584.3" y2="962.7"/>
<rect x="579.7" y="1041" fill="#FFFFFF" width="6.9" height="10.4"/>
<polygon fill="#4A6DB4" points="588.6,1044.7 588.6,1048.1 585.6,1046.4 "/>
<g opacity="0.5">
	<polygon fill="#989798" points="871.1,950.4 705.5,950.4 702.9,950.4 702.9,952.1 702.1,952.1 702.1,954.7 702.1,1043.8 
		677,1043.8 677,1083.9 703.7,1083.9 706.3,1083.9 706.3,1081.3 706.3,1080.8 733,1080.8 735.6,1080.8 735.6,1078.2 735.6,1018.4 
		870.9,1018.4 873.5,1018.4 873.5,1015.8 873.5,953.2 873.7,950.4 	"/>
	<rect x="588" y="1043.8" opacity="0.5" fill="#989798" width="89" height="40.1"/>
</g>
<rect x="699.4" y="1089.3" opacity="0.5" fill="#989798" width="31.6" height="70"/>
</svg>
