<?xml version="1.0" encoding="utf-8"?>
<!-- Generator: Adobe Illustrator 19.1.0, SVG Export Plug-In . SVG Version: 6.00 Build 0)  -->
<svg version="1.1" id="Layer_1" xmlns="http://www.w3.org/2000/svg" xmlns:xlink="http://www.w3.org/1999/xlink" x="0px" y="0px"
	 viewBox="0 0 900 600" style="enable-background:new 0 0 900 600;" xml:space="preserve">
<style type="text/css">
	.st0{enable-background:new    ;}
	.st1{fill:#989898;}
	.st2{fill:#FFFFFF;}
	.st3{fill:#4B6DB4;}
	.st4{opacity:0.6;fill:#4B6DB4;enable-background:new    ;}
	.st5{fill:#3A65B0;}
	.st6{fill:#CDCCCC;}
	.st7{fill:#989798;}
	.st8{fill:#4C6EB5;}
</style>
<g class="st0">
	<path class="st1" d="M214.5,185.9v-5h0.8v4.3h1.4v0.7H214.5L214.5,185.9z"/>
	<path class="st1" d="M219.7,184.4H218v0.5c0,0.4,0.1,0.6,0.4,0.6s0.4-0.1,0.4-0.6v-0.1h0.7c0,0.7-0.4,1.4-1.2,1.4s-1.2-0.6-1.2-1.4
		v-1.1c0-0.8,0.4-1.4,1.2-1.4c0.8,0,1.2,0.6,1.2,1.4v0.7H219.7z M218.8,183.5v-0.2c0-0.4-0.1-0.6-0.4-0.6s-0.4,0.1-0.4,0.6v0.2
		H218.8z"/>
	<path class="st1" d="M221.8,182.2h0.7l-0.8,3.7h-0.8l-0.8-3.7h0.7l0.5,2.5l0,0L221.8,182.2z"/>
	<path class="st1" d="M225.5,184.4h-1.7v0.5c0,0.4,0.1,0.6,0.4,0.6s0.4-0.1,0.4-0.6v-0.1h0.7c0,0.7-0.4,1.4-1.2,1.4
		s-1.2-0.6-1.2-1.4v-1.1c0-0.8,0.4-1.4,1.2-1.4c0.8,0,1.2,0.6,1.2,1.4v0.7H225.5z M224.6,183.5v-0.2c0-0.4-0.1-0.6-0.4-0.6
		s-0.4,0.1-0.4,0.6v0.2H224.6z"/>
	<path class="st1" d="M226.2,185.9v-5h0.7v5H226.2z"/>
</g>
<circle class="st1" cx="242" cy="184.9" r="11.7"/>
<g class="st0">
	<path class="st2" d="M240.2,180.9h-2v-1.5c1.2-0.6,2.4-1.2,3.2-2.1h1.4v16.3h-2.6C240.2,193.6,240.2,180.9,240.2,180.9z"/>
</g>
<rect x="399.8" y="313.7" class="st3" width="5.3" height="6.1"/>
<g class="st0">
	<path class="st2" d="M403.6,316.8h-1.7v1.5h1.9v0.5h-2.4v-4.3h2.3v0.5h-1.8v1.4h1.7V316.8z"/>
</g>
<rect x="530.8" y="219" class="st3" width="5.3" height="6.1"/>
<g class="st0">
	<path class="st2" d="M534.3,222.1h-1.7v1.5h1.9v0.5h-2.4v-4.3h2.3v0.5h-1.8v1.4h1.7V222.1L534.3,222.1z"/>
</g>
<rect x="247.3" y="421.7" class="st4" width="0.7" height="3.8"/>
<rect x="246.1" y="421.7" class="st4" width="0.7" height="3.8"/>
<rect x="244.8" y="421.7" class="st4" width="0.7" height="3.8"/>
<rect x="243.8" y="421.7" class="st4" width="0.7" height="3.8"/>
<rect x="242.5" y="421.7" class="st4" width="0.7" height="3.8"/>
<rect x="241.3" y="421.7" class="st4" width="0.7" height="3.8"/>
<rect x="240.2" y="421.7" class="st4" width="0.7" height="3.8"/>
<rect x="253.3" y="422.1" class="st4" width="0.7" height="3.8"/>
<rect x="252.2" y="422.1" class="st4" width="0.7" height="3.8"/>
<rect x="251.1" y="422.1" class="st4" width="0.7" height="3.8"/>
<rect x="249.8" y="422.1" class="st4" width="0.7" height="3.8"/>
<rect x="248.6" y="422.1" class="st4" width="0.7" height="3.8"/>
<rect x="247.3" y="417.3" class="st4" width="0.7" height="3.8"/>
<rect x="246.1" y="417.3" class="st4" width="0.7" height="3.8"/>
<rect x="244.8" y="417.3" class="st4" width="0.7" height="3.8"/>
<rect x="243.8" y="417.3" class="st4" width="0.7" height="3.8"/>
<rect x="242.5" y="417.3" class="st4" width="0.7" height="3.8"/>
<rect x="241.3" y="417.3" class="st4" width="0.7" height="3.8"/>
<rect x="240.2" y="417.3" class="st4" width="0.7" height="3.8"/>
<rect x="253.3" y="417.3" class="st4" width="0.7" height="3.8"/>
<rect x="252.2" y="417.3" class="st4" width="0.7" height="3.8"/>
<rect x="251.1" y="417.3" class="st4" width="0.7" height="3.8"/>
<rect x="249.8" y="417.3" class="st4" width="0.7" height="3.8"/>
<rect x="248.6" y="417.3" class="st4" width="0.7" height="3.8"/>
<rect x="508.8" y="195.6" class="st4" width="5.3" height="0.8"/>
<rect x="508.8" y="194.3" class="st4" width="5.3" height="0.8"/>
<rect x="508.8" y="192.5" class="st4" width="5.3" height="0.8"/>
<rect x="508.8" y="190.8" class="st4" width="5.3" height="0.8"/>
<rect x="508.8" y="189.5" class="st4" width="5.3" height="0.8"/>
<rect x="508.8" y="187.7" class="st4" width="5.3" height="0.8"/>
<rect x="508.8" y="186.4" class="st4" width="5.3" height="0.8"/>
<rect x="508.8" y="203.7" class="st4" width="5.3" height="0.8"/>
<rect x="508.8" y="202.4" class="st4" width="5.3" height="0.8"/>
<rect x="508.8" y="200.7" class="st4" width="5.3" height="0.8"/>
<rect x="508.8" y="198.9" class="st4" width="5.3" height="0.8"/>
<rect x="508.8" y="197.4" class="st4" width="5.3" height="0.8"/>
<rect x="515.1" y="195.6" class="st4" width="5.3" height="0.8"/>
<rect x="515.1" y="194.3" class="st4" width="5.3" height="0.8"/>
<rect x="515.1" y="192.5" class="st4" width="5.3" height="0.8"/>
<rect x="515.1" y="190.8" class="st4" width="5.3" height="0.8"/>
<rect x="515.1" y="189.5" class="st4" width="5.3" height="0.8"/>
<rect x="515.1" y="187.7" class="st4" width="5.3" height="0.8"/>
<rect x="515.1" y="186.4" class="st4" width="5.3" height="0.8"/>
<rect x="515.1" y="203.7" class="st4" width="5.3" height="0.8"/>
<rect x="515.1" y="202.4" class="st4" width="5.3" height="0.8"/>
<rect x="515.1" y="200.7" class="st4" width="5.3" height="0.8"/>
<rect x="515.1" y="198.9" class="st4" width="5.3" height="0.8"/>
<rect x="515.1" y="197.4" class="st4" width="5.3" height="0.8"/>
<rect x="670.5" y="232.4" class="st4" width="5.3" height="0.8"/>
<rect x="670.5" y="230.8" class="st4" width="5.3" height="0.8"/>
<rect x="670.5" y="229.3" class="st4" width="5.3" height="0.8"/>
<rect x="670.5" y="227.6" class="st4" width="5.3" height="0.8"/>
<rect x="670.5" y="226.1" class="st4" width="5.3" height="0.8"/>
<rect x="670.5" y="224.6" class="st4" width="5.3" height="0.8"/>
<rect x="670.5" y="222.9" class="st4" width="5.3" height="0.8"/>
<rect x="670.5" y="240.4" class="st4" width="5.3" height="0.8"/>
<rect x="670.5" y="239.1" class="st4" width="5.3" height="0.8"/>
<rect x="670.5" y="237.3" class="st4" width="5.3" height="0.8"/>
<rect x="670.5" y="235.7" class="st4" width="5.3" height="0.8"/>
<rect x="670.5" y="234.2" class="st4" width="5.3" height="0.8"/>
<rect x="676.6" y="232.4" class="st4" width="5.3" height="0.8"/>
<rect x="676.6" y="230.8" class="st4" width="5.3" height="0.8"/>
<rect x="676.6" y="229.3" class="st4" width="5.3" height="0.8"/>
<rect x="676.6" y="227.6" class="st4" width="5.3" height="0.8"/>
<rect x="676.6" y="226.1" class="st4" width="5.3" height="0.8"/>
<rect x="676.6" y="224.6" class="st4" width="5.3" height="0.8"/>
<rect x="676.6" y="222.9" class="st4" width="5.3" height="0.8"/>
<rect x="676.6" y="240.4" class="st4" width="5.3" height="0.8"/>
<rect x="676.6" y="239.1" class="st4" width="5.3" height="0.8"/>
<rect x="676.6" y="237.3" class="st4" width="5.3" height="0.8"/>
<rect x="676.6" y="235.7" class="st4" width="5.3" height="0.8"/>
<rect x="676.6" y="234.2" class="st4" width="5.3" height="0.8"/>
<rect x="488.2" y="218" class="st4" width="0.7" height="14.5"/>
<rect x="487" y="218" class="st4" width="0.7" height="14.5"/>
<rect x="486" y="218" class="st4" width="0.7" height="14.5"/>
<rect x="484.7" y="218" class="st4" width="0.7" height="14.5"/>
<rect x="483.4" y="218" class="st4" width="0.7" height="14.5"/>
<rect x="482.2" y="218" class="st4" width="0.7" height="14.5"/>
<rect x="480.9" y="218" class="st4" width="0.7" height="14.5"/>
<rect x="494.3" y="218" class="st4" width="0.7" height="14.5"/>
<rect x="493.1" y="218" class="st4" width="0.7" height="14.5"/>
<rect x="492" y="218" class="st4" width="0.7" height="14.5"/>
<rect x="490.7" y="218" class="st4" width="0.7" height="14.5"/>
<rect x="489.5" y="218" class="st4" width="0.7" height="14.5"/>
<rect x="492.3" y="301" class="st4" width="11.7" height="0.7"/>
<rect x="492.3" y="302.2" class="st4" width="11.7" height="0.7"/>
<rect x="492.3" y="303.4" class="st4" width="11.7" height="0.7"/>
<rect x="492.3" y="304.6" class="st4" width="11.7" height="0.7"/>
<rect x="492.3" y="305.7" class="st4" width="11.7" height="0.7"/>
<rect x="538.3" y="332.9" class="st4" width="0.7" height="7.3"/>
<rect x="537.1" y="332.9" class="st4" width="0.7" height="7.3"/>
<rect x="535.9" y="332.9" class="st4" width="0.7" height="7.3"/>
<rect x="534.8" y="332.9" class="st4" width="0.7" height="7.3"/>
<rect x="533.5" y="332.9" class="st4" width="0.7" height="7.3"/>
<rect x="488.2" y="201.2" class="st4" width="0.7" height="14"/>
<rect x="487" y="201.2" class="st4" width="0.7" height="14"/>
<rect x="486" y="201.2" class="st4" width="0.7" height="14"/>
<rect x="484.7" y="201.2" class="st4" width="0.7" height="14"/>
<rect x="483.4" y="201.2" class="st4" width="0.7" height="14"/>
<rect x="482.2" y="201.2" class="st4" width="0.7" height="14"/>
<rect x="480.9" y="201.2" class="st4" width="0.7" height="14"/>
<rect x="494.3" y="201.2" class="st4" width="0.7" height="14"/>
<rect x="493.1" y="201.2" class="st4" width="0.7" height="14"/>
<rect x="492" y="201.2" class="st4" width="0.7" height="14"/>
<rect x="490.7" y="201.2" class="st4" width="0.7" height="14"/>
<rect x="489.5" y="201.2" class="st4" width="0.7" height="14"/>
<path class="st5" d="M599,207.2h3.8v-21h-0.4h-0.2v-0.1v-0.7l0,0v-1h-3h-0.1h-3.8h-0.1h-3.6h-0.4h-3.8h-0.2h-3v0.8
	c0,0.1-0.1,0.1-0.1,0.1l0,0h-0.5v7.5h0.1l0,0c0,0,0,0,0.1,0c0,0,0,0,0.1,0s0.1,0.1,0.1,0.1v6c0,0.1-0.1,0.1-0.1,0.1s0,0-0.1,0
	c0,0,0,0-0.1,0h-0.1v7.5h12.3h0.1v0.1h2.6C598.8,207.3,598.8,207.2,599,207.2z"/>
<path class="st6" d="M571.3,203.2C571.3,203.2,571.3,203,571.3,203.2C571.3,203,571.3,203,571.3,203.2
	C571.3,203,571.3,203,571.3,203.2L571.3,203.2L571.3,203.2L571.3,203.2L571.3,203.2v-2.6l0,0l0,0l0,0l0,0l0,0l0,0c0,0,0,0,0-0.1
	v-0.8c0,0,0,0,0-0.1l0,0l0,0l0,0l0,0l0,0l0,0V197l0,0l0,0l0,0l0,0l0,0l0,0c0,0,0,0,0-0.1V192c0,0,0,0,0-0.1l0,0l0,0l0,0l0,0l0,0l0,0
	v-3.1l0,0l0,0l0,0l0,0l0,0l0,0c0,0,0,0,0-0.1v-4.1h-3.5h-0.1h-3v0.8c0,0.1-0.1,0.1-0.1,0.1l0,0h-1.4c-0.1,0-0.1-0.1-0.1-0.1v-0.8
	h-2.8h-0.4h-3.8H556h-3.5v10h10.2c0.1,0,0.1,0.1,0.1,0.1l0,0v0.7c0,0,0,0,0,0.1l0,0l0,0l0,0l0,0l0,0l0,0v2.6l0,0l0,0l0,0l0,0l0,0
	l0,0c0,0,0,0,0,0.1v9h0.1h5.3v-0.4c0.4-1.2,1.2-2.3,2.5-2.5h0.5l0,0l0,0l0,0l0,0l0,0l0,0L571.3,203.2L571.3,203.2z"/>
<path class="st6" d="M643.6,184.2v0.8l0,0c0,0.1-0.1,0.1-0.1,0.1h-0.4v12.5h4.4l0,0l0,0l0,0l0,0l0,0l0,0l0,0l0,0v-0.5
	c0.4-1.4,1.2-2.1,2.5-2.5h0.4v-10.4h-3.5h-0.1H643.6L643.6,184.2z"/>
<path class="st6" d="M524.7,403.1v10.8h10.2v-19h-8.1v4.9c0,0.1-0.1,0.1-0.1,0.1h-1.8v0.1c0,0.1,0,0.1-0.1,0.1v2.6
	C524.7,403,524.7,403,524.7,403.1z"/>
<path class="st6" d="M520.8,405.2h-11.1v8.6h14.2v-8.6h-0.1c-0.1,0-0.1,0-0.1-0.1L520.8,405.2C521.2,405.1,521,405.2,520.8,405.2z"
	/>
<path class="st6" d="M551.6,184.2h-6.7v0.8c0,0.1-0.1,0.1-0.1,0.1h-1.6v9.7h0.1h0.5c1.2,0.1,2.1,1.2,2.5,2.5l0,0v0.4h5.1
	L551.6,184.2L551.6,184.2z"/>
<path class="st6" d="M270.8,362.4v-3.8v-4.8h-14.6v1.4h2.8l0,0l0,0l0,0l0,0l0,0l0,0l0,0l0,0l0,0l0,0l0,0l0,0v0.7
	c-0.4,1.2-1.2,2.1-2.5,2.5h-0.3v3.8L270.8,362.4C270.8,362.5,270.8,362.4,270.8,362.4z"/>
<path class="st6" d="M561.4,198.2c-1.4-0.4-2.1-1-2.5-2.5l0,0V195l0,0l0,0l0,0l0,0l0,0l0,0H552v1.9v1.7c0,0.1-0.1,0.1-0.1,0.1h-2.7
	v8.3h7.4h3h2.1v-8.7h-0.3V198.2z"/>
<path class="st6" d="M400.4,312.5L400.4,312.5C400.4,312.6,400.4,312.6,400.4,312.5C400.4,312.6,400.4,312.6,400.4,312.5
	L400.4,312.5L400.4,312.5L400.4,312.5l9.1,0.1v-2.7c0-0.1,0.1-0.1,0.1-0.1h0.1v-0.4H405h-0.1h-4.7v0.4l0,0l0,0l0,0c0,0,0,0,0,0.1
	v0.4c0,0.1-0.1,0.1-0.1,0.1l0,0L400.4,312.5L400.4,312.5C400,312.5,400,312.5,400.4,312.5z"/>
<path class="st6" d="M419.5,318.6L419.5,318.6L419.5,318.6L419.5,318.6l0.1-8.6c0,0,0,0,0-0.1l0,0l0,0l0,0v-0.5h-4.7h-0.1h-4.7v0.4
	h0.4h0.5c0.1,0,0.1,0.1,0.1,0.1v5.6h3.8c0.1,0,0.1,0.1,0.1,0.1v6h0.8v-0.4c0.1-1.2,1.2-2.3,2.5-2.5L419.5,318.6L419.5,318.6
	L419.5,318.6C419.4,318.6,419.4,318.6,419.5,318.6z"/>
<path class="st6" d="M387.8,309.4L387.8,309.4h-0.4h-0.1h-0.1H387h-0.1h-0.1h-0.6h0.1h-0.1H386h-0.4h-0.1h-0.1l0,0l-0.1,0.1h-0.4
	c-0.1,0-0.1,0-0.1-0.1h-4.4v0.4l0.1,0.1c0,0.1-0.1,0.1-0.1,0.1l0,0h-0.1h-0.1c-0.1,0-0.1-0.1-0.1-0.1c0-0.1,0-0.1,0.1-0.1v-0.4h-4.7
	c0,0,0,0-0.1,0.1c0,0,0,0-0.1,0h-0.1c-0.1,0-0.1,0-0.1-0.1l0,0h-0.6h-0.1h-0.1h-0.1h-0.1H374h-0.1h0.5h-0.1h-0.1h-0.1H374h-0.4h-0.1
	h-0.1h-0.2h-0.1H373h-0.1h-0.8H372h-0.1h-1h-0.1h-0.3l0,0v0.4l0.1,0.1c0,0.1-0.1,0.1-0.1,0.1h-0.1h-0.2h-0.4c-0.1,0-0.1-0.1-0.1-0.1
	c0-0.1,0-0.1,0.1-0.1v-0.4h-4.4v12.3h0.4v-2.6l0,0l0,0l0,0l0,0l0,0l0,0l0,0l0,0l0,0l0,0h0.1c0,0,0,0,0.1,0h0.4
	c1.2,0.4,2.3,1.2,2.5,2.5v0.4h0.4l0,0c0-0.1,0.1-0.1,0.1-0.1h0.4c0.1,0,0.1,0.1,0.1,0.1l0,0h0.7h0.4l0,0h3h1.8h4.8l0,0h1l0,0h3l0,0
	l0,0h3.5L387.8,309.4L387.8,309.4z"/>
<path class="st6" d="M556.1,220.7L556.1,220.7h-0.4v0.4v0.1h-0.1h-0.4c-0.1,0-0.1-0.1-0.1-0.1v-0.4h-7v11.7l0,0v0.4l0,0v10.5h14.7
	v-0.8v-0.1h0.1h1.7c0.1,0,0.1,0.1,0.1,0.1l0,0v0.8h2.1v-22.9h-6.3v0.4v0.1h-0.1H560c-0.1,0-0.1-0.1-0.1-0.1v-0.4h-0.4
	c-0.1,0-0.1-0.1-0.1-0.1h-2.6C556.5,220.4,556.3,220.7,556.1,220.7z"/>
<path class="st6" d="M520,380.7L520,380.7v2.3c0,0.1-0.1,0.1-0.1,0.1l0,0v2.3l0,0c0.1,0,0.1,0.1,0.1,0.1l0,0h14.9v-5.1h-3L520,380.7
	L520,380.7z"/>
<path class="st5" d="M510.3,344.1C510.3,344.1,510.4,344.1,510.3,344.1h0.4c0.1,0,0.1,0.1,0.1,0.4l-0.8,6.9l0,0l0,0l0,0l0,0l0,0l0,0
	c0,0,0,0-0.1,0l0,0l0,0h-0.4h-0.4l0,0l0,0l0,0l0,0l0,0l0,0l0,0v2.6l0,0l0,0l0,0l0,0l0,0l0,0c0,0,0,0,0,0.1h0.4
	c0.1,0,0.1,0.1,0.1,0.1V379h0.4c0.1,0,0.1,0.1,0.1,0.1v0.4h3c0.1,0,0.1,0.1,0.1,0.1v2.5h6.1v-2.6c0-0.1,0.1-0.1,0.1-0.1h0.7h11.7h3
	v-28.8h-0.1l0,0l0,0c0,0,0,0-0.1,0l0,0l0,0l0,0l0,0l0,0l0,0l-0.8-6.7c0-0.1,0-0.1,0.1-0.4c0.1,0,0.1,0,0.1,0.1l0.1-0.1
	c0.1,0,0.1,0,0.4,0.1l0.4,3.5V343h-25.6v4.7l0.4-3.6C509.9,344.1,510,344.1,510.3,344.1z"/>
<path class="st6" d="M535.1,295.1h-17.4v0.1c0,0.1,0,0.1-0.1,0.1v2.6c0.1,0,0.1,0.1,0.1,0.1v1.7h0.8c0.1,0,0.1,0.1,0.1,0.1v3.8
	c0,0.1-0.1,0.1-0.1,0.1h-0.8v3.4h14h3.4v-4.9v-2.6V295.1L535.1,295.1z"/>
<path class="st6" d="M530.1,388.6C530.1,388.7,530.1,388.7,530.1,388.6l-0.5,0.1c-0.1,0-0.1-0.1-0.1-0.1v-2.3h-6.9v7.4l0,0
	c0.1,0,0.1,0.1,0.1,0.1l0,0h2.6l0,0c0-0.1,0.1-0.1,0.1-0.1h3.8v-2.3c0-0.1,0.1-0.1,0.1-0.1h0.4c0.1,0,0.1,0.1,0.1,0.1v2.3h4.9v-7.4
	h-4.9L530.1,388.6L530.1,388.6z"/>
<path class="st6" d="M673.6,198.6L673.6,198.6v0.7c-0.4,1.2-1.2,2.1-2.5,2.5l0,0h-0.4v5.3h11.4v-8.4L673.6,198.6L673.6,198.6
	L673.6,198.6z"/>
<path class="st6" d="M670.6,194.7C670.6,195,670.6,195,670.6,194.7l-0.1,2.6c0.1,0,0.1,0.1,0.1,0.1v0.1H682v-6.9h-11.4V194.7z"/>
<path class="st6" d="M533,198.8L533,198.8v-13.4h-1.2h-0.1v-0.1v-1h-6.9v13.8h0.1c0.1,0,0.1,0.1,0.1,0.1l0,0l0,0v0.4l0,0
	c0,0.1-0.1,0.1-0.1,0.1l0,0h-0.1v8.3h9.9v-0.1v-0.5c0.1-1.2,1.2-2.3,2.5-2.5h0.4v-5.1h-4.4C533.3,198.8,533.3,198.8,533,198.8z"/>
<path class="st6" d="M671.2,186.8c1.2,0.4,2.3,1.2,2.5,2.5v0.5v0.1h-0.1H671v0.4h11.4v-6H671v2.5H671.2z"/>
<path class="st5" d="M641.9,242.3h0.4v-21.9h-11.6c-0.1,0-0.1-0.1-0.1-0.1l0,0H628c0,0.1-0.1,0.1-0.1,0.1h-4.4v21.8h0.4
	c0.1,0,0.1,0.1,0.1,0.1v0.8h3h0.4h3.6h0.4h3.8h0.1h3.8h0.1h3L641.9,242.3C641.8,242.3,641.9,242.3,641.9,242.3z"/>
<path class="st5" d="M622.2,242.3h0.4v-7.8h-0.1c0,0,0,0-0.1,0c0,0,0,0-0.1,0s-0.1-0.1-0.1-0.1v-6c0-0.1,0.1-0.1,0.1-0.1s0,0,0.1,0
	c0,0,0,0,0.1,0h0.1v-7.8h-11.7c-0.1,0-0.1-0.1-0.1-0.1l0,0H608c0,0.1-0.1,0.1-0.1,0.1h-0.1v7.8h0.1c0,0,0,0,0.1,0c0,0,0,0,0.1,0
	s0.1,0.1,0.1,0.1v6c0,0.1-0.1,0.1-0.1,0.1s0,0-0.1,0c0,0,0,0-0.1,0h-0.1v8.7h3.4l0,0l0,0h0.4l0,0l0,0h3.6h0.4h3.8h0.1h3L622.2,242.3
	C622.1,242.3,622.2,242.3,622.2,242.3z"/>
<path class="st6" d="M542.1,195.1L542.1,195.1C542.2,195.1,542.2,195.1,542.1,195.1C542.2,195.1,542.2,195.1,542.1,195.1
	L542.1,195.1l0.1-10.2c0-0.1,0.1-0.1,0.1-0.1l0,0h0.4v-0.5h-10.5v0.4h1.4l0,0c0.1,0,0.1,0.1,0.1,0.1v13.1h5.1v-0.4
	c0.4-1.2,1.4-2.3,2.5-2.5L542.1,195.1L542.1,195.1L542.1,195.1L542.1,195.1z"/>
<rect x="410.4" y="316.1" class="st6" width="3.8" height="5.5"/>
<path class="st6" d="M660.6,193.2h3.8h2.5c0.1,0,0.1,0,0.1,0.1h2.6c0-0.1,0.1-0.1,0.1-0.1h0.1v-3.4l0,0l0,0v-3l0,0v-2.6h-6.6v0.8
	l0,0v0.1l0,0h-0.1l0,0h-1.6c-0.1,0-0.1-0.1-0.1-0.1l0,0v-0.8h-10.5v9H660.6L660.6,193.2z"/>
<path class="st6" d="M270,312L270,312c-1.4-0.4-2.3-1.2-2.5-2.5v-0.4h-3.6h-1.4v12.5h3.8v-0.4l0,0c0.4-1.4,1.2-2.3,2.5-2.5h0.5l0,0
	l0,0l0,0l0,0l0,0l0,0l0,0l0,0l0,0l0,0l0,0v2.6h0.8v-9.6L270,312L270,312z"/>
<path class="st5" d="M590.9,220.7C590.8,220.7,590.8,220.4,590.9,220.7L590.9,220.7l-2.6-0.1c0,0.1-0.1,0.1-0.1,0.1h-0.1v22.9h3.4
	h0.4h3.6h0.4h3.8h0.1h3v-1l0,0c0-0.1,0.1-0.1,0.1-0.1h1.7c0.1,0,0.1,0.1,0.1,0.1l0,0v0.8h2.6v-23.1h-16.4V220.7L590.9,220.7z"/>
<path class="st5" d="M516.8,295.4v-0.7c0-0.1,0.1-0.1,0.1-0.1h18.2v-49.2h-25.7v0.4c0,0.1-0.1,0.1-0.1,0.1h-0.4l-0.1,2.8h0.4
	c0.1,0,0.1,0.1,0.1,0.1v0.1v58.3h1.2c0.1,0,0.1,0.1,0.1,0.1v0.8c0.1,0,0.1,0.1,0.1,0.1h5.6c0-0.1,0-0.1,0.1-0.1v-10.2
	c0-0.1,0.1-0.1,0.1-0.1L516.8,295.4C516.9,295.4,516.8,295.4,516.8,295.4z"/>
<path class="st6" d="M262,323.2C261.7,323.2,261.7,323,262,323.2l-0.1-0.5h-0.1c-0.1,0-0.1-0.1-0.1-0.1c0-0.1,0-0.1,0.1-0.1v-0.4
	v-0.8v-0.8v-1.2v-0.8v-0.8v-0.8v-0.8v-0.8v-0.4c-0.1,0-0.1-0.1-0.1-0.1c0-0.1,0.1-0.1,0.1-0.1l0,0V310h-9.9v3.8
	c0.1,0,0.1,0.1,0.1,0.1v0.8v0.8v0.8v0.7c0,0.1,0,0.1-0.1,0.1v0.7c0.1,0,0.1,0.1,0.1,0.1v0.1v0.8v0.8v0.8v0.8v0.4
	c0.1,0,0.1,0.1,0.1,0.1c0,0.1-0.1,0.1-0.1,0.1h-0.1v6.3h0.4l0,0h4.9h4.4v-0.8l0,0c0-0.1,0.1-0.1,0.1-0.1h2.3v-0.1h-2.8h-0.1V327
	v-0.1c0.1-1,1.2-2.3,2.5-2.5h0.4v-1v-0.1h-1.9L262,323.2L262,323.2L262,323.2z"/>
<path class="st5" d="M619.1,207.2h3.4v-21.3c0-0.1,0.1-0.1,0.1-0.1c0.1,0,0.1,0.1,0.1,0.1v21.3l0,0v-21.3c0-0.1,0.1-0.1,0.1-0.1l0,0
	h0.4v-1.2h-0.4h0.1h-3.8H619h-3.8H615h-3.6H611h-3.8h-0.1h-2.8v0.8c0,0.1-0.1,0.1-0.1,0.1l0,0H603v0.4h0.4l0,0h0.1v0.1
	c0-0.1,0.1-0.1,0.1-0.1c0.1,0,0.1,0.1,0.1,0.1v21.3h12.5c0.1,0,0.1,0.1,0.1,0.1h2.6C618.9,207.3,619.1,207.2,619.1,207.2z"/>
<path class="st6" d="M430,328.6v12.5v0.4h19v-24.8h-19v9c0,0.1-0.1,0.1-0.1,0.1v2.6C429.9,328.5,430,328.5,430,328.6z"/>
<path class="st6" d="M540.1,243.3L540.1,243.3h2.8v-0.8l0,0c0-0.1,0.1-0.1,0.1-0.1h1.7c0.1,0,0.1,0.1,0.1,0.1l0,0v0.8h2.3v-17.4l0,0
	v-0.4c0-0.1,0.1-0.1,0.1-0.1l0,0v-6h-2.5v0.7l0,0c0,0.1-0.1,0.1-0.1,0.1h-1.7c-0.1,0-0.1-0.1-0.1-0.1l0,0v-0.7l0,0l0,0l0,0l0,0l0,0
	l0,0c0,0,0,0,0-0.1l0,0h-2.6l0,0c0,0.1-0.1,0.1-0.1,0.1H540h-0.4v0.7l0,0c0,0.1-0.1,0.1-0.1,0.1h-0.8l0,0l1.8,1.8l0,0l0,0l0,0l0,0
	l0,0l0,0l0,0l0,0l0,0l0,0l0,0l0,0l-0.5,0.4l0,0l-0.4,0.1l0.4,0.1l0,0l0.5,0.4l0,0l0,0l0,0l0,0l0,0l0,0l0,0l0,0l0,0l0,0l0,0l0,0
	l-1.8,1.8l0,0h3.8c0,0,0,0,0.1,0l0,0l0,0l0,0l0,0l0,0l0,0l0,0l0,0l0,0v0.4c0,0.1-0.1,0.1-0.1,0.1l0,0l0,0h-6.3v17.3h3.8l0,0l0,0
	L540.1,243.3L540.1,243.3z"/>
<path class="st6" d="M449.6,341.5h4.4v-0.1l-0.1-0.1c0-0.1,0.1-0.1,0.1-0.1h0.1h0.1h0.1c0.1,0,0.1,0.1,0.1,0.1c0,0.1,0,0.1-0.1,0.1
	v0.1l33.6,0.1v-24.8h-10l0,0c0,0,0,0-0.1,0l0,0l0,0l0,0l0,0l0,0l0,0h-2.6l0,0l0,0l0,0l0,0l0,0l0,0c0,0,0,0-0.1,0h-17.4
	c0,0,0,0-0.1,0l0,0l0,0l0,0l0,0l0,0l0,0H455l0,0l0,0l0,0l0,0l0,0l0,0c0,0,0,0-0.1,0h-0.1v0.4c0,0.1-0.1,0.1-0.1,0.1h-2.3
	c-0.1,0-0.1-0.1-0.1-0.1v-0.4h-2.1L449.6,341.5L449.6,341.5z"/>
<path class="st6" d="M409.2,333v-3.5h-11.7v1.8c0,0.1-0.1,0.1-0.1,0.1l0,0l0,0h-2.3v1.7L409.2,333L409.2,333z"/>
<path class="st6" d="M420.2,329.3L420.2,329.3L420.2,329.3L420.2,329.3L420.2,329.3L420.2,329.3L420.2,329.3L420.2,329.3l-0.1,4.9
	l0,0v-2.6l0,0l0,0l0,0l0,0l0,0l0,0l0,0l0,0l0,0l0,0h0.1c0,0,0,0,0.1,0h0.4c1.2,0.1,2.1,1.2,2.5,2.5l0,0v0.4h5.7v-4.8h-5.7
	c0,0,0,0-0.1,0l0,0l0,0l0,0l0,0l0,0l0,0L420.2,329.3C420.3,329.3,420.3,329.3,420.2,329.3L420.2,329.3z"/>
<path class="st6" d="M666.9,193.9h-2.5h-3.8h-9.3v0.8c0,0,0,0,0,0.1l0,0l0,0l0,0l0,0l0,0l0,0v2.6l0,0l0,0l0,0l0,0l0,0l0,0
	c0,0,0,0,0,0.1v0.1h0.8c0,0,0,0,0.1,0l0,0l0,0l0,0l0,0l0,0l0,0h2.6c0-0.1,0.1-0.1,0.1-0.1h0.7c0.1,0,0.1,0.1,0.1,0.1l0,0v9h9.9v-0.4
	c0.4-1.2,1.4-2.3,2.5-2.5h0.5h0.1v0.1v2.6h0.8v-5.5l0,0c0-0.1,0.1-0.1,0.1-0.1v-2.6c-0.1,0-0.1-0.1-0.1-0.1l0,0v-0.7l0,0
	c0-0.1,0.1-0.1,0.1-0.1v-2.6c-0.1,0-0.1-0.1-0.1-0.1v-0.8h-0.1c-0.1,0-0.1,0-0.1-0.1L666.9,193.9C667,193.9,667,193.9,666.9,193.9z"
	/>
<path class="st6" d="M293.3,321.6h2.6v-12.3h-0.1h-0.2h-0.1h-0.1h-0.1h-0.1h-0.1h0.1h-0.1H295h-0.5h-0.1h-0.2h-0.1H294h-0.7h-0.1
	h-0.5l0,0h-0.1h-0.1h-0.4H292h-0.1h-0.4v0.4v0.1c0,0.1-0.1,0.1-0.1,0.1l0,0h-0.2l0,0c-0.1,0-0.1-0.1-0.1-0.1v-0.1v-0.4h-4.4
	l-0.1,0.1l0,0h-0.1l0,0c-0.1,0-0.1,0-0.1-0.1h-0.7h-0.1h-0.1h-0.1h-0.1h-0.7h-0.4h-0.1h-0.4h-0.1h0.7v12.3h0.1V319l0,0l0,0l0,0l0,0
	l0,0l0,0l0,0l0,0l0,0l0,0h0.1c0,0,0,0,0.1,0h0.4c1.2,0.4,2.3,1.2,2.5,2.5v0.4h3.4L293.3,321.6L293.3,321.6z"/>
<path class="st6" d="M296.7,318.6L296.7,318.6L296.7,318.6L296.7,318.6C296.7,318.6,296.9,318.6,296.7,318.6L296.7,318.6
	L296.7,318.6L296.7,318.6l0.4-0.1c0,0,0,0,0.1,0h0.4c1.2,0.1,2.3,1.2,2.5,2.5v0.4h2.9h5.1v-12.3h-1.9l-0.1,0.1l0,0l0,0H306l0,0
	c-0.1,0-0.1,0-0.1-0.1l0,0h-0.4h-0.1l0,0h-0.1h-0.1h-0.1h-0.2h-0.1h-0.5h-0.1h-0.1h-0.2h-0.1h-0.1h-0.1h-0.5h-0.2h-0.1h-0.1h-0.1
	h-0.4h-0.3l0,0l0,0h-0.1l0,0l-0.1,0.1l0,0l0,0h-0.1l0,0c-0.1,0-0.1,0-0.1-0.1H297v12.3h-0.3v-2.6h0.1L296.7,318.6L296.7,318.6z"/>
<path class="st5" d="M639,207.2h3.4v-21.6H642h-0.1v-0.1v-1h-3h-0.2h-3.8h-0.1H631l0,0l0,0h-0.5l0,0l0,0h-3.6h-0.4h-2.8v1.7
	c0,0.1-0.1,0.1-0.1,0.1h-0.4v20.9h12.5c0.1,0,0.1,0.1,0.1,0.1h2.6C638.8,207.3,638.8,207.2,639,207.2z"/>
<path class="st6" d="M655.2,201.4L655.2,201.4L655.2,201.4L655.2,201.4L655.2,201.4C654.9,201.4,654.9,201.4,655.2,201.4
	L655.2,201.4L655.2,201.4L655.2,201.4h-0.7c-1.2-0.4-2.3-1.2-2.5-2.5v-0.4h-8.6v8.4h6.3h0.4h0.4h3h1.8L655.2,201.4L655.2,201.4z"/>
<path class="st6" d="M270.8,403L270.8,403l-8.6-0.1l0,0h-3l0,0l0,0l0,0h-3v1.7h2.8l0,0l0,0l0,0l0,0l0,0l0,0l0,0l0,0l0,0l0,0l0,0l0,0
	v0.5c-0.1,1.2-1.2,2.1-2.5,2.5l0,0h-0.4v4.4h14.7v-5.3C270.8,406.9,270.8,403,270.8,403z"/>
<path class="st6" d="M321.3,341.6L321.3,341.6L321.3,341.6h0.4l0,0h0.1l0,0h0.1l0,0h0.1l0,0h0.1l0,0h0.1l0,0h0.4l0,0h0.4l0,0h0.1
	l0,0h-0.4l0,0h0.2l0,0h0.1l0,0h0.1l0,0h0.5l0,0h0.1l0,0h0.4l0,0h0.1l0,0h0.1l0,0h0.1l0,0h-0.1l0,0h0.1l0,0h0.1l0,0h0.1l0,0h0.1l0,0
	l0,0v-0.4v-0.1c0-0.1,0.1-0.1,0.1-0.1l0,0l0,0h0.1l0,0l0,0c0.1,0,0.1,0.1,0.1,0.1v0.1v0.4h5.1l0,0l0,0l0,0c0,0,0,0,0.1,0h0.1l0,0
	l0,0c0,0,0,0,0.1,0l0,0l0,0l0,0l0,0l0,0h0.4l0,0h0.4l0,0h0.4l0,0h0.4l0,0h0.1l0,0h0.1l0,0h0.1v-12.2h-0.1v2.6l0,0l0,0l0,0l0,0l0,0
	l0,0l0,0l0,0c0,0,0,0-0.1,0l0,0l0,0H332c0,0,0,0-0.1,0h-0.2c-1.2-0.4-2.1-1.2-2.5-2.5v-0.4h-8.4
	C321.3,329.3,321.3,341.6,321.3,341.6z"/>
<path class="st6" d="M333.7,341.6L333.7,341.6L333.7,341.6h0.4l0,0h0.1l0,0h0.1l0,0h0.1l0,0h0.1l0,0h0.4l0,0h0.1l0,0h0.1l0,0H335
	l0,0l0,0l0,0l0,0v-0.4l-0.1-0.1c0-0.1,0.1-0.1,0.1-0.1h0.1l0,0h0.1l0,0h0.1c0.1,0,0.1,0.1,0.1,0.1c0,0.1,0,0.1-0.1,0.1v0.4h4.7l0,0
	l0,0l0,0c0,0,0,0,0.1,0l0,0l0,0l0,0c0,0,0,0,0.1,0l0,0l0,0l0,0h0.1l0,0h0.4l0,0h0.4l0,0h0.4l0,0h0.4l0,0h0.4l0,0h0.4l0,0h0.4l0,0
	h0.4l0,0h0.4l0,0h0.1l0,0h0.1l0,0h0.1l0,0h0.1l0,0h0.1l0,0h0.1l0,0h0.1l0,0l0,0v-0.4l0,0l0,0l0,0c0,0,0,0,0-0.1l0,0v-7.9v-2.8v-0.8
	h-0.1v2.6l0,0l0,0l0,0l0,0l0,0l0,0l0,0l0,0c0,0,0,0-0.1,0l0,0l0,0h-0.1c0,0,0,0-0.1,0h-0.5c-1.2-0.4-2.3-1.2-2.5-2.5v-0.4h-8.1v12.2
	L333.7,341.6L333.7,341.6z"/>
<path class="st6" d="M368.7,334.2h3.8v-1.4l0,0l0,0c0,0-0.1,0-0.1-0.1v-0.1c0,0,0,0,0-0.1v-2.6h-3.6c0,0,0,0-0.1,0h-0.1
	c0,0-0.1,0-0.1-0.1v-0.1l0,0H366v4.7l0,0c0.1,0,0.1,0.1,0.1,0.1v0.1v0.5c0.4,1,1,1.9,2.1,2.1h0.4V336c0,0,0,0,0-0.1l0,0l0,0v-0.1
	v-0.1v-1c0,0,0-0.1,0.1-0.1C368.5,334.2,368.7,334.2,368.7,334.2z"/>
<path class="st6" d="M321.6,318.6L321.6,318.6L321.6,318.6L321.6,318.6L321.6,318.6L321.6,318.6L321.6,318.6L321.6,318.6l0.4-0.1
	c0,0,0,0,0.1,0h0.4c1.2,0.4,2.3,1.2,2.5,2.5v0.4h1.2h6.7h2.5v-12.3l0,0h-0.1h-0.2H335h-0.1h-0.5h-0.2H334h-0.1h-0.1h-0.1h-0.1h-0.5
	H333h-0.1h-0.1h-0.1h-0.1h-0.1h-0.1h-0.1l0,0H332h0.1l0,0l0,0H332h-0.8c-0.1,0-0.1,0-0.1-0.1h-4.7v0.4v0.1c0,0.1-0.1,0.1-0.1,0.1
	l0,0l0,0h-0.6l0,0l0,0c-0.1,0-0.1-0.1-0.1-0.1l0,0l0,0h-0.1h-0.4H325h-0.2h-0.4h0.4h-0.1h-0.2h-0.1h-0.2h-0.1H324h-0.3h-0.1h-0.5
	H323l0,0h-0.8h-0.1H322h-0.1h-0.2h-0.1h-0.1h-0.3v12.3h0.1L321.6,318.6L321.6,318.6L321.6,318.6L321.6,318.6z"/>
<path class="st6" d="M352.1,321.6L352.1,321.6C352.1,321.6,352.2,321.6,352.1,321.6l0.8-0.1v-0.4l0,0c0,0,0-0.1,0.1-0.1l0,0l0,0l0,0
	v-2.6l0,0l0,0l0,0l-0.1-0.1l0,0v-9l0,0h-0.1l0,0h-0.1h-0.4h-0.1h-0.1H352h-0.1h-0.2h-0.1h-0.1l0,0h-0.1h-0.1v0.4l0.1,0.1
	c0,0.1-0.1,0.1-0.1,0.1h-0.1l0,0h-0.1l0,0H351c-0.1,0-0.1-0.1-0.1-0.1c0-0.1,0-0.1,0.1-0.1v-0.4h-5.3c0,0,0,0-0.1,0.1c0,0,0,0-0.1,0
	l0,0h-0.1l0,0c-0.1,0-0.1,0-0.1-0.1h-0.1h-0.1h-0.5h-0.1h-0.1h-0.2h-0.4h-0.1h0.7h-0.1h-0.1h-0.1H344h-0.6h-0.1h-0.1h-0.1H343h-0.1
	h-0.5h-0.2h-0.9h-0.1h-0.1H341h-0.1v0.4l0.1,0.1c0,0.1-0.1,0.1-0.1,0.1l0,0l0,0h-0.1l0,0l0,0c-0.1,0-0.1-0.1-0.1-0.1v-0.1v-0.1H336
	v12.3h4.7l0,0h0.4l0,0h1.8l0,0l0,0h3.4l0,0h3.6l0,0l0,0c0.1,0,0.1,0.1,0.1,0.1v0.1L352.1,321.6L352.1,321.6L352.1,321.6z"/>
<path class="st6" d="M259.3,402.1L259.3,402.1L259.3,402.1L259.3,402.1h3l0,0h8.6V402v-3.8v-5.1h-14.7v1.4h2.8l0,0l0,0l0,0l0,0l0,0
	l0,0l0,0l0,0l0,0l0,0l0,0l0,0v0.5c-0.4,1.2-1.2,2.3-2.5,2.5h-0.3v4.3L259.3,402.1L259.3,402.1z"/>
<path class="st6" d="M277.3,321.1v0.4h6.1l0,0l0,0h0.4v-12.3l0,0h-0.1h-0.4h-0.2H283h-0.1h-0.1l0,0h-0.1h-0.1H282h-0.1v0.4l0.1,0.1
	c0,0.1-0.1,0.1-0.1,0.1h-0.1h-0.1h-0.1c-0.1,0-0.1-0.1-0.1-0.1c0-0.1,0-0.1,0.1-0.1v-0.1h-4.5l-0.1,0.1h-0.4h-0.1l0,0l0,0h-0.1h-0.5
	h-0.4h-0.1h0.1l0,0h-0.1h-0.2h-0.7v9.3h0.5C275.9,318.6,277,319.9,277.3,321.1z"/>
<path class="st6" d="M420.5,334.9C420.5,335.1,420.3,335.1,420.5,334.9L420.5,334.9l-0.4,0.1v5.5h9V335h-5.7l0,0
	c-0.1,0-0.1-0.1-0.1-0.1v-0.1L420.5,334.9L420.5,334.9L420.5,334.9L420.5,334.9z"/>
<path class="st5" d="M586.9,220.7h-16.4c-0.1,0-0.1-0.1-0.1-0.1l0,0h-2.1c0,0.1-0.1,0.1-0.1,0.1h-0.5v10.9v1v0.4v10.5h0.1h3.8h0.1
	h3.8h0.4h3.6h0.4h3v-1l0,0c0-0.1,0.1-0.1,0.1-0.1h1.7c0.1,0,0.1,0.1,0.1,0.1l0,0v0.8h2.6L586.9,220.7L586.9,220.7z"/>
<path class="st6" d="M256.3,352.9H271v-6.7v-2.5h-14.7v0.7h2.8h0.1v0.1v0.7c-0.4,1.2-1.2,2.1-2.5,2.5h-0.4v0.5l0,0V352.9
	L256.3,352.9z"/>
<path class="st6" d="M270.8,372.5v-5.1v-3.8v-0.1h-14.6v1.7h2.8l0,0l0,0l0,0l0,0l0,0l0,0l0,0l0,0l0,0l0,0l0,0l0,0v0.5
	c-0.1,1-1.2,2.3-2.5,2.5h-0.3v4.3H270.8L270.8,372.5z"/>
<path class="st6" d="M315.9,321.6h4.7v-12.3h-4.4c0,0,0,0-0.1,0.1c0,0,0,0-0.1,0h-0.4c-0.1,0-0.1,0-0.1-0.1h-0.2h-0.1h-0.1H315h-0.1
	h-0.6h-0.1h-0.4h-0.1h0.5h-0.1H314h-0.1h-0.1h-0.1h-0.5h-0.1H313h-0.1h-0.1h0.1h-0.1h-0.1h-0.1h-0.1l0,0v0.4v0.1
	c0,0.1-0.1,0.1-0.1,0.1l0,0l0,0h-0.1l0,0l0,0h-0.1c-0.1,0-0.1-0.1-0.1-0.1c0-0.1,0-0.1,0.1-0.1v-0.4h-2.3v12.3h0.1V319l0,0l0,0l0,0
	l0,0l0,0l0,0l0,0l0,0l0,0l0,0h0.1c0,0,0,0,0.1,0h0.4c1.2,0.4,2.1,1,2.5,2.5l0,0v0.4h0.5L315.9,321.6L315.9,321.6z"/>
<path class="st5" d="M670.6,222L670.6,222C670.6,221.9,670.6,221.9,670.6,222v-1.7h-0.4H650c-0.1,0-0.1-0.1-0.1-0.1l0,0h-2.6
	c0,0.1-0.1,0.1-0.1,0.1h-3.8v7.8h0.1c0,0,0,0,0.1,0c0,0,0,0,0.1,0s0.1,0.1,0.1,0.1v6c0,0.1-0.1,0.1-0.1,0.1s0,0-0.1,0c0,0,0,0-0.1,0
	h-0.1v7.8h0.4c0.1,0,0.1,0.1,0.1,0.1v0.8h2.8h0.4h3.8h0.1h3.8h0.1h3.8h0.1h3v-0.8c0-0.1,0.1-0.1,0.1-0.1h1.7c0.1,0,0.1,0.1,0.1,0.1
	v0.8h2.8l0,0l0,0l0,0l0,0l0,0l0,0l0,0c0,0,0,0,0.1,0h4.1L670.6,222L670.6,222L670.6,222z"/>
<path class="st6" d="M270.8,392.1V387v-3.8l0,0h-14.6v1.7h2.8l0,0l0,0l0,0l0,0l0,0l0,0l0,0l0,0l0,0l0,0l0,0l0,0v0.5
	c-0.1,1.2-1.2,2.3-2.5,2.5h-0.3v4.3L270.8,392.1L270.8,392.1z"/>
<path class="st6" d="M419.5,340.8v-8.1l0,0l0,0h-0.7c-1.2-0.4-2.1-1.2-2.5-2.5v-0.5h-5.5v11L419.5,340.8L419.5,340.8z"/>
<path class="st6" d="M270.8,382.2L270.8,382.2v-4.1V373h-14.6v1.4h2.8l0,0l0,0l0,0l0,0l0,0l0,0l0,0l0,0l0,0l0,0l0,0l0,0v0.7
	c-0.1,1-1.4,2.3-2.5,2.5h-0.3v4.3L270.8,382.2L270.8,382.2z"/>
<path class="st6" d="M218.1,394v18.3h23.1v-11.7c0-0.1,0.1-0.1,0.1-0.1l0,0h7.9l0,0h-2.5l0,0l0,0l0,0l0,0l0,0l0,0l0,0l0,0l0,0l0,0
	l0,0v-0.1c0,0,0,0,0-0.1v-0.4c0.4-1.2,1.2-2.3,2.5-2.5h0.4v-2.6L218.1,394L218.1,394z"/>
<path class="st6" d="M237.2,377.3h11.7v-7.9v-0.8h-0.4l0,0c-1.2-0.4-2.3-1.4-2.5-2.5v-0.5v-0.1h-9v11.9L237.2,377.3L237.2,377.3
	L237.2,377.3z"/>
<path class="st6" d="M236.5,377.3v-9.1l0,0l0,0c0,0,0,0-0.1,0l0,0l0,0l0,0l0,0h-0.5c-1.2-0.4-2.3-1.2-2.5-2.5v-0.4h-15.3v11.9
	L236.5,377.3L236.5,377.3z"/>
<path class="st6" d="M218.1,345.5v19.3h13.4v-0.4h-2.6l0,0l0,0l0,0l0,0l0,0l0,0l0,0l0,0l0,0l0,0l0,0l0,0l0,0v-0.7l0,0
	c0.4-1.4,1-2.1,2.5-2.5l0,0h0.2v-15.5L218.1,345.5L218.1,345.5z"/>
<path class="st6" d="M241,345.5h-9v14h5.6v-0.4l0,0c0.4-1.4,1.2-2.1,2.5-2.5l0,0h0.5h0.1v0.1v2.6h0.4C241,359.4,241,345.5,241,345.5
	z"/>
<path class="st6" d="M246.3,378.7v-0.5v-0.1h-28.2v15.2h31.3v-10c0,0,0,0,0-0.1v-0.4l0,0v-1.2H249
	C247.6,381.1,246.7,379.9,246.3,378.7z"/>
<path class="st6" d="M574.9,190.7v0.5v0.1h8.1v-6h-0.4l0,0c-0.1,0-0.1-0.1-0.1-0.1l0,0v-0.8h-3h-0.1h-3.6h-0.4h-3.5v3.8
	C573.1,188.2,574.6,189.4,574.9,190.7z"/>
<path class="st6" d="M242.5,318.9v2.1h7.8v-8.4h-7.8v3.4l0,0c0,0.1-0.1,0.1-0.1,0.1l0,0H242h-0.5l0,0v2.5h0.5c0.1,0,0.1,0,0.1,0.1
	L242.5,318.9L242.5,318.9C242.4,318.7,242.5,318.7,242.5,318.9z"/>
<path class="st6" d="M519.4,223.1L519.4,223.1L519.4,223.1L519.4,223.1L519.4,223.1L519.4,223.1L519.4,223.1l-0.1,2.3h4.4
	c0.1,0,0.1,0.1,0.1,0.1l0,0v0.4c0,0.1-0.1,0.1-0.1,0.1h-3.1v17.3h9.9V226h-2.6h-0.1v-0.1v-0.4V220h-2.3l0,0h-1.7l0,0H523v0.4
	c-0.1,1-1.4,2.3-2.5,2.5L519.4,223.1L519.4,223.1L519.4,223.1L519.4,223.1z"/>
<path class="st6" d="M509.5,392.8v1h1.2v-0.4c0.4-1.2,1.2-2.1,2.5-2.5h0.7l0,0l0,0l0,0l0,0l0,0l0,0l0,0l0,0l0,0l0,0l0,0l0,0v3.1l0,0
	h4.7l0,0l0,0h-4.1c-0.1,0-0.1-0.1-0.1-0.1v-7.8h-0.1v7.8c0,0.1-0.1,0.1-0.1,0.1c-0.1,0-0.1-0.1-0.1-0.1v-7.8h-1.7
	c-0.1,0-0.1-0.1-0.1-0.1v-0.4c0-0.1,0.1-0.1,0.1-0.1h1.4v-2.6h-1.2c-0.1,0-0.1-0.1-0.1-0.1v-0.1h-2.8v3l0,0c0.1,0,0.1,0.1,0.1,0.1
	v0.4c0,0.1-0.1,0.1-0.1,0.1l0,0v1c0,0.1-0.1,0.1-0.1,0.1l0,0l-0.1,0.1H509l0,0v5.1h0.5C509.4,392.6,509.5,392.8,509.5,392.8z"/>
<path class="st6" d="M364.7,309.4L364.7,309.4h-0.4h-0.1h-0.1H364h-0.1h-0.1h-0.1l0,0h-0.1h-0.1h-0.1h-0.2h-0.1H363h-0.1h-0.1h-0.1
	h-0.1h-0.1h0.1l0,0h-0.1h-0.3v0.4v0.1c0,0.1-0.1,0.1-0.1,0.1l0,0l0,0H362l0,0l0,0c-0.1,0-0.1-0.1-0.1-0.1v-0.1v-0.4h-4.4
	c0,0,0,0-0.1,0.1c0,0,0,0-0.1,0h-0.1c-0.1,0-0.1,0-0.1-0.1H357h-0.1h-0.1h-0.1h-0.1h-0.1h-1.8h-1v2.1v0.1v4.7v0.1v1.8h0.4
	c1.2,0.1,2.3,1.2,2.5,2.5v0.4c0,0,0,0,0,0.1v0.1l0,0l0,0l0,0l0,0l0,0l0,0l0,0l0,0l0,0l0,0l0,0H354v0.1h3.1h6.9h0.8L364.7,309.4
	L364.7,309.4z"/>
<path class="st6" d="M382.9,330.6h-3.1c0,0,0,0-0.1,0.1v0.1c0,0,0,0-0.1,0.1h-0.1l0,0c0,0,0,0-0.1,0l0,0l0,0l0,0h-3.7v0.8l0,0v1.7
	l0,0l0,0l0,0l0,0v0.1l-0.1,0.1l0,0l0,0v1.4h4.4v-0.4l0,0c0.4-1.2,1.4-2.3,2.5-2.5h0.4c0,0,0,0,0.1,0h0.1l0,0l0,0L382.9,330.6
	L382.9,330.6z"/>
<path class="st6" d="M311.3,329.4h-2.5v12.2h1.9v-0.4l-0.1-0.1c0-0.1,0.1-0.1,0.1-0.1h0.1l0,0h0.1l0,0l0,0c0.1,0,0.1,0.1,0.1,0.1
	v0.1v0.4h0.1l0,0h0.4l0,0h0.1l0,0h0.1l0,0h0.1l0,0h0.1l0,0h-0.1l0,0h0.1l0,0h0.1l0,0h0.1l0,0h0.7l0,0h0.1l0,0h0.1l0,0h0.1l0,0h0.1
	l0,0h0.1l0,0h0.8l0,0h0.1l0,0h0.1l0,0h0.1l0,0h0.6l0,0h0.1l0,0h0.1l0,0h0.1l0,0h0.1l0,0h0.1l0,0l0,0l0,0c0,0,0,0,0.1,0l0,0h-0.7l0,0
	c0,0,0,0,0.1,0l0,0l0,0l0,0h4.4v-12.2h-0.1v2.6l0,0l0,0l0,0l0,0l0,0l0,0l0,0l0,0c0,0,0,0-0.1,0l0,0l0,0l0,0c0,0,0,0-0.1,0h-0.4
	c-1.2-0.1-2.1-1.2-2.5-2.5v-0.4h-1L311.3,329.4L311.3,329.4z"/>
<path class="st6" d="M346,330.3v3v7.9c0,0,0,0,0,0.1l0,0l0,0l0,0v0.4h4.7l0,0l0,0l0,0c0,0,0,0,0.1,0l0,0h0.1l0,0c0,0,0,0,0.1,0l0,0
	l0,0l0,0l0,0l0,0h0.1l0,0h0.1l0,0h0.1l0,0h0.1l0,0h0.1l0,0h0.1l0,0h0.1l0,0h0.1l0,0h0.1l0,0h0.1l0,0l0,0l0,0h0.4l0,0h0.4l0,0h0.4
	l0,0h0.4l0,0h0.4l0,0h0.4l0,0h0.1l0,0l0,0l0,0l0,0c0,0,0,0,0.1,0h0.1c0,0,0,0,0.1,0l0,0l0,0l0,0h4.4v-0.4l0,0l0,0v-3.4h-1.7l0,0l0,0
	l0,0c0,0,0,0-0.1,0l0,0l0,0c0,0,0,0-0.1,0v-0.1l0,0l0,0l0,0l0,0v-1.7l0,0l0,0l0,0l0,0l0,0l0.1-0.1l0,0l0,0l0,0l0,0h1.7l0,0v-6.3H358
	h-3h-5.7v0.4c-0.4,1.4-1.2,2.3-2.5,2.5h-0.3c0,0,0,0-0.1,0h-0.1l0,0l0,0c0,0,0,0-0.1,0l0,0l0,0l0,0l0,0l0,0l0,0l0,0l0,0V330h-0.1
	v0.7l0,0v-0.4H346L346,330.3z"/>
<path class="st6" d="M571.9,195.9h0.4c1.2,0.4,2.1,1.2,2.5,2.5v0.5l0,0l0,0l0,0l0,0l0,0l0,0l0,0l0,0h8.3v-7.3h-11L571.9,195.9
	L571.9,195.9z"/>
<path class="st6" d="M360.9,341.2h11.6v-3.1h-1.4c-0.1,0-0.1-0.1-0.1-0.1l0,0c0-0.1,0.1-0.1,0.1-0.1h1.4v-2.8h-3.6v2.6l0,0l0,0l0,0
	l0,0l0,0l0,0l0,0l0,0c0,0,0,0-0.1,0l0,0l0,0l0,0l0,0h-0.4c-1.4-0.4-2.1-1.2-2.5-2.5v-0.4h-0.2c-0.1,0-0.1-0.1-0.1-0.1v-4.9h-1.1v0.4
	c-0.4,1.4-1.2,2.3-2.5,2.5h-0.5l0,0h-0.1L360.9,341.2L360.9,341.2z"/>
<path class="st6" d="M284.2,329.4v12.2h0.1l0,0h0.1l0,0h0.1l0,0h0.1l0,0h0.1l0,0h0.1l0,0h0.5l0,0h0.1l0,0h0.1l0,0h0.1l0,0h0.1l0,0
	l0,0l0,0l0,0l0,0c0,0,0,0,0.1,0l0,0h-0.4l0,0c0,0,0,0,0.1,0l0,0l0,0l0,0h4.7v-0.4v-0.1c0-0.1,0.1-0.1,0.1-0.1l0,0l0,0l0,0h0.1l0,0
	l0,0l0,0c0.1,0,0.1,0.1,0.1,0.1v0.1v0.4h0.1l0,0h-0.1l0,0h0.1l0,0h0.1l0,0h0.6l0,0h0.1l0,0h0.1l0,0h0.1l0,0h0.1l0,0h0.4l0,0h1.7l0,0
	h0.4l0,0h0.1l0,0h0.4l0,0h0.4l0,0h0.4l0,0h0.4v-12.2h-0.1v2.6l0,0l0,0l0,0l0,0l0,0l0,0l0,0l0,0c0,0,0,0-0.1,0l0,0l0,0h-0.1
	c0,0,0,0-0.1,0h-0.4c-1.2-0.4-2.1-1.2-2.5-2.5v-0.4h-2.4L284.2,329.4L284.2,329.4z"/>
<path class="st6" d="M296.5,341.6h4.4v-0.4l-0.1-0.1c0-0.1,0.1-0.1,0.1-0.1h0.1l0,0h0.1l0,0h0.1c0.1,0,0.1,0.1,0.1,0.1
	c0,0.1,0,0.1-0.1,0.1v0.4h0.1l0,0h0.4l0,0h0.1l0,0h0.4l0,0h0.1l0,0h0.1l0,0h0.1l0,0h0.4l0,0h0.1l0,0h0.1l0,0h0.1l0,0h0.1l0,0h0.1
	l0,0H303l0,0l0,0l0,0h0.1l0,0h0.1l0,0h0.1l0,0h0.4l0,0h0.4l0,0h0.5l0,0h0.4l0,0l0,0l0,0c0,0,0,0,0.1,0l0,0h0.1l0,0c0,0,0,0,0.1,0
	l0,0l0,0l0,0h1.9v-12.2h0.5v2.6l0,0l0,0l0,0l0,0l0,0l0,0l0,0l0,0c0,0,0,0-0.1,0l0,0l0,0h-0.1c0,0,0,0-0.1,0H307
	c-1.2-0.4-2.1-1.2-2.5-2.5l0,0v-0.4h-8V341.6l-0.1-0.1L296.5,341.6L296.5,341.6z"/>
<path class="st6" d="M510.9,394.6L510.9,394.6L510.9,394.6c0,0.4-0.1,0.4-0.1,0.4l0,0h-1.2v9.6h11c0.1,0,0.1,0,0.1,0.1h2.6
	c0-0.1,0.1-0.1,0.1-0.1h0.1v-1.4c0-0.1,0-0.1,0.1-0.1v-2.6c-0.1,0-0.1-0.1-0.1-0.1v-0.7c0-0.1,0.1-0.1,0.1-0.1h1.8v-4.4l0,0v2.6l0,0
	l0,0l0,0l0,0l0,0l0,0l0,0l0,0c0,0,0,0-0.1,0l0,0l0,0l0,0l0,0h-0.5l0,0c-1.4-0.4-2.3-1.2-2.5-2.5v-0.4h-0.7c-0.1,0-0.1-0.1-0.1-0.1
	v-0.1l0,0h-2.6l0,0v0.1c0,0.1-0.1,0.1-0.1,0.1h-4.9c-0.1,0-0.1-0.1-0.1-0.1v-0.1l0,0L510.9,394.6L510.9,394.6z"/>
<path class="st6" d="M521.4,394C521.4,394,521.7,394,521.4,394L521.4,394l0.1-7.5H515v7.4h3.6c0.1,0,0.1,0.1,0.1,0.1l0,0H521.4
	L521.4,394L521.4,394z"/>
<path class="st6" d="M246.1,328.2C246.1,328.2,246.3,328.2,246.1,328.2l1.4-0.1l0,0l0,0l0,0v-1.7l0,0l0,0v-0.1c0,0,0-0.1,0.1-0.1
	h0.1l0,0l0,0h1.4l0,0l0,0h0.1c0,0,0.1,0,0.1,0.1v0.1l0,0l0,0v1.7l0,0l0,0l0,0h1.1v-2.6h-0.2c-0.1,0-0.1-0.1-0.1-0.1V322h-7.9v6.9
	h0.1v-2.8V326h0.1h0.5c1.2,0.4,2.3,1.2,2.5,2.5v0.4h0.4L246.1,328.2L246.1,328.2z"/>
<path class="st6" d="M249.3,351.8v-3l0,0v-6h-7.4v16.5h7.4l0,0h-2.8l0,0l0,0l0,0l0,0l0,0l0,0l0,0l0,0l0,0l0,0l0,0l0,0l0,0v-0.5
	c0.4-1.2,1.2-2.3,2.5-2.5h0.4L249.3,351.8L249.3,351.8z"/>
<path class="st6" d="M239,319.3L239,319.3L239,319.3L239,319.3C238.9,319.3,238.9,319.3,239,319.3L239,319.3
	C238.9,319.3,238.9,319.3,239,319.3C238.9,319.3,238.9,319.3,239,319.3L239,319.3L239,319.3L239,319.3L239,319.3l-0.1-0.4l0,0v-0.4
	l0,0c0.4-1.2,1-2.1,2.1-2.5v-6.9h-22.9v35.3H241v-3.5h-2.6l0,0l0,0l0,0l0,0l0,0l0,0l0,0l0,0l0,0l0,0l0,0l0,0l0,0v-0.5
	c0.4-1.2,1.2-2.3,2.5-2.5h0.4v-18.6H239L239,319.3z"/>
<path class="st6" d="M382.4,329.9h-9.2v0.1v0.1h1.4l0,0l0,0h0.4h7.4L382.4,329.9L382.4,329.9L382.4,329.9z"/>
<path class="st6" d="M374.4,340.8L374.4,340.8c0.1,0,0.4,0,0.4,0.1v-10h-0.4V340.8L374.4,340.8z"/>
<path class="st7" d="M488.9,306.7v34.9H271.7v71.7h-55.2v-71.7h-1.7v-34.9H488.9 M491.6,303.8h-2.7H215h-2.9v2.6v34.9v2.6h1.8V413
	v2.6h2.6h55.2h2.6V413v-69.1h214.4h2.6v-2.6v-34.9L491.6,303.8L491.6,303.8z"/>
<path class="st7" d="M682.1,182.3v62.6H535.9v62.6h-28.3V184.1h0.8v-1.7L682.1,182.3 M684.8,179.4h-2.6H508.5h-2.6v1.7h-0.8v2.6
	v123.5v2.6h2.6H536h2.6v-2.6v-59.8H682h2.6v-2.6v-62.6L684.8,179.4L684.8,179.4z"/>
<path class="st7" d="M536.5,343.4v72.7h-29.3v-72.7H536.5 M539.2,340.8h-2.6h-29.2h-2.6v2.6v72.7v2.6h2.6h29.2h2.6v-2.6v-72.7V340.8
	L539.2,340.8z"/>
<g class="st0">
	<path class="st2" d="M590.8,194.5h-0.5v-0.4c0.2-0.1,0.5-0.2,0.7-0.5h0.4v3.6h-0.5v-2.7H590.8z"/>
	<path class="st2" d="M593,194.5h-0.5v-0.4c0.2-0.1,0.5-0.2,0.7-0.5h0.4v3.6h-0.5v-2.7H593z"/>
	<path class="st2" d="M594.6,197.4v-0.5c0.7-1.1,1.2-1.8,1.2-2.3c0-0.2-0.1-0.4-0.2-0.4c-0.2,0-0.2,0.1-0.2,0.4v0.2h-0.6v-0.1
		c0-0.5,0.4-1,0.8-1c0.5,0,0.8,0.4,0.8,0.7c0,0.6-0.1,1-1.1,2.4h1.1v0.5L594.6,197.4L594.6,197.4z"/>
	<path class="st2" d="M597.5,196.2v0.2c0,0.2,0.1,0.4,0.2,0.4s0.2-0.1,0.2-0.4v-0.2c0-0.4-0.1-0.5-0.5-0.5v-0.5
		c0.4,0,0.5-0.1,0.5-0.5s-0.1-0.5-0.2-0.5c-0.1,0-0.2,0.1-0.2,0.4v0.1H597v-0.1c0-0.5,0.2-0.8,0.8-0.8c0.5,0,0.7,0.5,0.7,0.8
		c0,0.4-0.1,0.6-0.4,0.8c0.4,0.2,0.5,0.4,0.5,0.8c0,0.7-0.2,1-0.8,1c-0.5,0-0.8-0.2-0.8-0.8v-0.2L597.5,196.2L597.5,196.2z"/>
</g>
<g class="st0">
	<path class="st2" d="M609.5,194.5H609v-0.4c0.2-0.1,0.5-0.2,0.7-0.5h0.4v3.6h-0.5v-2.7H609.5z"/>
	<path class="st2" d="M611.8,194.5h-0.5v-0.4c0.2-0.1,0.5-0.2,0.7-0.5h0.4v3.6h-0.5v-2.7H611.8z"/>
	<path class="st2" d="M613.5,197.4v-0.5c0.7-1.1,1.2-1.8,1.2-2.3c0-0.2-0.1-0.4-0.2-0.4c-0.2,0-0.2,0.1-0.2,0.4v0.2h-0.6v-0.1
		c0-0.5,0.4-1,0.8-1c0.5,0,0.8,0.4,0.8,0.7c0,0.6-0.1,1-1.1,2.4h1.1v0.5L613.5,197.4L613.5,197.4z"/>
	<path class="st2" d="M615.7,194.3v-0.5h1.7v0.4l-0.7,3.2h-0.6l0.7-3.1H615.7z"/>
</g>
<g class="st0">
	<path class="st2" d="M628.5,194.5H628v-0.4c0.2-0.1,0.5-0.2,0.7-0.5h0.4v3.6h-0.5v-2.7H628.5z"/>
	<path class="st2" d="M630.6,194.5h-0.5v-0.4c0.2-0.1,0.5-0.2,0.7-0.5h0.4v3.6h-0.5v-2.7H630.6z"/>
	<path class="st2" d="M632.7,196.2v0.2c0,0.2,0.1,0.4,0.2,0.4c0.1,0,0.2-0.1,0.2-0.4v-0.2c0-0.4-0.1-0.5-0.5-0.5v-0.5
		c0.4,0,0.5-0.1,0.5-0.5s-0.1-0.5-0.2-0.5c-0.1,0-0.2,0.1-0.2,0.4v0.1h-0.5v-0.1c0-0.5,0.2-0.8,0.8-0.8c0.5,0,0.7,0.5,0.7,0.8
		c0,0.4-0.1,0.6-0.4,0.8c0.4,0.2,0.5,0.4,0.5,0.8c0,0.7-0.2,1-0.8,1c-0.5,0-0.8-0.2-0.8-0.8v-0.2L632.7,196.2L632.7,196.2z"/>
	<path class="st2" d="M635,196.2v0.2c0,0.2,0.1,0.4,0.2,0.4c0.1,0,0.2-0.1,0.2-0.4v-0.2c0-0.4-0.1-0.5-0.5-0.5v-0.5
		c0.4,0,0.5-0.1,0.5-0.5s-0.1-0.5-0.2-0.5c-0.1,0-0.2,0.1-0.2,0.4v0.1h-0.5v-0.1c0-0.5,0.2-0.8,0.8-0.8c0.5,0,0.7,0.5,0.7,0.8
		c0,0.4-0.1,0.6-0.4,0.8c0.4,0.2,0.5,0.4,0.5,0.8c0,0.7-0.2,1-0.8,1c-0.5,0-0.8-0.2-0.8-0.8v-0.2L635,196.2L635,196.2z"/>
</g>
<g class="st0">
	<path class="st2" d="M611.3,231.7h-0.5v-0.4c0.2-0.1,0.5-0.2,0.7-0.5h0.4v3.6h-0.5v-2.8h-0.1L611.3,231.7L611.3,231.7z"/>
	<path class="st2" d="M613.5,231.7H613v-0.4c0.2-0.1,0.5-0.2,0.7-0.5h0.4v3.6h-0.5v-2.8h-0.1L613.5,231.7L613.5,231.7z"/>
	<path class="st2" d="M615,234.5V234c0.7-1.1,1.2-1.8,1.2-2.3c0-0.2-0.1-0.4-0.2-0.4c-0.2,0-0.2,0.1-0.2,0.4v0.2h-0.6v-0.1
		c0-0.5,0.4-1,0.8-1c0.4,0,0.8,0.4,0.8,0.7c0,0.6-0.1,1-1.1,2.4h1.1v0.5L615,234.5L615,234.5z"/>
	<path class="st2" d="M618.5,231.8L618.5,231.8c0-0.3-0.1-0.5-0.2-0.5c-0.1,0-0.2,0.1-0.2,0.4v0.8c0.1-0.1,0.2-0.2,0.5-0.2
		c0.4,0,0.6,0.2,0.6,0.7v0.4c0,0.7-0.2,1.1-0.8,1.1s-0.8-0.2-0.8-1v-1.8c0-0.6,0.2-1,0.8-1c0.5,0,0.7,0.4,0.7,0.7v0.2L618.5,231.8
		L618.5,231.8z M617.9,233.7c0,0.2,0.1,0.4,0.2,0.4c0.1,0,0.2-0.1,0.2-0.4v-0.6c0-0.2-0.1-0.4-0.2-0.4s-0.2,0.1-0.4,0.1v0.8
		L617.9,233.7L617.9,233.7z"/>
</g>
<g class="st0">
	<path class="st2" d="M574.3,231.7h-0.5v-0.4c0.2-0.1,0.5-0.2,0.7-0.5h0.4v3.6h-0.5v-2.8h-0.1L574.3,231.7L574.3,231.7z"/>
	<path class="st2" d="M576.5,231.7H576v-0.4c0.2-0.1,0.5-0.2,0.7-0.5h0.4v3.6h-0.5v-2.8h-0.1L576.5,231.7L576.5,231.7z"/>
	<path class="st2" d="M578.8,231.7h-0.6v-0.4c0.2-0.1,0.5-0.2,0.7-0.5h0.4v3.6h-0.5v-2.8h-0.1L578.8,231.7L578.8,231.7z"/>
	<path class="st2" d="M581.4,231.8L581.4,231.8c0-0.3-0.1-0.5-0.2-0.5c-0.1,0-0.2,0.1-0.2,0.4v0.8c0.1-0.1,0.2-0.2,0.5-0.2
		c0.4,0,0.6,0.2,0.6,0.7v0.4c0,0.7-0.2,1.1-0.8,1.1s-0.8-0.2-0.8-1v-1.8c0-0.6,0.2-1,0.8-1c0.5,0,0.7,0.4,0.7,0.7v0.2L581.4,231.8
		L581.4,231.8z M580.9,233.7c0,0.2,0.1,0.4,0.2,0.4c0.1,0,0.2-0.1,0.2-0.4v-0.6c0-0.2-0.1-0.4-0.2-0.4c-0.1,0-0.2,0.1-0.4,0.1v0.8
		L580.9,233.7L580.9,233.7z"/>
</g>
<g class="st0">
	<path class="st2" d="M517.4,268.4h-0.5V268c0.2-0.1,0.5-0.2,0.7-0.5h0.4v3.6h-0.5v-2.8h-0.1L517.4,268.4L517.4,268.4z"/>
	<path class="st2" d="M519.1,271.2v-0.5c0.7-1.1,1.2-1.8,1.2-2.3c0-0.2-0.1-0.4-0.2-0.4c-0.2,0-0.2,0.1-0.2,0.4v0.2h-0.6v-0.1
		c0-0.5,0.4-1,0.8-1s0.8,0.4,0.8,0.7c0,0.6-0.1,1-1.1,2.4h1.1v0.5L519.1,271.2L519.1,271.2z"/>
	<path class="st2" d="M521.3,268.6c0-0.6,0.2-1,0.8-1s0.8,0.2,0.8,1v1.8c0,0.6-0.2,1-0.8,1s-0.8-0.2-0.8-1V268.6z M522.4,268.4
		c0-0.2-0.1-0.4-0.2-0.4c-0.1,0-0.2,0.1-0.2,0.4v2c0,0.2,0.1,0.4,0.2,0.4c0.1,0,0.2-0.1,0.2-0.4V268.4z"/>
	<path class="st2" d="M523.9,269.3c-0.2-0.1-0.4-0.5-0.4-0.7c0-0.7,0.4-1,0.8-1c0.5,0,0.8,0.4,0.8,1c0,0.2-0.1,0.5-0.4,0.7
		c0.2,0.2,0.4,0.5,0.4,0.8c0,0.6-0.2,1-0.8,1s-0.8-0.4-0.8-1C523.6,269.7,523.6,269.5,523.9,269.3z M524.7,270.3
		c0-0.4-0.1-0.6-0.4-0.6c-0.2,0-0.4,0.2-0.4,0.6s0.1,0.6,0.4,0.6C524.6,270.9,524.7,270.6,524.7,270.3z M524.7,268.6
		c0-0.4-0.1-0.5-0.2-0.5c-0.1,0-0.2,0.1-0.2,0.5s0.1,0.5,0.2,0.5S524.7,268.8,524.7,268.6z"/>
</g>
<g class="st0">
	<path class="st2" d="M517.4,358.5h-0.5v-0.4c0.2-0.1,0.5-0.2,0.7-0.5h0.4v3.6h-0.5v-2.8h-0.1L517.4,358.5L517.4,358.5z"/>
	<path class="st2" d="M519.1,361.4v-0.5c0.7-1.1,1.2-1.8,1.2-2.3c0-0.2-0.1-0.4-0.2-0.4c-0.2,0-0.2,0.1-0.2,0.4v0.2h-0.6v-0.1
		c0-0.5,0.4-1,0.8-1s0.8,0.4,0.8,0.7c0,0.6-0.1,1-1.1,2.4h1.1v0.5L519.1,361.4L519.1,361.4z"/>
	<path class="st2" d="M521.9,358.5h-0.5v-0.4c0.2-0.1,0.5-0.2,0.7-0.5h0.4v3.6H522v-2.8h-0.1V358.5L521.9,358.5z"/>
	<path class="st2" d="M523.5,361.4v-0.5c0.7-1.1,1.2-1.8,1.2-2.3c0-0.2-0.1-0.4-0.2-0.4c-0.2,0-0.2,0.1-0.2,0.4v0.2h-0.6v-0.1
		c0-0.5,0.4-1,0.8-1s0.8,0.4,0.8,0.7c0,0.6-0.1,1-1.1,2.4h1.1v0.5L523.5,361.4L523.5,361.4z"/>
</g>
<g class="st0">
	<path class="st2" d="M593.6,231.7h-0.5v-0.4c0.2-0.1,0.5-0.2,0.7-0.5h0.4v3.6h-0.5v-2.8h-0.1L593.6,231.7L593.6,231.7z"/>
	<path class="st2" d="M595.9,231.7h-0.5v-0.4c0.2-0.1,0.5-0.2,0.7-0.5h0.4v3.6H596v-2.8h-0.1V231.7L595.9,231.7z"/>
	<path class="st2" d="M597.5,234.5V234c0.7-1.1,1.2-1.8,1.2-2.3c0-0.2-0.1-0.4-0.2-0.4c-0.2,0-0.2,0.1-0.2,0.4v0.2h-0.6v-0.1
		c0-0.5,0.4-1,0.8-1c0.4,0,0.8,0.4,0.8,0.7c0,0.6-0.1,1-1.1,2.4h1.1v0.5L597.5,234.5L597.5,234.5z"/>
	<path class="st2" d="M599.7,234.5V234c0.7-1.1,1.2-1.8,1.2-2.3c0-0.2-0.1-0.4-0.2-0.4c-0.2,0-0.2,0.1-0.2,0.4v0.2h-0.6v-0.1
		c0-0.5,0.4-1,0.8-1c0.5,0,0.8,0.4,0.8,0.7c0,0.6-0.1,1-1.1,2.4h1.1v0.5L599.7,234.5L599.7,234.5z"/>
</g>
<g class="st0">
	<path class="st2" d="M630.1,231.7h-0.5v-0.4c0.2-0.1,0.5-0.2,0.7-0.5h0.4v3.6h-0.5v-2.8h-0.1L630.1,231.7L630.1,231.7z"/>
	<path class="st2" d="M632.4,231.7h-0.5v-0.4c0.2-0.1,0.5-0.2,0.7-0.5h0.4v3.6h-0.6L632.4,231.7L632.4,231.7z"/>
	<path class="st2" d="M634.5,233.5v0.2c0,0.2,0.1,0.4,0.2,0.4c0.1,0,0.2-0.1,0.2-0.4v-0.2c0-0.4-0.1-0.5-0.5-0.5v-0.5
		c0.4,0,0.5-0.1,0.5-0.5s-0.1-0.5-0.2-0.5c-0.1,0-0.2,0.1-0.2,0.4v0.1H634v-0.1c0-0.5,0.2-0.8,0.8-0.8c0.5,0,0.7,0.5,0.7,0.8
		s-0.1,0.6-0.4,0.8c0.4,0.2,0.5,0.4,0.5,0.8c0,0.7-0.2,1-0.8,1c-0.5,0-0.8-0.2-0.8-0.8v-0.2L634.5,233.5L634.5,233.5z"/>
	<path class="st2" d="M636.2,234.5V234c0.7-1.1,1.2-1.8,1.2-2.3c0-0.2-0.1-0.4-0.2-0.4c-0.2,0-0.2,0.1-0.2,0.4v0.2h-0.7v-0.1
		c0-0.5,0.4-1,0.8-1s0.8,0.4,0.8,0.7c0,0.6-0.1,1-1.1,2.4h1.1v0.5L636.2,234.5L636.2,234.5z"/>
</g>
<g class="st0">
	<path class="st2" d="M651.6,231.7h-0.5v-0.4c0.2-0.1,0.5-0.2,0.7-0.5h0.4v3.6h-0.5v-2.8h-0.1L651.6,231.7L651.6,231.7z"/>
	<path class="st2" d="M653.9,231.7h-0.5v-0.4c0.2-0.1,0.5-0.2,0.7-0.5h0.4v3.6H654v-2.8h-0.1V231.7L653.9,231.7z"/>
	<path class="st2" d="M656,233.5v0.2c0,0.2,0.1,0.4,0.2,0.4s0.2-0.1,0.2-0.4v-0.2c0-0.4-0.1-0.5-0.5-0.5v-0.5c0.4,0,0.5-0.1,0.5-0.5
		s-0.1-0.5-0.2-0.5c-0.1,0-0.2,0.1-0.2,0.4v0.1h-0.5v-0.1c0-0.5,0.2-0.8,0.8-0.8c0.5,0,0.7,0.5,0.7,0.8s-0.1,0.6-0.4,0.8
		c0.4,0.2,0.5,0.4,0.5,0.8c0,0.7-0.2,1-0.8,1c-0.5,0-0.8-0.2-0.8-0.8v-0.2L656,233.5L656,233.5z"/>
	<path class="st2" d="M658.9,231.8L658.9,231.8c0-0.3-0.1-0.5-0.2-0.5c-0.1,0-0.2,0.1-0.2,0.4v0.8c0.1-0.1,0.2-0.2,0.5-0.2
		c0.4,0,0.6,0.2,0.6,0.7v0.4c0,0.7-0.2,1.1-0.8,1.1s-0.8-0.2-0.8-1v-1.8c0-0.6,0.2-1,0.8-1c0.5,0,0.7,0.4,0.7,0.7v0.2L658.9,231.8
		L658.9,231.8z M658.3,233.7c0,0.2,0.1,0.4,0.2,0.4c0.1,0,0.2-0.1,0.2-0.4v-0.6c0-0.2-0.1-0.4-0.2-0.4c-0.1,0-0.2,0.1-0.4,0.1v0.8
		L658.3,233.7L658.3,233.7z"/>
</g>
<rect x="678.9" y="210.4" class="st2" width="6.9" height="10.4"/>
<polygon class="st8" points="687.7,213.9 687.7,217.2 684.8,215.7 "/>
<rect x="502.7" y="210.3" class="st2" width="6.9" height="10.4"/>
<polygon class="st8" points="500.5,216.9 500.5,213.4 503.4,215.2 "/>
<rect x="503.9" y="246" class="st2" width="6.9" height="2.1"/>
<polygon class="st8" points="500.5,248.7 500.5,245.5 503.4,247.2 "/>
<rect x="512.2" y="305.7" class="st2" width="2.1" height="6.9"/>
<polygon class="st8" points="515.1,315.9 511.8,315.9 513.6,313.1 "/>
<rect x="486.4" y="326.3" class="st2" width="6.9" height="2.1"/>
<polygon class="st8" points="496.5,325.9 496.6,329.1 493.7,327.5 "/>
<rect x="500.5" y="352.2" class="st2" width="6.9" height="2.1"/>
<polygon class="st8" points="497.3,355 497.3,351.7 500.3,353.2 "/>
<rect x="500.5" y="380.4" class="st2" width="6.9" height="2.1"/>
<polygon class="st8" points="497.3,383.1 497.3,379.8 500.3,381.6 "/>
<g>
	<path class="st8" d="M542.1,230.7c-0.4,0-0.5-0.4-0.5-0.5c0-0.4,0.4-0.5,0.5-0.5s0.5,0.4,0.5,0.5
		C542.6,230.2,542.2,230.7,542.1,230.7z"/>
	<path class="st8" d="M542.2,230.8c0.5,0,0.8,0.4,0.8,0.7l0.4,1.7c0,0.1,0,0.4-0.1,0.4s-0.4,0-0.4-0.1l-0.1-1.4
		c0-0.1-0.1-0.1-0.1-0.1c-0.1,0-0.1,0.1,0,0.1l0.8,2.6h-0.8c0,1,0,1.9,0,1.9c0,0.4-0.1,0.4-0.4,0.4c0,0-0.4,0-0.4-0.4s0-1.9,0-1.9
		c0-0.1,0-0.1-0.1-0.1s-0.1,0-0.1,0.1c0,0,0,1.7,0,1.9s-0.1,0.4-0.4,0.4c0,0-0.4,0-0.4-0.4c0,0,0-0.8,0-1.9h-0.8l0.8-2.6
		c0-0.1,0-0.1,0-0.1c-0.1,0-0.1,0-0.1,0.1l-0.4,1.7c0,0.1-0.1,0.1-0.4,0.1c-0.1,0-0.1-0.1-0.1-0.4l0.4-1.7c0.1-0.4,0.4-0.7,0.8-0.7
		h1.2v-0.2L542.2,230.8L542.2,230.8z"/>
</g>
<g>
	<path class="st8" d="M525.6,230.4c-0.4,0-0.7-0.4-0.7-0.7c0-0.4,0.4-0.7,0.7-0.7c0.4,0,0.7,0.4,0.7,0.7
		C526.5,230.1,526.1,230.4,525.6,230.4z"/>
</g>
<path class="st8" d="M524.8,231.9v1.4c0,0.4-0.1,0.4-0.4,0.4c-0.2,0-0.4,0-0.4-0.4v-1.7c0-0.8,0.4-0.8,0.8-0.8h1
	c0.7,0,0.8,0.1,0.8,0.8v1.7c0,0.4-0.1,0.4-0.4,0.4c-0.2,0-0.4,0-0.4-0.4v-1.4c0-0.1-0.1-0.1-0.1-0.1s-0.1,0-0.1,0.1s0,4.4,0,4.4
	c0,0.4-0.4,0.4-0.4,0.4c-0.1,0-0.4,0-0.4-0.4s0-2.6,0-2.6s0-0.1-0.1-0.1c0,0-0.1,0-0.1,0.1c0,0,0,2.3,0,2.6c0,0.4-0.4,0.4-0.4,0.4
	c-0.1,0-0.4,0-0.4-0.4C524.8,236.4,524.8,232,524.8,231.9L524.8,231.9L524.8,231.9z"/>
<rect x="241.5" y="413.5" class="st2" width="5.6" height="3"/>
</svg>
