<?xml version="1.0" encoding="utf-8"?>
<!-- Generator: Adobe Illustrator 17.1.0, SVG Export Plug-In . SVG Version: 6.00 Build 0)  -->
<!DOCTYPE svg PUBLIC "-//W3C//DTD SVG 1.1//EN" "http://www.w3.org/Graphics/SVG/1.1/DTD/svg11.dtd">
<svg version="1.1" id="Layer_1" xmlns="http://www.w3.org/2000/svg" xmlns:xlink="http://www.w3.org/1999/xlink" x="0px" y="0px"
	 viewBox="430.1 252.4 590.3 791.7" enable-background="new 430.1 252.4 590.3 791.7" xml:space="preserve">
<rect x="451.2" y="767.1" opacity="0.6" fill="#496CB4" enable-background="new    " width="10" height="2.6"/>
<rect x="451.2" y="771.7" opacity="0.6" fill="#496CB4" enable-background="new    " width="10" height="2.6"/>
<rect x="451.2" y="776.3" opacity="0.6" fill="#496CB4" enable-background="new    " width="10" height="2.6"/>
<rect x="451.2" y="780.9" opacity="0.6" fill="#496CB4" enable-background="new    " width="10" height="2.6"/>
<rect x="451.2" y="785.7" opacity="0.6" fill="#496CB4" enable-background="new    " width="10" height="2.6"/>
<rect x="451.2" y="790.5" opacity="0.6" fill="#496CB4" enable-background="new    " width="10" height="2.6"/>
<rect x="451.2" y="795.1" opacity="0.6" fill="#496CB4" enable-background="new    " width="10" height="2.6"/>
<rect x="451.3" y="743.1" opacity="0.6" fill="#496CB4" enable-background="new    " width="10" height="2.6"/>
<rect x="451.3" y="747.7" opacity="0.6" fill="#496CB4" enable-background="new    " width="10" height="2.6"/>
<rect x="451.3" y="752.4" opacity="0.6" fill="#496CB4" enable-background="new    " width="10" height="2.6"/>
<rect x="451.3" y="757.5" opacity="0.6" fill="#496CB4" enable-background="new    " width="10" height="2.6"/>
<rect x="451.3" y="762" opacity="0.6" fill="#496CB4" enable-background="new    " width="10" height="2.6"/>
<rect x="439.5" y="767.1" opacity="0.6" fill="#496CB4" enable-background="new    " width="10" height="2.6"/>
<rect x="439.5" y="771.7" opacity="0.6" fill="#496CB4" enable-background="new    " width="10" height="2.6"/>
<rect x="439.5" y="776.3" opacity="0.6" fill="#496CB4" enable-background="new    " width="10" height="2.6"/>
<rect x="439.5" y="780.9" opacity="0.6" fill="#496CB4" enable-background="new    " width="10" height="2.6"/>
<rect x="439.5" y="785.7" opacity="0.6" fill="#496CB4" enable-background="new    " width="10" height="2.6"/>
<rect x="439.5" y="790.5" opacity="0.6" fill="#496CB4" enable-background="new    " width="10" height="2.6"/>
<rect x="439.5" y="795.1" opacity="0.6" fill="#496CB4" enable-background="new    " width="10" height="2.6"/>
<rect x="439.7" y="743.1" opacity="0.6" fill="#496CB4" enable-background="new    " width="10" height="2.6"/>
<rect x="439.7" y="747.7" opacity="0.6" fill="#496CB4" enable-background="new    " width="10" height="2.6"/>
<rect x="439.7" y="752.4" opacity="0.6" fill="#496CB4" enable-background="new    " width="10" height="2.6"/>
<rect x="439.7" y="757.5" opacity="0.6" fill="#496CB4" enable-background="new    " width="10" height="2.6"/>
<rect x="439.7" y="762" opacity="0.6" fill="#496CB4" enable-background="new    " width="10" height="2.6"/>
<rect x="451.2" y="684.4" opacity="0.6" fill="#496CB4" enable-background="new    " width="10" height="2.6"/>
<rect x="451.2" y="689" opacity="0.6" fill="#496CB4" enable-background="new    " width="10" height="2.6"/>
<rect x="451.2" y="693.8" opacity="0.6" fill="#496CB4" enable-background="new    " width="10" height="2.6"/>
<rect x="451.2" y="698.5" opacity="0.6" fill="#496CB4" enable-background="new    " width="10" height="2.6"/>
<rect x="451.2" y="703" opacity="0.6" fill="#496CB4" enable-background="new    " width="10" height="2.6"/>
<rect x="451.2" y="707.7" opacity="0.6" fill="#496CB4" enable-background="new    " width="10" height="2.6"/>
<rect x="451.2" y="712.4" opacity="0.6" fill="#496CB4" enable-background="new    " width="10" height="2.6"/>
<rect x="451.3" y="660.4" opacity="0.6" fill="#496CB4" enable-background="new    " width="10" height="2.6"/>
<rect x="451.3" y="665.1" opacity="0.6" fill="#496CB4" enable-background="new    " width="10" height="2.6"/>
<rect x="451.3" y="669.7" opacity="0.6" fill="#496CB4" enable-background="new    " width="10" height="2.6"/>
<rect x="451.3" y="674.8" opacity="0.6" fill="#496CB4" enable-background="new    " width="10" height="2.6"/>
<rect x="451.3" y="679.3" opacity="0.6" fill="#496CB4" enable-background="new    " width="10" height="2.6"/>
<rect x="439.5" y="684.4" opacity="0.6" fill="#496CB4" enable-background="new    " width="10" height="2.6"/>
<rect x="439.5" y="689" opacity="0.6" fill="#496CB4" enable-background="new    " width="10" height="2.6"/>
<rect x="439.5" y="693.8" opacity="0.6" fill="#496CB4" enable-background="new    " width="10" height="2.6"/>
<rect x="439.5" y="698.5" opacity="0.6" fill="#496CB4" enable-background="new    " width="10" height="2.6"/>
<rect x="439.5" y="703" opacity="0.6" fill="#496CB4" enable-background="new    " width="10" height="2.6"/>
<rect x="439.5" y="707.7" opacity="0.6" fill="#496CB4" enable-background="new    " width="10" height="2.6"/>
<rect x="439.5" y="712.4" opacity="0.6" fill="#496CB4" enable-background="new    " width="10" height="2.6"/>
<rect x="439.7" y="660.4" opacity="0.6" fill="#496CB4" enable-background="new    " width="10" height="2.6"/>
<rect x="439.7" y="665.1" opacity="0.6" fill="#496CB4" enable-background="new    " width="10" height="2.6"/>
<rect x="439.7" y="669.7" opacity="0.6" fill="#496CB4" enable-background="new    " width="10" height="2.6"/>
<rect x="439.7" y="674.8" opacity="0.6" fill="#496CB4" enable-background="new    " width="10" height="2.6"/>
<rect x="439.7" y="679.3" opacity="0.6" fill="#496CB4" enable-background="new    " width="10" height="2.6"/>
<rect x="611.3" y="263.5" opacity="0.6" fill="#496CB4" enable-background="new    " width="2.6" height="10"/>
<rect x="615.9" y="263.5" opacity="0.6" fill="#496CB4" enable-background="new    " width="2.6" height="10"/>
<rect x="620.4" y="263.5" opacity="0.6" fill="#496CB4" enable-background="new    " width="2.6" height="10"/>
<rect x="625.1" y="263.5" opacity="0.6" fill="#496CB4" enable-background="new    " width="2.6" height="10"/>
<rect x="629.7" y="263.5" opacity="0.6" fill="#496CB4" enable-background="new    " width="2.6" height="10"/>
<rect x="634.5" y="263.5" opacity="0.6" fill="#496CB4" enable-background="new    " width="2.6" height="10"/>
<rect x="639.1" y="263.5" opacity="0.6" fill="#496CB4" enable-background="new    " width="2.6" height="10"/>
<rect x="587" y="263.3" opacity="0.6" fill="#496CB4" enable-background="new    " width="2.6" height="10"/>
<rect x="591.9" y="263.3" opacity="0.6" fill="#496CB4" enable-background="new    " width="2.6" height="10"/>
<rect x="596.5" y="263.3" opacity="0.6" fill="#496CB4" enable-background="new    " width="2.6" height="10"/>
<rect x="601.5" y="263.3" opacity="0.6" fill="#496CB4" enable-background="new    " width="2.6" height="10"/>
<rect x="606.1" y="263.3" opacity="0.6" fill="#496CB4" enable-background="new    " width="2.6" height="10"/>
<rect x="909.8" y="705.4" opacity="0.6" fill="#496CB4" enable-background="new    " width="2" height="10"/>
<rect x="913.3" y="705.4" opacity="0.6" fill="#496CB4" enable-background="new    " width="2" height="10"/>
<rect x="916.8" y="705.4" opacity="0.6" fill="#496CB4" enable-background="new    " width="2" height="10"/>
<rect x="920" y="705.4" opacity="0.6" fill="#496CB4" enable-background="new    " width="2" height="10"/>
<rect x="923.5" y="705.4" opacity="0.6" fill="#496CB4" enable-background="new    " width="2" height="10"/>
<rect x="927.2" y="705.4" opacity="0.6" fill="#496CB4" enable-background="new    " width="2" height="10"/>
<rect x="930.6" y="705.4" opacity="0.6" fill="#496CB4" enable-background="new    " width="2" height="10"/>
<rect x="891.8" y="705.3" opacity="0.6" fill="#496CB4" enable-background="new    " width="2" height="10"/>
<rect x="895.3" y="705.3" opacity="0.6" fill="#496CB4" enable-background="new    " width="2" height="10"/>
<rect x="898.8" y="705.3" opacity="0.6" fill="#496CB4" enable-background="new    " width="2" height="10"/>
<rect x="902.6" y="705.3" opacity="0.6" fill="#496CB4" enable-background="new    " width="2" height="10"/>
<rect x="906" y="705.3" opacity="0.6" fill="#496CB4" enable-background="new    " width="2" height="10"/>
<path fill="#CCCCCC" d="M687.7,784.7v0.3h5l0,0l0,0l0,0l0,0l0,0l0,0l0,0l0,0l0,0l0,0l0,0l0,0l-0.1,1.2l0,0c-0.8,2.3-2.2,3.8-4.3,4.3
	l-0.8,0.1v0.7c0.1,0,0.1,0.1,0.1,0.3v5.5h19V795v-10.8L687.7,784.7L687.7,784.7z"/>
<path fill="#CCCCCC" d="M603.9,790.9L603.9,790.9L603.9,790.9L603.9,790.9L603.9,790.9L603.9,790.9L603.9,790.9L603.9,790.9v-4.6
	l0,0l0,0l0,0l0,0l0,0l0,0c0,0,0,0,0-0.1l0,0v-3.4l0,0c0,0,0,0,0-0.1l0,0l0,0l0,0l0,0l0,0l0,0v-4.5l0,0l0,0l0,0l0,0l0,0l0,0
	c0,0,0,0,0-0.1l0,0v-15l0,0c0,0,0,0,0-0.1l0,0l0,0l0,0l0,0l0,0l0,0v-5.7l0,0l0,0l0,0l0,0l0,0l0,0c0,0,0,0,0-0.1l0,0v-3.5
	c0-0.1,0-0.1,0.1-0.3c0,0,0.1-0.1,0.3-0.1v-4.5l0,0c-0.1,0-0.4-0.1-0.4-0.4v-4.5h-47l0,0l0,0h-0.1l0,0l0,0l0,0l0,0l0,0l0,0h-7.2l0,0
	l0,0l0,0l0,0l0,0l0,0c0,0,0,0-0.1,0h-3.8v4.5v0.1l0,0l0,0l0,0l0,0l0,0l0,0v4.5l0,0l0,0l0,0l0,0l0,0l0,0c0,0,0,0,0,0.1l0,0v2.2v0.1
	l0,0l0,0l0,0l0,0l0,0l0,0v4.5l0,0l0,0l0,0l0,0l0,0l0,0c0,0,0,0,0,0.1v16.6v0.1l0,0l0,0l0,0l0,0l0,0l0,0v4.5l0,0l0,0l0,0l0,0l0,0l0,0
	c0,0,0,0,0,0.1l0,0v3l0,0l0,0v0.1l0,0l0,0l0,0l0,0l0,0l0,0v4.5l0,0l0,0l0,0l0,0l0,0l0,0c0,0,0,0,0,0.1v7h58.8L603.9,790.9
	L603.9,790.9z"/>
<path fill="#CCCCCC" d="M624.3,791.2c-0.3,0-0.4,0-0.8-0.1c-1.8-0.7-3.2-2.3-3.5-4.2l-0.1-1.2l0,0l0,0l0,0l0,0l0,0l0,0l0,0l0,0l0,0
	l0,0l0,0l0,0l0,0l0,0l0,0h5v-0.8h-19.5v0.3h4.9l0,0l0,0l0,0l0,0l0,0l0,0l0,0l0,0l0,0l0,0l0,0l0,0l0,0l0,0l0,0l0,0v1.2l0,0
	c-0.7,2-1.8,3.2-3.5,4.1c-0.3,0-0.4,0.1-0.8,0.3l-0.8,0.1v6.5h19.5V791L624.3,791.2z"/>
<path fill="#CCCCCC" d="M686.1,790.8L686.1,790.8C686.2,790.8,686.2,790.6,686.1,790.8C686.1,790.6,686.1,790.6,686.1,790.8
	L686.1,790.8L686.1,790.8L686.1,790.8l0.1-4.6l0,0l0,0l0,0l0,0l0,0l0,0c0,0,0,0,0-0.1v-3.2v-0.1l0,0l0,0l0,0l0,0l0,0l0,0v-4.3l0,0
	l0,0l0,0l0,0l0,0l0,0c0,0,0,0,0-0.1v-16.6v-0.4l0,0l0,0l0,0l0,0l0,0l0,0v-4.5l0,0l0,0l0,0l0,0l0,0l0,0c0,0,0,0,0-0.1v-2.3l0,0v-0.1
	l0,0l0,0l0,0l0,0l0,0l0,0v-4.5l0,0l0,0l0,0l0,0l0,0l0,0c0,0,0,0,0-0.1v-4.5h-10.3h-0.1l0,0l0,0l0,0l0,0l0,0l0,0h-7.2l0,0l0,0l0,0
	l0,0l0,0l0,0c0,0,0,0-0.1,0h-40.8v13.4v0.1l0,0l0,0l0,0l0,0l0,0l0,0v4.5l0,0l0,0l0,0l0,0l0,0l0,0c0,0,0,0,0,0.1v15v0.1l0,0l0,0l0,0
	l0,0l0,0l0,0v4.5l0,0l0,0l0,0l0,0l0,0l0,0c0,0,0,0,0,0.1v3.4v0.1l0,0l0,0l0,0l0,0l0,0l0,0v4.5l0,0l0,0l0,0l0,0l0,0l0,0
	c0,0,0,0,0,0.1v7h59.1L686.1,790.8C686.1,790.9,686.1,790.9,686.1,790.8z"/>
<path fill="#CCCCCC" d="M605.4,770.5v5.7h0.8c2.2,0.4,3.9,2.2,4.3,4.3l0,0v1.2l0,0l0,0l0,0l0,0l0,0l0,0l0,0l0,0l0,0l0,0l0,0l0,0l0,0
	l0,0h-4.9v0.9h19.5v-0.9h-5l0,0l0,0l0,0l0,0l0,0l0,0l0,0l0,0l0,0l0,0l0,0l0,0l0,0l0,0l0,0l0,0l0,0v-0.1l0.1-1.1l0,0l0.3-1.2
	c0,0,0,0,0-0.1l0.7-0.9l0.8-0.9l0,0l1.1-0.7c0,0,0,0,0.1,0l1.2-0.3l0,0h0.8v-5.7L605.4,770.5L605.4,770.5z"/>
<path fill="#CCCCCC" d="M542.4,791.2L542.4,791.2l-1.2-0.3c0,0,0,0-0.1,0l-0.9-0.7l-0.9-0.7l0,0l-0.7-1.1l0,0l-0.4-1l0,0l-0.1-1.2
	l0,0l0,0l0,0l0,0l0,0l0,0l0,0l0,0l0,0l0,0l0,0l0,0h5V786h-19.5v0.1h4.9l0,0l0,0l0,0l0,0l0,0l0,0l0,0l0,0l0,0l0,0l0,0l0,0v1.2l0,0
	c-0.1,0.4-0.3,0.9-0.7,1.4c-0.8,1.4-2,2.4-3.8,3l-0.8,0.1v6.5h19.5v-6.5L542.4,791.2z"/>
<path fill="#CCCCCC" d="M522,790.9L522,790.9L522,790.9L522,790.9L522,790.9L522,790.9L522,790.9L522,790.9v-4.6l0,0l0,0l0,0l0,0
	l0,0l0,0c0,0,0,0,0-0.1l0,0v-3l0,0l0,0c0,0,0,0,0-0.1l0,0l0,0l0,0l0,0l0,0l0,0v-4.5l0,0l0,0l0,0l0,0l0,0l0,0c0,0,0,0,0-0.1l0,0
	v-16.8l0,0c0,0,0,0,0-0.1l0,0l0,0l0,0l0,0l0,0l0,0V757l0,0l0,0l0,0l0,0l0,0l0,0c0,0,0,0,0-0.1l0,0v-2.3l0,0c0,0,0,0,0-0.1l0,0l0,0
	l0,0l0,0l0,0l0,0V750l0,0l0,0l0,0l0,0l0,0l0,0c0,0,0,0,0-0.1l0,0v-4.5h-4.5l0,0l0,0h-0.1l0,0l0,0l0,0l0,0l0,0l0,0h-7.2l0,0l0,0l0,0
	l0,0l0,0l0,0c0,0,0,0-0.1,0h-47.4v34.9v20.1H522V790.9L522,790.9z"/>
<path fill="#3964AF" d="M1006.5,935.7h0.7l0,0l0,0l0,0l0,0l0,0l0,0l0,0l0,0l0,0v-11.2l0,0l0,0l0,0l0,0l0,0l0,0c0,0,0,0,0-0.1l0,0v-3
	l-115-29.8l-0.4,0.9c2,0.9,3.2,3,3.1,5.3v0.8h0.1l1.4,0.3l0,0l0,0l0,0l0,0l0,0l0,0l0,0l0,0l0,0l0,0l0,0l0,0l0,0l0,0l0,0l0,0l0,0l0,0
	l-2.6,6.1l-2.3,6l-2,5.7l0.4,0.1l0,0l0,0l0,0l0,0l0,0l0,0l0,0l0,0l0,0l0,0l0,0l0,0l0,0l0,0l0,0l0,0c0,0,0,0,0,0.1l0,0l-0.4,0.4
	l2.3,0.7l0,0l0,0l0,0l0,0l0,0l0,0l0,0l0,0l0,0l0,0l0,0l0,0l0,0l0,0l-0.4,1.2c-0.4,0.8-0.9,1.4-1.4,1.9l-0.1,0.1
	c-0.1,0-0.1,0.1-0.3,0.3c-0.1,0-0.1,0.1-0.3,0.1c-0.2,0-0.3,0.1-0.7,0.3h-0.1c-0.7,0.1-1.2,0.3-2,0.4c1.9,1.4,2.6,3,2.8,5.4l0,0
	l-0.1,1.4l0,0l0,0l0,0l0,0l0,0l0,0l0,0l0,0c0,0,0,0-0.1,0l0,0l0,0l0,0l-2.3-0.7v0.7c0,0.1-0.1,0.4-0.4,0.4h-6.8v60.3h6.8
	c0.1,0,0.1,0,0.3,0.1c0.1,0.1,0.1,0.1,0.1,0.3v0.7l2.3-0.7l0,0l0,0l0,0l0,0l0,0l0,0l0,0l0,0l0,0l0,0l0,0l0,0l0.1,1.4l0,0
	c-0.1,2.6-0.9,4.2-2.8,5.4c2.2,0.3,3.4,0.9,4.5,2.4c0.1,0.3,0.3,0.4,0.4,0.8l0.7,1.2l0,0l0,0l0,0l0,0l0,0l0,0l0,0l0,0l0,0l0,0l0,0
	l0,0l-2.3,0.7l0.4,0.4l0,0l0,0l0,0l0,0l0,0l0,0l0,0l0,0l0,0l0,0l0,0l0,0l0,0l0,0l0,0l0,0l0,0c0,0,0,0-0.1,0l0,0l0,0l-0.4,0.1l2,5.7
	l2.3,6.1l2.6,6l0,0l0,0l0,0l0,0l0,0l0,0l0,0l0,0l0,0l0,0l0,0l0,0l0,0l0,0l0,0l0,0l0,0l0,0l0,0l0,0l0,0l-1.5,0.3v0.8
	c0.1,2-1.2,4.5-3.1,5.3l0,0l0.4,1.1l7.7-2l-1.4-5.3l0,0l0,0l0,0l0,0l0,0l0,0l0,0l0,0l0,0l0,0l0,0l0,0l1.4-0.1l0,0
	c2.4,0,4.9,1.4,5.7,3.5l0.3,0.9l100.7-25.8v-3l0,0c0,0,0,0,0-0.1l0,0l0,0l0,0l0,0l0,0l0,0v-11l0,0h-0.3l0,0c0,0,0,0-0.1-0.1h-0.7
	c-0.1,0-0.4-0.1-0.4-0.4v-0.9c0-0.1,0.1-0.4,0.4-0.4h0.7v-46.5h-0.7c-0.1,0-0.4-0.1-0.4-0.4v-0.9l0,0
	C1006.1,935.8,1006.4,935.7,1006.5,935.7z"/>
<path fill="#CCCCCC" d="M615.9,557.1L615.9,557.1c-0.1,0-0.4-0.1-0.4-0.4l0,0h-5c0,0.1-0.1,0.4-0.4,0.4l0,0l0,0h-6.7v10h4.3l0,0
	c0.1,0,0.4,0.1,0.4,0.4v8.3c0,0.1-0.1,0.4-0.4,0.4h-4.3v3.2v0.3v6.1l0,0l0,0c0,0.1-0.1,0.4-0.4,0.4h-0.8v5.1h0.8l0,0
	c0.1,0,0.4,0.1,0.4,0.4v0.3v6.5h5.5h3.2l0,0c0.1,0,0.4,0.1,0.4,0.4v6.8h3.5l0,0h22.8h20.1v-49L615.9,557.1L615.9,557.1z"/>
<path fill="#CCCCCC" d="M583.5,594.8L583.5,594.8C583.2,594.8,583.2,594.7,583.5,594.8C583.2,594.8,583.2,594.8,583.5,594.8
	L583.5,594.8C583.2,594.8,583.2,594.8,583.5,594.8L583.5,594.8c-0.3-0.1-0.4-0.3-0.4-0.7v-23.9h-56.6V603h3.2c0.1,0,0.4,0.1,0.4,0.4
	v2.8h32.3h20.9l0,0c0,0,0-0.1,0.1-0.1l0,0l0,0L583.5,594.8L583.5,594.8z"/>
<path fill="#CCCCCC" d="M529.8,531.6C529.8,531.6,530,531.6,529.8,531.6C530,531.8,530,531.8,529.8,531.6
	C530,531.6,530,531.6,529.8,531.6L529.8,531.6L529.8,531.6L529.8,531.6l11.4,0.1l0,0l0,0l0,0l0,0l0,0l0,0c0,0,0,0,0.1,0l0,0l0,0h37
	v-6.1c0-0.1,0.1-0.4,0.4-0.4h3.5v-16.6c0-0.1,0.1-0.4,0.4-0.4l0,0v-11.2l0,0c-0.1,0-0.4-0.1-0.4-0.4v-0.1h-56.5v35.3h3.4
	C529.8,531.6,529.8,531.6,529.8,531.6z"/>
<path fill="#CCCCCC" d="M582.8,568.6c0-0.1,0.1-0.4,0.4-0.4l0,0V557l0,0c-0.1,0-0.4-0.1-0.4-0.4v-23.5h-3.5l0,0h-37.4l0,0
	c0,0,0,0-0.1,0l0,0l0,0l0,0l0,0l0,0l0,0h-11.2l0,0l0,0l0,0l0,0l0,0l0,0c0,0,0,0-0.1,0l0,0h-3.5v35.4h56.1v0.1L582.8,568.6
	L582.8,568.6z"/>
<path fill="#3964AF" d="M505,720.2c0.1,0,0.4,0.1,0.4,0.4l0,0h5.1c0-0.1,0-0.1,0.1-0.3c0,0,0.1-0.1,0.3-0.1h49.6v-1.5
	c0-0.1,0.1-0.4,0.4-0.4l0,0h11.6v-18.3v-15c0-0.1,0.1-0.4,0.4-0.4l0,0h4.3v-0.4l0,0c0,0,0,0,0-0.1l0,0l0,0l0,0l0,0l0,0l0,0v-11l0,0
	l0,0l0,0l0,0l0,0l0,0c0,0,0,0,0-0.1l0,0v-0.7H573c-0.1,0-0.4-0.1-0.4-0.4l0,0V666h-69.5V721L505,720.2L505,720.2z"/>
<path fill="#CCCCCC" d="M582.8,494.4L582.8,494.4c0-0.1,0.1-0.4,0.4-0.4l0,0v-11l0,0c-0.1,0-0.4-0.1-0.4-0.4V469h-4.9
	c-0.1,0-0.4-0.1-0.4-0.4v-9.2h-31.2h-7h-13v35.4L582.8,494.4L582.8,494.4L582.8,494.4z"/>
<path fill="#CCCCCC" d="M580.9,316.1v-24.4l0,0v-0.1l0,0l0,0l0,0l0,0l0,0l0,0v-11l0,0l0,0l0,0l0,0l0,0l0,0c0,0,0,0,0-0.1v-0.8h-49.2
	v1.1c0,0.1-0.1,0.4-0.4,0.4h-5.1v35.4h54.9v-0.4h-0.2V316.1z"/>
<path fill="#CCCCCC" d="M580.8,434.7C580.8,434.7,580.9,434.7,580.8,434.7C580.8,434.5,580.8,434.5,580.8,434.7L580.8,434.7
	L580.8,434.7L580.8,434.7L580.8,434.7L580.8,434.7L580.8,434.7v-11.2l0,0l0,0l0,0l0,0l0,0l0,0c0,0,0,0,0-0.1l0,0v-21.7h-54.6v15.2
	v4.3v15.6v1.9h54.6V434.7z"/>
<path fill="#3964AF" d="M595.8,640.8c0.4,2.2,2,3.5,4.2,4.2l1.1,0.1V640h-5.4L595.8,640.8z"/>
<path fill="#3964AF" d="M595.8,649.2c0.4-2.2,2-3.5,4.2-4.2l1.1-0.1v5.1h-5.4L595.8,649.2z"/>
<path fill="#3964AF" d="M561.6,723.5c2.2-0.4,3.5-2,4.2-4.2l0.1-1.1h-5.1v5.4L561.6,723.5z"/>
<path fill="#3964AF" d="M570.3,723.5c-2.2-0.4-3.5-2-4.2-4.2l-0.1-1.1h5.1v5.4L570.3,723.5z"/>
<path fill="#3964AF" d="M577.3,716.9c-0.4-2.2-2-3.5-4.2-4.2l-1.1-0.1v5.1h5.4L577.3,716.9z"/>
<path fill="#3964AF" d="M577.3,708.6c-0.4,2.2-2,3.5-4.2,4.2l-1.1,0.1v-5.1h5.4L577.3,708.6z"/>
<path fill="#CCCCCC" d="M692.8,756.5L692.8,756.5c-0.7,1.9-1.5,3.1-3,3.9c-0.4,0.1-0.8,0.3-1.4,0.4h-0.3l0,0l0,0v7.4h18.8v-13H693
	L692.8,756.5z"/>
<path fill="#CCCCCC" d="M692.8,751.4l0.1,1.2l0,0l0,0l0,0l0,0l0,0l0,0l0,0l0,0l0,0l0,0l0,0l0,0l0,0h-5v0.7h19.3v-13h-19.3v6.2h0.8
	C690.7,747.7,692.3,749.3,692.8,751.4z"/>
<path fill="#CCCCCC" d="M610.4,755.9L610.4,755.9L610.4,755.9L610.4,755.9L610.4,755.9C610.5,755.9,610.5,755.9,610.4,755.9
	L610.4,755.9L610.4,755.9C610.5,755.9,610.5,755.9,610.4,755.9L610.4,755.9L610.4,755.9L610.4,755.9L610.4,755.9L610.4,755.9
	L610.4,755.9L610.4,755.9l0.1,1.2l0,0c-0.4,1.4-1.1,2.4-2.2,3.2c-0.7,0.4-1.4,0.8-2.2,0.9l-0.8,0.1v6.4h19.5v-6.4H624
	c-0.4,0-0.8-0.1-1.2-0.4c-1.1-0.4-2-1.4-2.6-2.3c-0.3-0.4-0.4-0.9-0.7-1.5l-0.1-1.2l0,0l0,0l0,0l0,0l0,0l0,0l0,0l0,0l0,0l0,0l0,0
	l0,0l0,0l0,0l0,0h5v-0.7h-19.5v0.7H610.4L610.4,755.9z"/>
<path fill="#CCCCCC" d="M899.2,703.4L899.2,703.4C899.5,703.2,899.5,703.2,899.2,703.4L899.2,703.4l0.1-4.6l0,0c0,0,0,0-0.1-0.1l0,0
	v-0.1v-0.9h-0.9h-0.2l0,0l0,0l0,0h-4.5l0,0l0,0l0,0h-0.1l0,0h-13.5c-0.1,0-0.4-0.1-0.4-0.4v-6.6h-0.1l0,0h-0.1l0,0c0,0,0,0-0.1-0.1
	l0,0h-4.5l0,0l0,0l0,0h-0.1h-4.2l0,0l0,0v0.1l0,0l0,0l0,0v4.5l0,0l0,0l0,0v0.1v2v0.1l0,0l0,0l0,0v4.5l0,0l0,0l0,0v0.1l0,0v1.5h1.2
	c0.1,0,0.4,0.1,0.4,0.4l0,0h5.1l0,0c0-0.1,0.1-0.4,0.4-0.4l0,0h7.3c0.1,0,0.4,0.1,0.4,0.4l0,0h5.1v0.1c0-0.1,0.1-0.4,0.4-0.4l0,0
	h9.2v-1.1C899.2,703.5,899.2,703.4,899.2,703.4z"/>
<path fill="#CCCCCC" d="M889.2,722.7c0-0.1,0.1-0.4,0.4-0.4l0,0h18.9v-6.8h-26.7v7.3h7.3L889.2,722.7L889.2,722.7z"/>
<path fill="#CCCCCC" d="M883.9,706.5h-2v6.8h8.7v-6.8h-0.7l0,0c-0.1,0-0.4-0.1-0.4-0.4h-5.1C884.3,706.3,884.2,706.5,883.9,706.5z"
	/>
<path fill="#CCCCCC" d="M867.1,703.4L867.1,703.4c-2.6-0.9-3.4-1.8-4.3-4.3l0,0l-0.1-1.2l0,0l0,0l0,0l0,0l0,0l0,0l0,0h-22.4v18.7
	H868V704L867.1,703.4z"/>
<path fill="#CCCCCC" d="M656.5,726.7c2-0.4,3.5-2,4.1-4.2l0.1-1.1h-5.2v5.4L656.5,726.7z"/>
<path fill="#CCCCCC" d="M729.7,742.3L729.7,742.3C729.7,742.6,729.7,742.6,729.7,742.3C729.7,742.6,729.7,742.6,729.7,742.3
	L729.7,742.3L729.7,742.3L729.7,742.3c-0.1,0.1-0.1,0.1-0.3,0.1h-1.1v16.6h32.3v-16.6h-25.4h-0.1l0,0l0,0l0,0l0,0l0,0l0,0
	L729.7,742.3L729.7,742.3z"/>
<path fill="#CCCCCC" d="M739.5,722.9h1.4l0,0c0.1,0,0.4,0.1,0.4,0.4v0.7h17v-0.7c0-0.1,0.1-0.4,0.4-0.4l0,0h2.8l0,0
	c0.1,0,0.4,0.1,0.4,0.4v0.7h11v-0.7c0-0.1,0.1-0.4,0.4-0.4h1.8c0,0-0.1-0.1-0.1-0.3v-5.4h-35.8v0.1L739.5,722.9L739.5,722.9z"/>
<path fill="#CCCCCC" d="M715.6,726.7h0.8v-5.4h-5.1l0.1,1.2C711.9,724.6,713.5,726.3,715.6,726.7z"/>
<path fill="#CCCCCC" d="M706.1,726.7L706.1,726.7c2.2-0.4,3.5-2,4.2-4.2l0.1-1.1h-5v5.4L706.1,726.7z"/>
<path fill="#CCCCCC" d="M787,741.5c-0.7,2.2-2.3,4.1-4.3,4.3l-1.2,0.1l0,0l0,0l0,0l0,0h-0.1l0,0l0,0l0,0l0,0l0,0l0,0l0,0l0,0v-5
	h-1.2v18.8h17.9v-10.4h-5.4c-0.1,0-0.4-0.1-0.4-0.4v-8.1h-4.9L787,741.5z"/>
<path fill="#CCCCCC" d="M666,726.7h0.8v-5.4h-5.1l0.1,1.2C662.3,724.6,663.9,726.3,666,726.7z"/>
<path fill="#CCCCCC" d="M523.8,745.9L523.8,745.9L523.8,745.9L523.8,745.9L523.8,745.9L523.8,745.9v0.8h0.8c1.2,0.3,2.3,0.9,3.1,1.9
	c0.7,0.8,1.1,1.5,1.4,2.4l0,0v1.2l0,0l0,0l0,0l0,0l0,0l0,0l0,0l0,0l0,0l0,0l0,0l0,0l0,0h-4.9v0.7h19.5v-0.7h-5l0,0l0,0l0,0l0,0l0,0
	l0,0l0,0l0,0l0,0l0,0l0,0l0,0l0,0l0.1-1.2l0,0l0.3-1.2c0,0,0,0,0-0.1l0.7-1.1l0,0l0.9-0.8l0.9-0.8c0,0,0,0,0.1,0l1.2-0.3l0,0h0.8
	v-6.2h-19.3L523.8,745.9L523.8,745.9z"/>
<path fill="#CCCCCC" d="M528.8,756.2L528.8,756.2c-0.4,1.4-1.1,2.6-2.2,3.2c-0.7,0.4-1.4,0.8-2.2,0.9h-0.2l0,0v7.4h18.4v-7.4l0,0
	l0,0h-0.1l0,0l-1.2-0.3c0,0,0,0-0.1,0l-0.9-0.7l-0.9-0.8l0,0l-0.7-1.1l0,0l-0.3-1.1l0,0l-0.1-1.1h-8.8L528.8,756.2z"/>
<path fill="#CCCCCC" d="M624.7,753.9v-12.9h-18.9v6.1h0.8c2.2,0.3,3.9,2.2,4.3,4.3l0.1,1.2l0,0l0,0l0,0l0,0l0,0l0,0l0,0l0,0l0,0l0,0
	l0,0l0,0l0,0h-5v0.7h19.1v0.7L624.7,753.9L624.7,753.9z"/>
<path fill="#CCCCCC" d="M629.9,509.2L629.9,509.2C629.9,509.2,629.7,509.2,629.9,509.2C629.7,509.2,629.7,509.2,629.9,509.2
	L629.9,509.2L629.9,509.2L629.9,509.2L629.9,509.2L629.9,509.2h-5.4l0,0l0,0l0,0l0,0l0,0l0,0c0,0,0,0-0.1,0l0,0h-20.9v1.9
	c0,0.1-0.1,0.4-0.4,0.4l0,0h-1.9v5.1h1.9l0,0c0.1,0,0.4,0.1,0.4,0.4l0,0v38.1h6.5v-0.1l0,0l0,0l0.1-1.4c0.7-2.4,2.3-4.2,4.9-4.9
	l1.4-0.1l0,0l0,0l0,0l0,0l0,0l0,0l0,0l0,0l0,0l0,0l0,0l0,0l0,0l0,0l0,0l0,0v6v0.3h42.4v-46.1L629.9,509.2L629.9,509.2z"/>
<path fill="#CCCCCC" d="M523.8,770.5v6.4h0.7c2.3,0.7,3.8,2,4.3,4.3l0,0v1.2l0,0l0,0l0,0l0,0l0,0l0,0l0,0l0,0l0,0l0,0l0,0l0,0l0,0
	l0,0l0,0l0,0l0,0h-4.9v0.7h19.5v-0.7h-5l0,0l0,0l0,0l0,0l0,0l0,0l0,0l0,0l0,0l0,0l0,0l0,0l0,0l0,0l0,0l0,0l0,0l0.1-1.2l0,0l0.3-1.2
	c0,0,0,0,0-0.1l0.7-1.1l0,0l0.9-0.8l0.9-0.8c0,0,0,0,0.1,0l1.2-0.3l0,0h0.4v-6.4L523.8,770.5L523.8,770.5z"/>
<path fill="#CCCCCC" d="M688,776.6h0.7c2.3,0.7,3.8,2,4.3,4.3l0,0l0.1,1.2l0,0l0,0l0,0l0,0l0,0l0,0l0,0l0,0l0,0l0,0l0,0l0,0l0,0h-5
	v0.7h19.3v-13h-19.1v6.8H688L688,776.6z"/>
<path fill="#CCCCCC" d="M605.3,385.5h14.5c0.1,0,0.1,0,0.3,0.1c0.1,0.1,0.1,0.1,0.1,0.3v0.1h5.4l0,0l0,0l0,0l0,0l0,0l0,0l0,0l0,0
	l0,0l0,0l0,0l0,0l0,0l0,0l0,0l0,0l0.3,1.8c-0.4,2-2,3.8-3.9,4.5l0.4,0.1l0,0l1.1,0.8l0,0l0.9,0.9l0,0l0.8,1.1l0,0l0.4,1.4l0,0
	l0.1,1.4l0,0l0,0l0,0l0,0l0,0l0,0l0,0l0,0l0,0l0,0l0,0l0,0l0,0h-5.4v0.9h38.5v-2.2l0,0v-15.4v-17h-53.4v21.3H605.3L605.3,385.5z"/>
<path fill="#CCCCCC" d="M658.6,296.2L658.6,296.2C658.6,296.3,658.6,296.3,658.6,296.2L658.6,296.2L658.6,296.2L658.6,296.2
	L658.6,296.2L658.6,296.2L658.6,296.2L658.6,296.2L658.6,296.2L658.6,296.2L658.6,296.2L658.6,296.2L658.6,296.2h-1.5
	c-2.2-0.4-4.5-2.6-4.9-4.9l-0.1-1.1h-48v23.1v0.1l0,0l0,0l0,0l0,0l0,0l0,0v11l0,0l0,0l0,0l0,0l0,0l0,0c0,0,0,0,0,0.1v0.1h55v-34.9
	h-0.4v6.4h-0.1V296.2z"/>
<path fill="#CCCCCC" d="M623.2,665.1v55h32.2h0.1l0,0l0,0l0,0l0,0l0,0l0,0h11l0,0l0,0l0,0l0,0l0,0l0,0h0.1h5.7v-55h-31.1h-4.8H623.2
	z"/>
<path fill="#CCCCCC" d="M526.1,396.1v3.2h54.6v-1.4l0,0c0,0,0,0,0-0.1l0,0l0,0l0,0l0,0l0,0l0,0v-11.1l0,0l0,0l0,0l0,0l0,0l0,0
	c0,0,0,0,0-0.1l0,0v-23.3h-54.6v17.3l0,0V396.1z"/>
<path fill="#CCCCCC" d="M705,720.2L705,720.2C705,720.2,705.1,720.2,705,720.2C705.1,720.2,705.1,720.2,705,720.2L705,720.2
	L705,720.2L705,720.2L705,720.2L705,720.2h11.2l0,0l0,0l0,0l0,0l0,0l0,0l0,0h0.1h0.3v-0.9c0-0.1,0-0.1,0.1-0.3c0,0,0.1-0.1,0.3-0.1
	h5.4c0.1,0,0.4,0.1,0.4,0.4l0,0v0.9h1.1v-55h-2.3v1.5c0,0.1-0.1,0.4-0.4,0.4l0,0h-2.8c-0.1,0-0.4-0.1-0.4-0.4v-1.5h-43.7v55H705
	L705,720.2z"/>
<path fill="#3964AF" d="M616.1,608.6h-6l0,0h-7.8v2.2c0,0.1-0.1,0.4-0.4,0.4l0,0h-0.1v28.4v0.1l0,0l0,0l0,0l0,0l0,0l0,0v11.2l0,0
	l0,0l0,0l0,0l0,0l0,0v0.1v10.6H637v-1.5c0-0.1,0.1-0.4,0.4-0.4l0,0h1.1v-51.1L616.1,608.6L616.1,608.6z"/>
<path fill="#CCCCCC" d="M738.8,716.3L738.8,716.3h37l0,0c0.1,0,0.4,0.1,0.4,0.4v5.4l0,0v-5.4l0,0l0,0l0,0l0,0l0,0l0,0c0,0,0,0,0.1,0
	l0,0c0,0,0,0,0.1,0l0,0l0,0l0,0l1.4,0.1c2.2,0.4,3.9,1.9,4.6,3.9c0.8-2,2.3-3.4,4.5-3.9l1.4-0.1l0,0l0,0l0,0l0,0l0,0l0,0l0,0l0,0
	l0,0l0,0l0,0l0,0l0,0l0,0l0,0l0,0v5.4l0,0v-57H726v51.2H738.8L738.8,716.3z"/>
<path fill="#CCCCCC" d="M841.7,667.7h-1.4v28.5h22.6l0,0l0,0l0,0l0,0l0,0l0,0l0,0l0,0l0.1-1.2c0.3-1.2,0.8-2.2,1.5-3
	c0.3-0.3,0.7-0.4,0.8-0.7c0.3-0.1,0.8-0.4,1.2-0.7h0.1h-7.3l0,0c-0.1,0-0.4-0.1-0.4-0.4v-24.9h-16.6v2.2l0,0
	C842.2,667.6,841.9,667.7,841.7,667.7z"/>
<path fill="#CCCCCC" d="M580.9,330.9C580.9,330.9,580.9,330.7,580.9,330.9C580.9,330.7,580.9,330.7,580.9,330.9L580.9,330.9
	L580.9,330.9L580.9,330.9L580.9,330.9L580.9,330.9v-11.5l0,0l0,0l0,0l0,0l0,0l0,0c0,0,0,0,0-0.1l0,0l0,0v-1.4h-54.9v36.2h54.9V330.9
	z"/>
<path fill="#CCCCCC" d="M825.2,720C825.2,720,825.3,720,825.2,720L825.2,720C825.3,720,825.3,720,825.2,720L825.2,720L825.2,720
	L825.2,720L825.2,720h11.2l0,0l0,0l0,0l0,0l0,0l0,0h0.1h1.4v-52.7l0,0V665H791V720H825.2L825.2,720z"/>
<path fill="#CCCCCC" d="M466.6,677.8L466.6,677.8L466.6,677.8C466.6,677.9,466.6,677.9,466.6,677.8L466.6,677.8L466.6,677.8
	L466.6,677.8l-0.1,5.3l0,0l0,0l0,0l0,0l0,0l0,0v0.1v1.4c0,0.1-0.1,0.4-0.4,0.4l0,0h-3.5v26.5h3.5c0.1,0,0.4,0.1,0.4,0.4v8.3h4.6v-1
	l0,0l0.4-1.4l0,0l0.8-1.1l0,0l0.9-0.9l0,0l1.1-0.8l0,0l1.2-0.4l0,0l1.4-0.1l0,0l0,0l0,0l0,0l0,0l0,0l0,0l0,0l0,0l0,0l0,0l0,0l0,0
	l0,0l0,0l0,0v5.5h23.2V665h-34.5L466.6,677.8L466.6,677.8z"/>
<path fill="#CCCCCC" d="M629.5,477.8v-0.4h-5.1v0.4c0,0.1-0.1,0.4-0.4,0.4l0,0h-20.9v29.6h20.3v-0.4l0,0l0,0l0.1-1.4
	c0.7-2.6,2.3-4.3,5-4.9l1.4-0.1l0,0l0,0l0,0l0,0l0,0l0,0l0,0l0,0l0,0l0,0l0,0l0,0l0,0l0,0l0,0l0,0v6v0.1h28.6v-29.2h-29V477.8
	C629.7,478,629.5,477.9,629.5,477.8z"/>
<path fill="#CCCCCC" d="M657.7,443.9L657.7,443.9c-0.1,0-0.4-0.1-0.4-0.4v-3.1h-55.7v5.5v0.1l0,0l0,0l0,0l0,0l0,0l0,0v4.5v6.5l0,0
	l0,0l0,0l0,0l0,0l0,0l0,0c0,0,0,0,0,0.1v11.5h1.1l0,0c0.1,0,0.4,0.1,0.4,0.4v6h20.4v-0.9l0,0l0.4-1.4l0,0l0.8-1.1l0,0l0.9-0.9l0,0
	l1.1-0.8l0,0l1.4-0.4l0,0h0.1l1.2-0.1l0,0l0,0l0,0l0,0l0,0l0,0l0,0l0,0l0,0l0,0l0,0l0,0l0,0l0,0l0,0v5.5h28.8v-32L657.7,443.9
	L657.7,443.9z"/>
<path fill="#CCCCCC" d="M658.8,401.7h-55l0,0c0,0.1-0.1,0.4-0.4,0.4v11c0.1,0,0.4,0.1,0.4,0.4l0,0v24.2h53.8l0,0h1.2v-1.8l0,0v-15.6
	V416l0,0V401.7z"/>
<path fill="#CCCCCC" d="M658.8,327.2h-55l0,0c0,0.1-0.1,0.4-0.4,0.4v11c0.1,0,0.4,0.1,0.4,0.4l0,0v24.2h53.8l0,0h1.2v-1.8l0,0V346
	v-4.2l0,0V327.2z"/>
<path fill="#CCCCCC" d="M805.9,761.7L805.9,761.7C805.8,761.7,805.8,761.7,805.9,761.7C805.8,761.7,805.8,761.7,805.9,761.7
	C805.8,761.7,805.8,761.7,805.9,761.7L805.9,761.7L805.9,761.7L805.9,761.7L805.9,761.7L805.9,761.7h-4.6l0,0l0,0l0,0l0,0l0,0l0,0
	c0,0,0,0-0.1,0h-0.3v36.2h19.7v-36.2H805.9z"/>
<path fill="#CCCCCC" d="M573.9,657.1L573.9,657.1C573.9,657,573.9,657,573.9,657.1L573.9,657.1L573.9,657.1L573.9,657.1L573.9,657.1
	L573.9,657.1C573.9,657,573.9,657,573.9,657.1L573.9,657.1L573.9,657.1L573.9,657.1L573.9,657.1L573.9,657.1L573.9,657.1
	L573.9,657.1l1.4-0.1c0,0,0,0,0.1,0c0.9,0.3,1.8,0.8,2.2,1.1c-0.1-0.3-0.1-0.7-0.3-0.9l0,0l-0.1-1.4l0,0l0,0l0,0l0,0l0,0l0,0l0,0
	l0,0l0,0l0,0l0,0l0,0h5.4v-0.1h-12.4l0,0c-0.1,0-0.4-0.1-0.4-0.4v-0.9c0-0.1,0.1-0.4,0.4-0.4l0,0h6.8v-15c0-0.1,0.1-0.4,0.4-0.4l0,0
	h5.7v-30.3h-20.3V645h7.6l0,0c0.1,0,0.4,0.1,0.4,0.4v0.9c0,0.1-0.1,0.4-0.4,0.4l0,0h-7.6v15.8h10.8L573.9,657.1L573.9,657.1z"/>
<path fill="#CCCCCC" d="M839.2,720.5L839.2,720.5L839.2,720.5L839.2,720.5L839.2,720.5L839.2,720.5L839.2,720.5L839.2,720.5
	L839.2,720.5v0.3v1.8h2.3l0,0c0.1,0,0.4,0.1,0.4,0.4v0.7h25.4V723c0-0.1,0.1-0.4,0.4-0.4h0.9v-6.2l0,0l0,0l0,0l0,0H840
	c-0.1,0-0.4-0.1-0.4-0.4v-19.5v-0.1V696v-29h-0.3L839.2,720.5L839.2,720.5z"/>
<path fill="#CCCCCC" d="M837.9,742.8C837.9,742.8,837.7,742.8,837.9,742.8C837.7,742.8,837.7,742.8,837.9,742.8L837.9,742.8
	L837.9,742.8L837.9,742.8L837.9,742.8L837.9,742.8h-11.2l0,0l0,0l0,0l0,0l0,0l0,0c0,0,0,0-0.1,0h-2.4v54.7h46.4v-54.9h-32.7V742.8z"
	/>
<path fill="#CCCCCC" d="M896.9,742.3c0,0.1-0.1,0.4-0.4,0.4h-1.8h-0.1l0,0l0,0l0,0l0,0l0,0l0,0h-11.2l0,0l0,0l0,0l0,0l0,0l0,0
	c0,0,0,0-0.1,0h-10v54.9h47v-56.8h-23.6v1.5H896.9L896.9,742.3z"/>
<path fill="#CCCCCC" d="M873,688.9v-0.8l0,0l0.3-0.9v-0.3c0,0,0,0,0-0.1l0.7-1.1l0,0l0.9-0.8l0.9-0.8c0,0,0,0,0.1,0l1.2-0.3l0,0
	l1.2-0.1l0,0l0,0l0,0l0,0l0,0l0,0v-18.7h-18.8v24.2L873,688.9L873,688.9z"/>
<path fill="#CCCCCC" d="M901.2,698.1c2.3,0.7,3.8,2,4.3,4.3l0,0l0.1,1.2l0,0l0,0l0,0l0,0l0,0l0,0l0,0l0,0l0,0l0,0l0,0l0,0l0,0l0,0
	h-5v0.7h18.9v-37h-1.4l0,0c-0.1,0-0.4-0.1-0.4-0.4v-2.2h-17.2v32.8L901.2,698.1z"/>
<path fill="#CCCCCC" d="M892.7,695.9v-0.8l0,0c0.7-2,1.5-3.1,3.4-4.1c0.3-0.1,0.7-0.1,0.8-0.3l0,0l1.2-0.1l0,0l0,0l0,0l0,0l0,0l0,0
	l0,0l0,0l0,0l0,0l0,0l0,0v5h0.4v-30.9h-18.7v31.2L892.7,695.9L892.7,695.9z"/>
<g>
	<path fill="#989798" d="M888.8,887l124.6,32l0.1,86c0,0-120.7,31.2-125.2,32c-4.2-5.7-10.8-23.4-10.8-23.4l-32-1.4l-0.1-101.2
		c0,0,11.6,0.4,32,0.8C879.2,902.2,888.8,887,888.8,887 M885.7,879l-2.8,4.3c-0.8,1.4-7.3,11.6-10.7,21.3
		c-16.6-0.1-26.5-0.7-26.6-0.7l-7.3-0.3v7.3l0.1,101.3v6.6l6.6,0.3l27.6,1.1c2.3,5.7,6.6,16,10,20.5l2.6,3.5l4.3-0.8
		c4.3-0.8,113.1-28.9,125.6-32l5.3-1.4v-5.4l-0.1-86v-5.4l-5.3-1.4l-124.3-31.9L885.7,879L885.7,879z"/>
</g>
<polygon fill="none" stroke="#989798" stroke-width="10" stroke-miterlimit="10" points="651.6,655.2 651.6,615.6 671.1,615.6 
	671.1,317.8 671.1,268.5 671.1,257.4 579.7,257.4 579.7,268.5 515,268.5 515,615.6 555.9,615.6 555.9,655.2 435.1,655.2 
	435.1,806.1 932.6,806.1 932.6,655.2 "/>
<path fill="#FFFFFF" d="M776.8,802.8c-2.4,0.7-4.9,3-5.3,5.3l-0.1,1.5h6.5v-7L776.8,802.8z"/>
<path fill="#FFFFFF" d="M766.2,802.8l-0.9-0.1v7h6.4l-0.1-1.5C771,805.5,769.1,803.6,766.2,802.8z"/>
<rect x="743" y="812.2" opacity="0.25" fill="#CCCCCC" enable-background="new    " width="92.7" height="209.5"/>
<g>
	
		<text transform="matrix(1 0 0 1 934.7598 968.583)" fill="#FFFFFF" font-family="'TradeGothic-BoldCondTwenty'" font-size="12.6511">2000</text>
</g>
<g>
	
		<text transform="matrix(1 0 0 1 609.3438 638.9502)" fill="#FFFFFF" font-family="'TradeGothic-BoldCondTwenty'" font-size="12.6511">2111</text>
</g>
<g>
	
		<text transform="matrix(1 0 0 1 524.6338 694.0781)" fill="#FFFFFF" font-family="'TradeGothic-BoldCondTwenty'" font-size="12.6511">2104</text>
</g>
<g>
	<g>
		<path fill="#4A6DB4" d="M716.1,742.3c-0.8,0-1.4-0.7-1.4-1.4c0-0.8,0.7-1.4,1.4-1.4s1.4,0.7,1.4,1.4
			C717.7,741.6,717,742.3,716.1,742.3z"/>
		<path fill="#4A6DB4" d="M717,742.8c1.4,0,1.9,0.9,2.2,1.5l1.2,4.1c0.1,0.4,0,0.8-0.3,0.8c-0.3,0-0.7,0-0.8-0.4l-1.1-3.5
			c0-0.1-0.1-0.3-0.4-0.3c-0.1,0-0.1,0.3-0.1,0.4l2,6.5h-2.1c0,2.6,0,5,0,5c0,0.8-0.3,0.8-0.7,0.8c-0.1,0-0.7,0-0.7-0.8
			c0-0.7,0-4.6,0-4.6c0-0.1,0-0.3-0.3-0.3c-0.3,0-0.3,0-0.3,0.3c0,0,0,4.1,0,4.6c0,0.7-0.3,0.8-0.7,0.8c-0.1,0-0.7,0-0.7-0.8
			c0,0,0-2.3,0-5h-2l1.9-6.5c0-0.1,0-0.4-0.1-0.4s-0.3,0-0.4,0.3l-1.1,3.5c-0.1,0.3-0.3,0.4-0.8,0.4c-0.3,0-0.4-0.3-0.3-0.8l1.2-4.1
			c0.1-0.7,0.7-1.5,2.2-1.5H717z"/>
	</g>
</g>
<g>
	<g>
		<path fill="#4A6DB4" d="M810.8,742.8c-0.8,0-1.4-0.7-1.4-1.4c0-0.8,0.7-1.4,1.4-1.4c0.8,0,1.4,0.7,1.4,1.4
			C812.2,742.3,811.5,742.8,810.8,742.8z"/>
	</g>
	<path fill="#4A6DB4" d="M808.5,746.2v3c0,0.7-0.1,0.8-0.7,0.8c-0.3,0-0.7-0.1-0.7-0.8v-3.8c0-1.5,0.8-2.2,2.2-2.2h2.2
		c1.4,0,2.2,0.4,2.2,2.2v3.8c0,0.7-0.1,0.8-0.7,0.8c-0.3,0-0.7-0.1-0.7-0.8v-3c0-0.3-0.1-0.3-0.3-0.3c0,0-0.3,0-0.3,0.3
		c0,0.4,0,9.9,0,9.9c0,0.8-0.7,0.8-0.8,0.8s-0.8,0-0.8-0.8c0-0.7,0-5.7,0-5.7c0-0.1,0-0.3-0.1-0.3s-0.1,0-0.1,0.3c0,0,0,5.1,0,5.7
		c0,0.7-0.7,0.8-0.8,0.8c-0.1,0-0.8,0-0.8-0.8C808.5,756.2,808.5,746.7,808.5,746.2c0-0.3-0.1-0.3-0.3-0.3
		C808.7,745.9,808.5,745.9,808.5,746.2z"/>
</g>
<g>
	<rect x="925.8" y="721.5" fill="#FFFFFF" width="20.3" height="26.2"/>
	<polygon fill="#4A6DB4" points="951.3,730.5 951.3,738.8 944.1,734.7 	"/>
</g>
<g>
	<rect x="838" y="914.8" fill="#FFFFFF" width="9.7" height="26.2"/>
	<polygon fill="#4A6DB4" points="832.8,932 832.8,923.6 840,927.8 	"/>
</g>
<g>
	<rect x="838" y="974.8" fill="#FFFFFF" width="9.7" height="26.2"/>
	<polygon fill="#4A6DB4" points="832.8,992 832.8,983.6 840,987.8 	"/>
</g>
<g>
	<rect x="760.6" y="800" fill="#FFFFFF" width="26.2" height="12.7"/>
	<polygon fill="#4A6DB4" points="777.4,820.9 769.1,820.9 773.3,813.9 	"/>
</g>
<g>
	<rect x="440.6" y="800" fill="#FFFFFF" width="26.2" height="12.7"/>
	<polygon fill="#4A6DB4" points="457.4,820.9 449.1,820.9 453.3,813.9 	"/>
</g>
</svg>
