<?xml version="1.0" encoding="utf-8"?>
<!-- Generator: Adobe Illustrator 17.1.0, SVG Export Plug-In . SVG Version: 6.00 Build 0)  -->
<!DOCTYPE svg PUBLIC "-//W3C//DTD SVG 1.1//EN" "http://www.w3.org/Graphics/SVG/1.1/DTD/svg11.dtd">
<svg version="1.1" id="Layer_1" xmlns="http://www.w3.org/2000/svg" xmlns:xlink="http://www.w3.org/1999/xlink" x="0px" y="0px"
	 viewBox="270.7 717.1 852.4 936" enable-background="new 270.7 717.1 852.4 936" xml:space="preserve">
<g>
	<path fill="#989798" d="M481.1,738.9l159.4,0.9c0,0,0.3,0.5,0.5,0.5h3.7c0.3,0,0.3,0.1,0.3,0.3v1.1h10.3c0.3,0,0.3,0.1,0.3,0.3
		v24.6h1.1c0.3,0,0.3,0.1,0.3,0.3v3.7c0,0.3-0.1,0.3-0.3,0.3h-0.9v57.8h1.1c0.3,0,0.3,0.1,0.3,0.3v3.7c0,0.3-0.1,0.3-0.3,0.3h-1.1
		v57.6h1.1c0.3,0,0.3,0.1,0.3,0.3v3.7c0,0.3-0.1,0.3-0.3,0.3h-1.1v58.1h1.1c0.3,0,0.3,0.1,0.3,0.3v3.7c0,0.3-0.1,0.3-0.3,0.3h-1.1
		v57.8h1.1c0.3,0,0.3,0.1,0.3,0.3v3.7c0,0.3-0.1,0.3-0.3,0.3h-1.1v24.7c0,0.3-0.1,0.3-0.3,0.3h-10.9h-3.8c-0.3,0-0.3-0.1-0.3-0.3
		v-2.8h-35.7v29.1h36.5h3.7h58.1h3.7h58.4v-1.1c0-0.3,0.1-0.3,0.3-0.3h3.7c0.3,0,0.3,0.1,0.3,0.3v1.1h50.2h11.7h58.1v-1.1
		c0-0.3,0.1-0.3,0.3-0.3h3.7c0.3,0,0.3,0.1,0.3,0.3v1.1h57.6v-1.1c0-0.3,0.1-0.3,0.3-0.3h3.7c0.3,0,0.3,0.1,0.3,0.3v1.1h57.7v-1.1
		c0-0.3,0.1-0.3,0.3-0.3h3.7c0.3,0,0.3,0.1,0.3,0.3v1.1h35.3c0.3,0,0.3,0.1,0.3,0.3v15.9v3.7l0.7,65.3l-1.1,35v85.7h-97.2v1.1
		c0,0.3-0.1,0.3-0.3,0.3h-3.3c-0.3,0-0.3-0.1-0.3-0.3v-1.1h-58v1.1c0,0.3-0.1,0.3-0.3,0.3h-3.7c-0.3,0-0.3-0.1-0.3-0.3v-1.1h-58
		h-15.8h-45.8v1.1c0,0.3-0.1,0.3-0.3,0.3h-3.7c-0.3,0-0.3-0.1-0.3-0.3v-1.1h-57.8v1.1c0,0.3-0.1,0.3-0.3,0.3h-3.7
		c-0.3,0-0.3-0.1-0.3-0.3v-1.1h-57.4v1.1c0,0.3-0.1,0.3-0.3,0.3h-3.7c-0.3,0-0.3-0.1-0.3-0.3v-1.1h-58v1.1c0,0.3-0.1,0.3-0.3,0.3
		H579c-0.3,0-0.3-0.1-0.3-0.3v-1.1h-57.4v1.1c0,0.3-0.1,0.3-0.3,0.3h-3.7c-0.3,0-0.3-0.1-0.3-0.3v-1.1h-42.4h-15.8v0.9
		c0,0.3-0.1,0.3-0.3,0.3H455c-0.3,0-0.3-0.1-0.3-0.3v-1.1h-58v1.1c0,0.3-0.1,0.3-0.3,0.3h-3.7c-0.3,0-0.3-0.1-0.3-0.3v-1.1h-33.9
		c-0.3,0-0.3-0.1-0.3-0.3v-15.5h-1.1c-0.3,0-0.3-0.1-0.3-0.3v-3.7c0-0.3,0.1-0.3,0.3-0.3h1.1v-51.5h-1.1c-0.3,0-0.3-0.1-0.3-0.3
		v-3.7c0-0.3,0.1-0.3,0.3-0.3h1.1v-53.6c0-0.3,0.1-0.3,0.3-0.3h2.2v-74.7c0-0.3,0.1-0.3,0.3-0.3h93.5v-1.1c0-0.3,0.1-0.3,0.3-0.3
		h3.7c0.3,0,0.3,0.1,0.3,0.3v1.1H526v-23.6h-43.4h-6.1h-10c-0.3,0-0.3-0.1-0.3-0.3v-26.5h-0.8c-0.3,0-0.3-0.1-0.3-0.3v-6
		c0-0.3,0.1-0.3,0.3-0.3h1.1v-56.5h-1.1c-0.3,0-0.3-0.1-0.3-0.3v-3.7c0-0.3,0.1-0.3,0.3-0.3h1.1v-57.5h-1.1c-0.3,0-0.3-0.1-0.3-0.3
		v-4.2c0-0.3,0.1-0.3,0.3-0.3h1.1v-57.6h-1.1c-0.3,0-0.3-0.1-0.3-0.3v-3.7c0-0.3,0.1-0.3,0.3-0.3h1.1v-57.8h-1.1
		c-0.3,0-0.3-0.1-0.3-0.3v-3.7c0-0.3,0.1-0.3,0.3-0.3h1.1v-27.1c0-0.3,0.1-0.3,0.3-0.3h10.9L481.1,738.9 M481.1,732.4L481.1,732.4
		h-3.8h-10.9c-3.7,0-6.8,3.2-6.8,6.8v23.5c-0.9,1.2-1.3,2.6-1.3,4.1v3.7c0,1.6,0.5,2.9,1.3,4.1v50.2c-0.9,1.2-1.3,2.6-1.3,4.1v3.7
		c0,1.6,0.5,2.9,1.3,4.1v49.9c-0.9,1.2-1.3,2.6-1.3,4.1v3.8c0,1.6,0.5,2.9,1.3,4.1V949c-0.9,1.2-1.3,2.6-1.3,4.1v3.7
		c0,1.6,0.5,2.9,1.3,4.1v48.4c-0.9,1.2-1.3,2.6-1.3,4.1v6.1c0,1.6,0.5,2.9,1.3,4.1v22.8c0,3.7,3.2,6.8,6.8,6.8h9.9h6.1h37v10.3
		h-57.2c-1.2-0.7-2.4-1.3-3.8-1.3h-3.7c-1.6,0-2.8,0.4-3.8,1.3h-89.7c-3.7,0-6.8,3.2-6.8,6.8v69.8c-1.6,1.2-2.7,3.2-2.7,5.4v50.2
		c-0.7,1.2-1.3,2.4-1.3,3.8v3.7c0,1.6,0.4,2.8,1.3,3.8v44.6c-0.7,1.2-1.3,2.4-1.3,3.8v3.7c0,1.6,0.4,2.8,1.3,3.8v11.7
		c0,3.7,3.2,6.8,6.8,6.8h30.2c1.2,0.7,2.4,1.3,3.8,1.3h3.7c1.6,0,2.8-0.4,3.8-1.3h50.5c1.2,0.7,2.4,1.3,3.8,1.3h3.7
		c1.4,0,2.7-0.4,3.8-1.2h51c1.2,0.7,2.4,1.3,3.8,1.3h3.7c1.6,0,2.8-0.4,3.8-1.3h50.2c1.2,0.7,2.4,1.3,3.8,1.3h3.7
		c1.6,0,2.8-0.4,3.8-1.3h50.7c1.2,0.7,2.4,1.3,3.8,1.3h3.7c1.6,0,2.8-0.4,3.8-1.3h50.5c1.2,0.7,2.4,1.3,3.8,1.3h3.7
		c1.6,0,2.8-0.4,3.8-1.3H760c1.2,0.7,2.4,1.3,3.8,1.3h3.7c1.6,0,2.8-0.4,3.8-1.3h42.4h15.7H884c1.2,0.7,2.4,1.3,3.8,1.3h3.7
		c1.6,0,2.8-0.4,3.8-1.3H946c1.2,0.7,2.4,1.3,3.8,1.3h3.7c1.6,0,2.8-0.4,3.8-1.3h94.2h6.6v-6.6v-85.4l1.1-34.8v-0.1v-0.1l-0.7-65.3
		v-3.7v-15.9c0-3.7-3.2-6.8-6.8-6.8h-31.5c-1.2-0.7-2.4-1.3-3.8-1.3h-3.7c-1.6,0-2.8,0.4-3.8,1.3h-49.7c-1.2-0.7-2.4-1.3-3.8-1.3
		h-3.7c-1.6,0-2.8,0.4-3.8,1.3h-50.7c-1.2-0.7-2.4-1.3-3.8-1.3h-3.7c-1.6,0-2.8,0.4-3.8,1.3h-54.5h-11.6h-46.3
		c-1.2-0.7-2.4-1.3-3.8-1.3h-3.7c-1.6,0-2.8,0.4-3.8,1.3h-54.7h-3.4h-58.1h-3.7h-30v-15.7h23.7c1.3,1.7,3.4,3.2,5.9,3.2h3.8h10.8
		c3.7,0,6.8-3.2,6.8-6.8v-21.1c0.7-1.2,1.3-2.4,1.3-3.8v-3.7c0-1.6-0.4-2.8-1.3-3.8v-50.6c0.7-1.2,1.3-2.4,1.3-3.8v-3.7
		c0-1.6-0.4-2.8-1.3-3.8v-49.7c0.7-1.2,1.3-2.4,1.3-3.8v-3.7c0-1.6-0.4-2.8-1.3-3.8v-50.2c0.7-1.2,1.3-2.4,1.3-3.8v-3.7
		c0-1.6-0.4-2.8-1.3-3.8v-50.7c0.7-1.2,1.3-2.4,1.3-3.8v-3.8c0-1.6-0.4-2.8-1.3-3.8v-21.1c0-3.7-3.2-6.8-6.8-6.8h-7
		c-1.2-0.7-2.4-1.3-3.8-1.3H645l-0.3-0.5h-3.6L481.1,732.4L481.1,732.4L481.1,732.4z"/>
</g>
<rect x="1051.4" y="1161.3" fill="#FFFFFF" width="13.7" height="30"/>
<g>
	<rect x="580.5" y="1219.6" fill="#496CB4" width="12.5" height="14.2"/>
	<text transform="matrix(1 0 0 1 582.7568 1231.6407)" fill="#FFFFFF" font-family="'MyriadPro-Regular'" font-size="14.8127">E</text>
</g>
<rect x="368.3" y="1107.2" opacity="0.6" fill="#496CB4" enable-background="new    " width="10.9" height="1.7"/>
<rect x="368.3" y="1110.6" opacity="0.6" fill="#496CB4" enable-background="new    " width="10.9" height="1.7"/>
<rect x="368.3" y="1113.6" opacity="0.6" fill="#496CB4" enable-background="new    " width="10.9" height="1.7"/>
<rect x="368.3" y="1117" opacity="0.6" fill="#496CB4" enable-background="new    " width="10.9" height="1.7"/>
<rect x="368.3" y="1120.3" opacity="0.6" fill="#496CB4" enable-background="new    " width="10.9" height="1.7"/>
<rect x="368.3" y="1123.3" opacity="0.6" fill="#496CB4" enable-background="new    " width="10.9" height="1.7"/>
<rect x="368.3" y="1126.7" opacity="0.6" fill="#496CB4" enable-background="new    " width="10.9" height="1.7"/>
<rect x="368.3" y="1129.8" opacity="0.6" fill="#496CB4" enable-background="new    " width="10.9" height="1.7"/>
<rect x="379.9" y="1107.2" opacity="0.6" fill="#496CB4" enable-background="new    " width="10.9" height="1.7"/>
<rect x="379.9" y="1110.6" opacity="0.6" fill="#496CB4" enable-background="new    " width="10.9" height="1.7"/>
<rect x="379.9" y="1113.6" opacity="0.6" fill="#496CB4" enable-background="new    " width="10.9" height="1.7"/>
<rect x="379.9" y="1117" opacity="0.6" fill="#496CB4" enable-background="new    " width="10.9" height="1.7"/>
<rect x="379.9" y="1120.3" opacity="0.6" fill="#496CB4" enable-background="new    " width="10.9" height="1.7"/>
<rect x="379.9" y="1123.3" opacity="0.6" fill="#496CB4" enable-background="new    " width="10.9" height="1.7"/>
<rect x="379.9" y="1126.7" opacity="0.6" fill="#496CB4" enable-background="new    " width="10.9" height="1.7"/>
<rect x="379.9" y="1129.8" opacity="0.6" fill="#496CB4" enable-background="new    " width="10.9" height="1.7"/>
<rect x="368.3" y="1081.2" opacity="0.6" fill="#496CB4" enable-background="new    " width="10.9" height="1.7"/>
<rect x="368.3" y="1084.3" opacity="0.6" fill="#496CB4" enable-background="new    " width="10.9" height="1.7"/>
<rect x="368.3" y="1087.9" opacity="0.6" fill="#496CB4" enable-background="new    " width="10.9" height="1.7"/>
<rect x="368.3" y="1090.8" opacity="0.6" fill="#496CB4" enable-background="new    " width="10.9" height="1.7"/>
<rect x="368.3" y="1094.2" opacity="0.6" fill="#496CB4" enable-background="new    " width="10.9" height="1.7"/>
<rect x="368.3" y="1097.4" opacity="0.6" fill="#496CB4" enable-background="new    " width="10.9" height="1.7"/>
<rect x="368.3" y="1100.6" opacity="0.6" fill="#496CB4" enable-background="new    " width="10.9" height="1.7"/>
<rect x="368.3" y="1103.9" opacity="0.6" fill="#496CB4" enable-background="new    " width="10.9" height="1.7"/>
<rect x="379.9" y="1081.2" opacity="0.6" fill="#496CB4" enable-background="new    " width="10.9" height="1.7"/>
<rect x="379.9" y="1084.3" opacity="0.6" fill="#496CB4" enable-background="new    " width="10.9" height="1.7"/>
<rect x="379.9" y="1087.9" opacity="0.6" fill="#496CB4" enable-background="new    " width="10.9" height="1.7"/>
<rect x="379.9" y="1090.8" opacity="0.6" fill="#496CB4" enable-background="new    " width="10.9" height="1.7"/>
<rect x="379.9" y="1094.2" opacity="0.6" fill="#496CB4" enable-background="new    " width="10.9" height="1.7"/>
<rect x="379.9" y="1097.4" opacity="0.6" fill="#496CB4" enable-background="new    " width="10.9" height="1.7"/>
<rect x="379.9" y="1100.6" opacity="0.6" fill="#496CB4" enable-background="new    " width="10.9" height="1.7"/>
<rect x="379.9" y="1103.9" opacity="0.6" fill="#496CB4" enable-background="new    " width="10.9" height="1.7"/>
<path fill="#CCCCCC" d="M609.6,1025.3h-0.3c-0.3,0-0.3-0.1-0.3-0.3v-27.3h-27v9.5c0,0.3-0.1,0.3-0.3,0.3h-0.5
	c-0.3,0-0.3-0.1-0.3-0.3v-0.1h-5.6v0.1c0,0.3-0.1,0.3-0.3,0.3h-0.3v7.9h0.3c0.3,0,0.3,0.1,0.3,0.3v0.1h5.8l0,0
	c0-0.3,0.1-0.3,0.3-0.3h0.5c0.3,0,0.3,0.1,0.3,0.3v24h27v-6.5c0-0.3,0.1-0.3,0.3-0.3h0.3L609.6,1025.3L609.6,1025.3z"/>
<rect x="582.1" y="1042.2" fill="#CCCCCC" width="21.1" height="28.7"/>
<path fill="#CCCCCC" d="M548.9,874.1L548.9,874.1l-6-0.1c-0.3,0-0.3-0.1-0.3-0.3v-14.3H507v26.1h35.7v-2.1c0-0.3,0.1-0.3,0.3-0.3
	h5.9v-0.3c0-0.3,0.1-0.3,0.3-0.3h0.5v-8.1h-0.5C549,874.4,548.9,874.3,548.9,874.1z"/>
<path fill="#CCCCCC" d="M507,831.5v26h35.7v-8c0-0.3,0.1-0.3,0.3-0.3v-7.8c-0.1,0-0.3-0.3-0.3-0.3v-9.8L507,831.5L507,831.5z"/>
<path fill="#CCCCCC" d="M507,886.5v26.1h35.7v-9.1c0-0.3,0.1-0.3,0.3-0.3v-7.8c-0.1,0-0.3-0.3-0.3-0.3v-8.6L507,886.5L507,886.5z"/>
<path fill="#CCCCCC" d="M582.1,874.3h5.8c0.3,0,0.3,0.1,0.3,0.3v0.3h7.9v-0.3c0-0.3,0.1-0.3,0.3-0.3h58.2v-34.4h-5.1
	c-0.3,0-0.3-0.1-0.3-0.3v-0.5h-7.8v0.5c0,0.3-0.1,0.3-0.3,0.3h-59V874.3L582.1,874.3z"/>
<path fill="#CCCCCC" d="M569.7,749.4l-1.3,0.3l-1.3,0.5l-1.1,0.7l-1.1,0.9l-0.7,1.1l-0.7,1.2l-0.4,1.3l-0.3,1.3l-0.1,1.3
	c0,0.1,0,0.1,0,0.1l0,0l0,0c0,0.1-0.1,0.1-0.1,0.1l0,0l0,0l0,0l-0.1,0.1l0,0l0,0c-0.1,0-0.1,0-0.1,0l0,0l0,0c-0.1,0-0.1,0-0.1,0l0,0
	l0,0c-0.1,0-0.1-0.1-0.1-0.1l0,0l0,0l0,0c-0.1-0.1-0.1-0.1-0.1-0.1l0,0v-0.3l-0.1-1.3l-0.3-1.3l-0.5-1.3l-0.7-1.1l-0.9-1.1l-1.1-0.9
	l-1.1-0.7l-1.2-0.4l-1.3-0.3l-0.9-0.1v8.2v0.5h16.3v-0.5v-8.3L569.7,749.4L569.7,749.4z"/>
<path fill="#CCCCCC" d="M473.7,895.2L473.7,895.2c-0.1,0.1-0.1,0.1-0.3,0.1h-3.7v17.5h11.4c0.3,0,0.3,0.1,0.3,0.3v0.3h7.8v-0.4
	c0-0.3,0.1-0.3,0.3-0.3h15.4v-40.6h-19.6v11.5h8l0,0l0,0l0,0l0,0l0,0l0,0l0,0l0,0l0,0l0,0l0,0l0,0l0,0l0,0l0,0l0,0l0,0l0,0l0,0l0,0
	l0,0l0,0l0,0l0,0l0,0l0,0l0,0l0,0l0.1,0.1c0.1,0.1,0.1,0.1,0.1,0.1l0,0l0,0l0,0l0,0l0,0l0,0l0,0l0,0l0,0l0,0l0,0l0,0l0,0l0,0l0,0
	l0,0l0,0l0,0l0,0l0,0l0,0l0,0l0,0l0,0l0,0l0,0l0,0l0,0l0,0l-0.1,1.3l-0.3,1.3l-0.5,1.3l-0.7,1.3L491,890l-1.1,0.9l-1.3,0.7l-1.3,0.5
	l-1.3,0.3l-1.1,0.1v1.6c0,0.3-0.1,0.3-0.3,0.3h-11.3l0,0C473.8,895.2,473.8,895.2,473.7,895.2z"/>
<path fill="#CCCCCC" d="M473.8,891v2h9.6v-0.2c0-0.3,0.1-0.3,0.3-0.3h0.3v-8h-0.4c-0.3,0-0.3-0.1-0.3-0.3v-12h-13.5v18.5h3.7
	C473.7,890.7,473.8,890.7,473.8,891z"/>
<path fill="#CCCCCC" d="M474.9,1014.3v6.1c0,0.3-0.1,0.3-0.3,0.3H471v21.1h6.5v-3.6c0-0.3,0.1-0.3,0.3-0.3h6.1
	c0.3,0,0.3,0.1,0.3,0.3v3.6h42.2v-2.7c0-0.3,0.1-0.3,0.3-0.3h14.9v-30.7c0-0.3,0.1-0.3,0.3-0.3h0.5v-8.6h-0.7
	c-0.3,0-0.3-0.1-0.3-0.3v-6.5H471v21.2h3.7C474.9,1013.9,474.9,1014.1,474.9,1014.3z"/>
<path fill="#CCCCCC" d="M474,953.3v3.7c0,0.3-0.1,0.3-0.3,0.3h-3.7v32.3h72.7v-2.7c0-0.3,0.1-0.3,0.3-0.3h0.5c0.3,0,0.3,0.1,0.3,0.3
	v0.1h5.9v-0.1c0-0.3,0.1-0.3,0.3-0.3h0.1v-7.9h-0.1c-0.3,0-0.3-0.1-0.3-0.3v-0.1h-5.9v0.1c0,0.3-0.1,0.3-0.3,0.3h-0.7
	c-0.3,0-0.3-0.1-0.3-0.3v-46c0-0.3,0.1-0.3,0.3-0.3v-7.9c-0.1,0-0.3-0.3-0.3-0.3v-9.1h-52.6c-0.3,0-0.3-0.1-0.3-0.3v-0.3h-7.8v0.3
	c0,0.3-0.1,0.3-0.3,0.3h-11.4v38.1h3.7C473.8,952.7,474,952.9,474,953.3z"/>
<path fill="#CCCCCC" d="M1064.9,1181l-0.3-1.2l-0.4-1.2l-0.7-1.1l-0.9-1.1l-1.1-0.9l-1.2-0.7l-1.2-0.4l-1.1-0.1l-1.2-0.1h-0.1
	c-0.1,0-0.1-0.1-0.1-0.1l0,0l0,0l0,0l0,0l-0.1-0.1l0,0l0,0c0-0.1,0-0.1,0-0.1c0-0.1,0-0.1,0-0.1l0,0l0,0l0,0c0,0,0-0.1,0.1-0.1l0,0
	l0,0l0,0l0,0c0.1-0.1,0.1-0.1,0.1-0.1l0,0l0,0h0.1l1.3-0.1l1.2-0.3l1.3-0.4l1.2-0.7l1.1-0.7l0.7-1.1l0.7-1.2l0.4-1.2l0.3-1.3
	l0.1-0.9h-8h-0.5v16.3h0.5h8L1064.9,1181z"/>
<path fill="#CCCCCC" d="M482.4,747.4h-3.7c-0.3,0-0.3-0.1-0.3-0.3v-3.7h-8.4v23.3h3.7c0.3,0,0.3,0.1,0.3,0.3v3.7
	c0,0.3-0.1,0.3-0.3,0.3h-3.7v57.8h3.7c0.3,0,0.3,0.1,0.3,0.3v0.9h1.6c0.3,0,0.3,0.1,0.3,0.3v0.3h7.8v-0.3c0-0.3,0.1-0.3,0.3-0.3
	h58.5v-9.1c0-0.3,0.1-0.3,0.3-0.3h0.5c0.3,0,0.3,0.1,0.3,0.3v0.3h5.9v-0.3c0-0.3,0.1-0.3,0.3-0.3h0.1v-7.9h-0.1
	c-0.3,0-0.3-0.1-0.3-0.3v-0.1h-5.6v0.1c0,0.3-0.1,0.3-0.3,0.3H543c-0.3,0-0.3-0.1-0.3-0.3v-32.9c0-0.3,0.1-0.3,0.3-0.3v-7.9
	c-0.1,0-0.3-0.3-0.3-0.3v-23.5h-9.6c-0.3,0-0.3-0.1-0.3-0.3v-3.8h-50.1v3.7C482.7,747.2,482.7,747.4,482.4,747.4z"/>
<path fill="#CCCCCC" d="M473.6,832.8H470v37.4h35.2v-38.6h-20.5l-0.1,1.1l-0.3,1.3v0.1l-0.5,1.3l-0.7,1.3l-0.9,1.1l-0.5,0.4
	l-0.4,0.4l-1.3,0.7l-1.3,0.5l-1.3,0.3l-1.3,0.1c0,0,0,0-0.1,0l0,0l0,0l0,0l0,0l0,0l0,0l0,0l0,0l0,0l0,0l0,0l0,0l0,0l0,0l0,0l0,0l0,0
	l0,0l0,0l0,0l0,0c0,0-0.1,0-0.1-0.1l0,0l0,0l0,0l0,0l0,0l0,0l0,0l0,0l0,0l0,0l0,0l0,0l0,0l0,0l0,0l0,0l0,0l0,0l0,0l0,0l0,0l0,0l0,0
	l0,0l0,0l0,0l0,0l0,0l0,0l0,0c0-0.1-0.1-0.1-0.1-0.1v-8h-1.4v1.1C473.8,832.8,473.7,832.8,473.6,832.8z"/>
<rect x="576" y="1187.5" fill="#CCCCCC" width="27" height="27.4"/>
<path fill="#CCCCCC" d="M561.2,1256L561.2,1256l-0.3,1.3l-0.5,1.3l-0.7,1.2l-0.9,1.1l-1.1,0.9l-1.3,0.7l-1.3,0.5l-1.3,0.3l-1.3,0.1
	l0,0l0,0l0,0l0,0l0,0l0,0l0,0l0,0l0,0l0,0l0,0l0,0l0,0l0,0l0,0l0,0l0,0l0,0l0,0l0,0l0,0c0,0,0,0-0.1,0l0,0l0,0l0,0l0,0l0,0l0,0l0,0
	l0,0l0,0l0,0l0,0l0,0l0,0l0,0l0,0l0,0l0,0l-0.1-0.1c0,0,0,0-0.1-0.1v-0.1c0,0,0,0,0-0.1l0,0l0,0l0,0l0,0l0,0l0,0l0,0l0,0l0,0l0,0
	l0,0l0,0l0,0l0,0l0,0l0,0c0,0,0,0,0-0.1l0,0v-8.2h-0.8v19.8h23.3v-19.8h-13.5L561.2,1256L561.2,1256z"/>
<path fill="#CCCCCC" d="M535.2,1141.7l-1.3-0.5l-1.2-0.9l-1.1-0.9l-0.1-0.1l-0.7-1.2l-0.5-1.2l-0.3-1.3l-0.1-1.3l0,0
	c0-0.1,0-0.1,0-0.1l0,0c0-0.1,0.1-0.1,0.1-0.1c0.1-0.1,0.1-0.1,0.1-0.1l0,0h0.1l0,0h7.1v-18.5h-11.5c0,0,0,0.1-0.1,0.1l-0.3,0.3
	c-0.1,0.1-0.3,0.1-0.4,0l-0.3-0.3l-0.1-0.1h-11.4v23.3h1.1c0.3,0,0.3,0.1,0.3,0.3v21.6h22.5v-18.5l-1.1-0.1L535.2,1141.7z"/>
<path fill="#CCCCCC" d="M541.5,1154.9L541.5,1154.9C541.4,1154.9,541.4,1154.9,541.5,1154.9l-0.3-0.1l0,0l0,0l0,0l0,0
	c0-0.1-0.1-0.1-0.1-0.1v-0.1l0,0l0,0l0.1-1.3v-0.1l0.4-1.3l0.5-1.3c0,0,0-0.1,0.1-0.1l0.7-1.1l1.1-1.1l1.2-0.7l1.2-0.5l1.3-0.3
	l1.1-0.1v-11.5h-5.9c-0.3,0-0.3-0.1-0.3-0.3v-1.3h-1.3v0.1c0,0.3-0.1,0.3-0.3,0.3h-1.1v0.3c0,0.3-0.1,0.3-0.3,0.3h-0.4v7h0.5
	c0.3,0,0.3,0.1,0.3,0.3v13.8h8.7v-0.5L541.5,1154.9L541.5,1154.9z"/>
<path fill="#CCCCCC" d="M503.2,1154.3v-0.7c0-0.3,0.1-0.3,0.3-0.3h6.2v-78.5H488v78.5h6.5c0.3,0,0.3,0.1,0.3,0.3v0.7h8.6
	L503.2,1154.3L503.2,1154.3z"/>
<path fill="#CCCCCC" d="M513.6,1105.9h15.4v-13.6c0-0.3,0.1-0.3,0.3-0.3h2.6c0.3,0,0.3,0.1,0.3,0.3v0.3h7v-0.3
	c0-0.3,0.1-0.3,0.3-0.3h7.3v-18.3h-10.3h-1.7h-12.5v3.6c0,0.3-0.1,0.3-0.3,0.3h-8.3L513.6,1105.9L513.6,1105.9z"/>
<path fill="#CCCCCC" d="M534.7,1070.4h1.7c0.3,0,0.3,0.1,0.3,0.3v1.2h11.7v-3.4c0-0.3,0.1-0.3,0.3-0.3h0.5v-7.8h-0.3
	c0,0.3-0.1,0.3-0.3,0.3H545c-0.3,0-0.3-0.1-0.3-0.3v-2.2c-0.3,0-0.3-0.1-0.3-0.3v-3.6c0-0.3,0.1-0.3,0.3-0.3v-8.6h-15v26.5h4.6v-1.2
	C534.3,1070.5,534.4,1070.4,534.7,1070.4z"/>
<path fill="#CCCCCC" d="M420.4,1154.6h10.3v-53.9h-13.3v8.2l0,0l0,0c0,0.1,0,0.1,0,0.1l0,0l0,0c0,0.1-0.1,0.1-0.1,0.1l0,0l0,0l0,0
	c-0.1,0.1-0.1,0.1-0.1,0.1l0,0l0,0c0,0,0,0-0.1,0l-1.3-0.1l-1.3-0.3h-0.1l-1.2-0.5l-1.2-0.7l-1.1-0.9l-0.9-1.1l-0.7-1.3l-0.5-1.3
	l-0.3-1.3l-0.1-1.2H397v54h15.3c0.3,0,0.3,0.1,0.3,0.3v0.5c0,0.3-0.1,0.3-0.3,0.3H412v5.4h0.3c0.3,0,0.3,0.1,0.3,0.3v0.3h7.8v-0.3
	c0-0.3,0.1-0.3,0.3-0.3h0.1v-5.4h-0.1c-0.3,0-0.3-0.1-0.3-0.3v-0.5C420.2,1154.7,420.2,1154.6,420.4,1154.6z"/>
<path fill="#CCCCCC" d="M541.5,1105.7L541.5,1105.7c-0.1,0-0.3-0.1-0.3-0.1l0,0l0,0l0,0l0,0l0,0l0,0l0,0l0,0l0,0l0,0
	c0-0.1-0.1-0.1-0.1-0.3l0.1-1.3v-0.1l0.4-1.3l0.5-1.3c0,0,0-0.1,0.1-0.1l0.7-1.2c0,0,0-0.1,0.1-0.1l1.1-0.9l1.2-0.7l1.3-0.5l1.3-0.3
	l1.1-0.1v-3.4h-8.8l-0.1,1.1l-0.3,1.3l-0.5,1.3l-0.9,1.2l-0.9,1.1l-0.1,0.1l-1.2,0.7l-1.3,0.5l-1.3,0.3l-1.3,0.1c0,0,0,0-0.1,0l0,0
	l0,0l0,0l0,0l0,0l0,0l0,0l0,0l0,0l0,0c-0.1,0-0.1-0.1-0.3-0.1c-0.1-0.1-0.1-0.1-0.1-0.1l0,0l0,0l0,0l0,0l0,0l0,0l0,0l0,0l0,0l0,0
	l0,0l0,0l0,0l0,0l0,0l0,0l0,0c0,0,0,0,0-0.1v-7.1h-0.5v12h17.5v-0.3h-7.5C541.5,1105.7,541.5,1105.7,541.5,1105.7z"/>
<path fill="#CCCCCC" d="M539,1233.2l0.5-1.3l0.7-1.2l0.9-1.1l1.1-0.9l1.3-0.7l1.3-0.5l1.3-0.3l1.3-0.1c0.1,0,0.1,0,0.1,0l0,0l0,0
	c0.1,0,0.1,0.1,0.1,0.1l0,0l0,0l0,0l0,0l0,0l0,0l0,0l0,0l0,0l0,0l0,0l0,0l0,0l0,0l0,0l0,0l0,0l0,0c0.1,0.1,0.1,0.1,0.1,0.3v8.2h1.1
	v-7c0-0.3,0.1-0.3,0.3-0.3h0.5v-7.8H549c-0.3,0-0.3-0.1-0.3-0.3v-26.6H509c-0.3,0-0.3-0.1-0.3-0.3h-7.9c0,0.1-0.3,0.3-0.3,0.3h-14.9
	v42h8.2v-8.2c0,0,0,0,0-0.1l0,0l0,0l0,0c0-0.1,0-0.1,0-0.1l0,0l0,0l0,0l0,0l0,0l0,0l0,0l0,0l0,0l0,0l0,0l0,0l0,0l0,0l0,0l0,0l0,0
	l0,0l0,0l0,0c0.1-0.1,0.1-0.1,0.3-0.1l0,0l0,0l0,0c0.1,0,0.1,0,0.1,0l1.3,0.1l1.3,0.3l1.3,0.5l1.2,0.7l1.1,0.9l0.9,1.1l0.7,1.2
	l0.5,1.3l0.3,1.3l0.1,1.2h35.7l0.1-1.1L539,1233.2z"/>
<path fill="#CCCCCC" d="M396.6,1099.2h12c0.3,0,0.3,0.1,0.3,0.3v0.1h7.9v-0.1c0-0.3,0.1-0.3,0.3-0.3h13.7v-10.4l-1.1-0.1l-1.3-0.3
	l-1.3-0.5l-1.2-0.7l-1.2-0.9l-0.9-1.1l-0.7-1.3l-0.5-1.3l-0.3-1.3l-0.1-1.3l0,0c0-0.1,0-0.1,0-0.1l0,0l0,0l0,0l0,0
	c0-0.1,0.1-0.1,0.1-0.1l0,0l0,0c0-0.1,0.1-0.1,0.1-0.1l0,0c0.1,0,0.1,0,0.1,0l0,0h8.2v-5.9h-33.3v3.6c0,0.3-0.1,0.3-0.3,0.3h-0.5
	L396.6,1099.2L396.6,1099.2L396.6,1099.2z"/>
<path fill="#CCCCCC" d="M771,1073.4v3.6c0,0.3-0.1,0.3-0.3,0.3h-3.7c-0.3,0-0.3-0.1-0.3-0.3v-3.6h-44.9v62.7c0,0.3-0.1,0.3-0.3,0.3
	h-0.5v7.9h0.5c0.3,0,0.3,0.1,0.3,0.3v10h8c0.3,0,0.3,0.1,0.3,0.3h7.8c0-0.3,0.1-0.3,0.3-0.3h61.8c0.3,0,0.3,0.1,0.3,0.3v0.5
	c0,0.3-0.1,0.3-0.3,0.3l0,0v5.4h0.3c0.3,0,0.3,0.1,0.3,0.3v0.3h7.8v-0.3c0-0.3,0.1-0.3,0.3-0.3h0.3v-5.4h-0.3
	c-0.3,0-0.3-0.1-0.3-0.3v-0.5c0-0.3,0.1-0.3,0.3-0.3H821v-10c0-0.3,0.1-0.3,0.3-0.3h0.5v-7.8H821c-0.3,0-0.3-0.1-0.3-0.3v-59v-3.6
	L771,1073.4L771,1073.4z"/>
<path fill="#CCCCCC" d="M708.2,1077.3h-3.7c-0.3,0-0.3-0.1-0.3-0.3v-3.6H690v62.3h8.2l0,0c0,0,0,0,0.1,0l0,0l0,0l0,0l0,0l0,0l0,0
	l0,0l0,0l0,0l0,0l0,0l0,0l0,0l0,0l0,0l0,0l0,0l0,0l0,0l0,0l0,0l0,0l0,0c0.1,0,0.1,0.1,0.1,0.1l0.1,0.1l0,0l0,0l0,0l0,0v0.1v0.1l0,0
	l0,0l0,0l0,0l-0.1,1.3l-0.3,1.3l-0.5,1.3l-0.7,1.3l-0.9,1.1c0,0,0,0.1-0.1,0.1l-1.1,0.9l-1.3,0.7l-1.3,0.5l-1.3,0.3l-1.2,0.1v9.8
	h29.9v-9.6l-1.1-0.1h-0.2l-1.3-0.3l-1.3-0.5l-1.3-0.7l-1.1-0.9l-0.9-1.1l-0.7-1.2l-0.5-1.3l-0.3-1.3l-0.1-1.3l0,0l0,0v-0.1v-0.1l0,0
	l0,0l0,0l0,0l0,0l0,0l0,0l0,0l0,0c0,0,0-0.1,0.1-0.1l0,0l0,0l0,0c0.1-0.1,0.1-0.1,0.1-0.1l0,0l0,0l0,0l0,0l0,0l0,0l0,0l0,0l0,0l0,0
	l0,0l0,0l0,0l0,0l0,0l0,0l0,0l0,0l0,0l0,0l0,0l0,0l0,0l0,0l0,0l0,0l0,0c0,0,0,0,0.1,0l0,0h8v-62.4h-10.8v3.4
	C708.5,1077.2,708.5,1077.3,708.2,1077.3z"/>
<path fill="#CCCCCC" d="M646.4,1077.4h-3.7c-0.3,0-0.3-0.1-0.3-0.3v-3.6h-57.7v3.6c0,0.3-0.1,0.3-0.3,0.3h-8.1v77.3h9.9
	c0.3,0,0.3,0.1,0.3,0.3h7.9c0-0.3,0.1-0.3,0.3-0.3h72.1c0.3,0,0.3,0.1,0.3,0.3h7.9c0-0.3,0.1-0.3,0.3-0.3h12.4v-10
	c0-0.3,0.1-0.3,0.3-0.3h0.5v-7.8h-0.7c-0.3,0-0.3-0.1-0.3-0.3v-62.7h-40.7v3.6L646.4,1077.4z"/>
<path fill="#CCCCCC" d="M832.9,1077.4h-9.6v58.2h8l0,0c0,0,0,0,0.1,0l0,0l0,0l0,0l0,0l0,0l0,0l0,0l0,0c0,0,0,0,0.1,0l0,0l0,0l0,0
	l0,0l0,0l0,0l0,0l0,0l0,0l0,0l0,0l0,0l0,0c0.1,0,0.1,0.1,0.1,0.1l0,0l0,0c0,0,0,0.1,0.1,0.1c0,0,0,0.1,0.1,0.1l0,0l0,0l0,0l0,0l0,0
	c0,0.1,0,0.1,0,0.1l0,0l0,0l-0.1,1.3l-0.3,1.3l-0.5,1.3l-0.7,1.3l-0.9,1.1l-1.1,0.9l-1.3,0.7l-1.3,0.5l-1.3,0.3l-1.2,0.1v9.8h24.6
	v-9.8l-1.2-0.3l-1.3-0.3l-1.3-0.5l-1.3-0.7l-1.1-0.9l-0.9-1.1l-0.7-1.3l-0.5-1.3l-0.3-1.3l-0.1-1.3c0-0.1,0-0.1,0-0.1l0,0l0,0
	c0.1-0.1,0.3-0.3,0.3-0.3h8v-62.3h-14.9v3.7C833.4,1077.3,833.2,1077.4,832.9,1077.4z"/>
<path fill="#CCCCCC" d="M957.4,1077.3h-3.7c-0.3,0-0.3-0.1-0.3-0.3v-3.6H948v80.9h8.2c0.3,0,0.3,0.1,0.3,0.3h7.8
	c0-0.3,0.1-0.3,0.3-0.3h8v-80.9h-14.8v3.6C957.9,1077.2,957.4,1077.3,957.4,1077.3z"/>
<path fill="#CCCCCC" d="M895.3,1077.3h-3.7c-0.3,0-0.3-0.1-0.3-0.3v-3.6h-41.1v62.6c0,0.3-0.1,0.3-0.3,0.3h-0.3v7.8h0.3
	c0.3,0,0.3,0.1,0.3,0.3v10h9.5c0.3,0,0.3,0.1,0.3,0.3v0.5c0,0.3-0.1,0.3-0.3,0.3h-0.4v5.4h0.3c0.3,0,0.3,0.1,0.3,0.3v0.3h7.8l0,0
	c0-0.3,0.1-0.3,0.3-0.3h0.3v-5.4H868c-0.3,0-0.3-0.1-0.3-0.3v-0.5c0-0.3,0.1-0.3,0.3-0.3h60.1c0.3,0,0.3,0.1,0.3,0.3h7.9
	c0-0.3,0.1-0.3,0.3-0.3h8.8v-80.8h-49.7v3.6C895.5,1077.2,895.4,1077.3,895.3,1077.3z"/>
<path fill="#CCCCCC" d="M650.8,832.8v-3.7c0-0.3,0.1-0.3,0.3-0.3h3.6v-57.6h-3.6c-0.3,0-0.3-0.1-0.3-0.3v-3.8c0-0.3,0.1-0.3,0.3-0.3
	h3.6v-23.4h-8.3v3.7c0,0.3-0.1,0.3-0.3,0.3h-3.7c-0.3,0-0.3-0.1-0.3-0.3v-3.7H592v3.7c0,0.3-0.1,0.3-0.3,0.3h-9.5v23.3
	c0,0.3-0.1,0.3-0.3,0.3v7.9c0.1,0,0.3,0.3,0.3,0.3v41.4c0,0.3-0.1,0.3-0.3,0.3h-1.1c-0.3,0-0.3-0.1-0.3-0.3v-0.1h-5.4v0.1
	c0,0.3-0.1,0.3-0.3,0.3h-0.3v7.9h0.3c0.3,0,0.3,0.1,0.3,0.3v0.1h5.4V829c0-0.3,0.1-0.3,0.3-0.3h1.1c0.3,0,0.3,0.1,0.3,0.3v8.4h58.5
	l0.1-1.1l0.3-1.3l0.5-1.3l0.7-1.3l0.9-1.1l1.1-0.9l1.3-0.7l1.3-0.5l1.3-0.3l1.3-0.1h0.1l0,0l0,0l0,0l0,0l0,0l0,0l0,0l0,0l0,0
	c0.1,0,0.1,0.1,0.3,0.1l0,0l0,0l0,0l0,0l0,0l0,0c0,0,0,0.1,0.1,0.1l0,0l0,0l0,0l0,0l0,0l0,0l0,0v0.1l0,0l0,0l0,0c0,0,0,0,0,0.1v8
	h4.9v-4.1h-3.5C651,833.3,650.8,833,650.8,832.8z"/>
<path fill="#CCCCCC" d="M641.9,1038.8h3.8c0.3,0,0.3,0.1,0.3,0.3v3.6h8.4v-22.9H651c-0.3,0-0.3-0.1-0.3-0.3v-3.7
	c0-0.3,0.1-0.3,0.3-0.3h3.6v-17.8h-10.8c-0.3,0-0.3-0.1-0.3-0.3v-0.3H636v0.3c0,0.1,0,0.1,0,0.1h3.6c0.3,0,0.3,0.1,0.3,0.3v0.5
	c0,0.3-0.1,0.3-0.3,0.3h-8.2c-0.3,0-0.3-0.1-0.3-0.3v-0.5c0-0.1,0-0.1,0-0.1h-20.2v27l1.1,0.1l1.3,0.3h0.1l1.3,0.5l1.3,0.7l1.1,0.9
	l0.9,1.1c0,0,0,0.1,0.1,0.1l0.7,1.3l0.5,1.2l0.3,1.3l0.1,1.3l0,0l0,0l0,0c0,0.1,0,0.1,0,0.1l0,0l0,0c0,0.1-0.1,0.1-0.1,0.1l0,0l0,0
	c-0.1,0.1-0.1,0.1-0.1,0.1l0,0l0,0l0,0l0,0h-0.1l0,0l0,0l0,0h-8.2v6.1h30.6v-0.5C641.7,1038.9,641.9,1038.8,641.9,1038.8z"/>
<path fill="#CCCCCC" d="M650.8,957.2v-3.7c0-0.3,0.1-0.3,0.3-0.3h3.6v-57.8h-3.6c-0.3,0-0.3-0.1-0.3-0.3v-3.7c0-0.3,0.1-0.3,0.3-0.3
	h3.6V877h-58v8l0,0l0,0l0,0v0.1l0,0l0,0l0,0l0,0l0,0c0,0.1-0.1,0.1-0.1,0.1l0,0l0,0l0,0l0,0l0,0l-0.1,0.1l0,0l0,0l0,0l0,0
	c-0.1,0-0.1,0-0.1,0l0,0l-1.3-0.1l-1.3-0.3l-1.3-0.5l-1.2-0.5l-1.1-0.9l-0.9-1.1l-0.7-1.3l-0.5-1.3l-0.3-1.3l-0.1-1.2h-5.5v6.3
	c0,0.3-0.1,0.3-0.3,0.3v7.8c0.1,0,0.3,0.3,0.3,0.3V979c0,0.3-0.1,0.3-0.3,0.3h-0.5c-0.3,0-0.3-0.1-0.3-0.3v-0.1h-5.9v0.1
	c0,0.3-0.1,0.3-0.3,0.3h-0.3v7.9h0.3c0.3,0,0.3,0.1,0.3,0.3v0.1h5.8v-0.1c0-0.3,0.1-0.3,0.3-0.3h0.5c0.3,0,0.3,0.1,0.3,0.3v8.7h53.5
	c0.3,0,0.3,0.1,0.3,0.3v0.3h7.4v-0.3c0-0.3,0.1-0.3,0.3-0.3h10.9v-38.1h-3.3C651,957.5,650.8,957.4,650.8,957.2z"/>
<path fill="#CCCCCC" d="M518.5,1270.6h3.7c0.3,0,0.3,0.1,0.3,0.3v3.7h26.3v-37.3h-1.3c-0.3,0-0.3-0.1-0.3-0.3v-0.3h-7.9v0.3
	c0,0.3-0.1,0.3-0.3,0.3h-0.4v8.3c0,0.3-0.1,0.3-0.3,0.3H537c-0.3,0-0.3-0.1-0.3-0.3v-8.3H506v8.3c0,0.3-0.1,0.3-0.3,0.3h-1.4
	c-0.3,0-0.3-0.1-0.3-0.3v-8.3h-0.9c-0.3,0-0.3-0.1-0.3-0.3v-0.3h-7.8v0.3c0,0.3-0.1,0.3-0.3,0.3h-7.1v9.5h7c0.3,0,0.3,0.1,0.3,0.3
	v1.3c0,0.3-0.1,0.3-0.3,0.3h-8.3v25.8h32.3v-3.7C518.2,1270.8,518.2,1270.6,518.5,1270.6z"/>
<path fill="#CCCCCC" d="M580.1,1270.6h3.7c0.3,0,0.3,0.1,0.3,0.3v3.7h16.7v-35h-24.5v1.1h5.8c0.1,0,0.1,0,0.1,0.1l0,0l0,0l0,0l0,0
	l0,0l0,0l0,0l0,0l0,0c0,0,0.1,0,0.1,0.1l0,0l0,0l0,0l0,0c0.1,0.1,0.1,0.1,0.1,0.3l0,0l0,0l0,0l0,0l0,0l0,0l0,0l0,0l0,0l0,0l0,0l0,0
	l0,0l0,0l0,0l0,0l0,0l0,0l0,0l0,0l0,0l0,0l0,0l0,0l0,0l0,0l0,0l0,0c0,0,0,0,0,0.1l-0.1,1.2l-0.3,1.2v0.1l-0.5,1.1c0,0,0,0.1-0.1,0.1
	l-0.7,0.9l-0.9,0.7l-1.1,0.5h-0.2l-0.5,0.1l0.5,0.1h0.1l1.1,0.5l1.1,0.7l0.1,0.1l0.7,1.1c0,0,0,0.1,0.1,0.1l0.5,1.1l0.4,1.2v0.1
	l0.1,1.2l0,0l0,0l0,0l0,0l0,0c0,0,0,0,0,0.1l0,0l0,0l0,0l0,0l0,0l0,0l0,0l0,0l0,0c0,0.1-0.1,0.1-0.1,0.1l0,0l0,0l0,0l0,0l0,0l0,0
	l0,0l0,0l0,0l0,0l0,0l0,0l-0.1,0.1l0,0l0,0l0,0l0,0l0,0l0,0l0,0l0,0h-0.1h-0.1l0,0l0,0l0,0l0,0l0,0l0,0l0,0l0,0H576v21.1h3.6v-3.7
	C579.9,1270.8,580,1270.6,580.1,1270.6z"/>
<path fill="#CCCCCC" d="M459.5,1077.4h-3.7c-0.3,0-0.3-0.1-0.3-0.3v-3.6h-22.1v6.2c0,0.3-0.1,0.3-0.3,0.3h-0.5v7.9h0.5
	c0.3,0,0.3,0.1,0.3,0.3v66.3h9c0.3,0,0.3,0.1,0.3,0.3v0.5c0,0.3-0.1,0.3-0.3,0.3h-0.1v5.4h0.1c0.3,0,0.3,0.1,0.3,0.3v0.3h7.9v-0.1
	c0-0.3,0.1-0.3,0.3-0.3h0.1v-5.4h-0.1c-0.3,0-0.3-0.1-0.3-0.3v-0.5c0-0.3,0.1-0.3,0.3-0.3h30.9v-80.8h-22.2L459.5,1077.4
	C459.8,1077.3,459.6,1077.4,459.5,1077.4z"/>
<path fill="#CCCCCC" d="M365.8,1200.7v3.7c0,0.3-0.1,0.3-0.3,0.3h-3.7v52.2h3.7c0.3,0,0.3,0.1,0.3,0.3v3.7c0,0.3-0.1,0.3-0.3,0.3
	h-3.7v13.5h31.6v-3.7c0-0.3,0.1-0.3,0.3-0.3h3.7c0.3,0,0.3,0.1,0.3,0.3v3.7h57.8v-3.7c0-0.3,0.1-0.3,0.3-0.3h3.7
	c0.3,0,0.3,0.1,0.3,0.3v3.7h23.7v-81.2h-3.7c-0.3,0-0.3-0.1-0.3-0.3h-7.8c0,0.1-0.3,0.3-0.3,0.3h-95.2c-0.3,0-0.3-0.1-0.3-0.3h-7.8
	c0,0.1-0.3,0.3-0.3,0.3h-6.1v6.8h3.7C365.4,1200.4,365.8,1200.6,365.8,1200.7z"/>
<path fill="#496CB4" d="M1047.5,1091v-3.6c0-0.3,0.1-0.3,0.3-0.3h3.6v-13.5h-31.4v3.6c0,0.3-0.1,0.3-0.3,0.3h-3.8
	c-0.3,0-0.3-0.1-0.3-0.3v-3.6h-41v80.9h2.7c0.3,0,0.3,0.1,0.3,0.3h7.9c0-0.3,0.1-0.3,0.3-0.3h32.8c0.3,0,0.3,0.1,0.3,0.3h7.8
	c0-0.3,0.1-0.3,0.3-0.3h20.4v-10.4c0-0.3,0.1-0.3,0.3-0.3h3.7v-52.2h-3.6C1047.7,1091.4,1047.5,1091.2,1047.5,1091z"/>
<path fill="#CCCCCC" d="M953.3,1270.8h3.7c0.3,0,0.3,0.1,0.3,0.3v3.6h39.4v-4.1c0-0.3,0.1-0.3,0.3-0.3h0.3v-7.8h-0.4
	c-0.3,0-0.3-0.1-0.3-0.3v-44.6h-3.2c-0.3,0-0.3-0.1-0.3-0.3v-23.5h-8.3c-0.3,0-0.3-0.1-0.3-0.3h-7.8c0,0.3-0.1,0.3-0.3,0.3h-44.8
	c-0.3,0-0.3-0.1-0.3-0.3h-7.9c0,0.3-0.1,0.3-0.3,0.3h-6.2v81.2h36.3v-3.6C953.1,1270.9,953.2,1270.8,953.3,1270.8z"/>
<path fill="#CCCCCC" d="M816.3,1211.6h-8l0,0l0,0l0,0l0,0l0,0l0,0l0,0l0,0l0,0h-0.1l0,0l0,0l0,0l0,0l0,0l0,0l0,0l0,0l0,0l0,0
	c0,0-0.1,0-0.1-0.1c0,0,0,0-0.1,0l0,0l0,0l0,0l0,0l0,0l0,0l0,0l-0.1-0.1l0,0l0,0l0,0l0,0l0,0l0,0l0,0l0,0l0,0l0,0c0-0.1,0-0.1,0-0.1
	l0,0l0,0l0,0l0,0l0,0l0.1-1.3l0.3-1.3l0.5-1.3l0.7-1.2l0.9-1.1l1.1-0.9c0,0,0.1,0,0.1-0.1l1.3-0.7l1.2-0.5l1.3-0.3h0.1l1.1-0.1v-2.7
	h-25.8v2.7l1.1,0.1h0.1l1.3,0.3l1.3,0.5l1.3,0.7l1.1,0.9l0.9,1.1l0.7,1.2l0.5,1.3l0.3,1.3v0.1l0.1,1.3l0,0l0,0l0,0v0.1l0,0l0,0l0,0
	l0,0l0,0l0,0l0,0l0,0l0,0l0,0l0,0l0,0c0,0,0,0.1-0.1,0.1l0,0l0,0l0,0l0,0l0,0l0,0l0,0l0,0l0,0l0,0l0,0l0,0c0,0-0.1,0-0.1,0.1
	c0,0,0,0-0.1,0l0,0l0,0l0,0l0,0l0,0c-0.1,0-0.1,0-0.1,0h-8v62.8h26v-3.7L816.3,1211.6L816.3,1211.6L816.3,1211.6z"/>
<path fill="#CCCCCC" d="M704.5,1270.6h3.7c0.3,0,0.3,0.1,0.3,0.3v3.7h57.8v-3.7c0-0.3,0.1-0.3,0.3-0.3h3.7c0.3,0,0.3,0.1,0.3,0.3
	v3.7H788v-63.2c0-0.3,0.1-0.3,0.3-0.3h0.3v-8h-0.3c-0.3,0-0.3-0.1-0.3-0.3v-9.5h-8.6c-0.3,0-0.3-0.1-0.3-0.3v-0.7
	c0-0.3,0.1-0.3,0.3-0.3h0.1v-5.3h-0.1c-0.3,0-0.3-0.1-0.3-0.3v-0.4h-7.9v0.3c0,0.3-0.1,0.3-0.3,0.3h-0.1v5.4h0.1
	c0.3,0,0.3,0.1,0.3,0.3v0.7c0,0.3-0.1,0.3-0.3,0.3h-64.7c-0.3,0-0.3-0.1-0.3-0.3h-7.9c0,0.3-0.1,0.3-0.3,0.3h-8.4v81.2h14.3v-3.7
	C704.3,1270.8,704.3,1270.6,704.5,1270.6z"/>
<path fill="#CCCCCC" d="M642.5,1270.6h3.7c0.3,0,0.3,0.1,0.3,0.3v3.7H687v-81.2h-7c-0.3,0-0.3-0.1-0.3-0.3h-7.8
	c0,0.3-0.1,0.3-0.3,0.3h-22.1v7.3c0,0.3-0.1,0.3-0.3,0.3H648c-0.3,0-0.3-0.1-0.3-0.3v-3.3h-0.4c-0.3,0-0.3-0.1-0.3-0.3H632
	c0,0.3-0.1,0.3-0.3,0.3h-0.3v3.3c0,0.3-0.1,0.3-0.3,0.3h-1.3c-0.3,0-0.3-0.1-0.3-0.3v-7.3h-5.2c-0.3,0-0.3-0.1-0.3-0.3h-7.9
	c0,0.3-0.1,0.3-0.3,0.3h-9.8v23.7c0,0.3-0.1,0.3-0.3,0.3h-1.8v1.7c0,0.3-0.1,0.3-0.3,0.3h-0.6v9.2h0.7c0.3,0,0.3,0.1,0.3,0.3v45.3
	h39.1v-3.6C642.2,1270.8,642.4,1270.6,642.5,1270.6z"/>
<path fill="#CCCCCC" d="M832.9,1270.9v3.7h57.7v-3.7c0-0.3,0.1-0.3,0.3-0.3h3.7c0.3,0,0.3,0.1,0.3,0.3v3.7h19.1v-81.2h-6.1
	c-0.3,0-0.3-0.1-0.3-0.3v-0.7c0-0.3,0.1-0.3,0.3-0.3h0.1v-5.4h-0.1c-0.3,0-0.3-0.1-0.3-0.3v-0.3h-7.8v0.3c0,0.3-0.1,0.3-0.3,0.3
	h-0.1v5.4h0.1c0.3,0,0.3,0.1,0.3,0.3v0.7c0,0.3-0.1,0.3-0.3,0.3H835c-0.3,0-0.3-0.1-0.3-0.3h-7.9c0,0.3-0.1,0.3-0.3,0.3H819v9.5
	c0,0.3-0.1,0.3-0.3,0.3h-0.5v7.9h0.5c0.3,0,0.3,0.1,0.3,0.3v59h13.7C832.8,1270.6,832.9,1270.8,832.9,1270.9z"/>
<path fill="#CCCCCC" d="M553.3,1114.8l1.1-0.4l1.1-0.7l0.7-0.7l0.7-0.9l0.5-1.2l0.3-1.2l0.1-0.7h-6.6h-1.7c-0.3,0-0.3-0.1-0.3-0.3
	v-0.9h-8.6v1.3h4.6l0,0l0,0l0,0l0,0l0,0l0,0c0,0,0,0,0.1,0l0,0l0,0l0,0l0,0l0,0l0,0l0,0l0,0l0,0c0.1,0,0.1,0.1,0.1,0.1l0,0l0,0l0,0
	l0,0l0,0l0,0l0,0l0,0l0,0l0,0l0,0l0,0l0,0l0,0l0,0l0,0l0,0l0,0l0,0l0,0l0,0l0,0l0,0l0,0l0,0l0,0l0,0l0,0l0,0l0,0l0,0l0,0l0,0v0.1
	l0,0l0,0l0,0l0,0l-0.1,1.1v0.1l-0.3,1.1c0,0,0,0.1-0.1,0.1l-0.5,0.9l-0.1,0.1l-0.7,0.7l-1.1,0.5l-1.1,0.4h-0.1l-0.7,0.1v16.5h8.7
	v-15.3c0-0.3,0.1-0.3,0.3-0.3h1.7l1.3-0.1L553.3,1114.8z"/>
<path fill="#CCCCCC" d="M1047.1,1250.5v-11.7c0-0.1,0.1-0.3,0.3-0.3v-15.1c-0.1,0-0.1,0-0.1,0c-0.3,0-0.3-0.1-0.3-0.3v-7.1
	c0-0.3,0.1-0.3,0.3-0.3c0.1,0,0.1,0,0.1,0v-28.6h-9.1c-0.1,0-0.1,0-0.1-0.1l-0.9-0.4l-0.9-0.7l-0.1-0.1l-0.5-0.7l-0.4-1.1v-0.1
	l-0.3-1.1v-0.3h-1.3v2.6c0,0.3-0.1,0.3-0.3,0.3h-1.2v0.3c0,0.1-0.1,0.3-0.3,0.3c0.1,0.1,0.3,0.3,0.3,0.3l-0.1,1.4l-0.3,1.3l-0.5,1.3
	l-0.7,1.3l-0.9,1.2l-1.1,1.1l-1.3,0.9l-1.3,0.7l-1.3,0.5l-1.4,0.3l-1.4,0.1l0,0c-0.1,0-0.1,0-0.1,0l0,0l0,0l0,0l0,0
	c0,0-0.1,0-0.1-0.1l0,0l0,0l0,0l0,0l0,0l0,0l0,0c-0.1,0-0.1-0.1-0.1-0.1c0-0.1-0.1-0.1-0.1-0.1v-10c0-0.1,0.1-0.3,0.3-0.3
	c-0.1-0.1-0.3-0.3-0.3-0.3v-0.1h-36.1v6.7c0,0.3-0.1,0.3-0.3,0.3h-0.3v0.1h8.3c0.3,0,0.3,0.1,0.3,0.3v23.6h3.2
	c0.3,0,0.3,0.1,0.3,0.3v44.6h0.5v-43.7c0-0.3,0.1-0.3,0.3-0.3h17.9c0.3,0,0.3,0.1,0.3,0.3v53.6c0,0.3-0.1,0.3-0.3,0.3h-0.5v3.3h31.4
	v-24C1047.3,1250.6,1047.1,1250.5,1047.1,1250.5z M1016.8,1215.3c0,0.3-0.1,0.3-0.3,0.3h-20.9c-0.3,0-0.3-0.1-0.3-0.3v-22.2
	c0-0.3,0.1-0.3,0.3-0.3h20.9c0.3,0,0.3,0.1,0.3,0.3V1215.3z"/>
<rect x="995.9" y="1193.3" fill="#CCCCCC" width="20.2" height="21.6"/>
<path fill="#CCCCCC" d="M1016.2,1217.4H999v44l1.1,0.1h0.1l1.3,0.3l1.3,0.5l1.3,0.7l1.1,0.9l0.9,1.1l0.7,1.2l0.5,1.3l0.3,1.3v0.1
	l0.1,1.3c0,0.1,0,0.1,0,0.1l0,0l0,0l0,0l0,0l0,0l0,0l0,0l0,0l0,0l0,0l0,0l0,0l-0.1,0.1c0,0,0,0-0.1,0.1c-0.1,0-0.1,0.1-0.3,0.1h-8.2
	v3.7h16.5v-3.7c0-0.3,0.1-0.3,0.3-0.3h0.5v-53h0V1217.4z"/>
<g>
	
		<rect x="554.4" y="723.9" transform="matrix(3.236244e-03 1 -1 3.236244e-03 1292.3837 166.1776)" fill="#FFFFFF" width="16.9" height="14.9"/>
	<polygon fill="#496CB4" points="556.4,717.3 568.4,717.1 562.6,727.4 	"/>
</g>
<g>
	
		<rect x="974.7" y="1158.7" transform="matrix(-3.236213e-03 -1 1 -3.236213e-03 -179.7567 2153.1316)" fill="#FFFFFF" width="16.9" height="14.9"/>
	<polygon fill="#496CB4" points="989.6,1171.2 977.7,1171.4 983.4,1161.1 	"/>
</g>
<g>
	<polygon fill="#496CB4" points="1074.8,1167.2 1075.2,1179.1 1064.7,1173.4 	"/>
</g>
<rect x="1018" y="1182.8" fill="#FFFFFF" width="31.1" height="92.5"/>
<rect x="1023.7" y="1235.8" opacity="0.6" fill="#496CB4" enable-background="new    " width="10.9" height="1.7"/>
<rect x="1023.7" y="1239.2" opacity="0.6" fill="#496CB4" enable-background="new    " width="10.9" height="1.7"/>
<rect x="1023.7" y="1242.2" opacity="0.6" fill="#496CB4" enable-background="new    " width="10.9" height="1.7"/>
<rect x="1023.7" y="1245.5" opacity="0.6" fill="#496CB4" enable-background="new    " width="10.9" height="1.7"/>
<rect x="1023.7" y="1248.9" opacity="0.6" fill="#496CB4" enable-background="new    " width="10.9" height="1.7"/>
<rect x="1023.7" y="1252" opacity="0.6" fill="#496CB4" enable-background="new    " width="10.9" height="1.7"/>
<rect x="1023.7" y="1255.4" opacity="0.6" fill="#496CB4" enable-background="new    " width="10.9" height="1.7"/>
<rect x="1023.7" y="1258.5" opacity="0.6" fill="#496CB4" enable-background="new    " width="10.9" height="1.7"/>
<rect x="1035.4" y="1235.8" opacity="0.6" fill="#496CB4" enable-background="new    " width="10.9" height="1.7"/>
<rect x="1035.4" y="1239.2" opacity="0.6" fill="#496CB4" enable-background="new    " width="10.9" height="1.7"/>
<rect x="1035.4" y="1242.2" opacity="0.6" fill="#496CB4" enable-background="new    " width="10.9" height="1.7"/>
<rect x="1035.4" y="1245.5" opacity="0.6" fill="#496CB4" enable-background="new    " width="10.9" height="1.7"/>
<rect x="1035.4" y="1248.9" opacity="0.6" fill="#496CB4" enable-background="new    " width="10.9" height="1.7"/>
<rect x="1035.4" y="1252" opacity="0.6" fill="#496CB4" enable-background="new    " width="10.9" height="1.7"/>
<rect x="1035.4" y="1255.4" opacity="0.6" fill="#496CB4" enable-background="new    " width="10.9" height="1.7"/>
<rect x="1035.4" y="1258.5" opacity="0.6" fill="#496CB4" enable-background="new    " width="10.9" height="1.7"/>
<rect x="1023.7" y="1209.8" opacity="0.6" fill="#496CB4" enable-background="new    " width="10.9" height="1.7"/>
<rect x="1023.7" y="1213.1" opacity="0.6" fill="#496CB4" enable-background="new    " width="10.9" height="1.7"/>
<rect x="1023.7" y="1216.5" opacity="0.6" fill="#496CB4" enable-background="new    " width="10.9" height="1.7"/>
<rect x="1023.7" y="1219.6" opacity="0.6" fill="#496CB4" enable-background="new    " width="10.9" height="1.7"/>
<rect x="1023.7" y="1223" opacity="0.6" fill="#496CB4" enable-background="new    " width="10.9" height="1.7"/>
<rect x="1023.7" y="1226.1" opacity="0.6" fill="#496CB4" enable-background="new    " width="10.9" height="1.7"/>
<rect x="1023.7" y="1229.3" opacity="0.6" fill="#496CB4" enable-background="new    " width="10.9" height="1.7"/>
<rect x="1023.7" y="1232.5" opacity="0.6" fill="#496CB4" enable-background="new    " width="10.9" height="1.7"/>
<rect x="1035.4" y="1209.8" opacity="0.6" fill="#496CB4" enable-background="new    " width="10.9" height="1.7"/>
<rect x="1035.4" y="1213.1" opacity="0.6" fill="#496CB4" enable-background="new    " width="10.9" height="1.7"/>
<rect x="1035.4" y="1216.5" opacity="0.6" fill="#496CB4" enable-background="new    " width="10.9" height="1.7"/>
<rect x="1035.4" y="1219.6" opacity="0.6" fill="#496CB4" enable-background="new    " width="10.9" height="1.7"/>
<rect x="1035.4" y="1223" opacity="0.6" fill="#496CB4" enable-background="new    " width="10.9" height="1.7"/>
<rect x="1035.4" y="1226.1" opacity="0.6" fill="#496CB4" enable-background="new    " width="10.9" height="1.7"/>
<rect x="1035.4" y="1229.3" opacity="0.6" fill="#496CB4" enable-background="new    " width="10.9" height="1.7"/>
<rect x="1035.4" y="1232.5" opacity="0.6" fill="#496CB4" enable-background="new    " width="10.9" height="1.7"/>
<g>
	<path fill="#496CB4" d="M536.4,1094.7c-0.7,0-1.3-0.5-1.3-1.3c0-0.7,0.5-1.3,1.3-1.3c0.7,0,1.3,0.5,1.3,1.3
		C537.7,1093.9,537.3,1094.7,536.4,1094.7z"/>
	<path fill="#496CB4" d="M537.3,1095c1.3,0,1.6,0.9,2,1.6l1.2,3.7c0.1,0.4,0,0.7-0.3,0.7c-0.3,0-0.5-0.1-0.7-0.4l-1.1-3.4
		c-0.1-0.3-0.3-0.3-0.4-0.3c-0.3,0.1-0.3,0.3-0.1,0.4l1.7,6.1h-2.1c0,2.4,0,4.7,0,4.7c0,0.7-0.3,0.7-0.5,0.7c-0.1,0-0.5-0.1-0.5-0.7
		c0-0.6,0-4.6,0-4.6c0-0.3-0.1-0.3-0.3-0.3c-0.1,0-0.3,0.1-0.3,0.3c0,0,0,3.7,0,4.6c0,0.8-0.3,0.7-0.5,0.7c-0.1,0-0.5-0.1-0.5-0.7
		c0,0,0-2.1,0-4.7h-1.7l1.7-6.1c0.1-0.3,0.1-0.4-0.1-0.4c-0.3-0.1-0.3,0.1-0.4,0.3l-1.1,3.4c-0.1,0.3-0.3,0.4-0.7,0.4
		c-0.3-0.1-0.4-0.3-0.3-0.7l1.2-3.7c0.3-0.5,0.5-1.6,2-1.6H537.3z"/>
</g>
<g>
	<g>
		<path fill="#496CB4" d="M543.4,1136.9c-0.7,0-1.3-0.5-1.3-1.3s0.5-1.3,1.3-1.3c0.7,0,1.3,0.5,1.3,1.3S543.9,1136.9,543.4,1136.9z"
			/>
	</g>
	<path fill="#496CB4" d="M541.1,1140v2.7c0,0.5-0.3,0.7-0.5,0.7s-0.5-0.1-0.5-0.7v-3.6c0-1.6,0.7-2,2.1-2h2.1c1.3,0,2.1,0.4,2.1,2
		v3.6c0,0.5-0.3,0.7-0.5,0.7s-0.5-0.1-0.5-0.7v-2.7c0-0.3-0.3-0.3-0.3-0.3s-0.3,0.1-0.3,0.3c0,0.4,0,9.5,0,9.5
		c0,0.7-0.5,0.7-0.7,0.7c-0.3,0-0.7-0.1-0.7-0.7c0-0.5,0-5.5,0-5.5c0-0.1,0-0.3-0.3-0.3c-0.1,0-0.3,0.1-0.3,0.3c0,0,0,5,0,5.5
		c0,0.7-0.5,0.7-0.7,0.7c-0.1,0-0.7-0.1-0.7-0.7c0,0,0-9,0-9.5c0-0.3-0.3-0.3-0.3-0.3C541.3,1139.7,541.1,1139.7,541.1,1140z"/>
</g>
<g>
	
		<text transform="matrix(1 0 0 1 1001.2803 1116.8478)" fill="#FFFFFF" font-family="'TradeGothic-BoldCondTwenty'" font-size="11.7531">3374</text>
</g>
<polygon fill="#989798" points="473.2,1331.8 440.2,1331.8 440.2,1429.3 466.3,1429.3 466.3,1528.1 333.1,1528.1 333.1,1653.1 
	768.4,1653.1 768.4,1537.7 661.3,1537.7 638,1537.7 638,1473.2 662.7,1473.2 662.7,1308.4 642.1,1308.4 642.1,1277.3 470.4,1277.3 
	"/>
<polygon opacity="0.5" fill="#989798" enable-background="new    " points="932.3,1298.1 932.3,1432.1 902.1,1432.1 902.1,1474.9 
	856.8,1474.9 856.8,1502 821.1,1502 821.1,1527.7 800.5,1527.7 800.5,1651.7 1006.5,1651.7 1006.5,1628.9 1025.7,1628.9 
	1025.7,1603.3 1055.9,1603.3 1055.9,1569.1 1104,1569.1 1104,1546.2 1120.4,1546.2 1120.4,1350.8 1043.5,1350.8 1043.5,1295.2 
	1043.5,1282.7 933.7,1282.7 "/>
<rect x="1055.3" y="1155.5" fill="#989798" width="67.7" height="4.6"/>
<rect x="1055.3" y="1190.3" fill="#989798" width="67.7" height="4.6"/>
<g opacity="0.5">
	<g>
		
			<text transform="matrix(1 0 0 1 270.7059 768.853)" fill="#999999" font-family="'TradeGothic-BoldCondTwenty'" font-size="15.8166">Level </text>
	</g>
	<circle fill="#999999" cx="334.2" cy="766.2" r="26.8"/>
	
		<text transform="matrix(1 0 0 1 320.7502 786.2678)" fill="#FFFFFF" font-family="'TradeGothic-BoldCondTwenty'" font-size="50.6131">3</text>
</g>
</svg>
