<?xml version="1.0" encoding="utf-8"?>
<!-- Generator: Adobe Illustrator 19.1.0, SVG Export Plug-In . SVG Version: 6.00 Build 0)  -->
<svg version="1.1" id="Layer_1" xmlns="http://www.w3.org/2000/svg" xmlns:xlink="http://www.w3.org/1999/xlink" x="0px" y="0px"
	 viewBox="0 0 720 864" style="enable-background:new 0 0 720 864;" xml:space="preserve">
<style type="text/css">
	.st0{fill:#4B6DB4;}
	.st1{fill:#FFFFFF;}
	.st2{font-family:'MyriadPro-Regular';}
	.st3{font-size:13.3972px;}
	.st4{fill:#989798;}
	.st5{fill:#CDCCCC;}
	.st6{font-family:'ArialMT';}
	.st7{font-size:10.63px;}
	.st8{fill:#4C6EB5;}
	.st9{opacity:0.6;fill:#4B6DB4;enable-background:new    ;}
	.st10{fill:none;stroke:#989798;stroke-width:10;stroke-miterlimit:10;}
	.st11{opacity:0.5;}
	.st12{fill:#989898;}
	.st13{font-size:10.8361px;}
	.st14{font-size:34.6761px;}
</style>
<g>
	<rect x="365.3" y="237.2" class="st0" width="11.2" height="13.2"/>
	<text transform="matrix(1 0 0 1 367.1846 248.4482)" class="st1 st2 st3">E</text>
</g>
<g>
	<rect x="287.4" y="441.9" class="st0" width="11.2" height="13.2"/>
	<text transform="matrix(1 0 0 1 289.2309 452.7812)" class="st1 st2 st3">E</text>
</g>
<polygon class="st0" points="641.8,438.3 636,428.9 647.1,428.9 "/>
<polygon class="st0" points="409.7,423.4 404.2,414 415.1,414 "/>
<polygon class="st0" points="440.2,423.4 435,414 445.7,414 "/>
<polygon class="st0" points="437.3,531.5 442.8,540.9 431.8,540.9 "/>
<polygon class="st0" points="406.7,531.5 412.3,540.9 401.4,540.9 "/>
<polygon class="st0" points="320.3,421.1 309.3,421 315,411.7 "/>
<polygon class="st0" points="147.9,438.3 142.8,428.9 153.4,428.9 "/>
<g>
	<path class="st4" d="M639.6,173l-0.1,41l0,0v1.6l0,0v2.8v4.6l0,0v0.9v2.4v2.8v39.5l0,0l0,0v2.7h-2.6h-17.7h-2h-17.5h-1.9l0,0h-18.4
		l0,0h-0.9h-18.1h-1.9l0,0h-96.1l0,0l0,0l0,0h-1.9h-17.7h-1.9l0,0h-37.3l0,0l0,0h-1.9h-17.6l0,0h-1.9l0,0l0,0h-0.8h-3.1h-3l0,0
		h-10.2l0,0v0.1v16.7l0,0v1.9l0,0v36.7l0,0v2.6v37.3l0,0v1.9V386v2.4l0,0l0,0V406v2.6h-3.4h-29.3v1.5l0,0l0,0v14l0,0v14.2l0,0v0.9
		h0.3h22.8h5.2l0,0l0,0h0.8v-1.9h1.5v1.9h0.8l0,0H392l0,0h0.8v-1.9h1.5v1.9h0.8l0,0H424l0,0h0.8v-1.9h1.5v1.9h0.8l0,0h28.2h0.8v-1.9
		h1.5v1.9h30.6v-1.9h1.5v1.9h30.1v-1.9h1.5v1.9h30v-1.9h1.5v1.9h30.1v-1.9h1.5v1.9h32.2v20h1.7h6.3h6.9h0.7l0,0
		c0.1,0,0.3,0.1,0.3,0.1l0,0l0,0l0.3,0.3l0,0l0,0l0.3,0.3l0,0c0.1,0.1,0.1,0.3,0.3,0.3l0,0l0,0l0.1,0.3l0,0v0.7v12h1.7v0.9h-1.7v4.6
		h1.7v0.9h-1.7v16.5l0,0v0.7l0,0c0,0.1,0,0.1-0.1,0.3v0.1c0,0,0,0.1-0.1,0.1c0,0,0,0,0,0.1l-0.1,0.1l0,0l-0.1,0.1l0,0
		c-0.1,0-0.1,0.1-0.3,0.1c0,0-0.1,0-0.1,0.1c0,0-0.1,0-0.1,0.1h-0.3h-0.1l0,0c-0.1,0-0.3,0-0.3,0H617v15.2l0,0h-32.2v1.9h-1.5v-1.9
		h-30.1v1.9h-0.9v-1.9h-30v1.9h-1.7v-1.9h-30v1.9h-1.5v-1.9h-11.3h-3h-0.7h-3.8h-11.4v1.9h-1.5v-1.9h-0.8l0,0h-28.7l0,0H427v1.9
		h-1.5v-1.9h-1.3l0,0H396l0,0h-0.9v1.9h-1.5v-1.9h-0.8l0,0h-28.2l0,0h-0.8v1.9h-1.9v-1.9h-0.8l0,0h-6.4h-22.4v0.8v14.2l0,0h-33.2
		l0,0v-13.8v-0.8h-10.9h-3.4h-0.7h-3.4h-11.6v1.9h-1.5v-1.9l0,0h-11.3h-3.4H252h-3.4h-11.3v1.9h-1.5v-1.9l0,0h-11.4H221h-0.8H217
		h-11.4v1.9h-1.7v-1.9l0,0h-11.3h-2.8H189h-3.4h-13l0,0v-15.2h-14.9h-0.8l0,0c-0.1,0-0.3-0.1-0.3-0.1l0,0c-0.1,0-0.1-0.1-0.3-0.1
		c0,0-0.1,0-0.1-0.1s0,0-0.1-0.1l-0.1-0.1c0,0,0,0-0.1-0.1l-0.1-0.1c-0.1-0.3-0.3-0.7-0.3-0.9c0,0,0,0,0-0.1l0,0c0-0.1,0-0.3,0-0.3
		v-16h-1.7v-0.9h1.5v-0.3v-4.3v-0.1h-1.7v-0.9h1.7v-12.2v-0.7c0.1-0.8,0.9-1.7,1.9-1.9h0.7l0,0l0,0h6.9h6.2h1.7v-21l0,0h13.8h3.4
		h0.4h3.4h11l0,0v-1.9h1.5v1.9H236v-1.9h1.5v1.9h30.1v-1.9h1.5v1.9h29.7v-0.9v-14.6v-14V407l0,0h-29.7l0,0h-2.8l0,0v-2.6l0,0l0,0
		v-36.9l0,0l0,0v-2v-37.3v-1.9V290v-1.7l0,0v-17.7v-1.9l0,0V251v-1.7l-0.1-52.5h17.6l-0.1-21l0,0v-2.7l0,0h157.6l0,0h1.9h39.2h37.3
		h1.9h37.3h1.9h39.4h39.4 M645.5,167h-6.2h-40h-39.2h-1.9h-37.3H519h-37.5h-39.2h-1.9H283.6h-6.2v6.2v2.7l0,0l0,0l0.1,15.2h-11.3
		h-5.9v6.2l0.1,52.5v1.7v17.7v1.9v17.7v1.9v36.9v1.9v36.9v2v37.3v2.6v6.2h6.2h2.8H293v9.4v9.4h-18v-1.9h-6h-1.5h-6.2v1.9h-18.4v-1.9
		h-5.8h-1.5h-6.2v1.9h-17.2v-1.9H206h-1.5h-5.9v1.9h-5.2H190h-0.8h-3.4h-13.2h-5.9v6.2v14.1H165h-6.9h-0.3H157h-0.7l0,0l0,0
		c-3.6,0.3-6.4,3.4-7.1,6.7v0.1v0.1v0.7v0.3v0.3v6.3h-1.7v6.2v0.9v6.2v5.5h2v10.3l0,0l0,0c0,0.3,0,0.9,0.1,1.6c0,0.1,0,0.3,0.1,0.7
		c0.3,0.9,0.8,2.6,1.7,3.4c0.1,0.1,0.3,0.3,0.3,0.3c0.1,0.1,0.1,0.1,0.3,0.3l0,0l0,0c0.1,0.1,0.3,0.3,0.7,0.3
		c0.1,0.1,0.3,0.1,0.3,0.3c0.1,0.1,0.3,0.1,0.3,0.3l0,0l0,0c0.1,0.1,0.3,0.3,0.7,0.3h0.1l0,0l0,0c0.3,0.1,0.7,0.1,0.9,0.3l0.3,0.1
		h0.7h0.7h0.7h0.1h8.7v9.4v6.2h6.2h13.8h3.4h0.5h3.4h5.4v1.9h6h1.1h6.2v-1.7h5.4h3.4h0.8h3.4h5.4v1.9h6.2h1.5h6.2v-1.9h5.4h3.4h0.7
		h3.4h5.4v1.9h6.2h1.5h6.2v-1.9h5.5h3.4h0.7h3.4h4.7v9.4v6.2h6.2H335h6.2v-6.2v-9.4h15.9h1.7v1.9h6.2h1.5h6.2v-1.9h18.4v1.9h6.2h1.5
		h6.2v-1.9h18.1v1.9h6.2h1.5h6.2v-1.9h18.4v1.9h6.2h1.5h6.2v-1.9h5.5h3.4h0.7h3.4h5.2v1.9h6.2h1.5h6.2v-1.9h18.1v1.9h6.2h1.5h6.2
		v-1.9h18.4v1.9h6.2h1.5h6.2v-1.9H583v1.9h6.2h1.5h6.2v-1.9h26.9h6.2v-6.2v-9.4h9l0,0l0,0c0.3,0,0.8,0,1.5-0.1h0.1l0.3-0.1
		c0.1,0,0.3-0.1,0.3-0.1c0.1,0,0.3-0.1,0.3-0.1c0.3-0.1,0.3-0.1,0.7-0.3c0.1-0.1,0.3-0.1,0.7-0.3l0,0l0,0c0.3-0.1,0.7-0.3,0.8-0.7
		c0.1,0,0.1-0.1,0.3-0.1c0.1-0.1,0.3-0.3,0.7-0.7l0,0l0,0l0.1-0.1c0.1-0.1,0.3-0.3,0.3-0.7l0,0l0,0c0.1-0.1,0.1-0.3,0.1-0.3
		c0.1-0.1,0.1-0.3,0.3-0.7l0,0l0,0c0-0.1,0.1-0.3,0.1-0.3c0.1-0.1,0.1-0.3,0.3-0.8V499l0.1-0.3v-0.3v-0.3v-0.8v-0.1l0,0v-10.3h1.7
		V481v-6.2V474v-6.2H646v-6.2v-0.1l0,0v-0.7V460l-0.1-0.8v-0.1V459l-0.1-0.3l0,0l-0.1-0.3l-0.1-0.3c-0.1-0.1-0.3-0.3-0.3-0.7
		l-0.1-0.3l-0.3-0.3l-0.3-0.3l0,0l-0.3-0.3l-0.7-0.3l0,0l-0.3-0.3l0,0l-0.7-0.3l-0.3-0.1c-0.3-0.1-0.8-0.3-1.5-0.3h-0.1h-0.3h-0.7
		h-0.3h-1.7h-6.9h-1.9V441v-6.2h-6.2h-26.9v-1.9h-7.1h-2H577v1.9h-18.4v-1.9h-6.2h-1.5h-6.2v1.9h-19.5v-1.9H519h-1.5h-5.9v1.9h-18.1
		v-1.9h-6.2h-1.5h-5.6v1.9h-18v-1.9H456h-0.9H449v1.9h-17.2l0,0H431v-1.9h-5.6h-0.9h-6.2v1.9h-0.8l0,0H401l0,0h-0.8v-1.9H394h-1.6
		h-6.2v1.9h-0.7l0,0h-16.7l0,0H368v-1.9h-6.2h-1.5h-5.9v1.9h-0.8l0,0h-16.8v-9.7V416h23.8h3.4h6.2v-6.2v-2.6V390v-2.4v-17.5v-1.9
		v-37.3v-2.6v-36.8v-2.7V278h4.3h3h3h0.7h1.9h17.6h1.9H440h1.9h17.7h1.9h96.1h1.9h18.1h0.9h18.1h1.9H616h1.9h17.9h2.6h6.2v-6.2v-2.7
		v-39.5v-2.8v-2.4v-1.5v-4.6v-2.7V214l0.1-41L645.5,167L645.5,167z"/>
</g>
<path class="st5" d="M364.3,266.2l0.8-0.8v-1.9H365l-0.1,0.1l-0.1,0.1l-0.1,0.1v0.1v-0.1l0.1-0.1l0.1-0.1l0.1-0.1h0.1v-5.2l0,0l0,0
	h5.5l0,0l0,0l0,0l0,0l0,0v1.5h0.1h0.1h0.1v-1.5l0,0h1.7l0,0v1.7l0,0l0.3-0.3v2.4h0.1l0,0h0.8v-5l0,0h1.9v-27.9H375v1.7h-11.2l0,0
	l0,0v-1.7h-3v0.7h0.9l0,0l0,0v1.5h0.9l0,0l0,0v7.1h-9.7v0.7h8.5l0,0l0,0v10.3h-4.7v0.8h4.7l0,0l0,0v4.6v0.1v4.4v0.1v4.6v0.1v3.6h3
	v-0.9L364.3,266.2L364.3,266.2z M374.8,256L374.8,256L374.8,256h-9.7l0,0v-8.7l0,0L365,247l0.1,0.1l0,0v-0.9l-0.1-0.1l-0.1-0.3v-0.1
	l0.1-0.3l0.1-0.1v-13l0,0h9.7l0,0v12.9h0.1h-0.1 M375,245.5L375,245.5l0.1,0.3v0.1l-0.1,0.3"/>
<path class="st5" d="M264.7,481.1v10.3h0.3h2.6l0,0l0,0h2.8l0,0h-1.6h1.5l0,0h1.6l0,0l0,0h1.9h0.1h0.1h0.1h1.6l0,0h1.7h-1.7l0,0h3.4
	v-16H265L264.7,481.1L264.7,481.1L264.7,481.1L264.7,481.1L264.7,481.1z"/>
<path class="st5" d="M208.1,459.5v-4.7h0.8c1.9,0.3,3.4,1.7,4,4v0.8l0,0l0,0h8.6V440h-0.3h-3.4h-11.3h11.3l0,0h-11.3h-0.3v19.6h2
	v-0.1H208.1z"/>
<path class="st5" d="M198.6,459.5v-0.8c0.3-1.9,1.7-3.4,4-4h0.8v4.6l0,0l0,0h2v-19.5v19.5l0,0v-19.5l0,0h-0.5h-11.4l0,0h11.4h-11.4
	h-3.4h-0.7H186h-12v19.5h24.5v0.1l0,0v0.1L198.6,459.5L198.6,459.5z"/>
<path class="st5" d="M245.4,459.5v-0.8c0.3-1.9,1.9-3.6,3.8-4h0.8v4.6v-4.7h-0.8c-1.9,0.3-3.6,1.9-3.8,4V459.5L245.4,459.5
	L245.4,459.5v0.3h4.6v-0.3l0,0h2V440h-3.4h-11.3l0,0h-0.1v19.5H245.4z"/>
<path class="st5" d="M236.3,440.2h-11.4h-3.4h-0.1v19.5h8.6v-0.8c0.3-1.9,1.7-3.4,4-4h0.8v4.6v-4.6H234c-1.9,0.3-3.4,1.7-4,4v0.8
	l0,0v0.3l0,0h4.6v-0.3l0,0l0,0h1.9v-19.5l0.1,19.5l0,0L236.3,440.2L236.3,440.2L236.3,440.2h-11.4l0,0H236.3z"/>
<path class="st5" d="M253,459.5h1.9v-4.7h0.8c1.9,0.3,3.6,1.9,3.8,4v0.8v-0.8c-0.3-1.9-1.9-3.6-3.8-4h-0.8v4.6l0,0l0,0v0.3h4.6v-0.1
	v0.3l0,0v-0.3l0,0l0,0l0,0H277v-0.8c0.3-1.9,1.9-3.4,4-4h0.8v4.6v0.3l0,0v-0.3l0,0l0,0l0,0h1.9v-19.5l0,0h-3h-11.4l0,0h-1.5l0,0
	h-11.4H253L253,459.5L253,459.5L253,459.5L253,459.5z"/>
<path class="st5" d="M199.5,475.4v-0.3h-5.4v0.3l0,0l0,0h-20v37.7h30.8l0,0h0.1v-37.7H199.5L199.5,475.4z"/>
<path class="st0" d="M243.6,475.4v-0.3H239v0.3l0,0l0,0h-25.9v-0.3h-5.4v0.3l0,0l0,0h-1.9v37.7h0.4l0,0h30l0,0h1.5l0,0l0,0h9.5
	v-37.7H243.6L243.6,475.4z"/>
<path class="st5" d="M293.1,475.4v-0.3h-4.6v0.3l0,0l0,0h-9v16.8l0,0l0,0h-0.3v5.4h0.3v15.2h18.9V475H293v0.4H293.1z"/>
<path class="st5" d="M264,497.4L264,497.4h0.3l0,0l0,0V492h-1.6v-0.3h-5v0.3l0,0l0,0h-9v20.8h15.6v-15.6H264V497.4z"/>
<path class="st5" d="M257.8,491.3v0.3h5.2v-0.3l0,0l0,0h1.7V481h-0.3v-5.9h-5.2v-0.3h-5.4v0.3l0,0l0,0h-5.2v16h9.1L257.8,491.3
	L257.8,491.3z"/>
<path class="st5" d="M361.9,486.8h-0.7v5.5h0.3v0.8h0.9l0.8-1.7h-1.9h1.9l-0.8,1.7h29.8v-17.5h-11.4l-0.3,0.7l0.3-0.7h-2.4v0.7v-0.7
	h-2.8v0.1l-0.1,0.3l-0.3,0.1h-0.1l-0.3-0.1l-0.1-0.1l0.1,0.1l0.3,0.1h0.1l0.3-0.1l0.1-0.3v-0.1h-2.8v0.7v-0.7h-11.6v10.9
	L361.9,486.8L361.9,486.8L361.9,486.8h-0.7l0,0H361.9z M377.5,476.4L377.5,476.4L377.5,476.4L377.5,476.4L377.5,476.4L377.5,476.4
	L377.5,476.4z"/>
<path class="st5" d="M373.9,470.8h1.9 M371.5,470.7L371.5,470.7l-0.1,0.3l0,0h2.6 M372.8,470.7L372.8,470.7L372.8,470.7
	 M382.7,470.8H393v-11.6l-1.9-1.7H365v0.7l0,0l0,0h-0.3v4.6h0.3v7.8h6.2l0,0v-0.1l0.1-0.1 M380.3,470.7L380.3,470.7l0.1,0.3v0.1h1.7
	 M379.4,470.7L379.4,470.7l-0.1,0.3v0.1V471L379.4,470.7L379.4,470.7 M377.8,470.7l0.1,0.3v0.1h2.6v-0.3l-0.1-0.1l-0.1-0.1
	 M375.6,470.8h0.9v-0.1l0.1-0.3"/>
<path class="st5" d="M340.2,487.3h1.9 M338,486.8L338,486.8l-0.1,0.3l0,0h2.6 M339.2,486.8L339.2,486.8L339.2,486.8 M349.3,487.3
	h10.3v-11.6l-1.9-1.7h-26.1v0.7l0,0l0,0h-0.3v4.6h0.3v7.8h6.3l0,0V487l0.1-0.1 M346.9,486.8L346.9,486.8l0.1,0.3v0.1h1.7
	 M345.8,486.8L345.8,486.8l-0.1,0.3v0.1v-0.1L345.8,486.8L345.8,486.8 M344.3,486.8l0.1,0.3v0.1h2.6v-0.1l-0.1-0.1l-0.1-0.1
	 M342.2,487.3h0.9v-0.1l0.1-0.3"/>
<path class="st5" d="M351.7,463.1v-4.6h-0.3h0.3l0,0h-0.3v-0.8l0,0v0.8v-0.8h-18.9V471h18.9l0,0v-7.8l0,0h-0.8
	c-1.9-0.3-3.4-1.7-3.8-3.8v-0.8h4.6h-4.6v0.8c0.3,1.9,1.9,3.4,3.8,3.8h0.8l0,0l0,0l0,0l0,0L351.7,463.1L351.7,463.1z"/>
<path class="st5" d="M347.7,481.9L347.7,481.9L347.7,481.9L347.7,481.9L347.7,481.9L347.7,481.9L347.7,481.9z"/>
<path class="st5" d="M487.8,513v-37.6h-5v-0.3h-5.4v0.3l0,0l0,0h-19.1V513H487.8z"/>
<path class="st5" d="M551.7,513v-37.6h-6.9v-0.3h-4.6v0.3l0,0l0,0l0,0H498v-0.3l0,0v0.3h41.9H498v-0.3h-5.4v0.3l0,0l0,0h-4.7V513
	H551.7z"/>
<path class="st5" d="M599.8,475.4L599.8,475.4L599.8,475.4h-23.4v-0.3h-4.6v0.3l0,0l0,0h-5.2V513h47v-37.6h-8.2v-0.3H600v0.3H599.8
	L599.8,475.4z"/>
<path class="st5" d="M566.4,513v-41.2h-5.2v0.8c-0.3,1.9-1.9,3.6-4,4h-0.9V472h-3.8v41.2h13.8v-0.1h0.1V513z"/>
<path class="st5" d="M601.6,440.2h-3.4H598h-3.4h-12l0,0l0,0l0,0h-1.5l0,0l0,0l0,0l0,0h-11.3h-3.4v9.5h15.2l0,0v9.7h2.6v-4.6v4.6
	l0,0v0.3h4.6v-0.3v-0.8c-0.3-1.9-1.9-3.6-4-4H584h0.8c1.9,0.3,3.4,1.9,4,4v0.8l0,0h24.5v-19.5l0,0H601v0.1h0.5L601.6,440.2
	L601.6,440.2z"/>
<path class="st5" d="M553.4,459.5v-4.6h0.8c1.9,0.3,3.6,1.9,4,4v0.8l0,0h8.7v-9.4v9.4l0,0v-9.4l0,0h-0.5l0,0l0,0l0,0v-9.9H563h-11.6
	l0,0l0,0l0,0l0,0v19.5h2V459.5l-0.1,0.1v-0.1H553.4z"/>
<path class="st5" d="M538.8,440.2h-3.4h-0.1v19.5h8.6l0,0v-0.8c0.3-1.9,1.9-3.4,4-4h0.8v4.6l0,0h2.4V440l0,0h-0.8l0,0H539v0.1
	L538.8,440.2L538.8,440.2z"/>
<path class="st5" d="M521.9,459.5L521.9,459.5v-4.6h0.8c1.9,0.3,3.4,1.7,4,4v0.8l0,0l0,0h8.5v-19.5h-0.1h-3.4h-12l0,0l0,0h-0.5v19.5
	h2.6v-0.3L521.9,459.5L521.9,459.5z"/>
<path class="st5" d="M507.5,440.2h-3v19.5h8.2l0,0v-0.8c0.3-1.9,1.9-3.6,4-4h0.8v4.6l0,0h2.4V440l0,0h-0.8l0,0h-11.3v0.1
	L507.5,440.2L507.5,440.2z"/>
<path class="st5" d="M502.8,454v5.4l0,0l0,0h0.7v-19.5v19.5l0,0v-19.5l0,0l0,0l0,0l0,0h-3.4l0,0l0,0h-11.6l0,0l0,0l0,0l0,0H487l0,0
	l0,0l0,0h-11l0,0h11.2H476h-3.4h-0.8h-3.4h-10.6v14.6h14.1v4.6h0.8v-4.6h0.8c1.9,0.3,3.6,1.9,4,4v0.8l0,0l0,0h19.7v-0.8
	c0.3-2.6,2.4-4.3,4.6-4.6L502.8,454l-0.8-0.1c-2.6,0.3-4.3,2-4.6,4.6v0.8l0,0v0.3h5.4v-0.3V454L502.8,454L502.8,454z"/>
<path class="st5" d="M278.9,497.4L278.9,497.4h-2.4l0,0l0,0h-2.6h-0.1h-0.4h-0.1h-1.6h-0.1l0,0h-0.9h-0.1h-0.7h-0.1h-1.7H268h-0.8
	h-0.1h-2.4v15.2h2.8l0,0l0,0h1.5l0,0h9.9L278.9,497.4L278.9,497.4z"/>
<path class="st5" d="M300.9,406.7h5.4v-0.9l0,0h1.5v-4.7l0,0h0.3v-4.6h-0.3h0.3l0,0h-0.3l0,0l0,0v-27.8l0,0h-1.6l0,0v-2l0,0h1.5V360
	l0,0h0.3v-4.7h-0.3h0.3l0,0l0,0h-0.3l0,0l0,0v-2h-30v0.8c-0.3,1.9-1.9,3.4-4,4h-0.8v-4.7v4.6h0.8c1.9-0.3,3.4-1.9,4-4v-0.7l0,0V353
	h-4.6v0.3l0,0h-4.6v13.4h0.9l0,0l0,0v2l0,0l0,0h-1.7l0,0l0,0l0,0v36.9h1.7l0,0l0,0v0.8h29.4h2.4v0.1h-0.4v0.2H300.9z"/>
<path class="st5" d="M295.2,340.6L295.2,340.6v11.6h12.2v-16.7h0.3v-4.6h-0.3l0,0l0,0v-1.5h-0.9l0,0l0,0v-6.2h-28.7l0,0l0,0v-0.3
	H273v0.3h-5.4v3.4h1.7l0,0v1.9l0,0l0,0h-0.9l0,0v23.1h4.6l0,0v0.3h4.6v-0.3v0.3l0,0v-0.3l0,0h16.8"/>
<path class="st5" d="M267.7,270.2v17.7h1.7l0,0l0,0v1.9h-1.7v32.6h5.4l0,0l0,0v-4.6h0.8c1.9,0.3,3.4,1.7,4,4v0.8h29.7v-3h0.3V315
	h-0.3l0,0l0,0v-25h-1.5l0,0l0,0v-2h1.5v-11.6h0.3v-4.6h-0.3h0.3l0,0l0,0h-0.3l0,0l0,0l0,0v-1.5H269h38.6l0,0H269l0,0L267.7,270.2
	L267.7,270.2z"/>
<path class="st5" d="M348.9,196.2v0.3h-10.3h10.3V196.2L348.9,196.2v0.3h-10.3v0.8l0,0l0,0v-0.7v0.8l0,0v4.3l0,0l0,0l0,0v12.5l0,0
	v-12.5v12.5H349l0,0l0,0v-0.8c0.3-1.9,1.9-3.6,4-3.8h0.8v4.6h7.8V197h-8.1l0,0l0,0v-0.3"/>
<path class="st5" d="M343.4,187.2L343.4,187.2v4.6l0,0v3.8h5.4l0,0l0,0v-0.8c0.3-1.9,1.9-3.6,4-4h0.8v4.6h8.2v-22.2h-18.1
	L343.4,187.2L343.4,187.2z"/>
<path class="st5" d="M381.9,199.7L381.9,199.7L381.9,199.7L381.9,199.7L381.9,199.7L381.9,199.7L381.9,199.7V179l0,0l0,0l0,0l0,0
	h0.3v-4.6h-0.3l0,0v-0.8h-18.1v40.2h1.5l0,0v0.3h4.6v-0.3l0,0l0,0l0,0H382l0,0v-9.5h0.3l0,0H382v9.5v-9.5h0.3v-4.6H381.9
	L381.9,199.7z"/>
<path class="st5" d="M402.2,192.7h-3l0,0v4.6l0,0l0,0l0,0l0,0h-0.8c-1.9-0.3-3.6-1.9-4-4v-0.8l0,0h-11.6l0,0h11.6h-11.6v6.7l0,0h0.8
	c1.9,0.3,3.6,1.9,4,4v0.8l0,0l0,0h-0.3v2.4V204H387l0,0l-0.1,0.1l0.1-0.1l0,0h-4v9.5h1.6v-4.6h0.8c1.9,0.3,3.6,1.9,4,3.8v0.8v-0.8
	c-0.3-1.9-1.9-3.6-4-3.8h-0.8v4.6l0,0v0.3h4.6v-0.3v0.3l0,0v-0.3l0,0l0,0h12v-0.9l0,0h1.5v-19.9v19.6l0,0v-19.6L402.2,192.7
	L402.2,192.7z"/>
<path class="st5" d="M401.1,175.1v-1.6H383v0.7l0,0h-0.3v4.6h0.3v13h11.6H383l0,0h11.6l0,0v0.3h4.6v-0.3v0.3l0,0v-0.3l0,0l0,0l0,0h3
	V175L401.1,175.1L401.1,175.1z M387.8,175.2c-0.3,1.9-1.9,3.4-4,4H383h0.8C386,179,387.3,177.5,387.8,175.2v-0.8h-4.6h4.6V175.2z"/>
<path class="st0" d="M403.2,173.8L403.2,173.8v1.6l0,0v37.3v1.5h1.5l0,0v0.3h4.6v-0.3v0.3l0,0v-0.3l0,0l0,0h15.9l0,0v0.3h4.6v-0.3
	l0,0l0,0h1.7V174h-28.1v-0.3h-0.2V173.8z"/>
<path class="st5" d="M431.8,214.1h1.9l0,0v0.3h4.6v-0.3v0.3l0,0v-0.3h1.9v-1.9H471l0,0h-30.9v1.9h-1.9h1.9v-1.9H471l0,0l0,0v1.9h1.7
	l0,0l0,0v0.3h4.6v-0.3l0,0h1.9v-38.6l0,0l0,0l0,0l0,0v-1.6h-36.9l0,0l0,0l0,0v1.6l0,0l0,0h-2l0,0l0,0v-1.6h-8.5L431.8,214.1
	L431.8,214.1z"/>
<path class="st5" d="M509.6,179.3v-4.6h-12.5v4.6h4.6v0.8c-0.3,1.9-1.9,3.6-3.8,4h-0.8h0.8c1.9-0.3,3.6-1.9,3.8-4v-0.8h-4.6l0,0l0,0
	h-0.3v4.6l0,0h0.3v9.9l0,0h-16.5v18.4h16l0,0v1.7h1.7l0,0l0,0v0.3h4.6v-0.3h6.7v-30.1h0.3v-4.6L509.6,179.3v-4.7l0,0V179.3
	L509.6,179.3z"/>
<path class="st5" d="M480.4,175.2L480.4,175.2v17.7h15.9v-9.1l0,0h0.3v-4.6h-0.3v-4.6h-14.6l0,0l0,0l0,0v0.9l0,0l0,0l0,0
	L480.4,175.2L480.4,175.2L480.4,175.2z"/>
<path class="st5" d="M510.2,179.3h4.6v0.8c-0.3,1.9-1.9,3.6-4,4H510l0,0v30.1h1.9l0,0v0.3h4.6v-0.3l0,0h1.7v-1.9l0,0h30.1v1.9h0.7
	v0.3h4.6v-0.3h4.6V181h-0.8c-1.9-0.3-3.6-1.9-3.8-4v-0.8h4.6l0,0v-0.3l0,0v-1.7h-37.5l0,0l0,0l0,0l0,0l0,0v1.7l0,0H519l0,0V175h-8.7
	L510.2,179.3L510.2,179.3z"/>
<path class="st5" d="M558.9,175.2L558.9,175.2v0.3l0,0h-0.3v4.6l0,0h0.3l0,0v4h4.3l0,0v0.9l0,0h-4.3v27.1h1.5l0,0v1.5h7.3l0,0v0.3
	h4.6v-0.3h6.4v-4H574l0,0l0,0l0,0l0,0v-0.7c0.3-1.9,1.9-3.6,4-4h0.8l0,0l0,0V174h-18.4l0,0l0,0l0,0v0.9l0,0l0,0h-1.6L558.9,175.2
	L558.9,175.2z"/>
<path class="st5" d="M636.8,175.2L636.8,175.2L636.8,175.2v-1.6h-36.9l0,0l0,0l0,0v1.6l0,0l0,0h-2l0,0l0,0v-0.9h-18.1v30.9l0,0h-0.5
	v4.6h0.3l0,0v4h6.7l0,0v0.3h4.6v-0.3l0,0h6.7v-1.5l0,0h2l0,0v1.5H622l0,0l0,0l0,0v0.3l0,0v-0.3v0.3h4.6v-0.3l0,0h9.9v-1.5l0,0h0.8
	v-0.1v-36.9L636.8,175.2L636.8,175.2z"/>
<path class="st5" d="M628.6,249.3l-0.1-0.3v0.9h9V243l0,0h-0.1l-0.3-0.1l-0.1-0.3l-0.3-0.3V242l0.1-0.7l0.1-0.3l0.3-0.1h0.1l0,0
	v-10.5H634h3.4l0,0H634l0,0l0,0v-0.1h-4.6v0.3l0,0l0,0l0,0h-0.9v10.5l0,0v-10.5h0.9h-0.9v10.5h0.9l-0.9,2v4.6l0.1-0.3 M633.8,231
	c-0.3,1.9-1.9,3.6-3.8,4h-0.7l0,0l0,0v-4.7v4.6h0.8C632.2,233.9,633.4,232.5,633.8,231v-0.8V231z"/>
<path class="st5" d="M631.3,250.3h-2.8v8.2v-8.2H631.3L631.3,250.3h-2.8v8.2v1.9h-0.8v-7.8l0,0v7.8v-7.8l-0.1,0.1 M632.8,250.3
	L632.8,250.3l-1.9-0.1 M633.7,250.3L633.7,250.3l-0.7-0.1l-0.1,0.1 M627.8,246.4v-16h-0.1h0.1V246.4L627.8,246.4v-16h-0.1v-0.7h-7.8
	v0.7l0,0l0,0H619v37.9h0.3l0,0v1.6H637v-1.6l0,0h0.8v-13v-5H634l0.1,0.1 M627.6,250.3L627.6,250.3l0.1-4 M627.6,252.9L627.6,252.9
	l0.1-1.5l-0.1,0.1 M628.7,253L628.7,253L628.7,253L628.7,253L628.7,253"/>
<path class="st5" d="M617.4,268.6V230h-6.9v-0.3H606v0.3l0,0h-6.7l0,0v1.5l0,0l0,0h-1.9V230h-20.8l0,0v-0.3H572v0.3l0,0l0,0h-5.2
	v0.7l0,0h-6.4l0,0v37.9l0,0v1.6h18.1v-0.9l0,0h0.9l0,0v0.9h18.1v-1.7l0,0h1.9l0,0v1.7h17.5v-1.7v1.7l0,0v-1.7l0,0h0.7v0.1H617.4
	L617.4,268.6z"/>
<path class="st5" d="M512.5,229.8h-4.6v0.7l0,0l0,0H501v28.7l0,0l0,0h-0.8v4.6h0.7l0,0l0,0l0,0h4.6V263c-0.3-1.9-1.9-3.4-4-4h-0.8
	h0.8c1.9,0.3,3.4,1.9,4,4v0.8H501l0,0v5.2h17.7v-0.9l0,0h0.9v-36.4h-1.5l0,0l0,0v-0.9H512l0,0l0,0l0,0l0,0v-0.7h0.3V230h0.3
	L512.5,229.8L512.5,229.8z"/>
<path class="st5" d="M499.8,258.9L499.8,258.9L499.8,258.9L499.8,258.9L499.8,258.9v-4h-2.1l0,0l0,0v-0.3H493v0.3h-10.5v13.8H500
	v-5.2h0.7v-4.6L499.8,258.9L499.8,258.9z"/>
<path class="st5" d="M493,254.5h4.6v-0.3l0,0v-4.6h-0.8c-1.9,0.3-3.4,1.9-4,4v0.8v-0.8c0.3-1.9,1.9-3.6,4-4h0.8v4.6h2v-23.6h-2.7
	l0,0l0,0v-0.7h-4.6v0.7h-9.7v23.6h10.5l0,0l0,0L493,254.5L493,254.5z"/>
<path class="st5" d="M480,268.6L480,268.6h1.5v-21.2h-17.7l0,0l0,0l0,0l0,0v-6.2l0,0h0.3v-4.6h-0.3l0,0v-6.7l0,0h-2.4l0,0l0,0v-0.3
	l0,0l0,0h-4.6v0.3h-4.7v10.5h-0.3v5.4h0.3l0,0l0,0l0,0v24.3l0,0v-24.3v24.3h8.5v-1.6l0,0h1.9l0,0l0,0v0.9h17.7v-0.9L480,268.6
	L480,268.6z"/>
<path class="st5" d="M465,236.4c1.9,0.3,3.6,1.9,3.8,3.8l0.1,0.8l0,0l0,0h-1.6v0.1V241h-3.4v5.2h17.2V235h-2.6l0,0l0,0v-5.5h-14.2
	v6.7l0,0L465,236.4z"/>
<path class="st5" d="M443.3,231.5h-3l0,0l0,0v-1.7h-36.8v1.5h-1.9l0,0l0,0v-1.5l0,0h-8.5l0,0v0.8c-0.3,1.9-1.9,3.6-4,4h-0.8l0,0l0,0
	V230h-5.2v19.6h19.6l0,0l0,0v0.3h5.5v-0.3H426v-3.8h11.2l0,0l0,0v-4.6h0.8c1.9,0.3,3.6,1.9,4,4v0.8h9.4v-5.4h-0.3l0,0l0,0v-8.7h-0.9
	 M446.4,231.5h-2.8 M449.5,231.5h-3.6"/>
<path class="st5" d="M451,247h-8.7l0,0l0,0v-0.7h-0.1l0,0l0,0V246h-4.6v0.3h-9.9v23.5h13.2v-3l0,0l0,0h1.9l0,0l0,0v3h8.5L451,247
	L451,247z"/>
<path class="st5" d="M426.4,250.3h-17.7l0,0l0,0V250h-5.5v0.3h-19.6v13v-13h19.6V250l0,0v0.3h-19.6v13h-0.3l0,0l0,0h0.3h0.8
	c1.9,0.3,3.4,1.9,4,4v0.8l0,0l0,0h-4.6v0.1h0.3l0,0l0,0v1.6h17.6v-1.6h1.9l0,0l0,0v1.6h23.1v-19.6L426.4,250.3L426.4,250.3z"/>
<path class="st5" d="M337.2,263.1l0.3-0.1h0.3v-13.2h-8.2h8.2l0,0h-8.2l0,0l0,0l0,0v-0.3h-4.3v0.3H325v0.8h-1.5v18.5h14.1v-3.5h-0.3
	 M337.3,265.4h0.3v-1.5l-0.3-0.1 M335.6,268.6h1.9H335.6"/>
<path class="st5" d="M332,238.1h-4.3v0.3h-3v10.3h0.3l0,0l0,0v0.3h4.3v-0.3h8.2v-10.3h-5.4h5.4l0,0h-5.4l0,0l0,0l0,0L332,238.1
	L332,238.1z"/>
<path class="st5" d="M330.1,229.8L330.1,229.8L330.1,229.8L330.1,229.8v-0.3l0,0l0,0h-4.6v0.3l0,0H325v8.2h3l0,0l0,0v0.3h4.3l0,0
	V238l0,0h4.3v-8.2H330.1 M325.1,234.4L325.1,234.4L325.1,234.4v-3.6l-0.1,0.1l-0.1,0.1l0.1-0.1l0.1-0.1v-0.9v0.9l0.1-0.1v2.6v-2.6
	l-0.1,0.1V234.4"/>
<path class="st5" d="M356.3,229.8h-3.4v0.7h-4.6v7.7h0.8l0,0l0,0v0.3h4.3v-0.3h9.7v-6.9h-0.9l0,0l0,0v-1.5h-1.1 M352.8,231
	L352.8,231 M353.2,231L353.2,231"/>
<path class="st5" d="M353.5,238.7h-4.3v0.3v-0.3l0,0l0,0v0.3h-10.3v10.3l0,0V239h10.3h-10.3v10.3h0.3l0,0l0,0v-3v3v0.3h3l0,0l0,0
	v-0.3l0,0v-0.7c-0.1-0.9-1.6-2.6-2.6-2.6h-0.3h0.7c0.9,0.1,2.6,1.6,2.6,2.6v0.7h10.5l0,0l0,0v0.3h4.3v-0.3h4.7V239h-8.5l0,0l0,0
	L353.5,238.7L353.5,238.7z"/>
<path class="st5" d="M356.8,249.4h-4.3v0.3H343v13.2h0.1l0.1,0.3l0.1,0.7v0.3l-0.1,0.7l-0.1,0.3H343v0.8l0,0l0,0v0.9l0,0l0.1,0.3
	v0.1l-0.1,0.3l0,0v0.3h18.5v-1.7v-17.3h-4.7l0,0l0,0V249.4L356.8,249.4z"/>
<path class="st5" d="M323.4,279h-0.3v4.6l0,0h0.3l0,0l0,0v0.9h1.5l0,0l0,0v21h-1.5v0.9l0,0h-0.3v4.6h0.3l0,0v6.4h23.1l0,0l0,0v0.3
	h4.6v-0.3l0,0h12.1v-27.8h-1.6l0,0l0,0l0,0v-1.9h1.7V271h-40.2L323.4,279L323.4,279z"/>
<path class="st5" d="M346.7,318.6L346.7,318.6L346.7,318.6v0.8c0.3,1.9,1.9,3.4,4,4h0.8v-4.6v4.6l0,0l0,0l0,0l0,0h-0.8
	c-1.9-0.3-3.4-1.9-4-4V318.6L346.7,318.6h-21.9v10.6h-1.5v0.8l0,0l0,0l0,0l0,0l0,0H323v4.6l0,0h0.3l0,0l0,0v0.3l0,0v-0.3v0.3h30l0,0
	l0,0v0.3h4.6v-0.3h4.6v-6.2h-0.9l0,0l0,0l0,0v-2.4l0,0h1.7v-7.7h-12l0,0l0,0v-0.1h-0.1l0,0l0,0v-0.3h-4.6L346.7,318.6L346.7,318.6z"
	/>
<path class="st5" d="M358.3,340.5L358.3,340.5L358.3,340.5L358.3,340.5L358.3,340.5h-0.8c-1.9-0.3-3.6-1.9-4-4v-0.8l0,0h-30v30.8
	h1.5l0,0l0,0v2h-1.5v3.8h-0.3v4.6h0.3l0,0l0,0v8.7h37.7l0,0l0,0l0,0h2.4V368h-1.7l0,0l0,0l0,0v-1.9l0,0h0.9v-30.8h-4.6v5.2H358.3z"
	/>
<path class="st5" d="M374.8,256L374.8,256 M374.8,244.4v-12.9 M374.8,244.4L374.8,244.4 M374.7,241.5L374.7,241.5l0.1-0.3l-0.1-0.1
	l-0.1-0.1 M374.4,240.5L374.4,240.5l0.1,0.3v0.1l-0.1,0.1"/>
<path class="st5" d="M539.2,265.4L539.2,265.4h0.9l0,0v4.4h18.1v-1.6l0,0l0,0h1.5v-37.3h-1.5V230h-1.5l0,0l0,0v4.6H556
	c-1.9-0.3-3.6-1.9-4-4v-0.7h-12.1v5.2l0,0l0,0H539v-5.4h-1.9v4.6h-0.8c-1.9-0.3-3.6-1.9-3.8-4v-0.8l0,0H521v40.2l0,0h18.1v-4.2
	L539.2,265.4L539.2,265.4z"/>
<path class="st5" d="M339.2,492.7l0.3,0.1c0.3-0.1,0.9-0.3,0.7-0.9l-0.3-0.1h-0.3l-0.3,0.1l-0.1,0.1v0.1l0.1,0.1v0.4h-0.1V492.7z"/>
<path class="st5" d="M323,212.7h2.4l0,0v1.5h0.9v-4.6h0.8c1.9,0.3,3.6,1.9,4,3.8v0.8l0,0h7.3v-12.5l0,0l0,0l0,0v-4.3l0,0v-1.6v1.6
	l0,0v-1.6h4.7V192v-4.7v-13.4H325v1.6l0,0l0,0h-0.8h0.8l0,0h-2l0,0l0,0l0,0v-1.6h-37.5v1.6l0,0h-0.8v34.4h1.5l0,0v4H323l0,0V212.7
	L323,212.7z M343,195.9h-4.7H343z M338,197.4v4.3V197.4z"/>
<g>
	<text transform="matrix(1 0 0 1 406.9229 198.8789)" class="st1 st6 st7">1222</text>
</g>
<g>
	<text transform="matrix(1 0 0 1 217.5371 496.5096)" class="st1 st6 st7">1307</text>
</g>
<polygon class="st8" points="659.4,218.8 659.4,225.9 653.2,222.5 "/>
<polygon class="st8" points="307.6,463.1 307.6,470.1 301.6,466.9 "/>
<rect x="637.2" y="214.1" class="st1" width="14.6" height="14.2"/>
<polygon class="st8" points="247.2,222.5 247.2,215.4 253.5,218.8 "/>
<polygon class="st8" points="449,469 449,461.5 455,465.3 "/>
<rect x="254.7" y="212.7" class="st1" width="14.6" height="21.9"/>
<rect x="615.6" y="474.2" class="st9" width="7.8" height="1.5"/>
<rect x="615.6" y="476.7" class="st9" width="7.8" height="1.5"/>
<rect x="615.6" y="478.9" class="st9" width="7.8" height="1.5"/>
<rect x="615.6" y="481.3" class="st9" width="7.8" height="1.5"/>
<rect x="615.6" y="483.8" class="st9" width="7.8" height="1.5"/>
<rect x="615.6" y="486.2" class="st9" width="7.8" height="1.5"/>
<rect x="615.6" y="488.5" class="st9" width="7.8" height="1.5"/>
<rect x="615.6" y="490.9" class="st9" width="7.8" height="1.5"/>
<rect x="624" y="474.2" class="st9" width="7.8" height="1.5"/>
<rect x="624" y="476.7" class="st9" width="7.8" height="1.5"/>
<rect x="624" y="478.9" class="st9" width="7.8" height="1.5"/>
<rect x="624" y="481.3" class="st9" width="7.8" height="1.5"/>
<rect x="624" y="483.8" class="st9" width="7.8" height="1.5"/>
<rect x="624" y="486.2" class="st9" width="7.8" height="1.5"/>
<rect x="624" y="488.5" class="st9" width="7.8" height="1.5"/>
<rect x="624" y="490.9" class="st9" width="7.8" height="1.5"/>
<rect x="615.6" y="493.4" class="st9" width="7.8" height="1.5"/>
<rect x="615.6" y="495.6" class="st9" width="7.8" height="1.5"/>
<rect x="624" y="493.4" class="st9" width="7.8" height="1.5"/>
<rect x="624" y="495.6" class="st9" width="7.8" height="1.5"/>
<rect x="615.6" y="461.9" class="st9" width="7.8" height="1.5"/>
<rect x="615.6" y="464.2" class="st9" width="7.8" height="1.5"/>
<rect x="615.6" y="466.9" class="st9" width="7.8" height="1.5"/>
<rect x="624" y="461.9" class="st9" width="7.8" height="1.5"/>
<rect x="624" y="464.2" class="st9" width="7.8" height="1.5"/>
<rect x="624" y="466.9" class="st9" width="7.8" height="1.5"/>
<rect x="615.6" y="469.2" class="st9" width="7.8" height="1.5"/>
<rect x="615.6" y="471.7" class="st9" width="7.8" height="1.5"/>
<rect x="624" y="469.2" class="st9" width="7.8" height="1.5"/>
<rect x="624" y="471.7" class="st9" width="7.8" height="1.5"/>
<rect x="157.7" y="473.7" class="st9" width="7.8" height="1.5"/>
<rect x="157.7" y="475.9" class="st9" width="7.8" height="1.5"/>
<rect x="157.7" y="478.5" class="st9" width="7.8" height="1.5"/>
<rect x="157.7" y="480.6" class="st9" width="7.8" height="1.5"/>
<rect x="157.7" y="483" class="st9" width="7.8" height="1.5"/>
<rect x="157.7" y="485.4" class="st9" width="7.8" height="1.5"/>
<rect x="157.7" y="487.7" class="st9" width="7.8" height="1.5"/>
<rect x="157.7" y="490.1" class="st9" width="7.8" height="1.5"/>
<rect x="165.8" y="473.7" class="st9" width="7.8" height="1.5"/>
<rect x="165.8" y="475.9" class="st9" width="7.8" height="1.5"/>
<rect x="165.8" y="478.5" class="st9" width="7.8" height="1.5"/>
<rect x="165.8" y="480.6" class="st9" width="7.8" height="1.5"/>
<rect x="165.8" y="483" class="st9" width="7.8" height="1.5"/>
<rect x="165.8" y="485.4" class="st9" width="7.8" height="1.5"/>
<rect x="165.8" y="487.7" class="st9" width="7.8" height="1.5"/>
<rect x="165.8" y="490.1" class="st9" width="7.8" height="1.5"/>
<rect x="157.7" y="492.7" class="st9" width="7.8" height="1.5"/>
<rect x="157.7" y="495.1" class="st9" width="7.8" height="1.5"/>
<rect x="165.8" y="492.7" class="st9" width="7.8" height="1.5"/>
<rect x="165.8" y="495.1" class="st9" width="7.8" height="1.5"/>
<rect x="157.9" y="461.3" class="st9" width="7.8" height="1.5"/>
<rect x="157.9" y="463.5" class="st9" width="7.8" height="1.5"/>
<rect x="157.9" y="466" class="st9" width="7.8" height="1.5"/>
<rect x="166.2" y="461.3" class="st9" width="7.8" height="1.5"/>
<rect x="166.2" y="463.5" class="st9" width="7.8" height="1.5"/>
<rect x="166.2" y="466" class="st9" width="7.8" height="1.5"/>
<rect x="157.9" y="468.4" class="st9" width="7.8" height="1.5"/>
<rect x="157.9" y="470.8" class="st9" width="7.8" height="1.5"/>
<rect x="166.2" y="468.4" class="st9" width="7.8" height="1.5"/>
<rect x="166.2" y="470.8" class="st9" width="7.8" height="1.5"/>
<rect x="291.7" y="247.1" class="st9" width="1.5" height="7.8"/>
<rect x="289.4" y="247.1" class="st9" width="1.5" height="7.8"/>
<rect x="286.7" y="247.1" class="st9" width="1.5" height="7.8"/>
<rect x="284.5" y="247.1" class="st9" width="1.5" height="7.8"/>
<rect x="282.1" y="247.1" class="st9" width="1.5" height="7.8"/>
<rect x="279.7" y="247.1" class="st9" width="1.5" height="7.8"/>
<rect x="277.4" y="247.1" class="st9" width="1.5" height="7.8"/>
<rect x="275.1" y="247.1" class="st9" width="1.5" height="7.8"/>
<rect x="291.7" y="255.4" class="st9" width="1.5" height="7.8"/>
<rect x="289.4" y="255.4" class="st9" width="1.5" height="7.8"/>
<rect x="286.7" y="255.4" class="st9" width="1.5" height="7.8"/>
<rect x="284.5" y="255.4" class="st9" width="1.5" height="7.8"/>
<rect x="282.1" y="255.4" class="st9" width="1.5" height="7.8"/>
<rect x="279.7" y="255.4" class="st9" width="1.5" height="7.8"/>
<rect x="277.4" y="255.4" class="st9" width="1.5" height="7.8"/>
<rect x="275.1" y="255.4" class="st9" width="1.5" height="7.8"/>
<rect x="272.4" y="247.1" class="st9" width="1.5" height="7.8"/>
<rect x="270" y="247.1" class="st9" width="1.5" height="7.8"/>
<rect x="272.4" y="255.4" class="st9" width="1.5" height="7.8"/>
<rect x="270" y="255.4" class="st9" width="1.5" height="7.8"/>
<rect x="303.9" y="247.4" class="st9" width="1.5" height="7.8"/>
<rect x="301.6" y="247.4" class="st9" width="1.5" height="7.8"/>
<rect x="299.5" y="247.4" class="st9" width="1.5" height="7.8"/>
<rect x="303.9" y="256" class="st9" width="1.5" height="7.8"/>
<rect x="301.6" y="256" class="st9" width="1.5" height="7.8"/>
<rect x="299.5" y="256" class="st9" width="1.5" height="7.8"/>
<rect x="296.8" y="247.4" class="st9" width="1.5" height="7.8"/>
<rect x="294.3" y="247.4" class="st9" width="1.5" height="7.8"/>
<rect x="296.8" y="256" class="st9" width="1.5" height="7.8"/>
<rect x="294.3" y="256" class="st9" width="1.5" height="7.8"/>
<rect x="348.9" y="388.3" class="st9" width="1.5" height="7.8"/>
<rect x="346.7" y="388.3" class="st9" width="1.5" height="7.8"/>
<rect x="344.2" y="388.3" class="st9" width="1.5" height="7.8"/>
<rect x="341.9" y="388.3" class="st9" width="1.5" height="7.8"/>
<rect x="339.6" y="388.3" class="st9" width="1.5" height="7.8"/>
<rect x="337.2" y="388.3" class="st9" width="1.5" height="7.8"/>
<rect x="334.8" y="388.3" class="st9" width="1.5" height="7.8"/>
<rect x="332.6" y="388.3" class="st9" width="1.5" height="7.8"/>
<rect x="348.9" y="396.8" class="st9" width="1.5" height="7.8"/>
<rect x="346.7" y="396.8" class="st9" width="1.5" height="7.8"/>
<rect x="344.2" y="396.8" class="st9" width="1.5" height="7.8"/>
<rect x="341.9" y="396.8" class="st9" width="1.5" height="7.8"/>
<rect x="339.6" y="396.8" class="st9" width="1.5" height="7.8"/>
<rect x="337.2" y="396.8" class="st9" width="1.5" height="7.8"/>
<rect x="334.8" y="396.8" class="st9" width="1.5" height="7.8"/>
<rect x="332.6" y="396.8" class="st9" width="1.5" height="7.8"/>
<rect x="330.1" y="388.3" class="st9" width="1.5" height="7.8"/>
<rect x="327.4" y="388.3" class="st9" width="1.5" height="7.8"/>
<rect x="330.1" y="396.8" class="st9" width="1.5" height="7.8"/>
<rect x="327.4" y="396.8" class="st9" width="1.5" height="7.8"/>
<rect x="361.1" y="388.3" class="st9" width="1.5" height="7.8"/>
<rect x="359" y="388.3" class="st9" width="1.5" height="7.8"/>
<rect x="356.5" y="388.3" class="st9" width="1.5" height="7.8"/>
<rect x="361.1" y="396.8" class="st9" width="1.5" height="7.8"/>
<rect x="359" y="396.8" class="st9" width="1.5" height="7.8"/>
<rect x="356.5" y="396.8" class="st9" width="1.5" height="7.8"/>
<rect x="354" y="388.3" class="st9" width="1.5" height="7.8"/>
<rect x="351.7" y="388.3" class="st9" width="1.5" height="7.8"/>
<rect x="354" y="396.8" class="st9" width="1.5" height="7.8"/>
<rect x="351.7" y="396.8" class="st9" width="1.5" height="7.8"/>
<path class="st10" d="M290.9,57.8"/>
<g>
	<g>
		<path class="st8" d="M343.6,475.8c-0.3,0-0.9-0.3-0.9-0.9c0-0.7,0.3-0.9,0.9-0.9c0.3,0,0.9,0.3,0.9,0.9
			C344.6,475.2,344.5,475.8,343.6,475.8z"/>
	</g>
	<path class="st8" d="M342.6,478.3v1.9c0,0.3-0.1,0.3-0.3,0.3c-0.1,0-0.3-0.1-0.3-0.3v-2.6c0-0.9,0.4-1.6,1.5-1.6h0.3
		c0.9,0,1.7,0.3,1.7,1.6v2.6c0,0.3-0.1,0.3-0.3,0.3c-0.1,0-0.3-0.1-0.3-0.3v-1.9c0-0.1-0.1-0.1-0.1-0.1s-0.1,0-0.1,0.1
		c0,0.3,0,6.9,0,6.9c0,0.3-0.3,0.3-0.3,0.3s-0.3,0-0.3-0.3s0-4,0-4c0-0.1,0-0.1-0.1-0.1s-0.1,0-0.1,0.1c0,0,0,3.6,0,4
		s-0.3,0.3-0.3,0.3c-0.1,0-0.3,0-0.3-0.3c0,0,0-6.7,0-6.9c0-0.1-0.1-0.1-0.1-0.1C342.8,478,342.6,478.2,342.6,478.3z"/>
</g>
<g>
	<g>
		<path class="st8" d="M331.3,246.6c-0.3,0-0.9-0.3-0.9-0.9c0-0.7,0.3-0.9,0.9-0.9c0.3,0,0.9,0.3,0.9,0.9
			C332.2,246.2,332,246.6,331.3,246.6z"/>
	</g>
	<path class="st8" d="M330.2,249.3v1.9c0,0.3-0.1,0.3-0.3,0.3s-0.3-0.1-0.3-0.3v-2.6c0-0.9,0.4-1.6,1.5-1.6h0.3
		c0.9,0,1.7,0.3,1.7,1.6v2.6c0,0.3-0.1,0.3-0.3,0.3s-0.3-0.1-0.3-0.3v-1.9c0-0.1-0.1-0.1-0.1-0.1s-0.1,0-0.1,0.1c0,0.3,0,6.9,0,6.9
		c0,0.3-0.3,0.3-0.3,0.3s-0.3,0-0.3-0.3s0-4,0-4c0-0.1,0-0.1-0.1-0.1s-0.1,0-0.1,0.1c0,0,0,3.6,0,4s-0.3,0.3-0.3,0.3
		c-0.1,0-0.3,0-0.3-0.3c0,0,0-6.7,0-6.9s-0.1-0.1-0.1-0.1C330.5,249,330.2,249.1,330.2,249.3z"/>
</g>
<g>
	<g>
		<path class="st8" d="M353.1,244.4c-0.3,0-0.8-0.3-0.8-0.8c0-0.3,0.3-0.8,0.8-0.8c0.3,0,0.8,0.3,0.8,0.8
			C353.7,244.4,353.5,244.4,353.1,244.4z"/>
		<path class="st8" d="M353.5,245.1c0.8,0,0.9,0.3,1.5,0.9l0.7,2.6c0,0.1,0,0.3-0.1,0.3s-0.3,0-0.3-0.1l-0.7-2
			c0-0.1-0.1-0.1-0.1-0.1c-0.1,0-0.1,0.1,0,0.3l0.9,3.8h-1.5c0,1.7,0,2.8,0,2.8c0,0.3-0.1,0.3-0.3,0.3s-0.3,0-0.3-0.3s0-2.7,0-2.7
			c0-0.1,0-0.1-0.1-0.1s-0.1,0-0.1,0.1c0,0,0,2.4,0,2.7c0,0.3-0.1,0.3-0.3,0.3s-0.3,0-0.3-0.3c0,0,0-1.5,0-2.8H351l0.9-3.8
			c0-0.1,0-0.1,0-0.3c-0.1,0-0.1,0-0.1,0.1l-0.7,1.9c0,0.1-0.1,0.3-0.3,0.1c-0.1,0-0.1-0.1-0.1-0.3l0.7-2.6c0.1-0.3,0.3-0.9,1.5-0.9
			L353.5,245.1L353.5,245.1z"/>
	</g>
</g>
<g>
	<g>
		<path class="st8" d="M373.2,460.4c-0.3,0-0.8-0.3-0.8-0.8s0.3-0.8,0.8-0.8c0.3,0,0.8,0.3,0.8,0.8
			C374,459.6,373.9,460.4,373.2,460.4z"/>
		<path class="st8" d="M373.9,460.6c0.8,0,0.9,0.3,1.5,0.9l0.7,2.6c0,0.1,0,0.3-0.1,0.3s-0.3,0-0.3-0.1l-0.7-2
			c0-0.1-0.1-0.1-0.1-0.1c-0.1,0-0.1,0.1,0,0.3l0.9,3.8h-1.6c0,1.7,0,2.8,0,2.8c0,0.3-0.1,0.3-0.3,0.3s-0.3,0-0.3-0.3s0-2.7,0-2.7
			c0-0.1,0-0.1-0.1-0.1s-0.1,0-0.1,0.1c0,0,0,2.4,0,2.7c0,0.3-0.1,0.3-0.3,0.3s-0.3,0-0.3-0.3c0,0,0-1.5,0-2.8H372l0.9-3.8
			c0-0.1,0-0.1,0-0.3c-0.1,0-0.1,0-0.1,0.1l-0.7,2c0,0.1-0.1,0.3-0.3,0.1c-0.3-0.1-0.1-0.1-0.1-0.3l0.7-2.6
			C372.5,461.3,372.7,460.6,373.9,460.6L373.9,460.6z"/>
	</g>
</g>
<rect x="403.4" y="430.8" class="st1" width="13" height="10.5"/>
<rect x="435.3" y="430.8" class="st1" width="13" height="10.5"/>
<rect x="403.4" y="511.8" class="st1" width="13" height="10.5"/>
<rect x="435.3" y="511.8" class="st1" width="13" height="10.5"/>
<rect x="442.5" y="430.8" class="st1" width="5.4" height="10.5"/>
<rect x="402.9" y="513" class="st1" width="5.4" height="10.5"/>
<rect x="442.5" y="513" class="st1" width="5.4" height="10.5"/>
<g class="st11">
	<g>
		<text transform="matrix(1 0 0 1 231.3435 38.7969)" class="st12 st6 st13">Level </text>
	</g>
	<circle class="st12" cx="274.5" cy="36.9" r="18.3"/>
	<text transform="matrix(1 0 0 1 265.6277 50.7266)" class="st1 st6 st14">1</text>
</g>
<polygon class="st5" points="186.8,69.2 186.8,54.9 186.8,54.6 186.8,42.2 186.8,42 186.8,34.9 188.3,34.9 188.3,29.1 188.3,26.9 
	188.3,21.3 182.6,21.3 180.4,21.3 174.7,21.3 174.7,22.8 168.9,22.8 168.7,22.8 157.4,22.8 157.1,22.8 145.8,22.8 145.6,22.8 
	139.8,22.8 139.8,21.3 134,21.3 131.7,21.3 126.1,21.3 126.1,22.8 120.2,22.8 120,22.8 108.3,22.8 108.1,22.8 97.5,22.8 97.2,22.8 
	91.8,22.8 91.7,20.5 86,20.5 82,20.5 76.4,20.5 76.4,26.1 76.4,28.9 76.4,190 76.4,195.8 76.4,223.3 76.4,229 82,229 94.2,229 
	103.2,229 136.4,229 145.4,229 183.2,229 188.8,229 188.8,223.3 188.8,74.8 188.8,69.2 "/>
<polygon class="st5" points="386.2,772.4 386.2,771.7 386,771.4 385.7,771 385.6,770.8 385.3,770.4 384.9,770.1 384.8,769.8 
	384.5,769.7 384.2,769.3 383.8,769 383.5,768.9 383.1,768.6 382.9,768.5 382.9,765.8 382.9,763.5 382.9,748.2 388.1,748.2 
	387.6,742.3 387.6,741.6 387.6,740 387.6,739.7 387.4,739.1 387.3,738.8 387,738.4 386.9,737.7 386.8,737.5 386.9,737.2 387,736.5 
	387.3,736.3 387.4,735.6 387.6,734.9 387.7,734.6 387.7,733.7 387.7,733 388,727.1 382.9,727.1 382.9,698.2 382.9,695.8 
	384.9,695.8 384.9,690.4 384.9,689 384.9,683.6 382.9,683.6 382.9,680.8 382.9,661.2 382.9,659.1 384.9,659.1 384.9,653.8 
	384.9,652.2 384.9,646.6 382.9,646.6 382.9,644 382.9,624.3 382.9,621.8 384.9,621.8 384.9,616.4 384.9,614.8 384.9,609.4 
	382.9,609.4 382.9,606.7 382.9,587.1 382.9,584.4 384.9,584.4 384.9,579.1 384.9,577.6 384.9,572.1 382.9,572.1 382.9,569.5 
	382.9,557.7 382.9,552.3 377.4,552.3 345.1,552.3 345.1,542.4 345.1,540.4 347,534.9 341.6,534.9 341.1,534.9 340.6,534.9 
	303.6,534.9 302.9,534.9 302.4,534.9 296.8,534.9 296.8,540.2 296.8,542.3 296.8,552.3 259.7,552.3 254.3,552.3 254.3,557.8 
	254.3,569.5 254.3,572.2 252.3,572.2 252.3,577.6 252.3,579.2 252.3,584.6 254.3,584.6 254.3,587.1 254.3,606.9 254.3,609.6 
	252.3,609.6 252.3,614.9 252.3,616.6 252.3,621.9 254.3,621.9 254.3,624.5 254.3,644 254.3,646.6 252.3,646.6 252.3,652.2 
	252.3,653.6 252.3,659 254.3,659 254.3,661.7 254.3,681.2 254.3,683.9 252.3,683.9 252.3,689.2 252.3,690.8 252.3,696.2 
	254.3,696.2 254.3,698.8 254.3,720.5 253.9,720.5 253.9,713.5 252,713.5 252,720.5 250.7,720.5 250.5,720.3 250.3,719.9 
	250.1,719.6 249.9,719.2 249.9,713.5 248,713.5 248,717.6 247.7,717.4 247.5,717.2 246.8,717 246.3,717 246,716.9 245.6,716.9 
	245.6,716.9 245.6,713.5 243.7,713.5 243.7,716.9 241.5,716.9 241.4,716.9 241.4,713.5 239.5,713.5 239.5,716.9 239.3,716.9 
	239,717 238.5,717 238.1,717.2 237.8,717.4 237.4,717.7 237.3,717.7 237.3,713.5 235.4,713.5 235.4,719.6 235.2,719.7 235.1,720.3 
	234.8,720.5 233.1,720.5 233.1,713.5 231.1,713.5 231.1,720.5 231.1,720.5 231.1,706.3 231.1,700.9 225.7,700.9 213.9,700.9 
	211.3,700.9 211.3,698.9 205.5,698.9 203.9,698.9 198.6,698.9 198.6,700.9 195.9,700.9 175,700.9 172,700.9 172,698.9 166.6,698.9 
	165,698.9 159.6,698.9 159.6,700.9 157,700.9 136.1,700.9 133.4,700.9 133.4,698.9 128.3,698.9 126.6,698.9 121,698.9 121,700.9 
	118.5,700.9 97.8,700.9 95.5,700.9 95.5,698.9 90.1,698.9 88.5,698.9 83.3,698.9 83.3,700.9 80.7,700.9 68.8,700.9 63.4,700.9 
	63.4,706.3 63.4,727.9 63.1,728.1 62.9,728.2 62.5,728.5 61.9,728.7 61.7,729.1 61.4,729.4 61.1,729.5 60.9,729.9 60.5,730.2 
	60.2,730.6 60.1,730.9 59.8,731.3 59.7,731.6 59.5,732.1 59.4,732.8 59.4,733.4 59.4,734.1 59.4,734.1 59.4,734.2 59.4,736.9 
	59.4,737.1 59.4,737.2 59.4,737.7 59.4,738.3 59.5,738.9 59.5,739.5 59.7,740 59.9,740.6 60.2,741 60.3,741.2 60.6,741.6 
	60.9,741.9 61.1,742.2 61.4,742.3 61.7,742.7 62.1,743 62.3,743.1 62.7,743.4 63,743.5 63,777.2 63,782.6 68.4,782.6 82.8,782.6 
	82.8,799.5 82.8,804.9 88.1,804.9 224.1,804.9 229.5,804.9 229.5,799.5 229.5,768.2 231.6,768.2 231.6,771.7 233.5,771.7 
	233.5,768.2 235.6,768.2 235.6,771.7 237.5,771.7 237.5,768.2 239.9,768.2 239.9,771.7 241.8,771.7 241.8,768.2 244,768.2 
	244,771.7 245.8,771.7 245.8,768.2 248.3,768.2 248.3,771.7 250.1,771.7 250.1,768.2 252.3,768.2 252.3,771.7 254.2,771.7 
	254.2,790.9 254.2,793.6 252,793.6 252,799.1 252,800.6 252,806 254,806 254,808.7 254,820.5 254,825.9 259.4,825.9 276.3,825.9 
	276.3,837.1 276.3,837.4 276.3,837.5 276.3,838.2 276.3,838.6 276.5,838.9 276.6,839.4 276.7,840.1 276.9,840.4 277.1,840.9 
	277.3,841.2 277.6,841.4 277.8,842 278.1,842.2 278.2,842.5 278.6,842.8 278.9,843.1 279,843.3 279.7,843.6 280.2,844 280.8,844.3 
	281.3,844.4 281.7,844.5 282,844.7 282.5,844.8 282.9,844.9 283.2,844.9 283.9,844.9 284.1,844.9 284.4,844.9 317.2,844.9 
	322.2,844.9 326.9,844.9 327.1,844.9 327.4,844.9 328.1,844.9 328.3,844.9 328.7,844.8 329.3,844.7 329.5,844.5 329.9,844.4 
	330.5,844.3 331,844 331.6,843.6 332.2,843.3 332.4,843.1 332.6,842.8 333,842.5 333.2,842.2 333.4,842 333.7,841.4 334,841.2 
	334.1,840.9 334.4,840.4 334.5,840.1 334.6,839.4 334.8,838.9 334.9,838.6 334.9,838.4 334.9,837.7 334.9,837.4 334.9,837.3 
	334.9,826 377.4,826 382.9,826 382.9,820.5 382.9,783.4 383,783.4 383.4,783.1 383.7,782.9 384.1,782.7 384.4,782.3 384.6,782.1 
	384.9,781.9 385.2,781.5 385.6,781.3 385.7,780.9 386,780.6 386.2,780.2 386.2,779.9 386.4,779.2 386.5,779 386.5,778.6 386.5,778 
	386.5,777.9 386.5,777.6 386.5,774.5 386.5,774.4 386.5,774.1 386.5,773.6 386.5,773.2 386.4,772.9 "/>
</svg>
