<?xml version="1.0" encoding="utf-8"?>
<!-- Generator: Adobe Illustrator 19.1.0, SVG Export Plug-In . SVG Version: 6.00 Build 0)  -->
<svg version="1.1" id="Layer_1" xmlns="http://www.w3.org/2000/svg" xmlns:xlink="http://www.w3.org/1999/xlink" x="0px" y="0px"
	 viewBox="0 0 720 864" style="enable-background:new 0 0 720 864;" xml:space="preserve">
<style type="text/css">
	.st0{fill:#4B6DB4;}
	.st1{fill:#FFFFFF;}
	.st2{font-family:'MyriadPro-Regular';}
	.st3{font-size:12.531px;}
	.st4{fill:#CDCCCC;}
	.st5{font-family:'ArialMT';}
	.st6{font-size:9.9428px;}
	.st7{fill:#989798;}
	.st8{opacity:0.6;fill:#4B6DB4;enable-background:new    ;}
	.st9{fill:#4C6EB5;}
	.st10{opacity:0.5;}
	.st11{fill:#989898;}
	.st12{font-size:10.8361px;}
	.st13{font-size:34.6761px;}
</style>
<g>
	<rect x="369.1" y="218.5" class="st0" width="10.3" height="12.4"/>
	<text transform="matrix(1 0 0 1 370.8965 229.0371)" class="st1 st2 st3">E</text>
</g>
<g>
	<rect x="285" y="437.2" class="st0" width="10.3" height="12.4"/>
	<text transform="matrix(1 0 0 1 286.9356 447.7754)" class="st1 st2 st3">E</text>
</g>
<path class="st4" d="M356.9,496L356.9,496h12.5v-0.3v-0.3h-12.5l0,0v-11.3l0,0h7.7v-11.7l0,0h2.3v-0.3v-0.3h-0.5V468h-14.9v0.3v0.3
	h0.7l0,0v5H344l0,0v-5h0.7v-0.3l0,0V468h-8.3l0,0l0,0v-0.3h-3.9v0.3h-11.7v2.8l0,0h0.3l0,0h0.3v-2.1l0,0h11.2l0,0l0,0v1.6l0,0v-1.6
	v1.6l0,0h-1.7v1.9h1.7l0,0l0,0v4.4l0,0h-11l0,0v-0.7H321l0,0h-0.3v2.3l0,0h0.3l0,0h0.3v-0.7l0,0h11.2l0,0v5.9l0,0h-0.9v0.7h24.7l0,0
	v12.2l0,0h-34.7l0,0v-12l0,0h5.9v-0.5l0,0v-0.3h-5.9l0,0l0,0V483h-0.3l0,0H321v24h0.3l0,0l0,0l0,0h0.3v-0.5h4.8V506v-0.3h-4.8l0,0
	V497l0,0h14.2l0,0v8.7l0,0H331v0.7h4.8l0,0l0,0l0,0l0,0v0.7h0.3l0,0l0,0l0,0h0.3v-6.7l0,0h19.9l0,0v12.2l0,0h-19.9l0,0v-0.5h-0.5
	l0,0h-0.3v0.7l0,0h-2.3l0,0h24v-16.3L356.9,496L356.9,496L356.9,496z M333,468.6L333,468.6h10.3l0,0v5l0,0H333l0,0V468.6z
	 M333,483.2L333,483.2v-8.7l0,0h30.9l0,0v9l0,0H333V483.2z M345.4,496.5H344H345.4z M355.9,499.4L355.9,499.4h-20.3l0,0v-2.7l0,0
	h19.9l0,0v2.7H355.9z"/>
<polygon class="st4" points="214.5,500.8 209.5,500.8 209.5,500.8 209.5,500.8 209.5,500.6 204.4,500.6 204.4,500.8 199.6,500.8 
	199.6,512.3 199.8,512.3 199.8,512.3 199.8,512.3 199.8,512.3 199.8,512.3 200.2,512.3 207.1,512.3 214.5,512.3 "/>
<path class="st4" d="M204,472.1v0.3h-4.3v28.2h4.8v-4.8v4.8l0,0v0.1h4.8v-0.1l0,0v-0.9c-0.3-2.3-1.9-3.8-4.2-4.2h-0.7h0.7
	c2.3,0.3,3.8,1.9,4.2,4.2v0.7h4.8v-27.9h-4.7v-0.3l0,0L204,472.1L204,472.1z"/>
<polygon class="st4" points="191.5,512.3 198.5,512.3 198.6,512.3 198.6,512.3 198.6,512.3 198.6,512.3 199,512.3 199,472.4 
	193.6,472.4 193.6,472.1 193.6,472.1 188,472.1 188,472.4 166.6,472.4 166.6,479.7 165.8,479.7 165.8,494.3 165.8,512.3 
	165.8,512.3 "/>
<polygon class="st4" points="231.5,493.4 231.4,493.4 231.4,496.5 231.5,496.5 231.5,497.4 244,497.4 244,472.4 231.5,472.4 
	231.5,490.3 231.5,490.3 231.5,490.3 231.5,490.3 231.5,490.3 231.5,490.3 "/>
<polygon class="st4" points="244,512.3 244,498.1 230.9,498.1 244,498.1 244,498.1 230.9,498.1 230.9,498.1 230.9,498.1 
	230.9,496.5 230.9,496.5 231.4,496.5 231.4,493.4 231.4,493.4 231.4,490.3 231.3,490.3 231.3,490.3 230.9,490.3 230.9,472.4 
	229.9,472.4 229.9,472.1 229.9,472.1 224.1,472.1 224.1,472.4 224.1,472.4 215.8,472.4 215.8,512.3 224.9,512.3 231.5,512.3 
	231.7,512.3 231.7,512.3 231.7,512.3 231.7,512.3 231.7,512.3 232.1,512.3 232.1,508.9 230.9,508.9 230.9,508.9 230.9,508.3 
	232.9,508.3 232.9,512.3 233.3,512.3 233.3,512.3 233.3,512.3 233.3,512.3 233.4,512.3 240,512.3 "/>
<path class="st4" d="M309.2,497.7H298l0,0v-0.3h-4.8v0.3l0,0l0,0v4.8h0.7c2.1-0.3,3.8-2.1,4.2-4.2v-0.9v0.7
	c-0.3,2.1-2.1,3.9-4.2,4.2h-0.7v-4.8h-0.7v14.9h5.1v-1.5l0,0l0,0h1.9l0,0v1.3h9.8L309.2,497.7L309.2,497.7z"/>
<polygon class="st4" points="299.4,496.5 299.4,496.5 299.4,496.9 309.2,496.9 309.2,486.4 299.4,486.4 299.4,491.6 299.4,491.6 
	299,491.6 299,496.5 "/>
<polygon class="st4" points="296.8,472.1 292.4,472.1 292.4,472.4 292.4,472.4 287.9,472.4 287.9,485.8 292.8,485.8 292.8,485.8 
	292.8,485.8 292.8,486 297.6,486 297.6,485.8 297.6,485.8 297.6,485.8 297.6,485.8 309.2,485.8 309.2,472.4 296.8,472.4 
	296.8,472.4 "/>
<polygon class="st4" points="274.6,495.1 274.6,495.1 275.1,495.1 275.1,490 274.6,490 274.6,490 274.6,472.4 256.2,472.4 
	256.2,472.4 256.2,472.1 256.2,472.1 250.5,472.1 250.5,472.4 250.5,472.4 244.7,472.4 244.7,512.3 257.9,512.3 264.8,512.3 
	265,512.3 265,512.3 265,512.3 265,512.3 265,512.3 266.5,512.3 266.5,512.3 266.5,512.3 266.5,512.3 266.7,512.3 273.3,512.3 
	274.6,512.3 "/>
<path class="st4" d="M199.6,435.9h4.2v0.7c-0.1,1.6-1.7,3.1-3.4,3.4h-0.7l0,0v15.6h2.1v-4.8h0.7c2.1,0.3,3.9,2.1,4.2,4.2v0.7l0,0
	l0,0h9V435h-16.3L199.6,435.9L199.6,435.9z"/>
<path class="st4" d="M197,449.8h0.7v5.8h0.7V440l0,0h0.3v-4.2h-0.3l0,0v-0.9h-32.6v20.7h26.1l0,0v-0.7
	C192.6,452.5,194.7,450.2,197,449.8z"/>
<path class="st4" d="M262.4,450.9h0.7v4.8h2.3V435h-16.3v20.7h9l0,0V455C258.7,452.7,260.1,451.2,262.4,450.9z"/>
<path class="st4" d="M234.9,455.6v-4.8h0.7c2.1,0.3,3.9,2.1,4.2,4.2v0.7l0,0h9V435h-16.3v20.7L234.9,455.6L234.9,455.6z"/>
<path class="st4" d="M229,450.9h0.7v4.8h2.3V435h-16.3v20.7h9l0,0V455C225.5,452.7,226.8,451.2,229,450.9z"/>
<path class="st4" d="M268.1,455.6L268.1,455.6L268.1,455.6v-4.8h0.7c2.3,0.3,3.8,1.7,4.2,4.2v0.7h9.1V435h-16.5v20.7L268.1,455.6
	L268.1,455.6z"/>
<polygon class="st4" points="299.6,433.6 299.6,432.6 299.6,433.6 311.1,433.6 311.1,433.6 311.1,434.3 319.7,434.3 319.7,433.6 
	319.7,433.6 331.1,433.6 331.1,432.6 331.1,432.6 331.9,432.6 331.9,417.6 298.8,417.6 298.8,432.6 299.6,432.6 299.6,432.6 
	299.6,432.6 299.6,432.6 "/>
<path class="st4" d="M330.8,513.9h-10.7l0,0v4.8h-0.7c-2.1-0.3-3.8-2.1-4.2-4.2v-0.7v0.7c-0.3,2.1-1.9,3.8-4.2,4.2h-0.7v-4.8l0,0
	h-10.7l0,0l0,0h-0.9v13.3v2.6H332v-16.1h-1.3L330.8,513.9L330.8,513.9z"/>
<polygon class="st4" points="336,511.2 336,511.2 336,512.3 355.9,512.3 355.9,500.3 336,500.3 336,506.9 335.5,506.9 335.5,511.2 
	"/>
<path class="st4" d="M330.5,505.9h-4.3v0.3h-4.8v0.7h0.7c1.7,0.3,3.4,1.6,3.8,3.8l0.1,0.7l0,0l0,0h-4.3v0.7h9.8v-1.3l0,0l0,0l0,0
	v-0.3c0.3-1.7,1.6-3.1,3.8-3.8h0.7l0,0l0,0v-0.5h-4.8l0,0l0,0L330.5,505.9L330.5,505.9z"/>
<polygon class="st4" points="326.2,505.9 330.5,505.9 330.5,505.9 330.5,505.6 330.5,505.6 335.4,505.6 335.4,496.9 321,496.9 
	321,505.6 326.2,505.6 326.2,505.6 "/>
<polygon class="st4" points="331.3,483.7 331.3,483.7 326.8,483.7 326.8,483.8 326.8,483.8 321,483.8 321,496 355.9,496 
	355.9,483.8 331.3,483.8 331.3,483.8 "/>
<path class="st4" d="M325.4,478.2l-0.1,0.7c-0.3,1.7-1.7,3.4-3.8,3.8h-0.7l0,0v0.5h5.9l0,0v-0.7c0.3-1.7,1.7-3.4,3.8-3.8h0.7v4.3
	l0,0h0.9v-5.9H321v0.7L325.4,478.2L325.4,478.2z"/>
<path class="st4" d="M326.2,475.2v0.7h-4.8v0.7h11.2v-4.4h-1.7l0,0l0,0v-1.9l0,0h1.7v-1.7h-11.2v2.3l0,0h0.7
	C324.1,471.2,325.4,472.8,326.2,475.2z"/>
<polygon class="st4" points="345,468.2 345,468.6 343.8,468.6 343.8,473.9 352,473.9 352,468.6 351.6,468.6 351.6,468.2 
	351.6,468.2 "/>
<path class="st4" d="M366.1,512.3h6.7h16.9V496h-14.2l0,0v-0.3h-5.8v0.3h-12.5v16.3l0,0v0.1h0.1h6.7l0,0l0,0h1.5l0,0L366.1,512.3
	L366.1,512.3z M366.7,496.2h5.8v0.3h-5.8V496.2z"/>
<polygon class="st4" points="379.4,472.4 379.4,472.4 378.5,472.4 378.5,495.2 389.5,495.2 389.5,472.4 385.3,472.4 385.3,472.4 
	385.3,472.1 379.4,472.1 "/>
<polygon class="st4" points="369.4,495.8 375.3,495.8 375.3,495.2 375.3,495.2 378,495.2 378,472.4 372.9,472.4 372.9,472.4 
	372.9,472.1 367.1,472.1 367.1,472.4 367.1,472.4 364.8,472.4 364.8,483.8 364.8,483.8 356.9,483.8 356.9,495.2 369.4,495.2 
	369.4,495.2 369.4,495.2 "/>
<polygon class="st4" points="431.2,504.1 431.2,472.4 416.2,472.4 416.2,479 415.8,479 415.8,483.8 416.2,483.8 416.2,483.8 
	416.2,504.1 421.6,504.1 421.6,504.1 421.6,504.4 425.8,504.4 425.8,504.1 "/>
<polygon class="st4" points="431.2,511.5 431.3,511.5 431.3,507.3 431.2,507.3 431.2,507.3 431.2,504.8 425.8,504.8 425.8,504.8 
	425.8,504.4 421.6,504.4 421.6,504.8 421.6,504.8 421.6,504.8 415.6,504.8 415.6,483.8 415.6,483.8 415.6,483.8 415.8,483.8 
	415.8,479 415.6,479 415.6,479 415.6,479 415.6,472.4 414.4,472.4 414.4,472.4 414.4,472.1 408.6,472.1 408.6,472.4 390.3,472.4 
	390.3,504.1 398.6,504.1 398.6,504.1 398.6,505.7 398.6,505.7 398.6,505.7 398.6,505.7 398.6,505.7 398.4,505.7 398.4,508.9 
	398.6,508.9 398.6,508.9 398.6,512.3 398.6,512.3 399.2,512.3 406,512.3 423.8,512.3 430.6,512.3 430.6,512.3 430.6,512.3 
	431.2,512.3 "/>
<polygon class="st4" points="398,508.9 398.4,508.9 398.4,505.7 398,505.7 398,505.7 398,504.8 390.3,504.8 390.3,512.3 
	390.6,512.3 397.2,512.3 397.2,512.3 397.2,512.3 398,512.3 "/>
<polygon class="st4" points="497.3,503.8 497.3,472.4 487.8,472.4 487.8,472.4 487.8,472.4 487.8,472.1 481.9,472.1 481.9,472.4 
	465.4,472.4 465.4,512.3 497.3,512.3 497.3,507.9 497.3,507.9 497.8,507.9 497.8,503.8 "/>
<path class="st4" d="M464.1,472.4h-21.2l0,0l0,0v-0.3h-5.8v0.3l0,0l0,0h-5v34.9l0,0l0,0l0,0h0.7c1.7,0.3,2.8,1.6,3.4,3.4v0.7l0,0
	l0,0h-4.3v0.9h32l0,0l0,0h0.1L464.1,472.4L464.1,472.4z"/>
<polygon class="st4" points="519.2,484.8 524,484.8 524,484.5 526.4,484.5 526.4,472.4 514.3,472.4 514.3,484.5 519.2,484.5 
	519.2,484.5 519.2,484.5 "/>
<path class="st4" d="M513.9,503.8v-31.2h-5.1l0,0l0,0v-0.5h-5.9v0.3h-4.8v31h4.2v0.7c-0.3,1.7-1.6,3.1-3.4,3.4h-0.7v4.7h16.1v-4.3
	h0.3v-4.2L513.9,503.8L513.9,503.8z"/>
<path class="st4" d="M544.4,472.4L544.4,472.4v-0.3h-5.8v0.3h-11.3V485l0,0h-3.1l0,0v0.7c-0.1,2.1-2.1,3.9-4.2,4.2h-0.7v-4.8l0,0
	h-4.4v18.7h0.7c1.6,0.3,2.8,1.7,3.4,3.4v0.7h-4.8h4.3v-0.7c-0.3-1.6-1.6-2.8-3.4-3.4h-0.7l0,0h-0.1v4.3h0.3l0,0l0,0v4.7h14.9v-9
	h-0.1l0,0l0,0v-13.6h0.7l0,0l0,0v13.2h-0.3v9h33.9v-39.9L544.4,472.4L544.4,472.4L544.4,472.4L544.4,472.4z"/>
<path class="st4" d="M623.5,478.5h-1.6v0.7c-0.3,2.1-2.1,3.8-4.2,4.2H617v-4.8h-0.9v14.2h14.2v-20.3h-6.7v5.9h-0.1L623.5,478.5
	L623.5,478.5z"/>
<polygon class="st4" points="614.7,472.1 608.8,472.1 608.8,472.4 597.6,472.4 597.6,512.3 630.4,512.3 630.4,493.2 615.3,493.2 
	615.3,493.2 615.3,493.2 615.3,472.4 614.7,472.4 614.7,472.4 614.7,472.4 "/>
<polygon class="st4" points="591.6,472.1 585.4,472.1 585.4,472.4 581.1,472.4 581.1,512.3 596.9,512.3 596.9,472.4 591.6,472.4 
	591.6,472.4 591.6,472.4 "/>
<path class="st4" d="M574.9,469.4c-0.3,2.3-1.7,3.8-4.2,4.2H570v-4.8l0,0h-5.8v1.6h1.3l0,0v2.1h-0.7v40.2h16.1v-43.9H575
	L574.9,469.4L574.9,469.4z"/>
<path class="st4" d="M597.1,445L597.1,445L597.1,445v10.7h0.9l0,0l0,0v-5.8h0.7c2.3,0.3,4.4,2.3,4.8,4.8v0.7h26.9v-20.6h-49.2v9.9
	L597.1,445L597.1,445z"/>
<polygon class="st4" points="592.1,455.3 594.5,455.3 594.5,454.1 592.1,454.1 592.1,454.1 592.1,454.1 592.1,453.5 592.1,453.5 
	594.5,453.5 594.5,446.6 583.5,446.6 583.5,453.5 585.9,453.5 585.9,453.5 585.9,454.1 583.5,454.1 583.5,455.3 585.9,455.3 
	585.9,455.3 585.9,455.9 592.1,455.9 "/>
<path class="st4" d="M566.7,455.6v-4.8h0.7c2.3,0.3,3.8,1.7,4.2,4.2v0.7l0,0h9.3V435h-16.4v20.7L566.7,455.6L566.7,455.6z"/>
<path class="st4" d="M556.6,455.6L556.6,455.6v-0.7c0.3-2.3,1.7-3.8,4.2-4.2h0.7v4.8h2.3v-20.7h-16.4v20.7L556.6,455.6L556.6,455.6z
	"/>
<path class="st4" d="M538.5,455.6h9v-20.7h-16.4v20.7h2.3v-4.8h0.7c2.1,0.3,3.9,2.1,4.2,4.2L538.5,455.6v-0.7
	c-0.3-2.1-2.1-3.8-4.2-4.2h-0.7v4.8l0,0v0.3h4.8L538.5,455.6L538.5,455.6z"/>
<path class="st4" d="M498.3,455.6h2.1v-4.8h0.7c2.1,0.3,3.9,2.1,4.2,4.2v0.7l0,0l0,0h9V435H498v0.7V435l0,0v0.7l0,0L498.3,455.6
	L498.3,455.6z"/>
<path class="st4" d="M527.7,450.9h0.7v4.8l0,0l0,0h2.3V435h-16.4v20.7h9V455C524,452.7,525.6,451.2,527.7,450.9z"/>
<path class="st4" d="M457.5,455.6v-0.7c0.3-2.3,1.9-3.8,4.2-4.2h0.7v4.8l0,0h2.3v-20.7H464c-5,0-10.1,0-15.4,0v20.7L457.5,455.6
	L457.5,455.6z"/>
<polygon class="st4" points="481.4,454.8 481.4,449.2 481.4,449.2 481.4,449.2 481.4,435.9 466,435.9 466,455.6 481.4,455.6 "/>
<path class="st4" d="M488,455.6L488,455.6h9.3v-19.7h-15.6v13.3l0,0l0,0h-0.1v5.5h0.1l0,0h5.5V454c-0.3-2.3-2.1-4.2-4.4-4.4h-0.7
	h0.7c2.3,0.3,4.2,2.1,4.4,4.4v0.7h-5.5v0.9h0.9v0.3h5.5L488,455.6L488,455.6z"/>
<path class="st4" d="M399.3,440.7c1.6,0.3,3.1,1.6,3.4,3.4v0.7h-4.2l0,0v10.9l0,0v-10.9v10.9h4.2l0,0l0,0v-4.8h0.7
	c2.1,0.3,3.9,2.1,4.2,4.2v0.7h6.6v-20.7c-5.1,0-10.6,0-15.7,0v5.8h0.8V440.7z"/>
<path class="st4" d="M424,455.6L424,455.6L424,455.6v-0.7c0.3-2.1,2.1-3.8,4.2-4.2h0.7v4.8h2.3v-20.7c-5.5,0-10.9,0-16.3,0v20.7
	L424,455.6L424,455.6z"/>
<path class="st4" d="M434,455.6L434,455.6L434,455.6v-4.8h0.7c2.1,0.3,3.8,1.9,4.2,4.2v0.7h9V435c-5.5,0-10.9,0-16.3,0v20.7
	L434,455.6L434,455.6z"/>
<path class="st4" d="M366.7,450.9h0.7v4.8h23.1l0,0V455c0.3-2.1,2.1-3.8,4.2-4.2h0.7v4.8h2.3V445l0,0h0.3v-4.2h-0.3l0,0l0,0l0,0V435
	c-16.5,0-33.5,0-50,0v20.7h14.5l0,0V455C363.2,452.7,364.7,451.2,366.7,450.9z"/>
<path class="st4" d="M341.3,441.4L341.3,441.4v14.1h0.1l0,0l0,0v-0.7c0.3-2.3,1.7-3.8,4.2-4.2h0.7v4.8h0.7v-20.7h-14.1v1.5l0,0v5.1
	L341.3,441.4L341.3,441.4z"/>
<polygon class="st4" points="299.6,435.1 299.6,436.1 299.6,436.1 299.6,436.1 298.8,436.1 298.8,446.5 298.8,436.1 298.8,436.1 
	298.8,446.5 298.8,446.5 298.8,446.5 298.8,468 310,468 310,468 310,512.3 310,512.3 310,468 310,512.3 310.1,512.3 310.1,512.3 
	310.1,512.3 310.1,513.1 320.1,513.1 320.1,512.3 320.2,512.3 320.2,511.2 320.2,511.2 320.7,511.2 320.7,506.9 320.2,506.9 
	320.2,506.9 320.2,506.9 320.2,482.7 320.2,482.7 320.7,482.7 320.7,478.2 320.2,478.2 320.2,478.2 320.2,478.2 320.2,475.9 
	320.2,475.9 320.7,475.9 320.7,470.8 320.2,470.8 320.2,470.8 320.2,468 320.2,468 332.3,468 332.3,467.4 332.3,467.4 336.2,467.4 
	336.2,467.4 336.2,468 341.4,468 341.4,456.3 340.6,456.3 340.6,456.3 333.2,456.3 333.2,456.3 332.6,456.3 332.6,456.3 
	332.6,456.3 332.6,456.3 332.6,436.3 331.1,436.3 331.1,436.3 331.1,436.3 331.1,435.1 319.7,435.1 319.7,435.1 319.7,434.3 
	311.1,434.3 311.1,435.1 311.1,435.1 "/>
<rect x="333.2" y="442.3" class="st4" width="7.4" height="14.1"/>
<rect x="333" y="474.6" class="st4" width="30.9" height="9"/>
<rect x="333" y="468.6" class="st4" width="10.3" height="5"/>
<rect x="336" y="496.9" class="st4" width="19.9" height="2.7"/>
<polygon class="st4" points="307.4,346.8 307,346.8 307,343.7 307,343.7 305.4,343.7 305.4,343.7 305.4,343.7 305.4,343.2 
	300.4,343.2 300.4,343.7 300.4,343.7 265.2,343.7 265.2,355.9 265.9,355.9 265.9,355.9 265.9,359.7 265.9,359.7 265.9,359.7 
	264.8,359.7 264.8,398.9 264.8,398.9 264.8,398.9 265.9,398.9 265.9,399.9 265.9,399.9 305.7,399.9 305.7,399.9 305.7,398.9 
	305.7,398.9 305.7,398.9 307,398.9 307,398.9 307,398.9 307,398.9 307,396 307.4,396 307.4,390.9 307.4,390.9 307,390.9 307,359.8 
	305.7,359.8 305.7,359.8 305.7,357.8 307,357.8 307,357.8 307,351.6 307.4,351.6 307.4,351.6 307.4,351.6 307.4,351.6 "/>
<path class="st4" d="M285.7,334.7v-4.8h0.3v-4.8h-0.3v-3.5h0.3v-3.8h-0.3V312l0,0v5.8V312h-21v30.5h21h-21l0,0h21v-2.8h0.3v-4.8
	h-0.3V334.7z M285.7,334.7v-4.8V334.7z M285.7,325v-3.5V325z"/>
<path class="st4" d="M300.4,343.2h4.8v-0.3l0,0h1.3v-4.7h0.5v-5l0,0l0,0h-0.5l0,0v-15.4h-1.1v-1.7h1.3l0,0l0,0l0,0v-3.9H305l0,0
	v-0.3h-5v0.3l0,0l0,0v0.7c0.1,2.1,2.1,3.9,4.2,4.2h0.7v-4.8v4.8h-0.7c-1.9-0.3-3.9-2.1-4.2-4.2V312h-1.6v4.2l0,0h-3.8l0,0l0,0V312
	h-9v5.8l0,0h0.7c1.6,0.3,2.3,1.5,2.8,2.8v0.7l0,0l0,0h-3.8v3.5l0,0h0.7c2.1,0.3,3.8,1.9,4.2,4.2v0.7h-4.8v4.8l0,0h0.7
	c2.1,0.3,3.8,1.9,4.2,4.2v0.7h-4.8v3.1h6.7v-3.8l0,0h5.5l0,0l0,0v4.2h1.9v-0.7c0.3-2.1,1.9-3.8,4.2-4.2h0.7v4.8v-4.7h-0.7
	c-2.1,0.3-3.8,1.9-4.2,4.2v0.7l0,0l0,0v0.7L300.4,343.2L300.4,343.2z"/>
<polygon class="st4" points="300.4,311.5 300.4,312.3 305.4,312.3 305.4,311.5 305.4,311.5 307,311.5 307,310.5 307.4,310.5 
	307.4,305.4 307.4,305.4 307,305.4 307,305.4 307,305.4 307,276.7 305.7,276.7 305.7,276.7 305.7,274.8 305.7,274.8 307,274.8 
	307,274.8 307,274.8 307,274.8 307,264.7 307,264.7 307,264.7 307.4,264.7 307.4,259.6 307.4,259.6 307,259.6 307.4,259.6 
	307.4,259.6 307,259.6 307,255.7 266.5,255.7 266.5,255.8 266.5,255.8 266.5,255.8 264.8,255.8 264.8,274.8 265.9,274.8 
	265.9,276.7 265.9,276.7 265.9,276.7 265.9,276.7 264.8,276.7 264.8,311.5 264.8,311.5 "/>
<path class="st4" d="M266.5,253.7L266.5,253.7v0.3h40.2l0,0h-40.2h40.2v-9l0,0l0,0h0.5v-9.3l0,0h-0.5l0,0l0,0v-0.9l0,0v0.7H302h4.7
	v-0.7H306l0,0v-0.3h-22.8l0,0h-16.5v0.3l0,0l0,0H265v18.8l0,0L266.5,253.7L266.5,253.7L266.5,253.7z M301.8,236.4
	c0.3,1.9,1.9,3.8,3.9,3.9h0.7l0,0l0,0l0,0l0,0h-0.7c-1.9,0.3-3.8,1.7-3.9,3.9v0.7h4.7h-4.7v-0.7c0.3-1.9,1.7-3.8,3.9-3.9h0.7h-0.7
	C303.7,239.7,302.1,238.7,301.8,236.4v-0.7V236.4z"/>
<path class="st4" d="M303.8,211.1c-1.9-0.3-3.9-2.1-4.2-4.2v-0.7h5v-0.9h-22V233h22v-21.9l0,0H303.8L303.8,211.1L303.8,211.1z"/>
<polygon class="st0" points="291.2,196.7 296.1,196.7 296.1,196.2 296.1,196.7 296.1,196.7 296.1,196.2 323,196.2 323,196.2 
	296.1,196.2 323,196.2 323,194.9 324.9,194.9 324.9,194.9 324.9,194.9 324.9,196.2 324.9,196.2 331.5,196.2 324.9,196.2 
	324.9,196.2 331.5,196.2 331.5,196.2 331.5,196.2 331.5,196.2 331.5,196.7 336.4,196.7 336.4,196.2 344.2,196.2 344.2,153.9 
	324.9,153.9 324.9,155.5 324.9,155.5 324.9,155.5 324.9,155.5 323,155.5 323,153.9 283.4,153.9 283.4,155.5 283.4,155.5 
	283.4,155.5 282.8,155.5 282.8,194.9 282.8,194.9 282.8,194.9 282.8,194.9 283.8,194.9 283.8,194.9 283.8,194.9 283.8,194.9 
	283.8,196.2 283.8,196.2 283.8,196.2 283.8,196.2 291.2,196.2 283.8,196.2 283.8,196.2 291.2,196.2 291.2,196.2 291.2,196.2 
	291.2,196.2 "/>
<polygon class="st4" points="382.7,196.2 382.7,190.2 386,190.2 386,183.6 386,183.6 386.4,183.6 386.4,174.3 386,174.3 386,174.3 
	386,153.9 366.8,153.9 366.8,196.2 "/>
<path class="st4" d="M386.4,174.3v9h0.3v12.6h1.6v-4.8h0.7c2.1,0.3,3.8,1.9,4.2,4.2v0.7h12.6v-1.3v-14.1l0,0h0.3v-4.2l0,0h-0.3V155
	l0,0v-1.6h-19.3V174L386.4,174.3L386.4,174.3z"/>
<path class="st4" d="M406.6,176.9v4.2h0.3l0,0v14.1l0,0l0,0l0,0h0.9l0,0l0,0v1.3l0,0l0,0l0,0h1.6v-4.8h0.7c2.1,0.3,3.9,2.1,4.2,4.2
	v0.7h12.9V176h-20.7L406.6,176.9L406.6,176.9L406.6,176.9L406.6,176.9z"/>
<polygon class="st4" points="407.8,155.5 407.8,155.5 406.8,155.5 406.8,175.2 427.3,175.2 427.3,165.8 427.8,165.8 427.8,160.7 
	427.8,160.7 427.8,160.7 427.3,160.7 427.8,160.7 427.8,160.7 427.3,160.7 427.3,160.7 427.3,160.7 427.3,160.7 427.3,153.9 
	407.8,153.9 "/>
<polygon class="st4" points="456,170.1 456,170.1 456,170.5 460.8,170.5 460.8,170.1 460.8,170.1 468.9,170.1 468.9,170.1 
	460.8,170.1 468.9,170.1 468.9,153.9 449.6,153.9 449.6,155.5 449.6,155.5 449.6,155.5 448.2,155.5 448.2,170.1 "/>
<path class="st4" d="M488.8,194.9h1.7l0,0l0,0v1.3l0,0l0,0l0,0h1.6l0,0l0,0v0.3h4.8v-0.3l0,0l0,0l0,0v-0.7c-0.3-2.3-1.9-3.8-4.2-4.2
	H492v4.8v-5h0.7c2.1,0.3,3.8,1.9,4.2,4.2v0.7h12.9v-32.5h0.3v-4.8h-0.3l0,0l0,0v-4.3h-19.5v0.7l0,0l0,0h-1.6v-1.6h-19.3v42.3h19.3
	L488.8,194.9L488.8,194.9z"/>
<path class="st4" d="M517.9,196.2L517.9,196.2v-0.7c-0.3-2.3-1.7-3.8-4.2-4.2H513v4.8v-5h0.7c2.3,0.3,3.8,1.7,4.2,4.2V196.2h12.4
	v-8.1h0.3v-4.8h-0.3l0,0l0,0l0,0h-4.8v0.7c0.3,2.3,1.9,3.8,4.2,4.2h0.7h-0.7c-2.1-0.3-3.8-1.9-4.2-4.2v-0.7h4.8v-7.1h-19.5v20.4h2.1
	l0,0l0,0v0.3h4.8v-0.5L517.9,196.2L517.9,196.2z"/>
<polygon class="st4" points="519.2,167.5 519.2,167.5 518.5,167.6 518.5,175.2 530.3,175.2 530.3,163.6 522.8,163.6 522.4,164.1 
	522.8,163.6 530.3,163.6 530.3,163.6 522.8,163.6 522.4,164.1 522.2,163.6 522.1,163.6 522.4,164.1 522.1,163.6 518.7,167.3 "/>
<path class="st4" d="M511,158.9h4.8v0.7c-0.3,2.1-2.1,3.8-4.2,4.2h-0.7v11.4h7.1v-7.7l0.3-0.5l0.1,0.1l3.4-3.5l-0.1-0.1l0.1,0.1l0,0
	l-0.1-0.1l0.5-0.5h7.7v-7.1l0,0v-1.1h-19.2L511,158.9L511,158.9z"/>
<polygon class="st4" points="531.1,170.5 531.1,183.3 530.6,183.3 530.6,188.3 531.1,188.3 531.1,188.3 531.1,188.3 531.1,194.9 
	531.1,194.9 531.1,194.9 531.1,194.9 532.2,194.9 532.2,194.9 532.2,194.9 532.2,196.2 532.2,196.2 533.8,196.2 533.8,196.2 
	533.8,196.2 533.8,196.7 533.8,196.7 533.8,196.2 533.8,196.7 538.6,196.7 538.6,196.2 551.5,196.2 551.5,170.5 544.9,170.5 
	544.9,170.5 544.9,170.5 544.9,170.5 539.7,170.5 539.7,170.5 "/>
<path class="st4" d="M532.5,155.5L532.5,155.5L532.5,155.5h-1.6v14.6h9l0,0l0,0v0.1h4.8v-0.1l0,0v-0.7c-0.3-2.3-1.7-3.8-4.2-4.2
	h-0.9v4.8v-4.8h0.7c2.3,0.3,3.8,1.7,4.2,4.2v0.7h6.6v-16.3h-18.8v1.6h0.2V155.5z"/>
<path class="st4" d="M557.6,165.4v-0.7c0.3-2.1,1.9-3.8,4.2-4.2h0.7v4.8h10.1v-10.1h-1.1v-1.6h-19.3v11.7L557.6,165.4L557.6,165.4z"
	/>
<path class="st4" d="M557.6,166h-5.5v30.2h2.3h-2.3v-30.4l0,0v30.4h2.3v0.3h4.8v-0.3l0,0l0,0h12.4l0,0h-12.4h12.4v-1.3l0,0h0.9v-0.7
	h-4.8v-0.7c0.3-2.1,2.1-3.9,4.2-4.2h0.7l0,0v-23.5h-10.1l0,0v-0.3h-4.8v0.3h0.1v0.1L557.6,166L557.6,166z"/>
<polygon class="st4" points="573.6,155.5 573.6,155.5 573.6,155.5 573.6,155.5 573.6,155.5 573.6,155.5 573.6,167.6 592.6,167.6 
	592.6,162.3 592.6,162.3 592.9,162.3 592.9,157 592.9,157 592.6,157 592.6,157 592.6,154.6 573.6,154.6 "/>
<path class="st4" d="M573.6,194.5L573.6,194.5v0.7l0,0v1.3l0,0h19.5v-8.2l0,0h-4.8h4.8l0,0l0,0h0.3v-4.8l0,0h-0.3l0,0v-14.6h-19.3
	v21l0,0l0,0h-0.3L573.6,194.5L573.6,194.5L573.6,194.5z M587.9,187.3c0.3-2.1,2.1-3.8,4.2-4.2h0.7h-0.7
	C590.1,183.6,588.2,185,587.9,187.3v0.7V187.3z"/>
<path class="st4" d="M598.7,157v0.7c-0.3,1.9-2.1,3.9-4.2,4.2H594h-0.5l0,0l0,0h0.5l0,0l0,0v21l0,0h-0.3v4.8h0.3v8.2h8.2H594v-8.2
	h-0.3l0,0h0.3v8.2h8.2v0.3l0,0v-0.3v0.3h4.8v-0.3h6.4l0,0H607h6.4v-1.3l0,0h1.7l0,0v1.3l0,0l0,0l0,0H637h-21.9l0,0H637v0.3h4.8v-0.3
	h12.6l0,0h-12.6h12.6v-42h-39.5v1.6l0,0l0,0l0,0h-1.7l0,0v-0.7h-19.5v2.3L598.7,157L598.7,157L598.7,157z"/>
<path class="st4" d="M654.8,214.2L654.8,214.2v-0.7h-1.6l0,0h-8.3l0,0v4.2h-0.7c-1.7-0.3-2.8-1.7-3.4-3.4v-0.7v0.7
	c-0.3,1.7-1.6,2.8-3.4,3.4h-0.7v-4.2h-0.5v40.2l0,0h0.3l0,0v1.7l0,0l0,0l0,0h18.8l0,0l0,0l0,0v-1.7l0,0l0,0h0.7v-39.5H654.8
	L654.8,214.2z"/>
<path class="st4" d="M624.6,238.8L624.6,238.8L624.6,238.8L624.6,238.8l-4.8-0.1v0.1l0,0l0,0l0,0l0,0l0,0v4.8h0.7
	c2.1-0.1,3.9-2.1,4.2-4.2L624.6,238.8l0.1,0.7c-0.1,2.1-2.1,3.9-4.2,4.2h-0.7v-5h-4.3V254l0,0v1.6l0,0h18.8V254l0,0l0,0h0.3v-15.3
	L624.6,238.8L624.6,238.8z"/>
<path class="st4" d="M616.7,213.1L616.7,213.1v5h0.7c2.1-0.3,3.8-1.9,4.2-4.2v-0.7v0.7c-0.3,2.1-1.9,3.8-4.2,4.2h-0.7V213.1h-1.6
	v1.3v23.9h4.3v0.1h4.8v-0.1l0,0l0,0h9.8v-17.1h-3.8V213v8.2h3.8v17.1l0,0v-17.1h-3.8V213l0,0h-8.3l0,0v-0.3h-4.8v0.3L616.7,213.1
	L616.7,213.1z"/>
<polygon class="st4" points="613.3,253.7 613.3,253.7 614.7,253.7 614.7,223.9 607.5,223.9 607.5,213.1 600.8,213.1 607.5,213.1 
	607.5,223.9 614.7,223.9 614.7,253.7 614.7,253.7 614.7,253.7 614.7,223.9 607.5,223.9 607.5,213.1 600.8,213.1 600.8,212.7 
	600.8,212.7 600.8,212.7 600.8,213.1 600.8,212.7 596,212.7 596,213.1 596,213.1 594.1,213.1 594.1,255.3 613.3,255.3 "/>
<path class="st4" d="M577.3,213.1H577v6l0,0l0,0l0,0h-3.4v0.3h0.7c2.1,0.3,3.8,2.1,4.2,4.2v0.7l0,0l0,0h-4.8h4.8v-0.7
	c-0.3-2.1-2.1-3.9-4.2-4.2h-0.7l0,0l0,0h-0.3v4.8h0.3l0,0v29.4v1.6l0,0h19.1v-41.6h-10.3v-0.7h-0.1l0,0v-0.3h-4.8v0.4L577.3,213.1
	L577.3,213.1z"/>
<polygon class="st4" points="592.8,213.7 592.8,255.3 592.8,255.3 592.8,213.7 582.8,213.7 582.8,213.1 582.8,213.1 582.8,213.7 "/>
<path class="st4" d="M520.1,213.1v33h0.7c2.1,0.3,3.8,2.1,4.2,4.2v0.7l0,0l0,0h-4.8h-0.7l0,0h0.7l0,0l0,0l0,0v3.8h10.3v-0.7h1.7l0,0
	l0,0v1.5l0,0h39.9V254h0.9v-29.6v29.4l0,0l0,0v-29.4l0,0l0,0h0.3v-5H573l0,0v-0.3h-1.3l0,0v-6h-0.3l0,0v-0.3h-4.8v0.3h-0.4v1.9l0,0
	h-37.9l0,0l0,0v-1.9h-0.7l0,0l0,0v-0.3h-5v0.3H520.1L520.1,213.1z"/>
<path class="st4" d="M494.7,213.1v0.7h-3.5v1.3h-1.6v32.1h0.7c2.1,0.3,3.9,2.1,4.2,4.2v0.7h-4.8v1.5h1.6v0.7h11.4v-19.5l0,0l0,0l0,0
	h10.9v-2.3l0,0h4.8v-18.9h-19.1l0,0l0,0v-0.5l0,0l0,0L494.7,213.1L494.7,213.1z"/>
<polygon class="st4" points="518.7,251.1 519.6,251.1 519.6,246 518.7,246 518.7,246 518.7,246 518.7,235.7 503.4,235.7 
	503.4,254.2 518.7,254.2 "/>
<polygon class="st4" points="488.4,247 488.4,239.3 485.3,239.3 485.3,239.3 485.3,238.8 480.2,238.8 480.2,239.3 480.2,239.3 
	470.7,239.3 470.7,254.1 488.4,254.1 488.4,253.4 488.4,253.4 488.4,252 488.4,252 488.4,252 488.4,252 489.2,252 489.2,252 
	488.4,252 489.2,252 489.2,247 "/>
<path class="st4" d="M480.3,213.5L480.3,213.5h-9.9v25.1h9.8h-9.8l0,0h9.8l0,0v-0.7c0.3-2.3,1.7-3.8,4.2-4.2h0.7v4.8h3.1V219h-1.6
	l0,0v-5h-1.5l0,0v-0.7l0,0l0,0h-4.8L480.3,213.5L480.3,213.5L480.3,213.5z"/>
<path class="st4" d="M447.4,253.7L447.4,253.7L447.4,253.7h1.7l0,0v1.6H468l0,0v-1.6l0,0l0,0l0,0h0.7v-27h-7v0.7
	c-0.3,2.3-1.9,3.8-4.2,4.2h-0.7l0,0l0,0v-4.8l0,0h-18.1v5h0.7c2.1,0.1,3.9,2.1,4.2,4.2v0.7h-4.8V255h9l0,0L447.4,253.7L447.4,253.7z
	"/>
<polygon class="st4" points="406,236.8 406,236.8 406.6,236.8 406.6,231.7 406,231.7 406,231.7 406,223.9 386.4,223.9 386.4,230.7 
	386.2,230.7 386.2,235.6 386.4,235.6 386.4,235.6 386.4,253.7 387.4,253.7 387.4,255.3 406,255.3 406,255.3 406,253.7 406,253.7 "/>
<polygon class="st4" points="406.6,218.6 406.6,215 406,215 406,215 406,213.1 389.2,213.1 389.2,218.5 389.2,218.5 389.2,218.5 
	386.4,218.5 386.4,223.3 406,223.3 406,218.6 406,218.6 "/>
<path class="st4" d="M437.6,232.3L437.6,232.3v-5H422v4.8h-0.7c-2.3-0.3-3.8-1.7-4.2-4.2v-0.7l0,0h-9.9v4.7l0,0h-0.3v4.8h0.3l0,0
	V254h0.9v1.6h29.4l0,0h-29.6h29.6v-18.3l0,0h0.3v-5L437.6,232.3L437.6,232.3z"/>
<polygon class="st4" points="373.7,252.2 373.7,252.2 373.7,252.2 374.3,252.2 374.3,252.6 375.7,252.6 375.7,252.2 375.7,252.2 
	375.7,252.2 375.7,252.2 376.6,252.2 376.6,252.2 375.7,252.2 376.6,252.2 376.6,247 375.7,247 375.7,243.1 374.3,243.1 374.3,247 
	374.3,247 374.3,247 373.7,247 373.7,243.1 367.7,243.1 367.7,252.6 373.7,252.6 "/>
<path class="st4" d="M385.5,253.7L385.5,253.7L385.5,253.7L385.5,253.7L385.5,253.7L385.5,253.7L385.5,253.7L385.5,253.7h0.3v-18.3
	l0,0l0,0h0.3v-4.8h-0.3l0,0l0,0h-0.7c-2.1,0.3-3.9,2.1-4.2,4.2v0.7h4.8h-4.8v-0.7c0.1-2.1,2.1-3.9,4.2-4.2h0.7v-17.5h-0.9v-0.3h-4.8
	v0.3l0,0l0,0h-0.7v28.7v-28.5l0,0v28.5l0,0l0,0l0,0h-1.7v5.5l0,0l0,0h-0.5v5.8h0.7v2.3h0.1v0.5h7.9l0,0L385.5,253.7L385.5,253.7z"/>
<path class="st4" d="M360.4,217.3h-0.7v-4.2l0,0l0,0H357v8.7h1.7v0.3h4.2v-0.3l0,0l0,0h2.7v-7.7h-0.9v-1.3h-0.5v0.7
	C363.3,215.5,362,217.2,360.4,217.3z"/>
<path class="st4" d="M348.4,213.9v-0.5h-0.3v0.7c-0.3,1.7-1.6,2.8-3.4,3.4H344v-4.2l0,0l0,0l0,0h-0.9v8.3h10.1v-7.9L348.4,213.9
	L348.4,213.9z"/>
<path class="st4" d="M363,222.7v4.2h-0.7c-1.6-0.3-3.1-1.7-3.4-3.4v-0.7l0,0l0,0h-15.6v10.3h0.3v-3.4h0.5c1.5,0.1,2.3,1.5,2.6,2.6
	v0.5h9.3h-9.3l0,0h9.3v0.5l0,0v-0.5v0.5h4.2v-0.5l0,0l0,0h5.1v-10.1H363L363,222.7z"/>
<polygon class="st4" points="360.2,234.1 360.2,233.5 356.2,233.5 356.2,234.1 356.2,233.5 356.2,233.5 356.2,234.1 356.2,234.1 
	356.2,234.1 356.2,234.1 347.7,234.1 347.7,243.8 363.6,243.8 363.6,234.1 "/>
<path class="st4" d="M346.8,233.9v-0.3h-3.4v0.3v-0.3l0,0v0.3l0,0h-0.3v9.8h3.8L346.8,233.9L346.8,233.9L346.8,233.9z M343.8,241.2
	v-2.1V241.2z"/>
<path class="st4" d="M331.9,234.1v4.2h-0.7c-1.6-0.3-3.1-1.7-3.4-3.4v-0.7l0,0l0,0h-2.7v0.9l0,0l0,0h-0.7v8.3H342v-9.7h-10
	L331.9,234.1L331.9,234.1z"/>
<path class="st4" d="M328.7,213.4L328.7,213.4L328.7,213.4L328.7,213.4L328.7,213.4h-3.8v0.9l0,0l0,0h-1.3v18.9h4.2v0.3h4.2v-0.3
	l0,0l0,0h10v-19.7h-9.3v4.2H332c-1.7-0.3-2.8-1.7-3.4-3.4v-0.7v0.7c0.3,1.6,1.6,2.8,3.4,3.4h0.7v-4.2l0,0V213h-4.2v0.5h0.1v-0.1
	H328.7z"/>
<rect x="367.7" y="215.1" class="st4" width="10.3" height="25.5"/>
<path class="st4" d="M331.1,244.6v2.3l0,0H324v0.1l0,0h-0.5l0,0v4.8h0.3h-0.3l0,0h0.3l0,0l0,0v22.4l0,0h1.3l0,0v1.7l0,0h-1.3v11.4
	l0,0h-0.3l0,0v4.8h0.3l0,0v2.8l0,0h4.8l0,0l0,0v0.3h4.8v-0.3l0,0l0,0h23.5l0,0h-23.5h23.5v-0.7c0.3-2.3,1.7-3.8,4.2-4.2h0.7v4.8h4.3
	v-19.3h-1.7v-1.7l0,0l0,0l0,0h1.6l0,0v-18.3h-1.6v-3.8l0,0v-8.2h-33.6v0.7h0.4v0.4H331.1z M323.8,296h4.8H323.8z"/>
<polygon class="st4" points="366.1,297.1 361.8,297.1 361.8,297.1 361.8,296.3 356.7,296.3 356.7,297.1 356.7,297.1 356.7,297.1 
	339.4,297.1 339.4,327 358.2,327 358.2,327 358.2,327 358.2,327.5 363,327.5 363,327 365.2,327 365.2,318.2 364.8,318.2 
	364.8,318.2 364.8,318.2 364.8,316.6 364.8,316.6 366.1,316.6 366.1,316.6 366.1,316.6 "/>
<path class="st4" d="M333.5,327.3h1.3v-10.6h3.8v-19.6h-4.8l0,0l0,0v0.7c-0.3,2.3-1.9,3.8-4.2,4.2h-0.9v-4.8h-4.8v14.1h1.3l0,0v7.1
	l0,0h-1.3v9h4.8l0,0v0.3L333.5,327.3L333.5,327.3L333.5,327.3z"/>
<path class="st4" d="M363,328L363,328L363,328v4.8h-0.7c-2.1-0.3-3.8-1.9-4.2-4.2v-0.7h-24.3l0,0v-0.3H329v0.3l0,0h-4.8v1.7l0,0H324
	v4.8h0.3l0,0v22.8l0,0h1.3l0,0v1.7l0,0h-1.3v10.7l0,0H324v4.8h0.3l0,0v0.3h5.9l0,0l0,0l0,0v2.6h36.4l0,0V359H365l0,0l0,0v-1.9l0,0
	h0.7v-29.8h-2.6v0.5l0,0L363,328L363,328z"/>
<path class="st4" d="M428.1,160.7h4.8v0.7c-0.3,2.1-2.1,3.8-4.2,4.2H428v30.5h19.3v-3.9l0,0l0,0h0.7v2.8l0,0l0,0l0,0h0.9v1.3l0,0
	l0,0l0,0l0,0l0,0l0,0h1.6h-1.6l0,0h1.6v0.3l0,0v-0.3v0.3h5v-0.3l0,0l0,0l0,0h12.9l0,0h-13h12.9v-25.5h-7.9v0.7
	c-0.3,2.1-2.1,3.9-4.2,4.2h-0.7v-5v5h0.7c2.1-0.3,3.8-2.1,4.2-4.2v-0.7l0,0v-0.3h-4.7v0.3l0,0l0,0h-7.5v3.1v-3.1l0,0v3.1l0,0l0,0
	l0,0h-0.7v-18.1v-1.6H428L428.1,160.7L428.1,160.7z M451,191.5h0.7c2.1,0.3,3.9,2.1,4.2,4.2v0.7v-0.7c-0.3-2.1-2.1-3.8-4.2-4.2H451
	v4.8V191.5z"/>
<path class="st4" d="M346.8,196.2v0.3l0,0V196.2v0.3h5v-0.3l0,0l0,0l0,0l0,0h2.1h10.9v-42.3h-18.9v16.4l0,0v25.9H346.8v-4.8h0.7
	c2.1,0.3,3.9,2.1,4.2,4.2v0.7v-0.7c-0.3-2.1-2.1-3.8-4.2-4.2h-0.7V196.2h-0.9v-25.9l0,0V154l0,0v42.3L346.8,196.2L346.8,196.2z"/>
<polygon class="st4" points="461.1,212.7 456.1,212.7 456.1,213.1 455.2,213.1 455.2,215 456.5,215 456.5,215 456.5,215 456.5,215 
	456.5,215 456.5,215.1 456.5,215.1 456.5,215.1 456.5,215.1 456.5,215.1 455.2,215.1 455.2,220.5 455.2,220.5 455.2,220.5 
	455.2,220.5 455.2,220.5 454.8,220.5 454.8,225.6 455.2,225.6 455.2,225.6 455.2,225.6 455.2,226.4 456.7,226.4 456.7,226.4 
	456.7,226.4 456.7,226.4 456.7,226.6 456.7,226.6 456.7,226.4 456.7,226.6 461.7,226.6 461.7,226.4 468.9,226.4 468.9,213.1 
	461.1,213.1 461.1,213.1 461.1,213.1 "/>
<path class="st4" d="M422,226.3h15.7v-0.7l0,0l0,0l0,0l0,0l0,0l0,0h0.7l0,0l0,0l0,0l0,0v0.9h0.3h15.6v-0.7h-4.8l0,0l0,0l0,0l0,0
	v-0.7c0.3-2.1,2.1-3.8,4.2-4.2h0.7v-5.5h-5.1l0,0l0,0l0,0h-1.9l0,0l0,0H445v3.5l0,0h-6.6v1.3l0,0h-0.5l0,0l0,0v-5h-20.7l0,0l0,0
	v-1.6h-1.7l0,0l0,0v-0.3h-5v0.3l0,0h-2.3l0,0v1.3h-1.3v0.5l0,0v-0.5v0.5l0,0h0.7c1.7,0.3,2.8,1.6,3.4,3.4v0.7h-4.2v7.1h9.9l0,0l0,0
	l0,0l0,0v0.3h4.8v-0.5h0.3v-0.1h0.4v0H422z"/>
<g>
	<text transform="matrix(1 0 0 1 303.7031 179.4492)" class="st1 st5 st6">2200</text>
</g>
<g>
	<g>
		<path class="st7" d="M491.3,152.7L491.3,152.7h39.5h2.3l0,0l0,0l0,0h39.1l0,0l0,0h1.7l0,0h39.6l0,0h1.7l0,0l0,0h42.3l0,0l0,0V197
			l0,0l0,0H654v15.4h3.5v41.2l0,0v2.8l0,0l0,0l0,0l0,0l0,0H449.3l0,0h-1.7l0,0h-59.9l0,0l0,0H368v18.1l0,0l0,0l0,0l0,0v1.7v39.9l0,0
			l0,0l0,0l0,0v1.7l0,0l0,0v39.5l0,0v1.7l0,0l0,0l0,0v39.5l0,0v2.7l0,0l0,0l0,0l0,0l0,0h-34.3v16.1v14.9l0,0h0.3v0.9h30.9v-1.7h1.5
			v2.1l0,0h31.8v-2.1h1.5v2.1h32v-2.1h1.5v2.1l0,0h31.7l0,0l0,0v-2.1l0,0l0,0h1.5v1.9h31.8v-1.9h1.5v1.9h31.2l0,0v-1.9h1.5v1.9h31.8
			v-1.9h1.5v1.9h32l0,0v-1.9h1.5v1.9l0,0l0,0l0,0h33.5v14.6l0,0v6.6h15.6l0,0l0,0h0.5c0.1,0,0.3,0,0.3,0.1h0.1c0.1,0,0.1,0,0.3,0.1
			h0.1l0.1,0.1c0,0,0,0,0.1,0.1l0.1,0.1l0,0c0.1,0.1,0.1,0.1,0.1,0.3l0,0c0,0.1,0.1,0.1,0.1,0.3v0.1v0.1l0,0c0,0.1,0,0.3,0,0.5l0,0
			l0,0l0,0v36.9l0,0v0.5l0,0c0,0.1,0,0.3-0.1,0.3c0,0,0,0,0,0.1s0,0.1-0.1,0.3c0,0,0,0.1-0.1,0.1c0,0,0,0.1-0.1,0.1l-0.1,0.1
			l-0.1,0.1c0,0,0,0-0.1,0.1c-0.3,0.3-0.7,0.3-0.9,0.3l0,0c-0.1,0-0.3,0-0.5,0l0,0l0,0h-5h-11v16.3l0,0h-34.1v1.9h-1.5v-1.9h-32v1.9
			h-1.5v-1.9h-31.8v1.9h-1.5v-1.9h-31.4v1.9h-1.5v-1.9H465v1.9l0,0l0,0h-1.5v-1.9h-31.8v1.9h-1.5v-1.9h-32v1.9h-1.5v-1.9h-32v1.9
			h-1.5v-1.9H332h-0.3v0.1l0,0v16.1h-0.3l0,0h-33.2l0,0h-0.9v-16.3h-31.2v1.9h-1.5v-1.9H233v1.9h-1.5v-1.9H200v1.9h-1.5v-1.9h-34.4
			V496h-15.6l0,0H148l0,0c-0.1,0-0.3,0-0.3-0.1h-0.1c-0.1,0-0.1,0-0.3-0.1c0,0,0,0-0.1,0l-0.1-0.1c0,0,0,0-0.1-0.1l-0.1-0.1
			c0,0,0,0-0.1-0.1c0-0.1-0.1-0.1-0.1-0.3c0,0,0-0.1-0.1-0.1c0-0.1,0-0.1-0.1-0.3v-0.1v-0.1v-0.1c0-0.1,0-0.3,0-0.5v-17.1h-1.6v-0.9
			h1.6v-4.8h-1.6v-0.9h1.6v-12.9v-0.5c0.1-0.5,0.5-1.3,0.9-1.6c0.3-0.1,0.5-0.3,0.9-0.3h0.5l0,0h15.6v-21.4h34.1l0,0v-2.1h1.5v1.9
			h31.8v-1.9h1.5v1.9H265l0,0v-1.9h1.5v1.9h31.2v-32.1h-34.9V232.6l0,0l0,0h17.9v-80.1l0,0l0,0l0,0l0,0l0,0h2.3l0,0l0,0l0,0h40.6
			l0,0l0,0l0,0h1.7l0,0l0,0l0,0h81.3l0,0h1.7l0,0l0,0l0,0h39.9h1.7l0,0l0,0l0,0h39.5l0,0l0,0l0,0h1.9 M491.3,152.7L491.3,152.7
			L491.3,152.7L491.3,152.7 M281.6,232.6L281.6,232.6L281.6,232.6L281.6,232.6 M367.7,256.7L367.7,256.7L367.7,256.7L367.7,256.7
			 M367.7,276.9L367.7,276.9L367.7,276.9L367.7,276.9 M276.3,147.3v5.8v74.3h-12.4h-5.8v5.8V402v5.8h5.8h28.9v21.1h-20.4v-2.1h-5.8
			h-1.5h-5.6v1.9h-20.7v-1.9h-5.5h-1.5H226v1.9h-20.7v-1.9h-5.5h-1.5h-5.8v1.9h-28.7H158v5.8v15.7h-10h-0.3h0.5h-0.5h-0.3l-0.3,0.1
			c-1.3,0.3-2.3,0.7-3.1,1.6c-1.5,0.9-2.3,2.3-2.8,4.3l-0.1,0.5v0.5v0.5v0.3v0.3v7.4h-1.6v5.8v0.9v5.8v0.3v5.8h1.7v11.3
			c0,0.3,0,0.9,0.1,1.5v0.3l0.1,0.3c0,0.1,0.1,0.3,0.1,0.5c0,0.3,0,0.1,0.1,0.3l0,0l0,0c0.1,0.3,0.1,0.5,0.3,0.7
			c0,0.1,0.1,0.3,0.3,0.5c0.1,0.1,0.3,0.5,0.5,0.7c0.1,0.1,0.1,0.1,0.3,0.3c0.1,0.1,0.3,0.3,0.5,0.5c0.1,0.1,0.1,0.1,0.3,0.3
			c0.1,0.1,0.3,0.3,0.7,0.5c0.1,0.1,0.3,0.1,0.3,0.3s0.3,0.3,0.7,0.3c0.1,0,0.3,0.1,0.3,0.1c0.3,0.1,0.5,0.1,0.9,0.3h0.1h0.3h0.1
			h0.1h0.5h0.3h0.3h10.1v10.6v5.8h5.8h28.5v1.9h5.8h1.5h5.8v-1.9H227v1.9h5.8h1.5h5.8v-1.9h20.7v1.9h5.8h1.5h5.8v-1.9h20.4v10.7v5.8
			h5.8h0.9h33.3h0.9h5.8v-5.8v-10.7h20.4v1.9h5.8h1.5h5.8v-1.9h21v1.9h5.8h1.5h5.8v-1.9h21v1.9h5.8h1.5h5.8v-1.9h20.7v1.9h5.8h1.5
			h5.8v-1.9h20.4v1.9h5.8h1.5h5.8v-1.9h20.7v1.9h5.8h1.5h5.8v-1.9h20.7v1.9h5.8h1.5h5.8v-1.9h19.7v1.9h5.8h1.5h5.8v-1.9h28.9h5.8
			v-5.8V503h5h4.8c0,0,0,0,0.1,0c0,0,0,0,0.1,0h0.1l0,0c0.3,0,0.7,0,1.3-0.1c1.3-0.1,2.3-0.7,3.5-1.6c0.1-0.1,0.3-0.1,0.3-0.3
			c0.1-0.1,0.3-0.3,0.3-0.3c0.1-0.1,0.3-0.3,0.3-0.3c0.1-0.1,0.1-0.3,0.3-0.3c0.1-0.1,0.1-0.3,0.3-0.5c0.1-0.1,0.3-0.3,0.3-0.7
			c0-0.1,0.1-0.3,0.1-0.3c0.1-0.3,0.3-0.7,0.3-0.9l0.1-0.3v-0.3v-0.5v-0.3V496v-36.8v-0.1l0,0c0-0.3,0-0.7-0.1-0.9v-0.1v-0.3
			c0-0.3-0.1-0.3-0.1-0.5c0-0.3-0.1-0.3-0.1-0.3c-0.1-0.3-0.1-0.5-0.3-0.7c0-0.1-0.1-0.1-0.1-0.3c-0.1-0.3-0.3-0.7-0.7-0.9
			c-0.1-0.1-0.1-0.1-0.3-0.3c-0.1-0.1-0.3-0.3-0.5-0.5c-0.1-0.1-0.1-0.1-0.3-0.3s-0.3-0.3-0.7-0.5c-0.1,0-0.1-0.1-0.3-0.1
			c-0.1-0.1-0.3-0.3-0.7-0.3c-0.1,0-0.3-0.1-0.3-0.1c-0.3-0.1-0.7-0.3-1.3-0.3h-0.3h-0.3h-3.1h-0.3h-0.3h-10.1v-1.3v-14.6V431h-5.8
			h-28.9v-2.1h-5.8h-1.7h-5.8v1.9h-21v-1.9h-5.8h-1.5H560v1.9h-20.7v-1.9h-5h-1.5H527v1.9h-21v-1.9h-5.8h-1.5h-5.8v1.9h-20.7v-1.9
			h-5.8h-1.5h-5.8v1.9h-20.7v-2.1H434h-1.5h-5.8v2.1h-21v-2.1h-5.8h-2.8h-5.8v2.1h-20.7v-2.1h-5.9h-0.9H358v2.1h-19.7v-0.9H338v-9.8
			v-10.6h28.9h5.8v-5.8V401v-39.5v-1.7v-40v-2.1v-39.6v-1.7V263h14.2h59.9h1.7H657h5.8v-6v-2.8V213v-5.8h-3.2v-4.3h3.5v-5.8v-44.3
			V147h-5.8H615h-1.7h-39.6H572h-39h-2.6h-39.5l0,0h-1.7h-39.6h-1.7H408h-1.7H325h-1.7h-39.2h-2.6L276.3,147.3L276.3,147.3z"/>
	</g>
</g>
<path class="st0" d="M332.3,196.7v0.7c0.1,1.3,1.6,2.3,2.7,2.7h0.5v-3.5L332.3,196.7L332.3,196.7z"/>
<path class="st0" d="M291.4,200.2h0.7c1.3-0.1,2.3-1.6,2.7-2.7V197h-3.5L291.4,200.2L291.4,200.2L291.4,200.2z"/>
<rect x="148.1" y="471.2" class="st8" width="7.4" height="1.3"/>
<rect x="148.1" y="473.7" class="st8" width="7.4" height="1.3"/>
<rect x="148.1" y="475.9" class="st8" width="7.4" height="1.3"/>
<rect x="148.1" y="478" class="st8" width="7.4" height="1.3"/>
<rect x="148.1" y="480.3" class="st8" width="7.4" height="1.3"/>
<rect x="148.1" y="482.6" class="st8" width="7.4" height="1.3"/>
<rect x="148.1" y="484.8" class="st8" width="7.4" height="1.3"/>
<rect x="148.1" y="487" class="st8" width="7.4" height="1.3"/>
<rect x="155.9" y="471.2" class="st8" width="7.4" height="1.3"/>
<rect x="155.9" y="473.7" class="st8" width="7.4" height="1.3"/>
<rect x="155.9" y="475.9" class="st8" width="7.4" height="1.3"/>
<rect x="155.9" y="478" class="st8" width="7.4" height="1.3"/>
<rect x="155.9" y="480.3" class="st8" width="7.4" height="1.3"/>
<rect x="155.9" y="482.6" class="st8" width="7.4" height="1.3"/>
<rect x="155.9" y="484.8" class="st8" width="7.4" height="1.3"/>
<rect x="155.9" y="487" class="st8" width="7.4" height="1.3"/>
<rect x="148.1" y="489.3" class="st8" width="7.4" height="1.3"/>
<rect x="148.1" y="491.6" class="st8" width="7.4" height="1.3"/>
<rect x="155.9" y="489.3" class="st8" width="7.4" height="1.3"/>
<rect x="155.9" y="491.6" class="st8" width="7.4" height="1.3"/>
<rect x="148.2" y="459.9" class="st8" width="7.4" height="1.3"/>
<rect x="148.2" y="462.2" class="st8" width="7.4" height="1.3"/>
<rect x="148.2" y="464.5" class="st8" width="7.4" height="1.3"/>
<rect x="156.2" y="459.9" class="st8" width="7.4" height="1.3"/>
<rect x="156.2" y="462.2" class="st8" width="7.4" height="1.3"/>
<rect x="156.2" y="464.5" class="st8" width="7.4" height="1.3"/>
<rect x="148.2" y="466.6" class="st8" width="7.4" height="1.3"/>
<rect x="148.2" y="468.9" class="st8" width="7.4" height="1.3"/>
<rect x="156.2" y="466.6" class="st8" width="7.4" height="1.3"/>
<rect x="156.2" y="468.9" class="st8" width="7.4" height="1.3"/>
<rect x="634.3" y="471.2" class="st8" width="7.4" height="1.3"/>
<rect x="634.3" y="473.7" class="st8" width="7.4" height="1.3"/>
<rect x="634.3" y="475.9" class="st8" width="7.4" height="1.3"/>
<rect x="634.3" y="478" class="st8" width="7.4" height="1.3"/>
<rect x="634.3" y="480.3" class="st8" width="7.4" height="1.3"/>
<rect x="634.3" y="482.6" class="st8" width="7.4" height="1.3"/>
<rect x="634.3" y="484.8" class="st8" width="7.4" height="1.3"/>
<rect x="634.3" y="487" class="st8" width="7.4" height="1.3"/>
<rect x="642.1" y="471.2" class="st8" width="7.4" height="1.3"/>
<rect x="642.1" y="473.7" class="st8" width="7.4" height="1.3"/>
<rect x="642.1" y="475.9" class="st8" width="7.4" height="1.3"/>
<rect x="642.1" y="478" class="st8" width="7.4" height="1.3"/>
<rect x="642.1" y="480.3" class="st8" width="7.4" height="1.3"/>
<rect x="642.1" y="482.6" class="st8" width="7.4" height="1.3"/>
<rect x="642.1" y="484.8" class="st8" width="7.4" height="1.3"/>
<rect x="642.1" y="487" class="st8" width="7.4" height="1.3"/>
<rect x="634.3" y="489.3" class="st8" width="7.4" height="1.3"/>
<rect x="634.3" y="491.6" class="st8" width="7.4" height="1.3"/>
<rect x="642.1" y="489.3" class="st8" width="7.4" height="1.3"/>
<rect x="642.1" y="491.6" class="st8" width="7.4" height="1.3"/>
<rect x="634.3" y="459.9" class="st8" width="7.4" height="1.3"/>
<rect x="634.3" y="462.2" class="st8" width="7.4" height="1.3"/>
<rect x="634.3" y="464.5" class="st8" width="7.4" height="1.3"/>
<rect x="642.3" y="459.9" class="st8" width="7.4" height="1.3"/>
<rect x="642.3" y="462.2" class="st8" width="7.4" height="1.3"/>
<rect x="642.3" y="464.5" class="st8" width="7.4" height="1.3"/>
<rect x="634.3" y="466.6" class="st8" width="7.4" height="1.3"/>
<rect x="634.3" y="468.9" class="st8" width="7.4" height="1.3"/>
<rect x="642.3" y="466.6" class="st8" width="7.4" height="1.3"/>
<rect x="642.3" y="468.9" class="st8" width="7.4" height="1.3"/>
<rect x="351.8" y="381.2" class="st8" width="1.3" height="7.4"/>
<rect x="349.5" y="381.2" class="st8" width="1.3" height="7.4"/>
<rect x="347.5" y="381.2" class="st8" width="1.3" height="7.4"/>
<rect x="345.2" y="381.2" class="st8" width="1.3" height="7.4"/>
<rect x="342.9" y="381.2" class="st8" width="1.3" height="7.4"/>
<rect x="340.7" y="381.2" class="st8" width="1.3" height="7.4"/>
<rect x="338.2" y="381.2" class="st8" width="1.3" height="7.4"/>
<rect x="336.2" y="381.2" class="st8" width="1.3" height="7.4"/>
<rect x="351.8" y="389.1" class="st8" width="1.3" height="7.4"/>
<rect x="349.5" y="389.1" class="st8" width="1.3" height="7.4"/>
<rect x="347.5" y="389.1" class="st8" width="1.3" height="7.4"/>
<rect x="345.2" y="389.1" class="st8" width="1.3" height="7.4"/>
<rect x="342.9" y="389.1" class="st8" width="1.3" height="7.4"/>
<rect x="340.7" y="389.1" class="st8" width="1.3" height="7.4"/>
<rect x="338.2" y="389.1" class="st8" width="1.3" height="7.4"/>
<rect x="336.2" y="389.1" class="st8" width="1.3" height="7.4"/>
<rect x="333.8" y="381.2" class="st8" width="1.3" height="7.4"/>
<rect x="331.5" y="381.2" class="st8" width="1.3" height="7.4"/>
<rect x="333.8" y="389.1" class="st8" width="1.3" height="7.4"/>
<rect x="331.5" y="389.1" class="st8" width="1.3" height="7.4"/>
<rect x="363.3" y="381.2" class="st8" width="1.3" height="7.4"/>
<rect x="361" y="381.2" class="st8" width="1.3" height="7.4"/>
<rect x="358.6" y="381.2" class="st8" width="1.3" height="7.4"/>
<rect x="363.3" y="389.1" class="st8" width="1.3" height="7.4"/>
<rect x="361" y="389.1" class="st8" width="1.3" height="7.4"/>
<rect x="358.6" y="389.1" class="st8" width="1.3" height="7.4"/>
<rect x="356.3" y="381.2" class="st8" width="1.3" height="7.4"/>
<rect x="354.2" y="381.2" class="st8" width="1.3" height="7.4"/>
<rect x="356.3" y="389.1" class="st8" width="1.3" height="7.4"/>
<rect x="354.2" y="389.1" class="st8" width="1.3" height="7.4"/>
<g>
	<g>
		<path class="st9" d="M299.6,475.2c-0.3,0-0.9-0.3-0.9-0.9c0-0.5,0.3-0.9,0.9-0.9s0.9,0.3,0.9,0.9
			C300.6,475,300.2,475.2,299.6,475.2z"/>
	</g>
	<path class="st9" d="M298.4,477.2v1.7c0,0.3-0.1,0.3-0.3,0.3s-0.3-0.1-0.3-0.3v-2.3c0-0.9,0.5-1.5,1.6-1.5h1.6
		c0.9,0,1.6,0.3,1.6,1.5v2.3c0,0.3-0.1,0.3-0.3,0.3s-0.3-0.1-0.3-0.3v-1.7c0-0.1-0.1-0.1-0.1-0.1s-0.1,0-0.1,0.1c0,0.3,0,6.4,0,6.4
		c0,0.3-0.3,0.3-0.3,0.3c-0.1,0-0.3,0-0.3-0.3s0-3.8,0-3.8c0-0.1,0-0.1-0.1-0.1s-0.1,0-0.1,0.1c0,0,0,3.4,0,3.8
		c0,0.3-0.3,0.3-0.3,0.3c-0.1,0-0.3,0-0.3-0.3c0,0,0-6.3,0-6.4s-0.1-0.1-0.1-0.1C298.6,477.1,298.4,477.1,298.4,477.2z"/>
</g>
<g>
	<g>
		<path class="st9" d="M361.2,218.5c-0.3,0-0.9-0.3-0.9-0.9c0-0.3,0.3-0.9,0.9-0.9c0.5,0,0.9,0.3,0.9,0.9
			C362,218.1,361.6,218.5,361.2,218.5z"/>
	</g>
	<path class="st9" d="M359.8,220.5v1.7c0,0.3-0.1,0.3-0.3,0.3c-0.1,0-0.3-0.1-0.3-0.3v-2.3c0-0.9,0.5-1.5,1.6-1.5h1.6
		c0.9,0,1.6,0.3,1.6,1.5v2.3c0,0.3-0.1,0.3-0.3,0.3c-0.1,0-0.3-0.1-0.3-0.3v-1.7c0-0.1-0.1-0.1-0.1-0.1s-0.1,0-0.1,0.1
		c0,0.3,0,6.4,0,6.4c0,0.3-0.3,0.3-0.3,0.3c-0.1,0-0.3,0-0.3-0.3s0-3.8,0-3.8c0-0.1,0-0.1-0.1-0.1s-0.1,0-0.1,0.1c0,0,0,3.4,0,3.8
		c0,0.3-0.3,0.3-0.3,0.3c-0.1,0-0.3,0-0.3-0.3c0,0,0-6.3,0-6.4s-0.1-0.1-0.1-0.1C360,220.5,359.8,220.5,359.8,220.5z"/>
</g>
<g>
	<g>
		<path class="st9" d="M299.2,500.8c-0.3,0-0.7-0.3-0.7-0.7c0-0.3,0.3-0.7,0.7-0.7s0.7,0.3,0.7,0.7
			C300,500.3,299.6,500.8,299.2,500.8z"/>
		<path class="st9" d="M299.6,500.9c0.7,0,0.9,0.3,1.3,0.9l0.5,2.3c0,0.1,0,0.3-0.1,0.3s-0.3,0-0.3-0.1l-0.5-1.9
			c0-0.1-0.1-0.1-0.1-0.1c-0.1,0-0.1,0.1,0,0.3l0.9,3.5H300c0,1.6,0,2.7,0,2.7c0,0.3-0.1,0.3-0.3,0.3s-0.3,0-0.3-0.3s0-2.6,0-2.6
			c0-0.1,0-0.1-0.1-0.1s-0.1,0-0.1,0.1c0,0,0,2.1,0,2.6c0,0.3-0.1,0.3-0.3,0.3s-0.3,0-0.3-0.3c0,0,0-1.3,0-2.7h-1.3l0.9-3.5
			c0-0.1,0-0.1,0-0.3c0-0.1-0.1,0-0.1,0.1l-0.5,1.9c0,0.1-0.1,0.3-0.3,0.1c-0.1,0-0.1-0.1-0.1-0.3l0.5-2.3c0.1-0.3,0.3-0.9,1.3-0.9
			H299.6z"/>
	</g>
</g>
<g>
	<g>
		<path class="st9" d="M348.5,218.5c-0.3,0-0.7-0.3-0.7-0.7c0-0.3,0.3-0.7,0.7-0.7s0.7,0.3,0.7,0.7
			C349.3,218.5,348.8,218.5,348.5,218.5z"/>
		<path class="st9" d="M348.8,219c0.7,0,0.9,0.3,1.3,0.9l0.5,2.3c0,0.1,0,0.3-0.1,0.3s-0.3,0-0.3-0.1l-0.5-1.9
			c0-0.1-0.1-0.1-0.1-0.1c-0.1,0-0.1,0.1,0,0.3l0.9,3.5h-1.3c0,1.6,0,2.7,0,2.7c0,0.3-0.1,0.3-0.3,0.3c-0.1,0-0.3,0-0.3-0.3
			s0-2.6,0-2.6c0-0.1,0-0.1-0.1-0.1s-0.1,0-0.1,0.1c0,0,0,2.1,0,2.6c0,0.3-0.1,0.3-0.3,0.3s-0.3,0-0.3-0.3c0,0,0-1.3,0-2.7h-1.3
			l0.9-3.5c0-0.1,0-0.1,0-0.3c-0.1,0-0.1,0-0.1,0.1l-0.5,1.9c0,0.1-0.1,0.3-0.3,0.1c-0.1,0-0.1-0.1-0.1-0.3l0.5-2.3
			c0.1-0.3,0.3-0.9,1.3-0.9H348.8L348.8,219z"/>
	</g>
</g>
<g class="st10">
	<g>
		<text transform="matrix(1 0 0 1 244.8027 38.5098)" class="st11 st5 st12">Level </text>
	</g>
	<circle class="st11" cx="288.2" cy="36.7" r="18.3"/>
	<text transform="matrix(1 0 0 1 279.0889 49.5712)" class="st1 st5 st13">2</text>
</g>
<polygon class="st4" points="184.9,69.2 184.9,54.9 184.9,54.6 184.9,42.2 184.9,42 184.9,34.9 186.4,34.9 186.4,29.1 186.4,26.9 
	186.4,21.3 180.7,21.3 178.5,21.3 172.8,21.3 172.8,22.8 167,22.8 166.8,22.8 155.5,22.8 155.2,22.8 143.9,22.8 143.7,22.8 
	137.9,22.8 137.9,21.3 132.1,21.3 129.8,21.3 124.2,21.3 124.2,22.8 118.3,22.8 118.1,22.8 106.5,22.8 106.2,22.8 95.6,22.8 
	95.3,22.8 89.9,22.8 89.8,20.5 84.2,20.5 80.1,20.5 74.5,20.5 74.5,26.1 74.5,28.9 74.5,190 74.5,195.8 74.5,223.3 74.5,229 
	80.1,229 92.3,229 101.3,229 134.5,229 143.5,229 181.3,229 186.9,229 186.9,223.3 186.9,74.8 186.9,69.2 "/>
<polygon class="st4" points="383.1,772.4 383.1,771.7 382.8,771.4 382.5,771 382.4,770.8 382.1,770.4 381.7,770.1 381.6,769.8 
	381.3,769.7 381,769.3 380.6,769 380.4,768.9 380,768.6 379.7,768.5 379.7,765.8 379.7,763.5 379.7,748.2 384.9,748.2 384.4,742.3 
	384.4,741.6 384.4,740 384.4,739.7 384.3,739.1 384.1,738.8 383.9,738.4 383.7,737.7 383.6,737.5 383.7,737.2 383.9,736.5 
	384.1,736.3 384.3,735.6 384.4,734.9 384.5,734.6 384.5,733.7 384.5,733 384.8,727.1 379.7,727.1 379.7,698.2 379.7,695.8 
	381.7,695.8 381.7,690.4 381.7,689 381.7,683.6 379.7,683.6 379.7,680.8 379.7,661.2 379.7,659.1 381.7,659.1 381.7,653.8 
	381.7,652.2 381.7,646.6 379.7,646.6 379.7,644 379.7,624.3 379.7,621.8 381.7,621.8 381.7,616.4 381.7,614.8 381.7,609.4 
	379.7,609.4 379.7,606.7 379.7,587.1 379.7,584.4 381.7,584.4 381.7,579.1 381.7,577.6 381.7,572.1 379.7,572.1 379.7,569.5 
	379.7,557.7 379.7,552.3 374.2,552.3 342,552.3 342,542.4 342,540.4 343.8,534.9 338.5,534.9 337.9,534.9 337.4,534.9 300.4,534.9 
	299.8,534.9 299.2,534.9 293.6,534.9 293.6,540.2 293.6,542.3 293.6,552.3 256.5,552.3 251.1,552.3 251.1,557.8 251.1,569.5 
	251.1,572.2 249.1,572.2 249.1,577.6 249.1,579.2 249.1,584.6 251.1,584.6 251.1,587.1 251.1,606.9 251.1,609.6 249.1,609.6 
	249.1,614.9 249.1,616.6 249.1,621.9 251.1,621.9 251.1,624.5 251.1,644 251.1,646.6 249.1,646.6 249.1,652.2 249.1,653.6 
	249.1,659 251.1,659 251.1,661.7 251.1,681.2 251.1,683.9 249.1,683.9 249.1,689.2 249.1,690.8 249.1,696.2 251.1,696.2 
	251.1,698.8 251.1,720.5 250.7,720.5 250.7,713.5 248.9,713.5 248.9,720.5 247.5,720.5 247.4,720.3 247.1,719.9 247,719.6 
	246.7,719.2 246.7,713.5 244.8,713.5 244.8,717.6 244.6,717.4 244.3,717.2 243.6,717 243.1,717 242.8,716.9 242.4,716.9 
	242.4,716.9 242.4,713.5 240.5,713.5 240.5,716.9 238.4,716.9 238.2,716.9 238.2,713.5 236.4,713.5 236.4,716.9 236.1,716.9 
	235.8,717 235.3,717 234.9,717.2 234.6,717.4 234.2,717.7 234.1,717.7 234.1,713.5 232.2,713.5 232.2,719.6 232.1,719.7 
	231.9,720.3 231.7,720.5 229.9,720.5 229.9,713.5 227.9,713.5 227.9,720.5 227.9,720.5 227.9,706.3 227.9,700.9 222.5,700.9 
	210.7,700.9 208.2,700.9 208.2,698.9 202.4,698.9 200.8,698.9 195.4,698.9 195.4,700.9 192.7,700.9 171.9,700.9 168.8,700.9 
	168.8,698.9 163.4,698.9 161.8,698.9 156.4,698.9 156.4,700.9 153.9,700.9 132.9,700.9 130.2,700.9 130.2,698.9 125.1,698.9 
	123.4,698.9 117.9,698.9 117.9,700.9 115.3,700.9 94.6,700.9 92.3,700.9 92.3,698.9 87,698.9 85.4,698.9 80.1,698.9 80.1,700.9 
	77.6,700.9 65.6,700.9 60.2,700.9 60.2,706.3 60.2,727.9 60,728.1 59.7,728.2 59.3,728.5 58.8,728.7 58.5,729.1 58.2,729.4 
	58,729.5 57.7,729.9 57.3,730.2 57,730.6 56.9,730.9 56.6,731.3 56.5,731.6 56.3,732.1 56.2,732.8 56.2,733.4 56.2,734.1 
	56.2,734.1 56.2,734.2 56.2,736.9 56.2,737.1 56.2,737.2 56.2,737.7 56.2,738.3 56.3,738.9 56.3,739.5 56.5,740 56.7,740.6 57,741 
	57.2,741.2 57.4,741.6 57.7,741.9 58,742.2 58.2,742.3 58.5,742.7 58.9,743 59.2,743.1 59.6,743.4 59.8,743.5 59.8,777.2 
	59.8,782.6 65.2,782.6 79.6,782.6 79.6,799.5 79.6,804.9 85,804.9 220.9,804.9 226.3,804.9 226.3,799.5 226.3,768.2 228.4,768.2 
	228.4,771.7 230.3,771.7 230.3,768.2 232.5,768.2 232.5,771.7 234.3,771.7 234.3,768.2 236.8,768.2 236.8,771.7 238.6,771.7 
	238.6,768.2 240.8,768.2 240.8,771.7 242.7,771.7 242.7,768.2 245.1,768.2 245.1,771.7 247,771.7 247,768.2 249.1,768.2 
	249.1,771.7 251,771.7 251,790.9 251,793.6 248.9,793.6 248.9,799.1 248.9,800.6 248.9,806 250.9,806 250.9,808.7 250.9,820.5 
	250.9,825.9 256.2,825.9 273.2,825.9 273.2,837.1 273.2,837.4 273.2,837.5 273.2,838.2 273.2,838.6 273.3,838.9 273.4,839.4 
	273.6,840.1 273.7,840.4 274,840.9 274.1,841.2 274.4,841.4 274.6,842 274.9,842.2 275.2,842.5 275.5,842.8 275.7,843.1 
	275.9,843.3 276.5,843.6 277.1,844 277.6,844.3 278.1,844.4 278.5,844.5 278.8,844.7 279.4,844.8 279.8,844.9 280,844.9 
	280.7,844.9 281,844.9 281.2,844.9 314,844.9 319,844.9 323.7,844.9 324,844.9 324.2,844.9 324.9,844.9 325.2,844.9 325.6,844.8 
	326.1,844.7 326.4,844.5 326.8,844.4 327.3,844.3 327.8,844 328.4,843.6 329.1,843.3 329.2,843.1 329.5,842.8 329.9,842.5 
	330,842.2 330.3,842 330.5,841.4 330.8,841.2 330.9,840.9 331.2,840.4 331.3,840.1 331.5,839.4 331.6,838.9 331.7,838.6 
	331.7,838.4 331.7,837.7 331.7,837.4 331.7,837.3 331.7,826 374.2,826 379.7,826 379.7,820.5 379.7,783.4 379.8,783.4 380.2,783.1 
	380.5,782.9 380.9,782.7 381.2,782.3 381.5,782.1 381.7,781.9 382,781.5 382.4,781.3 382.5,780.9 382.8,780.6 383.1,780.2 
	383.1,779.9 383.2,779.2 383.3,779 383.3,778.6 383.3,778 383.3,777.9 383.3,777.6 383.3,774.5 383.3,774.4 383.3,774.1 
	383.3,773.6 383.3,773.2 383.2,772.9 "/>
<polygon class="st0" points="328.5,594.1 328.5,592.2 324.5,592.2 324.5,592 315.5,592 315.5,592.2 311.6,592.2 311.6,594.1 
	309.2,594.1 309.2,592.2 295.5,592.2 295.5,599.6 294.9,599.6 294.9,630 309.2,630 309.2,628.6 311.6,628.6 311.6,630 328.5,630 
	328.5,628.6 330.7,628.6 330.7,630 339.7,630 339.7,592.2 330.8,592.2 330.8,594.1 "/>
<g>
	<text transform="matrix(1 0 0 1 303.3047 614.5039)" class="st1 st5 st6">LS 2418</text>
</g>
</svg>
