<?xml version="1.0" encoding="utf-8"?>
<!-- Generator: Adobe Illustrator 17.1.0, SVG Export Plug-In . SVG Version: 6.00 Build 0)  -->
<!DOCTYPE svg PUBLIC "-//W3C//DTD SVG 1.1//EN" "http://www.w3.org/Graphics/SVG/1.1/DTD/svg11.dtd">
<svg version="1.1" id="Layer_1" xmlns="http://www.w3.org/2000/svg" xmlns:xlink="http://www.w3.org/1999/xlink" x="0px" y="0px"
	 viewBox="-1294.2 -397.2 1703.5 1052.2" enable-background="new -1294.2 -397.2 1703.5 1052.2" xml:space="preserve">
<path fill="none" stroke="#989798" stroke-width="10" stroke-miterlimit="10" d="M-922.9-22"/>
<path fill="#989798" d="M-598.9-356.5v272.7h-42h-282.2h-42v-272.7h136.3h93H-598.9 M-583.9-371.8h-14.8h-136.3h-93h-136.3h-14.8
	v14.8v272.7v14.8h14.8h42H-640h42h14.8v-14.8v-272.4v-15L-583.9-371.8L-583.9-371.8z"/>
<polyline fill="none" stroke="#999999" stroke-width="12" stroke-miterlimit="10" points="-760.2,372 -760.2,372 -760.2,372 
	-760.2,372 -760.2,372 -760.2,372.7 -701.5,372.7 -701.5,372.7 -701.5,372.7 -681.6,372.7 -681.6,372.7 -607.1,372.7 -607.1,372.7 
	-607.1,372.7 -587.5,372.7 -587.5,372.7 -587.5,372.7 -587.5,372.7 -587.5,372.7 -587.5,372.7 -587.5,372.7 -587.5,372.7 
	-511.9,372.7 -511.9,427 -497.3,427 -497.3,427 -497.3,427 -497.3,427 -497.3,446.7 -497.3,446.7 -497.3,507.9 -500,507.9 
	-500,507.9 -528,507.9 -528,507.9 -528,507.9 -528,507.9 -528,503.7 -735.1,503.7 -824.3,504.4 -998.7,504.4 -1032.2,504.4 
	-1032.2,508.8 -1063,508.8 -1063,508.8 -1063,508.8 -1063,427.9 -1048.4,427.9 -1048.4,373.1 -1048.4,373.1 -1048.4,373.1 
	-1048.4,373.1 -800.2,373.1 -800.2,373.1 -800.2,373.1 -800.2,373.1 -800.2,373.1 -800.2,372.5 -795.6,372.5 -766.2,372.5 
	-760.2,372 -760.2,372 -760.2,372 "/>
<polyline fill="none" stroke="#989798" stroke-width="10" stroke-miterlimit="10" points="-758.3,283.6 -758.3,283.6 -758.3,283.6 
	"/>
<g>
	<path fill="#989798" d="M-598.9-22v272.4h-168.6l0,0c-0.2,0-27.8,0-27.8,0H-964l0,0V109h-31.6l0,0h-27.2l0,0v-3.1l0,0v1.3l26.7-0.2
		v-1.3l0,0v-9.5l0,0V50h31.6v-72.5L-598.9-22 M-964.2,250L-964.2,250L-964.2,250L-964.2,250 M-767.5,250L-767.5,250L-767.5,250
		L-767.5,250 M-583.9-37.3h-14.8h-365.7h-14.8v14.8v58.1h-17h-14.8v14.8v42.2h-11.9v13.7h-14.6v3.1v14.8h14.8h26.7h17v125.9V265
		h14.8h168.6c0,0,27.4,0,27.8,0h168.6h14.8v-14.8V-22.5v-14.8H-583.9L-583.9-37.3z"/>
</g>
<polyline fill="none" stroke="#989798" stroke-width="10" stroke-miterlimit="10" points="-804.9,356 -804.9,356 -804.9,356 "/>
<path fill="#CCCCCC" d="M-544.1,443.3h9.5l0,0l0,0l-0.7,1.8c-0.7,3.5-3.5,6.6-7.5,7.5l-1.8,0.2v40.9l0,0v6.6h26.3v-49.7l0,0l0,0l0,0
	l0,0l0,0h2.2v-15.9h-18.1l0,0h-10.6v8.6H-544.1z"/>
<rect x="-824.5" y="-397.2" fill="#FFFFFF" width="83.7" height="44"/>
<path fill="#CCCCCC" d="M-799.8,490.2h-1.3H-799.8L-799.8,490.2h-1.3l0,0l0,0l0,0l0,0V453h-7.5l0,0l0,0v-0.7h-1.3v0.7h-11h11v-0.7
	l0,0l0,0h1.3l0,0h-0.7l0,0h-0.7v0.7h-11v0.9v0.9l0,0V453v1.8l0,0v3.3h4.4l0,0V472l0,0l0,0l0,0h-19.9l0,0l0,0l0,0v-13.9l0,0h4.6v-4.2
	V453h-19.2v1.3l0,0h7.1l0,0l0,0h-7.1l0,0l0,0h7.1v23l0,0v-23v23l0,0v-23v23l0,0l0,0h-22.5l0,0l0,0v-23l0,0l0,0l0,0h6.2v-0.7V453
	h-7.7l0,0l0,0v-0.7h-1.1v0.7l0,0l0,0l0,0l0,0l-1.8,0.2l1.8-0.2v-0.7l0,0l0,0v0.7l-1.8,0.2l-6.6,38.7l0,0l6.6-38.7l-6.6,38.7l0,0
	l6.6-38.7l-6.6,38.7l0,0l0,0l0,0l0,0l0,0l0,0l0,0l0,0l0,0l0,0l0,0l0,0l-16.1-3.5l-0.2,0.9l0,0l0.2-0.9l16.1,3.5h11.5v-11l0,0l0,0
	l0,0l0,0l0,0l0,0h62.1l0,0l0,0v13l0,0l0,0h-62.1l0,0h43.1v3.3h23.6v-3.8L-799.8,490.2L-799.8,490.2L-799.8,490.2z M-871.4,453
	l1.8-0.2L-871.4,453z"/>
<path fill="#CCCCCC" d="M-959.8-284.7L-959.8-284.7l1.8,0.2c3.5,0.7,6.6,3.5,7.5,7.5l0.2,1.8l0,0l0,0l0,0h52.4l0,0l0,0v0.7h9.5v-0.7
	v0.7l0,0v-0.7v0.7l0,0v-0.7h0.9l0,0l0,0h-0.9l0,0l0,0h0.9l0,0v-4.2l0,0h4.4v-74.2h-78v78.2h1.8L-959.8-284.7L-959.8-284.7z"/>
<path fill="#CCCCCC" d="M-851.7-243.2L-851.7-243.2L-851.7-243.2h-3.1v15.5v-15.5l0,0v15.5l0,0l1.8,0.2l1.8,0.7l1.3,0.9l1.3,1.1
	l1.1,1.3l0.9,1.3l0.7,1.8l0.2,1.8l0,0l0,0l0,0l0,0l0,0l0,0l0,0l0,0h-9.1v8.8v-8.8l0,0v8.8h9.5l0,0l-0.2,1.8c-0.2,3.5-4,7.1-7.5,7.5
	l-1.8,0.2v19.2h27.4v-65l0,0v65.2v-65.2h-24.1L-851.7-243.2L-851.7-243.2z"/>
<path fill="#CCCCCC" d="M-888.6-238.1v-0.7h-9.5v0.7h-63.2v77.6h72.9L-888.6-238.1L-888.6-238.1L-888.6-238.1L-888.6-238.1
	L-888.6-238.1z"/>
<path fill="#CCCCCC" d="M-899.2-260.2h-0.7l0,0v-13.9v13.9l0,0v-13.9v13.9H-899.2L-899.2-260.2h-0.7v-13.9H-950l0,0l0,0l0,0v-0.4
	h-9.5v0.7h-1.8v34h61.4l0,0v-10.8l0,0l0,0h0.7V-260.2L-899.2-260.2z"/>
<path fill="#CCCCCC" d="M-851.7-102.4L-851.7-102.4L-851.7-102.4L-851.7-102.4v0.7h74.7v-67v-5.7v-4.4h-74.2v4l0,0v6.2l0,0v-6.4v6.2
	l0,0l0,0h-4.6v2v-2l0,0v2l0,0l0,0l0,0h-0.7l0,0v9.5h0.7l0,0l0,0l0,0v55.2l0,0L-851.7-102.4L-851.7-102.4z"/>
<path fill="#CCCCCC" d="M-888.6-109.7L-888.6-109.7v23.2V-109.7L-888.6-109.7v23.2V-109.7h-7.1l0,0l0,0l0,0v-1.3l0,0h11.9l0,0v-30.1
	l0,0l0,0h0.7v-9.5l0,0h-0.7l0,0l0,0l0,0l0,0v-9.5l0,0v9.5v-9.5h-78V-87h72.5l0,0l0,0h-72.5l0,0h72.5L-888.6-109.7L-888.6-109.7z"/>
<path fill="#CCCCCC" d="M-707.2-209.2h0.7v-9.5l0,0h-0.7l0,0l0,0l0,0l0,0l0,0l0,0v-0.7h-0.9l0,0l0,0v-11h-18.6v18.1l1.3,0.2
	c1.8,0.2,3.5,1.8,4.4,3.5h0.7l-0.4,1.3v0.2l0.2,1.3l0,0h-0.9l-0.2,0.2l0.2-0.2h-5.3v18.1h13.7v-9.7l0,0l0,0h6.2l0,0h-6.2l0,0l0,0
	h6.2L-707.2-209.2L-707.2-209.2L-707.2-209.2L-707.2-209.2L-707.2-209.2L-707.2-209.2L-707.2-209.2L-707.2-209.2h0.7l0,0H-707.2z"/>
<path fill="#CCCCCC" d="M-711.2-243.2L-711.2-243.2L-711.2-243.2v-4.4h-15.2v3.1l0,0l0,0l0,0l0,0l0,0l0,0h-0.7v9.5h0.7l0,0v4h19.4
	v-2.2l-1.8-0.2c-2-0.7-4-1.3-5.1-3.1v0.2l-0.2,0.2l-0.2,0.2l-0.2,0.2h-0.7l-0.2-0.2l-0.2-0.2l-0.2-0.2v-0.2l0.2-0.2l0.2-0.2l0.2-0.2
	h0.2l-0.2-0.2l-0.4-0.4l-0.2-0.2v-0.2l0.2-0.2h0.2c-0.2-0.7-0.7-1.3-0.7-2.2l-0.2-1.8l0,0h9.5v-0.2L-711.2-243.2L-711.2-243.2z
	 M-717.2-236.6L-717.2-236.6L-717.2-236.6L-717.2-236.6L-717.2-236.6L-717.2-236.6L-717.2-236.6z M-718-243h1.1H-718"/>
<path fill="#CCCCCC" d="M-771.1-171.6h43.1v-2h-9.5l0,0l0,0l0,0l0.2-1.8c0.9-4,3.3-6.4,7.5-7.5l1.8-0.2l0,0v-21.2h-46.2h46.2l0,0
	h-46.2l0,0v29.4l0,0h3.5l0,0l0,0L-771.1-171.6L-771.1-171.6z"/>
<path fill="#CCCCCC" d="M-728.4-212.5L-728.4-212.5L-728.4-212.5v-1.3h-46.4v9.7h46.8v-1.8l0,0l0,0l0,0l0,0l0,0l0,0l0,0l0,0h0.7v-6
	L-728.4-212.5L-728.4-212.5z"/>
<path fill="#CCCCCC" d="M-728.4-214v-21.2l0,0l-1.8-0.2c-3.5-0.7-6.6-3.5-7.5-7.5l-0.2-1.8l0,0h9.5v-2h-43.1v3.3l0,0l0,0h-3.5v29.4
	H-728.4L-728.4-214L-728.4-214z"/>
<path fill="#CCCCCC" d="M-785.7-247.8v-0.7h-9.5l0,0l0,0v0.7l0,0l0,0l0,0h-12.4l0,0l0,0l0,0l0,0v-0.7l0,0v0.7v-0.7h-9.1v0.7l0,0h-8
	v67.4l0,0h47.9v-63.2l0,0v-4.4L-785.7-247.8L-785.7-247.8L-785.7-247.8L-785.7-247.8v-0.7l0,0V-247.8z"/>
<path fill="#CCCCCC" d="M-774.6-168.5v66.3h3.3l0,0l0,0l0,0v0.7h11.7v-29.4l0,0l0,0l0,0l0,0l0,0h42.2l0,0h-42.2h42.2l0,0h-42.2h42.2
	l0,0l0,0v0.7h9.5v-0.7l0,0v-9.5l-1.8,0.2c-4,0.9-6.6,3.5-7.5,7.5l-0.2,1.8l0.2-1.8c0.7-4,3.5-6.6,7.5-7.5l1.8-0.2l0,0l-1.8,0.2
	c-4,0.9-6.6,3.5-7.5,7.5l-0.2,1.8l0.2-1.8c0.7-4,3.5-6.6,7.5-7.5l1.8-0.2l0,0l0,0l0,0l0,0l0,0l0,0l0,0l0,0l0,0l0,0v9.5h0.7v-18.8
	l0,0l0,0h0.7v-9.5h-0.7l0,0v-9.5h-4.4h4.2l0,0h-4.2l0,0l0,0h-59.4l0,0L-774.6-168.5L-774.6-168.5L-774.6-168.5L-774.6-168.5z"/>
<path fill="#496CB4" d="M-601.4-226.6h-73.8v4.4l0,0l0,0h-3.3v8l0,0l0,0l0,0h-1.3v7.7l0,0l0,0h-0.7v9.5h0.7l0,0l0,0l0,0v28.9h4.4
	l0,0l0,0l0,0v5.7h-4.4v30.5h-0.7v9.5h0.7l0,0l0,0l0,0v21.2h4.6l0,0l0,0h-4.6l0,0h4.6l0,0l0,0l0,0l0,0l0,0l0,0l0,0l0,0v15.2h73.6l0,0
	v-129.9v-8L-601.4-226.6L-601.4-226.6z"/>
<path fill="#496CB4" d="M-679.6-237.4L-679.6-237.4L-679.6-237.4L-679.6-237.4L-679.6-237.4h-0.7v9.5h0.7l0,0l0,0l0,0v0.7h4.4l0,0
	l0,0l0,0h73.6v-46.4h-73.6l0,0h-4.4V-237.4L-679.6-237.4z"/>
<path fill="#CCCCCC" d="M-732.4-317.9L-732.4-317.9v37.8v4.4h30.1l0,0l0,0v0.7l0,0h9.5v-0.7v0.7l0,0v-0.7l0,0l0,0l0,0l0,0h13v-4.4
	l0,0l0,0l0,0h5.7v4.4h73.6v-78h-131.2v13.7l0,0v13l0,0h-1.1v9.5h0.4V-317.9z"/>
<path fill="#CCCCCC" d="M-883.1,38.1L-883.1,38.1L-883.1,38.1L-883.1,38.1V16.9h-1.1l0,0l0,0V-3h-3.5l0,0l0,0v-16.1h-34.5l0,0h-0.2
	v25h-0.7v9.5h0.7l0,0l0,0v1.8h3.1l0,0l0,0v3.1h-0.7v9.5h0.7l0,0l0,0v19.9h36.5h-36.9l0,0h36.5v-1.8h-9.5l0.2-1.8
	c0.9-4,3.3-6.4,7.5-7.5L-883.1,38.1l-1.8,0.2c-4,0.9-6.4,3.3-7.5,7.5l-0.2,1.8h9.5l0,0l0,0h0.7v-9.5H-883.1L-883.1,38.1z"/>
<path fill="#CCCCCC" d="M-921.1,29.2h0.7l0,0H-921.1v19.9V29.2l-1.8-0.2c-3.5-0.7-6.6-3.5-7.5-7.5l-0.2-1.8h9.5V18h-40.7v30.9h40.7
	h-40.7l0,0h40.7V29.2L-921.1,29.2z"/>
<path fill="#CCCCCC" d="M-924,14.7h-9.5l0.2-1.8c0.9-4,3.3-6.4,7.5-7.5l1.8-0.2v-25h-37.1v36.5h37.1V14.7L-924,14.7z"/>
<path fill="#CCCCCC" d="M-933.5,82.5c0.9-4,3.3-6.4,7.5-7.5l1.8-0.2l0,0l0,0l0,0l0,0v9.5v0.7l0,0V84h1.8V50.5l0,0V84h-1.8h1.8V50.5
	h-38.7V54l0,0v21.7v8v0.7h27.8L-933.5,82.5L-933.5,82.5z"/>
<path fill="#CCCCCC" d="M-965.3,54.2h-27.8v43.3h-3.1v9.5h30.9V54.2L-965.3,54.2L-965.3,54.2z"/>
<path fill="#CCCCCC" d="M-925.5,170.2L-925.5,170.2L-925.5,170.2L-925.5,170.2v2.2V170.2h-9.5l0,0l0,0l0,0l0,0l0.2-1.8
	c0.9-4,3.5-6.6,7.5-7.5l1.8-0.2v-23.9h-35.6v35.4h35.6h-35.6l0,0h35.6V170.2L-925.5,170.2z"/>
<path fill="#CCCCCC" d="M-882,218.6L-882,218.6L-882,218.6V248h17h8h26.7l0,0v-47.5l0,0V197h-51.9v12.4h-0.7v9.5L-882,218.6
	L-882,218.6z M-830.5,200.7v47.5V200.7z"/>
<path fill="#CCCCCC" d="M-927.1,248h1.1v-13l-1.8-0.2c-4-0.7-6.6-3.5-7.5-7.5l-0.2-1.8h9.5v-15h-35.6V248h26.3H-927.1L-927.1,248z"
	/>
<path fill="#CCCCCC" d="M-925.3,226.1L-925.3,226.1L-925.3,226.1h-9.7l0.2,1.8c0.9,4,3.5,6.6,7.5,7.5l1.8,0.2h0.2V226.1
	L-925.3,226.1z"/>
<path fill="#CCCCCC" d="M-925.5,210v-1.8h-9.5l0,0l0,0l0,0l0,0l0.2-1.8c0.9-4,3.5-6.6,7.5-7.5l1.8-0.2v-25.6h-35.6v36.5L-925.5,210
	L-925.5,210v-2h0.2l0,0h-0.2V210z"/>
<path fill="#CCCCCC" d="M-627.9,248L-627.9,248h26.3v-77.8l0,0V248v-77.8h-58.3l0,0l0,0l0,0v10.4l0,0l0,0h-0.7v9.5h0.7l0,0l0,0v58.1
	l0,0l0,0h24.1l0,0l0,0L-627.9,248L-627.9,248z"/>
<path fill="#CCCCCC" d="M-686.7,219.1L-686.7,219.1L-686.7,219.1v29.2h15.9l0,0l0,0h8l0,0l0,0h0.7v-50.8h-24.5v12.4l0,0l0,0h-0.2
	L-686.7,219.1L-686.7,219.1L-686.7,219.1z"/>
<path fill="#CCCCCC" d="M-713.8,223.5L-713.8,223.5L-713.8,223.5h-18.8v24.7h26.7h8h10.4h-10.4l0,0h10.4v-25h-17l0,0l0,0V223h-9.7
	L-713.8,223.5L-713.8,223.5L-713.8,223.5L-713.8,223.5L-713.8,223.5z"/>
<path fill="#CCCCCC" d="M-697.7,197.2L-697.7,197.2L-697.7,197.2L-697.7,197.2L-697.7,197.2h-34.5l0,0l0,0v3.3v-3.3l0,0v25.4l0,0
	v-21.7v21.9l0,0l0,0v-21.9v21.9l0,0h18.8l0,0v0.2h9.7v-0.2l0,0l0,0l0,0h17v-3.5l0,0l-1.8-0.2l-1.8-0.7l-1.3-0.9l-1.3-1.1l-1.1-1.3
	l-0.9-1.3l-0.7-1.8l-0.2-1.8l0,0h9.5v-11.9h-0.9l0,0l0,0V197l0,0v1.1V197h-9.5L-697.7,197.2L-697.7,197.2z"/>
<path fill="#CCCCCC" d="M-734.8,248.4v-47.7h-2.7h2.7l0,0h-2.7l0,0V200h-11v-1.3l0,0v1.3v-1.3h-11.9v49.7H-734.8L-734.8,248.4z
	 M-737.7,199.6h-11H-737.7z"/>
<path fill="#CCCCCC" d="M-601.4,168.7v-101l0,0V168.7v-101h-78l0,0v40.9h4.4l0,0l0,0v5.7l0,0l0,0l0,0h-4.4v49.9h4.4l0,0l0,0v4.4h0.7
	l0,0l0,0v0.7l0,0h9.5v-0.7v0.7l0,0v-0.7L-601.4,168.7L-601.4,168.7z"/>
<path fill="#CCCCCC" d="M-707.2,52l-1.8-0.2c-3.5-0.7-6.6-3.5-7.5-7.5l-0.2-1.8h9.5v-3.1h-60.5v42.2h60.5V52z"/>
<path fill="#CCCCCC" d="M-707.2,26.4L-707.2,26.4L-707.2,26.4L-707.2,26.4L-707.2,26.4V-3.9l-60.5,0.2v42h60.5v-2.7h-9.5l0.2-1.8
	c0.7-3.5,3.5-6.6,7.5-7.5L-707.2,26.4L-709,27c-3.5,0.7-6.6,3.5-7.5,7.5l-0.2,1.8h9.5h0.7v-9.5L-707.2,26.4L-707.2,26.4z"/>
<path fill="#CCCCCC" d="M-679.4,49.4v3.5h6.2l0,0l0,0l0,0v13.3h71.6h-71.6l0,0h71.6v-85.3h-38.7l0,0H-673v15.5l0,0h-6.6l0,0v42l0,0
	V-3.9v42.2h4.4l0,0l0,0l0,0v1.1l0,0h-4.4v0.2v-0.2l0,0v0.2l0,0h-0.7l0,0v9.5h0.9V49.4z"/>
<path fill="#CCCCCC" d="M-707.2,164v-25.6l-1.8-0.2c-3.5-0.7-6.6-3.5-7.5-7.5l-0.2-0.9c-1.1,2.7-3.5,4.4-6.6,5.3l-1.8,0.2l0,0l0,0
	v-9.5l0,0l0,0l0,0h-42.6l0,0l0,0v42.4h56.6v-4.4L-707.2,164L-707.2,164L-707.2,164z"/>
<path fill="#CCCCCC" d="M-724.7,125.1v0.7h9.5v-0.7l0,0l0,0h8.6l0,0h-8.6h8.6v-3.5h-9.5h9.5h0.7v-9.5h-0.9l0,0V96h-4.2l0,0l0,0l0,0
	l0,0v-6.2V96l0,0v-13h-27.2v33.6l0,0l0,0l0,0l0,0h-0.2l0.2,8.4L-724.7,125.1L-724.7,125.1L-724.7,125.1z M-716.3,119.6
	c0.7-3.5,3.5-6.6,7.5-7.5l1.8-0.2l-1.8,0.2C-712.1,113.2-715.4,116.3-716.3,119.6l-0.2,1.8L-716.3,119.6z"/>
<path fill="#CCCCCC" d="M-855.9,129.8h9.5l-0.2,1.8c-0.7,3.5-3.5,6.6-7.5,7.5l-1.8,0.2v29.4h59.2V159l0,0h1.3l0,0v-32.5l0,0V159
	v-32.5h-60.3L-855.9,129.8h-0.7l0,0H-855.9z"/>
<path fill="#CCCCCC" d="M-855.9-3.9L-855.9-3.9L-855.9-3.9L-855.9-3.9v30.1l0,0h9.5l-0.2,1.8c-0.7,3.5-3.5,6.6-7.5,7.5l-1.8,0.2v7.5
	h9.5l0,0l0,0l-0.2,1.8l-0.7,1.8l-0.9,1.3l-1.1,1.3l-1.3,1.1l-1.3,0.9l-1.8,0.7l-1.8,0.2l0,0v60.5l0,0l0,0l1.8,0.2
	c3.5,0.7,6.6,3.5,7.5,7.5l0.2,1.8l0,0l0,0l0,0l0,0h-9.7v3.1h60.3V95.8V90l0,0V-3.7h-60.3h-0.2C-855.9-3.7-855.9-3.9-855.9-3.9z"/>
<path fill="#CCCCCC" d="M-819.5,420.8v0.7h10.8v-0.7l0,0l0,0h2.7l0,0h-2.7l0,0l0,0h2.7V394h-21.4v26.7H-819.5L-819.5,420.8
	L-819.5,420.8z"/>
<path fill="#CCCCCC" d="M-863.7,422.6h15.9v-0.7l0,0l0,0l0,0h9.7v-6.4h-0.2l-0.2-0.2l0.2,0.2h0.2V394h-30.3v1.3l0,0v26.3h4.4l0,0
	L-863.7,422.6L-863.7,422.6L-863.7,422.6z"/>
<path fill="#CCCCCC" d="M-868.5,434.9v-0.7V434.9h-0.7v17.7h0.7l0,0l0,0l0,0v0.7l0,0v-0.7v0.7h8l0,0l0,0l0.2-1.8
	c0.7-3.5,4-6.6,7.5-7.5l1.8-0.2l0,0l0,0l0,0l0,0v9.5h19.2l0,0l0,0v0.9h10.8v-0.9h11v-0.7h0.7v-17.7h-0.7h0.7l0,0h-0.7l0,0l0,0l0,0
	v-0.7h-8h8l0,0h-8v-1.1l0,0h-9.5v1.3l0,0l0,0l0,0h-10.8v-0.7l0,0h-9.5v0.7l0,0l0,0l0,0L-868.5,434.9L-868.5,434.9h-0.7l0,0H-868.5z"
	/>
<path fill="#CCCCCC" d="M-851.3,453.7h-9.5v0.7l0,0l0,0l0,0l0,0l0,0l0,0l0,0h-6.2v23h22.5v-23h-7.1l0,0L-851.3,453.7L-851.3,453.7z"
	/>
<path fill="#496CB4" d="M-1014.3,398h9.5l-0.2,1.8c-0.7,3.5-3.5,6.6-7.5,7.5l-1.8,0.2l0,0l0,0V488l8,1.3l0,0l0,0l0,0l-8-1.3l8,1.3
	l0,0l0,0v5.7h0.7l0,0l0,0l0,0l0,0l0,0l0,0l0,0l0,0l0,0v1.8h9.1v-0.7l0,0l0,0v0.7h9.1v-0.7v-1.3v1.3v0.7l0,0v-0.7v-1.3l0,0h0.7
	l1.8-5.7l0,0l0,0l0,0l0,0l23,3.5l0.7-3.5l-0.7-0.2l0,0l0,0l0.2-0.9l0,0l0,0l0,0l0,0l21.9,4.4l0.7-2.7l0.2-0.7l-0.7-0.2l0,0l0,0
	l0.2-0.9l0,0l0,0l0,0l0,0l21.9,4.4l0.7-3.5l0,0l-0.7-0.2l0,0l0,0l0.2-0.9l0,0l0,0l0,0l0,0l21.9,4.4l0.7-3.5l0,0l-0.7-0.2l0,0l0,0
	l0.2-0.9l0,0l0,0l0,0l0,0l16.1,3.5l6.6-38.7l1.8-0.2v-0.7h-8.8l0.2-1.3c0.7-3.5,3.5-6.4,7.1-7.1l1.3-0.2l-1.3-0.2
	c-3.3-0.7-6.6-3.5-7.1-7.1l-0.2-1.3h8.8l0,0l0,0l0,0v-0.7l-1.8-0.2l-6.6-38.7l-16.1,3.5l0,0l0,0l0,0l0,0l0,0l0,0l-0.2-0.9h0.2
	l0.7-0.2l-0.7-3.5l-21.9,4.4l0,0l0,0l0,0l0,0l0,0l0,0l-0.2-0.9h0.2l0.7-0.2l-0.7-2.7l-21.9,4.4l0,0l0,0l0,0l0,0l0,0l0,0l-0.2-0.9
	h0.2l0.7-0.2l-0.7-3.5l-21.9,4.4l0,0l0,0l0,0l0,0l0,0l0,0l-0.2-0.9h0.2l0.7-0.2l-0.7-3.5l-21.9,3.3l0,0l0,0l-1.8-4l-28.5,4.2
	C-1014.3,398-1014.3,398-1014.3,398z"/>
<path fill="#CCCCCC" d="M-1029.1,432.1L-1029.1,432.1L-1029.1,432.1v1.1h8.4v-1.1v1.1l0,0v-1.1l0,0l0,0h4.2v-24.7l0,0l0,0h1.1v-9.5
	h-1.3l0,0l0,0l0,0l0,0l0,0l0,0l0,0v-4h-13v38L-1029.1,432.1L-1029.1,432.1L-1029.1,432.1L-1029.1,432.1L-1029.1,432.1L-1029.1,432.1
	L-1029.1,432.1L-1029.1,432.1z"/>
<path fill="#CCCCCC" d="M-1020.8,443.1l-1.3-0.2c-0.7-0.2-1.3-0.7-2.2-0.7c-2-1.1-3.5-3.3-4.2-5.7l-0.2-1.3h-18.3v15.9h2.2l0,0l0,0
	l0,0l0,0v49.5h26.3v-65.8h-2.2V443.1L-1020.8,443.1z"/>
<path fill="#CCCCCC" d="M-717.6,461.4L-717.6,461.4L-717.6,461.4L-717.6,461.4v21.7l0,0l0,0l0,0l0,0v8.4h4.4l0,0l0,0l0,0v2.2h0.7
	l0,0h8.8l0,0h15v-2.2l0,0l0,0l0,0l0,0l0,0l0,0l0,0l0,0h3.5v-16.4l0,0l0,0l0,0l0,0l0,0l0,0h0.2l0,0h-0.2l0,0l0,0h0.2v-9.5h-0.2l0,0
	l0,0v-9.1h-5.1v9.5l0,0l0,0l0,0l0,0l0,0l0,0l0,0l0,0l0,0l0,0l-1.8-0.2c-3.5-0.7-6.6-3.5-7.5-7.5l-0.2-1.8l0,0h-18.8l0,0
	L-717.6,461.4L-717.6,461.4z"/>
<path fill="#CCCCCC" d="M-683.8,491L-683.8,491L-683.8,491L-683.8,491L-683.8,491L-683.8,491L-683.8,491L-683.8,491v2.2h0.7l0,0h8.8
	l0,0h14.8V491l0,0l0,0l0,0h9.1v-34.7h-19.4l-0.2,1.8c-0.7,3.5-3.5,6.6-7.5,7.5l-1.8,0.2l0,0l0,0v-9.5l0,0h-4.6v9.1l0,0l0,0l1.8,0.2
	c3.5,0.9,6.6,3.5,7.5,7.5l0.2,1.8l0,0h-9.5l0,0l0,0l0,0l0,0L-683.8,491l-0.2-16.1l0,0L-683.8,491l-0.2-16.1h-0.2l0,0h0.2L-683.8,491
	L-683.8,491L-683.8,491L-683.8,491L-683.8,491z"/>
<path fill="#CCCCCC" d="M-667.9,431.8l1.8-0.2l0,0l0,0l0,0l0,0v9.5l0,0l0,0l0,0h12.4v-44.9h-5.1l0,0l0,0V394h-24.5v2.2h-0.2v44.6
	h8.4l0.2-1.8C-675.2,435.4-671.9,432.3-667.9,431.8z"/>
<path fill="#CCCCCC" d="M-707.2,392.3L-707.2,392.3v-0.7V392.3L-707.2,392.3v-0.7V392.3l9.1-0.2v-0.2v0.2l0,0v-0.2v0.2v0.2h0.2v-0.7
	v0.7l0,0v-0.7v0.7l0,0h-0.2l0,0H-707.2L-707.2,392.3L-707.2,392.3l-0.2,1.3h-0.9v3.3h-0.7v9.5h0.7l0,0l0,0l0,0l0,0l0,0v34.7l0,0h5.3
	v-9.5l0,0l0,0l1.8,0.2c3.5,0.7,6.6,3.5,7.5,7.5l0.2,1.8h9.5v-44.6h-4l0,0l0,0v-2.7h-0.7l0,0l0,0v-1.8h-0.4l0,0h-8.8l0,0h-0.2l0,0
	L-707.2,392.3l-0.2,0.2h0.7L-707.2,392.3L-707.2,392.3z"/>
<path fill="#CCCCCC" d="M-757.1,491v2h37.8v-38.2l0,0l0,0l0,0h19.9l0,0l0,0l0,0l0,0v0.7h9.5v-0.7l0,0l0,0l0,0h10.8l0,0v0.7h9.5v-0.7
	l0,0l0,0l0,0h3.5v-1.3l0,0l0,0l0,0h0.2V444l0,0l0,0l0,0v-1.5h-0.7l0,0l0,0v-0.9h-9.5v0.7l0,0l0,0l0,0l0,0l0,0h-18.3l0,0l0,0v-0.7
	h-9.5v0.7l0,0l0,0h-15.2l0,0l0,0l0,0h-8.6l0,0h-0.7l0,0l-26.3-0.2v9.1l0,0l0,0h-1.3v1.3l0,0l0,0h-4.4v0.2l0,0l0,0h-0.7v9.5h0.7l0,0
	l0,0l0,0l0,0v0.9l0,0v-0.7v0.9V491H-757.1L-757.1,491L-757.1,491z"/>
<path fill="#CCCCCC" d="M-583.9,456.1L-583.9,456.1v37.1l0,0h13V491l0,0l0,0l0,0h4.4l0,0l0,0l0,0v2h18.3v-35.6h-18.8v-1.1h-1.3
	l-0.2,1.3c-0.9,3.3-3.1,5.7-6.6,6.6l-1.3,0.2l1.3-0.2c3.5-0.7,5.7-3.1,6.6-6.6l0.2-1.3l0,0l-0.2,1.3c-0.9,3.3-3.1,5.7-6.6,6.6
	l-1.3,0.2l0,0l0,0l0,0l0,0v-8.4l0,0v8.4v-8.4l0,0H-583.9L-583.9,456.1z"/>
<path fill="#CCCCCC" d="M-600,491L-600,491L-600,491h4.4l0,0l0,0l0,0v2.2h0.9l0,0h8.8l0,0h1.3v-37.1h-0.7v9.5l0,0l0,0l0,0l0,0l0,0
	l0,0l0,0l0,0l0,0l0,0l-1.8-0.2c-3.5-0.7-6.6-3.5-7.5-7.5l-0.2-1.8l0,0h-20.3l0,0v37.1l0,0h14.4V491H-600z"/>
<path fill="#CCCCCC" d="M-646.2,465.4l-1.8,0.2l0,0l0,0v-9.5l0,0h-1.3v34.7l0,0v2.2h19.9v-2.2l0,0l0,0l0,0h4.6l0,0l0,0l0,0v2.2h0.7
	l0,0h8.8l0,0h0.2v-37.1h-23.6l0,0l-0.2,1.8C-639.6,461.9-642.7,464.8-646.2,465.4z"/>
<path fill="#CCCCCC" d="M-629.4,396.3L-629.4,396.3V394h-23.9v47.3h5.1l0,0l0.2-1.8c0.7-3.3,4-7.1,7.5-7.5l1.8-0.2l0,0l0,0l0,0l0,0
	l0,0l0,0l0,0l0,0l0,0l0,0v9.5h10.6v-44.9h-1.3V396.3L-629.4,396.3L-629.4,396.3z"/>
<path fill="#CCCCCC" d="M-625,394v2.2h-3.1v44.6h17.5l0,0l0.2-1.8l0.7-1.8l0.9-1.3l1.1-1.3l1.3-1.1l1.3-0.9l1.8-0.7l1.8-0.2l0,0l0,0
	l0,0l0,0l0,0l0,0l0,0l0,0l0,0l0,0v9.5h0.2v-9.9l0,0l0,0h0.2l0,0h-0.2l0,0l0,0h0.2l0,0l0,0l0,0l0,0l0,0h0.2V427l0,0h0.2v-5.1h-0.7
	v-28.1l0,0l0,0l0,0l0,0h0.2v-2.2h-0.2l0,0h-8.8v0.7l0,0h-0.2l0,0h-8.8l0,0h-0.2v1.3h-5.5V394z"/>
<path fill="#CCCCCC" d="M-535.5,396.3L-535.5,396.3V394h-30.9v2.2h-3.5v0.7h-0.7l0,0l0,0v-0.7h-0.7l0,0l0,0l0,0l0,0V394h-24.1v2.2
	h-3.5v25.6l0,0l0,0l0,0h-0.7v4.4h0.2l0,0v4.4h0.2l0,0h0.2l0,0l0,0l0,0l0,0l0,0l0,0v9.9l0,0h17.7l0,0l0.2-1.8
	c0.7-3.5,3.5-6.6,7.5-7.5l1.8-0.2l0,0l0,0l0,0l0,0l0,0l0,0l0,0l0,0l0,0l0,0v2l6.2-2.7l-8.6-3.5l8.6-3.5l-3.5-1.3l0.2-0.7l0,0l0,0
	l4.6,1.8l-4.6-1.8l0,0l4.6,1.8l-4.6-1.8l-0.2,0.7l3.5,1.3l-8.6,3.5l8.6,3.5l-6.2,2.7v0.7l7.7-3.1l-8.6-3.5l8.6-3.5l-8.6,3.5l8.6,3.5
	l-7.7,3.1l0,0l7.7-3.1l-8.6-3.5l8.6-3.5l-8.6,3.5l8.6,3.5l-7.7,3.1v0.7l7.7,3.1l-4.6,1.8v0.7h10.6l0,0v-9.5l0,0l0,0l1.8,0.2
	c3.5,0.7,6.6,3.5,7.5,7.5l0.2,1.8h2.2v-10.4l0,0l0,0l0,0h14.8v-34.5L-535.5,396.3L-535.5,396.3L-535.5,396.3L-535.5,396.3z"/>
<path opacity="0.25" fill="#CCCCCC" enable-background="new    " d="M-739.3,539L-739.3,539L-739.3,539L-739.3,539v-42.2h-23.6l0,0
	l0,0l0,0v-3.3H-800v3.3h-23.6v49.1h4.6l0,0l0,0v7.1h-4.6v27.4h4.6l0,0l0,0v7.1l0,0h-4.6v18.8h84.2v-11h296.3v-7.5h-7.1l0,0v-7.1h7.1
	v-27.6h-7.1l0,0l0,0v-7.1l0,0h7.1v-7.5L-739.3,539L-739.3,539z M-736.8,587.8L-736.8,587.8h-7.1l0,0v-7.1h7.1l0,0l0,0V587.8z
	 M-619.5,587.8L-619.5,587.8h-7.1l0,0v-7.1h7.1l0,0l0,0V587.8z M-508.6,546.1L-508.6,546.1h7.1l0,0v7.1h-7.1l0,0l0,0V546.1z
	 M-508.6,580.5h7.1l0,0l0,0v7.1l0,0h-7.1l0,0V580.5z M-567.8,546.1L-567.8,546.1h7.1l0,0v7.1h-7.1l0,0l0,0V546.1z M-567.8,580.5h7.1
	l0,0l0,0v7.1l0,0h-7.1l0,0V580.5z M-685.3,546.1L-685.3,546.1h7.1l0,0v7.1h-7.1l0,0l0,0V546.1z M-685.3,580.5h7.1l0,0l0,0v7.1l0,0
	h-7.1l0,0V580.5z M-736.8,546.1L-736.8,546.1v7.1h-7.1l0,0l0,0v-7.1l0,0H-736.8z"/>
<path fill="#CCCCCC" d="M-739.3,117L-739.3,117L-739.3,117V83.4h-28.5h28.5l0,0h-28.5h28.5l0,0h-28.5v42.2h29.2h-29.2l0,0l0,0h29.2
	L-739.3,117L-739.3,117L-739.3,117z"/>
<path fill="#CCCCCC" d="M-874.3-275.5L-874.3-275.5L-874.3-275.5h-8l0,0H-874.3L-874.3-275.5L-874.3-275.5L-874.3-275.5
	L-874.3-275.5L-874.3-275.5L-874.3-275.5v0.7h9.5v-0.7v0.7l0,0v-0.7v0.7l0,0l0,0l0,0v-0.7h4.4v-12.4h0.7l0,0h-0.7v12.4l0,0h-4.4l0,0
	l0,0h4.4v-12.4l0,0h0.7l0,0l0,0l0,0v12.4h29.4v-4.4v4.4l0,0v-4.4l0,0l0,0l0,0l0,0v-39.3l0,0v39.1v-39.1l0,0v39.1v-39.1h-8.6l0,0l0,0
	l0,0l0,0l0,0l0,0l0,0v-0.7l0,0l0,0l0,0h8.6l0,0v-33.6h-52.4v78.2L-874.3-275.5L-874.3-275.5z M-838.9-319.9v0.7V-319.9z"/>
<path fill="#CCCCCC" d="M-961.1,136.2h34.5v-24.1l0,0l0,0h0.7V103h-0.7l0,0l0,0v-0.4h-34.5v4.4l0,0V136.2z"/>
<path fill="#CCCCCC" d="M-883.1,126v-7.7l0,0h-10.6l0,0v-0.7l0,0l0,0h4v-15l0,0h4.4V85.2h-19.4h-0.9h-4.4l0,0v-0.7h-9.5v0.7l0,0
	h-4.9l0,0v-0.7h-9.5v0.7l0,0h-1.1l0,0h-26.3v15.5h19.9h14.4l0,0l0,0h0.7l0,0l0,0v1.3l0,0l0,0h-0.2v9.1h0.2l0,0l0,0l0,0l0,0v24.1
	l0.9,0.2l0,0l0,0l0,0v24.7l0,0h-0.2v9.5h0.2l0,0l0,0v28.5l0,0l0,0h-0.2v9.5h0.2l0,0l0,0v18.3l0,0h-0.2v9.5h0.2l0,0v13h42.2v-30.3
	h-9.5l0.2-1.8c0.7-3.5,3.5-6.6,7.5-7.5l1.8-0.2l0,0v-12.4h-0.2l0,0l0,0l0,0v-26.7l0,0v26.7v-26.7h-4.6l0,0v-5.7l0,0h4.4V149
	l-1.8-0.2c-3.5-0.9-6.6-3.5-7.5-7.5l-0.2-1.8l0.2,1.8c0.7,3.5,3.5,6.6,7.5,7.5l1.8,0.2v14.8l0,0V149l0,0l0,0l0,0h0.7v-9.5h-0.7h-9.5
	h9.5v-4.6h-9.5l0.2-1.8c0.7-3.5,3.5-6.6,7.5-7.5L-883.1,126v-7.7V126l-1.8,0.2c-3.5,0.9-6.6,3.5-7.5,7.5l-0.2,1.8h9.5v4.6h0.7l0,0
	l0,0h-0.7v-4.6l0,0l0,0l0,0h0.7V126H-883.1h0.7l0,0l0,0l0,0H-883.1L-883.1,126z"/>
<path fill="#CCCCCC" d="M-717.6,394.3h-35.8v3.1v44h26.3v1.3h8.8l0,0v-1.3l0,0l0,0h8.8v-34.7l-1.8-0.2c-4-0.9-6.4-3.3-7.5-7.5
	l-0.2-1.8l0,0h9.5v-0.7h-8l0,0l0,0l0,0L-717.6,394.3L-717.6,394.3z"/>
<text transform="matrix(1 0 0 1 -876.8931 -308.9177)" fill="#FFFFFF" font-family="'TradeGothic-CondEighteen'" font-size="17.9924">1365</text>
<text transform="matrix(1 0 0 1 -680.3149 -308.9177)" fill="#FFFFFF" font-family="'TradeGothic-CondEighteen'" font-size="17.9924">1362</text>
<g>
	
		<text transform="matrix(1 0 0 1 -662.9673 -241.7497)" fill="#FFFFFF" font-family="'TradeGothic-BoldCondTwenty'" font-size="26.9882">1358</text>
</g>
<g>
	
		<text transform="matrix(1 0 0 1 -662.9673 -150.1052)" fill="#FFFFFF" font-family="'TradeGothic-BoldCondTwenty'" font-size="26.9882">1340</text>
</g>
<g>
	
		<text transform="matrix(1 0 0 1 -977.3149 452.8987)" fill="#FFFFFF" font-family="'TradeGothic-BoldCondTwenty'" font-size="26.9882">1102</text>
</g>
<text transform="matrix(1 0 0 1 -656.9634 29.6292)" fill="#FFFFFF" font-family="'TradeGothic-CondEighteen'" font-size="17.9924">1224</text>
<text transform="matrix(1 0 0 1 -755.1118 29.6292)" fill="#FFFFFF" font-family="'TradeGothic-CondEighteen'" font-size="17.9924">1228</text>
<text transform="matrix(1 0 0 1 -918.0728 19.7308)" fill="#FFFFFF" font-family="'TradeGothic-CondEighteen'" font-size="17.9924">1223</text>
<text transform="matrix(1 0 0 1 -918.0728 69.1839)" fill="#FFFFFF" font-family="'TradeGothic-CondEighteen'" font-size="17.9924">1219</text>
<text transform="matrix(1 0 0 1 -842.9321 69.1839)" fill="#FFFFFF" font-family="'TradeGothic-CondEighteen'" font-size="17.9924">1215</text>
<text transform="matrix(1 0 0 1 -842.9321 150.6956)" fill="#FFFFFF" font-family="'TradeGothic-CondEighteen'" font-size="17.9924">1209</text>
<text transform="matrix(1 0 0 1 -874.4438 227.93)" fill="#FFFFFF" font-family="'TradeGothic-CondEighteen'" font-size="17.9924">1207</text>
<text transform="matrix(1 0 0 1 -755.1118 68.3401)" fill="#FFFFFF" font-family="'TradeGothic-CondEighteen'" font-size="17.9924">1222</text>
<text transform="matrix(1 0 0 1 -654.186 122.2112)" fill="#FFFFFF" font-family="'TradeGothic-CondEighteen'" font-size="17.9924">1212</text>
<text transform="matrix(1 0 0 1 -936.5923 -308.9177)" fill="#FFFFFF" font-family="'TradeGothic-CondEighteen'" font-size="17.9924">1361</text>
<text transform="matrix(1 0 0 1 -936.5923 -249.9958)" fill="#FFFFFF" font-family="'TradeGothic-CondEighteen'" font-size="17.9924">1359</text>
<text transform="matrix(1 0 0 1 -936.5923 -193.0036)" fill="#FFFFFF" font-family="'TradeGothic-CondEighteen'" font-size="17.9924">1357</text>
<text transform="matrix(1 0 0 1 -936.5923 -117.3122)" fill="#FFFFFF" font-family="'TradeGothic-CondEighteen'" font-size="17.9924">1339</text>
<text transform="matrix(1 0 0 1 -830.8735 -134.2028)" fill="#FFFFFF" font-family="'TradeGothic-CondEighteen'" font-size="17.9924">1343</text>
<text transform="matrix(1 0 0 1 -816.7837 -208.6559)" fill="#FFFFFF" font-family="'TradeGothic-CondEighteen'" font-size="17.9924">1353</text>
<g>
	<g>
		<path fill="#989798" d="M296.6-374.9V-51h-49.7v72.7h49.7v323.9H99.5V345H96v0.7V385h11v86.4h-1.8l-9.5,34.2v5.7H379v53.5v0.2h13
			h3.5v18.3v58.8h-2.7h-31.2v-3.3h-564.3v3.5h-31.2h-3.1v-58.8v-18.1h16.1V512H62.6v-5.7l-9.5-34.5h-1.3V385l11-39.1v-0.7h-3.5v0.7
			h-197.1V22h49.7v-72.7h-49.7v-323.9h162v18.1v1.3v71.4h3.1h27.8V-340H103v35.4v21.2h27.8h3.1v-72v-1.3v-18.1L296.6-374.9
			 M-9.4,40.3h177.2V-70.2H-9.4V40.3 M95.5,501.7l8.4-30.9h-8.4V501.7 M62.8,501.7v-30.9h-8.4L62.8,501.7 M311.6-389.9h-14.8H134.6
			h-14.8v14.8v18.1v1.3v56.6h-0.7v-6.4v-34.7v-15h-14.8H56H41.2v14.8v42h-0.7v-56.8v-1.3v-18.3v-14.8H25.7h-162.6h-14.8v14.8V-51
			v14.8h14.8h34.5V7.2h-34.5h-14.8V22v323.7v14.8h14.8H43.8l-5.7,19.9l-0.7,1.8v2v86.2v14.8h5.1l2.7,9.7h-265.8h-14.8v14.8v38.7
			h-1.3h-14.8v14.8v18.3v58.8V655h14.8h3.1h30.9h14.8v-3.5h533.8v3.5h14.8h31.2h2.7h14.8v-14.8v-58.8v-18.6v-14.8h-14.8h-1.1v-38.2
			V495h-15H113.4l2.7-9.7h5.1v-14.8v-86v-14.8h-11.3v-9.1h185.4h14.8v-14.8V22.2V7.4h-14.8h-34.5v-43.1h34.5h14.8v-14.8v-324.4
			L311.6-389.9L311.6-389.9z M5.8-54.7h146.9v80.2H5.8V-54.7L5.8-54.7z"/>
	</g>
</g>
<path fill="#CCCCCC" d="M-92.3,562l0.2-1.8l0.7-1.8l0.7-1.3l0.9-1.3l1.3-1.3l1.3-0.9l1.3-0.7l1.8-0.7l1.8-0.2v10.8h3.5v-47.7h-34.5
	v47.7L-92.3,562L-92.3,562z"/>
<path fill="#496CB4" d="M205.3-283.4v5.3h-4.4v3.3H200v10.8h0.9v3.1h93v-110.9h-93v88.8L205.3-283.4L205.3-283.4z"/>
<path fill="#496CB4" d="M200.7-248.3H200v10.8h0.9v19.9h4.4v5.7h-4.4v45.7h93v-93.5h-93v11L200.7-248.3L200.7-248.3z"/>
<path fill="#CCCCCC" d="M-127.4,562l0.2-1.8l0.7-1.8l0.7-1.3l0.9-1.3l1.3-1.3l1.3-0.9l1.3-0.7l1.8-0.7l1.8-0.2v10.8h3.5v-47.7h-34.2
	v47.7L-127.4,562L-127.4,562z"/>
<path fill="#CCCCCC" d="M-194.8,562h0.7l0.2-1.8l0.7-1.8l0.7-1.3l0.9-1.3l1.3-1.3l1.3-0.9l1.3-0.7l1.8-0.7l1.8-0.2v10.8h0.7v-47.7
	h-32.9v47.3L-194.8,562L-194.8,562L-194.8,562z"/>
<path fill="#CCCCCC" d="M-162.1,562l0.2-1.8l0.7-1.8l0.7-1.3l0.9-1.3l1.3-1.3l1.3-0.9l1.3-0.7l1.8-0.7l1.8-0.2v10.8h3.5v-47.7h-34.2
	v47.7L-162.1,562L-162.1,562z"/>
<path fill="#CCCCCC" d="M-134,587.2V598l-1.8-0.2l-1.8-0.7l-1.3-0.7l-1.3-1.1l-1.3-1.3l-0.9-1.3l-0.7-1.8l-0.7-1.8l-0.2-1.8h-19.2
	v47.3h33.8v-47.5h-4.4l0,0L-134,587.2L-134,587.2z"/>
<path fill="#CCCCCC" d="M136.8-279h20.5v0.9h11v-0.9h30.5v-4.4v-88.8h-61.4v17v71.4L136.8-279L136.8-279z"/>
<path fill="#496CB4" d="M200.7-163.9H200v10.8h0.9v1.3h4.4v5.3h-4.4v51H200v11h0.9v11.5h4v19.2h42.4h46.6v-110.9h-93L200.7-163.9
	L200.7-163.9z"/>
<path fill="#CCCCCC" d="M-99.1,587.2V598l-1.8-0.2l-1.8-0.7l-1.3-0.7l-1.3-1.1l-1.3-1.3l-0.9-1.3l-0.7-1.8l-0.7-1.8l-0.2-1.8h-19.4
	v47.3h34.5v-47.5L-99.1,587.2L-99.1,587.2L-99.1,587.2z"/>
<path fill="#CCCCCC" d="M151.6,562l0.2-1.8l0.7-1.8l0.7-1.3l0.9-1.3l1.3-1.3l1.3-0.9l1.8-0.7l1.8-0.7l1.8-0.2v10.8h3.5v-47.7h-34.2
	v47.7L151.6,562L151.6,562z"/>
<path fill="#CCCCCC" d="M116.7,562l0.2-1.8l0.7-1.8l0.7-1.3l0.9-1.3l1.3-1.3l1.3-0.9l1.3-0.7l1.8-0.7l1.8-0.2v10.8h4v-47.7H97.3
	v13.3v34.5L116.7,562L116.7,562z"/>
<path fill="#CCCCCC" d="M223.9,179.9L223.9,179.9 M223.9,179.7L223.9,179.7"/>
<path fill="#CCCCCC" d="M221.7,562l0.2-1.8l0.7-1.8l0.7-1.3l1.1-1.3l1.3-1.3l1.3-0.9l1.8-0.7l1.8-0.7l1.8-0.2v10.8h3.5v-47.7h-34.2
	v47.7L221.7,562L221.7,562z"/>
<path fill="#CCCCCC" d="M253.5,191.4h-2l-0.2,1.8l-0.9,1.8l-0.7,1.3l-0.9,1.3l-1.3,1.3l-1.3,0.9l-1.3,0.7l-1.8,0.7l-1.8,0.2v-10.8
	h-1.8v15h-38v1.8h11l-0.2,1.8l-0.7,1.8l-0.7,1.8l-0.9,1.3l-1.3,1.3l-1.3,1.1l-1.3,0.7l-1.8,0.7l-1.8,0.2v13.9h91.3v-43.3h-40.7
	L253.5,191.4L253.5,191.4z"/>
<path fill="#CCCCCC" d="M200.5,243.4h4.6v5.7h-4.6v3.3h11l-0.2,1.8l-0.7,1.8l-0.7,1.3l-0.9,1.3l-1.3,1.3l-1.3,0.9l-1.3,0.7l-1.8,0.7
	l-1.8,0.2v18.3h-0.7v8h-0.7v10.8h0.7v42.6h93.2V233.9h-93L200.5,243.4L200.5,243.4z"/>
<path fill="#CCCCCC" d="M-58,562l0.2-1.8l0.7-1.8l0.7-1.3l0.9-1.3l1.3-1.3l1.3-0.9l1.3-0.7l1.8-0.7l1.8-0.2v10.8h3.3v-47.7h-33.6
	v47.7L-58,562L-58,562z"/>
<path fill="#CCCCCC" d="M197.2,299.9l-1.8-0.7l-1.3-0.7l-1.3-0.9l-1.3-1.3l-0.9-1.3l-0.7-1.3l-0.7-1.8l-0.2-1.8h10.8v-8h-23
	l-0.2,1.8l-0.7,1.8l-0.7,1.3l-0.9,1.3l-1.3,1.3l-1.3,0.9l-1.3,0.7l-2.4,0.9l-1.8,0.2v-10.8h-28.7v4.4v56.1v0.2h62.1v-42.6h-2.2
	L197.2,299.9L197.2,299.9z"/>
<path fill="#CCCCCC" d="M186.6,562l0.2-1.8l0.7-1.8l0.7-1.3l0.9-1.3l1.3-1.3l1.3-0.9l1.3-0.7l1.8-0.7l1.8-0.2v10.8h3.5v-47.7h-34.2
	v47.7L186.6,562L186.6,562z"/>
<path fill="#CCCCCC" d="M-9.9,548.1l1.8,0.7l1.8,0.7l1.3,1.1l1.3,1.3l1.1,1.3l0.7,1.8l0.7,1.8l0.2,1.8h-10.8v1.1h32.5v-46.2h-32.5
	v33.8L-9.9,548.1z"/>
<path fill="#CCCCCC" d="M-24.7,541.6l0.2-1.8l0.7-1.3l0.9-1.3l0.9-1.3l1.3-0.9l1.3-0.9l1.3-0.7l1.8-0.2v9.1h1.8v-27.4H-43v27.6h18.1
	v-0.4h0.2C-24.7,542.1-24.7,541.6-24.7,541.6z"/>
<path fill="#CCCCCC" d="M215.7,124.3l-1.3,0.7l-1.8,0.7l-1.8,0.2V115h-5.3v1.8h-4.6v30.5l1.8,0.2l1.8,0.7l1.3,0.7l1.3,0.9l1.3,1.3
	l0.9,1.3l0.7,1.3l0.7,1.8l0.2,1.8h-11v0.7h36v-44.2H221l-0.2,1.8l-0.7,1.8l-0.7,1.3l-0.9,1.3"/>
<path fill="#CCCCCC" d="M33,538.1L33,538.1l-0.2,0.7v0.7l0.2,0.2l0.2,0.2v0.7l-0.2,0.2h-0.2v8.8h14.1l0.2-1.8l0.7-1.8l0.7-1.3
	l0.9-1.3l1.3-1.3l1.3-0.9l1.3-0.7l1.8-0.7l1.8-0.2v10.8h2.2v-21.7v-13.3H31.9L33,538.1L33,538.1z"/>
<path fill="#CCCCCC" d="M132.2-158.3l0.7-1.8l0.7-1.8l0.9-1.3l1.3-1.3l1.3-1.1l1.3-0.7l1.8-0.7l1.8-0.2V-193H86.5v34.9h4v3.3h51.3
	v-0.9h-10.8L132.2-158.3L132.2-158.3z"/>
<path fill="#CCCCCC" d="M144.6-196.3v21.2h15v-11.5h8v-13.3h0.7v-10.8h-0.4v-0.7h-1.1v-13.3h-21.9v21.2"/>
<path fill="#CCCCCC" d="M168-241v-0.7h-4.4v-4.4h-18.3v2.2h-0.9v10.8h0.9v6.2h23v-3.1"/>
<path fill="#CCCCCC" d="M361.6,567.1h11l-0.2,1.8l-0.7,1.8l-0.7,1.3l-0.9,1.3l-1.3,1.3l-1.3,0.9l-1.8,0.7l-1.8,0.7l-1.8,0.2v8.8h0.7
	h7.1h0.2h7.1v0.2h1.3h7.1h0.2h7.1V564h-12.8H362v2.2v0.7L361.6,567.1L361.6,567.1z"/>
<path fill="#CCCCCC" d="M143.3-206.1v-26.7l-1.8-0.2l-1.8-0.7l-1.3-0.7l-1.3-0.9l-1.3-1.3l-0.9-1.3l-0.7-1.3l-0.7-1.8l-0.2-1.8h11
	v-1.8H92.2v3.3l0,0h-4v35.6h55L143.3-206.1L143.3-206.1z"/>
<path fill="#CCCCCC" d="M-168.7,587.2V598l-1.8-0.2l-1.8-0.7l-1.8-0.7l-1.3-1.1l-1.3-1.3l-0.9-1.3l-0.7-1.8l-0.7-1.8l-0.2-1.8h-0.7
	v1.3h-18.3v46h33.6v-47.3L-168.7,587.2L-168.7,587.2z"/>
<path fill="#CCCCCC" d="M-78.6,86.9h0.9v-11h-0.9v-23h0.9v-11h-0.9v-17h-9.7h-46.4v63L-78.6,86.9L-78.6,86.9L-78.6,86.9z"/>
<path fill="#CCCCCC" d="M-78.6,168h0.9v-10.8h-0.9V157h-56.1v32.7h56.1V168z"/>
<path fill="#CCCCCC" d="M-78.6,201.4h0.9v-10.8h-0.9v-0.2h-56.1v29.4h56.1V201.4z"/>
<path fill="#CCCCCC" d="M-78.6,134.2h0.9v-11h-0.9v-0.7h-56.1v33.4h56.1V134.2z"/>
<path fill="#CCCCCC" d="M-78.6,120.9h0.9v-10.8h-0.9V88.5h-56.1v33.4h56.1V120.9z"/>
<path fill="#CCCCCC" d="M214.6,587.2V598l-1.8-0.2l-1.8-0.7l-1.3-0.7l-1.3-1.1l-1.3-1.3l-0.9-1.3l-0.7-1.8l-0.7-1.8l-0.2-1.8h-19.2
	v47.3h34.2v-47.5L214.6,587.2L214.6,587.2L214.6,587.2z"/>
<path opacity="0.5" fill="#CCCCCC" enable-background="new    " d="M-41.7,22.8h0.7v18.8h4v-11l1.8,0.2l1.8,0.7l1.3,0.7l1.3,0.9
	l1.3,1.3l1.1,1.3l0.7,1.3l0.7,1.8l0.2,1.8l0.2-1.8L-26,37l0.7-1.3l0.9-1.3l1.3-1.3l1.3-0.9l1.8-0.7l1.8-0.7l1.8-0.2v11h4.4v-1.1h1.1
	v-110h-1.1v-0.7h-4.4v11l-1.3-0.2l-1.8-0.7l-1.8-0.7l-1.3-0.9l-1.3-1.3l-0.9-1.3l-0.7-1.8l-0.7-1.8l-0.2-1.8l-0.2,1.8l-0.7,1.8
	l-0.7,1.8l-1.1,1.3l-1.3,1.3l-1.3,0.9l-1.3,0.7l-1.8,0.7l-1.8,0.2v-11h-4v18.8h-0.7v0.7h-46.4V22h46.4L-41.7,22.8L-41.7,22.8z
	 M-11.4-69.1h0.9V40.5h-0.9V-69.1z M-85.7,22h-0.9v-72.5h0.9V22L-85.7,22z"/>
<path fill="#CCCCCC" d="M144.6,587.2V598l-1.8-0.2l-1.8-0.7l-1.3-0.7l-1.3-1.1l-1.3-1.3l-1.1-1.8l-0.7-1.8l-0.7-1.8l-0.2-1.8h-19.2
	v47.7h34.5v-47.5L144.6,587.2L144.6,587.2z"/>
<path opacity="0.5" fill="#CCCCCC" enable-background="new    " d="M200.5-51.4H200v-18.8h-4v11l-1.8-0.2l-1.8-0.7l-1.3-0.7
	l-1.3-0.9l-1.3-1.3l-0.9-1.3L187-66l-0.7-1.8l-0.7-2.2l-0.2,1.8l-0.7,1.8l-0.7,1.8l-0.9,1.3l-1.3,1.3l-1.3,0.9l-1.3,0.7l-1.8,0.7
	l-1.8,0.2v-11h-4.6v0.7H170V40.5h1.1v0.7h4.6v-11l1.8,0.2l1.8,0.7l1.3,0.7l1.3,0.9l1.3,1.3l0.9,1.3l0.7,1.3l0.7,1.8l0.2,1.8l0.2-1.8
	l0.7-1.8l0.7-1.3l0.9-1.3l1.3-1.3l1.3-0.9l1.3-0.7l1.8-0.7l1.8-0.2v11h4V22.8v-0.7h0.7h47.3v-72.7h-46.8L200.5-51.4L200.5-51.4
	L200.5-51.4z M170.2,40.3h-0.9V-69.1h0.9V40.3z M244.7-50.5h0.9V22h-0.9V-50.5z"/>
<path fill="#CCCCCC" d="M-77.7,265.2v-10.8h-0.9v-0.7h-56.1v88.8h56.1v-77.8L-77.7,265.2L-77.7,265.2z"/>
<path fill="#CCCCCC" d="M75.4,587.2V598l-1.8-0.2l-1.8-0.7l-1.3-0.7l-1.3-1.1l-1.3-1.3l-0.9-1.3l-0.7-1.8l-0.7-1.8l-0.2-1.3H46v47.7
	h33.8v-47.7h-4.6v-0.2h0.2V587.2z"/>
<path fill="#CCCCCC" d="M-44.3,280.9v-0.7h-11v0.7h-21.4v62.5h32.7L-44.3,280.9L-44.3,280.9z"/>
<path fill="#CCCCCC" d="M-78.6,251.8h0.9v-10.8h-0.9v-20.8h-56.1v32.3h56.1V251.8z"/>
<path fill="#CCCCCC" d="M3.2,286.9v-6.2h-32.5v-0.2h-11.3v0.7h-0.7v62.5h62.8V343v-55.9H2.9L3.2,286.9L3.2,286.9L3.2,286.9z"/>
<path fill="#CCCCCC" d="M110.3,587.2V598l-1.8-0.2l-1.8-0.7l-1.8-0.7l-1.3-1.1l-1.3-1.3l-1.1-1.3l-0.7-1.8l-0.7-1.8l-0.2-1.8H80.5
	v47.3h34.2v-47.5h-4.2l0,0L110.3,587.2L110.3,587.2z"/>
<path fill="#CCCCCC" d="M179.7,587.2V598l-1.8-0.2l-1.8-0.7l-1.3-0.7l-1.3-1.1l-1.3-1.3l-0.9-1.3l-0.7-1.8l-0.7-1.8l-0.2-1.8h-19.2
	v47.3h34.2v-47.5L179.7,587.2L179.7,587.2L179.7,587.2z"/>
<path fill="#CCCCCC" d="M-9.4,65.7V79H4.3l0.2-1.8l0.7-1.8l0.7-1.8l0.9-1.3L8,71l1.3-1.1l1.3-0.7l1.8-0.7l1.8-0.2v11h11V51.6h-6.6
	v-8H-11v11.5h-0.7v10.8L-9.4,65.7L-9.4,65.7z"/>
<path fill="#CCCCCC" d="M4.3,79.6H-9.6v-5.3h-35.6v75.3h-0.9v10.8h0.9v0.7h4.4h105V155h5.1v6.2h24.3V77.6H64.2v1.8h-2.7v-0.2h-11
	v0.2H15.1v-0.2h-11L4.3,79.6L4.3,79.6z"/>
<path fill="#CCCCCC" d="M167.8,75.2V44.3h-4.4v-1.1H109v19.2h10.8l-0.2,1.8l-0.7,1.5l-0.7,1.8l-0.9,1.3l-1.1,1.3L115,71l-1.3,0.7
	l-1.8,0.7l-1.8,0.2v3.3H96.4v18.8h72.5v-8.8h0.7v-11L167.8,75.2L167.8,75.2z"/>
<path fill="#CCCCCC" d="M284.7,587.2V598l-1.8-0.2l-1.8-0.7l-1.3-0.7l-1.3-1.1l-1.3-1.3l-0.9-1.3l-0.7-1.8l-0.7-1.8l-0.2-1.8h-19.9
	v47.3h34.2v-47.5L284.7,587.2L284.7,587.2L284.7,587.2z"/>
<path fill="#CCCCCC" d="M249.8,587.2V598l-1.8-0.2l-1.8-0.7l-1.3-0.7l-1.3-1.1l-1.3-1.3l-0.9-1.3l-0.7-1.8l-0.7-1.8l-0.2-1.8h-19.4
	v47.3h33.8v-47.5L249.8,587.2L249.8,587.2L249.8,587.2z"/>
<path fill="#CCCCCC" d="M51.8,75.2l0.7-1.8l0.9-1.3l1.3-1.3l1.3-1.1l1.8-0.7l1.8-0.7l1.8-0.2v11H63V43.8H20v7.7h6.6v28.5h23.6
	l0.2-1.8L51.8,75.2z"/>
<path fill="#CCCCCC" d="M291.5,562l0.2-1.8l0.7-1.8l0.7-1.3l0.9-1.3l1.3-1.3l1.3-0.9l1.3-0.7l1.8-0.7l1.8-0.2v10.8h3.5v-47.7h-34.2
	v47.7L291.5,562L291.5,562z"/>
<path fill="#CCCCCC" d="M336.1,588.9v-1.8h-0.7l-0.2,1.8l-0.7,1.8l-0.9,2l-0.9,1.3l-1.3,1.3l-1.3,1.1l-1.8,0.7l-1.8,0.7l-1.8,0.2
	v-11h-0.7v47.7h33.6h0.2v-45.3h-21v-0.2L336.1,588.9L336.1,588.9z"/>
<path fill="#CCCCCC" d="M102.8,150.6l1.8,0.7l1.3,0.7l1.3,0.9l1.3,1.3l0.9,1.3l0.7,1.3l0.7,1.8l0.2,1.8h50.8v-6.2h4.6v-0.7h0.7
	v-10.8h-0.7V94.9H94v65.2h5.7v-10.8L102.8,150.6z"/>
<path fill="#496CB4" d="M115.9,248h47.5v-4.4h4.4v-67.4h0.7v-11.3H168v-1.3h-4.6h-47.3L115.9,248L115.9,248z"/>
<path fill="#CCCCCC" d="M256.4,562l0.2-1.8l0.7-1.8l0.7-1.3l0.9-1.3l1.3-1.3l1.3-0.9l1.8-0.7l1.8-0.7l1.8-0.2v10.8h3.5v-47.7h-33.8
	v47.7L256.4,562L256.4,562z"/>
<path fill="#CCCCCC" d="M238.3,176.8h-0.7v11h0.7v2.2h1.8v0.2h11v-0.2h1.3v-1.8h41.1v-74.2H238L238.3,176.8L238.3,176.8z"/>
<path fill="#CCCCCC" d="M204.5,101.1l1.3,0.7l1.3,0.9l1.3,1.3l0.9,1.3l0.7,1.3l0.7,1.8l0.2,1.8H200v0.2h4.4v1.3h5.1v0.9h10.8v-0.9
	h72.5V23.1H246h-42.2v19.2h-4.4v56.8l1.8,0.2L204.5,101.1z"/>
<path fill="#CCCCCC" d="M-64,587.2V598l-1.8-0.2l-1.8-0.7l-1.8-0.7l-1.3-1.1L-72,594l-1.1-1.8l-0.7-1.8l-0.7-1.8l-0.2-1.8h-19.2
	v47.7h34.2v-47.5L-64,587.2L-64,587.2z"/>
<path fill="#CCCCCC" d="M-44.3,175.3v68.1h3.5v4.6h2.7v0.9h11V248h74.7v0.9h10.8V248h0.7v-85.3h-99.7v12.4L-44.3,175.3L-44.3,175.3z
	"/>
<path fill="#CCCCCC" d="M-30,587.2V598l-1.8-0.2l-1.8-0.7l-1.3-0.7l-1.3-1.1l-1.3-1.3l-0.9-1.3l-0.7-1.8l-0.7-1.8l-0.2-1.8h-19.7
	v47.3H-26v-47.5h-4.2l0,0L-30,587.2L-30,587.2z"/>
<path fill="#CCCCCC" d="M319.4,587.2V598l-1.8-0.2l-1.8-0.7l-1.3-0.7l-1.3-1.1l-1.3-1.3l-0.9-1.3l-0.7-1.8l-0.7-1.8l-0.2-1.8h-19.7
	v47.3H324v-47.5L319.4,587.2L319.4,587.2L319.4,587.2z"/>
<path fill="#CCCCCC" d="M342.1,562v-10.8l1.8,0.2l1.8,0.7l1.3,0.7l1.3,0.9l1.3,1.3l1.1,1.3l0.7,1.3l0.7,1.8l0.2,1.8h0.7v-0.7h21.4
	v-47.3H341v47.7L342.1,562L342.1,562z"/>
<path fill="#CCCCCC" d="M60.4,162.7v80.2h2.2H69v4.6h32.9v0.9h10.8v-0.9h0.7v-85.1h-1.8v-0.7h-11v0.7H69.2h-5.1h-3.8V162.7z"/>
<path fill="#CCCCCC" d="M326.2,562l0.2-1.8l0.7-1.8l0.7-1.3l1.1-1.3l1.3-1.3l1.3-0.9l1.8-0.7l1.8-0.7l1.8-0.2v10.8h3.5v-47.7h-34.2
	v47.7L326.2,562L326.2,562z"/>
<polygon fill="#CCCCCC" points="131.8,286 131.8,286.2 96.9,286.2 96.9,342.6 134.6,342.6 134.6,286 "/>
<path fill="#496CB4" d="M-46.1-279v-4.4h5.1v4.4h14.8v0.9h10.8v-0.9h36.5v-4.6v-71.8V-372h-88.6v92.8L-46.1-279L-46.1-279z"/>
<path fill="#CCCCCC" d="M145.9-85.9L145.9-85.9L145.9-85.9"/>
<polygon fill="#CCCCCC" points="144.6,-90.3 145.2,-90.5 145.2,-93.2 144.6,-92.9 144.6,-92.7 144.6,-92.9 145.2,-93.2 145.2,-106 
	146.3,-106 146.3,-107.1 146.3,-107.7 108.6,-107.7 108.6,-152.4 162.7,-152.4 162.7,-154.1 144.6,-154.1 144.6,-156.4 
	143.7,-156.4 143,-156.4 143,-155 91.3,-155 91.3,-152.4 105.2,-152.4 105.2,-72 108.6,-72 108.6,-104.4 108.6,-104.4 141.7,-104.4 
	141.7,-104.4 141.7,-72 145.2,-72 145.2,-90.3 "/>
<path fill="#496CB4" d="M-46.3-151.3h4.4v-60.5h-4.4v-5.3h4.4v-23.2h0.7v-11h-0.7v-8h-92.8v115.8h88.6L-46.3-151.3L-46.3-151.3z"/>
<path fill="#496CB4" d="M-68.4-263.7h0.7v-11h-0.7V-372h-66.3v110.9h66.3V-263.7z"/>
<path fill="#496CB4" d="M-43-133.6v-8.8h-3.3h-88.6v88.8h46.6H-53v-18.8h9.9v-50.2h1.3v-11H-43L-43-133.6z"/>
<path fill="#496CB4" d="M168-152.2L168-152.2l-4.6-0.2h-54.8v44.6h37.6l0.2-1.8l0.7-1.8l0.7-1.8l0.9-1.3l1.3-1.3l1.3-1.1l1.3-0.7
	l1.8-0.7l1.8-0.2v11h10.8v-33.6h0.7L168-152.2L168-152.2z"/>
<path fill="#496CB4" d="M83.8-158.3v-83.3l0,0v-4.4H-4.8v4.6l0,0h-4.6v71.6h-0.7v11h0.7v0.7h4.6v4.4h88.6V-158.3z"/>
<path fill="#496CB4" d="M91.3-152.4h-7.5H-4.8h-4.6v0.2h-0.7v10.8h0.7v67.8H-5v1.1h90.8v-1.1h4.6v1.1h14.4v-80.2L91.3-152.4
	L91.3-152.4z"/>
<path fill="#CCCCCC" d="M93.5,76.1V43.2"/>
<line fill="none" x1="93.5" y1="42.9" x2="65.3" y2="42.9"/>
<path fill="#CCCCCC" d="M65.3,76.1h28.5"/>
<g>
	<rect x="65.3" y="42.9" fill="#CCCCCC" width="28.5" height="32.9"/>
	<text transform="matrix(1 0 0 1 70.6343 70.6956)" fill="#CCCCCC" font-family="'MyriadPro-Regular'" font-size="34.0142">E</text>
</g>
<path fill="#CCCCCC" d="M-767.1,27.7V-5.2"/>
<rect x="-793.8" y="-3.9" fill="#CCCCCC" width="24.5" height="27.8"/>
<path fill="#CCCCCC" d="M-767.1,169.1v-32.9"/>
<rect x="-757.4" y="-129.8" fill="#CCCCCC" width="24.5" height="29.4"/>
<path fill="#CCCCCC" d="M139.5-71.1V-104"/>
<rect x="-20.3" y="594.2" fill="#496CB4" width="28.5" height="31.4"/>
<rect x="57.7" y="-319.9" opacity="0.6" fill="#496CB4" enable-background="new    " width="21.2" height="2.7"/>
<rect x="57.7" y="-314.8" opacity="0.6" fill="#496CB4" enable-background="new    " width="21.2" height="2.7"/>
<rect x="57.7" y="-310.1" opacity="0.6" fill="#496CB4" enable-background="new    " width="21.2" height="2.7"/>
<rect x="57.7" y="-305.3" opacity="0.6" fill="#496CB4" enable-background="new    " width="21.2" height="2.7"/>
<rect x="57.7" y="-300.6" opacity="0.6" fill="#496CB4" enable-background="new    " width="21.2" height="2.7"/>
<rect x="57.7" y="-295.8" opacity="0.6" fill="#496CB4" enable-background="new    " width="21.2" height="2.7"/>
<rect x="57.7" y="-291.1" opacity="0.6" fill="#496CB4" enable-background="new    " width="21.2" height="2.7"/>
<rect x="57.7" y="-286.5" opacity="0.6" fill="#496CB4" enable-background="new    " width="21.2" height="2.7"/>
<rect x="80.1" y="-319.9" opacity="0.6" fill="#496CB4" enable-background="new    " width="21.2" height="2.7"/>
<rect x="80.1" y="-314.8" opacity="0.6" fill="#496CB4" enable-background="new    " width="21.2" height="2.7"/>
<rect x="80.1" y="-310.1" opacity="0.6" fill="#496CB4" enable-background="new    " width="21.2" height="2.7"/>
<rect x="80.1" y="-305.3" opacity="0.6" fill="#496CB4" enable-background="new    " width="21.2" height="2.7"/>
<rect x="80.1" y="-300.6" opacity="0.6" fill="#496CB4" enable-background="new    " width="21.2" height="2.7"/>
<rect x="80.1" y="-295.8" opacity="0.6" fill="#496CB4" enable-background="new    " width="21.2" height="2.7"/>
<rect x="80.1" y="-291.1" opacity="0.6" fill="#496CB4" enable-background="new    " width="21.2" height="2.7"/>
<rect x="80.1" y="-286.5" opacity="0.6" fill="#496CB4" enable-background="new    " width="21.2" height="2.7"/>
<rect x="25.9" y="291.1" opacity="0.6" fill="#496CB4" enable-background="new    " width="15.9" height="2.7"/>
<rect x="25.9" y="295.5" opacity="0.6" fill="#496CB4" enable-background="new    " width="15.9" height="2.7"/>
<rect x="25.9" y="299.9" opacity="0.6" fill="#496CB4" enable-background="new    " width="15.9" height="2.7"/>
<rect x="25.9" y="305" opacity="0.6" fill="#496CB4" enable-background="new    " width="15.9" height="2.7"/>
<rect x="25.9" y="309.6" opacity="0.6" fill="#496CB4" enable-background="new    " width="15.9" height="2.7"/>
<rect x="25.9" y="314.3" opacity="0.6" fill="#496CB4" enable-background="new    " width="15.9" height="2.7"/>
<rect x="25.9" y="319.1" opacity="0.6" fill="#496CB4" enable-background="new    " width="15.9" height="2.7"/>
<rect x="25.9" y="323.8" opacity="0.6" fill="#496CB4" enable-background="new    " width="15.9" height="2.7"/>
<rect x="42.7" y="291.1" opacity="0.6" fill="#496CB4" enable-background="new    " width="15.9" height="2.7"/>
<rect x="42.7" y="295.5" opacity="0.6" fill="#496CB4" enable-background="new    " width="15.9" height="2.7"/>
<rect x="42.7" y="299.9" opacity="0.6" fill="#496CB4" enable-background="new    " width="15.9" height="2.7"/>
<rect x="42.7" y="305" opacity="0.6" fill="#496CB4" enable-background="new    " width="15.9" height="2.7"/>
<rect x="42.7" y="309.6" opacity="0.6" fill="#496CB4" enable-background="new    " width="15.9" height="2.7"/>
<rect x="42.7" y="314.3" opacity="0.6" fill="#496CB4" enable-background="new    " width="15.9" height="2.7"/>
<rect x="42.7" y="319.1" opacity="0.6" fill="#496CB4" enable-background="new    " width="15.9" height="2.7"/>
<rect x="42.7" y="323.8" opacity="0.6" fill="#496CB4" enable-background="new    " width="15.9" height="2.7"/>
<rect x="361.3" y="589.8" opacity="0.6" fill="#496CB4" enable-background="new    " width="15.9" height="2.7"/>
<rect x="361.3" y="594.7" opacity="0.6" fill="#496CB4" enable-background="new    " width="15.9" height="2.7"/>
<rect x="361.3" y="599.5" opacity="0.6" fill="#496CB4" enable-background="new    " width="15.9" height="2.7"/>
<rect x="361.3" y="603.7" opacity="0.6" fill="#496CB4" enable-background="new    " width="15.9" height="2.7"/>
<rect x="361.3" y="608.6" opacity="0.6" fill="#496CB4" enable-background="new    " width="15.9" height="2.7"/>
<rect x="361.3" y="613.5" opacity="0.6" fill="#496CB4" enable-background="new    " width="15.9" height="2.7"/>
<rect x="361.3" y="618.1" opacity="0.6" fill="#496CB4" enable-background="new    " width="15.9" height="2.7"/>
<rect x="361.3" y="622.7" opacity="0.6" fill="#496CB4" enable-background="new    " width="15.9" height="2.7"/>
<rect x="378.1" y="589.8" opacity="0.6" fill="#496CB4" enable-background="new    " width="15.9" height="2.7"/>
<rect x="378.1" y="594.7" opacity="0.6" fill="#496CB4" enable-background="new    " width="15.9" height="2.7"/>
<rect x="378.1" y="599.5" opacity="0.6" fill="#496CB4" enable-background="new    " width="15.9" height="2.7"/>
<rect x="378.1" y="603.7" opacity="0.6" fill="#496CB4" enable-background="new    " width="15.9" height="2.7"/>
<rect x="378.1" y="608.6" opacity="0.6" fill="#496CB4" enable-background="new    " width="15.9" height="2.7"/>
<rect x="378.1" y="613.5" opacity="0.6" fill="#496CB4" enable-background="new    " width="15.9" height="2.7"/>
<rect x="378.1" y="618.1" opacity="0.6" fill="#496CB4" enable-background="new    " width="15.9" height="2.7"/>
<rect x="378.1" y="622.7" opacity="0.6" fill="#496CB4" enable-background="new    " width="15.9" height="2.7"/>
<rect x="-234.8" y="589.8" opacity="0.6" fill="#496CB4" enable-background="new    " width="15.9" height="2.7"/>
<rect x="-234.8" y="594.7" opacity="0.6" fill="#496CB4" enable-background="new    " width="15.9" height="2.7"/>
<rect x="-234.8" y="599.5" opacity="0.6" fill="#496CB4" enable-background="new    " width="15.9" height="2.7"/>
<rect x="-234.8" y="603.7" opacity="0.6" fill="#496CB4" enable-background="new    " width="15.9" height="2.7"/>
<rect x="-234.8" y="608.6" opacity="0.6" fill="#496CB4" enable-background="new    " width="15.9" height="2.7"/>
<rect x="-234.8" y="613.5" opacity="0.6" fill="#496CB4" enable-background="new    " width="15.9" height="2.7"/>
<rect x="-234.8" y="618.1" opacity="0.6" fill="#496CB4" enable-background="new    " width="15.9" height="2.7"/>
<rect x="-234.8" y="622.7" opacity="0.6" fill="#496CB4" enable-background="new    " width="15.9" height="2.7"/>
<rect x="-217.6" y="589.8" opacity="0.6" fill="#496CB4" enable-background="new    " width="15.9" height="2.7"/>
<rect x="-217.6" y="594.7" opacity="0.6" fill="#496CB4" enable-background="new    " width="15.9" height="2.7"/>
<rect x="-217.6" y="599.5" opacity="0.6" fill="#496CB4" enable-background="new    " width="15.9" height="2.7"/>
<rect x="-217.6" y="603.7" opacity="0.6" fill="#496CB4" enable-background="new    " width="15.9" height="2.7"/>
<rect x="-217.6" y="608.6" opacity="0.6" fill="#496CB4" enable-background="new    " width="15.9" height="2.7"/>
<rect x="-217.6" y="613.5" opacity="0.6" fill="#496CB4" enable-background="new    " width="15.9" height="2.7"/>
<rect x="-217.6" y="618.1" opacity="0.6" fill="#496CB4" enable-background="new    " width="15.9" height="2.7"/>
<rect x="-217.6" y="622.7" opacity="0.6" fill="#496CB4" enable-background="new    " width="15.9" height="2.7"/>
<rect x="-803.1" y="-312.6" opacity="0.6" fill="#496CB4" enable-background="new    " width="21.2" height="2.7"/>
<rect x="-803.1" y="-307.9" opacity="0.6" fill="#496CB4" enable-background="new    " width="21.2" height="2.7"/>
<rect x="-803.1" y="-302.9" opacity="0.6" fill="#496CB4" enable-background="new    " width="21.2" height="2.7"/>
<rect x="-803.1" y="-298.4" opacity="0.6" fill="#496CB4" enable-background="new    " width="21.2" height="2.7"/>
<rect x="-803.1" y="-293.3" opacity="0.6" fill="#496CB4" enable-background="new    " width="21.2" height="2.7"/>
<rect x="-803.1" y="-288.7" opacity="0.6" fill="#496CB4" enable-background="new    " width="21.2" height="2.7"/>
<rect x="-803.1" y="-284.1" opacity="0.6" fill="#496CB4" enable-background="new    " width="21.2" height="2.7"/>
<rect x="-803.1" y="-279.2" opacity="0.6" fill="#496CB4" enable-background="new    " width="21.2" height="2.7"/>
<rect x="-781" y="-312.6" opacity="0.6" fill="#496CB4" enable-background="new    " width="21.2" height="2.7"/>
<rect x="-781" y="-307.9" opacity="0.6" fill="#496CB4" enable-background="new    " width="21.2" height="2.7"/>
<rect x="-781" y="-302.9" opacity="0.6" fill="#496CB4" enable-background="new    " width="21.2" height="2.7"/>
<rect x="-781" y="-298.4" opacity="0.6" fill="#496CB4" enable-background="new    " width="21.2" height="2.7"/>
<rect x="-781" y="-293.3" opacity="0.6" fill="#496CB4" enable-background="new    " width="21.2" height="2.7"/>
<rect x="-781" y="-288.7" opacity="0.6" fill="#496CB4" enable-background="new    " width="21.2" height="2.7"/>
<rect x="-781" y="-284.1" opacity="0.6" fill="#496CB4" enable-background="new    " width="21.2" height="2.7"/>
<rect x="-781" y="-279.2" opacity="0.6" fill="#496CB4" enable-background="new    " width="21.2" height="2.7"/>
<rect x="-826.8" y="208.9" opacity="0.6" fill="#496CB4" enable-background="new    " width="15.9" height="2.7"/>
<rect x="-826.8" y="213.5" opacity="0.6" fill="#496CB4" enable-background="new    " width="15.9" height="2.7"/>
<rect x="-826.8" y="218.2" opacity="0.6" fill="#496CB4" enable-background="new    " width="15.9" height="2.7"/>
<rect x="-826.8" y="223.2" opacity="0.6" fill="#496CB4" enable-background="new    " width="15.9" height="2.7"/>
<rect x="-826.8" y="227.7" opacity="0.6" fill="#496CB4" enable-background="new    " width="15.9" height="2.7"/>
<rect x="-826.8" y="232.5" opacity="0.6" fill="#496CB4" enable-background="new    " width="15.9" height="2.7"/>
<rect x="-826.8" y="237.4" opacity="0.6" fill="#496CB4" enable-background="new    " width="15.9" height="2.7"/>
<rect x="-826.8" y="241.8" opacity="0.6" fill="#496CB4" enable-background="new    " width="15.9" height="2.7"/>
<rect x="-809.7" y="208.9" opacity="0.6" fill="#496CB4" enable-background="new    " width="15.9" height="2.7"/>
<rect x="-809.7" y="213.5" opacity="0.6" fill="#496CB4" enable-background="new    " width="15.9" height="2.7"/>
<rect x="-809.7" y="218.2" opacity="0.6" fill="#496CB4" enable-background="new    " width="15.9" height="2.7"/>
<rect x="-809.7" y="223.2" opacity="0.6" fill="#496CB4" enable-background="new    " width="15.9" height="2.7"/>
<rect x="-809.7" y="227.7" opacity="0.6" fill="#496CB4" enable-background="new    " width="15.9" height="2.7"/>
<rect x="-809.7" y="232.5" opacity="0.6" fill="#496CB4" enable-background="new    " width="15.9" height="2.7"/>
<rect x="-809.7" y="237.4" opacity="0.6" fill="#496CB4" enable-background="new    " width="15.9" height="2.7"/>
<rect x="-809.7" y="241.8" opacity="0.6" fill="#496CB4" enable-background="new    " width="15.9" height="2.7"/>
<g opacity="0.5">
	<g>
		
			<text transform="matrix(1 0 0 1 -1294.1782 -319.0934)" fill="#999999" font-family="'TradeGothic-BoldCondTwenty'" font-size="37.4839">Level </text>
	</g>
	<circle fill="#999999" cx="-1144.5" cy="-325.2" r="63.6"/>
	
		<text transform="matrix(1 0 0 1 -1175.6079 -277.82)" fill="#FFFFFF" font-family="'TradeGothic-BoldCondTwenty'" font-size="119.9481">1</text>
</g>
<g opacity="0.5">
	<g>
		
			<text transform="matrix(1 0 0 1 -407.5845 -323.5817)" fill="#999999" font-family="'TradeGothic-BoldCondTwenty'" font-size="37.4839">Level </text>
	</g>
	<circle fill="#999999" cx="-258.4" cy="-329.6" r="63.6"/>
	
		<text transform="matrix(1 0 0 1 -289.0142 -285.3122)" fill="#FFFFFF" font-family="'TradeGothic-BoldCondTwenty'" font-size="119.9481">2</text>
</g>
<polygon fill="#496CB4" points="-781.9,-363.4 -796,-387.3 -768.4,-387.3 "/>
<rect x="38.3" y="-383.9" fill="#FFFFFF" width="83.7" height="44"/>
<polygon fill="#496CB4" points="80.9,-363.4 66.8,-387.3 94.6,-387.3 "/>
<path fill="#496CB4" d="M200.7-244.5l-1.8,0.2c-3.3,0.2-6.6,4-7.5,7.5l-0.2,1.8h9.5V-244.5L200.7-244.5z"/>
<path fill="#496CB4" d="M-9.9-151.5l-1.8,0.2c-3.3,0.2-6.6,4-7.5,7.5l-0.2,1.8h9.5V-151.5L-9.9-151.5z"/>
<path fill="#496CB4" d="M191.4-87.4l0.2,1.8c0.2,3.3,4,6.6,7.5,7.5l1.8,0.2v-9.5H191.4z"/>
<path fill="#496CB4" d="M191.4-164.1l0.2,1.8c0.2,3.3,4,6.6,7.5,7.5l1.8,0.2v-9.5H191.4L191.4-164.1z"/>
<path fill="#496CB4" d="M-19.4-168.3l0.2,1.8c0.2,3.3,4,6.6,7.5,7.5l1.8,0.2v-9.5H-19.4L-19.4-168.3z"/>
<path fill="#496CB4" d="M191.4-274.3l0.2,1.8c0.2,3.3,4,6.6,7.5,7.5l1.8,0.2v-9.5H191.4L191.4-274.3z"/>
<path fill="#496CB4" d="M-58.3-264.6l-0.2-1.8c-0.2-3.3-4-6.6-7.5-7.5l-1.8-0.2v9.5H-58.3L-58.3-264.6z"/>
<path fill="#496CB4" d="M-32.4-241.2l-0.2-1.8c-0.2-3.3-4-6.6-7.5-7.5l-1.8-0.2v9.5H-32.4L-32.4-241.2z"/>
<path fill="#496CB4" d="M-32.4-123l-0.2-1.8c-0.2-3.3-4-6.6-7.5-7.5l-1.8-0.2v9.5H-32.4z"/>
<path fill="#496CB4" d="M177.7,175.1l-0.2-1.8c-0.2-3.3-4-6.6-7.5-7.5l-1.8-0.2v9.5H177.7L177.7,175.1z"/>
<path fill="#496CB4" d="M-24.9-269l1.8-0.2c3.3-0.2,6.6-4,7.5-7.5l0.2-1.8h-9.5V-269L-24.9-269z"/>
<path fill="#496CB4" d="M-678.3-202.1l-1.8-0.2c-3.3-0.2-6.6-4-7.5-7.5l-0.2-1.8h9.5v10.4"/>
<path fill="#496CB4" d="M-678.3-141.6l-1.8,0.2c-3.5,0.7-6.6,3.5-7.5,7.5l-0.2,1.8h9.5V-141.6L-678.3-141.6z"/>
<text transform="matrix(1 0 0 1 216.3843 -100.195)" fill="#FFFFFF" font-family="'TradeGothic-BoldCondTwenty'" font-size="26.9882">2340</text>
<text transform="matrix(1 0 0 1 120.7983 213.1683)" fill="#FFFFFF" font-family="'TradeGothic-BoldCondTwenty'" font-size="26.9882">2212</text>
<text transform="matrix(1 0 0 1 216.3843 -203.7966)" fill="#FFFFFF" font-family="'TradeGothic-BoldCondTwenty'" font-size="26.9882">2356</text>
<text transform="matrix(1 0 0 1 216.3843 -309.3747)" fill="#FFFFFF" font-family="'TradeGothic-BoldCondTwenty'" font-size="26.9882">2360</text>
<text transform="matrix(1 0 0 1 15.9585 -100.195)" fill="#FFFFFF" font-family="'TradeGothic-BoldCondTwenty'" font-size="26.9882">2343</text>
<text transform="matrix(1 0 0 1 113.1226 -124.3708)" fill="#FFFFFF" font-family="'TradeGothic-BoldCondTwenty'" font-size="26.9882">2344</text>
<text transform="matrix(1 0 0 1 -120.4868 -100.195)" fill="#FFFFFF" font-family="'TradeGothic-BoldCondTwenty'" font-size="26.9882">2339</text>
<text transform="matrix(1 0 0 1 -120.4868 -192.4333)" fill="#FFFFFF" font-family="'TradeGothic-BoldCondTwenty'" font-size="26.9882">2355</text>
<text transform="matrix(1 0 0 1 -123.4829 -312.9255)" fill="#FFFFFF" font-family="'TradeGothic-BoldCondTwenty'" font-size="26.9882">2361</text>
<text transform="matrix(1 0 0 1 -54.4868 -312.7458)" fill="#FFFFFF" font-family="'TradeGothic-BoldCondTwenty'" font-size="26.9882">2365</text>
<text transform="matrix(1 0 0 1 15.9585 -191.1286)" fill="#FFFFFF" font-family="'TradeGothic-BoldCondTwenty'" font-size="26.9882">2351</text>
<g>
	<g>
		<path fill="#4A6DB4" d="M-752.1-197.7c-1.1,0-2-0.9-2-2c0-1.1,0.9-2,2-2s2,0.9,2,2C-749.9-198.6-751-197.7-752.1-197.7z"/>
		<path fill="#4A6DB4" d="M-750.7-197c2.2,0,2.7,1.3,3.1,2.2l1.8,6.2c0.2,0.7,0,0.9-0.7,0.9c-0.7,0.2-0.7-0.2-0.9-0.7l-1.3-5.3
			c-0.2-0.2-0.2-0.7-0.7-0.7c-0.2,0.2-0.2,0.2-0.2,0.7l2.7,9.7h-3.1c0,4,0,7.5,0,7.5c0,0.9-0.7,1.1-0.7,1.1c-0.2,0-0.9-0.2-0.9-1.1
			c0-0.9,0-7.1,0-7.1c0-0.2-0.2-0.7-0.7-0.7c-0.4,0-0.7,0.2-0.7,0.7c0,0,0,5.7,0,7.1c0,1.3-0.7,1.1-0.7,1.1c-0.2,0-0.7-0.2-0.7-1.1
			c0,0,0-3.5,0-7.5h-3.1l2.7-9.7c0.2-0.2,0.2-0.7-0.2-0.7c-0.4,0-0.7,0-0.7,0.7l-1.3,5.3c-0.2,0.7-0.7,0.7-0.9,0.7
			c-0.7-0.2-0.7-0.7-0.7-0.9l1.8-6.2c0.2-0.9,0.9-2.2,3.1-2.2H-750.7z"/>
	</g>
	<g>
		<g>
			<path fill="#4A6DB4" d="M-752.3-241.9c-1.3,0-2.2-0.9-2.2-2.2c0-1.3,0.9-2.2,2.2-2.2c1.3,0,2.2,0.9,2.2,2.2
				C-750.5-243-751.2-241.9-752.3-241.9z"/>
		</g>
		<path fill="#4A6DB4" d="M-756.5-235.9v5.1c0,0.9-0.7,1.1-0.9,1.1c-0.7,0-0.9-0.2-0.9-1.1v-6.6c0-2.7,1.3-3.5,4-3.5h4
			c2.2,0,4,0.7,4,3.5v6.6c0,0.9-0.2,1.1-0.9,1.1c-0.7,0-0.9-0.2-0.9-1.1v-5.1c0-0.7-0.2-0.7-0.7-0.7c-0.2,0-0.7,0.2-0.7,0.7
			c0,0.7,0,17.7,0,17.7c0,1.1-0.9,1.3-1.3,1.3c-0.2,0-1.3-0.2-1.3-1.3c0-0.9,0-10.4,0-10.4c0-0.2,0-0.7-0.2-0.7s-0.2,0.2-0.2,0.7
			c0,0,0,9.1,0,10.4s-0.9,1.3-1.3,1.3c-0.2,0-0.7-1.1-0.7-2.2c-0.2-11.3-0.9-17.5-0.9-17.5C-755.4-237-756.5-237-756.5-235.9z"/>
	</g>
</g>
<g>
	<g>
		<path fill="#4A6DB4" d="M115-187.1c-1.1,0-2-0.9-2-2c0-1.1,0.9-2,2-2c1.1,0,2,0.9,2,2C116.7-188,115.9-187.1,115-187.1z"/>
		<path fill="#4A6DB4" d="M115.9-186.2c2.2,0,2.7,1.3,3.1,2.2l1.8,6.2c0.2,0.7,0,0.9-0.7,0.9c-0.7,0.2-0.7-0.2-0.9-0.7l-1.3-5.3
			c-0.2-0.2-0.2-0.7-0.7-0.7c-0.2,0.2-0.2,0.2-0.2,0.7l2.7,9.7h-3.1c0,4,0,7.5,0,7.5c0,0.9-0.7,1.1-0.7,1.1c-0.2,0-0.9-0.2-0.9-1.1
			c0-0.9,0-7.1,0-7.1c0-0.2-0.2-0.7-0.7-0.7s-0.7,0.2-0.7,0.7c0,0,0,5.7,0,7.1c0,1.3-0.7,1.1-0.7,1.1c-0.2,0-0.7-0.2-0.7-1.1
			c0,0,0-3.5,0-7.5h-3.1l2.7-9.7c0.2-0.2,0.2-0.7-0.2-0.7c-0.4,0-0.7,0-0.7,0.7l-0.7,5.3c-0.2,0.7-0.7,0.7-0.9,0.7
			c-0.7-0.2-0.7-0.7-0.7-0.9l1.8-6.2c0.2-0.9,0.9-2.2,3.1-2.2H115.9L115.9-186.2z"/>
	</g>
	<g>
		<g>
			<path fill="#4A6DB4" d="M113.9-231.3c-1.3,0-2.2-0.9-2.2-2.2c0-1.3,0.9-2.2,2.2-2.2s2.2,0.9,2.2,2.2
				C116.3-232.4,115.2-231.3,113.9-231.3z"/>
		</g>
		<path fill="#4A6DB4" d="M109.7-225.5v5.1c0,0.9-0.7,1.1-0.9,1.1c-0.7,0-0.9-0.2-0.9-1.1v-6.6c0-2.7,1.3-3.5,4-3.5h4
			c2.2,0,4,0.7,4,3.5v6.6c0,0.9-0.2,1.1-0.9,1.1s-0.9-0.2-0.9-1.1v-5.1c0-0.7-0.2-0.7-0.7-0.7s-0.7,0.2-0.7,0.7c0,0.7,0,17.7,0,17.7
			c0,1.1-0.9,1.3-1.3,1.3c-0.2,0-1.3-0.2-1.3-1.3c0-0.9,0-10.4,0-10.4c0-0.2,0-0.7-0.2-0.7s-0.2,0.2-0.2,0.7c0,0,0,9.1,0,10.4
			c0,1.3-0.9,1.3-1.3,1.3c-0.2,0-1.3-0.2-1.3-1.3C110.3-207.8,110.3-224.9,109.7-225.5c0.2-0.7,0-0.7-0.2-0.7
			C110.6-225.7,109.7-225.7,109.7-225.5z"/>
	</g>
</g>
<rect x="-795.8" y="363.8" fill="#FFFFFF" width="33.6" height="40.4"/>
<rect x="-793.7" y="494.4" fill="#FFFFFF" width="29.9" height="29.4"/>
<g>
	<g>
		<path fill="#4A6DB4" d="M-861.4,398.7c-1.1,0-2-0.9-2-2s0.9-2,2-2c1.1,0,2,0.9,2,2C-859.2,397.8-860.3,398.7-861.4,398.7z"/>
		<path fill="#4A6DB4" d="M-860.1,399.4c2.2,0,2.7,1.3,3.1,2.2l1.8,6.2c0.2,0.7,0,0.9-0.7,0.9c-0.7,0.2-0.7-0.2-0.9-0.7l-1.3-5.3
			c-0.2-0.2-0.2-0.7-0.7-0.7c-0.2,0.2-0.2,0.2-0.2,0.7l2.7,9.7h-3.1c0,4,0,7.5,0,7.5c0,0.9-0.7,1.1-0.7,1.1c-0.2,0-0.9-0.2-0.9-1.1
			s0-7.1,0-7.1c0-0.2-0.2-0.7-0.7-0.7s-0.7,0.2-0.7,0.7c0,0,0,5.7,0,7.1c0,1.3-0.7,1.1-0.7,1.1c-0.2,0-0.7-0.2-0.7-1.1
			c0,0,0-3.5,0-7.5h-3.1l2.7-9.7c0.2-0.2,0.2-0.7-0.2-0.7c-0.4,0-0.7,0-0.7,0.7l-1.3,5.3c-0.2,0.7-0.7,0.7-0.9,0.7
			c-0.7-0.2-0.7-0.7-0.7-0.9l1.8-6.2c0.2-0.9,0.9-2.2,3.1-2.2H-860.1z"/>
	</g>
	<g>
		<g>
			<path fill="#4A6DB4" d="M-847.7,398.5c-1.1,0-2-0.7-2-2c0-1.1,0.7-2,2-2c1.3,0,2,0.7,2,2C-846.2,397.6-846.6,398.5-847.7,398.5z"
				/>
		</g>
		<path fill="#4A6DB4" d="M-851.3,403.8v4.4c0,0.7-0.7,0.9-0.7,0.9c-0.7,0-0.7-0.2-0.7-0.9v-5.7c0-2.2,1.1-3.1,3.5-3.1h3.5
			c2,0,3.5,0.7,3.5,3.1v5.7c0,0.7-0.2,0.9-0.7,0.9c-0.7,0-0.7-0.2-0.7-0.9v-4.4c0-0.7-0.2-0.7-0.7-0.7c-0.2,0-0.7,0.2-0.7,0.7
			c0,0.7,0,15.5,0,15.5c0,0.9-0.7,1.1-1.1,1.1c-0.2,0-1.1-0.2-1.1-1.1c0-0.7,0-9.1,0-9.1c0-0.2,0-0.7-0.2-0.7
			c-0.2,0-0.2,0.2-0.2,0.7c0,0,0,8,0,9.1s-0.7,1.1-1.1,1.1c-0.2,0-0.4-0.9-0.4-1.8c-0.2-9.7-0.9-15.2-0.9-15.2
			C-850.4,402.9-851.3,402.7-851.3,403.8z"/>
	</g>
</g>
<text transform="matrix(1 0 0 1 -15.9204 622.5706)" fill="#FFFFFF" font-family="'MyriadPro-Regular'" font-size="34.0142">E</text>
<rect x="-840" y="456.6" fill="#496CB4" width="28.5" height="31.4"/>
<text transform="matrix(1 0 0 1 -835.6899 484.8675)" fill="#FFFFFF" font-family="'MyriadPro-Regular'" font-size="34.0142">E</text>
<line fill="none" stroke="#969696" stroke-width="12" stroke-miterlimit="10" x1="-798" y1="370" x2="-798" y2="504.8"/>
<line fill="none" stroke="#969696" stroke-width="12" stroke-miterlimit="10" x1="-758.3" y1="368.7" x2="-758.3" y2="504.8"/>
<rect x="-814.6" y="414.8" fill="#FFFFFF" width="31.6" height="44.2"/>
<polygon fill="#496CB4" points="-794.7,432.5 -771.3,417.9 -770.4,445.5 "/>
<g>
	<g>
		<path fill="#4A6DB4" d="M-822.6,398.7c-1.1,0-2-0.9-2-2s0.9-2,2-2s2,0.9,2,2C-820.3,397.8-821.4,398.7-822.6,398.7z"/>
		<path fill="#4A6DB4" d="M-821.2,399.4c2.2,0,2.7,1.3,3.1,2.2l1.8,6.2c0.2,0.7,0,0.9-0.7,0.9c-0.7,0.2-0.7-0.2-0.9-0.7l-1.3-5.3
			c-0.2-0.2-0.2-0.7-0.7-0.7c-0.2,0.2-0.2,0.2-0.2,0.7l2.7,9.7h-3.1c0,4,0,7.5,0,7.5c0,0.9-0.7,1.1-0.7,1.1c-0.2,0-0.9-0.2-0.9-1.1
			s0-7.1,0-7.1c0-0.2-0.2-0.7-0.7-0.7c-0.4,0-0.7,0.2-0.7,0.7c0,0,0,5.7,0,7.1c0,1.3-0.7,1.1-0.7,1.1c-0.2,0-0.7-0.2-0.7-1.1
			c0,0,0-3.5,0-7.5h-3.1l2.7-9.7c0.2-0.2,0.2-0.7-0.2-0.7c-0.4,0-0.7,0-0.7,0.7l-1.3,5.3c-0.2,0.7-0.7,0.7-0.9,0.7
			c-0.7-0.2-0.7-0.7-0.7-0.9l1.8-6.2c0.2-0.9,0.9-2.2,3.1-2.2H-821.2z"/>
	</g>
	<g>
		<g>
			<path fill="#4A6DB4" d="M-808.6,398.5c-1.1,0-2-0.7-2-2c0-1.1,0.7-2,2-2c1.3,0,2,0.7,2,2C-807.1,397.6-807.7,398.5-808.6,398.5z"
				/>
		</g>
		<path fill="#4A6DB4" d="M-812.4,403.8v4.4c0,0.7-0.7,0.9-0.7,0.9c-0.7,0-0.7-0.2-0.7-0.9v-5.7c0-2.2,1.1-3.1,3.5-3.1h3.5
			c2,0,3.5,0.7,3.5,3.1v5.7c0,0.7-0.2,0.9-0.7,0.9c-0.7,0-0.7-0.2-0.7-0.9v-4.4c0-0.7-0.2-0.7-0.7-0.7c-0.2,0-0.7,0.2-0.7,0.7
			c0,0.7,0,15.5,0,15.5c0,0.9-0.7,1.1-1.1,1.1c-0.2,0-1.1-0.2-1.1-1.1c0-0.7,0-9.1,0-9.1c0-0.2,0-0.7-0.2-0.7
			c-0.2,0-0.2,0.2-0.2,0.7c0,0,0,8,0,9.1s-0.7,1.1-1.1,1.1c-0.2,0-0.4-0.9-0.4-1.8c-0.2-9.7-0.9-15.2-0.9-15.2
			C-811.5,402.9-812.4,402.7-812.4,403.8z"/>
	</g>
</g>
</svg>
