<?xml version="1.0" encoding="UTF-8" standalone="no"?>
<!-- Generator: Adobe Illustrator 17.1.0, SVG Export Plug-In . SVG Version: 6.00 Build 0)  -->

<svg
   xmlns:dc="http://purl.org/dc/elements/1.1/"
   xmlns:cc="http://creativecommons.org/ns#"
   xmlns:rdf="http://www.w3.org/1999/02/22-rdf-syntax-ns#"
   xmlns:svg="http://www.w3.org/2000/svg"
   xmlns="http://www.w3.org/2000/svg"
   xmlns:sodipodi="http://sodipodi.sourceforge.net/DTD/sodipodi-0.dtd"
   xmlns:inkscape="http://www.inkscape.org/namespaces/inkscape"
   version="1.1"
   id="Layer_1"
   x="0px"
   y="0px"
   viewBox="-1294.2 -397.2 813.30566 1048.2"
   enable-background="new -1294.2 -397.2 1703.5 1052.2"
   xml:space="preserve"
   inkscape:version="0.91 r13725"
   sodipodi:docname="sproul_level2.svg"
   width="813.30566"
   height="1048.2"><metadata
     id="metadata5277"><rdf:RDF><cc:Work
         rdf:about=""><dc:format>image/svg+xml</dc:format><dc:type
           rdf:resource="http://purl.org/dc/dcmitype/StillImage" /><dc:title></dc:title></cc:Work></rdf:RDF></metadata><defs
     id="defs5275" /><sodipodi:namedview
     pagecolor="#ffffff"
     bordercolor="#666666"
     borderopacity="1"
     objecttolerance="10"
     gridtolerance="10"
     guidetolerance="10"
     inkscape:pageopacity="0"
     inkscape:pageshadow="2"
     inkscape:window-width="1596"
     inkscape:window-height="861"
     id="namedview5273"
     showgrid="false"
     fit-margin-top="0"
     fit-margin-left="0"
     fit-margin-right="0"
     fit-margin-bottom="0"
     inkscape:zoom="0.32503328"
     inkscape:cx="-1040.1224"
     inkscape:cy="660.99519"
     inkscape:window-x="0"
     inkscape:window-y="18"
     inkscape:window-maximized="0"
     inkscape:current-layer="Layer_1" /><g
     id="g5453"
     transform="translate(-890.29429,-4.0000076)"><g
       id="g4745"><g
         id="g4747"><path
           id="path4749"
           d="m 296.6,-374.9 0,323.9 -49.7,0 0,72.7 49.7,0 0,323.9 -197.1,0 0,-0.6 -3.5,0 0,0.7 0,39.3 11,0 0,86.4 -1.8,0 -9.5,34.2 0,5.7 283.3,0 0,53.5 0,0.2 13,0 3.5,0 0,18.3 0,58.8 -2.7,0 -31.2,0 0,-3.3 -564.3,0 0,3.5 -31.2,0 -3.1,0 0,-58.8 0,-18.1 16.1,0 0,-53.4 283.5,0 0,-5.7 -9.5,-34.5 -1.3,0 0,-86.8 11,-39.1 0,-0.7 -3.5,0 0,0.7 -197.1,0 0,-323.9 49.7,0 0,-72.7 -49.7,0 0,-323.9 162,0 0,18.1 0,1.3 0,71.4 3.1,0 27.8,0 0,-56.2 47.9,0 0,35.4 0,21.2 27.8,0 3.1,0 0,-72 0,-1.3 0,-18.1 162.7,-0.1 m -306,415.2 177.2,0 0,-110.5 -177.2,0 0,110.5 m 104.9,461.4 8.4,-30.9 -8.4,0 0,30.9 m -32.7,0 0,-30.9 -8.4,0 8.4,30.9 m 248.8,-891.6 -14.8,0 -162.2,0 -14.8,0 0,14.8 0,18.1 0,1.3 0,56.6 -0.7,0 0,-6.4 0,-34.7 0,-15 -14.8,0 -48.3,0 -14.8,0 0,14.8 0,42 -0.7,0 0,-56.8 0,-1.3 0,-18.3 0,-14.8 -14.8,0 -162.6,0 -14.8,0 0,14.8 0,323.8 0,14.8 14.8,0 34.5,0 0,43.4 -34.5,0 -14.8,0 0,14.8 0,323.7 0,14.8 14.8,0 180.7,0 -5.7,19.9 -0.7,1.8 0,2 0,86.2 0,14.8 5.1,0 2.7,9.7 -265.8,0 -14.8,0 0,14.8 0,38.7 -1.3,0 -14.8,0 0,14.8 0,18.3 0,58.8 0,14.7 14.8,0 3.1,0 30.9,0 14.8,0 0,-3.5 533.8,0 0,3.5 14.8,0 31.2,0 2.7,0 14.8,0 0,-14.8 0,-58.8 0,-18.6 0,-14.8 -14.8,0 -1.1,0 0,-38.2 0,-14.8 -15,0 -265.1,0 2.7,-9.7 5.1,0 0,-14.8 0,-86 0,-14.8 -11.3,0 0,-9.1 185.4,0 14.8,0 0,-14.8 0,-323.6 0,-14.8 -14.8,0 -34.5,0 0,-43.1 34.5,0 14.8,0 0,-14.8 0,-324.4 1.5,-15 0,0 z M 5.8,-54.7 l 146.9,0 0,80.2 -146.9,0 0,-80.2 0,0 z"
           inkscape:connector-curvature="0"
           style="fill:#989798" /></g></g><path
       id="path4751"
       d="m -92.3,562 0.2,-1.8 0.7,-1.8 0.7,-1.3 0.9,-1.3 1.3,-1.3 1.3,-0.9 1.3,-0.7 1.8,-0.7 1.8,-0.2 0,10.8 3.5,0 0,-47.7 -34.5,0 0,47.7 21,-0.8 0,0 z"
       inkscape:connector-curvature="0"
       style="fill:#cccccc" /><path
       id="path4753"
       d="m 205.3,-283.4 0,5.3 -4.4,0 0,3.3 -0.9,0 0,10.8 0.9,0 0,3.1 93,0 0,-110.9 -93,0 0,88.8 4.4,-0.4 0,0 z"
       inkscape:connector-curvature="0"
       style="fill:#496cb4" /><path
       id="path4755"
       d="m 200.7,-248.3 -0.7,0 0,10.8 0.9,0 0,19.9 4.4,0 0,5.7 -4.4,0 0,45.7 93,0 0,-93.5 -93,0 0,11 -0.2,0.4 0,0 z"
       inkscape:connector-curvature="0"
       style="fill:#496cb4" /><path
       id="path4757"
       d="m -127.4,562 0.2,-1.8 0.7,-1.8 0.7,-1.3 0.9,-1.3 1.3,-1.3 1.3,-0.9 1.3,-0.7 1.8,-0.7 1.8,-0.2 0,10.8 3.5,0 0,-47.7 -34.2,0 0,47.7 20.7,-0.8 0,0 z"
       inkscape:connector-curvature="0"
       style="fill:#cccccc" /><path
       id="path4759"
       d="m -194.8,562 0.7,0 0.2,-1.8 0.7,-1.8 0.7,-1.3 0.9,-1.3 1.3,-1.3 1.3,-0.9 1.3,-0.7 1.8,-0.7 1.8,-0.2 0,10.8 0.7,0 0,-47.7 -32.9,0 0,47.3 21.5,-0.4 0,0 0,0 z"
       inkscape:connector-curvature="0"
       style="fill:#cccccc" /><path
       id="path4761"
       d="m -162.1,562 0.2,-1.8 0.7,-1.8 0.7,-1.3 0.9,-1.3 1.3,-1.3 1.3,-0.9 1.3,-0.7 1.8,-0.7 1.8,-0.2 0,10.8 3.5,0 0,-47.7 -34.2,0 0,47.7 20.7,-0.8 0,0 z"
       inkscape:connector-curvature="0"
       style="fill:#cccccc" /><path
       id="path4763"
       d="m -134,587.2 0,10.8 -1.8,-0.2 -1.8,-0.7 -1.3,-0.7 -1.3,-1.1 -1.3,-1.3 -0.9,-1.3 -0.7,-1.8 -0.7,-1.8 -0.2,-1.8 -19.2,0 0,47.3 33.8,0 0,-47.5 -4.4,0 0,0 -0.2,0.1 0,0 z"
       inkscape:connector-curvature="0"
       style="fill:#cccccc" /><path
       id="path4765"
       d="m 136.8,-279 20.5,0 0,0.9 11,0 0,-0.9 30.5,0 0,-4.4 0,-88.8 -61.4,0 0,17 0,71.4 -0.6,4.8 0,0 z"
       inkscape:connector-curvature="0"
       style="fill:#cccccc" /><path
       id="path4767"
       d="m 200.7,-163.9 -0.7,0 0,10.8 0.9,0 0,1.3 4.4,0 0,5.3 -4.4,0 0,51 -0.9,0 0,11 0.9,0 0,11.5 4,0 0,19.2 42.4,0 46.6,0 0,-110.9 -93,0 -0.2,0.8 0,0 z"
       inkscape:connector-curvature="0"
       style="fill:#496cb4" /><path
       id="path4769"
       d="m -99.1,587.2 0,10.8 -1.8,-0.2 -1.8,-0.7 -1.3,-0.7 -1.3,-1.1 -1.3,-1.3 -0.9,-1.3 -0.7,-1.8 -0.7,-1.8 -0.2,-1.8 -19.4,0 0,47.3 34.5,0 0,-47.5 -5.1,0.1 0,0 0,0 z"
       inkscape:connector-curvature="0"
       style="fill:#cccccc" /><path
       id="path4771"
       d="m 151.6,562 0.2,-1.8 0.7,-1.8 0.7,-1.3 0.9,-1.3 1.3,-1.3 1.3,-0.9 1.8,-0.7 1.8,-0.7 1.8,-0.2 0,10.8 3.5,0 0,-47.7 -34.2,0 0,47.7 20.2,-0.8 0,0 z"
       inkscape:connector-curvature="0"
       style="fill:#cccccc" /><path
       id="path4773"
       d="m 116.7,562 0.2,-1.8 0.7,-1.8 0.7,-1.3 0.9,-1.3 1.3,-1.3 1.3,-0.9 1.3,-0.7 1.8,-0.7 1.8,-0.2 0,10.8 4,0 0,-47.7 -33.4,0 0,13.3 0,34.5 19.4,-0.9 0,0 z"
       inkscape:connector-curvature="0"
       style="fill:#cccccc" /><path
       id="path4775"
       d="m 223.9,179.9 0,0 m 0,-0.2 0,0"
       inkscape:connector-curvature="0"
       style="fill:#cccccc" /><path
       id="path4777"
       d="m 221.7,562 0.2,-1.8 0.7,-1.8 0.7,-1.3 1.1,-1.3 1.3,-1.3 1.3,-0.9 1.8,-0.7 1.8,-0.7 1.8,-0.2 0,10.8 3.5,0 0,-47.7 -34.2,0 0,47.7 20,-0.8 0,0 z"
       inkscape:connector-curvature="0"
       style="fill:#cccccc" /><path
       id="path4779"
       d="m 253.5,191.4 -2,0 -0.2,1.8 -0.9,1.8 -0.7,1.3 -0.9,1.3 -1.3,1.3 -1.3,0.9 -1.3,0.7 -1.8,0.7 -1.8,0.2 0,-10.8 -1.8,0 0,15 -38,0 0,1.8 11,0 -0.2,1.8 -0.7,1.8 -0.7,1.8 -0.9,1.3 -1.3,1.3 -1.3,1.1 -1.3,0.7 -1.8,0.7 -1.8,0.2 0,13.9 91.3,0 0,-43.3 -40.7,0 0.4,2.7 0,0 z"
       inkscape:connector-curvature="0"
       style="fill:#cccccc" /><path
       id="path4781"
       d="m 200.5,243.4 4.6,0 0,5.7 -4.6,0 0,3.3 11,0 -0.2,1.8 -0.7,1.8 -0.7,1.3 -0.9,1.3 -1.3,1.3 -1.3,0.9 -1.3,0.7 -1.8,0.7 -1.8,0.2 0,18.3 -0.7,0 0,8 -0.7,0 0,10.8 0.7,0 0,42.6 93.2,0 0,-108.2 -93,0 -0.5,9.5 0,0 z"
       inkscape:connector-curvature="0"
       style="fill:#cccccc" /><path
       id="path4783"
       d="m -58,562 0.2,-1.8 0.7,-1.8 0.7,-1.3 0.9,-1.3 1.3,-1.3 1.3,-0.9 1.3,-0.7 1.8,-0.7 1.8,-0.2 0,10.8 3.3,0 0,-47.7 -33.6,0 0,47.7 20.3,-0.8 0,0 z"
       inkscape:connector-curvature="0"
       style="fill:#cccccc" /><path
       id="path4785"
       d="m 197.2,299.9 -1.8,-0.7 -1.3,-0.7 -1.3,-0.9 -1.3,-1.3 -0.9,-1.3 -0.7,-1.3 -0.7,-1.8 -0.2,-1.8 10.8,0 0,-8 -23,0 -0.2,1.8 -0.7,1.8 -0.7,1.3 -0.9,1.3 -1.3,1.3 -1.3,0.9 -1.3,0.7 -2.4,0.9 -1.8,0.2 0,-10.8 -28.7,0 0,4.4 0,56.1 0,0.2 62.1,0 0,-42.6 -2.2,0 -0.2,0.3 0,0 z"
       inkscape:connector-curvature="0"
       style="fill:#cccccc" /><path
       id="path4787"
       d="m 186.6,562 0.2,-1.8 0.7,-1.8 0.7,-1.3 0.9,-1.3 1.3,-1.3 1.3,-0.9 1.3,-0.7 1.8,-0.7 1.8,-0.2 0,10.8 3.5,0 0,-47.7 -34.2,0 0,47.7 20.7,-0.8 0,0 z"
       inkscape:connector-curvature="0"
       style="fill:#cccccc" /><path
       id="path4789"
       d="m -9.9,548.1 1.8,0.7 1.8,0.7 1.3,1.1 1.3,1.3 1.1,1.3 0.7,1.8 0.7,1.8 0.2,1.8 -10.8,0 0,1.1 32.5,0 0,-46.2 -32.5,0 0,33.8 1.9,0.8 z"
       inkscape:connector-curvature="0"
       style="fill:#cccccc" /><path
       id="path4791"
       d="m -24.7,541.6 0.2,-1.8 0.7,-1.3 0.9,-1.3 0.9,-1.3 1.3,-0.9 1.3,-0.9 1.3,-0.7 1.8,-0.2 0,9.1 1.8,0 0,-27.4 -28.5,0 0,27.6 18.1,0 0,-0.4 0.2,0 c 0,0 0,-0.5 0,-0.5 z"
       inkscape:connector-curvature="0"
       style="fill:#cccccc" /><path
       id="path4793"
       d="m 215.7,124.3 -1.3,0.7 -1.8,0.7 -1.8,0.2 0,-10.9 -5.3,0 0,1.8 -4.6,0 0,30.5 1.8,0.2 1.8,0.7 1.3,0.7 1.3,0.9 1.3,1.3 0.9,1.3 0.7,1.3 0.7,1.8 0.2,1.8 -11,0 0,0.7 36,0 0,-44.2 -14.9,0 -0.2,1.8 -0.7,1.8 -0.7,1.3 -0.9,1.3"
       inkscape:connector-curvature="0"
       style="fill:#cccccc" /><path
       id="path4795"
       d="m 33,538.1 0,0 -0.2,0.7 0,0.7 0.2,0.2 0.2,0.2 0,0.7 -0.2,0.2 -0.2,0 0,8.8 14.1,0 0.2,-1.8 0.7,-1.8 0.7,-1.3 0.9,-1.3 1.3,-1.3 1.3,-0.9 1.3,-0.7 1.8,-0.7 1.8,-0.2 0,10.8 2.2,0 0,-21.7 0,-13.3 -27.2,0 1.1,22.7 0,0 z"
       inkscape:connector-curvature="0"
       style="fill:#cccccc" /><path
       id="path4797"
       d="m 132.2,-158.3 0.7,-1.8 0.7,-1.8 0.9,-1.3 1.3,-1.3 1.3,-1.1 1.3,-0.7 1.8,-0.7 1.8,-0.2 0,-25.8 -55.5,0 0,34.9 4,0 0,3.3 51.3,0 0,-0.9 -10.8,0 1.2,-2.6 0,0 z"
       inkscape:connector-curvature="0"
       style="fill:#cccccc" /><path
       id="path4799"
       d="m 144.6,-196.3 0,21.2 15,0 0,-11.5 8,0 0,-13.3 0.7,0 0,-10.8 -0.4,0 0,-0.7 -1.1,0 0,-13.3 -21.9,0 0,21.2"
       inkscape:connector-curvature="0"
       style="fill:#cccccc" /><path
       id="path4801"
       d="m 168,-241 0,-0.7 -4.4,0 0,-4.4 -18.3,0 0,2.2 -0.9,0 0,10.8 0.9,0 0,6.2 23,0 0,-3.1"
       inkscape:connector-curvature="0"
       style="fill:#cccccc" /><path
       id="path4803"
       d="m 361.6,567.1 11,0 -0.2,1.8 -0.7,1.8 -0.7,1.3 -0.9,1.3 -1.3,1.3 -1.3,0.9 -1.8,0.7 -1.8,0.7 -1.8,0.2 0,8.8 0.7,0 7.1,0 0.2,0 7.1,0 0,0.2 1.3,0 7.1,0 0.2,0 7.1,0 0,-22.1 -12.8,0 -18.1,0 0,2.2 0,0.7 -0.4,0.2 0,0 z"
       inkscape:connector-curvature="0"
       style="fill:#cccccc" /><path
       id="path4805"
       d="m 143.3,-206.1 0,-26.7 -1.8,-0.2 -1.8,-0.7 -1.3,-0.7 -1.3,-0.9 -1.3,-1.3 -0.9,-1.3 -0.7,-1.3 -0.7,-1.8 -0.2,-1.8 11,0 0,-1.8 -52.1,0 0,3.3 0,0 -4,0 0,35.6 55,0 0.1,-0.4 0,0 z"
       inkscape:connector-curvature="0"
       style="fill:#cccccc" /><path
       id="path4807"
       d="m -168.7,587.2 0,10.8 -1.8,-0.2 -1.8,-0.7 -1.8,-0.7 -1.3,-1.1 -1.3,-1.3 -0.9,-1.3 -0.7,-1.8 -0.7,-1.8 -0.2,-1.8 -0.7,0 0,1.3 -18.3,0 0,46 33.6,0 0,-47.3 -4.1,-0.1 0,0 z"
       inkscape:connector-curvature="0"
       style="fill:#cccccc" /><path
       id="path4809"
       d="m -78.6,86.9 0.9,0 0,-11 -0.9,0 0,-23 0.9,0 0,-11 -0.9,0 0,-17 -9.7,0 -46.4,0 0,63 56.1,-1 0,0 0,0 z"
       inkscape:connector-curvature="0"
       style="fill:#cccccc" /><path
       id="path4811"
       d="m -78.6,168 0.9,0 0,-10.8 -0.9,0 0,-0.2 -56.1,0 0,32.7 56.1,0 0,-21.7 z"
       inkscape:connector-curvature="0"
       style="fill:#cccccc" /><path
       id="path4813"
       d="m -78.6,201.4 0.9,0 0,-10.8 -0.9,0 0,-0.2 -56.1,0 0,29.4 56.1,0 0,-18.4 z"
       inkscape:connector-curvature="0"
       style="fill:#cccccc" /><path
       id="path4815"
       d="m -78.6,134.2 0.9,0 0,-11 -0.9,0 0,-0.7 -56.1,0 0,33.4 56.1,0 0,-21.7 z"
       inkscape:connector-curvature="0"
       style="fill:#cccccc" /><path
       id="path4817"
       d="m -78.6,120.9 0.9,0 0,-10.8 -0.9,0 0,-21.6 -56.1,0 0,33.4 56.1,0 0,-1 z"
       inkscape:connector-curvature="0"
       style="fill:#cccccc" /><path
       id="path4819"
       d="m 214.6,587.2 0,10.8 -1.8,-0.2 -1.8,-0.7 -1.3,-0.7 -1.3,-1.1 -1.3,-1.3 -0.9,-1.3 -0.7,-1.8 -0.7,-1.8 -0.2,-1.8 -19.2,0 0,47.3 34.2,0 0,-47.5 -5,0.1 0,0 0,0 z"
       inkscape:connector-curvature="0"
       style="fill:#cccccc" /><path
       id="path4821"
       d="m -41.7,22.8 0.7,0 0,18.8 4,0 0,-11 1.8,0.2 1.8,0.7 1.3,0.7 1.3,0.9 1.3,1.3 1.1,1.3 0.7,1.3 0.7,1.8 0.2,1.8 0.2,-1.8 0.6,-1.8 0.7,-1.3 0.9,-1.3 1.3,-1.3 1.3,-0.9 1.8,-0.7 1.8,-0.7 1.8,-0.2 0,11 4.4,0 0,-1.1 1.1,0 0,-110 -1.1,0 0,-0.7 -4.4,0 0,11 -1.3,-0.2 -1.8,-0.7 -1.8,-0.7 -1.3,-0.9 -1.3,-1.3 -0.9,-1.3 -0.7,-1.8 -0.7,-1.8 -0.2,-1.8 -0.2,1.8 -0.7,1.8 -0.7,1.8 -1.1,1.3 -1.3,1.3 -1.3,0.9 -1.3,0.7 -1.8,0.7 -1.8,0.2 0,-11 -4,0 0,18.8 -0.7,0 0,0.7 -46.4,0 0,72.7 46.4,0 -0.4,0.8 0,0 z m 30.3,-91.9 0.9,0 0,109.6 -0.9,0 0,-109.6 z m -74.3,91.1 -0.9,0 0,-72.5 0.9,0 0,72.5 0,0 z"
       enable-background="new    "
       inkscape:connector-curvature="0"
       style="opacity:0.5;fill:#cccccc" /><path
       id="path4823"
       d="m 144.6,587.2 0,10.8 -1.8,-0.2 -1.8,-0.7 -1.3,-0.7 -1.3,-1.1 -1.3,-1.3 -1.1,-1.8 -0.7,-1.8 -0.7,-1.8 -0.2,-1.8 -19.2,0 0,47.7 34.5,0 0,-47.5 -5.1,0.2 0,0 z"
       inkscape:connector-curvature="0"
       style="fill:#cccccc" /><path
       id="path4825"
       d="m 200.5,-51.4 -0.5,0 0,-18.8 -4,0 0,11 -1.8,-0.2 -1.8,-0.7 -1.3,-0.7 -1.3,-0.9 -1.3,-1.3 -0.9,-1.3 -0.6,-1.7 -0.7,-1.8 -0.7,-2.2 -0.2,1.8 -0.7,1.8 -0.7,1.8 -0.9,1.3 -1.3,1.3 -1.3,0.9 -1.3,0.7 -1.8,0.7 -1.8,0.2 0,-11 -4.6,0 0,0.7 -1,0 0,110.3 1.1,0 0,0.7 4.6,0 0,-11 1.8,0.2 1.8,0.7 1.3,0.7 1.3,0.9 1.3,1.3 0.9,1.3 0.7,1.3 0.7,1.8 0.2,1.8 0.2,-1.8 0.7,-1.8 0.7,-1.3 0.9,-1.3 1.3,-1.3 1.3,-0.9 1.3,-0.7 1.8,-0.7 1.8,-0.2 0,11 4,0 0,-18.4 0,-0.7 0.7,0 47.3,0 0,-72.7 -46.8,0 -0.4,-0.8 0,0 0,0 z m -30.3,91.7 -0.9,0 0,-109.4 0.9,0 0,109.4 z m 74.5,-90.8 0.9,0 0,72.5 -0.9,0 0,-72.5 z"
       enable-background="new    "
       inkscape:connector-curvature="0"
       style="opacity:0.5;fill:#cccccc" /><path
       id="path4827"
       d="m -77.7,265.2 0,-10.8 -0.9,0 0,-0.7 -56.1,0 0,88.8 56.1,0 0,-77.8 0.9,0.5 0,0 z"
       inkscape:connector-curvature="0"
       style="fill:#cccccc" /><path
       id="path4829"
       d="m 75.4,587.2 0,10.8 -1.8,-0.2 -1.8,-0.7 -1.3,-0.7 -1.3,-1.1 -1.3,-1.3 -0.9,-1.3 -0.7,-1.8 -0.7,-1.8 -0.2,-1.3 -19.4,0 0,47.7 33.8,0 0,-47.7 -4.6,0 0,-0.2 0.2,0 0,-0.4 z"
       inkscape:connector-curvature="0"
       style="fill:#cccccc" /><path
       id="path4831"
       d="m -44.3,280.9 0,-0.7 -11,0 0,0.7 -21.4,0 0,62.5 32.7,0 -0.3,-62.5 0,0 z"
       inkscape:connector-curvature="0"
       style="fill:#cccccc" /><path
       id="path4833"
       d="m -78.6,251.8 0.9,0 0,-10.8 -0.9,0 0,-20.8 -56.1,0 0,32.3 56.1,0 0,-0.7 z"
       inkscape:connector-curvature="0"
       style="fill:#cccccc" /><path
       id="path4835"
       d="m 3.2,286.9 0,-6.2 -32.5,0 0,-0.2 -11.3,0 0,0.7 -0.7,0 0,62.5 62.8,0 0,-0.7 0,-55.9 -18.6,0 0.3,-0.2 0,0 0,0 z"
       inkscape:connector-curvature="0"
       style="fill:#cccccc" /><path
       id="path4837"
       d="m 110.3,587.2 0,10.8 -1.8,-0.2 -1.8,-0.7 -1.8,-0.7 -1.3,-1.1 -1.3,-1.3 -1.1,-1.3 -0.7,-1.8 -0.7,-1.8 -0.2,-1.8 -19.1,0 0,47.3 34.2,0 0,-47.5 -4.2,0 0,0 -0.2,0.1 0,0 z"
       inkscape:connector-curvature="0"
       style="fill:#cccccc" /><path
       id="path4839"
       d="m 179.7,587.2 0,10.8 -1.8,-0.2 -1.8,-0.7 -1.3,-0.7 -1.3,-1.1 -1.3,-1.3 -0.9,-1.3 -0.7,-1.8 -0.7,-1.8 -0.2,-1.8 -19.2,0 0,47.3 34.2,0 0,-47.5 -5,0.1 0,0 0,0 z"
       inkscape:connector-curvature="0"
       style="fill:#cccccc" /><path
       id="path4841"
       d="M -9.4,65.7 -9.4,79 4.3,79 4.5,77.2 5.2,75.4 5.9,73.6 6.8,72.3 8,71 l 1.3,-1.1 1.3,-0.7 1.8,-0.7 1.8,-0.2 0,11 11,0 0,-27.7 -6.6,0 0,-8 -29.6,0 0,11.5 -0.7,0 0,10.8 2.3,-0.2 0,0 z"
       inkscape:connector-curvature="0"
       style="fill:#cccccc" /><path
       id="path4843"
       d="m 4.3,79.6 -13.9,0 0,-5.3 -35.6,0 0,75.3 -0.9,0 0,10.8 0.9,0 0,0.7 4.4,0 105,0 0,-6.1 5.1,0 0,6.2 24.3,0 0,-83.6 -29.4,0 0,1.8 -2.7,0 0,-0.2 -11,0 0,0.2 -35.4,0 0,-0.2 -11,0 0.2,0.4 0,0 z"
       inkscape:connector-curvature="0"
       style="fill:#cccccc" /><path
       id="path4845"
       d="m 167.8,75.2 0,-30.9 -4.4,0 0,-1.1 -54.4,0 0,19.2 10.8,0 -0.2,1.8 -0.7,1.5 -0.7,1.8 -0.9,1.3 -1.1,1.3 -1.2,0.9 -1.3,0.7 -1.8,0.7 -1.8,0.2 0,3.3 -13.7,0 0,18.8 72.5,0 0,-8.8 0.7,0 0,-11 -1.8,0.3 0,0 z"
       inkscape:connector-curvature="0"
       style="fill:#cccccc" /><path
       id="path4847"
       d="m 284.7,587.2 0,10.8 -1.8,-0.2 -1.8,-0.7 -1.3,-0.7 -1.3,-1.1 -1.3,-1.3 -0.9,-1.3 -0.7,-1.8 -0.7,-1.8 -0.2,-1.8 -19.9,0 0,47.3 34.2,0 0,-47.5 -4.3,0.1 0,0 0,0 z"
       inkscape:connector-curvature="0"
       style="fill:#cccccc" /><path
       id="path4849"
       d="m 249.8,587.2 0,10.8 -1.8,-0.2 -1.8,-0.7 -1.3,-0.7 -1.3,-1.1 -1.3,-1.3 -0.9,-1.3 -0.7,-1.8 -0.7,-1.8 -0.2,-1.8 -19.4,0 0,47.3 33.8,0 0,-47.5 -4.4,0.1 0,0 0,0 z"
       inkscape:connector-curvature="0"
       style="fill:#cccccc" /><path
       id="path4851"
       d="m 51.8,75.2 0.7,-1.8 0.9,-1.3 1.3,-1.3 1.3,-1.1 1.8,-0.7 1.8,-0.7 1.8,-0.2 0,11 1.6,0 0,-35.3 -43,0 0,7.7 6.6,0 0,28.5 23.6,0 0.2,-1.8 1.4,-3 z"
       inkscape:connector-curvature="0"
       style="fill:#cccccc" /><path
       id="path4853"
       d="m 291.5,562 0.2,-1.8 0.7,-1.8 0.7,-1.3 0.9,-1.3 1.3,-1.3 1.3,-0.9 1.3,-0.7 1.8,-0.7 1.8,-0.2 0,10.8 3.5,0 0,-47.7 -34.2,0 0,47.7 20.7,-0.8 0,0 z"
       inkscape:connector-curvature="0"
       style="fill:#cccccc" /><path
       id="path4855"
       d="m 336.1,588.9 0,-1.8 -0.7,0 -0.2,1.8 -0.7,1.8 -0.9,2 -0.9,1.3 -1.3,1.3 -1.3,1.1 -1.8,0.7 -1.8,0.7 -1.8,0.2 0,-11 -0.7,0 0,47.7 33.6,0 0.2,0 0,-45.3 -21,0 0,-0.2 -0.7,-0.3 0,0 z"
       inkscape:connector-curvature="0"
       style="fill:#cccccc" /><path
       id="path4857"
       d="m 102.8,150.6 1.8,0.7 1.3,0.7 1.3,0.9 1.3,1.3 0.9,1.3 0.7,1.3 0.7,1.8 0.2,1.8 50.8,0 0,-6.2 4.6,0 0,-0.7 0.7,0 0,-10.8 -0.7,0 0,-47.8 -72.4,0 0,65.2 5.7,0 0,-10.8 3.1,1.3 z"
       inkscape:connector-curvature="0"
       style="fill:#cccccc" /><path
       id="path4859"
       d="m 115.9,248 47.5,0 0,-4.4 4.4,0 0,-67.4 0.7,0 0,-11.3 -0.5,0 0,-1.3 -4.6,0 -47.3,0 -0.2,84.4 0,0 z"
       inkscape:connector-curvature="0"
       style="fill:#496cb4" /><path
       id="path4861"
       d="m 256.4,562 0.2,-1.8 0.7,-1.8 0.7,-1.3 0.9,-1.3 1.3,-1.3 1.3,-0.9 1.8,-0.7 1.8,-0.7 1.8,-0.2 0,10.8 3.5,0 0,-47.7 -33.8,0 0,47.7 19.8,-0.8 0,0 z"
       inkscape:connector-curvature="0"
       style="fill:#cccccc" /><path
       id="path4863"
       d="m 238.3,176.8 -0.7,0 0,11 0.7,0 0,2.2 1.8,0 0,0.2 11,0 0,-0.2 1.3,0 0,-1.8 41.1,0 0,-74.2 -55.5,0 0.3,62.8 0,0 z"
       inkscape:connector-curvature="0"
       style="fill:#cccccc" /><path
       id="path4865"
       d="m 204.5,101.1 1.3,0.7 1.3,0.9 1.3,1.3 0.9,1.3 0.7,1.3 0.7,1.8 0.2,1.8 -10.9,0 0,0.2 4.4,0 0,1.3 5.1,0 0,0.9 10.8,0 0,-0.9 72.5,0 0,-88.6 -46.8,0 -42.2,0 0,19.2 -4.4,0 0,56.8 1.8,0.2 3.3,1.8 z"
       inkscape:connector-curvature="0"
       style="fill:#cccccc" /><path
       id="path4867"
       d="m -64,587.2 0,10.8 -1.8,-0.2 -1.8,-0.7 -1.8,-0.7 -1.3,-1.1 -1.3,-1.3 -1.1,-1.8 -0.7,-1.8 -0.7,-1.8 -0.2,-1.8 -19.2,0 0,47.7 34.2,0 0,-47.5 -4.3,0.2 0,0 z"
       inkscape:connector-curvature="0"
       style="fill:#cccccc" /><path
       id="path4869"
       d="m -44.3,175.3 0,68.1 3.5,0 0,4.6 2.7,0 0,0.9 11,0 0,-0.9 74.7,0 0,0.9 10.8,0 0,-0.9 0.7,0 0,-85.3 -99.7,0 0,12.4 -3.7,0.2 0,0 z"
       inkscape:connector-curvature="0"
       style="fill:#cccccc" /><path
       id="path4871"
       d="m -30,587.2 0,10.8 -1.8,-0.2 -1.8,-0.7 -1.3,-0.7 -1.3,-1.1 -1.3,-1.3 -0.9,-1.3 -0.7,-1.8 -0.7,-1.8 -0.2,-1.8 -19.7,0 0,47.3 33.7,0 0,-47.5 -4.2,0 0,0 0.2,0.1 0,0 z"
       inkscape:connector-curvature="0"
       style="fill:#cccccc" /><path
       id="path4873"
       d="m 319.4,587.2 0,10.8 -1.8,-0.2 -1.8,-0.7 -1.3,-0.7 -1.3,-1.1 -1.3,-1.3 -0.9,-1.3 -0.7,-1.8 -0.7,-1.8 -0.2,-1.8 -19.7,0 0,47.3 34.3,0 0,-47.5 -4.6,0.1 0,0 0,0 z"
       inkscape:connector-curvature="0"
       style="fill:#cccccc" /><path
       id="path4875"
       d="m 342.1,562 0,-10.8 1.8,0.2 1.8,0.7 1.3,0.7 1.3,0.9 1.3,1.3 1.1,1.3 0.7,1.3 0.7,1.8 0.2,1.8 0.7,0 0,-0.7 21.4,0 0,-47.3 -33.4,0 0,47.7 1.1,1.1 0,0 z"
       inkscape:connector-curvature="0"
       style="fill:#cccccc" /><path
       id="path4877"
       d="m 60.4,162.7 0,80.2 2.2,0 6.4,0 0,4.6 32.9,0 0,0.9 10.8,0 0,-0.9 0.7,0 0,-85.1 -1.8,0 0,-0.7 -11,0 0,0.7 -31.4,0 -5.1,0 -3.8,0 0,0.3 z"
       inkscape:connector-curvature="0"
       style="fill:#cccccc" /><path
       id="path4879"
       d="m 326.2,562 0.2,-1.8 0.7,-1.8 0.7,-1.3 1.1,-1.3 1.3,-1.3 1.3,-0.9 1.8,-0.7 1.8,-0.7 1.8,-0.2 0,10.8 3.5,0 0,-47.7 -34.2,0 0,47.7 20,-0.8 0,0 z"
       inkscape:connector-curvature="0"
       style="fill:#cccccc" /><polygon
       id="polygon4881"
       points="131.8,286.2 96.9,286.2 96.9,342.6 134.6,342.6 134.6,286 131.8,286 "
       style="fill:#cccccc" /><path
       id="path4883"
       d="m -46.1,-279 0,-4.4 5.1,0 0,4.4 14.8,0 0,0.9 10.8,0 0,-0.9 36.5,0 0,-4.6 0,-71.8 0,-16.6 -88.6,0 0,92.8 21.4,0.2 0,0 z"
       inkscape:connector-curvature="0"
       style="fill:#496cb4" /><path
       id="path4885"
       d="m 145.9,-85.9 0,0 0,0"
       inkscape:connector-curvature="0"
       style="fill:#cccccc" /><polygon
       id="polygon4887"
       points="145.2,-106 146.3,-106 146.3,-107.1 146.3,-107.7 108.6,-107.7 108.6,-152.4 162.7,-152.4 162.7,-154.1 144.6,-154.1 144.6,-156.4 143.7,-156.4 143,-156.4 143,-155 91.3,-155 91.3,-152.4 105.2,-152.4 105.2,-72 108.6,-72 108.6,-104.4 108.6,-104.4 141.7,-104.4 141.7,-104.4 141.7,-72 145.2,-72 145.2,-90.3 144.6,-90.3 145.2,-90.5 145.2,-93.2 144.6,-92.9 144.6,-92.7 144.6,-92.9 145.2,-93.2 "
       style="fill:#cccccc" /><path
       id="path4889"
       d="m -46.3,-151.3 4.4,0 0,-60.5 -4.4,0 0,-5.3 4.4,0 0,-23.2 0.7,0 0,-11 -0.7,0 0,-8 -92.8,0 0,115.8 88.6,0 -0.2,-7.8 0,0 z"
       inkscape:connector-curvature="0"
       style="fill:#496cb4" /><path
       id="path4891"
       d="m -68.4,-263.7 0.7,0 0,-11 -0.7,0 0,-97.3 -66.3,0 0,110.9 66.3,0 0,-2.6 z"
       inkscape:connector-curvature="0"
       style="fill:#496cb4" /><path
       id="path4893"
       d="m -43,-133.6 0,-8.8 -3.3,0 -88.6,0 0,88.8 46.6,0 35.3,0 0,-18.8 9.9,0 0,-50.2 1.3,0 0,-11 -1.2,0 0,0 z"
       inkscape:connector-curvature="0"
       style="fill:#496cb4" /><path
       id="path4895"
       d="m 168,-152.2 0,0 -4.6,-0.2 -54.8,0 0,44.6 37.6,0 0.2,-1.8 0.7,-1.8 0.7,-1.8 0.9,-1.3 1.3,-1.3 1.3,-1.1 1.3,-0.7 1.8,-0.7 1.8,-0.2 0,11 10.8,0 0,-33.6 0.7,0 0.3,-11.1 0,0 z"
       inkscape:connector-curvature="0"
       style="fill:#496cb4" /><path
       id="path4897"
       d="m 83.8,-158.3 0,-83.3 0,0 0,-4.4 -88.6,0 0,4.6 0,0 -4.6,0 0,71.6 -0.7,0 0,11 0.7,0 0,0.7 4.6,0 0,4.4 88.6,0 0,-4.6 z"
       inkscape:connector-curvature="0"
       style="fill:#496cb4" /><path
       id="path4899"
       d="m 91.3,-152.4 -7.5,0 -88.6,0 -4.6,0 0,0.2 -0.7,0 0,10.8 0.7,0 0,67.8 4.4,0 0,1.1 90.8,0 0,-1.1 4.6,0 0,1.1 14.4,0 0,-80.2 -13.5,0.3 0,0 z"
       inkscape:connector-curvature="0"
       style="fill:#496cb4" /><path
       id="path4901"
       d="m 93.5,76.1 0,-32.9"
       inkscape:connector-curvature="0"
       style="fill:#cccccc" /><line
       id="line4903"
       y2="42.900002"
       x2="65.300003"
       y1="42.900002"
       x1="93.5"
       style="fill:none" /><path
       id="path4905"
       d="m 65.3,76.1 28.5,0"
       inkscape:connector-curvature="0"
       style="fill:#cccccc" /><g
       id="g4907"><rect
         id="rect4909"
         height="32.900002"
         width="28.5"
         y="42.900002"
         x="65.300003"
         style="fill:#cccccc" /><text
         id="text4911"
         font-size="34.0142"
         transform="translate(70.6343,70.6956)"
         style="font-size:34.0141983px;font-family:MyriadPro-Regular;fill:#cccccc">E</text>
</g><path
       id="path4921"
       d="m 139.5,-71.1 0,-32.9"
       inkscape:connector-curvature="0"
       style="fill:#cccccc" /><rect
       id="rect4923"
       height="31.4"
       width="28.5"
       y="594.20001"
       x="-20.299999"
       style="fill:#496cb4" /><rect
       id="rect4925"
       height="2.7"
       width="21.200001"
       enable-background="new    "
       y="-319.89999"
       x="57.700001"
       style="opacity:0.6;fill:#496cb4" /><rect
       id="rect4927"
       height="2.7"
       width="21.200001"
       enable-background="new    "
       y="-314.79999"
       x="57.700001"
       style="opacity:0.6;fill:#496cb4" /><rect
       id="rect4929"
       height="2.7"
       width="21.200001"
       enable-background="new    "
       y="-310.10001"
       x="57.700001"
       style="opacity:0.6;fill:#496cb4" /><rect
       id="rect4931"
       height="2.7"
       width="21.200001"
       enable-background="new    "
       y="-305.29999"
       x="57.700001"
       style="opacity:0.6;fill:#496cb4" /><rect
       id="rect4933"
       height="2.7"
       width="21.200001"
       enable-background="new    "
       y="-300.60001"
       x="57.700001"
       style="opacity:0.6;fill:#496cb4" /><rect
       id="rect4935"
       height="2.7"
       width="21.200001"
       enable-background="new    "
       y="-295.79999"
       x="57.700001"
       style="opacity:0.6;fill:#496cb4" /><rect
       id="rect4937"
       height="2.7"
       width="21.200001"
       enable-background="new    "
       y="-291.10001"
       x="57.700001"
       style="opacity:0.6;fill:#496cb4" /><rect
       id="rect4939"
       height="2.7"
       width="21.200001"
       enable-background="new    "
       y="-286.5"
       x="57.700001"
       style="opacity:0.6;fill:#496cb4" /><rect
       id="rect4941"
       height="2.7"
       width="21.200001"
       enable-background="new    "
       y="-319.89999"
       x="80.099998"
       style="opacity:0.6;fill:#496cb4" /><rect
       id="rect4943"
       height="2.7"
       width="21.200001"
       enable-background="new    "
       y="-314.79999"
       x="80.099998"
       style="opacity:0.6;fill:#496cb4" /><rect
       id="rect4945"
       height="2.7"
       width="21.200001"
       enable-background="new    "
       y="-310.10001"
       x="80.099998"
       style="opacity:0.6;fill:#496cb4" /><rect
       id="rect4947"
       height="2.7"
       width="21.200001"
       enable-background="new    "
       y="-305.29999"
       x="80.099998"
       style="opacity:0.6;fill:#496cb4" /><rect
       id="rect4949"
       height="2.7"
       width="21.200001"
       enable-background="new    "
       y="-300.60001"
       x="80.099998"
       style="opacity:0.6;fill:#496cb4" /><rect
       id="rect4951"
       height="2.7"
       width="21.200001"
       enable-background="new    "
       y="-295.79999"
       x="80.099998"
       style="opacity:0.6;fill:#496cb4" /><rect
       id="rect4953"
       height="2.7"
       width="21.200001"
       enable-background="new    "
       y="-291.10001"
       x="80.099998"
       style="opacity:0.6;fill:#496cb4" /><rect
       id="rect4955"
       height="2.7"
       width="21.200001"
       enable-background="new    "
       y="-286.5"
       x="80.099998"
       style="opacity:0.6;fill:#496cb4" /><rect
       id="rect4957"
       height="2.7"
       width="15.9"
       enable-background="new    "
       y="291.10001"
       x="25.9"
       style="opacity:0.6;fill:#496cb4" /><rect
       id="rect4959"
       height="2.7"
       width="15.9"
       enable-background="new    "
       y="295.5"
       x="25.9"
       style="opacity:0.6;fill:#496cb4" /><rect
       id="rect4961"
       height="2.7"
       width="15.9"
       enable-background="new    "
       y="299.89999"
       x="25.9"
       style="opacity:0.6;fill:#496cb4" /><rect
       id="rect4963"
       height="2.7"
       width="15.9"
       enable-background="new    "
       y="305"
       x="25.9"
       style="opacity:0.6;fill:#496cb4" /><rect
       id="rect4965"
       height="2.7"
       width="15.9"
       enable-background="new    "
       y="309.60001"
       x="25.9"
       style="opacity:0.6;fill:#496cb4" /><rect
       id="rect4967"
       height="2.7"
       width="15.9"
       enable-background="new    "
       y="314.29999"
       x="25.9"
       style="opacity:0.6;fill:#496cb4" /><rect
       id="rect4969"
       height="2.7"
       width="15.9"
       enable-background="new    "
       y="319.10001"
       x="25.9"
       style="opacity:0.6;fill:#496cb4" /><rect
       id="rect4971"
       height="2.7"
       width="15.9"
       enable-background="new    "
       y="323.79999"
       x="25.9"
       style="opacity:0.6;fill:#496cb4" /><rect
       id="rect4973"
       height="2.7"
       width="15.9"
       enable-background="new    "
       y="291.10001"
       x="42.700001"
       style="opacity:0.6;fill:#496cb4" /><rect
       id="rect4975"
       height="2.7"
       width="15.9"
       enable-background="new    "
       y="295.5"
       x="42.700001"
       style="opacity:0.6;fill:#496cb4" /><rect
       id="rect4977"
       height="2.7"
       width="15.9"
       enable-background="new    "
       y="299.89999"
       x="42.700001"
       style="opacity:0.6;fill:#496cb4" /><rect
       id="rect4979"
       height="2.7"
       width="15.9"
       enable-background="new    "
       y="305"
       x="42.700001"
       style="opacity:0.6;fill:#496cb4" /><rect
       id="rect4981"
       height="2.7"
       width="15.9"
       enable-background="new    "
       y="309.60001"
       x="42.700001"
       style="opacity:0.6;fill:#496cb4" /><rect
       id="rect4983"
       height="2.7"
       width="15.9"
       enable-background="new    "
       y="314.29999"
       x="42.700001"
       style="opacity:0.6;fill:#496cb4" /><rect
       id="rect4985"
       height="2.7"
       width="15.9"
       enable-background="new    "
       y="319.10001"
       x="42.700001"
       style="opacity:0.6;fill:#496cb4" /><rect
       id="rect4987"
       height="2.7"
       width="15.9"
       enable-background="new    "
       y="323.79999"
       x="42.700001"
       style="opacity:0.6;fill:#496cb4" /><rect
       id="rect4989"
       height="2.7"
       width="15.9"
       enable-background="new    "
       y="589.79999"
       x="361.29999"
       style="opacity:0.6;fill:#496cb4" /><rect
       id="rect4991"
       height="2.7"
       width="15.9"
       enable-background="new    "
       y="594.70001"
       x="361.29999"
       style="opacity:0.6;fill:#496cb4" /><rect
       id="rect4993"
       height="2.7"
       width="15.9"
       enable-background="new    "
       y="599.5"
       x="361.29999"
       style="opacity:0.6;fill:#496cb4" /><rect
       id="rect4995"
       height="2.7"
       width="15.9"
       enable-background="new    "
       y="603.70001"
       x="361.29999"
       style="opacity:0.6;fill:#496cb4" /><rect
       id="rect4997"
       height="2.7"
       width="15.9"
       enable-background="new    "
       y="608.59998"
       x="361.29999"
       style="opacity:0.6;fill:#496cb4" /><rect
       id="rect4999"
       height="2.7"
       width="15.9"
       enable-background="new    "
       y="613.5"
       x="361.29999"
       style="opacity:0.6;fill:#496cb4" /><rect
       id="rect5001"
       height="2.7"
       width="15.9"
       enable-background="new    "
       y="618.09998"
       x="361.29999"
       style="opacity:0.6;fill:#496cb4" /><rect
       id="rect5003"
       height="2.7"
       width="15.9"
       enable-background="new    "
       y="622.70001"
       x="361.29999"
       style="opacity:0.6;fill:#496cb4" /><rect
       id="rect5005"
       height="2.7"
       width="15.9"
       enable-background="new    "
       y="589.79999"
       x="378.10001"
       style="opacity:0.6;fill:#496cb4" /><rect
       id="rect5007"
       height="2.7"
       width="15.9"
       enable-background="new    "
       y="594.70001"
       x="378.10001"
       style="opacity:0.6;fill:#496cb4" /><rect
       id="rect5009"
       height="2.7"
       width="15.9"
       enable-background="new    "
       y="599.5"
       x="378.10001"
       style="opacity:0.6;fill:#496cb4" /><rect
       id="rect5011"
       height="2.7"
       width="15.9"
       enable-background="new    "
       y="603.70001"
       x="378.10001"
       style="opacity:0.6;fill:#496cb4" /><rect
       id="rect5013"
       height="2.7"
       width="15.9"
       enable-background="new    "
       y="608.59998"
       x="378.10001"
       style="opacity:0.6;fill:#496cb4" /><rect
       id="rect5015"
       height="2.7"
       width="15.9"
       enable-background="new    "
       y="613.5"
       x="378.10001"
       style="opacity:0.6;fill:#496cb4" /><rect
       id="rect5017"
       height="2.7"
       width="15.9"
       enable-background="new    "
       y="618.09998"
       x="378.10001"
       style="opacity:0.6;fill:#496cb4" /><rect
       id="rect5019"
       height="2.7"
       width="15.9"
       enable-background="new    "
       y="622.70001"
       x="378.10001"
       style="opacity:0.6;fill:#496cb4" /><rect
       id="rect5021"
       height="2.7"
       width="15.9"
       enable-background="new    "
       y="589.79999"
       x="-234.8"
       style="opacity:0.6;fill:#496cb4" /><rect
       id="rect5023"
       height="2.7"
       width="15.9"
       enable-background="new    "
       y="594.70001"
       x="-234.8"
       style="opacity:0.6;fill:#496cb4" /><rect
       id="rect5025"
       height="2.7"
       width="15.9"
       enable-background="new    "
       y="599.5"
       x="-234.8"
       style="opacity:0.6;fill:#496cb4" /><rect
       id="rect5027"
       height="2.7"
       width="15.9"
       enable-background="new    "
       y="603.70001"
       x="-234.8"
       style="opacity:0.6;fill:#496cb4" /><rect
       id="rect5029"
       height="2.7"
       width="15.9"
       enable-background="new    "
       y="608.59998"
       x="-234.8"
       style="opacity:0.6;fill:#496cb4" /><rect
       id="rect5031"
       height="2.7"
       width="15.9"
       enable-background="new    "
       y="613.5"
       x="-234.8"
       style="opacity:0.6;fill:#496cb4" /><rect
       id="rect5033"
       height="2.7"
       width="15.9"
       enable-background="new    "
       y="618.09998"
       x="-234.8"
       style="opacity:0.6;fill:#496cb4" /><rect
       id="rect5035"
       height="2.7"
       width="15.9"
       enable-background="new    "
       y="622.70001"
       x="-234.8"
       style="opacity:0.6;fill:#496cb4" /><rect
       id="rect5037"
       height="2.7"
       width="15.9"
       enable-background="new    "
       y="589.79999"
       x="-217.60001"
       style="opacity:0.6;fill:#496cb4" /><rect
       id="rect5039"
       height="2.7"
       width="15.9"
       enable-background="new    "
       y="594.70001"
       x="-217.60001"
       style="opacity:0.6;fill:#496cb4" /><rect
       id="rect5041"
       height="2.7"
       width="15.9"
       enable-background="new    "
       y="599.5"
       x="-217.60001"
       style="opacity:0.6;fill:#496cb4" /><rect
       id="rect5043"
       height="2.7"
       width="15.9"
       enable-background="new    "
       y="603.70001"
       x="-217.60001"
       style="opacity:0.6;fill:#496cb4" /><rect
       id="rect5045"
       height="2.7"
       width="15.9"
       enable-background="new    "
       y="608.59998"
       x="-217.60001"
       style="opacity:0.6;fill:#496cb4" /><rect
       id="rect5047"
       height="2.7"
       width="15.9"
       enable-background="new    "
       y="613.5"
       x="-217.60001"
       style="opacity:0.6;fill:#496cb4" /><rect
       id="rect5049"
       height="2.7"
       width="15.9"
       enable-background="new    "
       y="618.09998"
       x="-217.60001"
       style="opacity:0.6;fill:#496cb4" /><rect
       id="rect5051"
       height="2.7"
       width="15.9"
       enable-background="new    "
       y="622.70001"
       x="-217.60001"
       style="opacity:0.6;fill:#496cb4" /><g
       id="g5127"
       style="opacity:0.5"><g
         id="g5129"><text
           id="text5131"
           font-size="37.4839"
           transform="translate(-407.5845,-323.5817)"
           style="font-size:37.48389816px;font-family:TradeGothic-BoldCondTwenty;fill:#999999">Level </text>
</g><circle
         id="circle5133"
         r="63.599998"
         cy="-329.60001"
         cx="-258.39999"
         style="fill:#999999" /><text
         id="text5135"
         font-size="119.9481"
         transform="translate(-289.0142,-285.3122)"
         style="font-size:119.94809723px;font-family:TradeGothic-BoldCondTwenty;fill:#ffffff">2</text>
</g><rect
       id="rect5139"
       height="44"
       width="83.699997"
       y="-383.89999"
       x="38.299999"
       style="fill:#ffffff" /><polygon
       id="polygon5141"
       points="66.8,-387.3 94.6,-387.3 80.9,-363.4 "
       style="fill:#496cb4" /><path
       id="path5143"
       d="m 200.7,-244.5 -1.8,0.2 c -3.3,0.2 -6.6,4 -7.5,7.5 l -0.2,1.8 9.5,0 0,-9.5 0,0 z"
       inkscape:connector-curvature="0"
       style="fill:#496cb4" /><path
       id="path5145"
       d="m -9.9,-151.5 -1.8,0.2 c -3.3,0.2 -6.6,4 -7.5,7.5 l -0.2,1.8 9.5,0 0,-9.5 0,0 z"
       inkscape:connector-curvature="0"
       style="fill:#496cb4" /><path
       id="path5147"
       d="m 191.4,-87.4 0.2,1.8 c 0.2,3.3 4,6.6 7.5,7.5 l 1.8,0.2 0,-9.5 -9.5,0 z"
       inkscape:connector-curvature="0"
       style="fill:#496cb4" /><path
       id="path5149"
       d="m 191.4,-164.1 0.2,1.8 c 0.2,3.3 4,6.6 7.5,7.5 l 1.8,0.2 0,-9.5 -9.5,0 0,0 z"
       inkscape:connector-curvature="0"
       style="fill:#496cb4" /><path
       id="path5151"
       d="m -19.4,-168.3 0.2,1.8 c 0.2,3.3 4,6.6 7.5,7.5 l 1.8,0.2 0,-9.5 -9.5,0 0,0 z"
       inkscape:connector-curvature="0"
       style="fill:#496cb4" /><path
       id="path5153"
       d="m 191.4,-274.3 0.2,1.8 c 0.2,3.3 4,6.6 7.5,7.5 l 1.8,0.2 0,-9.5 -9.5,0 0,0 z"
       inkscape:connector-curvature="0"
       style="fill:#496cb4" /><path
       id="path5155"
       d="m -58.3,-264.6 -0.2,-1.8 c -0.2,-3.3 -4,-6.6 -7.5,-7.5 l -1.8,-0.2 0,9.5 9.5,0 0,0 z"
       inkscape:connector-curvature="0"
       style="fill:#496cb4" /><path
       id="path5157"
       d="m -32.4,-241.2 -0.2,-1.8 c -0.2,-3.3 -4,-6.6 -7.5,-7.5 l -1.8,-0.2 0,9.5 9.5,0 0,0 z"
       inkscape:connector-curvature="0"
       style="fill:#496cb4" /><path
       id="path5159"
       d="m -32.4,-123 -0.2,-1.8 c -0.2,-3.3 -4,-6.6 -7.5,-7.5 l -1.8,-0.2 0,9.5 9.5,0 z"
       inkscape:connector-curvature="0"
       style="fill:#496cb4" /><path
       id="path5161"
       d="m 177.7,175.1 -0.2,-1.8 c -0.2,-3.3 -4,-6.6 -7.5,-7.5 l -1.8,-0.2 0,9.5 9.5,0 0,0 z"
       inkscape:connector-curvature="0"
       style="fill:#496cb4" /><path
       id="path5163"
       d="m -24.9,-269 1.8,-0.2 c 3.3,-0.2 6.6,-4 7.5,-7.5 l 0.2,-1.8 -9.5,0 0,9.5 0,0 z"
       inkscape:connector-curvature="0"
       style="fill:#496cb4" /><text
       id="text5169"
       font-size="26.9882"
       transform="translate(216.3843,-100.195)"
       style="font-size:26.98819923px;font-family:TradeGothic-BoldCondTwenty;fill:#ffffff">2340</text>
<text
       id="text5171"
       font-size="26.9882"
       transform="translate(120.7983,213.1683)"
       style="font-size:26.98819923px;font-family:TradeGothic-BoldCondTwenty;fill:#ffffff">2212</text>
<text
       id="text5173"
       font-size="26.9882"
       transform="translate(216.3843,-203.7966)"
       style="font-size:26.98819923px;font-family:TradeGothic-BoldCondTwenty;fill:#ffffff">2356</text>
<text
       id="text5175"
       font-size="26.9882"
       transform="translate(216.3843,-309.3747)"
       style="font-size:26.98819923px;font-family:TradeGothic-BoldCondTwenty;fill:#ffffff">2360</text>
<text
       id="text5177"
       font-size="26.9882"
       transform="translate(15.9585,-100.195)"
       style="font-size:26.98819923px;font-family:TradeGothic-BoldCondTwenty;fill:#ffffff">2343</text>
<text
       id="text5179"
       font-size="26.9882"
       transform="translate(113.1226,-124.3708)"
       style="font-size:26.98819923px;font-family:TradeGothic-BoldCondTwenty;fill:#ffffff">2344</text>
<text
       id="text5181"
       font-size="26.9882"
       transform="translate(-120.4868,-100.195)"
       style="font-size:26.98819923px;font-family:TradeGothic-BoldCondTwenty;fill:#ffffff">2339</text>
<text
       id="text5183"
       font-size="26.9882"
       transform="translate(-120.4868,-192.4333)"
       style="font-size:26.98819923px;font-family:TradeGothic-BoldCondTwenty;fill:#ffffff">2355</text>
<text
       id="text5185"
       font-size="26.9882"
       transform="translate(-123.4829,-312.9255)"
       style="font-size:26.98819923px;font-family:TradeGothic-BoldCondTwenty;fill:#ffffff">2361</text>
<text
       id="text5187"
       font-size="26.9882"
       transform="translate(-54.4868,-312.7458)"
       style="font-size:26.98819923px;font-family:TradeGothic-BoldCondTwenty;fill:#ffffff">2365</text>
<text
       id="text5189"
       font-size="26.9882"
       transform="translate(15.9585,-191.1286)"
       style="font-size:26.98819923px;font-family:TradeGothic-BoldCondTwenty;fill:#ffffff">2351</text>
<g
       id="g5207"><g
         id="g5209"><path
           id="path5211"
           d="m 115,-187.1 c -1.1,0 -2,-0.9 -2,-2 0,-1.1 0.9,-2 2,-2 1.1,0 2,0.9 2,2 -0.3,1.1 -1.1,2 -2,2 z"
           inkscape:connector-curvature="0"
           style="fill:#4a6db4" /><path
           id="path5213"
           d="m 115.9,-186.2 c 2.2,0 2.7,1.3 3.1,2.2 l 1.8,6.2 c 0.2,0.7 0,0.9 -0.7,0.9 -0.7,0.2 -0.7,-0.2 -0.9,-0.7 l -1.3,-5.3 c -0.2,-0.2 -0.2,-0.7 -0.7,-0.7 -0.2,0.2 -0.2,0.2 -0.2,0.7 l 2.7,9.7 -3.1,0 c 0,4 0,7.5 0,7.5 0,0.9 -0.7,1.1 -0.7,1.1 -0.2,0 -0.9,-0.2 -0.9,-1.1 0,-0.9 0,-7.1 0,-7.1 0,-0.2 -0.2,-0.7 -0.7,-0.7 -0.5,0 -0.7,0.2 -0.7,0.7 0,0 0,5.7 0,7.1 0,1.3 -0.7,1.1 -0.7,1.1 -0.2,0 -0.7,-0.2 -0.7,-1.1 0,0 0,-3.5 0,-7.5 l -3.1,0 2.7,-9.7 c 0.2,-0.2 0.2,-0.7 -0.2,-0.7 -0.4,0 -0.7,0 -0.7,0.7 l -0.7,5.3 c -0.2,0.7 -0.7,0.7 -0.9,0.7 -0.7,-0.2 -0.7,-0.7 -0.7,-0.9 l 1.8,-6.2 c 0.2,-0.9 0.9,-2.2 3.1,-2.2 l 2.4,0 0,0 z"
           inkscape:connector-curvature="0"
           style="fill:#4a6db4" /></g><g
         id="g5215"><g
           id="g5217"><path
             id="path5219"
             d="m 113.9,-231.3 c -1.3,0 -2.2,-0.9 -2.2,-2.2 0,-1.3 0.9,-2.2 2.2,-2.2 1.3,0 2.2,0.9 2.2,2.2 0.2,1.1 -0.9,2.2 -2.2,2.2 z"
             inkscape:connector-curvature="0"
             style="fill:#4a6db4" /></g><path
           id="path5221"
           d="m 109.7,-225.5 0,5.1 c 0,0.9 -0.7,1.1 -0.9,1.1 -0.7,0 -0.9,-0.2 -0.9,-1.1 l 0,-6.6 c 0,-2.7 1.3,-3.5 4,-3.5 l 4,0 c 2.2,0 4,0.7 4,3.5 l 0,6.6 c 0,0.9 -0.2,1.1 -0.9,1.1 -0.7,0 -0.9,-0.2 -0.9,-1.1 l 0,-5.1 c 0,-0.7 -0.2,-0.7 -0.7,-0.7 -0.5,0 -0.7,0.2 -0.7,0.7 0,0.7 0,17.7 0,17.7 0,1.1 -0.9,1.3 -1.3,1.3 -0.2,0 -1.3,-0.2 -1.3,-1.3 0,-0.9 0,-10.4 0,-10.4 0,-0.2 0,-0.7 -0.2,-0.7 -0.2,0 -0.2,0.2 -0.2,0.7 0,0 0,9.1 0,10.4 0,1.3 -0.9,1.3 -1.3,1.3 -0.2,0 -1.3,-0.2 -1.3,-1.3 -0.8,0 -0.8,-17.1 -1.4,-17.7 0.2,-0.7 0,-0.7 -0.2,-0.7 1.1,0.5 0.2,0.5 0.2,0.7 z"
           inkscape:connector-curvature="0"
           style="fill:#4a6db4" /></g></g><text
       id="text5243"
       font-size="34.0142"
       transform="translate(-15.9204,622.5706)"
       style="font-size:34.0141983px;font-family:MyriadPro-Regular;fill:#ffffff">E</text>
</g><g
     id="g5279"
     transform="translate(-1948.6475,-47.072521)"><path
       id="path4553"
       d="M -922.9,-22"
       stroke-miterlimit="10"
       inkscape:connector-curvature="0"
       style="fill:none;stroke:#989798;stroke-width:10;stroke-miterlimit:10" /><path
       id="path4555"
       d="m -598.9,-356.5 0,272.7 -42,0 -282.2,0 -42,0 0,-272.7 136.3,0 93,0 136.9,0 m 15,-15.3 -14.8,0 -136.3,0 -93,0 -136.3,0 -14.8,0 0,14.8 0,272.7 0,14.8 14.8,0 42,0 282.3,0 42,0 14.8,0 0,-14.8 0,-272.4 0,-15 -0.7,-0.1 0,0 z"
       inkscape:connector-curvature="0"
       style="fill:#989798" /><polyline
       id="polyline4557"
       points="-760.2,372 -760.2,372 -760.2,372   -760.2,372 -760.2,372 -760.2,372.7 -701.5,372.7 -701.5,372.7 -701.5,372.7 -681.6,372.7 -681.6,372.7 -607.1,372.7 -607.1,372.7   -607.1,372.7 -587.5,372.7 -587.5,372.7 -587.5,372.7 -587.5,372.7 -587.5,372.7 -587.5,372.7 -587.5,372.7 -587.5,372.7   -511.9,372.7 -511.9,427 -497.3,427 -497.3,427 -497.3,427 -497.3,427 -497.3,446.7 -497.3,446.7 -497.3,507.9 -500,507.9   -500,507.9 -528,507.9 -528,507.9 -528,507.9 -528,507.9 -528,503.7 -735.1,503.7 -824.3,504.4 -998.7,504.4 -1032.2,504.4   -1032.2,508.8 -1063,508.8 -1063,508.8 -1063,508.8 -1063,427.9 -1048.4,427.9 -1048.4,373.1 -1048.4,373.1 -1048.4,373.1   -1048.4,373.1 -800.2,373.1 -800.2,373.1 -800.2,373.1 -800.2,373.1 -800.2,373.1 -800.2,372.5 -795.6,372.5 -766.2,372.5   -760.2,372 -760.2,372 -760.2,372 "
       stroke-miterlimit="10"
       style="fill:none;stroke:#999999;stroke-width:12;stroke-miterlimit:10" /><polyline
       id="polyline4559"
       points="-758.3,283.6 -758.3,283.6 -758.3,283.6   "
       stroke-miterlimit="10"
       style="fill:none;stroke:#989798;stroke-width:10;stroke-miterlimit:10" /><g
       id="g4561"><path
         id="path4563"
         d="m -598.9,-22 0,272.4 -168.6,0 0,0 c -0.2,0 -27.8,0 -27.8,0 l -168.7,0 0,0 0,-141.4 -31.6,0 0,0 -27.2,0 0,0 0,-3.1 0,0 0,1.3 26.7,-0.2 0,-1.3 0,0 0,-9.5 0,0 0,-46.2 31.6,0 0,-72.5 365.6,0.5 m -365.3,272 0,0 0,0 0,0 m 196.7,0 0,0 0,0 0,0 m 183.6,-287.3 -14.8,0 -365.7,0 -14.8,0 0,14.8 0,58.1 -17,0 -14.8,0 0,14.8 0,42.2 -11.9,0 0,13.7 -14.6,0 0,3.1 0,14.8 14.8,0 26.7,0 17,0 0,125.9 0,14.9 14.8,0 168.6,0 c 0,0 27.4,0 27.8,0 l 168.6,0 14.8,0 0,-14.8 0,-272.7 0,-14.8 0.5,0 0,0 z"
         inkscape:connector-curvature="0"
         style="fill:#989798" /></g><polyline
       id="polyline4565"
       points="-804.9,356 -804.9,356 -804.9,356 "
       stroke-miterlimit="10"
       style="fill:none;stroke:#989798;stroke-width:10;stroke-miterlimit:10" /><path
       id="path4567"
       d="m -544.1,443.3 9.5,0 0,0 0,0 -0.7,1.8 c -0.7,3.5 -3.5,6.6 -7.5,7.5 l -1.8,0.2 0,40.9 0,0 0,6.6 26.3,0 0,-49.7 0,0 0,0 0,0 0,0 0,0 2.2,0 0,-15.9 -18.1,0 0,0 -10.6,0 0,8.6 0.7,0 z"
       inkscape:connector-curvature="0"
       style="fill:#cccccc" /><rect
       id="rect4569"
       height="44"
       width="83.699997"
       y="-397.20001"
       x="-824.5"
       style="fill:#ffffff" /><path
       id="path4571"
       d="m -799.8,490.2 -1.3,0 1.3,0 0,0 -1.3,0 0,0 0,0 0,0 0,0 0,-37.2 -7.5,0 0,0 0,0 0,-0.7 -1.3,0 0,0.7 -11,0 11,0 0,-0.7 0,0 0,0 1.3,0 0,0 -0.7,0 0,0 -0.7,0 0,0.7 -11,0 0,0.9 0,0.9 0,0 0,-1.8 0,1.8 0,0 0,3.3 4.4,0 0,0 0,13.9 0,0 0,0 0,0 -19.9,0 0,0 0,0 0,0 0,-13.9 0,0 4.6,0 0,-4.2 0,-0.9 -19.2,0 0,1.3 0,0 7.1,0 0,0 0,0 -7.1,0 0,0 0,0 7.1,0 0,23 0,0 0,-23 0,23 0,0 0,-23 0,23 0,0 0,0 -22.5,0 0,0 0,0 0,-23 0,0 0,0 0,0 6.2,0 0,-0.7 0,-0.6 -7.7,0 0,0 0,0 0,-0.7 -1.1,0 0,0.7 0,0 0,0 0,0 0,0 -1.8,0.2 1.8,-0.2 0,-0.7 0,0 0,0 0,0.7 -1.8,0.2 -6.6,38.7 0,0 6.6,-38.7 -6.6,38.7 0,0 6.6,-38.7 -6.6,38.7 0,0 0,0 0,0 0,0 0,0 0,0 0,0 0,0 0,0 0,0 0,0 0,0 -16.1,-3.5 -0.2,0.9 0,0 0.2,-0.9 16.1,3.5 11.5,0 0,-11 0,0 0,0 0,0 0,0 0,0 0,0 62.1,0 0,0 0,0 0,13 0,0 0,0 -62.1,0 0,0 43.1,0 0,3.3 23.6,0 0,-3.8 -0.5,-3.2 0,0 0,0 z m -71.6,-37.2 1.8,-0.2 -1.8,0.2 z"
       inkscape:connector-curvature="0"
       style="fill:#cccccc" /><path
       id="path4573"
       d="m -959.8,-284.7 0,0 1.8,0.2 c 3.5,0.7 6.6,3.5 7.5,7.5 l 0.2,1.8 0,0 0,0 0,0 52.4,0 0,0 0,0 0,0.7 9.5,0 0,-0.7 0,0.7 0,0 0,-0.7 0,0.7 0,0 0,-0.7 0.9,0 0,0 0,0 -0.9,0 0,0 0,0 0.9,0 0,0 0,-4.2 0,0 4.4,0 0,-74.2 -78,0 0,78.2 1.8,0 -0.5,-9.3 0,0 z"
       inkscape:connector-curvature="0"
       style="fill:#cccccc" /><path
       id="path4575"
       d="m -851.7,-243.2 0,0 0,0 -3.1,0 0,15.5 0,-15.5 0,0 0,15.5 0,0 1.8,0.2 1.8,0.7 1.3,0.9 1.3,1.1 1.1,1.3 0.9,1.3 0.7,1.8 0.2,1.8 0,0 0,0 0,0 0,0 0,0 0,0 0,0 0,0 -9.1,0 0,8.8 0,-8.8 0,0 0,8.8 9.5,0 0,0 -0.2,1.8 c -0.2,3.5 -4,7.1 -7.5,7.5 l -1.8,0.2 0,19.2 27.4,0 0,-65 0,0 0,65.2 0,-65.2 -24.1,0 -0.2,2.9 0,0 z"
       inkscape:connector-curvature="0"
       style="fill:#cccccc" /><path
       id="path4577"
       d="m -888.6,-238.1 0,-0.7 -9.5,0 0,0.7 -63.2,0 0,77.6 72.9,0 -0.2,-77.6 0,0 0,0 0,0 0,0 z"
       inkscape:connector-curvature="0"
       style="fill:#cccccc" /><path
       id="path4579"
       d="m -899.2,-260.2 -0.7,0 0,0 0,-13.9 0,13.9 0,0 0,-13.9 0,13.9 0.7,0 0,0 -0.7,0 0,-13.9 -50.1,0 0,0 0,0 0,0 0,-0.4 -9.5,0 0,0.7 -1.8,0 0,34 61.4,0 0,0 0,-10.8 0,0 0,0 0.7,0 0,-9.6 0,0 z"
       inkscape:connector-curvature="0"
       style="fill:#cccccc" /><path
       id="path4581"
       d="m -851.7,-102.4 0,0 0,0 0,0 0,0.7 74.7,0 0,-67 0,-5.7 0,-4.4 -74.2,0 0,4 0,0 0,6.2 0,0 0,-6.4 0,6.2 0,0 0,0 -4.6,0 0,2 0,-2 0,0 0,2 0,0 0,0 0,0 -0.7,0 0,0 0,9.5 0.7,0 0,0 0,0 0,0 0,55.2 0,0 4.1,-0.3 0,0 z"
       inkscape:connector-curvature="0"
       style="fill:#cccccc" /><path
       id="path4583"
       d="m -888.6,-109.7 0,0 0,23.2 0,-23.2 0,0 0,23.2 0,-23.2 -7.1,0 0,0 0,0 0,0 0,-1.3 0,0 11.9,0 0,0 0,-30.1 0,0 0,0 0.7,0 0,-9.5 0,0 -0.7,0 0,0 0,0 0,0 0,0 0,-9.5 0,0 0,9.5 0,-9.5 -78,0 0,73.1 72.5,0 0,0 0,0 -72.5,0 0,0 72.5,0 0.7,-22.7 0,0 z"
       inkscape:connector-curvature="0"
       style="fill:#cccccc" /><path
       id="path4585"
       d="m -707.2,-209.2 0.7,0 0,-9.5 0,0 -0.7,0 0,0 0,0 0,0 0,0 0,0 0,0 0,-0.7 -0.9,0 0,0 0,0 0,-11 -18.6,0 0,18.1 1.3,0.2 c 1.8,0.2 3.5,1.8 4.4,3.5 l 0.7,0 -0.4,1.3 0,0.2 0.2,1.3 0,0 -0.9,0 -0.2,0.2 0.2,-0.2 -5.3,0 0,18.1 13.7,0 0,-9.7 0,0 0,0 6.2,0 0,0 -6.2,0 0,0 0,0 6.2,0 -0.4,-11.8 0,0 0,0 0,0 0,0 0,0 0,0 0,0 0.7,0 0,0 -0.7,0 z"
       inkscape:connector-curvature="0"
       style="fill:#cccccc" /><path
       id="path4587"
       d="m -711.2,-243.2 0,0 0,0 0,-4.4 -15.2,0 0,3.1 0,0 0,0 0,0 0,0 0,0 0,0 -0.7,0 0,9.5 0.7,0 0,0 0,4 19.4,0 0,-2.2 -1.8,-0.2 c -2,-0.7 -4,-1.3 -5.1,-3.1 l 0,0.2 -0.2,0.2 -0.2,0.2 -0.2,0.2 -0.7,0 -0.2,-0.2 -0.2,-0.2 -0.2,-0.2 0,-0.2 0.2,-0.2 0.2,-0.2 0.2,-0.2 0.2,0 -0.2,-0.2 -0.4,-0.4 -0.2,-0.2 0,-0.2 0.2,-0.2 0.2,0 c -0.2,-0.7 -0.7,-1.3 -0.7,-2.2 l -0.2,-1.8 0,0 9.5,0 0,-0.2 -4.4,-0.7 0,0 z m -6,6.6 0,0 0,0 0,0 0,0 0,0 0,0 z m -0.8,-6.4 1.1,0 -1.1,0"
       inkscape:connector-curvature="0"
       style="fill:#cccccc" /><path
       id="path4589"
       d="m -771.1,-171.6 43.1,0 0,-2 -9.5,0 0,0 0,0 0,0 0.2,-1.8 c 0.9,-4 3.3,-6.4 7.5,-7.5 l 1.8,-0.2 0,0 0,-21.2 -46.2,0 46.2,0 0,0 -46.2,0 0,0 0,29.4 0,0 3.5,0 0,0 0,0 -0.4,3.3 0,0 z"
       inkscape:connector-curvature="0"
       style="fill:#cccccc" /><path
       id="path4591"
       d="m -728.4,-212.5 0,0 0,0 0,-1.3 -46.4,0 0,9.7 46.8,0 0,-1.8 0,0 0,0 0,0 0,0 0,0 0,0 0,0 0,0 0.7,0 0,-6 -1.1,-0.6 0,0 z"
       inkscape:connector-curvature="0"
       style="fill:#cccccc" /><path
       id="path4593"
       d="m -728.4,-214 0,-21.2 0,0 -1.8,-0.2 c -3.5,-0.7 -6.6,-3.5 -7.5,-7.5 l -0.2,-1.8 0,0 9.5,0 0,-2 -43.1,0 0,3.3 0,0 0,0 -3.5,0 0,29.4 46.6,0 0,0 0,0 z"
       inkscape:connector-curvature="0"
       style="fill:#cccccc" /><path
       id="path4595"
       d="m -785.7,-247.8 0,-0.7 -9.5,0 0,0 0,0 0,0.7 0,0 0,0 0,0 -12.4,0 0,0 0,0 0,0 0,0 0,-0.7 0,0 0,0.7 0,-0.7 -9.1,0 0,0.7 0,0 -8,0 0,67.4 0,0 47.9,0 0,-63.2 0,0 0,-4.4 -8.9,0.2 0,0 0,0 0,0 0,-0.7 0,0 0,0.7 z"
       inkscape:connector-curvature="0"
       style="fill:#cccccc" /><path
       id="path4597"
       d="m -774.6,-168.5 0,66.3 3.3,0 0,0 0,0 0,0 0,0.7 11.7,0 0,-29.4 0,0 0,0 0,0 0,0 0,0 42.2,0 0,0 -42.2,0 42.2,0 0,0 -42.2,0 42.2,0 0,0 0,0 0,0.7 9.5,0 0,-0.7 0,0 0,-9.5 -1.8,0.2 c -4,0.9 -6.6,3.5 -7.5,7.5 l -0.2,1.8 0.2,-1.8 c 0.7,-4 3.5,-6.6 7.5,-7.5 l 1.8,-0.2 0,0 -1.8,0.2 c -4,0.9 -6.6,3.5 -7.5,7.5 l -0.2,1.8 0.2,-1.8 c 0.7,-4 3.5,-6.6 7.5,-7.5 l 1.8,-0.2 0,0 0,0 0,0 0,0 0,0 0,0 0,0 0,0 0,0 0,0 0,9.5 0.7,0 0,-18.8 0,0 0,0 0.7,0 0,-9.5 -0.7,0 0,0 0,-9.5 -4.4,0 4.2,0 0,0 -4.2,0 0,0 0,0 -59.4,0 0,0 -3.6,0.2 0,0 0,0 0,0 z"
       inkscape:connector-curvature="0"
       style="fill:#cccccc" /><path
       id="path4599"
       d="m -601.4,-226.6 -73.8,0 0,4.4 0,0 0,0 -3.3,0 0,8 0,0 0,0 0,0 -1.3,0 0,7.7 0,0 0,0 -0.7,0 0,9.5 0.7,0 0,0 0,0 0,0 0,28.9 4.4,0 0,0 0,0 0,0 0,5.7 -4.4,0 0,30.5 -0.7,0 0,9.5 0.7,0 0,0 0,0 0,0 0,21.2 4.6,0 0,0 0,0 -4.6,0 0,0 4.6,0 0,0 0,0 0,0 0,0 0,0 0,0 0,0 0,0 0,15.2 73.6,0 0,0 0,-129.9 0,-8 0.2,-2.7 0,0 z"
       inkscape:connector-curvature="0"
       style="fill:#496cb4" /><path
       id="path4601"
       d="m -679.6,-237.4 0,0 0,0 0,0 0,0 -0.7,0 0,9.5 0.7,0 0,0 0,0 0,0 0,0.7 4.4,0 0,0 0,0 0,0 73.6,0 0,-46.4 -73.6,0 0,0 -4.4,0 0,36.2 0,0 z"
       inkscape:connector-curvature="0"
       style="fill:#496cb4" /><path
       id="path4603"
       d="m -732.4,-317.9 0,0 0,37.8 0,4.4 30.1,0 0,0 0,0 0,0.7 0,0 9.5,0 0,-0.7 0,0.7 0,0 0,-0.7 0,0 0,0 0,0 0,0 13,0 0,-4.4 0,0 0,0 0,0 5.7,0 0,4.4 73.6,0 0,-78 -131.2,0 0,13.7 0,0 0,13 0,0 -1.1,0 0,9.5 0.4,0 0,-0.4 z"
       inkscape:connector-curvature="0"
       style="fill:#cccccc" /><path
       id="path4605"
       d="m -883.1,38.1 0,0 0,0 0,0 0,-21.2 -1.1,0 0,0 0,0 0,-19.9 -3.5,0 0,0 0,0 0,-16.1 -34.5,0 0,0 -0.2,0 0,25 -0.7,0 0,9.5 0.7,0 0,0 0,0 0,1.8 3.1,0 0,0 0,0 0,3.1 -0.7,0 0,9.5 0.7,0 0,0 0,0 0,19.9 36.5,0 -36.9,0 0,0 36.5,0 0,-1.8 -9.5,0 0.2,-1.8 c 0.9,-4 3.3,-6.4 7.5,-7.5 l 1.9,-0.5 -1.8,0.2 c -4,0.9 -6.4,3.3 -7.5,7.5 l -0.2,1.8 9.5,0 0,0 0,0 0.7,0 0,-9.5 -0.7,0 0,0 z"
       inkscape:connector-curvature="0"
       style="fill:#cccccc" /><path
       id="path4607"
       d="m -921.1,29.2 0.7,0 0,0 -0.7,0 0,19.9 0,-19.9 -1.8,-0.2 c -3.5,-0.7 -6.6,-3.5 -7.5,-7.5 l -0.2,-1.8 9.5,0 0,-1.7 -40.7,0 0,30.9 40.7,0 -40.7,0 0,0 40.7,0 0,-19.7 0,0 z"
       inkscape:connector-curvature="0"
       style="fill:#cccccc" /><path
       id="path4609"
       d="m -924,14.7 -9.5,0 0.2,-1.8 c 0.9,-4 3.3,-6.4 7.5,-7.5 l 1.8,-0.2 0,-25 -37.1,0 0,36.5 37.1,0 0,-2 0,0 z"
       inkscape:connector-curvature="0"
       style="fill:#cccccc" /><path
       id="path4611"
       d="m -933.5,82.5 c 0.9,-4 3.3,-6.4 7.5,-7.5 l 1.8,-0.2 0,0 0,0 0,0 0,0 0,9.5 0,0.7 0,0 0,-1 1.8,0 0,-33.5 0,0 0,33.5 -1.8,0 1.8,0 0,-33.5 -38.7,0 0,3.5 0,0 0,21.7 0,8 0,0.7 27.8,0 -0.2,-1.9 0,0 z"
       inkscape:connector-curvature="0"
       style="fill:#cccccc" /><path
       id="path4613"
       d="m -965.3,54.2 -27.8,0 0,43.3 -3.1,0 0,9.5 30.9,0 0,-52.8 0,0 0,0 z"
       inkscape:connector-curvature="0"
       style="fill:#cccccc" /><path
       id="path4615"
       d="m -925.5,170.2 0,0 0,0 0,0 0,2.2 0,-2.2 -9.5,0 0,0 0,0 0,0 0,0 0.2,-1.8 c 0.9,-4 3.5,-6.6 7.5,-7.5 l 1.8,-0.2 0,-23.9 -35.6,0 0,35.4 35.6,0 -35.6,0 0,0 35.6,0 0,-2 0,0 z"
       inkscape:connector-curvature="0"
       style="fill:#cccccc" /><path
       id="path4617"
       d="m -882,218.6 0,0 0,0 0,29.4 17,0 8,0 26.7,0 0,0 0,-47.5 0,0 0,-3.5 -51.9,0 0,12.4 -0.7,0 0,9.5 0.9,-0.3 0,0 z m 51.5,-17.9 0,47.5 0,-47.5 z"
       inkscape:connector-curvature="0"
       style="fill:#cccccc" /><path
       id="path4619"
       d="m -927.1,248 1.1,0 0,-13 -1.8,-0.2 c -4,-0.7 -6.6,-3.5 -7.5,-7.5 l -0.2,-1.8 9.5,0 0,-15 -35.6,0 0,37.5 26.3,0 8.2,0 0,0 z"
       inkscape:connector-curvature="0"
       style="fill:#cccccc" /><path
       id="path4621"
       d="m -925.3,226.1 0,0 0,0 -9.7,0 0.2,1.8 c 0.9,4 3.5,6.6 7.5,7.5 l 1.8,0.2 0.2,0 0,-9.5 0,0 z"
       inkscape:connector-curvature="0"
       style="fill:#cccccc" /><path
       id="path4623"
       d="m -925.5,210 0,-1.8 -9.5,0 0,0 0,0 0,0 0,0 0.2,-1.8 c 0.9,-4 3.5,-6.6 7.5,-7.5 l 1.8,-0.2 0,-25.6 -35.6,0 0,36.5 35.6,0.4 0,0 0,-2 0.2,0 0,0 -0.2,0 0,2 z"
       inkscape:connector-curvature="0"
       style="fill:#cccccc" /><path
       id="path4625"
       d="m -627.9,248 0,0 26.3,0 0,-77.8 0,0 0,77.8 0,-77.8 -58.3,0 0,0 0,0 0,0 0,10.4 0,0 0,0 -0.7,0 0,9.5 0.7,0 0,0 0,0 0,58.1 0,0 0,0 24.1,0 0,0 0,0 7.9,-0.2 0,0 z"
       inkscape:connector-curvature="0"
       style="fill:#cccccc" /><path
       id="path4627"
       d="m -686.7,219.1 0,0 0,0 0,29.2 15.9,0 0,0 0,0 8,0 0,0 0,0 0.7,0 0,-50.8 -24.5,0 0,12.4 0,0 0,0 -0.2,0 0.1,9.2 0,0 0,0 z"
       inkscape:connector-curvature="0"
       style="fill:#cccccc" /><path
       id="path4629"
       d="m -713.8,223.5 0,0 0,0 -18.8,0 0,24.7 26.7,0 8,0 10.4,0 -10.4,0 0,0 10.4,0 0,-25 -17,0 0,0 0,0 0,-0.2 -9.7,0 0.4,0.5 0,0 0,0 0,0 0,0 z"
       inkscape:connector-curvature="0"
       style="fill:#cccccc" /><path
       id="path4631"
       d="m -697.7,197.2 0,0 0,0 0,0 0,0 -34.5,0 0,0 0,0 0,3.3 0,-3.3 0,0 0,25.4 0,0 0,-21.7 0,21.9 0,0 0,0 0,-21.9 0,21.9 0,0 18.8,0 0,0 0,0.2 9.7,0 0,-0.2 0,0 0,0 0,0 17,0 0,-3.5 0,0 -1.8,-0.2 -1.8,-0.7 -1.3,-0.9 -1.3,-1.1 -1.1,-1.3 -0.9,-1.3 -0.7,-1.8 -0.2,-1.8 0,0 9.5,0 0,-11.9 -0.9,0 0,0 0,0 0,-1.3 0,0 0,1.1 0,-1.1 -9.5,0 -1,0.2 0,0 z"
       inkscape:connector-curvature="0"
       style="fill:#cccccc" /><path
       id="path4633"
       d="m -734.8,248.4 0,-47.7 -2.7,0 2.7,0 0,0 -2.7,0 0,0 0,-0.7 -11,0 0,-1.3 0,0 0,1.3 0,-1.3 -11.9,0 0,49.7 25.6,0 0,0 z m -2.9,-48.8 -11,0 11,0 z"
       inkscape:connector-curvature="0"
       style="fill:#cccccc" /><path
       id="path4635"
       d="m -601.4,168.7 0,-101 0,0 0,101 0,-101 -78,0 0,0 0,40.9 4.4,0 0,0 0,0 0,5.7 0,0 0,0 0,0 -4.4,0 0,49.9 4.4,0 0,0 0,0 0,4.4 0.7,0 0,0 0,0 0,0.7 0,0 9.5,0 0,-0.7 0,0.7 0,0 0,-0.7 63.4,0.1 0,0 z"
       inkscape:connector-curvature="0"
       style="fill:#cccccc" /><path
       id="path4637"
       d="m -707.2,52 -1.8,-0.2 c -3.5,-0.7 -6.6,-3.5 -7.5,-7.5 l -0.2,-1.8 9.5,0 0,-3.1 -60.5,0 0,42.2 60.5,0 0,-29.6 z"
       inkscape:connector-curvature="0"
       style="fill:#cccccc" /><path
       id="path4639"
       d="m -707.2,26.4 0,0 0,0 0,0 0,0 0,-30.3 -60.5,0.2 0,42 60.5,0 0,-2.7 -9.5,0 0.2,-1.8 c 0.7,-3.5 3.5,-6.6 7.5,-7.5 l 1.8,0.1 -1.8,0.6 c -3.5,0.7 -6.6,3.5 -7.5,7.5 l -0.2,1.8 9.5,0 0.7,0 0,-9.5 -0.7,-0.4 0,0 z"
       inkscape:connector-curvature="0"
       style="fill:#cccccc" /><path
       id="path4641"
       d="m -679.4,49.4 0,3.5 6.2,0 0,0 0,0 0,0 0,13.3 71.6,0 -71.6,0 0,0 71.6,0 0,-85.3 -38.7,0 0,0 -32.7,0 0,15.5 0,0 -6.6,0 0,0 0,42 0,0 0,-42.3 0,42.2 4.4,0 0,0 0,0 0,0 0,1.1 0,0 -4.4,0 0,0.2 0,-0.2 0,0 0,0.2 0,0 -0.7,0 0,0 0,9.5 0.9,0 0,0.3 z"
       inkscape:connector-curvature="0"
       style="fill:#cccccc" /><path
       id="path4643"
       d="m -707.2,164 0,-25.6 -1.8,-0.2 c -3.5,-0.7 -6.6,-3.5 -7.5,-7.5 l -0.2,-0.9 c -1.1,2.7 -3.5,4.4 -6.6,5.3 l -1.8,0.2 0,0 0,0 0,-9.5 0,0 0,0 0,0 -42.6,0 0,0 0,0 0,42.4 56.6,0 0,-4.4 3.9,0.2 0,0 0,0 z"
       inkscape:connector-curvature="0"
       style="fill:#cccccc" /><path
       id="path4645"
       d="m -724.7,125.1 0,0.7 9.5,0 0,-0.7 0,0 0,0 8.6,0 0,0 -8.6,0 8.6,0 0,-3.5 -9.5,0 9.5,0 0.7,0 0,-9.5 -0.9,0 0,0 0,-16.1 -4.2,0 0,0 0,0 0,0 0,0 0,-6.2 0,6.2 0,0 0,-13 -27.2,0 0,33.6 0,0 0,0 0,0 0,0 -0.2,0 0.2,8.4 13.5,0.1 0,0 0,0 z m 8.4,-5.5 c 0.7,-3.5 3.5,-6.6 7.5,-7.5 l 1.8,-0.2 -1.8,0.2 c -3.3,1.1 -6.6,4.2 -7.5,7.5 l -0.2,1.8 0.2,-1.8 z"
       inkscape:connector-curvature="0"
       style="fill:#cccccc" /><path
       id="path4647"
       d="m -855.9,129.8 9.5,0 -0.2,1.8 c -0.7,3.5 -3.5,6.6 -7.5,7.5 l -1.8,0.2 0,29.4 59.2,0 0,-9.7 0,0 1.3,0 0,0 0,-32.5 0,0 0,32.5 0,-32.5 -60.3,0 -0.2,3.3 -0.7,0 0,0 0.7,0 z"
       inkscape:connector-curvature="0"
       style="fill:#cccccc" /><path
       id="path4649"
       d="m -855.9,-3.9 0,0 0,0 0,0 0,30.1 0,0 9.5,0 -0.2,1.8 c -0.7,3.5 -3.5,6.6 -7.5,7.5 l -1.8,0.2 0,7.5 9.5,0 0,0 0,0 -0.2,1.8 -0.7,1.8 -0.9,1.3 -1.1,1.3 -1.3,1.1 -1.3,0.9 -1.8,0.7 -1.8,0.2 0,0 0,60.5 0,0 0,0 1.8,0.2 c 3.5,0.7 6.6,3.5 7.5,7.5 l 0.2,1.8 0,0 0,0 0,0 0,0 -9.7,0 0,3.1 60.3,0 0,-29.6 0,-5.8 0,0 0,-93.7 -60.3,0 -0.2,0 c 0,0 0,-0.2 0,-0.2 z"
       inkscape:connector-curvature="0"
       style="fill:#cccccc" /><path
       id="path4651"
       d="m -819.5,420.8 0,0.7 10.8,0 0,-0.7 0,0 0,0 2.7,0 0,0 -2.7,0 0,0 0,0 2.7,0 0,-26.8 -21.4,0 0,26.7 7.9,0 0,0.1 0,0 z"
       inkscape:connector-curvature="0"
       style="fill:#cccccc" /><path
       id="path4653"
       d="m -863.7,422.6 15.9,0 0,-0.7 0,0 0,0 0,0 9.7,0 0,-6.4 -0.2,0 -0.2,-0.2 0.2,0.2 0.2,0 0,-21.5 -30.3,0 0,1.3 0,0 0,26.3 4.4,0 0,0 0.3,1 0,0 0,0 z"
       inkscape:connector-curvature="0"
       style="fill:#cccccc" /><path
       id="path4655"
       d="m -868.5,434.9 0,-0.7 0,0.7 -0.7,0 0,17.7 0.7,0 0,0 0,0 0,0 0,0.7 0,0 0,-0.7 0,0.7 8,0 0,0 0,0 0.2,-1.8 c 0.7,-3.5 4,-6.6 7.5,-7.5 l 1.8,-0.2 0,0 0,0 0,0 0,0 0,9.5 19.2,0 0,0 0,0 0,0.9 10.8,0 0,-0.9 11,0 0,-0.7 0.7,0 0,-17.7 -0.7,0 0.7,0 0,0 -0.7,0 0,0 0,0 0,0 0,-0.7 -8,0 8,0 0,0 -8,0 0,-1.1 0,0 -9.5,0 0,1.3 0,0 0,0 0,0 -10.8,0 0,-0.7 0,0 -9.5,0 0,0.7 0,0 0,0 0,0 -20.7,0.5 0,0 -0.7,0 0,0 0.7,0 z"
       inkscape:connector-curvature="0"
       style="fill:#cccccc" /><path
       id="path4657"
       d="m -851.3,453.7 -9.5,0 0,0.7 0,0 0,0 0,0 0,0 0,0 0,0 0,0 -6.2,0 0,23 22.5,0 0,-23 -7.1,0 0,0 0.3,-0.7 0,0 z"
       inkscape:connector-curvature="0"
       style="fill:#cccccc" /><path
       id="path4659"
       d="m -1014.3,398 9.5,0 -0.2,1.8 c -0.7,3.5 -3.5,6.6 -7.5,7.5 l -1.8,0.2 0,0 0,0 0,80.5 8,1.3 0,0 0,0 0,0 -8,-1.3 8,1.3 0,0 0,0 0,5.7 0.7,0 0,0 0,0 0,0 0,0 0,0 0,0 0,0 0,0 0,0 0,1.8 9.1,0 0,-0.7 0,0 0,0 0,0.7 9.1,0 0,-0.7 0,-1.3 0,1.3 0,0.7 0,0 0,-0.7 0,-1.3 0,0 0.7,0 1.8,-5.7 0,0 0,0 0,0 0,0 23,3.5 0.7,-3.5 -0.7,-0.2 0,0 0,0 0.2,-0.9 0,0 0,0 0,0 0,0 21.9,4.4 0.7,-2.7 0.2,-0.7 -0.7,-0.2 0,0 0,0 0.2,-0.9 0,0 0,0 0,0 0,0 21.9,4.4 0.7,-3.5 0,0 -0.7,-0.2 0,0 0,0 0.2,-0.9 0,0 0,0 0,0 0,0 21.9,4.4 0.7,-3.5 0,0 -0.7,-0.2 0,0 0,0 0.2,-0.9 0,0 0,0 0,0 0,0 16.1,3.5 6.6,-38.7 1.8,-0.2 0,-0.7 -8.8,0 0.2,-1.3 c 0.7,-3.5 3.5,-6.4 7.1,-7.1 l 1.3,-0.2 -1.3,-0.2 c -3.3,-0.7 -6.6,-3.5 -7.1,-7.1 l -0.2,-1.3 8.8,0 0,0 0,0 0,0 0,-0.7 -1.8,-0.2 -6.6,-38.7 -16.1,3.5 0,0 0,0 0,0 0,0 0,0 0,0 -0.2,-0.9 0.2,0 0.7,-0.2 -0.7,-3.5 -21.9,4.4 0,0 0,0 0,0 0,0 0,0 0,0 -0.2,-0.9 0.2,0 0.7,-0.2 -0.7,-2.7 -21.9,4.4 0,0 0,0 0,0 0,0 0,0 0,0 -0.2,-0.9 0.2,0 0.7,-0.2 -0.7,-3.5 -21.9,4.4 0,0 0,0 0,0 0,0 0,0 0,0 -0.2,-0.9 0.2,0 0.7,-0.2 -0.7,-3.5 -21.9,3.3 0,0 0,0 -1.8,-4 -28.5,4.2 c -1.2,0.8 -1.2,0.8 -1.2,0.8 z"
       inkscape:connector-curvature="0"
       style="fill:#496cb4" /><path
       id="path4661"
       d="m -1029.1,432.1 0,0 0,0 0,1.1 8.4,0 0,-1.1 0,1.1 0,0 0,-1.1 0,0 0,0 4.2,0 0,-24.7 0,0 0,0 1.1,0 0,-9.5 -1.3,0 0,0 0,0 0,0 0,0 0,0 0,0 0,0 0,-4 -13,0 0,38 0.6,0.2 0,0 0,0 0,0 0,0 0,0 0,0 0,0 z"
       inkscape:connector-curvature="0"
       style="fill:#cccccc" /><path
       id="path4663"
       d="m -1020.8,443.1 -1.3,-0.2 c -0.7,-0.2 -1.3,-0.7 -2.2,-0.7 -2,-1.1 -3.5,-3.3 -4.2,-5.7 l -0.2,-1.3 -18.3,0 0,15.9 2.2,0 0,0 0,0 0,0 0,0 0,49.5 26.3,0 0,-65.8 -2.2,0 0,8.3 -0.1,0 z"
       inkscape:connector-curvature="0"
       style="fill:#cccccc" /><path
       id="path4665"
       d="m -717.6,461.4 0,0 0,0 0,0 0,21.7 0,0 0,0 0,0 0,0 0,8.4 4.4,0 0,0 0,0 0,0 0,2.2 0.7,0 0,0 8.8,0 0,0 15,0 0,-2.2 0,0 0,0 0,0 0,0 0,0 0,0 0,0 0,0 3.5,0 0,-16.4 0,0 0,0 0,0 0,0 0,0 0,0 0.2,0 0,0 -0.2,0 0,0 0,0 0.2,0 0,-9.5 -0.2,0 0,0 0,0 0,-9.1 -5.1,0 0,9.5 0,0 0,0 0,0 0,0 0,0 0,0 0,0 0,0 0,0 0,0 -1.8,-0.2 c -3.5,-0.7 -6.6,-3.5 -7.5,-7.5 l -0.2,-1.8 0,0 -18.8,0 0,0 1,4.9 0,0 z"
       inkscape:connector-curvature="0"
       style="fill:#cccccc" /><path
       id="path4667"
       d="m -683.8,491 0,0 0,0 0,0 0,0 0,0 0,0 0,0 0,2.2 0.7,0 0,0 8.8,0 0,0 14.8,0 0,-2.2 0,0 0,0 0,0 9.1,0 0,-34.7 -19.4,0 -0.2,1.8 c -0.7,3.5 -3.5,6.6 -7.5,7.5 l -1.8,0.2 0,0 0,0 0,-9.5 0,0 -4.6,0 0,9.1 0,0 0,0 1.8,0.2 c 3.5,0.9 6.6,3.5 7.5,7.5 l 0.2,1.8 0,0 -9.5,0 0,0 0,0 0,0 0,0 0.1,16.1 -0.2,-16.1 0,0 0.2,16.1 -0.2,-16.1 -0.2,0 0,0 0.2,0 0.2,16.1 0,0 0,0 0,0 0,0 z"
       inkscape:connector-curvature="0"
       style="fill:#cccccc" /><path
       id="path4669"
       d="m -667.9,431.8 1.8,-0.2 0,0 0,0 0,0 0,0 0,9.5 0,0 0,0 0,0 12.4,0 0,-44.9 -5.1,0 0,0 0,0 0,-2.2 -24.5,0 0,2.2 -0.2,0 0,44.6 8.4,0 0.2,-1.8 c -0.3,-3.6 3,-6.7 7,-7.2 z"
       inkscape:connector-curvature="0"
       style="fill:#cccccc" /><path
       id="path4671"
       d="m -707.2,392.3 0,0 0,-0.7 0,0.7 0,0 0,-0.7 0,0.7 9.1,-0.2 0,-0.2 0,0.2 0,0 0,-0.2 0,0.2 0,0.2 0.2,0 0,-0.7 0,0.7 0,0 0,-0.7 0,0.7 0,0 -0.2,0 0,0 -9.1,0 0,0 0,0 -0.2,1.3 -0.9,0 0,3.3 -0.7,0 0,9.5 0.7,0 0,0 0,0 0,0 0,0 0,0 0,34.7 0,0 5.3,0 0,-9.5 0,0 0,0 1.8,0.2 c 3.5,0.7 6.6,3.5 7.5,7.5 l 0.2,1.8 9.5,0 0,-44.6 -4,0 0,0 0,0 0,-2.7 -0.7,0 0,0 0,0 0,-1.8 -0.4,0 0,0 -8.8,0 0,0 -0.2,0 0,0 -9.1,0.3 -0.2,0.2 0.7,0 -0.5,-0.2 0,0 z"
       inkscape:connector-curvature="0"
       style="fill:#cccccc" /><path
       id="path4673"
       d="m -757.1,491 0,2 37.8,0 0,-38.2 0,0 0,0 0,0 19.9,0 0,0 0,0 0,0 0,0 0,0.7 9.5,0 0,-0.7 0,0 0,0 0,0 10.8,0 0,0 0,0.7 9.5,0 0,-0.7 0,0 0,0 0,0 3.5,0 0,-1.3 0,0 0,0 0,0 0.2,0 0,-9.5 0,0 0,0 0,0 0,-1.5 -0.7,0 0,0 0,0 0,-0.9 -9.5,0 0,0.7 0,0 0,0 0,0 0,0 0,0 -18.3,0 0,0 0,0 0,-0.7 -9.5,0 0,0.7 0,0 0,0 -15.2,0 0,0 0,0 0,0 -8.6,0 0,0 -0.7,0 0,0 -26.3,-0.2 0,9.1 0,0 0,0 -1.3,0 0,1.3 0,0 0,0 -4.4,0 0,0.2 0,0 0,0 -0.7,0 0,9.5 0.7,0 0,0 0,0 0,0 0,0 0,0.9 0,0 0,-0.7 0,0.9 0,27.7 3.3,0 0,0 0,0 z"
       inkscape:connector-curvature="0"
       style="fill:#cccccc" /><path
       id="path4675"
       d="m -583.9,456.1 0,0 0,37.1 0,0 13,0 0,-2.2 0,0 0,0 0,0 4.4,0 0,0 0,0 0,0 0,2 18.3,0 0,-35.6 -18.8,0 0,-1.1 -1.3,0 -0.2,1.3 c -0.9,3.3 -3.1,5.7 -6.6,6.6 l -1.3,0.2 1.3,-0.2 c 3.5,-0.7 5.7,-3.1 6.6,-6.6 l 0.2,-1.3 0,0 -0.2,1.3 c -0.9,3.3 -3.1,5.7 -6.6,6.6 l -1.3,0.2 0,0 0,0 0,0 0,0 0,-8.4 0,0 0,8.4 0,-8.4 0,0 -7.5,0 0,0.1 z"
       inkscape:connector-curvature="0"
       style="fill:#cccccc" /><path
       id="path4677"
       d="m -600,491 0,0 0,0 4.4,0 0,0 0,0 0,0 0,2.2 0.9,0 0,0 8.8,0 0,0 1.3,0 0,-37.1 -0.7,0 0,9.5 0,0 0,0 0,0 0,0 0,0 0,0 0,0 0,0 0,0 0,0 -1.8,-0.2 c -3.5,-0.7 -6.6,-3.5 -7.5,-7.5 l -0.2,-1.8 0,0 -20.3,0 0,0 0,37.1 0,0 14.4,0 0,-2.2 0.7,0 z"
       inkscape:connector-curvature="0"
       style="fill:#cccccc" /><path
       id="path4679"
       d="m -646.2,465.4 -1.8,0.2 0,0 0,0 0,-9.5 0,0 -1.3,0 0,34.7 0,0 0,2.2 19.9,0 0,-2.2 0,0 0,0 0,0 4.6,0 0,0 0,0 0,0 0,2.2 0.7,0 0,0 8.8,0 0,0 0.2,0 0,-37.1 -23.6,0 0,0 -0.2,1.8 c -0.7,4.2 -3.8,7.1 -7.3,7.7 z"
       inkscape:connector-curvature="0"
       style="fill:#cccccc" /><path
       id="path4681"
       d="m -629.4,396.3 0,0 0,-2.3 -23.9,0 0,47.3 5.1,0 0,0 0.2,-1.8 c 0.7,-3.3 4,-7.1 7.5,-7.5 l 1.8,-0.2 0,0 0,0 0,0 0,0 0,0 0,0 0,0 0,0 0,0 0,0 0,9.5 10.6,0 0,-44.9 -1.3,0 0,-0.1 0,0 0,0 z"
       inkscape:connector-curvature="0"
       style="fill:#cccccc" /><path
       id="path4683"
       d="m -625,394 0,2.2 -3.1,0 0,44.6 17.5,0 0,0 0.2,-1.8 0.7,-1.8 0.9,-1.3 1.1,-1.3 1.3,-1.1 1.3,-0.9 1.8,-0.7 1.8,-0.2 0,0 0,0 0,0 0,0 0,0 0,0 0,0 0,0 0,0 0,0 0,9.5 0.2,0 0,-9.9 0,0 0,0 0.2,0 0,0 -0.2,0 0,0 0,0 0.2,0 0,0 0,0 0,0 0,0 0,0 0.2,0 0,-4.3 0,0 0.2,0 0,-5.1 -0.7,0 0,-28.1 0,0 0,0 0,0 0,0 0.2,0 0,-2.2 -0.2,0 0,0 -8.8,0 0,0.7 0,0 -0.2,0 0,0 -8.8,0 0,0 -0.2,0 0,1.3 -5.5,0 0,0.4 z"
       inkscape:connector-curvature="0"
       style="fill:#cccccc" /><path
       id="path4685"
       d="m -535.5,396.3 0,0 0,-2.3 -30.9,0 0,2.2 -3.5,0 0,0.7 -0.7,0 0,0 0,0 0,-0.7 -0.7,0 0,0 0,0 0,0 0,0 0,-2.2 -24.1,0 0,2.2 -3.5,0 0,25.6 0,0 0,0 0,0 -0.7,0 0,4.4 0.2,0 0,0 0,4.4 0.2,0 0,0 0.2,0 0,0 0,0 0,0 0,0 0,0 0,0 0,9.9 0,0 17.7,0 0,0 0.2,-1.8 c 0.7,-3.5 3.5,-6.6 7.5,-7.5 l 1.8,-0.2 0,0 0,0 0,0 0,0 0,0 0,0 0,0 0,0 0,0 0,0 0,2 6.2,-2.7 -8.6,-3.5 8.6,-3.5 -3.5,-1.3 0.2,-0.7 0,0 0,0 4.6,1.8 -4.6,-1.8 0,0 4.6,1.8 -4.6,-1.8 -0.2,0.7 3.5,1.3 -8.6,3.5 8.6,3.5 -6.2,2.7 0,0.7 7.7,-3.1 -8.6,-3.5 8.6,-3.5 -8.6,3.5 8.6,3.5 -7.7,3.1 0,0 7.7,-3.1 -8.6,-3.5 8.6,-3.5 -8.6,3.5 8.6,3.5 -7.7,3.1 0,0.7 7.7,3.1 -4.6,1.8 0,0.7 10.6,0 0,0 0,-9.5 0,0 0,0 1.8,0.2 c 3.5,0.7 6.6,3.5 7.5,7.5 l 0.2,1.8 2.2,0 0,-10.4 0,0 0,0 0,0 14.8,0 0,-34.5 -3.9,1.2 0,0 0,0 0,0 z"
       inkscape:connector-curvature="0"
       style="fill:#cccccc" /><path
       id="path4687"
       d="m -739.3,539 0,0 0,0 0,0 0,-42.2 -23.6,0 0,0 0,0 0,0 0,-3.3 -37.1,0 0,3.3 -23.6,0 0,49.1 4.6,0 0,0 0,0 0,7.1 -4.6,0 0,27.4 4.6,0 0,0 0,0 0,7.1 0,0 -4.6,0 0,18.8 84.2,0 0,-11 296.3,0 0,-7.5 -7.1,0 0,0 0,-7.1 7.1,0 0,-27.6 -7.1,0 0,0 0,0 0,-7.1 0,0 7.1,0 0,-7.5 -296.2,0.5 0,0 z m 2.5,48.8 0,0 -7.1,0 0,0 0,-7.1 7.1,0 0,0 0,0 0,7.1 z m 117.3,0 0,0 -7.1,0 0,0 0,-7.1 7.1,0 0,0 0,0 0,7.1 z m 110.9,-41.7 0,0 7.1,0 0,0 0,7.1 -7.1,0 0,0 0,0 0,-7.1 z m 0,34.4 7.1,0 0,0 0,0 0,7.1 0,0 -7.1,0 0,0 0,-7.1 z m -59.2,-34.4 0,0 7.1,0 0,0 0,7.1 -7.1,0 0,0 0,0 0,-7.1 z m 0,34.4 7.1,0 0,0 0,0 0,7.1 0,0 -7.1,0 0,0 0,-7.1 z m -117.5,-34.4 0,0 7.1,0 0,0 0,7.1 -7.1,0 0,0 0,0 0,-7.1 z m 0,34.4 7.1,0 0,0 0,0 0,7.1 0,0 -7.1,0 0,0 0,-7.1 z m -51.5,-34.4 0,0 0,7.1 -7.1,0 0,0 0,0 0,-7.1 0,0 7.1,0 z"
       enable-background="new    "
       inkscape:connector-curvature="0"
       style="opacity:0.25;fill:#cccccc" /><path
       id="path4689"
       d="m -739.3,117 0,0 0,0 0,-33.6 -28.5,0 28.5,0 0,0 -28.5,0 28.5,0 0,0 -28.5,0 0,42.2 29.2,0 -29.2,0 0,0 0,0 29.2,0 -0.7,-8.6 0,0 0,0 z"
       inkscape:connector-curvature="0"
       style="fill:#cccccc" /><path
       id="path4691"
       d="m -874.3,-275.5 0,0 0,0 -8,0 0,0 8,0 0,0 0,0 0,0 0,0 0,0 0,0 0,0.7 9.5,0 0,-0.7 0,0.7 0,0 0,-0.7 0,0.7 0,0 0,0 0,0 0,-0.7 4.4,0 0,-12.4 0.7,0 0,0 -0.7,0 0,12.4 0,0 -4.4,0 0,0 0,0 4.4,0 0,-12.4 0,0 0.7,0 0,0 0,0 0,0 0,12.4 29.4,0 0,-4.4 0,4.4 0,0 0,-4.4 0,0 0,0 0,0 0,0 0,-39.3 0,0 0,39.1 0,-39.1 0,0 0,39.1 0,-39.1 -8.6,0 0,0 0,0 0,0 0,0 0,0 0,0 0,0 0,-0.7 0,0 0,0 0,0 8.6,0 0,0 0,-33.6 -52.4,0 0,78.2 8.4,-0.2 0,0 z m 35.4,-44.4 0,0.7 0,-0.7 z"
       inkscape:connector-curvature="0"
       style="fill:#cccccc" /><path
       id="path4693"
       d="m -961.1,136.2 34.5,0 0,-24.1 0,0 0,0 0.7,0 0,-9.1 -0.7,0 0,0 0,0 0,-0.4 -34.5,0 0,4.4 0,0 0,29.2 z"
       inkscape:connector-curvature="0"
       style="fill:#cccccc" /><path
       id="path4695"
       d="m -883.1,126 0,-7.7 0,0 -10.6,0 0,0 0,-0.7 0,0 0,0 4,0 0,-15 0,0 4.4,0 0,-17.4 -19.4,0 -0.9,0 -4.4,0 0,0 0,-0.7 -9.5,0 0,0.7 0,0 -4.9,0 0,0 0,-0.7 -9.5,0 0,0.7 0,0 -1.1,0 0,0 -26.3,0 0,15.5 19.9,0 14.4,0 0,0 0,0 0.7,0 0,0 0,0 0,1.3 0,0 0,0 -0.2,0 0,9.1 0.2,0 0,0 0,0 0,0 0,0 0,24.1 0.9,0.2 0,0 0,0 0,0 0,24.7 0,0 -0.2,0 0,9.5 0.2,0 0,0 0,0 0,28.5 0,0 0,0 -0.2,0 0,9.5 0.2,0 0,0 0,0 0,18.3 0,0 -0.2,0 0,9.5 0.2,0 0,0 0,13 42.2,0 0,-30.3 -9.5,0 0.2,-1.8 c 0.7,-3.5 3.5,-6.6 7.5,-7.5 l 1.8,-0.2 0,0 0,-12.4 -0.2,0 0,0 0,0 0,0 0,-26.7 0,0 0,26.7 0,-26.7 -4.6,0 0,0 0,-5.7 0,0 4.4,0 0,-14.8 -1.8,-0.2 c -3.5,-0.9 -6.6,-3.5 -7.5,-7.5 l -0.2,-1.8 0.2,1.8 c 0.7,3.5 3.5,6.6 7.5,7.5 l 1.8,0.2 0,14.8 0,0 0,-14.8 0,0 0,0 0,0 0.7,0 0,-9.5 -0.7,0 -9.5,0 9.5,0 0,-4.6 -9.5,0 0.2,-1.8 c 0.7,-3.5 3.5,-6.6 7.5,-7.5 l 2.3,0.4 0,-7.7 0,7.7 -1.8,0.2 c -3.5,0.9 -6.6,3.5 -7.5,7.5 l -0.2,1.8 9.5,0 0,4.6 0.7,0 0,0 0,0 -0.7,0 0,-4.6 0,0 0,0 0,0 0.7,0 0,-9.5 -0.7,0 0.7,0 0,0 0,0 0,0 -0.7,0 0,0 z"
       inkscape:connector-curvature="0"
       style="fill:#cccccc" /><path
       id="path4697"
       d="m -717.6,394.3 -35.8,0 0,3.1 0,44 26.3,0 0,1.3 8.8,0 0,0 0,-1.3 0,0 0,0 8.8,0 0,-34.7 -1.8,-0.2 c -4,-0.9 -6.4,-3.3 -7.5,-7.5 l -0.2,-1.8 0,0 9.5,0 0,-0.7 -8,0 0,0 0,0 0,0 -0.1,-2.2 0,0 z"
       inkscape:connector-curvature="0"
       style="fill:#cccccc" /><text
       id="text4699"
       font-size="17.9924"
       transform="translate(-876.8931,-308.9177)"
       style="font-size:17.99239922px;font-family:TradeGothic-CondEighteen;fill:#ffffff">1365</text>
<text
       id="text4701"
       font-size="17.9924"
       transform="translate(-680.3149,-308.9177)"
       style="font-size:17.99239922px;font-family:TradeGothic-CondEighteen;fill:#ffffff">1362</text>
<g
       id="g4703"><text
         id="text4705"
         font-size="26.9882"
         transform="translate(-662.9673,-241.7497)"
         style="font-size:26.98819923px;font-family:TradeGothic-BoldCondTwenty;fill:#ffffff">1358</text>
</g><g
       id="g4707"><text
         id="text4709"
         font-size="26.9882"
         transform="translate(-662.9673,-150.1052)"
         style="font-size:26.98819923px;font-family:TradeGothic-BoldCondTwenty;fill:#ffffff">1340</text>
</g><g
       id="g4711"><text
         id="text4713"
         font-size="26.9882"
         transform="translate(-977.3149,452.8987)"
         style="font-size:26.98819923px;font-family:TradeGothic-BoldCondTwenty;fill:#ffffff">1102</text>
</g><text
       id="text4715"
       font-size="17.9924"
       transform="translate(-656.9634,29.6292)"
       style="font-size:17.99239922px;font-family:TradeGothic-CondEighteen;fill:#ffffff">1224</text>
<text
       id="text4717"
       font-size="17.9924"
       transform="translate(-755.1118,29.6292)"
       style="font-size:17.99239922px;font-family:TradeGothic-CondEighteen;fill:#ffffff">1228</text>
<text
       id="text4719"
       font-size="17.9924"
       transform="translate(-918.0728,19.7308)"
       style="font-size:17.99239922px;font-family:TradeGothic-CondEighteen;fill:#ffffff">1223</text>
<text
       id="text4721"
       font-size="17.9924"
       transform="translate(-918.0728,69.1839)"
       style="font-size:17.99239922px;font-family:TradeGothic-CondEighteen;fill:#ffffff">1219</text>
<text
       id="text4723"
       font-size="17.9924"
       transform="translate(-842.9321,69.1839)"
       style="font-size:17.99239922px;font-family:TradeGothic-CondEighteen;fill:#ffffff">1215</text>
<text
       id="text4725"
       font-size="17.9924"
       transform="translate(-842.9321,150.6956)"
       style="font-size:17.99239922px;font-family:TradeGothic-CondEighteen;fill:#ffffff">1209</text>
<text
       id="text4727"
       font-size="17.9924"
       transform="translate(-874.4438,227.93)"
       style="font-size:17.99239922px;font-family:TradeGothic-CondEighteen;fill:#ffffff">1207</text>
<text
       id="text4729"
       font-size="17.9924"
       transform="translate(-755.1118,68.3401)"
       style="font-size:17.99239922px;font-family:TradeGothic-CondEighteen;fill:#ffffff">1222</text>
<text
       id="text4731"
       font-size="17.9924"
       transform="translate(-654.186,122.2112)"
       style="font-size:17.99239922px;font-family:TradeGothic-CondEighteen;fill:#ffffff">1212</text>
<text
       id="text4733"
       font-size="17.9924"
       transform="translate(-936.5923,-308.9177)"
       style="font-size:17.99239922px;font-family:TradeGothic-CondEighteen;fill:#ffffff">1361</text>
<text
       id="text4735"
       font-size="17.9924"
       transform="translate(-936.5923,-249.9958)"
       style="font-size:17.99239922px;font-family:TradeGothic-CondEighteen;fill:#ffffff">1359</text>
<text
       id="text4737"
       font-size="17.9924"
       transform="translate(-936.5923,-193.0036)"
       style="font-size:17.99239922px;font-family:TradeGothic-CondEighteen;fill:#ffffff">1357</text>
<text
       id="text4739"
       font-size="17.9924"
       transform="translate(-936.5923,-117.3122)"
       style="font-size:17.99239922px;font-family:TradeGothic-CondEighteen;fill:#ffffff">1339</text>
<text
       id="text4741"
       font-size="17.9924"
       transform="translate(-830.8735,-134.2028)"
       style="font-size:17.99239922px;font-family:TradeGothic-CondEighteen;fill:#ffffff">1343</text>
<text
       id="text4743"
       font-size="17.9924"
       transform="translate(-816.7837,-208.6559)"
       style="font-size:17.99239922px;font-family:TradeGothic-CondEighteen;fill:#ffffff">1353</text>
<path
       id="path4913"
       d="m -767.1,27.7 0,-32.9"
       inkscape:connector-curvature="0"
       style="fill:#cccccc" /><rect
       id="rect4915"
       height="27.799999"
       width="24.5"
       y="-3.9000001"
       x="-793.79999"
       style="fill:#cccccc" /><path
       id="path4917"
       d="m -767.1,169.1 0,-32.9"
       inkscape:connector-curvature="0"
       style="fill:#cccccc" /><rect
       id="rect4919"
       height="29.4"
       width="24.5"
       y="-129.8"
       x="-757.40002"
       style="fill:#cccccc" /><rect
       id="rect5053"
       height="2.7"
       width="21.200001"
       enable-background="new    "
       y="-312.60001"
       x="-803.09998"
       style="opacity:0.6;fill:#496cb4" /><rect
       id="rect5055"
       height="2.7"
       width="21.200001"
       enable-background="new    "
       y="-307.89999"
       x="-803.09998"
       style="opacity:0.6;fill:#496cb4" /><rect
       id="rect5057"
       height="2.7"
       width="21.200001"
       enable-background="new    "
       y="-302.89999"
       x="-803.09998"
       style="opacity:0.6;fill:#496cb4" /><rect
       id="rect5059"
       height="2.7"
       width="21.200001"
       enable-background="new    "
       y="-298.39999"
       x="-803.09998"
       style="opacity:0.6;fill:#496cb4" /><rect
       id="rect5061"
       height="2.7"
       width="21.200001"
       enable-background="new    "
       y="-293.29999"
       x="-803.09998"
       style="opacity:0.6;fill:#496cb4" /><rect
       id="rect5063"
       height="2.7"
       width="21.200001"
       enable-background="new    "
       y="-288.70001"
       x="-803.09998"
       style="opacity:0.6;fill:#496cb4" /><rect
       id="rect5065"
       height="2.7"
       width="21.200001"
       enable-background="new    "
       y="-284.10001"
       x="-803.09998"
       style="opacity:0.6;fill:#496cb4" /><rect
       id="rect5067"
       height="2.7"
       width="21.200001"
       enable-background="new    "
       y="-279.20001"
       x="-803.09998"
       style="opacity:0.6;fill:#496cb4" /><rect
       id="rect5069"
       height="2.7"
       width="21.200001"
       enable-background="new    "
       y="-312.60001"
       x="-781"
       style="opacity:0.6;fill:#496cb4" /><rect
       id="rect5071"
       height="2.7"
       width="21.200001"
       enable-background="new    "
       y="-307.89999"
       x="-781"
       style="opacity:0.6;fill:#496cb4" /><rect
       id="rect5073"
       height="2.7"
       width="21.200001"
       enable-background="new    "
       y="-302.89999"
       x="-781"
       style="opacity:0.6;fill:#496cb4" /><rect
       id="rect5075"
       height="2.7"
       width="21.200001"
       enable-background="new    "
       y="-298.39999"
       x="-781"
       style="opacity:0.6;fill:#496cb4" /><rect
       id="rect5077"
       height="2.7"
       width="21.200001"
       enable-background="new    "
       y="-293.29999"
       x="-781"
       style="opacity:0.6;fill:#496cb4" /><rect
       id="rect5079"
       height="2.7"
       width="21.200001"
       enable-background="new    "
       y="-288.70001"
       x="-781"
       style="opacity:0.6;fill:#496cb4" /><rect
       id="rect5081"
       height="2.7"
       width="21.200001"
       enable-background="new    "
       y="-284.10001"
       x="-781"
       style="opacity:0.6;fill:#496cb4" /><rect
       id="rect5083"
       height="2.7"
       width="21.200001"
       enable-background="new    "
       y="-279.20001"
       x="-781"
       style="opacity:0.6;fill:#496cb4" /><rect
       id="rect5085"
       height="2.7"
       width="15.9"
       enable-background="new    "
       y="208.89999"
       x="-826.79999"
       style="opacity:0.6;fill:#496cb4" /><rect
       id="rect5087"
       height="2.7"
       width="15.9"
       enable-background="new    "
       y="213.5"
       x="-826.79999"
       style="opacity:0.6;fill:#496cb4" /><rect
       id="rect5089"
       height="2.7"
       width="15.9"
       enable-background="new    "
       y="218.2"
       x="-826.79999"
       style="opacity:0.6;fill:#496cb4" /><rect
       id="rect5091"
       height="2.7"
       width="15.9"
       enable-background="new    "
       y="223.2"
       x="-826.79999"
       style="opacity:0.6;fill:#496cb4" /><rect
       id="rect5093"
       height="2.7"
       width="15.9"
       enable-background="new    "
       y="227.7"
       x="-826.79999"
       style="opacity:0.6;fill:#496cb4" /><rect
       id="rect5095"
       height="2.7"
       width="15.9"
       enable-background="new    "
       y="232.5"
       x="-826.79999"
       style="opacity:0.6;fill:#496cb4" /><rect
       id="rect5097"
       height="2.7"
       width="15.9"
       enable-background="new    "
       y="237.39999"
       x="-826.79999"
       style="opacity:0.6;fill:#496cb4" /><rect
       id="rect5099"
       height="2.7"
       width="15.9"
       enable-background="new    "
       y="241.8"
       x="-826.79999"
       style="opacity:0.6;fill:#496cb4" /><rect
       id="rect5101"
       height="2.7"
       width="15.9"
       enable-background="new    "
       y="208.89999"
       x="-809.70001"
       style="opacity:0.6;fill:#496cb4" /><rect
       id="rect5103"
       height="2.7"
       width="15.9"
       enable-background="new    "
       y="213.5"
       x="-809.70001"
       style="opacity:0.6;fill:#496cb4" /><rect
       id="rect5105"
       height="2.7"
       width="15.9"
       enable-background="new    "
       y="218.2"
       x="-809.70001"
       style="opacity:0.6;fill:#496cb4" /><rect
       id="rect5107"
       height="2.7"
       width="15.9"
       enable-background="new    "
       y="223.2"
       x="-809.70001"
       style="opacity:0.6;fill:#496cb4" /><rect
       id="rect5109"
       height="2.7"
       width="15.9"
       enable-background="new    "
       y="227.7"
       x="-809.70001"
       style="opacity:0.6;fill:#496cb4" /><rect
       id="rect5111"
       height="2.7"
       width="15.9"
       enable-background="new    "
       y="232.5"
       x="-809.70001"
       style="opacity:0.6;fill:#496cb4" /><rect
       id="rect5113"
       height="2.7"
       width="15.9"
       enable-background="new    "
       y="237.39999"
       x="-809.70001"
       style="opacity:0.6;fill:#496cb4" /><rect
       id="rect5115"
       height="2.7"
       width="15.9"
       enable-background="new    "
       y="241.8"
       x="-809.70001"
       style="opacity:0.6;fill:#496cb4" /><g
       id="g5117"
       style="opacity:0.5"><g
         id="g5119"><text
           id="text5121"
           font-size="37.4839"
           transform="translate(-1294.1782,-319.0934)"
           style="font-size:37.48389816px;font-family:TradeGothic-BoldCondTwenty;fill:#999999">Level </text>
</g><circle
         id="circle5123"
         r="63.599998"
         cy="-325.20001"
         cx="-1144.5"
         style="fill:#999999" /><text
         id="text5125"
         font-size="119.9481"
         transform="translate(-1175.6079,-277.82)"
         style="font-size:119.94809723px;font-family:TradeGothic-BoldCondTwenty;fill:#ffffff">1</text>
</g><polygon
       id="polygon5137"
       points="-781.9,-363.4 -796,-387.3 -768.4,-387.3 "
       style="fill:#496cb4" /><path
       id="path5165"
       d="m -678.3,-202.1 -1.8,-0.2 c -3.3,-0.2 -6.6,-4 -7.5,-7.5 l -0.2,-1.8 9.5,0 0,10.4"
       inkscape:connector-curvature="0"
       style="fill:#496cb4" /><path
       id="path5167"
       d="m -678.3,-141.6 -1.8,0.2 c -3.5,0.7 -6.6,3.5 -7.5,7.5 l -0.2,1.8 9.5,0 0,-9.5 0,0 z"
       inkscape:connector-curvature="0"
       style="fill:#496cb4" /><g
       id="g5191"><g
         id="g5193"><path
           id="path5195"
           d="m -752.1,-197.7 c -1.1,0 -2,-0.9 -2,-2 0,-1.1 0.9,-2 2,-2 1.1,0 2,0.9 2,2 0.2,1.1 -0.9,2 -2,2 z"
           inkscape:connector-curvature="0"
           style="fill:#4a6db4" /><path
           id="path5197"
           d="m -750.7,-197 c 2.2,0 2.7,1.3 3.1,2.2 l 1.8,6.2 c 0.2,0.7 0,0.9 -0.7,0.9 -0.7,0.2 -0.7,-0.2 -0.9,-0.7 l -1.3,-5.3 c -0.2,-0.2 -0.2,-0.7 -0.7,-0.7 -0.2,0.2 -0.2,0.2 -0.2,0.7 l 2.7,9.7 -3.1,0 c 0,4 0,7.5 0,7.5 0,0.9 -0.7,1.1 -0.7,1.1 -0.2,0 -0.9,-0.2 -0.9,-1.1 0,-0.9 0,-7.1 0,-7.1 0,-0.2 -0.2,-0.7 -0.7,-0.7 -0.4,0 -0.7,0.2 -0.7,0.7 0,0 0,5.7 0,7.1 0,1.3 -0.7,1.1 -0.7,1.1 -0.2,0 -0.7,-0.2 -0.7,-1.1 0,0 0,-3.5 0,-7.5 l -3.1,0 2.7,-9.7 c 0.2,-0.2 0.2,-0.7 -0.2,-0.7 -0.4,0 -0.7,0 -0.7,0.7 l -1.3,5.3 c -0.2,0.7 -0.7,0.7 -0.9,0.7 -0.7,-0.2 -0.7,-0.7 -0.7,-0.9 l 1.8,-6.2 c 0.2,-0.9 0.9,-2.2 3.1,-2.2 l 3,0 z"
           inkscape:connector-curvature="0"
           style="fill:#4a6db4" /></g><g
         id="g5199"><g
           id="g5201"><path
             id="path5203"
             d="m -752.3,-241.9 c -1.3,0 -2.2,-0.9 -2.2,-2.2 0,-1.3 0.9,-2.2 2.2,-2.2 1.3,0 2.2,0.9 2.2,2.2 -0.4,1.1 -1.1,2.2 -2.2,2.2 z"
             inkscape:connector-curvature="0"
             style="fill:#4a6db4" /></g><path
           id="path5205"
           d="m -756.5,-235.9 0,5.1 c 0,0.9 -0.7,1.1 -0.9,1.1 -0.7,0 -0.9,-0.2 -0.9,-1.1 l 0,-6.6 c 0,-2.7 1.3,-3.5 4,-3.5 l 4,0 c 2.2,0 4,0.7 4,3.5 l 0,6.6 c 0,0.9 -0.2,1.1 -0.9,1.1 -0.7,0 -0.9,-0.2 -0.9,-1.1 l 0,-5.1 c 0,-0.7 -0.2,-0.7 -0.7,-0.7 -0.2,0 -0.7,0.2 -0.7,0.7 0,0.7 0,17.7 0,17.7 0,1.1 -0.9,1.3 -1.3,1.3 -0.2,0 -1.3,-0.2 -1.3,-1.3 0,-0.9 0,-10.4 0,-10.4 0,-0.2 0,-0.7 -0.2,-0.7 -0.2,0 -0.2,0.2 -0.2,0.7 0,0 0,9.1 0,10.4 0,1.3 -0.9,1.3 -1.3,1.3 -0.2,0 -0.7,-1.1 -0.7,-2.2 -0.2,-11.3 -0.9,-17.5 -0.9,-17.5 0,-0.4 -1.1,-0.4 -1.1,0.7 z"
           inkscape:connector-curvature="0"
           style="fill:#4a6db4" /></g></g><rect
       id="rect5223"
       height="40.400002"
       width="33.599998"
       y="363.79999"
       x="-795.79999"
       style="fill:#ffffff" /><rect
       id="rect5225"
       height="29.4"
       width="29.9"
       y="494.39999"
       x="-793.70001"
       style="fill:#ffffff" /><g
       id="g5227"><g
         id="g5229"><path
           id="path5231"
           d="m -861.4,398.7 c -1.1,0 -2,-0.9 -2,-2 0,-1.1 0.9,-2 2,-2 1.1,0 2,0.9 2,2 0.2,1.1 -0.9,2 -2,2 z"
           inkscape:connector-curvature="0"
           style="fill:#4a6db4" /><path
           id="path5233"
           d="m -860.1,399.4 c 2.2,0 2.7,1.3 3.1,2.2 l 1.8,6.2 c 0.2,0.7 0,0.9 -0.7,0.9 -0.7,0.2 -0.7,-0.2 -0.9,-0.7 l -1.3,-5.3 c -0.2,-0.2 -0.2,-0.7 -0.7,-0.7 -0.2,0.2 -0.2,0.2 -0.2,0.7 l 2.7,9.7 -3.1,0 c 0,4 0,7.5 0,7.5 0,0.9 -0.7,1.1 -0.7,1.1 -0.2,0 -0.9,-0.2 -0.9,-1.1 0,-0.9 0,-7.1 0,-7.1 0,-0.2 -0.2,-0.7 -0.7,-0.7 -0.5,0 -0.7,0.2 -0.7,0.7 0,0 0,5.7 0,7.1 0,1.3 -0.7,1.1 -0.7,1.1 -0.2,0 -0.7,-0.2 -0.7,-1.1 0,0 0,-3.5 0,-7.5 l -3.1,0 2.7,-9.7 c 0.2,-0.2 0.2,-0.7 -0.2,-0.7 -0.4,0 -0.7,0 -0.7,0.7 l -1.3,5.3 c -0.2,0.7 -0.7,0.7 -0.9,0.7 -0.7,-0.2 -0.7,-0.7 -0.7,-0.9 l 1.8,-6.2 c 0.2,-0.9 0.9,-2.2 3.1,-2.2 l 3,0 z"
           inkscape:connector-curvature="0"
           style="fill:#4a6db4" /></g><g
         id="g5235"><g
           id="g5237"><path
             id="path5239"
             d="m -847.7,398.5 c -1.1,0 -2,-0.7 -2,-2 0,-1.1 0.7,-2 2,-2 1.3,0 2,0.7 2,2 -0.5,1.1 -0.9,2 -2,2 z"
             inkscape:connector-curvature="0"
             style="fill:#4a6db4" /></g><path
           id="path5241"
           d="m -851.3,403.8 0,4.4 c 0,0.7 -0.7,0.9 -0.7,0.9 -0.7,0 -0.7,-0.2 -0.7,-0.9 l 0,-5.7 c 0,-2.2 1.1,-3.1 3.5,-3.1 l 3.5,0 c 2,0 3.5,0.7 3.5,3.1 l 0,5.7 c 0,0.7 -0.2,0.9 -0.7,0.9 -0.7,0 -0.7,-0.2 -0.7,-0.9 l 0,-4.4 c 0,-0.7 -0.2,-0.7 -0.7,-0.7 -0.2,0 -0.7,0.2 -0.7,0.7 0,0.7 0,15.5 0,15.5 0,0.9 -0.7,1.1 -1.1,1.1 -0.2,0 -1.1,-0.2 -1.1,-1.1 0,-0.7 0,-9.1 0,-9.1 0,-0.2 0,-0.7 -0.2,-0.7 -0.2,0 -0.2,0.2 -0.2,0.7 0,0 0,8 0,9.1 0,1.1 -0.7,1.1 -1.1,1.1 -0.2,0 -0.4,-0.9 -0.4,-1.8 -0.2,-9.7 -0.9,-15.2 -0.9,-15.2 -0.4,-0.5 -1.3,-0.7 -1.3,0.4 z"
           inkscape:connector-curvature="0"
           style="fill:#4a6db4" /></g></g><rect
       id="rect5245"
       height="31.4"
       width="28.5"
       y="456.60001"
       x="-840"
       style="fill:#496cb4" /><text
       id="text5247"
       font-size="34.0142"
       transform="translate(-835.6899,484.8675)"
       style="font-size:34.0141983px;font-family:MyriadPro-Regular;fill:#ffffff">E</text>
<line
       id="line5249"
       y2="504.79999"
       x2="-798"
       y1="370"
       x1="-798"
       stroke-miterlimit="10"
       style="fill:none;stroke:#969696;stroke-width:12;stroke-miterlimit:10" /><line
       id="line5251"
       y2="504.79999"
       x2="-758.29999"
       y1="368.70001"
       x1="-758.29999"
       stroke-miterlimit="10"
       style="fill:none;stroke:#969696;stroke-width:12;stroke-miterlimit:10" /><rect
       id="rect5253"
       height="44.200001"
       width="31.6"
       y="414.79999"
       x="-814.59998"
       style="fill:#ffffff" /><polygon
       id="polygon5255"
       points="-794.7,432.5 -771.3,417.9 -770.4,445.5 "
       style="fill:#496cb4" /><g
       id="g5257"><g
         id="g5259"><path
           id="path5261"
           d="m -822.6,398.7 c -1.1,0 -2,-0.9 -2,-2 0,-1.1 0.9,-2 2,-2 1.1,0 2,0.9 2,2 0.3,1.1 -0.8,2 -2,2 z"
           inkscape:connector-curvature="0"
           style="fill:#4a6db4" /><path
           id="path5263"
           d="m -821.2,399.4 c 2.2,0 2.7,1.3 3.1,2.2 l 1.8,6.2 c 0.2,0.7 0,0.9 -0.7,0.9 -0.7,0.2 -0.7,-0.2 -0.9,-0.7 l -1.3,-5.3 c -0.2,-0.2 -0.2,-0.7 -0.7,-0.7 -0.2,0.2 -0.2,0.2 -0.2,0.7 l 2.7,9.7 -3.1,0 c 0,4 0,7.5 0,7.5 0,0.9 -0.7,1.1 -0.7,1.1 -0.2,0 -0.9,-0.2 -0.9,-1.1 0,-0.9 0,-7.1 0,-7.1 0,-0.2 -0.2,-0.7 -0.7,-0.7 -0.4,0 -0.7,0.2 -0.7,0.7 0,0 0,5.7 0,7.1 0,1.3 -0.7,1.1 -0.7,1.1 -0.2,0 -0.7,-0.2 -0.7,-1.1 0,0 0,-3.5 0,-7.5 l -3.1,0 2.7,-9.7 c 0.2,-0.2 0.2,-0.7 -0.2,-0.7 -0.4,0 -0.7,0 -0.7,0.7 l -1.3,5.3 c -0.2,0.7 -0.7,0.7 -0.9,0.7 -0.7,-0.2 -0.7,-0.7 -0.7,-0.9 l 1.8,-6.2 c 0.2,-0.9 0.9,-2.2 3.1,-2.2 l 3,0 z"
           inkscape:connector-curvature="0"
           style="fill:#4a6db4" /></g><g
         id="g5265"><g
           id="g5267"><path
             id="path5269"
             d="m -808.6,398.5 c -1.1,0 -2,-0.7 -2,-2 0,-1.1 0.7,-2 2,-2 1.3,0 2,0.7 2,2 -0.5,1.1 -1.1,2 -2,2 z"
             inkscape:connector-curvature="0"
             style="fill:#4a6db4" /></g><path
           id="path5271"
           d="m -812.4,403.8 0,4.4 c 0,0.7 -0.7,0.9 -0.7,0.9 -0.7,0 -0.7,-0.2 -0.7,-0.9 l 0,-5.7 c 0,-2.2 1.1,-3.1 3.5,-3.1 l 3.5,0 c 2,0 3.5,0.7 3.5,3.1 l 0,5.7 c 0,0.7 -0.2,0.9 -0.7,0.9 -0.7,0 -0.7,-0.2 -0.7,-0.9 l 0,-4.4 c 0,-0.7 -0.2,-0.7 -0.7,-0.7 -0.2,0 -0.7,0.2 -0.7,0.7 0,0.7 0,15.5 0,15.5 0,0.9 -0.7,1.1 -1.1,1.1 -0.2,0 -1.1,-0.2 -1.1,-1.1 0,-0.7 0,-9.1 0,-9.1 0,-0.2 0,-0.7 -0.2,-0.7 -0.2,0 -0.2,0.2 -0.2,0.7 0,0 0,8 0,9.1 0,1.1 -0.7,1.1 -1.1,1.1 -0.2,0 -0.4,-0.9 -0.4,-1.8 -0.2,-9.7 -0.9,-15.2 -0.9,-15.2 -0.4,-0.5 -1.3,-0.7 -1.3,0.4 z"
           inkscape:connector-curvature="0"
           style="fill:#4a6db4" /></g></g></g></svg>