<?xml version="1.0" encoding="utf-8"?>
<!-- Generator: Adobe Illustrator 19.1.0, SVG Export Plug-In . SVG Version: 6.00 Build 0)  -->
<svg version="1.1" id="Layer_1" xmlns="http://www.w3.org/2000/svg" xmlns:xlink="http://www.w3.org/1999/xlink" x="0px" y="0px"
	 viewBox="0 0 864 1080" style="enable-background:new 0 0 864 1080;" xml:space="preserve">
<style type="text/css">
	.st0{fill:#989798;}
	.st1{fill:#CDCCCC;}
	.st2{fill:#4B6DB4;}
	.st3{opacity:0.5;fill:#CDCCCC;enable-background:new    ;}
	.st4{fill:none;}
	.st5{font-family:'MyriadPro-Regular';}
	.st6{font-size:34.0142px;}
	.st7{opacity:0.6;fill:#4B6DB4;enable-background:new    ;}
	.st8{opacity:0.5;}
	.st9{fill:#989898;}
	.st10{font-family:'ArialMT';}
	.st11{font-size:37.4839px;}
	.st12{fill:#FFFFFF;}
	.st13{font-size:119.9481px;}
	.st14{font-size:26.9882px;}
	.st15{fill:#4C6EB5;}
</style>
<g>
	<g>
		<path class="st0" d="M728.6,34.1V358h-49.7v72.7h49.7v323.9H531.5V754H528v0.7V794h11v86.4h-1.8l-9.5,34.2v5.7H811v53.5v0.2h13
			h3.5v18.3v58.8h-2.7h-31.2v-3.3H229.3v3.5h-31.2H195v-58.8v-18.1h16.1V921h283.5v-5.7l-9.5-34.5h-1.3V794l11-39.1v-0.7h-3.5v0.7
			H294.2V431h49.7v-72.7h-49.7V34.4h162v18.1v1.3v71.4h3.1h27.8V69H535v35.4v21.2h27.8h3.1v-72v-1.3V34.2L728.6,34.1 M422.6,449.3
			h177.2V338.8H422.6V449.3 M527.5,910.7l8.4-30.9h-8.4V910.7 M494.8,910.7v-30.9h-8.4L494.8,910.7 M743.6,19.1h-14.8H566.6h-14.8
			v14.8V52v1.3v56.6h-0.7v-6.4V68.8v-15h-14.8H488h-14.8v14.8v42h-0.7V53.8v-1.3V34.2V19.4h-14.8H295.1h-14.8v14.8V358v14.8h14.8
			h34.5v43.4h-34.5h-14.8V431v323.7v14.8h14.8h180.7l-5.7,19.9l-0.7,1.8v2v86.2v14.8h5.1l2.7,9.7H211.4h-14.8v14.8v38.7h-1.3h-14.8
			v14.8v18.3v58.8v14.7h14.8h3.1h30.9h14.8v-3.5h533.8v3.5h14.8h31.2h2.7h14.8v-14.8v-58.8v-18.6V957h-14.8h-1.1v-38.2V904h-15
			H545.4l2.7-9.7h5.1v-14.8v-86v-14.8h-11.3v-9.1h185.4h14.8v-14.8V431.2v-14.8h-14.8h-34.5v-43.1h34.5h14.8v-14.8V34.1L743.6,19.1
			L743.6,19.1z M437.8,354.3h146.9v80.2H437.8V354.3L437.8,354.3z"/>
	</g>
</g>
<path class="st1" d="M339.7,971l0.2-1.8l0.7-1.8l0.7-1.3l0.9-1.3l1.3-1.3l1.3-0.9l1.3-0.7l1.8-0.7l1.8-0.2v10.8h3.5v-47.7h-34.5
	v47.7L339.7,971L339.7,971z"/>
<path class="st2" d="M637.3,125.6v5.3h-4.4v3.3H632V145h0.9v3.1h93V37.2h-93V126L637.3,125.6L637.3,125.6z"/>
<path class="st2" d="M632.7,160.7H632v10.8h0.9v19.9h4.4v5.7h-4.4v45.7h93v-93.5h-93v11L632.7,160.7L632.7,160.7z"/>
<path class="st1" d="M304.6,971l0.2-1.8l0.7-1.8l0.7-1.3l0.9-1.3l1.3-1.3l1.3-0.9l1.3-0.7l1.8-0.7l1.8-0.2v10.8h3.5v-47.7h-34.2
	v47.7L304.6,971L304.6,971z"/>
<path class="st1" d="M237.2,971h0.7l0.2-1.8l0.7-1.8l0.7-1.3l0.9-1.3l1.3-1.3l1.3-0.9l1.3-0.7l1.8-0.7l1.8-0.2v10.8h0.7v-47.7h-32.9
	v47.3L237.2,971L237.2,971L237.2,971z"/>
<path class="st1" d="M269.9,971l0.2-1.8l0.7-1.8l0.7-1.3l0.9-1.3l1.3-1.3l1.3-0.9l1.3-0.7l1.8-0.7l1.8-0.2v10.8h3.5v-47.7h-34.2
	v47.7L269.9,971L269.9,971z"/>
<path class="st1" d="M298,996.2v10.8l-1.8-0.2l-1.8-0.7l-1.3-0.7l-1.3-1.1l-1.3-1.3l-0.9-1.3l-0.7-1.8l-0.7-1.8l-0.2-1.8h-19.2v47.3
	h33.8v-47.5h-4.4l0,0L298,996.2L298,996.2z"/>
<path class="st1" d="M568.8,130h20.5v0.9h11V130h30.5v-4.4V36.8h-61.4v17v71.4L568.8,130L568.8,130z"/>
<path class="st2" d="M632.7,245.1H632v10.8h0.9v1.3h4.4v5.3h-4.4v51H632v11h0.9V336h4v19.2h42.4h46.6V244.3h-93L632.7,245.1
	L632.7,245.1z"/>
<path class="st1" d="M332.9,996.2v10.8l-1.8-0.2l-1.8-0.7l-1.3-0.7l-1.3-1.1l-1.3-1.3l-0.9-1.3l-0.7-1.8l-0.7-1.8l-0.2-1.8h-19.4
	v47.3H338v-47.5L332.9,996.2L332.9,996.2L332.9,996.2z"/>
<path class="st1" d="M583.6,971l0.2-1.8l0.7-1.8l0.7-1.3l0.9-1.3l1.3-1.3l1.3-0.9l1.8-0.7l1.8-0.7l1.8-0.2v10.8h3.5v-47.7h-34.2
	v47.7L583.6,971L583.6,971z"/>
<path class="st1" d="M548.7,971l0.2-1.8l0.7-1.8l0.7-1.3l0.9-1.3l1.3-1.3l1.3-0.9l1.3-0.7l1.8-0.7l1.8-0.2v10.8h4v-47.7h-33.4v13.3
	v34.5L548.7,971L548.7,971z"/>
<path class="st1" d="M655.9,588.9L655.9,588.9 M655.9,588.7L655.9,588.7"/>
<path class="st1" d="M653.7,971l0.2-1.8l0.7-1.8l0.7-1.3l1.1-1.3l1.3-1.3l1.3-0.9l1.8-0.7l1.8-0.7l1.8-0.2v10.8h3.5v-47.7h-34.2
	v47.7L653.7,971L653.7,971z"/>
<path class="st1" d="M685.5,600.4h-2l-0.2,1.8l-0.9,1.8l-0.7,1.3l-0.9,1.3l-1.3,1.3l-1.3,0.9l-1.3,0.7l-1.8,0.7l-1.8,0.2v-10.8h-1.8
	v15h-38v1.8h11l-0.2,1.8l-0.7,1.8l-0.7,1.8l-0.9,1.3l-1.3,1.3l-1.3,1.1l-1.3,0.7l-1.8,0.7l-1.8,0.2V641h91.3v-43.3h-40.7
	L685.5,600.4L685.5,600.4z"/>
<path class="st1" d="M632.5,652.4h4.6v5.7h-4.6v3.3h11l-0.2,1.8l-0.7,1.8l-0.7,1.3l-0.9,1.3l-1.3,1.3l-1.3,0.9l-1.3,0.7l-1.8,0.7
	l-1.8,0.2v18.3h-0.7v8h-0.7v10.8h0.7v42.6H726V642.9h-93L632.5,652.4L632.5,652.4z"/>
<path class="st1" d="M374,971l0.2-1.8l0.7-1.8l0.7-1.3l0.9-1.3l1.3-1.3l1.3-0.9l1.3-0.7l1.8-0.7l1.8-0.2v10.8h3.3v-47.7h-33.6v47.7
	L374,971L374,971z"/>
<path class="st1" d="M629.2,708.9l-1.8-0.7l-1.3-0.7l-1.3-0.9l-1.3-1.3l-0.9-1.3l-0.7-1.3l-0.7-1.8l-0.2-1.8h10.8v-8h-23l-0.2,1.8
	l-0.7,1.8l-0.7,1.3l-0.9,1.3l-1.3,1.3l-1.3,0.9l-1.3,0.7l-2.4,0.9l-1.8,0.2v-10.8h-28.7v4.4V751v0.2h62.1v-42.6h-2.2L629.2,708.9
	L629.2,708.9z"/>
<path class="st1" d="M618.6,971l0.2-1.8l0.7-1.8l0.7-1.3l0.9-1.3l1.3-1.3l1.3-0.9l1.3-0.7l1.8-0.7l1.8-0.2v10.8h3.5v-47.7h-34.2
	v47.7L618.6,971L618.6,971z"/>
<path class="st1" d="M422.1,957.1l1.8,0.7l1.8,0.7l1.3,1.1l1.3,1.3l1.1,1.3l0.7,1.8l0.7,1.8l0.2,1.8h-10.8v1.1h32.5v-46.2h-32.5
	v33.8L422.1,957.1z"/>
<path class="st1" d="M407.3,950.6l0.2-1.8l0.7-1.3l0.9-1.3l0.9-1.3l1.3-0.9l1.3-0.9l1.3-0.7l1.8-0.2v9.1h1.8v-27.4H389v27.6h18.1
	v-0.4h0.2C407.3,951.1,407.3,950.6,407.3,950.6z"/>
<path class="st1" d="M647.7,533.3l-1.3,0.7l-1.8,0.7l-1.8,0.2V524h-5.3v1.8h-4.6v30.5l1.8,0.2l1.8,0.7l1.3,0.7l1.3,0.9l1.3,1.3
	l0.9,1.3l0.7,1.3l0.7,1.8l0.2,1.8h-11v0.7h36v-44.2H653l-0.2,1.8l-0.7,1.8l-0.7,1.3l-0.9,1.3"/>
<path class="st1" d="M465,947.1L465,947.1l-0.2,0.7v0.7l0.2,0.2l0.2,0.2v0.7l-0.2,0.2h-0.2v8.8h14.1l0.2-1.8l0.7-1.8l0.7-1.3
	l0.9-1.3l1.3-1.3l1.3-0.9l1.3-0.7l1.8-0.7l1.8-0.2v10.8h2.2v-21.7v-13.3h-27.2L465,947.1L465,947.1z"/>
<path class="st1" d="M564.2,250.7l0.7-1.8l0.7-1.8l0.9-1.3l1.3-1.3l1.3-1.1l1.3-0.7l1.8-0.7l1.8-0.2V216h-55.5v34.9h4v3.3h51.3v-0.9
	H563L564.2,250.7L564.2,250.7z"/>
<path class="st1" d="M576.6,212.7v21.2h15v-11.5h8v-13.3h0.7v-10.8h-0.4v-0.7h-1.1v-13.3h-21.9v21.2"/>
<path class="st1" d="M600,168v-0.7h-4.4v-4.4h-18.3v2.2h-0.9v10.8h0.9v6.2h23V179"/>
<path class="st1" d="M793.6,976.1h11l-0.2,1.8l-0.7,1.8L803,981l-0.9,1.3l-1.3,1.3l-1.3,0.9l-1.8,0.7l-1.8,0.7l-1.8,0.2v8.8h0.7h7.1
	h0.2h7.1v0.2h1.3h7.1h0.2h7.1V973h-12.8H794v2.2v0.7L793.6,976.1L793.6,976.1z"/>
<path class="st1" d="M575.3,202.9v-26.7l-1.8-0.2l-1.8-0.7l-1.3-0.7l-1.3-0.9l-1.3-1.3l-0.9-1.3l-0.7-1.3l-0.7-1.8l-0.2-1.8h11v-1.8
	h-52.1v3.3l0,0h-4v35.6h55L575.3,202.9L575.3,202.9z"/>
<path class="st1" d="M263.3,996.2v10.8l-1.8-0.2l-1.8-0.7l-1.8-0.7l-1.3-1.1l-1.3-1.3l-0.9-1.3l-0.7-1.8l-0.7-1.8l-0.2-1.8h-0.7v1.3
	h-18.3v46h33.6v-47.3L263.3,996.2L263.3,996.2z"/>
<path class="st1" d="M353.4,495.9h0.9v-11h-0.9v-23h0.9v-11h-0.9v-17h-9.7h-46.4v63L353.4,495.9L353.4,495.9L353.4,495.9z"/>
<path class="st1" d="M353.4,577h0.9v-10.8h-0.9V566h-56.1v32.7h56.1V577z"/>
<path class="st1" d="M353.4,610.4h0.9v-10.8h-0.9v-0.2h-56.1v29.4h56.1V610.4z"/>
<path class="st1" d="M353.4,543.2h0.9v-11h-0.9v-0.7h-56.1v33.4h56.1V543.2z"/>
<path class="st1" d="M353.4,529.9h0.9v-10.8h-0.9v-21.6h-56.1v33.4h56.1V529.9z"/>
<path class="st1" d="M646.6,996.2v10.8l-1.8-0.2l-1.8-0.7l-1.3-0.7l-1.3-1.1l-1.3-1.3l-0.9-1.3l-0.7-1.8l-0.7-1.8l-0.2-1.8h-19.2
	v47.3h34.2v-47.5L646.6,996.2L646.6,996.2L646.6,996.2z"/>
<path class="st3" d="M390.3,431.8h0.7v18.8h4v-11l1.8,0.2l1.8,0.7l1.3,0.7l1.3,0.9l1.3,1.3l1.1,1.3l0.7,1.3l0.7,1.8l0.2,1.8l0.2-1.8
	l0.6-1.8l0.7-1.3l0.9-1.3l1.3-1.3l1.3-0.9l1.8-0.7l1.8-0.7l1.8-0.2v11h4.4v-1.1h1.1v-110H420v-0.7h-4.4v11l-1.3-0.2l-1.8-0.7
	l-1.8-0.7l-1.3-0.9l-1.3-1.3l-0.9-1.3l-0.7-1.8l-0.7-1.8l-0.2-1.8l-0.2,1.8l-0.7,1.8l-0.7,1.8l-1.1,1.3l-1.3,1.3l-1.3,0.9l-1.3,0.7
	l-1.8,0.7l-1.8,0.2v-11h-4v18.8h-0.7v0.7h-46.4V431h46.4L390.3,431.8L390.3,431.8z M420.6,339.9h0.9v109.6h-0.9V339.9z M346.3,431
	h-0.9v-72.5h0.9V431L346.3,431z"/>
<path class="st1" d="M576.6,996.2v10.8l-1.8-0.2l-1.8-0.7l-1.3-0.7l-1.3-1.1l-1.3-1.3l-1.1-1.8l-0.7-1.8l-0.7-1.8l-0.2-1.8h-19.2
	v47.7h34.5V996L576.6,996.2L576.6,996.2z"/>
<path class="st3" d="M632.5,357.6H632v-18.8h-4v11l-1.8-0.2l-1.8-0.7l-1.3-0.7l-1.3-0.9l-1.3-1.3l-0.9-1.3L619,343l-0.7-1.8
	l-0.7-2.2l-0.2,1.8l-0.7,1.8l-0.7,1.8l-0.9,1.3l-1.3,1.3l-1.3,0.9l-1.3,0.7l-1.8,0.7l-1.8,0.2v-11H603v0.7h-1v110.3h1.1v0.7h4.6v-11
	l1.8,0.2l1.8,0.7l1.3,0.7l1.3,0.9l1.3,1.3l0.9,1.3l0.7,1.3l0.7,1.8l0.2,1.8l0.2-1.8l0.7-1.8l0.7-1.3l0.9-1.3l1.3-1.3l1.3-0.9
	l1.3-0.7l1.8-0.7l1.8-0.2v11h4v-18.4v-0.7h0.7h47.3v-72.7h-46.8L632.5,357.6L632.5,357.6L632.5,357.6z M602.2,449.3h-0.9V339.9h0.9
	V449.3z M676.7,358.5h0.9V431h-0.9V358.5z"/>
<path class="st1" d="M354.3,674.2v-10.8h-0.9v-0.7h-56.1v88.8h56.1v-77.8L354.3,674.2L354.3,674.2z"/>
<path class="st1" d="M507.4,996.2v10.8l-1.8-0.2l-1.8-0.7l-1.3-0.7l-1.3-1.1l-1.3-1.3l-0.9-1.3l-0.7-1.8l-0.7-1.8l-0.2-1.3H478v47.7
	h33.8v-47.7h-4.6v-0.2h0.2V996.2z"/>
<path class="st1" d="M387.7,689.9v-0.7h-11v0.7h-21.4v62.5H388L387.7,689.9L387.7,689.9z"/>
<path class="st1" d="M353.4,660.8h0.9V650h-0.9v-20.8h-56.1v32.3h56.1V660.8z"/>
<path class="st1" d="M435.2,695.9v-6.2h-32.5v-0.2h-11.3v0.7h-0.7v62.5h62.8V752v-55.9h-18.6L435.2,695.9L435.2,695.9L435.2,695.9z"
	/>
<path class="st1" d="M542.3,996.2v10.8l-1.8-0.2l-1.8-0.7l-1.8-0.7l-1.3-1.1l-1.3-1.3l-1.1-1.3l-0.7-1.8l-0.7-1.8l-0.2-1.8h-19.1
	v47.3h34.2v-47.5h-4.2l0,0L542.3,996.2L542.3,996.2z"/>
<path class="st1" d="M611.7,996.2v10.8l-1.8-0.2l-1.8-0.7l-1.3-0.7l-1.3-1.1l-1.3-1.3l-0.9-1.3l-0.7-1.8l-0.7-1.8l-0.2-1.8h-19.2
	v47.3h34.2v-47.5L611.7,996.2L611.7,996.2L611.7,996.2z"/>
<path class="st1" d="M422.6,474.7V488h13.7l0.2-1.8l0.7-1.8l0.7-1.8l0.9-1.3l1.2-1.3l1.3-1.1l1.3-0.7l1.8-0.7l1.8-0.2v11h11v-27.7
	h-6.6v-8H421v11.5h-0.7v10.8L422.6,474.7L422.6,474.7z"/>
<path class="st1" d="M436.3,488.6h-13.9v-5.3h-35.6v75.3h-0.9v10.8h0.9v0.7h4.4h105V564h5.1v6.2h24.3v-83.6h-29.4v1.8h-2.7v-0.2h-11
	v0.2h-35.4v-0.2h-11L436.3,488.6L436.3,488.6z"/>
<path class="st1" d="M599.8,484.2v-30.9h-4.4v-1.1H541v19.2h10.8l-0.2,1.8l-0.7,1.5l-0.7,1.8l-0.9,1.3l-1.1,1.3L547,480l-1.3,0.7
	l-1.8,0.7l-1.8,0.2v3.3h-13.7v18.8h72.5v-8.8h0.7v-11L599.8,484.2L599.8,484.2z"/>
<path class="st1" d="M716.7,996.2v10.8l-1.8-0.2l-1.8-0.7l-1.3-0.7l-1.3-1.1l-1.3-1.3l-0.9-1.3l-0.7-1.8l-0.7-1.8l-0.2-1.8h-19.9
	v47.3H721v-47.5L716.7,996.2L716.7,996.2L716.7,996.2z"/>
<path class="st1" d="M681.8,996.2v10.8l-1.8-0.2l-1.8-0.7l-1.3-0.7l-1.3-1.1l-1.3-1.3l-0.9-1.3l-0.7-1.8l-0.7-1.8l-0.2-1.8h-19.4
	v47.3h33.8v-47.5L681.8,996.2L681.8,996.2L681.8,996.2z"/>
<path class="st1" d="M483.8,484.2l0.7-1.8l0.9-1.3l1.3-1.3l1.3-1.1l1.8-0.7l1.8-0.7l1.8-0.2v11h1.6v-35.3h-43v7.7h6.6V489h23.6
	l0.2-1.8L483.8,484.2z"/>
<path class="st1" d="M723.5,971l0.2-1.8l0.7-1.8l0.7-1.3l0.9-1.3l1.3-1.3l1.3-0.9l1.3-0.7l1.8-0.7l1.8-0.2v10.8h3.5v-47.7h-34.2
	v47.7L723.5,971L723.5,971z"/>
<path class="st1" d="M768.1,997.9v-1.8h-0.7l-0.2,1.8l-0.7,1.8l-0.9,2l-0.9,1.3l-1.3,1.3l-1.3,1.1l-1.8,0.7l-1.8,0.7l-1.8,0.2v-11
	H756v47.7h33.6h0.2v-45.3h-21v-0.2L768.1,997.9L768.1,997.9z"/>
<path class="st1" d="M534.8,559.6l1.8,0.7l1.3,0.7l1.3,0.9l1.3,1.3l0.9,1.3l0.7,1.3l0.7,1.8l0.2,1.8h50.8v-6.2h4.6v-0.7h0.7v-10.8
	h-0.7v-47.8H526v65.2h5.7v-10.8L534.8,559.6z"/>
<path class="st2" d="M547.9,657h47.5v-4.4h4.4v-67.4h0.7v-11.3H600v-1.3h-4.6h-47.3L547.9,657L547.9,657z"/>
<path class="st1" d="M688.4,971l0.2-1.8l0.7-1.8l0.7-1.3l0.9-1.3l1.3-1.3l1.3-0.9l1.8-0.7l1.8-0.7l1.8-0.2v10.8h3.5v-47.7h-33.8
	v47.7L688.4,971L688.4,971z"/>
<path class="st1" d="M670.3,585.8h-0.7v11h0.7v2.2h1.8v0.2h11V599h1.3v-1.8h41.1V523H670L670.3,585.8L670.3,585.8z"/>
<path class="st1" d="M636.5,510.1l1.3,0.7l1.3,0.9l1.3,1.3l0.9,1.3l0.7,1.3l0.7,1.8l0.2,1.8H632v0.2h4.4v1.3h5.1v0.9h10.8v-0.9h72.5
	v-88.6H678h-42.2v19.2h-4.4v56.8l1.8,0.2L636.5,510.1z"/>
<path class="st1" d="M368,996.2v10.8l-1.8-0.2l-1.8-0.7l-1.8-0.7l-1.3-1.1l-1.3-1.3l-1.1-1.8l-0.7-1.8l-0.7-1.8l-0.2-1.8h-19.2v47.7
	h34.2V996L368,996.2L368,996.2z"/>
<path class="st1" d="M387.7,584.3v68.1h3.5v4.6h2.7v0.9h11V657h74.7v0.9h10.8V657h0.7v-85.3h-99.7v12.4L387.7,584.3L387.7,584.3z"/>
<path class="st1" d="M402,996.2v10.8l-1.8-0.2l-1.8-0.7l-1.3-0.7l-1.3-1.1l-1.3-1.3l-0.9-1.3l-0.7-1.8l-0.7-1.8l-0.2-1.8h-19.7v47.3
	H406v-47.5h-4.2l0,0L402,996.2L402,996.2z"/>
<path class="st1" d="M751.4,996.2v10.8l-1.8-0.2l-1.8-0.7l-1.3-0.7l-1.3-1.1l-1.3-1.3l-0.9-1.3l-0.7-1.8l-0.7-1.8l-0.2-1.8h-19.7
	v47.3H756v-47.5L751.4,996.2L751.4,996.2L751.4,996.2z"/>
<path class="st1" d="M774.1,971v-10.8l1.8,0.2l1.8,0.7l1.3,0.7l1.3,0.9l1.3,1.3l1.1,1.3l0.7,1.3l0.7,1.8l0.2,1.8h0.7v-0.7h21.4
	v-47.3H773v47.7L774.1,971L774.1,971z"/>
<path class="st1" d="M492.4,571.7v80.2h2.2h6.4v4.6h32.9v0.9h10.8v-0.9h0.7v-85.1h-1.8v-0.7h-11v0.7h-31.4h-5.1h-3.8v0.3H492.4z"/>
<path class="st1" d="M758.2,971l0.2-1.8l0.7-1.8l0.7-1.3l1.1-1.3l1.3-1.3l1.3-0.9l1.8-0.7l1.8-0.7l1.8-0.2v10.8h3.5v-47.7h-34.2
	v47.7L758.2,971L758.2,971z"/>
<polygon class="st1" points="563.8,695 563.8,695.2 528.9,695.2 528.9,751.6 566.6,751.6 566.6,695 "/>
<path class="st2" d="M385.9,130v-4.4h5.1v4.4h14.8v0.9h10.8V130h36.5v-4.6V53.6V37h-88.6v92.8L385.9,130L385.9,130z"/>
<path class="st1" d="M577.9,323.1L577.9,323.1L577.9,323.1"/>
<polygon class="st1" points="576.6,318.7 577.2,318.5 577.2,315.8 576.6,316.1 576.6,316.3 576.6,316.1 577.2,315.8 577.2,303 
	578.3,303 578.3,301.9 578.3,301.3 540.6,301.3 540.6,256.6 594.7,256.6 594.7,254.9 576.6,254.9 576.6,252.6 575.7,252.6 
	575,252.6 575,254 523.3,254 523.3,256.6 537.2,256.6 537.2,337 540.6,337 540.6,304.6 540.6,304.6 573.7,304.6 573.7,304.6 
	573.7,337 577.2,337 577.2,318.7 "/>
<path class="st2" d="M385.7,257.7h4.4v-60.5h-4.4v-5.3h4.4v-23.2h0.7v-11h-0.7v-8h-92.8v115.8h88.6L385.7,257.7L385.7,257.7z"/>
<path class="st2" d="M363.6,145.3h0.7v-11h-0.7V37h-66.3v110.9h66.3C363.6,147.9,363.6,145.3,363.6,145.3z"/>
<path class="st2" d="M389,275.4v-8.8h-3.3h-88.6v88.8h46.6H379v-18.8h9.9v-50.2h1.3v-11H389L389,275.4z"/>
<path class="st2" d="M600,256.8L600,256.8l-4.6-0.2h-54.8v44.6h37.6l0.2-1.8l0.7-1.8l0.7-1.8l0.9-1.3l1.3-1.3l1.3-1.1l1.3-0.7
	l1.8-0.7l1.8-0.2v11H599v-33.6h0.7L600,256.8L600,256.8z"/>
<path class="st2" d="M515.8,250.7v-83.3l0,0V163h-88.6v4.6l0,0h-4.6v71.6h-0.7v11h0.7v0.7h4.6v4.4h88.6
	C515.8,255.3,515.8,250.7,515.8,250.7z"/>
<path class="st2" d="M523.3,256.6h-7.5h-88.6h-4.6v0.2h-0.7v10.8h0.7v67.8h4.4v1.1h90.8v-1.1h4.6v1.1h14.4v-80.2L523.3,256.6
	L523.3,256.6z"/>
<path class="st1" d="M525.5,485.1v-32.9"/>
<line class="st4" x1="525.5" y1="451.9" x2="497.3" y2="451.9"/>
<path class="st1" d="M497.3,485.1h28.5"/>
<g>
	<rect x="497.3" y="451.9" class="st1" width="28.5" height="32.9"/>
	<text transform="matrix(1 0 0 1 502.6343 479.6957)" class="st1 st5 st6">E</text>
</g>
<path class="st1" d="M571.5,337.9V305"/>
<rect x="411.7" y="1003.2" class="st2" width="28.5" height="31.4"/>
<rect x="489.7" y="89.1" class="st7" width="21.2" height="2.7"/>
<rect x="489.7" y="94.2" class="st7" width="21.2" height="2.7"/>
<rect x="489.7" y="98.9" class="st7" width="21.2" height="2.7"/>
<rect x="489.7" y="103.7" class="st7" width="21.2" height="2.7"/>
<rect x="489.7" y="108.4" class="st7" width="21.2" height="2.7"/>
<rect x="489.7" y="113.2" class="st7" width="21.2" height="2.7"/>
<rect x="489.7" y="117.9" class="st7" width="21.2" height="2.7"/>
<rect x="489.7" y="122.5" class="st7" width="21.2" height="2.7"/>
<rect x="512.1" y="89.1" class="st7" width="21.2" height="2.7"/>
<rect x="512.1" y="94.2" class="st7" width="21.2" height="2.7"/>
<rect x="512.1" y="98.9" class="st7" width="21.2" height="2.7"/>
<rect x="512.1" y="103.7" class="st7" width="21.2" height="2.7"/>
<rect x="512.1" y="108.4" class="st7" width="21.2" height="2.7"/>
<rect x="512.1" y="113.2" class="st7" width="21.2" height="2.7"/>
<rect x="512.1" y="117.9" class="st7" width="21.2" height="2.7"/>
<rect x="512.1" y="122.5" class="st7" width="21.2" height="2.7"/>
<rect x="457.9" y="700.1" class="st7" width="15.9" height="2.7"/>
<rect x="457.9" y="704.5" class="st7" width="15.9" height="2.7"/>
<rect x="457.9" y="708.9" class="st7" width="15.9" height="2.7"/>
<rect x="457.9" y="714" class="st7" width="15.9" height="2.7"/>
<rect x="457.9" y="718.6" class="st7" width="15.9" height="2.7"/>
<rect x="457.9" y="723.3" class="st7" width="15.9" height="2.7"/>
<rect x="457.9" y="728.1" class="st7" width="15.9" height="2.7"/>
<rect x="457.9" y="732.8" class="st7" width="15.9" height="2.7"/>
<rect x="474.7" y="700.1" class="st7" width="15.9" height="2.7"/>
<rect x="474.7" y="704.5" class="st7" width="15.9" height="2.7"/>
<rect x="474.7" y="708.9" class="st7" width="15.9" height="2.7"/>
<rect x="474.7" y="714" class="st7" width="15.9" height="2.7"/>
<rect x="474.7" y="718.6" class="st7" width="15.9" height="2.7"/>
<rect x="474.7" y="723.3" class="st7" width="15.9" height="2.7"/>
<rect x="474.7" y="728.1" class="st7" width="15.9" height="2.7"/>
<rect x="474.7" y="732.8" class="st7" width="15.9" height="2.7"/>
<rect x="793.3" y="998.8" class="st7" width="15.9" height="2.7"/>
<rect x="793.3" y="1003.7" class="st7" width="15.9" height="2.7"/>
<rect x="793.3" y="1008.5" class="st7" width="15.9" height="2.7"/>
<rect x="793.3" y="1012.7" class="st7" width="15.9" height="2.7"/>
<rect x="793.3" y="1017.6" class="st7" width="15.9" height="2.7"/>
<rect x="793.3" y="1022.5" class="st7" width="15.9" height="2.7"/>
<rect x="793.3" y="1027.1" class="st7" width="15.9" height="2.7"/>
<rect x="793.3" y="1031.7" class="st7" width="15.9" height="2.7"/>
<rect x="810.1" y="998.8" class="st7" width="15.9" height="2.7"/>
<rect x="810.1" y="1003.7" class="st7" width="15.9" height="2.7"/>
<rect x="810.1" y="1008.5" class="st7" width="15.9" height="2.7"/>
<rect x="810.1" y="1012.7" class="st7" width="15.9" height="2.7"/>
<rect x="810.1" y="1017.6" class="st7" width="15.9" height="2.7"/>
<rect x="810.1" y="1022.5" class="st7" width="15.9" height="2.7"/>
<rect x="810.1" y="1027.1" class="st7" width="15.9" height="2.7"/>
<rect x="810.1" y="1031.7" class="st7" width="15.9" height="2.7"/>
<rect x="197.2" y="998.8" class="st7" width="15.9" height="2.7"/>
<rect x="197.2" y="1003.7" class="st7" width="15.9" height="2.7"/>
<rect x="197.2" y="1008.5" class="st7" width="15.9" height="2.7"/>
<rect x="197.2" y="1012.7" class="st7" width="15.9" height="2.7"/>
<rect x="197.2" y="1017.6" class="st7" width="15.9" height="2.7"/>
<rect x="197.2" y="1022.5" class="st7" width="15.9" height="2.7"/>
<rect x="197.2" y="1027.1" class="st7" width="15.9" height="2.7"/>
<rect x="197.2" y="1031.7" class="st7" width="15.9" height="2.7"/>
<rect x="214.4" y="998.8" class="st7" width="15.9" height="2.7"/>
<rect x="214.4" y="1003.7" class="st7" width="15.9" height="2.7"/>
<rect x="214.4" y="1008.5" class="st7" width="15.9" height="2.7"/>
<rect x="214.4" y="1012.7" class="st7" width="15.9" height="2.7"/>
<rect x="214.4" y="1017.6" class="st7" width="15.9" height="2.7"/>
<rect x="214.4" y="1022.5" class="st7" width="15.9" height="2.7"/>
<rect x="214.4" y="1027.1" class="st7" width="15.9" height="2.7"/>
<rect x="214.4" y="1031.7" class="st7" width="15.9" height="2.7"/>
<g class="st8">
	<g>
		<text transform="matrix(1 0 0 1 24.4155 85.4183)" class="st9 st10 st11">Level </text>
	</g>
	<circle class="st9" cx="173.6" cy="79.4" r="63.6"/>
	<text transform="matrix(1 0 0 1 142.9858 123.6879)" class="st12 st10 st13">2</text>
</g>
<rect x="470.3" y="25.1" class="st12" width="83.7" height="44"/>
<polygon class="st2" points="512.9,45.6 498.8,21.7 526.6,21.7 "/>
<path class="st2" d="M632.7,164.5l-1.8,0.2c-3.3,0.2-6.6,4-7.5,7.5l-0.2,1.8h9.5V164.5L632.7,164.5z"/>
<path class="st2" d="M422.1,257.5l-1.8,0.2c-3.3,0.2-6.6,4-7.5,7.5l-0.2,1.8h9.5V257.5L422.1,257.5z"/>
<path class="st2" d="M623.4,321.6l0.2,1.8c0.2,3.3,4,6.6,7.5,7.5l1.8,0.2v-9.5H623.4z"/>
<path class="st2" d="M623.4,244.9l0.2,1.8c0.2,3.3,4,6.6,7.5,7.5l1.8,0.2v-9.5H623.4L623.4,244.9z"/>
<path class="st2" d="M412.6,240.7l0.2,1.8c0.2,3.3,4,6.6,7.5,7.5l1.8,0.2v-9.5H412.6L412.6,240.7z"/>
<path class="st2" d="M623.4,134.7l0.2,1.8c0.2,3.3,4,6.6,7.5,7.5l1.8,0.2v-9.5H623.4L623.4,134.7z"/>
<path class="st2" d="M373.7,144.4l-0.2-1.8c-0.2-3.3-4-6.6-7.5-7.5l-1.8-0.2v9.5H373.7L373.7,144.4z"/>
<path class="st2" d="M399.6,167.8l-0.2-1.8c-0.2-3.3-4-6.6-7.5-7.5l-1.8-0.2v9.5H399.6L399.6,167.8z"/>
<path class="st2" d="M399.6,286l-0.2-1.8c-0.2-3.3-4-6.6-7.5-7.5l-1.8-0.2v9.5H399.6z"/>
<path class="st2" d="M609.7,584.1l-0.2-1.8c-0.2-3.3-4-6.6-7.5-7.5l-1.8-0.2v9.5H609.7L609.7,584.1z"/>
<path class="st2" d="M407.1,140l1.8-0.2c3.3-0.2,6.6-4,7.5-7.5l0.2-1.8h-9.5V140L407.1,140z"/>
<text transform="matrix(1 0 0 1 648.3843 308.8051)" class="st12 st10 st14">2340</text>
<text transform="matrix(1 0 0 1 552.7983 622.1683)" class="st12 st10 st14">2212</text>
<text transform="matrix(1 0 0 1 648.3843 205.2035)" class="st12 st10 st14">2356</text>
<text transform="matrix(1 0 0 1 648.3843 99.6254)" class="st12 st10 st14">2360</text>
<text transform="matrix(1 0 0 1 447.9585 308.8051)" class="st12 st10 st14">2343</text>
<text transform="matrix(1 0 0 1 545.1226 284.6293)" class="st12 st10 st14">2344</text>
<text transform="matrix(1 0 0 1 311.5132 308.8051)" class="st12 st10 st14">2339</text>
<text transform="matrix(1 0 0 1 311.5132 216.5668)" class="st12 st10 st14">2355</text>
<text transform="matrix(1 0 0 1 308.5171 96.0746)" class="st12 st10 st14">2361</text>
<text transform="matrix(1 0 0 1 377.5132 96.2543)" class="st12 st10 st14">2365</text>
<text transform="matrix(1 0 0 1 447.9585 217.8715)" class="st12 st10 st14">2351</text>
<g>
	<g>
		<path class="st15" d="M547,221.9c-1.1,0-2-0.9-2-2s0.9-2,2-2s2,0.9,2,2C548.7,221,547.9,221.9,547,221.9z"/>
		<path class="st15" d="M547.9,222.8c2.2,0,2.7,1.3,3.1,2.2l1.8,6.2c0.2,0.7,0,0.9-0.7,0.9c-0.7,0.2-0.7-0.2-0.9-0.7l-1.3-5.3
			c-0.2-0.2-0.2-0.7-0.7-0.7c-0.2,0.2-0.2,0.2-0.2,0.7l2.7,9.7h-3.1c0,4,0,7.5,0,7.5c0,0.9-0.7,1.1-0.7,1.1c-0.2,0-0.9-0.2-0.9-1.1
			c0-0.9,0-7.1,0-7.1c0-0.2-0.2-0.7-0.7-0.7s-0.7,0.2-0.7,0.7c0,0,0,5.7,0,7.1c0,1.3-0.7,1.1-0.7,1.1c-0.2,0-0.7-0.2-0.7-1.1
			c0,0,0-3.5,0-7.5h-3.1l2.7-9.7c0.2-0.2,0.2-0.7-0.2-0.7c-0.4,0-0.7,0-0.7,0.7l-0.7,5.3c-0.2,0.7-0.7,0.7-0.9,0.7
			c-0.7-0.2-0.7-0.7-0.7-0.9l1.8-6.2c0.2-0.9,0.9-2.2,3.1-2.2H547.9L547.9,222.8z"/>
	</g>
	<g>
		<g>
			<path class="st15" d="M545.9,177.7c-1.3,0-2.2-0.9-2.2-2.2s0.9-2.2,2.2-2.2c1.3,0,2.2,0.9,2.2,2.2
				C548.3,176.6,547.2,177.7,545.9,177.7z"/>
		</g>
		<path class="st15" d="M541.7,183.5v5.1c0,0.9-0.7,1.1-0.9,1.1c-0.7,0-0.9-0.2-0.9-1.1V182c0-2.7,1.3-3.5,4-3.5h4
			c2.2,0,4,0.7,4,3.5v6.6c0,0.9-0.2,1.1-0.9,1.1s-0.9-0.2-0.9-1.1v-5.1c0-0.7-0.2-0.7-0.7-0.7s-0.7,0.2-0.7,0.7c0,0.7,0,17.7,0,17.7
			c0,1.1-0.9,1.3-1.3,1.3c-0.2,0-1.3-0.2-1.3-1.3c0-0.9,0-10.4,0-10.4c0-0.2,0-0.7-0.2-0.7c-0.2,0-0.2,0.2-0.2,0.7c0,0,0,9.1,0,10.4
			c0,1.3-0.9,1.3-1.3,1.3c-0.2,0-1.3-0.2-1.3-1.3C542.3,201.2,542.3,184.1,541.7,183.5c0.2-0.7,0-0.7-0.2-0.7
			C542.6,183.3,541.7,183.3,541.7,183.5z"/>
	</g>
</g>
<text transform="matrix(1 0 0 1 416.0796 1031.5707)" class="st12 st5 st6">E</text>
</svg>
