<?xml version="1.0" encoding="utf-8"?>
<!-- Generator: Adobe Illustrator 19.1.0, SVG Export Plug-In . SVG Version: 6.00 Build 0)  -->
<svg version="1.1" id="Layer_1" xmlns="http://www.w3.org/2000/svg" xmlns:xlink="http://www.w3.org/1999/xlink" x="0px" y="0px"
	 viewBox="0 0 864 1008" style="enable-background:new 0 0 864 1008;" xml:space="preserve">
<style type="text/css">
	.st0{fill:none;stroke:#989798;stroke-width:10;stroke-miterlimit:10;}
	.st1{fill:#989798;}
	.st2{fill:none;stroke:#989898;stroke-width:12;stroke-miterlimit:10;}
	.st3{fill:#CDCCCC;}
	.st4{fill:#FFFFFF;}
	.st5{fill:#4B6DB4;}
	.st6{opacity:0.25;fill:#CDCCCC;enable-background:new    ;}
	.st7{font-family:'ArialMT';}
	.st8{font-size:17.9924px;}
	.st9{font-size:26.9882px;}
	.st10{opacity:0.6;fill:#4B6DB4;enable-background:new    ;}
	.st11{opacity:0.5;}
	.st12{fill:#989898;}
	.st13{font-size:37.4839px;}
	.st14{font-size:119.9481px;}
	.st15{fill:#4C6EB5;}
	.st16{font-family:'MyriadPro-Regular';}
	.st17{font-size:34.0142px;}
	.st18{fill:none;stroke:#969696;stroke-width:12;stroke-miterlimit:10;}
</style>
<path class="st0" d="M378.1,378"/>
<path class="st1" d="M702.1,43.5v272.7h-42H377.9h-42V43.5h136.3h93H702.1 M717.1,28.2h-14.8H566h-93H336.7h-14.8V43v272.7v14.8
	h14.8h42H661h42h14.8v-14.8V43.3v-15L717.1,28.2L717.1,28.2z"/>
<polyline class="st2" points="540.8,772 540.8,772 540.8,772 540.8,772 540.8,772 540.8,772.7 599.5,772.7 599.5,772.7 599.5,772.7 
	619.4,772.7 619.4,772.7 693.9,772.7 693.9,772.7 693.9,772.7 713.5,772.7 713.5,772.7 713.5,772.7 713.5,772.7 713.5,772.7 
	713.5,772.7 713.5,772.7 713.5,772.7 789.1,772.7 789.1,827 803.7,827 803.7,827 803.7,827 803.7,827 803.7,846.7 803.7,846.7 
	803.7,907.9 801,907.9 801,907.9 773,907.9 773,907.9 773,907.9 773,907.9 773,903.7 565.9,903.7 476.7,904.4 302.3,904.4 
	268.8,904.4 268.8,908.8 238,908.8 238,908.8 238,908.8 238,827.9 252.6,827.9 252.6,773.1 252.6,773.1 252.6,773.1 252.6,773.1 
	500.8,773.1 500.8,773.1 500.8,773.1 500.8,773.1 500.8,773.1 500.8,772.5 505.4,772.5 534.8,772.5 540.8,772 540.8,772 540.8,772 
	"/>
<polyline class="st0" points="542.7,683.6 542.7,683.6 542.7,683.6 "/>
<g>
	<path class="st1" d="M702.1,378v272.4H533.5l0,0c-0.2,0-27.8,0-27.8,0H337l0,0V509h-31.6l0,0h-27.2l0,0v-3.1l0,0v1.3l26.7-0.2v-1.3
		l0,0v-9.5l0,0V450h31.6v-72.5L702.1,378 M336.8,650L336.8,650L336.8,650L336.8,650 M533.5,650L533.5,650L533.5,650L533.5,650
		 M717.1,362.7h-14.8H336.6h-14.8v14.8v58.1h-17H290v14.8v42.2h-11.9v13.7h-14.6v3.1v14.8h14.8H305h17v125.9V665h14.8h168.6
		c0,0,27.4,0,27.8,0h168.6h14.8v-14.8V377.5v-14.8H717.1L717.1,362.7z"/>
</g>
<polyline class="st0" points="496.1,756 496.1,756 496.1,756 "/>
<path class="st3" d="M756.9,843.3h9.5l0,0l0,0l-0.7,1.8c-0.7,3.5-3.5,6.6-7.5,7.5l-1.8,0.2v40.9l0,0v6.6h26.3v-49.7l0,0l0,0l0,0l0,0
	l0,0h2.2v-15.9h-18.1l0,0h-10.6v8.6H756.9z"/>
<rect x="476.5" y="2.8" class="st4" width="83.7" height="44"/>
<path class="st3" d="M501.2,890.2h-1.3H501.2L501.2,890.2h-1.3l0,0l0,0l0,0l0,0V853h-7.5l0,0l0,0v-0.7h-1.3v0.7h-11h11v-0.7l0,0l0,0
	h1.3l0,0h-0.7l0,0H491v0.7h-11v0.9v0.9l0,0V853v1.8l0,0v3.3h4.4l0,0V872l0,0l0,0l0,0h-19.9l0,0l0,0l0,0v-13.9l0,0h4.6v-4.2V853
	h-19.2v1.3l0,0h7.1l0,0l0,0h-7.1l0,0l0,0h7.1v23l0,0v-23v23l0,0v-23v23l0,0l0,0h-22.5l0,0l0,0v-23l0,0l0,0l0,0h6.2v-0.7V853H433l0,0
	l0,0v-0.7h-1.1v0.7l0,0l0,0l0,0l0,0l-1.8,0.2l1.8-0.2v-0.7l0,0l0,0v0.7l-1.8,0.2l-6.6,38.7l0,0l6.6-38.7l-6.6,38.7l0,0l6.6-38.7
	l-6.6,38.7l0,0l0,0l0,0l0,0l0,0l0,0l0,0l0,0l0,0l0,0l0,0l0,0l-16.1-3.5l-0.2,0.9l0,0l0.2-0.9l16.1,3.5H435v-11l0,0l0,0l0,0l0,0l0,0
	l0,0h62.1l0,0l0,0v13l0,0l0,0H435l0,0h43.1v3.3h23.6v-3.8L501.2,890.2L501.2,890.2L501.2,890.2z M429.6,853l1.8-0.2L429.6,853z"/>
<path class="st3" d="M341.2,115.3L341.2,115.3l1.8,0.2c3.5,0.7,6.6,3.5,7.5,7.5l0.2,1.8l0,0l0,0l0,0h52.4l0,0l0,0v0.7h9.5v-0.7v0.7
	l0,0v-0.7v0.7l0,0v-0.7h0.9l0,0l0,0h-0.9l0,0l0,0h0.9l0,0v-4.2l0,0h4.4V46.4h-78v78.2h1.8L341.2,115.3L341.2,115.3z"/>
<path class="st3" d="M449.3,156.8L449.3,156.8L449.3,156.8h-3.1v15.5v-15.5l0,0v15.5l0,0l1.8,0.2l1.8,0.7l1.3,0.9l1.3,1.1l1.1,1.3
	l0.9,1.3l0.7,1.8l0.2,1.8l0,0l0,0l0,0l0,0l0,0l0,0l0,0l0,0h-9.1v8.8v-8.8l0,0v8.8h9.5l0,0l-0.2,1.8c-0.2,3.5-4,7.1-7.5,7.5l-1.8,0.2
	v19.2h27.4v-65l0,0v65.2v-65.2h-24.1L449.3,156.8L449.3,156.8z"/>
<path class="st3" d="M412.4,161.9v-0.7h-9.5v0.7h-63.2v77.6h72.9L412.4,161.9L412.4,161.9L412.4,161.9L412.4,161.9L412.4,161.9z"/>
<path class="st3" d="M401.8,139.8h-0.7l0,0v-13.9v13.9l0,0v-13.9v13.9H401.8L401.8,139.8h-0.7v-13.9H351l0,0l0,0l0,0v-0.4h-9.5v0.7
	h-1.8v34h61.4l0,0v-10.8l0,0l0,0h0.7L401.8,139.8L401.8,139.8z"/>
<path class="st3" d="M449.3,297.6L449.3,297.6L449.3,297.6L449.3,297.6v0.7H524v-67v-5.7v-4.4h-74.2v4l0,0v6.2l0,0V225v6.2l0,0l0,0
	h-4.6v2v-2l0,0v2l0,0l0,0l0,0h-0.7l0,0v9.5h0.7l0,0l0,0l0,0v55.2l0,0L449.3,297.6L449.3,297.6z"/>
<path class="st3" d="M412.4,290.3L412.4,290.3v23.2V290.3L412.4,290.3v23.2V290.3h-7.1l0,0l0,0l0,0V289l0,0h11.9l0,0v-30.1l0,0l0,0
	h0.7v-9.5l0,0h-0.7l0,0l0,0l0,0l0,0v-9.5l0,0v9.5v-9.5h-78V313h72.5l0,0l0,0h-72.5l0,0h72.5L412.4,290.3L412.4,290.3z"/>
<path class="st3" d="M593.8,190.8h0.7v-9.5l0,0h-0.7l0,0l0,0l0,0l0,0l0,0l0,0v-0.7h-0.9l0,0l0,0v-11h-18.6v18.1l1.3,0.2
	c1.8,0.2,3.5,1.8,4.4,3.5h0.7l-0.4,1.3v0.2l0.2,1.3l0,0h-0.9l-0.2,0.2l0.2-0.2h-5.3v18.1H588v-9.7l0,0l0,0h6.2l0,0H588l0,0l0,0h6.2
	L593.8,190.8L593.8,190.8L593.8,190.8L593.8,190.8L593.8,190.8L593.8,190.8L593.8,190.8L593.8,190.8h0.7l0,0H593.8z"/>
<path class="st3" d="M589.8,156.8L589.8,156.8L589.8,156.8v-4.4h-15.2v3.1l0,0l0,0l0,0l0,0l0,0l0,0h-0.7v9.5h0.7l0,0v4H594v-2.2
	l-1.8-0.2c-2-0.7-4-1.3-5.1-3.1v0.2l-0.2,0.2l-0.2,0.2l-0.2,0.2h-0.7l-0.2-0.2l-0.2-0.2l-0.2-0.2v-0.2l0.2-0.2l0.2-0.2l0.2-0.2h0.2
	l-0.2-0.2l-0.4-0.4l-0.2-0.2v-0.2l0.2-0.2h0.2c-0.2-0.7-0.7-1.3-0.7-2.2l-0.2-1.8l0,0h9.5v-0.2L589.8,156.8L589.8,156.8z
	 M583.8,163.4L583.8,163.4L583.8,163.4L583.8,163.4L583.8,163.4L583.8,163.4L583.8,163.4z M583,157h1.1H583"/>
<path class="st3" d="M529.9,228.4H573v-2h-9.5l0,0l0,0l0,0l0.2-1.8c0.9-4,3.3-6.4,7.5-7.5l1.8-0.2l0,0v-21.2h-46.2H573l0,0h-46.2
	l0,0v29.4l0,0h3.5l0,0l0,0L529.9,228.4L529.9,228.4z"/>
<path class="st3" d="M572.6,187.5L572.6,187.5L572.6,187.5v-1.3h-46.4v9.7H573v-1.8l0,0l0,0l0,0l0,0l0,0l0,0l0,0l0,0h0.7v-6
	L572.6,187.5L572.6,187.5z"/>
<path class="st3" d="M572.6,186v-21.2l0,0l-1.8-0.2c-3.5-0.7-6.6-3.5-7.5-7.5l-0.2-1.8l0,0h9.5v-2h-43.1v3.3l0,0l0,0H526V186H572.6
	L572.6,186L572.6,186z"/>
<path class="st3" d="M515.3,152.2v-0.7h-9.5l0,0l0,0v0.7l0,0l0,0l0,0h-12.4l0,0l0,0l0,0l0,0v-0.7l0,0v0.7v-0.7h-9.1v0.7l0,0h-8v67.4
	l0,0h47.9v-63.2l0,0V152L515.3,152.2L515.3,152.2L515.3,152.2L515.3,152.2v-0.7l0,0V152.2z"/>
<path class="st3" d="M526.4,231.5v66.3h3.3l0,0l0,0l0,0v0.7h11.7v-29.4l0,0l0,0l0,0l0,0l0,0h42.2l0,0h-42.2h42.2l0,0h-42.2h42.2l0,0
	l0,0v0.7h9.5v-0.7l0,0v-9.5l-1.8,0.2c-4,0.9-6.6,3.5-7.5,7.5l-0.2,1.8l0.2-1.8c0.7-4,3.5-6.6,7.5-7.5l1.8-0.2l0,0l-1.8,0.2
	c-4,0.9-6.6,3.5-7.5,7.5l-0.2,1.8l0.2-1.8c0.7-4,3.5-6.6,7.5-7.5l1.8-0.2l0,0l0,0l0,0l0,0l0,0l0,0l0,0l0,0l0,0l0,0v9.5h0.7v-18.8
	l0,0l0,0h0.7v-9.5h-0.7l0,0v-9.5h-4.4h4.2l0,0h-4.2l0,0l0,0H530l0,0L526.4,231.5L526.4,231.5L526.4,231.5L526.4,231.5z"/>
<path class="st5" d="M699.6,173.4h-73.8v4.4l0,0l0,0h-3.3v8l0,0l0,0l0,0h-1.3v7.7l0,0l0,0h-0.7v9.5h0.7l0,0l0,0l0,0v28.9h4.4l0,0
	l0,0l0,0v5.7h-4.4v30.5h-0.7v9.5h0.7l0,0l0,0l0,0v21.2h4.6l0,0l0,0h-4.6l0,0h4.6l0,0l0,0l0,0l0,0l0,0l0,0l0,0l0,0V314h73.6l0,0
	V184.1v-8L699.6,173.4L699.6,173.4z"/>
<path class="st5" d="M621.4,162.6L621.4,162.6L621.4,162.6L621.4,162.6L621.4,162.6h-0.7v9.5h0.7l0,0l0,0l0,0v0.7h4.4l0,0l0,0l0,0
	h73.6v-46.4h-73.6l0,0h-4.4V162.6L621.4,162.6z"/>
<path class="st3" d="M568.6,82.1L568.6,82.1v37.8v4.4h30.1l0,0l0,0v0.7l0,0h9.5v-0.7v0.7l0,0v-0.7l0,0l0,0l0,0l0,0h13v-4.4l0,0l0,0
	l0,0h5.7v4.4h73.6v-78H569.3V60l0,0v13l0,0h-1.1v9.5h0.4V82.1z"/>
<path class="st3" d="M417.9,438.1L417.9,438.1L417.9,438.1L417.9,438.1v-21.2h-1.1l0,0l0,0V397h-3.5l0,0l0,0v-16.1h-34.5l0,0h-0.2
	v25h-0.7v9.5h0.7l0,0l0,0v1.8h3.1l0,0l0,0v3.1H381v9.5h0.7l0,0l0,0v19.9h36.5h-36.9l0,0h36.5v-1.8h-9.5l0.2-1.8
	c0.9-4,3.3-6.4,7.5-7.5L417.9,438.1l-1.8,0.2c-4,0.9-6.4,3.3-7.5,7.5l-0.2,1.8h9.5l0,0l0,0h0.7v-9.5H417.9L417.9,438.1z"/>
<path class="st3" d="M379.9,429.2h0.7l0,0H379.9v19.9V429.2l-1.8-0.2c-3.5-0.7-6.6-3.5-7.5-7.5l-0.2-1.8h9.5V418h-40.7v30.9h40.7
	h-40.7l0,0h40.7V429.2L379.9,429.2z"/>
<path class="st3" d="M377,414.7h-9.5l0.2-1.8c0.9-4,3.3-6.4,7.5-7.5l1.8-0.2v-25h-37.1v36.5H377V414.7L377,414.7z"/>
<path class="st3" d="M367.5,482.5c0.9-4,3.3-6.4,7.5-7.5l1.8-0.2l0,0l0,0l0,0l0,0v9.5v0.7l0,0v-1h1.8v-33.5l0,0V484h-1.8h1.8v-33.5
	h-38.7v3.5l0,0v21.7v8v0.7h27.8L367.5,482.5L367.5,482.5z"/>
<path class="st3" d="M335.7,454.2h-27.8v43.3h-3.1v9.5h30.9L335.7,454.2L335.7,454.2L335.7,454.2z"/>
<path class="st3" d="M375.5,570.2L375.5,570.2L375.5,570.2L375.5,570.2v2.2V570.2H366l0,0l0,0l0,0l0,0l0.2-1.8
	c0.9-4,3.5-6.6,7.5-7.5l1.8-0.2v-23.9h-35.6v35.4h35.6h-35.6l0,0h35.6V570.2L375.5,570.2z"/>
<path class="st3" d="M419,618.6L419,618.6L419,618.6V648h17h8h26.7l0,0v-47.5l0,0V597h-51.9v12.4h-0.7v9.5L419,618.6L419,618.6z
	 M470.5,600.7v47.5V600.7z"/>
<path class="st3" d="M373.9,648h1.1v-13l-1.8-0.2c-4-0.7-6.6-3.5-7.5-7.5l-0.2-1.8h9.5v-15h-35.6V648h26.3H373.9L373.9,648z"/>
<path class="st3" d="M375.7,626.1L375.7,626.1L375.7,626.1H366l0.2,1.8c0.9,4,3.5,6.6,7.5,7.5l1.8,0.2h0.2V626.1L375.7,626.1z"/>
<path class="st3" d="M375.5,610v-1.8H366l0,0l0,0l0,0l0,0l0.2-1.8c0.9-4,3.5-6.6,7.5-7.5l1.8-0.2v-25.6h-35.6v36.5L375.5,610
	L375.5,610v-2h0.2l0,0h-0.2V610z"/>
<path class="st3" d="M673.1,648L673.1,648h26.3v-77.8l0,0V648v-77.8h-58.3l0,0l0,0l0,0v10.4l0,0l0,0h-0.7v9.5h0.7l0,0l0,0v58.1l0,0
	l0,0h24.1l0,0l0,0L673.1,648L673.1,648z"/>
<path class="st3" d="M614.3,619.1L614.3,619.1L614.3,619.1v29.2h15.9l0,0l0,0h8l0,0l0,0h0.7v-50.8h-24.5v12.4l0,0l0,0h-0.2
	L614.3,619.1L614.3,619.1L614.3,619.1z"/>
<path class="st3" d="M587.2,623.5L587.2,623.5L587.2,623.5h-18.8v24.7h26.7h8h10.4h-10.4l0,0h10.4v-25h-17l0,0l0,0V623h-9.7
	L587.2,623.5L587.2,623.5L587.2,623.5L587.2,623.5L587.2,623.5z"/>
<path class="st3" d="M603.3,597.2L603.3,597.2L603.3,597.2L603.3,597.2L603.3,597.2h-34.5l0,0l0,0v3.3v-3.3l0,0v25.4l0,0v-21.7v21.9
	l0,0l0,0v-21.9v21.9l0,0h18.8l0,0v0.2h9.7v-0.2l0,0l0,0l0,0h17v-3.5l0,0l-1.8-0.2l-1.8-0.7l-1.3-0.9l-1.3-1.1l-1.1-1.3l-0.9-1.3
	l-0.7-1.8l-0.2-1.8l0,0h9.5v-11.9h-0.9l0,0l0,0V597l0,0v1.1V597h-9.5L603.3,597.2L603.3,597.2z"/>
<path class="st3" d="M566.2,648.4v-47.7h-2.7h2.7l0,0h-2.7l0,0V600h-11v-1.3l0,0v1.3v-1.3h-11.9v49.7H566.2L566.2,648.4z
	 M563.3,599.6h-11H563.3z"/>
<path class="st3" d="M699.6,568.7v-101l0,0V568.7v-101h-78l0,0v40.9h4.4l0,0l0,0v5.7l0,0l0,0l0,0h-4.4v49.9h4.4l0,0l0,0v4.4h0.7l0,0
	l0,0v0.7l0,0h9.5v-0.7v0.7l0,0v-0.7L699.6,568.7L699.6,568.7z"/>
<path class="st3" d="M593.8,452l-1.8-0.2c-3.5-0.7-6.6-3.5-7.5-7.5l-0.2-1.8h9.5v-3.1h-60.5v42.2h60.5V452z"/>
<path class="st3" d="M593.8,426.4L593.8,426.4L593.8,426.4L593.8,426.4L593.8,426.4v-30.3l-60.5,0.2v42h60.5v-2.7h-9.5l0.2-1.8
	c0.7-3.5,3.5-6.6,7.5-7.5L593.8,426.4L592,427c-3.5,0.7-6.6,3.5-7.5,7.5l-0.2,1.8h9.5h0.7v-9.5L593.8,426.4L593.8,426.4z"/>
<path class="st3" d="M621.6,449.4v3.5h6.2l0,0l0,0l0,0v13.3h71.6h-71.6l0,0h71.6v-85.3h-38.7l0,0H628v15.5l0,0h-6.6l0,0v42l0,0
	v-42.3v42.2h4.4l0,0l0,0l0,0v1.1l0,0h-4.4v0.2v-0.2l0,0v0.2l0,0h-0.7l0,0v9.5h0.9L621.6,449.4L621.6,449.4z"/>
<path class="st3" d="M593.8,564v-25.6l-1.8-0.2c-3.5-0.7-6.6-3.5-7.5-7.5l-0.2-0.9c-1.1,2.7-3.5,4.4-6.6,5.3l-1.8,0.2l0,0l0,0v-9.5
	l0,0l0,0l0,0h-42.6l0,0l0,0v42.4h56.6v-4.4L593.8,564L593.8,564L593.8,564z"/>
<path class="st3" d="M576.3,525.1v0.7h9.5v-0.7l0,0l0,0h8.6l0,0h-8.6h8.6v-3.5h-9.5h9.5h0.7v-9.5h-0.9l0,0V496H590l0,0l0,0l0,0l0,0
	v-6.2v6.2l0,0v-13h-27.2v33.6l0,0l0,0l0,0l0,0h-0.2l0.2,8.4L576.3,525.1L576.3,525.1L576.3,525.1z M584.7,519.6
	c0.7-3.5,3.5-6.6,7.5-7.5l1.8-0.2l-1.8,0.2C588.9,513.2,585.6,516.3,584.7,519.6l-0.2,1.8L584.7,519.6z"/>
<path class="st3" d="M445.1,529.8h9.5l-0.2,1.8c-0.7,3.5-3.5,6.6-7.5,7.5l-1.8,0.2v29.4h59.2V559l0,0h1.3l0,0v-32.5l0,0V559v-32.5
	h-60.3L445.1,529.8h-0.7l0,0H445.1z"/>
<path class="st3" d="M445.1,396.1L445.1,396.1L445.1,396.1L445.1,396.1v30.1l0,0h9.5l-0.2,1.8c-0.7,3.5-3.5,6.6-7.5,7.5l-1.8,0.2
	v7.5h9.5l0,0l0,0l-0.2,1.8l-0.7,1.8l-0.9,1.3l-1.1,1.3l-1.3,1.1l-1.3,0.9l-1.8,0.7l-1.8,0.2l0,0v60.5l0,0l0,0l1.8,0.2
	c3.5,0.7,6.6,3.5,7.5,7.5l0.2,1.8l0,0l0,0l0,0l0,0h-9.7v3.1h60.3v-29.6V490l0,0v-93.7h-60.3h-0.2V396.1z"/>
<path class="st3" d="M481.5,820.8v0.7h10.8v-0.7l0,0l0,0h2.7l0,0h-2.7l0,0l0,0h2.7V794h-21.4v26.7L481.5,820.8L481.5,820.8
	L481.5,820.8z"/>
<path class="st3" d="M437.3,822.6h15.9v-0.7l0,0l0,0l0,0h9.7v-6.4h-0.2l-0.2-0.2l0.2,0.2h0.2V794h-30.3v1.3l0,0v26.3h4.4l0,0
	L437.3,822.6L437.3,822.6L437.3,822.6z"/>
<path class="st3" d="M432.5,834.9v-0.7V834.9h-0.7v17.7h0.7l0,0l0,0l0,0v0.7l0,0v-0.7v0.7h8l0,0l0,0l0.2-1.8c0.7-3.5,4-6.6,7.5-7.5
	l1.8-0.2l0,0l0,0l0,0l0,0v9.5h19.2l0,0l0,0v0.9H480v-0.9h11v-0.7h0.7v-17.7H491h0.7l0,0H491l0,0l0,0l0,0v-0.7h-8h8l0,0h-8v-1.1l0,0
	h-9.5v1.3l0,0l0,0l0,0h-10.8v-0.7l0,0h-9.5v0.7l0,0l0,0l0,0L432.5,834.9L432.5,834.9h-0.7l0,0H432.5z"/>
<path class="st3" d="M449.7,853.7h-9.5v0.7l0,0l0,0l0,0l0,0l0,0l0,0l0,0H434v23h22.5v-23h-7.1l0,0L449.7,853.7L449.7,853.7z"/>
<path class="st5" d="M286.7,798h9.5l-0.2,1.8c-0.7,3.5-3.5,6.6-7.5,7.5l-1.8,0.2l0,0l0,0V888l8,1.3l0,0l0,0l0,0l-8-1.3l8,1.3l0,0
	l0,0v5.7h0.7l0,0l0,0l0,0l0,0l0,0l0,0l0,0l0,0l0,0v1.8h9.1v-0.7l0,0l0,0v0.7h9.1v-0.7v-1.3v1.3v0.7l0,0v-0.7v-1.3l0,0h0.7l1.8-5.7
	l0,0l0,0l0,0l0,0l23,3.5l0.7-3.5l-0.7-0.2l0,0l0,0l0.2-0.9l0,0l0,0l0,0l0,0l21.9,4.4l0.7-2.7l0.2-0.7l-0.7-0.2l0,0l0,0l0.2-0.9l0,0
	l0,0l0,0l0,0l21.9,4.4l0.7-3.5l0,0l-0.7-0.2l0,0l0,0l0.2-0.9l0,0l0,0l0,0l0,0l21.9,4.4l0.7-3.5l0,0l-0.7-0.2l0,0l0,0l0.2-0.9l0,0
	l0,0l0,0l0,0l16.1,3.5l6.6-38.7l1.8-0.2v-0.7h-8.8l0.2-1.3c0.7-3.5,3.5-6.4,7.1-7.1l1.3-0.2l-1.3-0.2c-3.3-0.7-6.6-3.5-7.1-7.1
	l-0.2-1.3h8.8l0,0l0,0l0,0v-0.7l-1.8-0.2l-6.6-38.7l-16.1,3.5l0,0l0,0l0,0l0,0l0,0l0,0l-0.2-0.9h0.2l0.7-0.2l-0.7-3.5l-21.9,4.4l0,0
	l0,0l0,0l0,0l0,0l0,0l-0.2-0.9h0.2l0.7-0.2l-0.7-2.7l-21.9,4.4l0,0l0,0l0,0l0,0l0,0l0,0l-0.2-0.9h0.2l0.7-0.2l-0.7-3.5l-21.9,4.4
	l0,0l0,0l0,0l0,0l0,0l0,0l-0.2-0.9h0.2l0.7-0.2l-0.7-3.5l-21.9,3.3l0,0l0,0l-1.8-4l-28.5,4.2C286.7,798,286.7,798,286.7,798z"/>
<path class="st3" d="M271.9,832.1L271.9,832.1L271.9,832.1v1.1h8.4v-1.1v1.1l0,0v-1.1l0,0l0,0h4.2v-24.7l0,0l0,0h1.1v-9.5h-1.3l0,0
	l0,0l0,0l0,0l0,0l0,0l0,0v-4h-13v38L271.9,832.1L271.9,832.1L271.9,832.1L271.9,832.1L271.9,832.1L271.9,832.1L271.9,832.1
	L271.9,832.1z"/>
<path class="st3" d="M280.2,843.1l-1.3-0.2c-0.7-0.2-1.3-0.7-2.2-0.7c-2-1.1-3.5-3.3-4.2-5.7l-0.2-1.3H254v15.9h2.2l0,0l0,0l0,0l0,0
	v49.5h26.3v-65.8h-2.2v8.3H280.2z"/>
<path class="st3" d="M583.4,861.4L583.4,861.4L583.4,861.4L583.4,861.4v21.7l0,0l0,0l0,0l0,0v8.4h4.4l0,0l0,0l0,0v2.2h0.7l0,0h8.8
	l0,0h15v-2.2l0,0l0,0l0,0l0,0l0,0l0,0l0,0l0,0h3.5v-16.4l0,0l0,0l0,0l0,0l0,0l0,0h0.2l0,0h-0.2l0,0l0,0h0.2v-9.5h-0.2l0,0l0,0v-9.1
	h-5.1v9.5l0,0l0,0l0,0l0,0l0,0l0,0l0,0l0,0l0,0l0,0l-1.8-0.2c-3.5-0.7-6.6-3.5-7.5-7.5l-0.2-1.8l0,0h-18.8l0,0L583.4,861.4
	L583.4,861.4z"/>
<path class="st3" d="M617.2,891L617.2,891L617.2,891L617.2,891L617.2,891L617.2,891L617.2,891L617.2,891v2.2h0.7l0,0h8.8l0,0h14.8
	V891l0,0l0,0l0,0h9.1v-34.7h-19.4l-0.2,1.8c-0.7,3.5-3.5,6.6-7.5,7.5l-1.8,0.2l0,0l0,0v-9.5l0,0h-4.6v9.1l0,0l0,0l1.8,0.2
	c3.5,0.9,6.6,3.5,7.5,7.5l0.2,1.8l0,0h-9.5l0,0l0,0l0,0l0,0L617.2,891l-0.2-16.1l0,0L617.2,891l-0.2-16.1h-0.2l0,0h0.2L617.2,891
	L617.2,891L617.2,891L617.2,891L617.2,891z"/>
<path class="st3" d="M633.1,831.8l1.8-0.2l0,0l0,0l0,0l0,0v9.5l0,0l0,0l0,0h12.4v-44.9h-5.1l0,0l0,0V794h-24.5v2.2h-0.2v44.6h8.4
	l0.2-1.8C625.8,835.4,629.1,832.3,633.1,831.8z"/>
<path class="st3" d="M593.8,792.3L593.8,792.3v-0.7V792.3L593.8,792.3v-0.7V792.3l9.1-0.2v-0.2v0.2l0,0v-0.2v0.2v0.2h0.2v-0.7v0.7
	l0,0v-0.7v0.7l0,0h-0.2l0,0H593.8L593.8,792.3L593.8,792.3l-0.2,1.3h-0.9v3.3H592v9.5h0.7l0,0l0,0l0,0l0,0l0,0v34.7l0,0h5.3v-9.5
	l0,0l0,0l1.8,0.2c3.5,0.7,6.6,3.5,7.5,7.5l0.2,1.8h9.5v-44.6h-4l0,0l0,0v-2.7h-0.7l0,0l0,0V792h-0.4l0,0h-8.8l0,0h-0.2l0,0
	L593.8,792.3l-0.2,0.2h0.7L593.8,792.3L593.8,792.3z"/>
<path class="st3" d="M543.9,891v2h37.8v-38.2l0,0l0,0l0,0h19.9l0,0l0,0l0,0l0,0v0.7h9.5v-0.7l0,0l0,0l0,0h10.8l0,0v0.7h9.5v-0.7l0,0
	l0,0l0,0h3.5v-1.3l0,0l0,0l0,0h0.2V844l0,0l0,0l0,0v-1.5h-0.7l0,0l0,0v-0.9h-9.5v0.7l0,0l0,0l0,0l0,0l0,0h-18.3l0,0l0,0v-0.7h-9.5
	v0.7l0,0l0,0h-15.2l0,0l0,0l0,0h-8.6l0,0h-0.7l0,0l-26.3-0.2v9.1l0,0l0,0H545v1.3l0,0l0,0h-4.4v0.2l0,0l0,0h-0.7v9.5h0.7l0,0l0,0
	l0,0l0,0v0.9l0,0v-0.7v0.9V891H543.9L543.9,891L543.9,891z"/>
<path class="st3" d="M717.1,856.1L717.1,856.1v37.1l0,0h13V891l0,0l0,0l0,0h4.4l0,0l0,0l0,0v2h18.3v-35.6H734v-1.1h-1.3l-0.2,1.3
	c-0.9,3.3-3.1,5.7-6.6,6.6l-1.3,0.2l1.3-0.2c3.5-0.7,5.7-3.1,6.6-6.6l0.2-1.3l0,0l-0.2,1.3c-0.9,3.3-3.1,5.7-6.6,6.6l-1.3,0.2l0,0
	l0,0l0,0l0,0V856l0,0v8.4V856l0,0h-7.5V856.1z"/>
<path class="st3" d="M701,891L701,891L701,891h4.4l0,0l0,0l0,0v2.2h0.9l0,0h8.8l0,0h1.3v-37.1h-0.7v9.5l0,0l0,0l0,0l0,0l0,0l0,0l0,0
	l0,0l0,0l0,0l-1.8-0.2c-3.5-0.7-6.6-3.5-7.5-7.5l-0.2-1.8l0,0h-20.3l0,0v37.1l0,0h14.4V891H701z"/>
<path class="st3" d="M654.8,865.4l-1.8,0.2l0,0l0,0v-9.5l0,0h-1.3v34.7l0,0v2.2h19.9v-2.2l0,0l0,0l0,0h4.6l0,0l0,0l0,0v2.2h0.7l0,0
	h8.8l0,0h0.2v-37.1h-23.6l0,0l-0.2,1.8C661.4,861.9,658.3,864.8,654.8,865.4z"/>
<path class="st3" d="M671.6,796.3L671.6,796.3V794h-23.9v47.3h5.1l0,0l0.2-1.8c0.7-3.3,4-7.1,7.5-7.5l1.8-0.2l0,0l0,0l0,0l0,0l0,0
	l0,0l0,0l0,0l0,0l0,0v9.5h10.6v-44.9L671.6,796.3L671.6,796.3L671.6,796.3L671.6,796.3z"/>
<path class="st3" d="M676,794v2.2h-3.1v44.6h17.5l0,0l0.2-1.8l0.7-1.8l0.9-1.3l1.1-1.3l1.3-1.1l1.3-0.9l1.8-0.7l1.8-0.2l0,0l0,0l0,0
	l0,0l0,0l0,0l0,0l0,0l0,0l0,0v9.5h0.2v-9.9l0,0l0,0h0.2l0,0h-0.2l0,0l0,0h0.2l0,0l0,0l0,0l0,0l0,0h0.2V827l0,0h0.2v-5.1h-0.7v-28.1
	l0,0l0,0l0,0l0,0h0.2v-2.2h-0.2l0,0h-8.8v0.7l0,0h-0.2l0,0h-8.8l0,0h-0.2v1.3h-5.5v0.4H676z"/>
<path class="st3" d="M765.5,796.3L765.5,796.3V794h-30.9v2.2h-3.5v0.7h-0.7l0,0l0,0v-0.7h-0.7l0,0l0,0l0,0l0,0V794h-24.1v2.2h-3.5
	v25.6l0,0l0,0l0,0h-0.7v4.4h0.2l0,0v4.4h0.2l0,0h0.2l0,0l0,0l0,0l0,0l0,0l0,0v9.9l0,0h17.7l0,0l0.2-1.8c0.7-3.5,3.5-6.6,7.5-7.5
	l1.8-0.2l0,0l0,0l0,0l0,0l0,0l0,0l0,0l0,0l0,0l0,0v2l6.2-2.7l-8.6-3.5l8.6-3.5l-3.5-1.3l0.2-0.7l0,0l0,0l4.6,1.8l-4.6-1.8l0,0
	l4.6,1.8l-4.6-1.8l-0.2,0.7l3.5,1.3l-8.6,3.5l8.6,3.5l-6.2,2.7v0.7l7.7-3.1l-8.6-3.5l8.6-3.5l-8.6,3.5l8.6,3.5l-7.7,3.1l0,0l7.7-3.1
	l-8.6-3.5l8.6-3.5l-8.6,3.5l8.6,3.5l-7.7,3.1v0.7l7.7,3.1l-4.6,1.8v0.7h10.6l0,0v-9.5l0,0l0,0l1.8,0.2c3.5,0.7,6.6,3.5,7.5,7.5
	l0.2,1.8h2.2v-10.4l0,0l0,0l0,0h14.8v-34.5L765.5,796.3L765.5,796.3L765.5,796.3L765.5,796.3z"/>
<path class="st6" d="M561.7,939L561.7,939L561.7,939L561.7,939v-42.2h-23.6l0,0l0,0l0,0v-3.3H501v3.3h-23.6v49.1h4.6l0,0l0,0v7.1
	h-4.6v27.4h4.6l0,0l0,0v7.1l0,0h-4.6v18.8h84.2v-11h296.3v-7.5h-7.1l0,0v-7.1h7.1v-27.6h-7.1l0,0l0,0V946l0,0h7.1v-7.5L561.7,939
	L561.7,939z M564.2,987.8L564.2,987.8h-7.1l0,0v-7.1h7.1l0,0l0,0V987.8z M681.5,987.8L681.5,987.8h-7.1l0,0v-7.1h7.1l0,0l0,0V987.8z
	 M792.4,946.1L792.4,946.1h7.1l0,0v7.1h-7.1l0,0l0,0V946.1z M792.4,980.5h7.1l0,0l0,0v7.1l0,0h-7.1l0,0V980.5z M733.2,946.1
	L733.2,946.1h7.1l0,0v7.1h-7.1l0,0l0,0V946.1z M733.2,980.5h7.1l0,0l0,0v7.1l0,0h-7.1l0,0V980.5z M615.7,946.1L615.7,946.1h7.1l0,0
	v7.1h-7.1l0,0l0,0V946.1z M615.7,980.5h7.1l0,0l0,0v7.1l0,0h-7.1l0,0V980.5z M564.2,946.1L564.2,946.1v7.1h-7.1l0,0l0,0v-7.1l0,0
	H564.2z"/>
<path class="st3" d="M561.7,517L561.7,517L561.7,517v-33.6h-28.5h28.5l0,0h-28.5h28.5l0,0h-28.5v42.2h29.2h-29.2l0,0l0,0h29.2
	L561.7,517L561.7,517L561.7,517z"/>
<path class="st3" d="M426.7,124.5L426.7,124.5L426.7,124.5h-8l0,0H426.7L426.7,124.5L426.7,124.5L426.7,124.5L426.7,124.5
	L426.7,124.5L426.7,124.5v0.7h9.5v-0.7v0.7l0,0v-0.7v0.7l0,0l0,0l0,0v-0.7h4.4v-12.4h0.7l0,0h-0.7v12.4l0,0h-4.4l0,0l0,0h4.4v-12.4
	l0,0h0.7l0,0l0,0l0,0v12.4h29.4v-4.4v4.4l0,0v-4.4l0,0l0,0l0,0l0,0V80.8l0,0v39.1V80.8l0,0v39.1V80.8h-8.6l0,0l0,0l0,0l0,0l0,0l0,0
	l0,0v-0.7l0,0l0,0l0,0h8.6l0,0V46.5h-52.4v78.2L426.7,124.5L426.7,124.5z M462.1,80.1v0.7V80.1z"/>
<path class="st3" d="M339.9,536.2h34.5v-24.1l0,0l0,0h0.7V503h-0.7l0,0l0,0v-0.4h-34.5v4.4l0,0V536.2z"/>
<path class="st3" d="M417.9,526v-7.7l0,0h-10.6l0,0v-0.7l0,0l0,0h4v-15l0,0h4.4v-17.4h-19.4h-0.9H391l0,0v-0.7h-9.5v0.7l0,0h-4.9
	l0,0v-0.7h-9.5v0.7l0,0H366l0,0h-26.3v15.5h19.9H374l0,0l0,0h0.7l0,0l0,0v1.3l0,0l0,0h-0.2v9.1h0.2l0,0l0,0l0,0l0,0v24.1l0.9,0.2
	l0,0l0,0l0,0v24.7l0,0h-0.2v9.5h0.2l0,0l0,0v28.5l0,0l0,0h-0.2v9.5h0.2l0,0l0,0v18.3l0,0h-0.2v9.5h0.2l0,0v13h42.2v-30.3h-9.5
	l0.2-1.8c0.7-3.5,3.5-6.6,7.5-7.5l1.8-0.2l0,0v-12.4h-0.2l0,0l0,0l0,0v-26.7l0,0v26.7v-26.7H413l0,0v-5.7l0,0h4.4V549l-1.8-0.2
	c-3.5-0.9-6.6-3.5-7.5-7.5l-0.2-1.8l0.2,1.8c0.7,3.5,3.5,6.6,7.5,7.5l1.8,0.2v14.8l0,0V549l0,0l0,0l0,0h0.7v-9.5h-0.7h-9.5h9.5v-4.6
	h-9.5l0.2-1.8c0.7-3.5,3.5-6.6,7.5-7.5L417.9,526v-7.7V526l-1.8,0.2c-3.5,0.9-6.6,3.5-7.5,7.5l-0.2,1.8h9.5v4.6h0.7l0,0l0,0h-0.7
	v-4.6l0,0l0,0l0,0h0.7V526H417.9h0.7l0,0l0,0l0,0H417.9L417.9,526z"/>
<path class="st3" d="M583.4,794.3h-35.8v3.1v44h26.3v1.3h8.8l0,0v-1.3l0,0l0,0h8.8v-34.7l-1.8-0.2c-4-0.9-6.4-3.3-7.5-7.5l-0.2-1.8
	l0,0h9.5v-0.7h-8l0,0l0,0l0,0L583.4,794.3L583.4,794.3z"/>
<text transform="matrix(1 0 0 1 424.1069 91.0824)" class="st4 st7 st8">1365</text>
<text transform="matrix(1 0 0 1 620.6851 91.0824)" class="st4 st7 st8">1362</text>
<g>
	<text transform="matrix(1 0 0 1 638.0327 158.2504)" class="st4 st7 st9">1358</text>
</g>
<g>
	<text transform="matrix(1 0 0 1 638.0327 249.8949)" class="st4 st7 st9">1340</text>
</g>
<g>
	<text transform="matrix(1 0 0 1 323.6851 852.8988)" class="st4 st7 st9">1102</text>
</g>
<text transform="matrix(1 0 0 1 644.0366 429.6293)" class="st4 st7 st8">1224</text>
<text transform="matrix(1 0 0 1 545.8882 429.6293)" class="st4 st7 st8">1228</text>
<text transform="matrix(1 0 0 1 382.9272 419.7308)" class="st4 st7 st8">1223</text>
<text transform="matrix(1 0 0 1 382.9272 469.184)" class="st4 st7 st8">1219</text>
<text transform="matrix(1 0 0 1 458.0679 469.184)" class="st4 st7 st8">1215</text>
<text transform="matrix(1 0 0 1 458.0679 550.6957)" class="st4 st7 st8">1209</text>
<text transform="matrix(1 0 0 1 426.5562 627.9301)" class="st4 st7 st8">1207</text>
<text transform="matrix(1 0 0 1 545.8882 468.3401)" class="st4 st7 st8">1222</text>
<text transform="matrix(1 0 0 1 646.814 522.2112)" class="st4 st7 st8">1212</text>
<text transform="matrix(1 0 0 1 364.4077 91.0824)" class="st4 st7 st8">1361</text>
<text transform="matrix(1 0 0 1 364.4077 150.0043)" class="st4 st7 st8">1359</text>
<text transform="matrix(1 0 0 1 364.4077 206.9965)" class="st4 st7 st8">1357</text>
<text transform="matrix(1 0 0 1 364.4077 282.6879)" class="st4 st7 st8">1339</text>
<text transform="matrix(1 0 0 1 470.1265 265.7972)" class="st4 st7 st8">1343</text>
<text transform="matrix(1 0 0 1 484.2163 191.3441)" class="st4 st7 st8">1353</text>
<path class="st3" d="M533.9,427.7v-32.9"/>
<rect x="507.2" y="396.1" class="st3" width="24.5" height="27.8"/>
<path class="st3" d="M533.9,569.1v-32.9"/>
<rect x="543.6" y="270.2" class="st3" width="24.5" height="29.4"/>
<rect x="497.9" y="87.4" class="st10" width="21.2" height="2.7"/>
<rect x="497.9" y="92.1" class="st10" width="21.2" height="2.7"/>
<rect x="497.9" y="97.1" class="st10" width="21.2" height="2.7"/>
<rect x="497.9" y="101.6" class="st10" width="21.2" height="2.7"/>
<rect x="497.9" y="106.7" class="st10" width="21.2" height="2.7"/>
<rect x="497.9" y="111.3" class="st10" width="21.2" height="2.7"/>
<rect x="497.9" y="115.9" class="st10" width="21.2" height="2.7"/>
<rect x="497.9" y="120.8" class="st10" width="21.2" height="2.7"/>
<rect x="520" y="87.4" class="st10" width="21.2" height="2.7"/>
<rect x="520" y="92.1" class="st10" width="21.2" height="2.7"/>
<rect x="520" y="97.1" class="st10" width="21.2" height="2.7"/>
<rect x="520" y="101.6" class="st10" width="21.2" height="2.7"/>
<rect x="520" y="106.7" class="st10" width="21.2" height="2.7"/>
<rect x="520" y="111.3" class="st10" width="21.2" height="2.7"/>
<rect x="520" y="115.9" class="st10" width="21.2" height="2.7"/>
<rect x="520" y="120.8" class="st10" width="21.2" height="2.7"/>
<rect x="474.2" y="608.9" class="st10" width="15.9" height="2.7"/>
<rect x="474.2" y="613.5" class="st10" width="15.9" height="2.7"/>
<rect x="474.2" y="618.2" class="st10" width="15.9" height="2.7"/>
<rect x="474.2" y="623.2" class="st10" width="15.9" height="2.7"/>
<rect x="474.2" y="627.7" class="st10" width="15.9" height="2.7"/>
<rect x="474.2" y="632.5" class="st10" width="15.9" height="2.7"/>
<rect x="474.2" y="637.4" class="st10" width="15.9" height="2.7"/>
<rect x="474.2" y="641.8" class="st10" width="15.9" height="2.7"/>
<rect x="491.3" y="608.9" class="st10" width="15.9" height="2.7"/>
<rect x="491.3" y="613.5" class="st10" width="15.9" height="2.7"/>
<rect x="491.3" y="618.2" class="st10" width="15.9" height="2.7"/>
<rect x="491.3" y="623.2" class="st10" width="15.9" height="2.7"/>
<rect x="491.3" y="627.7" class="st10" width="15.9" height="2.7"/>
<rect x="491.3" y="632.5" class="st10" width="15.9" height="2.7"/>
<rect x="491.3" y="637.4" class="st10" width="15.9" height="2.7"/>
<rect x="491.3" y="641.8" class="st10" width="15.9" height="2.7"/>
<g class="st11">
	<g>
		<text transform="matrix(1 0 0 1 6.8218 80.9066)" class="st12 st7 st13">Level </text>
	</g>
	<circle class="st12" cx="156.5" cy="74.8" r="63.6"/>
	<text transform="matrix(1 0 0 1 125.3921 122.1801)" class="st4 st7 st14">1</text>
</g>
<polygon class="st5" points="519.1,36.6 505,12.7 532.6,12.7 "/>
<path class="st5" d="M622.7,197.9l-1.8-0.2c-3.3-0.2-6.6-4-7.5-7.5l-0.2-1.8h9.5v10.4"/>
<path class="st5" d="M622.7,258.4l-1.8,0.2c-3.5,0.7-6.6,3.5-7.5,7.5l-0.2,1.8h9.5V258.4L622.7,258.4z"/>
<g>
	<g>
		<path class="st15" d="M548.9,202.3c-1.1,0-2-0.9-2-2s0.9-2,2-2s2,0.9,2,2C551.1,201.4,550,202.3,548.9,202.3z"/>
		<path class="st15" d="M550.3,203c2.2,0,2.7,1.3,3.1,2.2l1.8,6.2c0.2,0.7,0,0.9-0.7,0.9c-0.7,0.2-0.7-0.2-0.9-0.7l-1.3-5.3
			c-0.2-0.2-0.2-0.7-0.7-0.7c-0.2,0.2-0.2,0.2-0.2,0.7l2.7,9.7H551c0,4,0,7.5,0,7.5c0,0.9-0.7,1.1-0.7,1.1c-0.2,0-0.9-0.2-0.9-1.1
			c0-0.9,0-7.1,0-7.1c0-0.2-0.2-0.7-0.7-0.7c-0.4,0-0.7,0.2-0.7,0.7c0,0,0,5.7,0,7.1c0,1.3-0.7,1.1-0.7,1.1c-0.2,0-0.7-0.2-0.7-1.1
			c0,0,0-3.5,0-7.5h-3.1l2.7-9.7c0.2-0.2,0.2-0.7-0.2-0.7s-0.7,0-0.7,0.7l-1.3,5.3c-0.2,0.7-0.7,0.7-0.9,0.7
			c-0.7-0.2-0.7-0.7-0.7-0.9l1.8-6.2c0.2-0.9,0.9-2.2,3.1-2.2H550.3z"/>
	</g>
	<g>
		<g>
			<path class="st15" d="M548.7,158.1c-1.3,0-2.2-0.9-2.2-2.2s0.9-2.2,2.2-2.2s2.2,0.9,2.2,2.2C550.5,157,549.8,158.1,548.7,158.1z"
				/>
		</g>
		<path class="st15" d="M544.5,164.1v5.1c0,0.9-0.7,1.1-0.9,1.1c-0.7,0-0.9-0.2-0.9-1.1v-6.6c0-2.7,1.3-3.5,4-3.5h4
			c2.2,0,4,0.7,4,3.5v6.6c0,0.9-0.2,1.1-0.9,1.1s-0.9-0.2-0.9-1.1v-5.1c0-0.7-0.2-0.7-0.7-0.7c-0.2,0-0.7,0.2-0.7,0.7
			c0,0.7,0,17.7,0,17.7c0,1.1-0.9,1.3-1.3,1.3c-0.2,0-1.3-0.2-1.3-1.3c0-0.9,0-10.4,0-10.4c0-0.2,0-0.7-0.2-0.7s-0.2,0.2-0.2,0.7
			c0,0,0,9.1,0,10.4s-0.9,1.3-1.3,1.3c-0.2,0-0.7-1.1-0.7-2.2c-0.2-11.3-0.9-17.5-0.9-17.5C545.6,163,544.5,163,544.5,164.1z"/>
	</g>
</g>
<rect x="505.2" y="763.8" class="st4" width="33.6" height="40.4"/>
<rect x="507.3" y="894.4" class="st4" width="29.9" height="29.4"/>
<g>
	<g>
		<path class="st15" d="M439.6,798.7c-1.1,0-2-0.9-2-2s0.9-2,2-2s2,0.9,2,2C441.8,797.8,440.7,798.7,439.6,798.7z"/>
		<path class="st15" d="M440.9,799.4c2.2,0,2.7,1.3,3.1,2.2l1.8,6.2c0.2,0.7,0,0.9-0.7,0.9c-0.7,0.2-0.7-0.2-0.9-0.7l-1.3-5.3
			c-0.2-0.2-0.2-0.7-0.7-0.7c-0.2,0.2-0.2,0.2-0.2,0.7l2.7,9.7h-3.1c0,4,0,7.5,0,7.5c0,0.9-0.7,1.1-0.7,1.1c-0.2,0-0.9-0.2-0.9-1.1
			s0-7.1,0-7.1c0-0.2-0.2-0.7-0.7-0.7s-0.7,0.2-0.7,0.7c0,0,0,5.7,0,7.1c0,1.3-0.7,1.1-0.7,1.1c-0.2,0-0.7-0.2-0.7-1.1
			c0,0,0-3.5,0-7.5h-3.1l2.7-9.7c0.2-0.2,0.2-0.7-0.2-0.7s-0.7,0-0.7,0.7l-1.3,5.3c-0.2,0.7-0.7,0.7-0.9,0.7
			c-0.7-0.2-0.7-0.7-0.7-0.9l1.8-6.2c0.2-0.9,0.9-2.2,3.1-2.2H440.9z"/>
	</g>
	<g>
		<g>
			<path class="st15" d="M453.3,798.5c-1.1,0-2-0.7-2-2c0-1.1,0.7-2,2-2s2,0.7,2,2C454.8,797.6,454.4,798.5,453.3,798.5z"/>
		</g>
		<path class="st15" d="M449.7,803.8v4.4c0,0.7-0.7,0.9-0.7,0.9c-0.7,0-0.7-0.2-0.7-0.9v-5.7c0-2.2,1.1-3.1,3.5-3.1h3.5
			c2,0,3.5,0.7,3.5,3.1v5.7c0,0.7-0.2,0.9-0.7,0.9c-0.7,0-0.7-0.2-0.7-0.9v-4.4c0-0.7-0.2-0.7-0.7-0.7c-0.2,0-0.7,0.2-0.7,0.7
			c0,0.7,0,15.5,0,15.5c0,0.9-0.7,1.1-1.1,1.1c-0.2,0-1.1-0.2-1.1-1.1c0-0.7,0-9.1,0-9.1c0-0.2,0-0.7-0.2-0.7s-0.2,0.2-0.2,0.7
			c0,0,0,8,0,9.1s-0.7,1.1-1.1,1.1c-0.2,0-0.4-0.9-0.4-1.8c-0.2-9.7-0.9-15.2-0.9-15.2C450.6,802.9,449.7,802.7,449.7,803.8z"/>
	</g>
</g>
<rect x="461" y="856.6" class="st5" width="28.5" height="31.4"/>
<text transform="matrix(1 0 0 1 465.3101 884.8676)" class="st4 st16 st17">E</text>
<line class="st18" x1="503" y1="770" x2="503" y2="904.8"/>
<line class="st18" x1="542.7" y1="768.7" x2="542.7" y2="904.8"/>
<rect x="486.4" y="814.8" class="st4" width="31.6" height="44.2"/>
<polygon class="st5" points="506.3,832.5 529.7,817.9 530.6,845.5 "/>
<g>
	<g>
		<path class="st15" d="M478.4,798.7c-1.1,0-2-0.9-2-2s0.9-2,2-2s2,0.9,2,2C480.7,797.8,479.6,798.7,478.4,798.7z"/>
		<path class="st15" d="M479.8,799.4c2.2,0,2.7,1.3,3.1,2.2l1.8,6.2c0.2,0.7,0,0.9-0.7,0.9c-0.7,0.2-0.7-0.2-0.9-0.7l-1.3-5.3
			c-0.2-0.2-0.2-0.7-0.7-0.7c-0.2,0.2-0.2,0.2-0.2,0.7l2.7,9.7h-3.1c0,4,0,7.5,0,7.5c0,0.9-0.7,1.1-0.7,1.1c-0.2,0-0.9-0.2-0.9-1.1
			s0-7.1,0-7.1c0-0.2-0.2-0.7-0.7-0.7c-0.4,0-0.7,0.2-0.7,0.7c0,0,0,5.7,0,7.1c0,1.3-0.7,1.1-0.7,1.1c-0.2,0-0.7-0.2-0.7-1.1
			c0,0,0-3.5,0-7.5H473l2.7-9.7c0.2-0.2,0.2-0.7-0.2-0.7s-0.7,0-0.7,0.7l-1.3,5.3c-0.2,0.7-0.7,0.7-0.9,0.7
			c-0.7-0.2-0.7-0.7-0.7-0.9l1.8-6.2c0.2-0.9,0.9-2.2,3.1-2.2H479.8z"/>
	</g>
	<g>
		<g>
			<path class="st15" d="M492.4,798.5c-1.1,0-2-0.7-2-2c0-1.1,0.7-2,2-2s2,0.7,2,2C493.9,797.6,493.3,798.5,492.4,798.5z"/>
		</g>
		<path class="st15" d="M488.6,803.8v4.4c0,0.7-0.7,0.9-0.7,0.9c-0.7,0-0.7-0.2-0.7-0.9v-5.7c0-2.2,1.1-3.1,3.5-3.1h3.5
			c2,0,3.5,0.7,3.5,3.1v5.7c0,0.7-0.2,0.9-0.7,0.9c-0.7,0-0.7-0.2-0.7-0.9v-4.4c0-0.7-0.2-0.7-0.7-0.7c-0.2,0-0.7,0.2-0.7,0.7
			c0,0.7,0,15.5,0,15.5c0,0.9-0.7,1.1-1.1,1.1c-0.2,0-1.1-0.2-1.1-1.1c0-0.7,0-9.1,0-9.1c0-0.2,0-0.7-0.2-0.7s-0.2,0.2-0.2,0.7
			c0,0,0,8,0,9.1s-0.7,1.1-1.1,1.1c-0.2,0-0.4-0.9-0.4-1.8c-0.2-9.7-0.9-15.2-0.9-15.2C489.5,802.9,488.6,802.7,488.6,803.8z"/>
	</g>
</g>
</svg>
