<?xml version="1.0" encoding="utf-8"?>
<!-- Generator: Adobe Illustrator 19.2.1, SVG Export Plug-In . SVG Version: 6.00 Build 0)  -->
<svg version="1.1" id="Layer_1" xmlns="http://www.w3.org/2000/svg" xmlns:xlink="http://www.w3.org/1999/xlink" x="0px" y="0px"
	 viewBox="0 0 1300.7 741.2" style="enable-background:new 0 0 1300.7 741.2;" xml:space="preserve">
<style type="text/css">
	.st0{fill:#C1C1C0;}
	.st1{fill:#C1C1C0;stroke:#FFFFFF;stroke-width:1.0556;stroke-miterlimit:10;}
	.st2{fill:#4A6DB4;}
	.st3{fill:#C1C1C0;stroke:#FFFFFF;stroke-miterlimit:10;}
	.st4{fill:#FFFFFF;}
	.st5{fill:none;stroke:#989798;stroke-width:8;stroke-miterlimit:10;}
</style>
<rect x="129.6" y="198.7" class="st0" width="52.1" height="75.2"/>
<rect x="30.6" y="224.4" class="st1" width="82.2" height="210.8"/>
<rect x="34.9" y="112.4" class="st0" width="147.5" height="94.7"/>
<polygon class="st2" points="190.8,713.5 190.8,120.8 835.6,120.8 835.6,656.2 "/>
<g>
	<g>
		<path class="st2" d="M69.9,295.4c-2.6,0-4.3-2.3-4.3-4.3s2.3-4.3,4.3-4.3c2.6,0,4.3,2.3,4.3,4.3C74.2,293.1,72.6,295.4,69.9,295.4
			z"/>
	</g>
	<path class="st2" d="M62.2,306.9v9.9c0,1.8-1,2.3-1.8,2.3c-1.3,0-1.6-0.2-1.6-2.3v-12.5c0-5.3,2.8-6.9,7.6-6.9h7.7
		c4.3,0,7.6,1.6,7.6,6.9v12.5c0,1.8-0.7,2.3-1.8,2.3c-1,0-1.6-0.2-1.6-2.3v-9.9c0-1-0.7-1.3-1-1.3c-0.2,0-1,0.2-1,1.3
		c0,1.6,0,33.4,0,33.4c0,2.3-1.8,2.6-2.6,2.6s-2.6-0.2-2.6-2.6c0-2.3,0-19.7,0-19.7c0-0.2,0-1-0.7-1c-0.2,0-0.7,0.2-0.7,1
		c0,0,0,17.4,0,19.7s-1.8,2.6-2.6,2.6s-2.6-0.2-2.6-2.6c0,0,0-31.9,0-33.4c0-1.3-0.7-1.3-1-1.3S62.2,305.8,62.2,306.9z"/>
</g>
<g>
	<path class="st2" d="M134.7,136.1c-2.6,0-4.3-2.3-4.3-4.3c0-2.6,1.8-4.3,4.3-4.3c2.3,0,4.3,2.3,4.3,4.3
		C139.1,134.5,137.5,136.1,134.7,136.1z"/>
	<path class="st2" d="M137.5,137.7c4.3,0,5.8,2.8,6.6,4.9l3.6,12.3c0.2,1.3,0,2.3-1,2.3c-1,0.2-1.6-0.2-2.3-1.3l-3.1-10.9
		c-0.2-0.7-0.7-1-1.3-1c-0.7,0.2-0.7,1-0.2,1.6l5.8,19.7H139c0,8.1,0,15,0,15c0,2.3-1,2.6-1.6,2.6c-0.2,0-1.8-0.2-1.8-2.6
		c0-2.4,0-14.3,0-14.3c0-0.7-0.2-1-1-1c-0.7,0-1,0.2-1,1c0,0,0,12.3,0,14.3c0,2.3-1,2.6-1.6,2.6c-0.2,0-1.6-0.2-1.6-2.6
		c0,0,0-6.9,0-15h-6.6l5.8-19.7c0.2-0.7,0.2-1.3-0.2-1.6c-0.7-0.2-1,0.2-1.3,1l-3.1,10.9c-0.2,1-1,1.6-2.3,1.3c-1-0.2-1.3-1-1-2.3
		l3.6-12.3c0.7-1.8,1.8-4.9,6.6-4.9C131.2,137.7,137.5,137.7,137.5,137.7z"/>
</g>
<rect x="1254.8" y="10.9" class="st3" width="7.7" height="85.2"/>
<rect x="1262.1" y="10.9" class="st3" width="7.7" height="85.2"/>
<rect x="1209.4" y="96.3" class="st3" width="7.7" height="1.8"/>
<rect x="1269.8" y="96.3" class="st3" width="7.7" height="1.8"/>
<rect x="1239.7" y="10.9" class="st3" width="7.6" height="85.2"/>
<rect x="1262.1" y="96.3" class="st3" width="7.7" height="1.8"/>
<rect x="1247.1" y="10.9" class="st3" width="7.7" height="85.2"/>
<rect x="1224.6" y="96.3" class="st3" width="7.7" height="1.8"/>
<rect x="1232.3" y="96.3" class="st3" width="7.7" height="1.8"/>
<rect x="1232.3" y="10.9" class="st3" width="7.7" height="85.2"/>
<rect x="1216.8" y="96.3" class="st3" width="7.7" height="1.8"/>
<rect x="1239.7" y="96.3" class="st3" width="7.6" height="1.8"/>
<rect x="1254.8" y="96.3" class="st3" width="7.7" height="1.8"/>
<rect x="1247.1" y="96.3" class="st3" width="7.7" height="1.8"/>
<rect x="1269.8" y="10.9" class="st3" width="7.7" height="85.2"/>
<rect x="1285.2" y="96.3" class="st3" width="7.7" height="1.8"/>
<rect x="1224.6" y="10.9" class="st3" width="7.7" height="85.2"/>
<rect x="1277.7" y="96.3" class="st3" width="7.7" height="1.8"/>
<rect x="1277.7" y="10.9" class="st3" width="7.7" height="85.2"/>
<polygon class="st3" points="949.3,664.8 949.3,664.8 1294.5,634.7 1293.3,624.6 1065.5,644.5 1065.5,654.9 "/>
<path class="st3" d="M175.3,732.5L423,710.8L175.3,732.5z"/>
<polygon class="st3" points="1065.5,10.9 1201.7,10.9 1209.4,10.9 1216.8,10.9 1224.6,10.9 1232.3,10.9 1239.7,10.9 1247.1,10.9 
	1254.8,10.9 1262.1,10.9 1269.8,10.9 1277.7,10.9 1285.2,10.9 1292.6,10.9 1292.6,0.9 1065.5,0.9 912.4,0.9 912.4,10.9 "/>
<rect x="1209.4" y="10.9" class="st3" width="7.7" height="85.2"/>
<rect x="1201.7" y="10.9" class="st3" width="7.7" height="85.2"/>
<rect x="1216.8" y="10.9" class="st3" width="7.7" height="85.2"/>
<rect x="1201.7" y="96.3" class="st3" width="7.7" height="1.8"/>
<polygon class="st3" points="1277.7,97.9 1269.8,97.9 1262.1,97.9 1254.8,97.9 1247.1,97.9 1239.7,97.9 1232.3,97.9 1224.6,97.9 
	1216.8,97.9 1209.4,97.9 1201.7,97.9 1187.4,97.9 1171.4,97.9 1171.4,108.1 1199.9,108.1 1228.5,108.1 1256.8,108.1 1285.2,108.1 
	1292.6,108.1 1292.6,97.9 1285.2,97.9 "/>
<rect x="1187.4" y="96.3" class="st3" width="14.5" height="1.8"/>
<polygon class="st3" points="1194.5,632.4 1194.5,543.7 1186.7,543.7 1186.7,633.2 "/>
<rect x="1277.7" y="542.8" class="st3" width="7.7" height="1"/>
<polygon class="st3" points="1254.8,543.7 1254.8,627.1 1262.1,626.1 1262.1,543.7 "/>
<polygon class="st3" points="1239.7,543.7 1239.7,628.4 1247.1,627.9 1247.1,543.7 "/>
<polygon class="st3" points="1247.1,543.7 1247.1,627.9 1254.8,627.1 1254.8,543.7 "/>
<polygon class="st3" points="1277.7,625 1285.2,624.5 1285.2,543.7 1277.7,543.7 "/>
<polygon class="st3" points="1269.8,543.7 1269.8,625.6 1277.7,625 1277.7,543.7 "/>
<polygon class="st3" points="1262.1,543.7 1262.1,626.1 1269.8,625.6 1269.8,543.7 "/>
<polygon class="st3" points="1201.7,543.7 1201.7,631.7 1209.4,631.2 1209.4,543.7 "/>
<polygon class="st3" points="1194.5,543.7 1194.5,632.4 1201.7,631.7 1201.7,543.7 "/>
<polygon class="st3" points="1224.6,543.7 1224.6,629.7 1232.3,629.3 1232.3,543.7 "/>
<polygon class="st3" points="1209.4,543.7 1209.4,631.2 1216.8,630.6 1216.8,543.7 "/>
<polygon class="st3" points="1216.8,543.7 1216.8,630.6 1224.6,629.7 1224.6,543.7 "/>
<polygon class="st3" points="1232.3,543.7 1232.3,629.3 1239.7,628.4 1239.7,543.7 "/>
<rect x="1216.8" y="542.8" class="st3" width="7.7" height="1"/>
<rect x="1209.4" y="542.8" class="st3" width="7.7" height="1"/>
<rect x="1194.5" y="542.8" class="st3" width="7.7" height="1"/>
<rect x="1201.7" y="542.8" class="st3" width="7.7" height="1"/>
<rect x="1186.7" y="542.8" class="st3" width="7.6" height="1"/>
<rect x="1269.8" y="542.8" class="st3" width="7.7" height="1"/>
<rect x="1176.4" y="458.9" class="st3" width="123.8" height="65.5"/>
<rect x="1262.1" y="542.8" class="st3" width="7.7" height="1"/>
<rect x="1247.1" y="542.8" class="st3" width="7.7" height="1"/>
<rect x="1254.8" y="542.8" class="st3" width="7.7" height="1"/>
<rect x="1239.7" y="542.8" class="st3" width="7.6" height="1"/>
<rect x="1224.6" y="542.8" class="st3" width="7.7" height="1"/>
<rect x="1232.3" y="542.8" class="st3" width="7.7" height="1"/>
<rect x="696" y="322.9" class="st4" width="5.1" height="1.6"/>
<rect x="671.3" y="496" class="st4" width="4.9" height="1.6"/>
<polygon class="st4" points="700.9,338.7 700.9,324.4 696,324.4 696,322.9 687,322.9 687,338.7 "/>
<rect x="662.6" y="467.4" class="st4" width="14.3" height="14.3"/>
<rect x="662.6" y="424.5" class="st4" width="14.3" height="14.5"/>
<rect x="662.6" y="439" class="st4" width="14.3" height="14.5"/>
<rect x="662.6" y="453.3" class="st4" width="14.3" height="14.3"/>
<rect x="662.6" y="410.2" class="st4" width="14.3" height="14.5"/>
<polygon class="st4" points="662.6,497.5 671.3,497.5 671.3,496 676.8,496 676.8,481.6 662.6,481.6 "/>
<rect x="687" y="423.4" class="st4" width="14.5" height="14.3"/>
<rect x="687" y="437.3" class="st4" width="14.5" height="14.3"/>
<rect x="687" y="409.4" class="st4" width="14.5" height="14.3"/>
<polygon class="st4" points="610.8,638.1 615.9,637.8 615.6,636.5 610.5,637.3 "/>
<rect x="687" y="366.8" class="st4" width="14.5" height="14.3"/>
<rect x="687" y="338.7" class="st4" width="14.5" height="14.3"/>
<rect x="687" y="352.5" class="st4" width="14.5" height="14.3"/>
<rect x="687" y="394.7" class="st4" width="14.5" height="14.5"/>
<rect x="687" y="380.6" class="st4" width="14.5" height="14.3"/>
<rect x="662.6" y="396.1" class="st4" width="14.3" height="14.5"/>
<rect x="638.1" y="382.2" class="st4" width="14.3" height="14.5"/>
<rect x="638.1" y="396.9" class="st4" width="14.3" height="14.5"/>
<rect x="638.1" y="367.6" class="st4" width="14.3" height="14.5"/>
<rect x="638.1" y="440.3" class="st4" width="14.3" height="14.5"/>
<rect x="638.1" y="411.2" class="st4" width="14.3" height="14.5"/>
<rect x="638.1" y="425.7" class="st4" width="14.3" height="14.5"/>
<rect x="647" y="322.9" class="st4" width="5.1" height="1.6"/>
<rect x="638.1" y="353.3" class="st4" width="14.3" height="14.5"/>
<polygon class="st4" points="652.4,338.7 652.4,324.4 647,324.4 647,322.9 638.1,322.9 638.1,338.7 "/>
<rect x="638.1" y="338.7" class="st4" width="14.3" height="14.5"/>
<rect x="647" y="498" class="st4" width="5.1" height="1.6"/>
<rect x="671.3" y="322.9" class="st4" width="4.9" height="1.6"/>
<rect x="662.6" y="338.7" class="st4" width="14.3" height="14.3"/>
<rect x="662.6" y="352.6" class="st4" width="14.3" height="14.5"/>
<rect x="662.6" y="367.1" class="st4" width="14.3" height="14.5"/>
<polygon class="st4" points="676.8,338.7 676.8,324.4 671.3,324.4 671.3,322.9 662.6,322.9 662.6,338.7 "/>
<rect x="638.1" y="469.6" class="st4" width="14.3" height="14.5"/>
<rect x="638.1" y="454.8" class="st4" width="14.3" height="14.5"/>
<polygon class="st4" points="638.1,499.2 647,499.2 647,498 652.4,498 652.4,483.4 638.1,483.4 "/>
<rect x="662.6" y="381.7" class="st4" width="14.3" height="14.5"/>
<polygon class="st4" points="708,630.6 712.6,629.7 712.6,628.4 707.3,629.3 "/>
<polygon class="st4" points="519.2,646.9 519.2,646.5 513.9,646.9 513.9,647.2 513.9,646.9 505.1,648 505.1,648.2 "/>
<polygon class="st4" points="494.9,648.8 494.9,648.8 480.7,650 480.7,650 "/>
<polygon class="st4" points="739.4,626.1 744.5,625.6 744.5,625.6 739.4,625.8 "/>
<polygon class="st4" points="513.8,645.5 518.9,645.4 516.7,617.6 502.4,618.9 516.7,617.6 515.3,603.3 501.1,604.6 515.3,603.3 
	512.8,575.3 498.7,576.8 512.8,575.3 511.3,561.7 497.5,563 511.3,561.7 510.2,546 505.4,546.9 505.4,548.3 510.3,547.8 
	505.4,548.3 505.4,546.9 496.2,547.5 500.1,590.6 513.9,589.6 500.1,590.6 503.4,632.5 517.7,631.4 503.4,632.5 505.1,648 
	513.9,646.9 "/>
<polygon class="st4" points="538.1,645.4 538.1,644.9 528.7,645.9 528.7,645.9 "/>
<polygon class="st4" points="513.9,646.9 519.2,646.5 518.9,645.4 513.8,645.5 "/>
<polygon class="st4" points="739.4,625.8 744.5,625.6 741.9,598.7 736.6,599 736.6,598 736.6,599 741.9,598.7 741.9,597.3 
	727.2,598.7 728.9,613.6 743.2,612.2 728.9,613.6 729.9,627.1 739.4,626.1 "/>
<rect x="623.1" y="500" class="st4" width="5.1" height="1.6"/>
<polygon class="st4" points="708,630.6 708,630.6 708,630.6 698.6,631.2 698.6,629.9 688.3,631.2 688.3,632.2 674.1,633.4 
	674.1,632.4 664.3,633.4 664.4,633.9 650.1,635.2 650,634.7 640.1,635.2 640.1,635.8 635,636.5 635,636.5 635,636.5 625.8,637.3 
	625.8,636.5 615.9,637.8 615.9,638.6 610.8,638.8 610.8,638.8 610.8,638.8 601.8,639.8 601.8,639.1 591.4,639.8 591.4,640.4 
	577.4,641.6 577.4,641.4 567.4,642.1 567.4,642.6 553.7,643.4 553.3,643.2 543.2,644.5 543.2,644.5 538.1,645.4 538.1,645.4 
	538.1,645.4 528.7,645.9 528.7,645.9 519.2,646.5 519.2,646.9 505.1,648.2 505.1,648 494.9,648.8 494.9,648.8 480.7,650 480.7,650 
	224.8,673.8 225,677.6 883.5,620.2 883,613.1 744.5,625.6 744.5,627.1 730.2,628.4 729.9,627.1 712.6,628.4 712.6,629.7 "/>
<polygon class="st4" points="744.5,627.1 744.5,625.6 739.4,626.1 739.4,627.4 739.4,626.1 729.9,627.1 730.2,628.4 "/>
<rect x="687" y="465.6" class="st4" width="14.5" height="14.3"/>
<polygon class="st4" points="591.4,640.4 591.4,639.8 586.3,640.4 586.3,640.6 586.3,640.4 577.4,641.4 577.4,641.6 "/>
<polygon class="st4" points="586.3,640.4 591.4,639.8 591.4,638.8 586.3,639.1 "/>
<polygon class="st4" points="707.3,629.3 712.6,628.4 712.6,628.1 707.3,628.4 "/>
<path class="st4" d="M610.5,637.3l5.1-0.2l-1.3-13.6l-14.3,1.3l14.3-1.3l-1.2-13.8l-14.3,1.3l14.3-1.3l-2.6-28l-14.3,1l14.3-1
	l-3.9-42.9l-5.1,0.2l0.2,1.6l5.1-0.2l-5.1,0.2l-0.2-1.6l-9,1l2.6,29.3l14.3-1.3l-14.4,1.2l6.1,70.6l9-1L610.5,637.3z M608.5,553.4
	l-14.3,1.3L608.5,553.4z M612.3,594.7L598,596L612.3,594.7z"/>
<path class="st4" d="M538.1,643.2l5.1-0.2l-2.3-27.6l-14.3,1.3l14.3-1.3l-2.6-28l-14.3,1.3l14.3-1.3l-3.6-42.9l-14.3,1.3l1.3,15.6
	l14.3-1.3l-14.3,1.3L523,575l14.3-1.3L523,575l2.6,28l14.3-1l-14.3,1l3.9,42.9l9-1L538.1,643.2z M529.6,544.6l0.2,1.6l5.1-0.2
	l-5.1,0.2L529.6,544.6z M541.7,629.3l-14.3,1.3L541.7,629.3z"/>
<polygon class="st4" points="610.8,638.8 610.8,638.1 601.8,639.1 601.8,639.8 "/>
<polygon class="st4" points="538.1,644.9 543.2,644.5 543.1,643.1 538.1,643.2 "/>
<polygon class="st4" points="538.1,645.4 543.2,644.5 543.2,644.5 538.1,644.9 "/>
<polygon class="st4" points="567.4,642.6 567.4,642.1 562.8,642.6 562.8,643.1 562.8,642.6 553.3,643.2 553.7,643.4 "/>
<path class="st4" d="M562.1,641.4l4.9-0.2L562.1,641.4v1.3l5.1-0.2l-3.9-42.8L549,601l14.3-1.3l-3.6-42.1l-14.3,1.3l14.3-1.3
	l-1.3-15.6l-14.3,1.3l2.6,29.3l14.3-1l-14.3,1l1.3,14.3l14.3-1.3l-14.3,1.3l2.6,28l14.3-1.3l-14.3,1.3l1.3,13.6l14.3-1.3l-14.3,1.3
	l1.3,15l9-1L562.1,641.4z M553.7,542.6l0.2,1.6l5.1-0.2l-5.1,0.2L553.7,542.6z"/>
<polygon class="st4" points="586.3,639.1 591.4,638.8 588.9,611.2 574.8,612.3 588.9,611.2 587.5,597.3 573.6,598.7 576.3,626.1 
	590.1,625 576.3,626.1 577.4,641.4 586.3,640.4 "/>
<rect x="711.1" y="351.3" class="st4" width="14.5" height="14.3"/>
<rect x="711.1" y="337.7" class="st4" width="14.5" height="13.6"/>
<polygon class="st4" points="693.5,573.7 708,572.2 705.4,544.4 691.1,545.5 705.4,544.4 703.9,530.1 698.8,530.9 698.8,529.9 
	689.6,530.7 692.1,559.4 706.7,558 692.1,559.4 696,601.5 710.1,600.3 696,601.5 697.3,615.8 711.3,614.6 697.3,615.8 698.6,629.9 
	707.3,629.3 707.3,628.4 712.6,628.1 708.7,586.5 694.7,587.3 708.7,586.5 708,572.2 "/>
<rect x="711.1" y="407.9" class="st4" width="14.5" height="14.3"/>
<rect x="711.1" y="379.9" class="st4" width="14.5" height="14.3"/>
<rect x="711.1" y="393.6" class="st4" width="14.5" height="14.3"/>
<rect x="696" y="493.9" class="st4" width="5.1" height="1.6"/>
<polygon class="st4" points="687,495.2 696,495.2 696,493.9 700.9,493.9 700.9,479.9 687,479.9 "/>
<polygon class="st4" points="725.6,337.7 725.6,324 720.3,324 720.3,322.9 711.1,322.9 711.1,337.7 "/>
<rect x="720.3" y="322.9" class="st4" width="5.1" height="1"/>
<rect x="711.1" y="365.8" class="st4" width="14.5" height="14.3"/>
<rect x="711.1" y="421.5" class="st4" width="14.5" height="14.3"/>
<polygon class="st4" points="730.2,527 721.3,527.9 722.8,541.9 736.6,541.1 722.8,541.9 724.3,557.6 733.2,556.4 732.8,555.1 
	737.9,554.6 736,527.5 730.7,527.9 "/>
<polygon class="st4" points="730.2,527 730.7,527.9 736,527.5 735.5,526.8 "/>
<polygon class="st4" points="733.2,556.4 738.3,556.2 737.9,554.6 732.8,555.1 "/>
<rect x="720.3" y="491.6" class="st4" width="5.1" height="1.6"/>
<polygon class="st4" points="711.1,493.2 720.3,493.2 720.3,491.6 725.6,491.6 725.6,477.6 711.1,477.6 "/>
<rect x="711.1" y="435.5" class="st4" width="14.5" height="14.3"/>
<rect x="711.1" y="449.8" class="st4" width="14.5" height="14.3"/>
<rect x="711.1" y="464" class="st4" width="14.5" height="13.6"/>
<rect x="687" y="451.3" class="st4" width="14.5" height="14.3"/>
<polygon class="st4" points="555.2,338.3 555.2,324.4 550.3,324.4 550.3,322.9 541.1,322.9 541.1,338.3 "/>
<rect x="550.3" y="322.9" class="st4" width="5.1" height="1.6"/>
<rect x="541.1" y="352.5" class="st4" width="14.3" height="14.3"/>
<rect x="541.1" y="366.1" class="st4" width="14.3" height="14.3"/>
<rect x="526" y="508.5" class="st4" width="5.1" height="1.6"/>
<rect x="541.1" y="338.3" class="st4" width="14.3" height="14.3"/>
<rect x="516.7" y="452.1" class="st4" width="14.3" height="14.3"/>
<rect x="516.7" y="466.3" class="st4" width="14.3" height="14.3"/>
<polygon class="st4" points="516.7,510.2 526,510.2 526,508.5 530.9,508.5 530.9,494.9 516.7,494.9 "/>
<rect x="516.7" y="480.4" class="st4" width="14.3" height="14.5"/>
<rect x="516.7" y="438" class="st4" width="14.3" height="14.3"/>
<rect x="541.1" y="464.6" class="st4" width="14.3" height="14.3"/>
<rect x="541.1" y="478.9" class="st4" width="14.3" height="13.6"/>
<rect x="550.3" y="506.6" class="st4" width="5.1" height="1.6"/>
<polygon class="st4" points="541.1,508.2 550.3,508.2 550.3,506.6 555.2,506.6 555.2,492.6 541.1,492.6 "/>
<rect x="541.1" y="380.4" class="st4" width="14.3" height="14.3"/>
<rect x="541.1" y="450.8" class="st4" width="14.3" height="14.3"/>
<rect x="541.1" y="436.5" class="st4" width="14.3" height="14.3"/>
<rect x="541.1" y="394.6" class="st4" width="14.3" height="14.3"/>
<rect x="541.1" y="408.7" class="st4" width="14.3" height="14.3"/>
<rect x="541.1" y="422.9" class="st4" width="14.3" height="14.3"/>
<rect x="492.6" y="453.3" class="st4" width="14.3" height="14.5"/>
<rect x="492.6" y="424.7" class="st4" width="14.3" height="14.5"/>
<polygon class="st4" points="579.6,338.3 579.6,324.4 574.5,324.4 574.5,322.9 565.6,322.9 565.6,338.3 "/>
<rect x="492.6" y="439.1" class="st4" width="14.3" height="14.5"/>
<rect x="492.6" y="467.9" class="st4" width="14.3" height="14.5"/>
<rect x="492.6" y="482.2" class="st4" width="14.3" height="14.5"/>
<rect x="492.6" y="410.2" class="st4" width="14.3" height="14.5"/>
<rect x="516.7" y="423.4" class="st4" width="14.3" height="14.5"/>
<rect x="492.6" y="381.7" class="st4" width="14.3" height="14.5"/>
<rect x="492.6" y="396.2" class="st4" width="14.3" height="14.5"/>
<polygon class="st4" points="492.6,512.3 501.6,512.3 501.6,510.8 506.9,510.8 506.9,496.7 492.6,496.7 "/>
<rect x="492.6" y="367.1" class="st4" width="14.3" height="14.5"/>
<rect x="501.6" y="510.8" class="st4" width="5.1" height="1.6"/>
<rect x="516.7" y="380.9" class="st4" width="14.3" height="14.3"/>
<polygon class="st4" points="613.9,501.8 623.1,501.8 623.1,500 628.2,500 628.2,486.8 613.9,486.8 "/>
<rect x="516.7" y="366.9" class="st4" width="14.3" height="14.5"/>
<rect x="516.7" y="395.2" class="st4" width="14.3" height="14.3"/>
<rect x="526" y="322.9" class="st4" width="5.1" height="1.6"/>
<rect x="516.7" y="352.6" class="st4" width="14.3" height="14.3"/>
<polygon class="st4" points="530.9,338.7 530.9,324.4 526,324.4 526,322.9 516.7,322.9 516.7,338.7 "/>
<rect x="516.7" y="338.7" class="st4" width="14.3" height="14.3"/>
<rect x="516.7" y="409.4" class="st4" width="14.3" height="14.3"/>
<polygon class="st4" points="589.6,503.9 599,503.9 599,502.1 603.6,502.1 603.6,488.5 589.6,488.5 "/>
<polygon class="st4" points="628.2,337.8 628.2,324.4 623.1,324.4 623.1,322.9 613.9,322.9 613.9,337.8 "/>
<rect x="599" y="502.1" class="st4" width="5.1" height="1.6"/>
<rect x="623.1" y="322.9" class="st4" width="5.1" height="1.6"/>
<rect x="613.9" y="337.8" class="st4" width="14.3" height="13.5"/>
<rect x="589.6" y="433.7" class="st4" width="14.3" height="13.6"/>
<rect x="613.9" y="351.2" class="st4" width="14.3" height="13.5"/>
<rect x="589.6" y="447.4" class="st4" width="14.3" height="13.6"/>
<rect x="589.6" y="475.2" class="st4" width="14.3" height="13.5"/>
<rect x="589.6" y="461.5" class="st4" width="14.3" height="13.6"/>
<rect x="613.9" y="405.4" class="st4" width="14.3" height="13.5"/>
<rect x="613.9" y="432.7" class="st4" width="14.3" height="13.5"/>
<rect x="613.9" y="459.9" class="st4" width="14.3" height="13.5"/>
<rect x="613.9" y="364.5" class="st4" width="14.3" height="13.5"/>
<rect x="613.9" y="473.4" class="st4" width="14.3" height="13.5"/>
<rect x="613.9" y="446.2" class="st4" width="14.3" height="13.5"/>
<rect x="613.9" y="378.6" class="st4" width="14.3" height="13.6"/>
<rect x="613.9" y="392.1" class="st4" width="14.3" height="13.5"/>
<rect x="589.6" y="420.4" class="st4" width="14.3" height="13.6"/>
<rect x="613.9" y="418.9" class="st4" width="14.3" height="13.6"/>
<rect x="565.6" y="463" class="st4" width="14.3" height="13.6"/>
<rect x="565.6" y="421.5" class="st4" width="14.3" height="13.6"/>
<rect x="565.6" y="435.4" class="st4" width="14.3" height="13.6"/>
<rect x="565.6" y="449.2" class="st4" width="14.3" height="13.6"/>
<rect x="574.5" y="322.9" class="st4" width="5.1" height="1.6"/>
<rect x="565.6" y="407.2" class="st4" width="14.3" height="13.6"/>
<rect x="565.6" y="379.9" class="st4" width="14.3" height="13.6"/>
<rect x="565.6" y="352.1" class="st4" width="14.3" height="13.6"/>
<rect x="565.6" y="366" class="st4" width="14.3" height="13.6"/>
<rect x="589.6" y="406.4" class="st4" width="14.3" height="13.6"/>
<rect x="565.6" y="477.3" class="st4" width="14.3" height="13.6"/>
<rect x="565.6" y="393.6" class="st4" width="14.3" height="13.6"/>
<rect x="589.6" y="365.3" class="st4" width="14.3" height="13.6"/>
<rect x="589.6" y="379.1" class="st4" width="14.3" height="13.6"/>
<polygon class="st4" points="565.6,505.9 574.5,505.9 574.5,504.4 579.6,504.4 579.6,490.8 565.6,490.8 "/>
<rect x="589.6" y="351.3" class="st4" width="14.3" height="13.6"/>
<rect x="589.6" y="392.6" class="st4" width="14.3" height="13.6"/>
<rect x="589.6" y="337.8" class="st4" width="14.3" height="13.5"/>
<polygon class="st4" points="603.6,337.8 603.6,324.4 599,324.4 599,322.9 589.6,322.9 589.6,337.8 "/>
<rect x="574.5" y="504.4" class="st4" width="5.1" height="1.6"/>
<rect x="599" y="322.9" class="st4" width="5.1" height="1.6"/>
<rect x="565.6" y="338.3" class="st4" width="14.3" height="13.6"/>
<polygon class="st3" points="219.6,10.9 213,10.9 213,11.4 219.6,11.4 "/>
<polygon class="st3" points="219.6,38.9 218.9,38.4 217.9,38 217.4,37 217.1,36.2 217.4,35.2 217.9,34.7 218.9,33.9 219.6,33.8 
	219.6,12.7 212.3,12.7 212.3,56.3 219.6,56.3 "/>
<polygon class="st3" points="219.6,56.3 219.6,94.9 219.6,56.3 212.3,56.3 212.3,96.7 234,96.7 234,56.3 "/>
<polygon class="st3" points="397.8,12.7 435.2,12.7 613.4,12.7 620.8,12.7 620.8,12.2 426.8,11.7 397.8,11.7 219.6,11.7 213,11.7 
	213,11.4 212.3,11.4 212.3,12.7 219.6,12.7 "/>
<rect x="687" y="10.9" class="st3" width="143.9" height="1"/>
<rect x="234" y="56.3" class="st3" width="9.9" height="40.9"/>
<rect x="244.4" y="56.3" class="st3" width="50.5" height="40.9"/>
<rect x="355.6" y="56.3" class="st3" width="9.9" height="40.9"/>
<rect x="305.1" y="56.3" class="st3" width="50.5" height="40.9"/>
<rect x="295.1" y="56.3" class="st3" width="9.9" height="40.9"/>
<polygon class="st3" points="436.3,33.9 437.3,34.7 437.6,35.2 438,36.2 613.4,36.2 613.4,12.7 435.2,12.7 435.2,33.8 "/>
<polygon class="st3" points="222,36.2 222,37 221.2,38 220.6,38.4 219.6,38.9 219.6,56.3 234,56.3 244.4,56.3 295.1,56.3 
	305.1,56.3 355.6,56.3 365.6,56.3 397.8,56.3 397.8,36.2 "/>
<polygon class="st3" points="434.8,38.4 433.9,38 433.4,37 433,36.2 428.1,36.2 433,36.2 433.4,35.2 433.9,34.7 434.8,33.9 
	435.2,33.8 435.2,12.7 397.8,12.7 397.8,36.2 397.8,56.3 416.3,56.3 426.3,56.3 435.2,56.3 435.2,38.9 "/>
<polygon class="st3" points="221.2,34.7 222,35.2 222,36.2 397.8,36.2 397.8,12.7 219.6,12.7 219.6,33.8 220.6,33.9 "/>
<polygon class="st3" points="397.8,11.7 397.8,10.9 219.6,10.9 219.6,11.4 "/>
<polygon class="st3" points="397.8,56.3 397.8,94.9 397.8,56.3 365.6,56.3 365.6,96.7 416.3,96.7 416.3,56.3 "/>
<polygon class="st3" points="426.8,11.7 435.2,11.7 435.2,10.9 397.8,10.9 397.8,11.7 "/>
<polygon class="st4" points="610.8,638.8 615.9,638.6 615.9,637.8 610.8,638.1 "/>
<polygon class="st3" points="219.6,11.4 219.6,11.7 397.8,11.7 397.8,11.7 "/>
<polygon class="st3" points="613.4,12.7 613.4,36.2 613.4,56.3 658.3,56.3 668.5,56.3 687,56.3 687,38.9 685.8,38.4 685,38 
	684.7,37 684.3,36.2 684.7,35.2 685,34.7 685.8,33.9 687,33.8 687,12.7 679.2,12.7 679.2,12.2 620.8,12.2 620.8,12.7 "/>
<polygon class="st3" points="438,36.2 437.6,37 437.3,38 436.3,38.4 435.2,38.9 435.2,56.3 476.8,56.3 486.8,56.3 537.1,56.3 
	598,56.3 608,56.3 613.4,56.3 613.4,36.2 "/>
<polygon class="st3" points="679.2,12.2 679.2,12.7 687,12.7 831,12.7 831,12.7 "/>
<polygon class="st3" points="687,33.8 687.6,33.9 688.8,34.7 689.4,35.2 689.6,36.2 689.4,37 688.8,38 687.6,38.4 687,38.9 
	687,56.3 719,56.3 729.5,56.3 779.4,56.3 789.7,56.3 811.9,56.3 831,56.3 831,12.7 687,12.7 "/>
<rect x="811.9" y="56.3" class="st3" width="18.9" height="40.9"/>
<rect x="789.7" y="56.3" class="st3" width="22.5" height="40.9"/>
<rect x="779.4" y="56.3" class="st3" width="9.9" height="40.9"/>
<rect x="831" y="10.9" class="st3" width="67.8" height="1"/>
<rect x="898.9" y="10.9" class="st3" width="6.7" height="1"/>
<rect x="729.5" y="56.3" class="st3" width="50.5" height="40.9"/>
<polygon class="st3" points="831,12.7 898.9,12.7 906.5,12.7 906.5,12.7 "/>
<polygon class="st3" points="898.9,11.7 831,11.7 831,12.7 906.5,12.7 906.5,10.9 905.7,10.9 905.7,11.7 "/>
<rect x="416.3" y="56.3" class="st3" width="9.9" height="40.9"/>
<rect x="486.8" y="56.3" class="st3" width="50.5" height="40.9"/>
<rect x="537.1" y="56.3" class="st3" width="60.4" height="40.9"/>
<rect x="476.8" y="56.3" class="st3" width="9.9" height="40.9"/>
<polygon class="st3" points="435.2,56.3 435.2,94.9 435.2,56.3 426.3,56.3 426.3,96.7 476.8,96.7 476.8,56.3 "/>
<rect x="719" y="56.3" class="st3" width="9.9" height="40.9"/>
<rect x="598" y="56.3" class="st3" width="9.9" height="40.9"/>
<rect x="658.3" y="56.3" class="st3" width="9.9" height="40.9"/>
<polygon class="st3" points="687,56.3 687,94.9 687,56.3 668.5,56.3 668.5,96.7 719,96.7 719,56.3 "/>
<polygon class="st3" points="613.4,56.3 613.4,94.9 613.4,56.3 608,56.3 608,96.7 613.4,96.7 613.4,96.3 613.4,96.7 658.3,96.7 
	658.3,56.3 "/>
<polygon class="st3" points="219.6,11.7 219.6,11.4 213,11.4 213,11.7 "/>
<polygon class="st4" points="228.1,516.6 228.1,515.8 232.2,515.8 232.2,516.6 232.9,516.6 232.9,501.8 232.2,501.8 232.2,502.8 
	228.1,502.8 228.1,501.8 227.3,501.8 227.3,516.6 "/>
<polygon class="st4" points="228.1,499.2 228.1,498 232.2,498 232.2,499.2 232.9,499.2 232.9,484 232.2,484 232.2,485.2 
	228.1,485.2 228.1,484 227.3,484 227.3,499.2 "/>
<polygon class="st4" points="228.1,481.6 228.1,480.4 232.2,480.4 232.2,481.6 232.9,481.6 232.9,466.3 232.2,466.3 232.2,467.4 
	228.1,467.4 228.1,466.3 227.3,466.3 227.3,481.6 "/>
<polygon class="st4" points="228.1,534.4 228.1,533.2 232.2,533.2 232.2,534.4 232.9,534.4 232.9,519.2 232.2,519.2 232.2,520.4 
	228.1,520.4 228.1,519.2 227.3,519.2 227.3,534.4 "/>
<polygon class="st4" points="228.1,463.5 228.1,462.7 232.2,462.7 232.2,463.5 232.9,463.5 232.9,448.4 232.2,448.4 232.2,449.8 
	228.1,449.8 228.1,448.4 227.3,448.4 227.3,463.5 "/>
<polygon class="st4" points="228.1,445.9 228.1,444.7 232.2,444.7 232.2,445.9 232.9,445.9 232.9,430.8 232.2,430.8 232.2,432.2 
	228.1,432.2 228.1,430.8 227.3,430.8 227.3,445.9 "/>
<polygon class="st3" points="118.4,545.5 119.6,548.5 121.2,551.3 123.4,553.8 125.5,556.2 128.3,558 131.1,560.2 133.9,561.2 
	137,561.7 139.3,561.7 139.3,539.1 117.8,539.1 117.8,542.6 "/>
<polygon class="st3" points="74.4,561.7 77.3,561.2 80.6,560.2 83.2,558 86,556.2 88.3,553.8 90.1,551.3 91.6,548.5 92.6,545.5 
	93.3,542.6 93.6,539.1 72.4,539.1 72.4,561.7 "/>
<polygon class="st3" points="94.4,545.5 95.6,548.5 97.1,551.3 99.4,553.8 101.7,556.2 103.8,558 106.9,560.2 110,561.2 
	113.2,561.7 115.3,561.7 115.3,539.1 93.6,539.1 94.1,542.6 "/>
<polygon class="st4" points="228.1,428.3 228.1,427.1 232.2,427.1 232.2,428.3 232.9,428.3 232.9,413.2 232.2,413.2 232.2,414.6 
	228.1,414.6 228.1,413.2 227.3,413.2 227.3,428.3 "/>
<rect x="492.6" y="353.3" class="st4" width="14.3" height="14.5"/>
<rect x="231.7" y="308.4" class="st4" width="0.2" height="12.5"/>
<polygon class="st4" points="232.2,322.2 232.9,322.2 232.9,307.2 232.2,307.2 232.2,308.4 232.2,320.9 "/>
<rect x="231.7" y="361.5" class="st4" width="0.2" height="12.5"/>
<rect x="435.2" y="10.9" class="st3" width="160.2" height="1"/>
<rect x="231.7" y="326" class="st4" width="0.2" height="12.5"/>
<polygon class="st4" points="232.2,340 232.9,340 232.9,324.8 232.2,324.8 232.2,326 232.2,338.7 "/>
<polygon class="st4" points="232.2,375.5 232.9,375.5 232.9,360.2 232.2,360.2 232.2,361.5 232.2,374.2 "/>
<polygon class="st4" points="229.8,340 227.3,340 227.3,360.2 229.8,360.2 229.8,360.2 231.7,360.2 231.7,356.6 232.2,356.6 
	232.2,357.9 232.9,357.9 232.9,342.6 232.2,342.6 232.2,343.9 231.7,343.9 231.7,340 "/>
<polygon class="st4" points="229.8,375.5 231.7,375.5 231.7,374.2 231.7,361.5 231.7,360.2 229.8,360.2 "/>
<rect x="227.3" y="360.2" class="st4" width="2.3" height="15"/>
<rect x="596" y="10.9" class="st3" width="24.2" height="1"/>
<rect x="229.8" y="360.2" class="st4" width="0.2" height="15"/>
<rect x="231.7" y="148.2" class="st4" width="0.2" height="1.3"/>
<polygon class="st3" points="69.1,541.8 69.8,539.1 69.1,539.1 "/>
<polygon class="st4" points="229.8,340 231.7,340 231.7,338.7 231.7,326 231.7,320.9 231.7,308.4 231.7,307.2 229.8,307.2 "/>
<rect x="227.3" y="307.2" class="st4" width="2.3" height="32.9"/>
<polygon class="st3" points="20.4,526.1 20.4,447.2 20.4,447.2 "/>
<polygon class="st3" points="69.8,539.1 69.8,526.1 69.1,539.1 "/>
<rect x="229.8" y="307.2" class="st4" width="0.2" height="32.9"/>
<rect x="205.6" y="250.2" class="st4" width="15" height="45.6"/>
<path class="st4" d="M220.6,246.2v-93.4h-15v93.6h15V246.2z M215.6,175h1.6H215.6z M215.6,176.3h1.6H215.6z M215.6,177.7h1.6H215.6z
	 M215.6,198.7h1.6H215.6z M215.6,199.7h1.6H215.6z M215.6,200.7h1.6H215.6z M215.6,221.7h1.6H215.6z M215.6,222.9h1.6H215.6z
	 M215.6,224.4h1.6H215.6z"/>
<path class="st3" d="M397.8,11.7h29.3H397.8z"/>
<polygon class="st4" points="316.8,564.3 316.3,563.3 311.7,563.5 311.7,564.5 "/>
<path class="st4" d="M317.9,578.6l-14.3,1.3l2.6,28l14.3-1.3L317.9,578.6z M305.1,593.6l14.3-1L305.1,593.6z"/>
<polygon class="st4" points="316.8,564.3 311.7,564.5 311.7,563.5 302.5,564.5 303.8,579.8 317.9,578.6 "/>
<polygon class="st4" points="465.6,651.3 470.9,651 470.9,649.5 465.6,650 "/>
<polygon class="st4" points="282.4,596.2 287.5,595.4 287.5,593.9 282.4,593.9 "/>
<path class="st4" d="M282.4,593.9l5.1-0.2l-2.6-27l-5.1,0.2v-1l-9,1l2.6,29.4l9-1V593.9z M286.2,580.2l-14.3,1.3L286.2,580.2z"/>
<path class="st4" d="M310,649.5l14.3-1.3L310,649.5l1.3,15.8l14.3-1.3l-0.2-1.6l-5.1,0.3l0.2,1.6l-0.2-1.6l5.1-0.2l-3.9-42.1
	l-14.3,1.3L310,649.5z M322.9,633.9l-14.3,1.3L322.9,633.9z"/>
<polygon class="st4" points="293.6,664.8 288.5,665.6 288.6,667.1 288.5,665.6 293.6,664.8 292.4,651.3 278.1,652.4 292.4,651.3 
	291.3,637.3 286.2,637.5 286.2,638.6 291.3,637.8 286.2,638.6 286.2,637.5 277,638.6 279.4,667.7 293.6,666.6 "/>
<polygon class="st4" points="487.5,563.5 473.3,564.6 487.5,563.5 486,548.5 480.9,548.7 481.2,550.5 486,550 481.2,550.5 
	480.9,548.7 472,549.5 474.3,578.9 488.5,577.8 474.3,578.9 475.3,592.7 489.6,591.4 "/>
<polygon class="st4" points="490.9,605.6 476.8,607.1 490.9,605.6 489.6,591.4 475.3,592.7 477.9,620.7 492.2,619.6 "/>
<polygon class="st4" points="321.7,620.2 320.4,606.1 306.1,607.2 307.4,621.5 "/>
<polygon class="st4" points="441.6,653.4 446.5,652.9 446,651.8 441.6,652.1 "/>
<path class="st4" d="M441.6,596.2l-14.3,1.3l3.6,41.8l14.3-1.3l-14.3,1.3l1.3,15.6l9-1l-0.2-1.6l5.1-0.2l-3.6-41.3l-14.3,1l14.3-1
	l-3.9-42.1l-14.3,1.3l14.3-1.3l-1.3-15.6l-14.3,1.3l3.9,42.9L441.6,596.2z M429.7,625l14.3-1.3L429.7,625z M432.7,553.4l0.2,1.6
	l4.9-0.2l-4.9,0.2L432.7,553.4z M440.1,581.9l-14.3,1.3L440.1,581.9z"/>
<path class="st4" d="M447.7,551.8l1.3,15.6l14.3-1.3l-14.3,1.3l1.3,13.6l14.3-1l-14.3,1l2.6,28l14.3-1.3l-14.3,1.3l3.9,42.9l9-1
	l-0.2-1.6l5.1-0.2l-2.3-27.6l-14.3,1.3l14.3-1.3l-6.1-71.4L447.7,551.8z M455.2,636.5l14.3-1L455.2,636.5z M451.6,594.7l14.3-1.3
	L451.6,594.7z M456.7,552.6l-0.2-1.6L456.7,552.6l5.1-0.2L456.7,552.6z"/>
<path class="st4" d="M402,585.3l14.3-1.3L402,585.3l6.1,71.4l14.3-1.3l-0.2-1.6l-5.1,0.2l0.2,1.6l-0.2-1.6l5.1-0.2l-1.3-13.6
	l-14.3,1.3l14.3-1.3l-1.3-13.6l-14.3,1.3l14.3-1.3l-2.6-28l-14.3,1l14.3-1l-2.3-28l-14.3,1l14.3-1l-1.3-15.6l-5.1,0.2l0.2,1.6
	l5.1-0.2l-5.1,0.2l-0.2-1.6l-9,1L402,585.3z M404.6,613.6l14.3-1.3L404.6,613.6z"/>
<path class="st4" d="M376.5,573.7l14.3-1.3L376.5,573.7l1.3,13.6l14.3-1.3l-14.3,1.3l2.6,28l14.3-1.3l-14.3,1.3l2.3,28L397,642
	l-14.3,1.3l1.3,15.6l14.3-1.3l-0.2-1.6l-5.1,0.2l0.2,1.6l-0.2-1.6l5.1-0.2l-2.3-27.6l-14.3,1.3l14.3-1l-6.1-71.4l-5.1,0.2l0.2,1.6
	l5.1-0.2l-5.1,0.2l-0.2-1.6l-9,0.7L376.5,573.7z M378.9,601.3l14.3-1.3L378.9,601.3z"/>
<path class="st4" d="M368.7,602.1l-14.3,1.3l3.6,41.8l14.3-1l-14.3,1l1.3,15.6l9-1l-0.2-1.6l5.1-0.2l-3.6-41.3l-14.3,1.3l14.3-1.3
	l-3.9-42.1l-14.3,1.3l14.3-1.3l-1.3-15.6l-14.3,1.3l3.9,42.9L368.7,602.1z M357.1,631.4l14.3-1.3L357.1,631.4z M359.7,559.4l0.2,1.6
	l5.1-0.2l-5.1,0.2L359.7,559.4z M367.4,588.5l-14.3,1L367.4,588.5z"/>
<path class="st4" d="M343.4,590.3l-14.3,1.3l6.1,71.4l9-1l-0.2-1.6l5.1-0.2l-1.3-13.6l-14.3,1.3l14.3-1.3l-1.3-13.6l-13.6,1.3
	l14.3-1.3l-2.6-28l-14.3,1.3l14.3-1.3l-3.9-42.9l-14.3,1.3l2.6,29.3L343.4,590.3z M331.4,619.6l14.3-1.3L331.4,619.6z M336.2,561.7
	l0.2,1.6l5.1-0.2l-5.1,0.2L336.2,561.7z M342.1,576.3l-14.3,1.3L342.1,576.3z"/>
<polygon class="st4" points="344.4,661.8 349.7,661.7 349.7,660 344.4,660.2 "/>
<polygon class="st4" points="368.7,659.8 373.8,659.2 373.8,658 368.7,658.4 "/>
<polygon class="st4" points="284.9,566.9 284.9,566.1 279.8,566.8 279.8,567.3 "/>
<polygon class="st4" points="683.3,631.4 688.3,631.2 688.3,630.6 683.3,630.7 "/>
<polygon class="st4" points="659.2,633.7 664.3,633.4 664.3,632.4 659.2,633.2 "/>
<polygon class="st4" points="659.2,633.2 664.3,632.4 661.8,604.6 647.7,606.1 661.8,604.6 660.6,590.9 646.2,592.3 648.6,620.2 
	662.8,618.9 648.6,620.2 650,634.7 659.2,633.7 "/>
<path class="st4" d="M683.3,630.7l5.1-0.2l-1.3-13.6l-14.3,1.3l14.3-1.3l-1.3-13.6l-14,0.8l14.3-1l-2.6-28l-14.3,1.3l14.3-1.3
	l-2.3-27.6l-14.3,1l14.3-1l-1.3-15.6l-5.1,0.2l0.2,1.6l5.1-0.2l-5.1,0.2l-0.2-1.6l-9,1l3,29.1l14.3-1.3l-14.3,1.3l6.1,70.2l9-1v-0.7
	C683.8,630.7,683.3,630.7,683.3,630.7z M684.7,588.6l-14.3,1.2L684.7,588.6z"/>
<polygon class="st4" points="688.3,632.2 688.3,631.2 683.3,631.4 683.3,632.4 683.3,631.4 674.1,632.4 674.1,633.4 "/>
<polygon class="st4" points="664.4,633.9 664.3,633.4 659.2,633.7 659.3,634.7 659.2,633.7 650,634.7 650.1,635.2 "/>
<path class="st4" d="M635,634.8l5.1-0.2l-3.6-41.3l-14.3,1l14.3-1l-3.9-42.1l-14.3,1.3l14.3-1.3l-1.3-15.6l-14.3,1.3l3.9,42.9
	l14.3-1.3l-14.3,1.3l3.6,41.8l14.3-1l-14.3,1l1.3,14.8l9-1v-0.7h0.2V634.8z M626.1,536l0.2,1.6l5.1-0.2l-5.1,0.2L626.1,536z
	 M633.5,564.6l-14.3,1.3L633.5,564.6z M637.5,607.1l-14.3,1.3L637.5,607.1z"/>
<polygon class="st4" points="492.2,619.6 477.9,620.7 479.2,634.7 493.6,633.4 "/>
<polygon class="st4" points="635,635.8 640.1,635.2 640.1,634.7 635,634.8 "/>
<polygon class="st4" points="635,636.5 640.1,635.8 640.1,635.2 635,635.8 "/>
<polygon class="st4" points="635,636.5 635,635.8 625.8,636.5 625.8,637.3 "/>
<polygon class="st4" points="583,540 577.9,540.4 577.9,541.9 583,541.6 577.9,541.9 577.9,540.4 568.7,541.1 569.9,556.4 
	584.2,555.2 "/>
<polygon class="st4" points="708,630.6 707.3,629.3 698.6,629.9 698.6,631.2 "/>
<polygon class="st4" points="584.2,555.2 569.9,556.4 571.3,570.4 585.5,569.2 "/>
<polygon class="st4" points="494.4,647.2 489.6,648 489.6,649.5 489.6,648 494.4,647.2 493.6,633.4 479.2,634.7 480.7,650 
	494.9,648.8 "/>
<polygon class="st4" points="585.5,569.2 571.3,570.4 572.5,584.5 586.3,583 572.5,584.5 573.6,598.7 587.5,597.3 "/>
<path class="st4" d="M657.8,563l-14.3,1l2.6,28l14.3-1.3L657.8,563z M645.2,577.9l14.3-1.3L645.2,577.9z"/>
<polygon class="st4" points="703.9,530.1 703.9,529.3 698.8,529.9 698.8,530.9 "/>
<polygon class="st4" points="656.7,548.7 642.9,550 644,564 657.8,563 "/>
<polygon class="st4" points="655.4,535.2 650.8,535.2 650.1,534 650.8,535.2 655.4,535.2 655.4,533.7 641.4,535 642.9,550 
	656.7,548.7 "/>
<path class="st3" d="M912.1,156.1L912.1,156.1L912.1,156.1z"/>
<polygon class="st3" points="911.3,154.3 909.8,154.3 909.8,154.3 911.1,154.3 "/>
<polygon class="st3" points="1000.6,154.3 1000.6,155 1018.7,155 1018.7,138.4 1013.2,138.4 1013.2,149.4 998.1,149.4 998.1,154.3 
	999.3,154.3 "/>
<polygon class="st3" points="845.8,284.9 865.9,289.8 865.9,305.6 862.8,305.6 862.8,292.6 845,288.5 845,472.5 1004.4,436.2 
	1004.4,399.3 932.3,399.3 932.3,350.7 936.9,350.7 936.9,395.2 1000.2,395.2 1000.2,350.7 1004.4,350.7 1004.4,305.6 907.2,305.6 
	907.2,152.3 904.5,152.3 904.5,175 903.9,175 903.9,175 901.4,174.9 898.6,174 895.2,172.7 892.2,171.6 889.7,169.6 887.3,167.5 
	885.5,164.7 884,161.7 883,158.7 882.2,155.3 881.8,152.3 881.8,155 881,157.4 880.2,160.1 878.5,162 876.4,164.2 874.3,165.5 
	872.1,166.8 869.5,167.5 867.9,167.5 867.9,167.5 866.7,167.5 866.7,152.3 845.8,152.3 "/>
<polygon class="st3" points="1000.2,395.2 936.9,395.2 936.9,350.7 932.3,350.7 932.3,399.3 1004.4,399.3 1004.4,350.7 
	1000.2,350.7 "/>
<polygon class="st3" points="851.9,556.7 851.9,478.4 968.3,451.3 968.2,451.1 968.3,451.3 1027.1,438 1027.1,437.3 1027.1,438 
	1045.5,433.7 1045.5,433.2 851.1,478.1 851.1,555.4 851.1,556.7 "/>
<rect x="999.1" y="155.8" class="st3" width="0.2" height="0.2"/>
<polygon class="st3" points="999.1,156.4 999.3,156.4 999.1,156.1 "/>
<polygon class="st3" points="1000.6,154.3 1000.6,154.3 999.3,154.3 999.3,154.3 999.3,154.3 "/>
<path class="st3" d="M141.8,537.5h15H141.8z"/>
<path class="st3" d="M999.3,155.8L999.3,155.8L999.3,155.8z"/>
<polygon class="st3" points="831,12.7 831,11.7 687,11.7 680.2,11.7 680.2,10.9 679.2,10.9 679.2,12.2 "/>
<polygon class="st3" points="679.2,12.2 679.2,10.9 620.8,10.9 620.8,12.2 "/>
<polygon class="st3" points="620.2,11.7 596,11.7 435.2,11.7 426.8,11.7 620.8,12.2 620.8,10.9 620.2,10.9 "/>
<polygon class="st3" points="219.6,10.9 397.8,10.9 435.2,10.9 596,10.9 620.2,10.9 620.8,10.9 620.8,6 212.3,6 212.3,10.9 
	213,10.9 "/>
<polygon class="st3" points="999.3,156.1 999.1,156.1 999.1,156.1 999.3,156.4 999.3,156.4 999.3,155.8 999.3,155.8 "/>
<polygon class="st3" points="212.3,10.9 1.5,10.9 212.3,11.4 "/>
<rect x="212.3" y="10.9" class="st3" width="1" height="0.2"/>
<polygon class="st3" points="170.4,96.7 212.3,96.7 212.3,56.3 212.3,12.7 212.3,11.4 1.5,10.9 9.1,96.7 20.4,96.7 "/>
<path class="st3" d="M69.1,539.1l0.2-12.8h-49v-79.4l0,0l0.2-350.3H9v1v443.9h38.5h21.7v-2H69L69.1,539.1L69.1,539.1L69.1,539.1z
	 M15.8,535l-0.2-0.2l-0.2-0.7V531l0.2-0.7l0.2-0.2h3.6l0.2,0.2l0.2,0.7v3.1l-0.2,0.7l-0.2,0.2H15.8z M59.1,535l-0.2-0.2l-0.7-3.3
	l0.2-0.7l0.2-0.2l3.6-0.2l0.2,0.2l0.2,0.2l0.7,3.6l-0.2,0.2l-0.2,0.2l-3.1,0.2H59.1z"/>
<path class="st3" d="M912.4,156.1L912.4,156.1L912.4,156.1z"/>
<polygon class="st3" points="947,654.7 947,665.1 423,710.8 949.3,664.8 949.3,654.9 "/>
<polygon class="st3" points="949.3,664.8 1065.5,654.9 1065.5,644.5 949.3,654.9 "/>
<path class="st3" d="M947,654.7V539.3v-3.9V527h-11v126.6L186,719l-17.4-201h-11.8l1.6,16.9l0,0l17.3,197l247.8-21.7l512.6-45.6
	l11-10.4H947V654.7z M939.6,663l-0.2-0.7l-0.2-3.1l0.2-0.2l0.2-0.2l3.6-0.2l0.2,0.2l0.2,0.7l0.2,3.1l-0.2,0.7l-0.2,0.2l-3.1,0.2
	L939.6,663z M160.5,535.2l-0.2-0.2l-0.2-3.6l0.2-0.2l0.2-0.2l3.1-0.2l0.7,0.2l0.2,0.2l0.2,3.1l-0.2,0.7l-0.2,0.2l-3.1,0.2h-0.7
	V535.2z M181.9,724.5l0.2,0.7l0.2,3.1l-0.2,0.2l-0.7,0.2l-3.1,0.2l-0.2-0.2l-0.2-0.3l-0.2-3.1l0.2-0.2l0.7-0.2l3.1-0.2L181.9,724.5z
	 M362.8,708.7l0.2,0.2l0.2,3.6l-0.2,0.2l-0.2,0.2l-3.6,0.2l-0.2-0.2l-0.2-0.2l-0.2-3.1l0.2-0.7l0.2-0.2l3.1-0.2L362.8,708.7z
	 M604.9,687.6l0.2,0.2l0.2,3.1l-0.2,0.7l-0.2,0.2l-3.6,0.2l-0.2-0.2l-0.2-0.2l-0.2-3.6l0.2-0.2l0.2-0.2l3.1-0.2L604.9,687.6z
	 M847.6,666.6l0.2,0.2l0.2,3.1l-0.2,0.7l-0.2,0.2L844,671l-0.2-0.2h-0.7l-0.2-3.1l0.2-0.7l0.2-0.2l3.1-0.2H847.6z"/>
<polygon class="st3" points="156.4,518.2 157.7,535.2 157.7,535.2 "/>
<polygon class="st3" points="1065.5,644.5 1065.5,644.5 949.3,654.9 "/>
<polygon class="st3" points="1059.3,151 1061.9,151 1061.9,249.7 1065.5,249.7 1065.5,112.5 1059.3,112.5 "/>
<polygon class="st3" points="952.2,561.7 955.2,561.2 958.6,560.2 961.3,558 964.1,556.2 965.9,553.8 968,551.3 969.7,548.5 
	970.8,545.5 971.3,542.6 971.6,539.1 949.8,539.1 949.8,561.7 "/>
<polygon class="st3" points="1053.9,104.1 1053.9,104.6 1053.9,105.5 1053.4,105.5 1049.7,105.5 1049.3,105.5 1049.3,104.6 
	1049.3,104.1 1004.8,104.1 1004.8,107.3 1018.7,107.3 1018.7,108.4 1058.8,108.4 1058.8,104.1 "/>
<path class="st3" d="M1058,249.7v37.5h-12.3v14.5v3.9V426v5.8v94.7h-25.4v8.4v3.9v2.8h45.1V249.7h-3.9H1058z M1053.4,529.9l0.7,0.2
	l0.2,0.7v3.1l-0.2,0.7l-0.7,0.2h-3.3l-0.7-0.2l-0.2-0.7v-3.1l0.2-0.7l0.7-0.2H1053.4z M1053.4,293.4l0.7,0.2l0.2,0.7v3.1l-0.2,0.7
	l-0.7,0.2h-3.3l-0.7-0.2l-0.2-0.7v-3.1l0.2-0.7l0.7-0.2H1053.4z"/>
<rect x="680.2" y="10.9" class="st3" width="6.7" height="1"/>
<polygon class="st3" points="911.3,156.8 911.3,156.8 911.3,156.4 911.3,156.1 911.3,156.1 "/>
<polygon class="st3" points="911.3,156.1 911.3,155.8 911.3,155.8 911.3,155 911.3,154.3 "/>
<path class="st3" d="M1013.2,114.2v1.3h5.3v-2.8h40.9h6.6V96.9h-67.7v17.4L1013.2,114.2L1013.2,114.2z M1018.7,108.4v-1.6H1005v-3.1
	h44.2v-2.8l0.2-0.2l0.7-0.2h3.1l0.7,0.2l0.2,0.2v2.8h4.3v4.3L1018.7,108.4L1018.7,108.4z"/>
<polygon class="st3" points="911.3,155.8 911.3,156.1 911.4,156.1 911.4,156.1 "/>
<rect x="911.1" y="154.3" class="st3" width="0.2" height="1.6"/>
<polygon class="st3" points="996.5,545.5 997.6,548.5 999.3,551.3 1001.4,553.8 1003.2,556.2 1006,558 1008.5,560.2 1011.9,561.2 
	1015,561.7 1017.5,561.7 1017.5,539.1 995.3,539.1 995.8,542.6 "/>
<polygon class="st4" points="152.1,247.2 151.5,244.6 150.5,241.3 148.9,238.2 147,236 144.7,233.6 142.1,231.4 139.3,230 
	136.2,228.6 133.1,228.1 130.1,227.7 130.1,249.7 152.6,249.7 "/>
<polygon class="st3" points="1043.7,305.6 1043.7,301.8 1042.5,301.8 1042.5,279.1 1040.4,279.1 1037.4,280.1 1034.1,281.3 
	1031.2,283.1 1028.5,284.9 1026.1,287.2 1024.4,289.8 1022.8,292.6 1021.6,295.6 1020.8,298.9 1020.8,301.8 1020.8,305.6 
	1007.8,305.6 1007.8,435 1046,426.3 1046,305.6 "/>
<rect x="1043.7" y="301.8" class="st3" width="2.3" height="3.9"/>
<rect x="565.6" y="190.5" class="st4" width="14.3" height="13.6"/>
<rect x="501.6" y="287.2" class="st4" width="5.1" height="1.6"/>
<polygon class="st4" points="530.9,162.9 530.9,149 526,149 526,147.6 516.7,147.6 516.7,162.9 "/>
<rect x="492.6" y="259.6" class="st4" width="14.3" height="13.6"/>
<polygon class="st4" points="492.6,288.8 501.6,288.8 501.6,287.2 506.9,287.2 506.9,273.4 492.6,273.4 "/>
<rect x="526" y="147.6" class="st4" width="5.1" height="1.6"/>
<rect x="516.7" y="162.9" class="st4" width="14.3" height="13.6"/>
<rect x="492.6" y="190.5" class="st4" width="14.3" height="13.6"/>
<rect x="492.6" y="176.3" class="st4" width="14.3" height="13.6"/>
<rect x="492.6" y="204.3" class="st4" width="14.3" height="13.6"/>
<rect x="516.7" y="176.3" class="st4" width="14.3" height="13.6"/>
<rect x="492.6" y="232.1" class="st4" width="14.3" height="13.6"/>
<rect x="492.6" y="218" class="st4" width="14.3" height="13.6"/>
<rect x="492.6" y="338.7" class="st4" width="14.3" height="14.5"/>
<polygon class="st4" points="555.2,162.9 555.2,149 550.3,149 550.3,147.6 541.1,147.6 541.1,162.9 "/>
<rect x="526" y="287.2" class="st4" width="5.1" height="1.6"/>
<rect x="541.1" y="162.9" class="st4" width="14.3" height="13.6"/>
<rect x="550.3" y="147.6" class="st4" width="5.1" height="1.6"/>
<polygon class="st4" points="516.7,288.8 526,288.8 526,287.2 530.9,287.2 530.9,273.4 516.7,273.4 "/>
<rect x="516.7" y="190.5" class="st4" width="14.3" height="13.6"/>
<rect x="516.7" y="218" class="st4" width="14.3" height="13.6"/>
<rect x="516.7" y="204.3" class="st4" width="14.3" height="13.6"/>
<rect x="516.7" y="232.1" class="st4" width="14.3" height="13.6"/>
<rect x="516.7" y="245.7" class="st4" width="14.3" height="13.6"/>
<rect x="516.7" y="259.6" class="st4" width="14.3" height="13.6"/>
<rect x="477.6" y="287.2" class="st4" width="5.1" height="1.6"/>
<polygon class="st4" points="443.6,288.8 452.8,288.8 452.8,287.2 458.2,287.2 458.2,273.4 443.6,273.4 "/>
<rect x="443.6" y="259.6" class="st4" width="14.5" height="13.6"/>
<rect x="452.8" y="287.2" class="st4" width="5.1" height="1.6"/>
<polygon class="st4" points="482,162.9 482,149 477.6,149 477.6,147.6 468.2,147.6 468.2,162.9 "/>
<rect x="477.6" y="147.6" class="st4" width="5.1" height="1.6"/>
<rect x="443.6" y="204.3" class="st4" width="14.5" height="13.6"/>
<rect x="443.6" y="176.3" class="st4" width="14.5" height="13.6"/>
<rect x="443.6" y="190.5" class="st4" width="14.5" height="13.6"/>
<rect x="492.6" y="162.9" class="st4" width="14.3" height="13.6"/>
<rect x="443.6" y="218" class="st4" width="14.5" height="13.6"/>
<rect x="443.6" y="232.1" class="st4" width="14.5" height="13.6"/>
<rect x="468.2" y="162.9" class="st4" width="14.5" height="13.6"/>
<rect x="468.2" y="176.3" class="st4" width="14.5" height="13.6"/>
<polygon class="st4" points="468.2,288.8 477.6,288.8 477.6,287.2 482,287.2 482,273.4 468.2,273.4 "/>
<rect x="541.1" y="176.3" class="st4" width="14.3" height="13.6"/>
<rect x="501.6" y="147.6" class="st4" width="5.1" height="1.6"/>
<polygon class="st4" points="506.9,162.9 506.9,149 501.6,149 501.6,147.6 492.6,147.6 492.6,162.9 "/>
<rect x="468.2" y="259.6" class="st4" width="14.5" height="13.6"/>
<rect x="468.2" y="245.7" class="st4" width="14.5" height="13.6"/>
<rect x="468.2" y="190.5" class="st4" width="14.5" height="13.6"/>
<rect x="468.2" y="204.3" class="st4" width="14.5" height="13.6"/>
<rect x="468.2" y="232.1" class="st4" width="14.5" height="13.6"/>
<rect x="468.2" y="218" class="st4" width="14.5" height="13.6"/>
<rect x="443.6" y="245.7" class="st4" width="14.5" height="13.6"/>
<rect x="623.1" y="147.6" class="st4" width="5.1" height="1.6"/>
<rect x="599" y="287.2" class="st4" width="5.1" height="1.6"/>
<polygon class="st4" points="628.2,162.9 628.2,149 623.1,149 623.1,147.6 613.9,147.6 613.9,162.9 "/>
<rect x="613.9" y="176.3" class="st4" width="14.3" height="13.6"/>
<rect x="613.9" y="162.9" class="st4" width="14.3" height="13.6"/>
<rect x="589.6" y="245.7" class="st4" width="14.3" height="13.6"/>
<rect x="589.6" y="218" class="st4" width="14.3" height="13.6"/>
<rect x="589.6" y="232.1" class="st4" width="14.3" height="13.6"/>
<rect x="638.1" y="190.5" class="st4" width="14.3" height="13.6"/>
<rect x="613.9" y="190.5" class="st4" width="14.3" height="13.6"/>
<rect x="589.6" y="259.6" class="st4" width="14.3" height="13.6"/>
<rect x="613.9" y="218" class="st4" width="14.3" height="13.6"/>
<rect x="623.1" y="287.2" class="st4" width="5.1" height="1.6"/>
<polygon class="st4" points="652.4,162.9 652.4,149 647,149 647,147.6 638.1,147.6 638.1,162.9 "/>
<rect x="613.9" y="204.3" class="st4" width="14.3" height="13.6"/>
<rect x="638.1" y="176.3" class="st4" width="14.3" height="13.6"/>
<rect x="638.1" y="162.9" class="st4" width="14.3" height="13.6"/>
<rect x="647" y="147.6" class="st4" width="5.1" height="1.6"/>
<rect x="589.6" y="204.3" class="st4" width="14.3" height="13.6"/>
<polygon class="st4" points="613.9,288.8 623.1,288.8 623.1,287.2 628.2,287.2 628.2,273.4 613.9,273.4 "/>
<rect x="613.9" y="232.1" class="st4" width="14.3" height="13.6"/>
<rect x="613.9" y="259.6" class="st4" width="14.3" height="13.6"/>
<rect x="541.1" y="190.5" class="st4" width="14.3" height="13.6"/>
<rect x="613.9" y="245.7" class="st4" width="14.3" height="13.6"/>
<polygon class="st4" points="579.6,162.9 579.6,149 574.5,149 574.5,147.6 565.6,147.6 565.6,162.9 "/>
<rect x="550.3" y="287.2" class="st4" width="5.1" height="1.6"/>
<rect x="574.5" y="147.6" class="st4" width="5.1" height="1.6"/>
<rect x="589.6" y="190.5" class="st4" width="14.3" height="13.6"/>
<polygon class="st4" points="541.1,288.8 550.3,288.8 550.3,287.2 555.2,287.2 555.2,273.4 541.1,273.4 "/>
<rect x="565.6" y="162.9" class="st4" width="14.3" height="13.6"/>
<rect x="541.1" y="218" class="st4" width="14.3" height="13.6"/>
<rect x="541.1" y="204.3" class="st4" width="14.3" height="13.6"/>
<rect x="541.1" y="245.7" class="st4" width="14.3" height="13.6"/>
<rect x="541.1" y="232.1" class="st4" width="14.3" height="13.6"/>
<rect x="541.1" y="259.6" class="st4" width="14.3" height="13.6"/>
<rect x="565.6" y="176.3" class="st4" width="14.3" height="13.6"/>
<rect x="599" y="147.6" class="st4" width="5.1" height="1.6"/>
<rect x="565.6" y="204.3" class="st4" width="14.3" height="13.6"/>
<rect x="589.6" y="176.3" class="st4" width="14.3" height="13.6"/>
<rect x="589.6" y="162.9" class="st4" width="14.3" height="13.6"/>
<rect x="574.5" y="287.2" class="st4" width="5.1" height="1.6"/>
<polygon class="st4" points="603.6,162.9 603.6,149 599,149 599,147.6 589.6,147.6 589.6,162.9 "/>
<polygon class="st4" points="565.6,288.8 574.5,288.8 574.5,287.2 579.6,287.2 579.6,273.4 565.6,273.4 "/>
<rect x="565.6" y="232.1" class="st4" width="14.3" height="13.6"/>
<rect x="565.6" y="218" class="st4" width="14.3" height="13.6"/>
<rect x="565.6" y="245.7" class="st4" width="14.3" height="13.6"/>
<rect x="565.6" y="259.6" class="st4" width="14.3" height="13.6"/>
<polygon class="st4" points="589.6,288.8 599,288.8 599,287.2 603.6,287.2 603.6,273.4 589.6,273.4 "/>
<rect x="322.5" y="162.9" class="st4" width="14.3" height="13.6"/>
<polygon class="st4" points="298,288.8 307.1,288.8 307.1,287.2 312.2,287.2 312.2,273.4 298,273.4 "/>
<rect x="298" y="259.6" class="st4" width="14.3" height="13.6"/>
<rect x="298" y="245.7" class="st4" width="14.3" height="13.6"/>
<rect x="331.4" y="147.6" class="st4" width="5.1" height="1.6"/>
<polygon class="st4" points="336.7,162.9 336.7,149 331.4,149 331.4,147.6 322.5,147.6 322.5,162.9 "/>
<rect x="307.1" y="287.2" class="st4" width="5.1" height="1.6"/>
<rect x="298" y="176.3" class="st4" width="14.3" height="13.6"/>
<rect x="298" y="232.1" class="st4" width="14.3" height="13.6"/>
<rect x="298" y="190.5" class="st4" width="14.3" height="13.6"/>
<rect x="298" y="218" class="st4" width="14.3" height="13.6"/>
<rect x="298" y="204.3" class="st4" width="14.3" height="13.6"/>
<rect x="322.5" y="204.3" class="st4" width="14.3" height="13.6"/>
<rect x="331.4" y="287.2" class="st4" width="5.1" height="1.6"/>
<rect x="322.5" y="259.6" class="st4" width="14.3" height="13.6"/>
<polygon class="st4" points="322.5,288.8 331.4,288.8 331.4,287.2 336.7,287.2 336.7,273.4 322.5,273.4 "/>
<rect x="355.6" y="147.6" class="st4" width="5.1" height="1.6"/>
<polygon class="st4" points="360.7,162.9 360.7,149 355.6,149 355.6,147.6 346.9,147.6 346.9,162.9 "/>
<rect x="322.5" y="176.3" class="st4" width="14.3" height="13.6"/>
<rect x="322.5" y="190.5" class="st4" width="14.3" height="13.6"/>
<rect x="298" y="162.9" class="st4" width="14.3" height="13.6"/>
<rect x="322.5" y="245.7" class="st4" width="14.3" height="13.6"/>
<rect x="322.5" y="218" class="st4" width="14.3" height="13.6"/>
<rect x="322.5" y="232.1" class="st4" width="14.3" height="13.6"/>
<polygon class="st4" points="312.2,162.9 312.2,149 307.1,149 307.1,147.6 298,147.6 298,162.9 "/>
<polygon class="st3" points="906.5,12.7 898.9,12.7 898.9,94.9 898.9,12.7 831,12.7 831,56.3 831,96.7 898.9,96.7 898.9,96.3 
	898.9,96.7 912.4,96.7 912.4,12.7 "/>
<path class="st3" d="M831,96.7h-18.9h-22.5h-9.9h-50.8H719h-50.5h-9.9h-45.1h-5.3h-9.9h-60.4h-50.5h-10.7h-50.5h-9.9h-50.5h-9.9
	h-50.5H295h-50.8h-9.9h-22.5v20.9h5.8V110h689.7h5.3V96.7H899C899.4,96.7,831,96.7,831,96.7z M847,100.5l0.2,0.2l0.2,0.2v3.6
	l-0.2,0.2l-0.2,0.2h-3.1l-0.7-0.2l-0.2-0.2v-3.6l0.2-0.2l0.7-0.2H847z M604.7,100.5l0.2,0.2l0.2,0.2v3.6l-0.2,0.2l-0.2,0.2h-3.1
	l-0.7-0.2l-0.2-0.2v-3.6l0.2-0.2l0.7-0.2H604.7z M362.2,100.5l0.2,0.2l0.2,0.2v3.6l-0.2,0.2l-0.2,0.2h-3.1l-0.7-0.2l-0.2-0.2v-3.6
	l0.2-0.2l0.7-0.2H362.2z M241,100.5l0.2,0.2l0.2,0.2v3.6l-0.2,0.2l-0.2,0.2h-3.1l-0.7-0.2l-0.7-0.2v-3.6l0.2-0.2l0.7-0.2
	C237.7,100.5,241,100.5,241,100.5z"/>
<polygon class="st3" points="906.5,12.7 912.4,12.7 912.4,10.9 906.5,10.9 "/>
<polygon class="st4" points="288.3,162 288.3,148.4 283.1,148.4 283.1,147.6 274,147.6 274,162 "/>
<polygon class="st3" points="9.1,96.7 1.5,10.9 0.7,0.9 9.1,97.9 "/>
<polygon class="st3" points="680.2,10.9 687,10.9 831,10.9 898.9,10.9 905.7,10.9 906.5,10.9 912.4,10.9 912.4,0.9 679.2,0.9 
	679.2,10.9 "/>
<path class="st3" d="M212.3,10.9V5.8h-38.8h38.8V0.5H0.6l1,9.9h210.5v0.7h0.2V10.9z M1.2,6H40H1.2z M59.1,6h37.8H59.1z M115.8,6
	h37.8H115.8z"/>
<rect x="283.1" y="147.6" class="st4" width="5.1" height="1"/>
<rect x="212.3" y="0.9" class="st3" width="409.2" height="5.1"/>
<polygon class="st3" points="620.8,10.9 679.2,10.9 679.2,0.9 620.8,0.9 620.8,6 "/>
<rect x="274" y="162" class="st4" width="14.3" height="13.6"/>
<rect x="274" y="259.6" class="st4" width="14.3" height="13.6"/>
<polygon class="st4" points="274,288.8 283.1,288.8 283.1,287.2 288.3,287.2 288.3,273.4 274,273.4 "/>
<rect x="346.9" y="162.9" class="st4" width="14.3" height="13.6"/>
<rect x="274" y="245.7" class="st4" width="14.3" height="13.6"/>
<rect x="443.6" y="162.9" class="st4" width="14.5" height="13.6"/>
<rect x="283.1" y="287.2" class="st4" width="5.1" height="1.6"/>
<rect x="274" y="190.2" class="st4" width="14.3" height="13.6"/>
<rect x="274" y="176.3" class="st4" width="14.3" height="13.6"/>
<rect x="274" y="217.8" class="st4" width="14.3" height="13.6"/>
<rect x="274" y="231.4" class="st4" width="14.3" height="13.6"/>
<rect x="274" y="204" class="st4" width="14.3" height="13.6"/>
<rect x="307.1" y="147.6" class="st4" width="5.1" height="1.6"/>
<rect x="404.6" y="287.2" class="st4" width="4.9" height="1.6"/>
<polygon class="st4" points="395.5,288.8 404.6,288.8 404.6,287.2 409.4,287.2 409.4,273.4 395.5,273.4 "/>
<rect x="419.6" y="162.9" class="st4" width="14.5" height="13.6"/>
<polygon class="st4" points="434,162.9 434,149 428.9,149 428.9,147.6 419.6,147.6 419.6,162.9 "/>
<rect x="428.9" y="147.6" class="st4" width="5.1" height="1.6"/>
<rect x="395.5" y="259.6" class="st4" width="14.3" height="13.6"/>
<rect x="395.5" y="245.7" class="st4" width="14.3" height="13.6"/>
<rect x="395.5" y="190.5" class="st4" width="14.3" height="13.6"/>
<rect x="395.5" y="204.3" class="st4" width="14.3" height="13.6"/>
<rect x="395.5" y="232.1" class="st4" width="14.3" height="13.6"/>
<rect x="395.5" y="218" class="st4" width="14.3" height="13.6"/>
<polygon class="st4" points="419.6,288.8 428.9,288.8 428.9,287.2 434,287.2 434,273.4 419.6,273.4 "/>
<rect x="428.9" y="287.2" class="st4" width="5.1" height="1.6"/>
<rect x="419.6" y="259.6" class="st4" width="14.5" height="13.6"/>
<rect x="395.5" y="176.3" class="st4" width="14.3" height="13.6"/>
<rect x="452.8" y="147.6" class="st4" width="5.1" height="1.6"/>
<polygon class="st4" points="458.2,162.9 458.2,149 452.8,149 452.8,147.6 443.6,147.6 443.6,162.9 "/>
<rect x="419.6" y="176.3" class="st4" width="14.5" height="13.6"/>
<rect x="419.6" y="204.3" class="st4" width="14.5" height="13.6"/>
<rect x="419.6" y="190.5" class="st4" width="14.5" height="13.6"/>
<rect x="419.6" y="245.7" class="st4" width="14.5" height="13.6"/>
<rect x="419.6" y="232.1" class="st4" width="14.5" height="13.6"/>
<rect x="419.6" y="218" class="st4" width="14.5" height="13.6"/>
<rect x="370.7" y="162.9" class="st4" width="14.3" height="13.6"/>
<rect x="346.9" y="259.6" class="st4" width="14.3" height="13.6"/>
<polygon class="st4" points="346.9,288.8 355.6,288.8 355.6,287.2 360.7,287.2 360.7,273.4 346.9,273.4 "/>
<rect x="355.6" y="287.2" class="st4" width="5.1" height="1.6"/>
<rect x="380.2" y="147.6" class="st4" width="5.1" height="1.6"/>
<polygon class="st4" points="385,162.9 385,149 380.2,149 380.2,147.6 370.7,147.6 370.7,162.9 "/>
<rect x="346.9" y="245.7" class="st4" width="14.3" height="13.6"/>
<rect x="346.9" y="204.3" class="st4" width="14.3" height="13.6"/>
<rect x="346.9" y="176.3" class="st4" width="14.3" height="13.6"/>
<rect x="346.9" y="190.5" class="st4" width="14.3" height="13.6"/>
<rect x="346.9" y="232.1" class="st4" width="14.3" height="13.6"/>
<rect x="346.9" y="218" class="st4" width="14.3" height="13.6"/>
<rect x="370.7" y="245.7" class="st4" width="14.3" height="13.6"/>
<polygon class="st4" points="370.7,288.8 380.2,288.8 380.2,287.2 385,287.2 385,273.4 370.7,273.4 "/>
<rect x="370.7" y="259.6" class="st4" width="14.3" height="13.6"/>
<rect x="370.7" y="176.3" class="st4" width="14.3" height="13.6"/>
<rect x="404.6" y="147.6" class="st4" width="4.9" height="1.6"/>
<polygon class="st4" points="409.4,162.9 409.4,149 404.6,149 404.6,147.6 395.5,147.6 395.5,162.9 "/>
<rect x="380.2" y="287.2" class="st4" width="5.1" height="1.6"/>
<rect x="395.5" y="162.9" class="st4" width="14.3" height="13.6"/>
<rect x="370.7" y="190.5" class="st4" width="14.3" height="13.6"/>
<rect x="370.7" y="204.3" class="st4" width="14.3" height="13.6"/>
<rect x="370.7" y="218" class="st4" width="14.3" height="13.6"/>
<rect x="370.7" y="232.1" class="st4" width="14.3" height="13.6"/>
<rect x="492.6" y="245.7" class="st4" width="14.3" height="13.6"/>
<rect x="346.9" y="395.4" class="st4" width="14.3" height="14.3"/>
<rect x="346.9" y="352.6" class="st4" width="14.3" height="14.5"/>
<rect x="346.9" y="366.9" class="st4" width="14.3" height="14.3"/>
<rect x="346.9" y="380.9" class="st4" width="14.3" height="14.3"/>
<rect x="346.9" y="438.2" class="st4" width="14.3" height="14.5"/>
<rect x="443.6" y="365" class="st4" width="14.5" height="13.5"/>
<rect x="346.9" y="423.8" class="st4" width="14.3" height="14.5"/>
<rect x="331.4" y="525.8" class="st4" width="5.1" height="1.6"/>
<polygon class="st4" points="322.5,527.3 331.4,527.3 331.4,525.8 336.7,525.8 336.7,512.3 322.5,512.3 "/>
<rect x="355.6" y="322.9" class="st4" width="5.1" height="1.6"/>
<polygon class="st4" points="360.7,338.7 360.7,324.4 355.6,324.4 355.6,322.9 346.9,322.9 346.9,338.7 "/>
<rect x="346.9" y="338.7" class="st4" width="14.3" height="14.3"/>
<rect x="346.9" y="452.6" class="st4" width="14.3" height="14.3"/>
<polygon class="st4" points="346.9,525.2 355.6,525.2 355.6,523.3 360.7,523.3 360.7,509.4 346.9,509.4 "/>
<polygon class="st4" points="385,338.7 385,324.4 380.2,324.4 380.2,322.9 370.7,322.9 370.7,338.7 "/>
<rect x="322.5" y="498.7" class="st4" width="14.3" height="13.5"/>
<rect x="380.2" y="322.9" class="st4" width="5.1" height="1.6"/>
<rect x="443.6" y="378.6" class="st4" width="14.5" height="13.5"/>
<rect x="355.6" y="523.3" class="st4" width="5.1" height="1.6"/>
<rect x="443.6" y="406.1" class="st4" width="14.5" height="13.6"/>
<rect x="346.9" y="466.8" class="st4" width="14.3" height="14.3"/>
<rect x="346.9" y="480.9" class="st4" width="14.3" height="14.5"/>
<rect x="346.9" y="495.1" class="st4" width="14.3" height="14.3"/>
<rect x="443.6" y="392.3" class="st4" width="14.5" height="13.6"/>
<rect x="346.9" y="409.7" class="st4" width="14.3" height="14.5"/>
<rect x="298" y="500.6" class="st4" width="14.3" height="13.6"/>
<rect x="298" y="487.2" class="st4" width="14.3" height="13.5"/>
<polygon class="st4" points="298,529.3 307.1,529.3 307.1,527.9 312.2,527.9 312.2,514.5 298,514.5 "/>
<polygon class="st4" points="336.7,337.8 336.7,324.4 331.4,324.4 331.4,322.9 322.5,322.9 322.5,337.8 "/>
<rect x="307.1" y="527.9" class="st4" width="5.1" height="1.6"/>
<rect x="331.4" y="322.9" class="st4" width="5.1" height="1.6"/>
<rect x="298" y="473.5" class="st4" width="14.3" height="13.5"/>
<rect x="298" y="405.8" class="st4" width="14.3" height="13.6"/>
<rect x="298" y="419.6" class="st4" width="14.3" height="13.5"/>
<rect x="298" y="433.2" class="st4" width="14.3" height="13.5"/>
<rect x="298" y="460" class="st4" width="14.3" height="13.5"/>
<rect x="298" y="446.7" class="st4" width="14.3" height="13.6"/>
<rect x="322.5" y="377.8" class="st4" width="14.3" height="13.5"/>
<rect x="322.5" y="444.9" class="st4" width="14.3" height="13.5"/>
<rect x="322.5" y="432.1" class="st4" width="14.3" height="13.5"/>
<rect x="322.5" y="458.7" class="st4" width="14.3" height="13.5"/>
<rect x="322.5" y="472.2" class="st4" width="14.3" height="13.5"/>
<rect x="322.5" y="418.1" class="st4" width="14.3" height="13.5"/>
<rect x="322.5" y="485.2" class="st4" width="14.3" height="13.5"/>
<rect x="322.5" y="364.5" class="st4" width="14.3" height="13.5"/>
<rect x="322.5" y="351.2" class="st4" width="14.3" height="13.5"/>
<rect x="322.5" y="404.8" class="st4" width="14.3" height="13.5"/>
<rect x="322.5" y="337.8" class="st4" width="14.3" height="13.5"/>
<rect x="322.5" y="391.3" class="st4" width="14.3" height="13.5"/>
<rect x="370.7" y="437.3" class="st4" width="14.3" height="14.3"/>
<rect x="395.5" y="422" class="st4" width="14.3" height="14.3"/>
<rect x="395.5" y="436.2" class="st4" width="14.3" height="13.6"/>
<rect x="395.5" y="463.5" class="st4" width="14.3" height="13.6"/>
<rect x="395.5" y="449.8" class="st4" width="14.3" height="13.6"/>
<rect x="395.5" y="477.6" class="st4" width="14.3" height="13.6"/>
<rect x="395.5" y="491.6" class="st4" width="14.3" height="13.6"/>
<rect x="395.5" y="352.1" class="st4" width="14.3" height="13.6"/>
<rect x="395.5" y="366" class="st4" width="14.3" height="13.6"/>
<rect x="395.5" y="338.3" class="st4" width="14.3" height="13.6"/>
<rect x="395.5" y="393.8" class="st4" width="14.3" height="14.3"/>
<rect x="395.5" y="408.1" class="st4" width="14.3" height="14.3"/>
<rect x="395.5" y="379.9" class="st4" width="14.3" height="13.6"/>
<polygon class="st4" points="395.5,520.9 404.6,520.9 404.6,519.2 409.4,519.2 409.4,505.6 395.5,505.6 "/>
<rect x="419.6" y="392.8" class="st4" width="14.5" height="13.6"/>
<rect x="419.6" y="406.9" class="st4" width="14.5" height="13.6"/>
<rect x="419.6" y="420.7" class="st4" width="14.5" height="13.6"/>
<rect x="419.6" y="379.1" class="st4" width="14.5" height="13.6"/>
<rect x="419.6" y="434.7" class="st4" width="14.5" height="13.6"/>
<rect x="419.6" y="352" class="st4" width="14.5" height="13.6"/>
<polygon class="st4" points="434,338.3 434,324.4 428.9,324.4 428.9,322.9 419.6,322.9 419.6,338.3 "/>
<rect x="419.6" y="365.8" class="st4" width="14.5" height="13.6"/>
<rect x="428.9" y="322.9" class="st4" width="5.1" height="1.6"/>
<rect x="404.6" y="519.2" class="st4" width="4.9" height="1.6"/>
<rect x="419.6" y="338.3" class="st4" width="14.5" height="13.6"/>
<rect x="370.7" y="338.7" class="st4" width="14.3" height="14.3"/>
<rect x="443.6" y="337.8" class="st4" width="14.5" height="13.5"/>
<rect x="370.7" y="408.7" class="st4" width="14.3" height="14.3"/>
<rect x="298" y="392.3" class="st4" width="14.3" height="13.5"/>
<rect x="370.7" y="422.9" class="st4" width="14.3" height="14.5"/>
<rect x="370.7" y="451.3" class="st4" width="14.3" height="14.3"/>
<rect x="452.8" y="322.9" class="st4" width="5.1" height="1.6"/>
<rect x="370.7" y="352.5" class="st4" width="14.3" height="14.3"/>
<rect x="443.6" y="351.3" class="st4" width="14.5" height="13.6"/>
<polygon class="st4" points="458.2,337.8 458.2,324.4 452.8,324.4 452.8,322.9 443.6,322.9 443.6,337.8 "/>
<rect x="370.7" y="366.8" class="st4" width="14.3" height="14.3"/>
<rect x="370.7" y="394.6" class="st4" width="14.3" height="14.3"/>
<rect x="404.6" y="322.9" class="st4" width="4.9" height="1.6"/>
<rect x="370.7" y="380.4" class="st4" width="14.3" height="14.3"/>
<polygon class="st4" points="409.4,338.3 409.4,324.4 404.6,324.4 404.6,322.9 395.5,322.9 395.5,338.3 "/>
<rect x="380.2" y="521.5" class="st4" width="5.1" height="1.6"/>
<rect x="419.6" y="489.8" class="st4" width="14.5" height="13.6"/>
<rect x="419.6" y="462.5" class="st4" width="14.5" height="13.6"/>
<rect x="419.6" y="476" class="st4" width="14.5" height="13.6"/>
<rect x="370.7" y="465.5" class="st4" width="14.3" height="14.3"/>
<rect x="370.7" y="479.3" class="st4" width="14.3" height="14.3"/>
<rect x="370.7" y="493.6" class="st4" width="14.3" height="14.3"/>
<polygon class="st4" points="370.7,523.2 380.2,523.2 380.2,521.5 385,521.5 385,507.4 370.7,507.4 "/>
<polygon class="st4" points="419.6,519.1 428.9,519.1 428.9,516.8 434,516.8 434,503.4 419.6,503.4 "/>
<rect x="428.9" y="516.8" class="st4" width="5.1" height="1.6"/>
<rect x="728.1" y="287.2" class="st4" width="5.1" height="1.6"/>
<rect x="468.2" y="472.5" class="st4" width="14.5" height="13.5"/>
<rect x="638.1" y="204.3" class="st4" width="14.3" height="13.6"/>
<rect x="687" y="259.6" class="st4" width="14.5" height="13.6"/>
<rect x="468.2" y="445.9" class="st4" width="14.5" height="13.5"/>
<rect x="687" y="176.3" class="st4" width="14.5" height="13.6"/>
<rect x="298" y="378.6" class="st4" width="14.3" height="13.5"/>
<rect x="468.2" y="459.4" class="st4" width="14.5" height="13.5"/>
<rect x="687" y="190.5" class="st4" width="14.5" height="13.6"/>
<rect x="687" y="204.3" class="st4" width="14.5" height="13.6"/>
<rect x="687" y="232.1" class="st4" width="14.5" height="13.6"/>
<rect x="468.2" y="486" class="st4" width="14.5" height="13.5"/>
<rect x="687" y="218" class="st4" width="14.5" height="13.6"/>
<rect x="687" y="245.7" class="st4" width="14.5" height="13.6"/>
<rect x="718.9" y="161.7" class="st4" width="14.5" height="13.6"/>
<rect x="468.2" y="377.8" class="st4" width="14.5" height="13.5"/>
<rect x="728.1" y="147.6" class="st4" width="5.1" height="1"/>
<rect x="468.2" y="432.4" class="st4" width="14.5" height="13.5"/>
<rect x="468.2" y="364.5" class="st4" width="14.5" height="13.5"/>
<rect x="468.2" y="391.5" class="st4" width="14.5" height="13.5"/>
<rect x="718.9" y="175.4" class="st4" width="14.5" height="13.5"/>
<rect x="696" y="287.2" class="st4" width="5.1" height="1.6"/>
<polygon class="st4" points="687,288.8 696,288.8 696,287.2 700.9,287.2 700.9,273.4 687,273.4 "/>
<rect x="468.2" y="405.3" class="st4" width="14.5" height="13.6"/>
<rect x="468.2" y="418.9" class="st4" width="14.5" height="13.5"/>
<polygon class="st4" points="732.8,161.7 732.8,148.4 728.1,148.4 728.1,147.6 718.9,147.6 718.9,161.7 "/>
<rect x="662.6" y="232.1" class="st4" width="14.3" height="13.6"/>
<rect x="662.6" y="162.9" class="st4" width="14.3" height="13.6"/>
<rect x="662.6" y="176.3" class="st4" width="14.3" height="13.6"/>
<rect x="671.3" y="147.6" class="st4" width="4.9" height="1.6"/>
<rect x="662.6" y="204.3" class="st4" width="14.3" height="13.6"/>
<rect x="638.1" y="218" class="st4" width="14.3" height="13.6"/>
<polygon class="st4" points="676.8,162.9 676.8,149 671.3,149 671.3,147.6 662.6,147.6 662.6,162.9 "/>
<rect x="647" y="287.2" class="st4" width="5.1" height="1.6"/>
<rect x="687" y="162.9" class="st4" width="14.5" height="13.6"/>
<rect x="638.1" y="245.7" class="st4" width="14.3" height="13.6"/>
<rect x="638.1" y="259.6" class="st4" width="14.3" height="13.6"/>
<rect x="662.6" y="218" class="st4" width="14.3" height="13.6"/>
<polygon class="st4" points="638.1,288.8 647,288.8 647,287.2 652.4,287.2 652.4,273.4 638.1,273.4 "/>
<rect x="638.1" y="232.1" class="st4" width="14.3" height="13.6"/>
<polygon class="st4" points="506.9,338.7 506.9,324.4 501.6,324.4 501.6,322.9 492.6,322.9 492.6,338.7 "/>
<rect x="468.2" y="351.2" class="st4" width="14.5" height="13.5"/>
<polygon class="st4" points="700.9,162.9 700.9,149 696,149 696,147.6 687,147.6 687,162.9 "/>
<rect x="477.6" y="512.7" class="st4" width="5.1" height="1.6"/>
<polygon class="st4" points="468.2,514.8 477.6,514.8 477.6,512.7 482,512.7 482,499.2 468.2,499.2 "/>
<rect x="696" y="147.6" class="st4" width="5.1" height="1.6"/>
<rect x="662.6" y="259.6" class="st4" width="14.3" height="13.6"/>
<rect x="662.6" y="245.7" class="st4" width="14.3" height="13.6"/>
<rect x="501.6" y="322.9" class="st4" width="5.1" height="1.6"/>
<polygon class="st4" points="662.6,288.8 671.3,288.8 671.3,287.2 676.8,287.2 676.8,273.4 662.6,273.4 "/>
<rect x="671.3" y="287.2" class="st4" width="4.9" height="1.6"/>
<rect x="662.6" y="190.5" class="st4" width="14.3" height="13.6"/>
<rect x="274" y="352" class="st4" width="14.3" height="13.6"/>
<rect x="274" y="337.8" class="st4" width="14.3" height="13.6"/>
<rect x="443.6" y="487.8" class="st4" width="14.5" height="13.5"/>
<rect x="274" y="406.9" class="st4" width="14.3" height="13.6"/>
<rect x="274" y="365.3" class="st4" width="14.3" height="13.6"/>
<rect x="274" y="448" class="st4" width="14.3" height="13.6"/>
<polygon class="st4" points="288.3,337.8 288.3,324.4 283.1,324.4 283.1,322.9 274,322.9 274,337.8 "/>
<rect x="728.1" y="259.2" class="st4" width="5.1" height="1"/>
<polygon class="st4" points="718.9,288.8 728.1,288.8 728.1,287.2 732.8,287.2 732.8,273.9 718.9,273.9 "/>
<rect x="419.6" y="448.4" class="st4" width="14.5" height="13.6"/>
<rect x="443.6" y="474.2" class="st4" width="14.5" height="13.5"/>
<rect x="468.2" y="337.8" class="st4" width="14.5" height="13.5"/>
<rect x="274" y="434" class="st4" width="14.3" height="13.6"/>
<rect x="274" y="392.8" class="st4" width="14.3" height="13.6"/>
<rect x="274" y="379.1" class="st4" width="14.3" height="13.6"/>
<rect x="274" y="420.4" class="st4" width="14.3" height="13.6"/>
<rect x="443.6" y="433.6" class="st4" width="14.5" height="13.6"/>
<rect x="443.6" y="447.2" class="st4" width="14.5" height="13.6"/>
<rect x="443.6" y="460.7" class="st4" width="14.5" height="13.5"/>
<rect x="443.6" y="419.6" class="st4" width="14.5" height="13.6"/>
<rect x="283.1" y="322.9" class="st4" width="5.1" height="1.6"/>
<rect x="307.1" y="322.9" class="st4" width="5.1" height="1.6"/>
<rect x="298" y="351.3" class="st4" width="14.3" height="13.6"/>
<polygon class="st4" points="732.8,273.9 732.8,260.4 728.1,260.4 728.1,259.2 718.9,259.2 718.9,273.9 "/>
<polygon class="st4" points="312.2,337.8 312.2,324.4 307.1,324.4 307.1,322.9 298,322.9 298,337.8 "/>
<rect x="477.6" y="322.9" class="st4" width="5.1" height="1.6"/>
<rect x="718.9" y="188.7" class="st4" width="14.5" height="13.5"/>
<rect x="298" y="365" class="st4" width="14.3" height="13.5"/>
<polygon class="st4" points="718.9,217.6 728.1,217.6 728.1,216 732.8,216 732.8,202.8 718.9,202.8 "/>
<polygon class="st4" points="482,337.8 482,324.4 477.6,324.4 477.6,322.9 468.2,322.9 468.2,337.8 "/>
<rect x="298" y="337.8" class="st4" width="14.3" height="13.5"/>
<rect x="274" y="475.2" class="st4" width="14.3" height="13.6"/>
<rect x="274" y="461.5" class="st4" width="14.3" height="13.6"/>
<rect x="452.8" y="515.1" class="st4" width="5.1" height="1.6"/>
<rect x="728.1" y="216" class="st4" width="5.1" height="1.6"/>
<polygon class="st4" points="443.6,516.4 452.8,516.4 452.8,515.1 458.2,515.1 458.2,501.5 443.6,501.5 "/>
<rect x="283.1" y="529.9" class="st4" width="5.1" height="1.6"/>
<rect x="274" y="489.1" class="st4" width="14.3" height="13.6"/>
<polygon class="st4" points="274,531.2 283.1,531.2 283.1,529.9 288.3,529.9 288.3,516.4 274,516.4 "/>
<rect x="274" y="502.6" class="st4" width="14.3" height="13.6"/>
<polygon class="st3" points="685,34.7 684.7,35.2 684.3,36.2 684.7,37 685,38 685.8,38.4 687,38.9 687,33.8 685.8,33.9 "/>
<polygon class="st3" points="219.6,33.8 218.9,33.9 217.9,34.7 217.4,35.2 217.1,36.2 217.4,37 217.9,38 218.9,38.4 219.6,38.9 
	219.6,36.2 "/>
<polygon class="st3" points="222,36.2 222,35.2 221.2,34.7 220.6,33.9 219.6,33.8 219.6,36.2 "/>
<polygon class="st4" points="461,678.4 461,678.4 461.7,678.1 462,677.3 462,677.3 461,677.4 "/>
<polygon class="st3" points="687.6,38.4 688.8,38 689.4,37 689.6,36.2 689.4,35.2 688.8,34.7 687.6,33.9 687,33.8 687,38.9 "/>
<polygon class="st4" points="460.7,676.5 460.3,676.5 460.2,677.3 460.2,677.4 461,677.4 "/>
<polygon class="st4" points="461,676.5 460.7,676.5 461,677.4 462,677.3 461.7,676.5 "/>
<polygon class="st3" points="221.2,38 222,37 222,36.2 219.6,36.2 219.6,38.9 220.6,38.4 "/>
<polygon class="st4" points="460.2,677.4 460.3,678.1 461,678.4 461,677.4 "/>
<polygon class="st3" points="435.2,33.8 434.8,33.9 433.9,34.7 433.4,35.2 433,36.2 435.2,36.2 "/>
<polygon class="st3" points="433,36.2 433.4,37 433.9,38 434.8,38.4 435.2,38.9 435.2,36.2 "/>
<polygon class="st3" points="435.2,38.9 436.3,38.4 437.3,38 437.6,37 438,36.2 435.2,36.2 "/>
<polygon class="st3" points="437.3,34.7 436.3,33.9 435.2,33.8 435.2,36.2 438,36.2 437.6,35.2 "/>
<polygon class="st3" points="357.9,100.9 357.9,104.6 358,105.5 358.9,105.5 362.2,105.5 363,105.5 363,104.6 363,100.9 363,100.7 
	362.2,100.5 358.9,100.5 358,100.7 "/>
<polygon class="st3" points="842.5,530.9 842.5,534.4 843.2,535 843.8,535 847,535 847.6,535 847.6,534.4 847.6,530.9 847.6,530.1 
	847,529.9 843.8,529.9 843.2,530.1 "/>
<polygon class="st3" points="842.5,100.9 842.5,104.6 843.2,105.5 843.8,105.5 847,105.5 847.6,105.5 847.6,104.6 847.6,100.9 
	847.6,100.7 847,100.5 843.8,100.5 843.2,100.7 "/>
<polygon class="st3" points="600.6,100.9 600.6,104.6 600.6,105.5 600.9,105.5 604.7,105.5 605.6,105.5 605.7,104.6 605.7,100.9 
	605.6,100.7 604.7,100.5 600.9,100.5 600.6,100.7 "/>
<polygon class="st3" points="236.7,100.9 236.7,104.6 237.5,105.5 238,105.5 241,105.5 241.6,105.5 241.8,104.6 241.8,100.9 
	241.6,100.7 241,100.5 238,100.5 237.5,100.7 "/>
<path class="st3" d="M115.3,561.7h1H115.3z"/>
<polygon class="st3" points="973.9,561.7 973.9,561.7 972.9,561.7 "/>
<polygon class="st3" points="972.9,561.7 973.9,561.7 973.9,539.1 972.9,539.1 "/>
<polygon class="st3" points="949.8,561.7 949.8,561.7 948.8,561.7 "/>
<polygon class="st3" points="948.8,561.7 949.8,561.7 949.8,539.1 948.8,539.1 "/>
<polygon class="st3" points="1042.5,279.1 1042.5,279.1 1043.7,279.1 "/>
<polygon class="st3" points="1043.7,301.8 1043.7,279.1 1042.5,279.1 1042.5,301.8 "/>
<polygon class="st3" points="912.4,156.1 912.1,156.1 912.1,156.1 912.3,156.1 999.1,156.1 999.1,156.1 998.4,156.1 998.1,156.1 "/>
<path class="st3" d="M1017.5,561.7h1H1017.5z"/>
<polygon class="st3" points="1018.2,561.7 1018.2,561.7 1018.2,539.1 1017.5,539.1 1017.5,561.7 "/>
<polygon class="st3" points="943.8,662.6 944.5,661.8 943.8,658.9 943.8,658 943,658 939.6,658 938.9,658.9 938.9,659 939.1,662.1 
	939.6,663 940.4,663.1 943.3,663 "/>
<polygon class="st3" points="1049.3,293.9 1049.3,297.5 1049.3,298 1049.7,298.5 1053.4,298.5 1053.9,298 1053.9,297.5 
	1053.9,293.9 1053.9,293.4 1053.4,293.4 1049.7,293.4 1049.3,293.4 "/>
<polygon class="st3" points="1053.9,100.9 1053.9,100.7 1053.4,100.5 1049.7,100.5 1049.3,100.7 1049.3,100.9 1049.3,104.1 
	1053.9,104.1 "/>
<polygon class="st3" points="1049.3,530.9 1049.3,534.4 1049.3,535 1049.7,535 1053.4,535 1053.9,535 1053.9,534.4 1053.9,530.9 
	1053.9,530.1 1053.4,529.9 1049.7,529.9 1049.3,530.1 "/>
<polygon class="st3" points="1049.3,105.5 1049.7,105.5 1053.4,105.5 1053.9,105.5 1053.9,104.6 1053.9,104.1 1049.3,104.1 
	1049.3,104.6 "/>
<polygon class="st3" points="164.8,535 165.5,534.4 164.8,530.9 164.6,530.7 164.3,530.1 160.5,530.7 160.4,530.9 160.4,531.1 
	160.4,535 160.5,535.2 161,535.2 164.6,535.2 "/>
<polygon class="st3" points="358,709.3 357.9,709.8 358,713.3 358.5,713.6 359,713.9 362.8,713.6 363,713.5 363.3,713.3 363,709.5 
	362.8,708.7 362,708.7 358.5,708.7 "/>
<polygon class="st3" points="177.1,725.3 177.1,725.5 177.1,729.2 178,729.6 178.1,729.6 181.4,729.6 182.1,729.2 182.2,728.6 
	182.1,725.3 181.9,724.5 181.1,724.5 178,725.1 "/>
<polygon class="st3" points="600.6,688.1 600.1,688.5 600.6,692.2 600.8,692.7 601.6,692.7 604.9,692.4 605.7,692.2 605.7,691.9 
	605.6,688.3 604.9,687.6 604.2,687.3 600.9,688.1 "/>
<polygon class="st3" points="842.9,666.8 842.5,667.4 843.2,670.9 843.2,671.5 843.8,671.5 847.3,671 847.6,670.9 848,670.5 
	847.6,667.1 847.6,666.6 847,665.9 843.2,666.6 "/>
<polygon class="st3" points="63.3,534.7 63.8,534 63.3,530.7 63.2,529.9 62.4,529.9 59.1,530.1 58.4,530.7 58.2,531.1 59.1,534.4 
	59.1,535 59.7,535.2 63.2,535 "/>
<polygon class="st3" points="122.5,100.9 122.5,104.6 122.5,105.5 123.4,105.5 126.8,105.5 127.5,105.5 127.5,104.6 127.5,100.9 
	127.5,100.7 126.8,100.5 123.4,100.5 122.5,100.7 "/>
<path class="st3" d="M139.3,561.7h1.3H139.3z"/>
<polygon class="st3" points="20.4,534.4 20.4,530.9 20.4,530.1 19.8,529.9 15.8,529.9 15.5,530.1 15.5,530.9 15.5,534.4 15.5,535 
	15.8,535 19.8,535 20.4,535 "/>
<polygon class="st3" points="21.1,100.9 21.1,101.5 21.1,104.6 21.7,105.5 22.2,105.6 25.7,105.5 25.8,105.5 26.2,104.6 25.8,100.9 
	25.7,100.5 25,100.5 21.7,100.5 "/>
<polygon class="st3" points="116.6,561.7 116.6,561.7 116.6,539.1 115.3,539.1 115.3,561.7 "/>
<polygon class="st3" points="140.3,561.7 140.3,561.7 140.3,539.1 139.3,539.1 139.3,561.7 "/>
<polygon class="st3" points="72.4,561.7 72.4,561.7 70.9,561.7 "/>
<polygon class="st3" points="70.9,561.7 72.4,561.7 72.4,539.1 70.9,539.1 "/>
<polygon class="st3" points="911.4,156.4 912.1,156.1 911.4,156.1 "/>
<polygon class="st3" points="912.4,156.1 912.4,155.8 912.4,155.8 "/>
<polygon class="st3" points="912.4,156.1 912.4,156.1 912.4,155.8 "/>
<polygon class="st3" points="911.4,156.1 911.4,156.1 911.4,156.1 911.4,156.1 911.4,155.8 911.4,156.1 911.4,156.1 912.1,156.1 
	912.1,156.1 912.1,156.1 912.4,156.1 912.4,156.1 912.4,155.8 912.4,155.8 912.4,155.8 911.4,155.8 911.3,155.8 911.3,155.8 "/>
<path class="st3" d="M911.4,156.1L911.4,156.1L911.4,156.1z"/>
<polygon class="st3" points="904.5,152.3 903.9,152.3 903.9,175 904.5,175 "/>
<polygon class="st3" points="867.9,167.5 867.9,152.3 866.7,152.3 866.7,167.5 "/>
<polygon class="st3" points="904.5,175 903.9,175 903.9,175 "/>
<polygon class="st3" points="867.9,167.5 867.9,167.5 866.7,167.5 "/>
<polygon class="st3" points="912.1,156.1 912.1,156.1 912.4,156.1 "/>
<polygon class="st5" points="934.8,659.2 160.4,736.8 139.2,542.6 45.1,545.4 6.4,545.4 6.4,100.9 34.1,99.4 616.9,103.3 
	694.7,103.3 935,102.2 936,227.2 992,229.2 990,93.2 1092,93.2 1087.2,524 1086.3,642.6 "/>
<polygon class="st4" points="89.2,231.3 90,234.6 91.1,237.8 92.6,240.5 94.4,243.1 96.9,244.9 99.4,247.2 102.3,248.7 105.1,249.9 
	108.6,250.7 111.7,250.8 111.7,229 89,229 "/>
<polygon class="st2" points="108.2,595.4 82.6,595.5 95.6,573.8 "/>
<polygon class="st2" points="987.6,694.2 962.1,694.4 974.9,672.7 "/>
<rect x="67.1" y="527.9" class="st4" width="53.9" height="34.2"/>
<rect x="950.6" y="630.7" class="st4" width="53.9" height="34.2"/>
</svg>
