<?xml version="1.0" encoding="utf-8"?>
<!-- Generator: Adobe Illustrator 19.1.0, SVG Export Plug-In . SVG Version: 6.00 Build 0)  -->
<svg version="1.1" id="Layer_1" xmlns="http://www.w3.org/2000/svg" xmlns:xlink="http://www.w3.org/1999/xlink" x="0px" y="0px"
	 viewBox="0 0 864 1080" style="enable-background:new 0 0 864 1080;" xml:space="preserve">
<style type="text/css">
	.st0{fill:#4B6DB4;}
	.st1{fill:#FFFFFF;}
	.st2{font-family:'MyriadPro-Regular';}
	.st3{font-size:14.3525px;}
	.st4{opacity:0.5;}
	.st5{fill:#989898;}
	.st6{font-family:'ArialMT';}
	.st7{font-size:15.8166px;}
	.st8{font-size:50.6131px;}
	.st9{fill:#CDCCCC;}
	.st10{fill:#3A65B0;}
	.st11{fill:#989798;}
	.st12{font-size:11.388px;}
	.st13{fill:#4C6EB5;}
	.st14{opacity:0.6;fill:#4B6DB4;enable-background:new    ;}
</style>
<g>
	<rect x="463.6" y="773.1" class="st0" width="11.9" height="14"/>
	<text transform="matrix(1 0 0 1 465.7638 784.9895)" class="st1 st2 st3">E</text>
</g>
<g class="st4">
	<g>
		<text transform="matrix(1 0 0 1 48.4837 196.2094)" class="st5 st6 st7">Level </text>
	</g>
	<circle class="st5" cx="111.9" cy="193.5" r="26.8"/>
	<text transform="matrix(1 0 0 1 98.5286 212.3567)" class="st1 st6 st8">2</text>
</g>
<g>
	<path class="st9" d="M416.1,573.6l-0.2-1.6l0,0l0,0l0,0l0,0l0,0l0,0l0,0l0,0l0,0l0,0l0,0l0,0h8.1v-7.3h-41.5v23.8H424v-7.3
		l-1.2-0.2C419.4,580,416.3,577,416.1,573.6z"/>
	<path class="st9" d="M424.3,588.6h-42.5v-24.9h42.5v8.5h-8.1l0.2,1.6c0.5,3.1,3.1,5.9,6.6,6.6l1.7,0.2L424.3,588.6L424.3,588.6z
		 M383,587.4h40.3v-6h-0.5c-4-0.7-6.7-4-7.4-7.4l-0.2-1.7l0,0l0,0c0,0,0,0,0-0.2v-0.2c0,0,0-0.2,0.2-0.2l0.2-0.2c0,0,0,0,0.2-0.2
		h0.2c0,0,0,0,0.2,0l0,0l0,0h7.4v-6.6h-40.1L383,587.4L383,587.4z"/>
</g>
<g>
	<path class="st9" d="M416.1,600.5l-0.2-1.6l0,0l0,0l0,0l0,0l0,0l0,0l0,0l0,0l0,0l0,0l0,0l0,0h8.1v-7.4h-41.5v24H424v-7.4l-1.2-0.2
		C419.4,607.1,416.3,603.8,416.1,600.5z"/>
	<path class="st9" d="M424.3,615.5h-42.5v-25h42.5v8.5h-8.1l0.2,1.6c0.5,3.1,3.1,5.9,6.6,6.6l1.7,0.2L424.3,615.5L424.3,615.5z
		 M383,614.5h40.3v-6.6h-0.5c-4-0.5-6.7-4-7.4-7.4l-0.2-1.7l0,0l0,0l0,0c0,0,0,0,0-0.2v-0.2c0,0,0-0.2,0.2-0.2l0.2-0.2
		c0,0,0,0,0.2-0.2h0.5l0,0h7.4v-6.6h-40.1V615L383,614.5L383,614.5z"/>
</g>
<g>
	<path class="st9" d="M416.1,652.2l-0.2-1.6l0,0l0,0l0,0l0,0l0,0l0,0l0,0l0,0l0,0l0,0l0,0l0,0h8.1v-7.4h-41.5V667H424v-7.4l-1.2-0.2
		C419.6,658.7,416.3,655.4,416.1,652.2z"/>
	<path class="st9" d="M424.3,667.4h-42.5v-25h42.5v8.5h-8.1l0.2,1.6c0.5,3.1,3.5,6,6.6,6.6l1.7,0.2L424.3,667.4L424.3,667.4z
		 M383,666.5h40.3v-6.4h-0.5c-4-0.5-7.3-4-7.4-7.4l-0.2-1.7l0,0v-0.2c0,0,0,0,0-0.2v-0.2c0,0,0,0,0.2-0.2l0.2-0.2c0,0,0,0,0.2-0.2
		h0.5l0,0h7.4v-6.4h-40.1v23h-0.7l0,0L383,666.5L383,666.5z"/>
</g>
<g>
	<path class="st9" d="M416.1,626.8l-0.2-1.6l0,0l0,0l0,0l0,0l0,0l0,0l0,0l0,0l0,0l0,0l0,0l0,0h8.1v-7.4h-41.5v23.8H424v-8.1
		l-1.2-0.2C419.4,633,416.1,629.9,416.1,626.8z"/>
	<path class="st9" d="M424.3,641.4h-42.5v-24.7h42.5v8.3h-8.1l0.2,1.6c0.5,3.1,3.1,5.9,6.6,6.6l1.7,0.2L424.3,641.4L424.3,641.4z
		 M383,640.6h40.3V634h-0.5c-4-0.7-7.3-4-7.4-7.4l-0.2-1.7l0,0v-0.2c0,0,0,0,0-0.2v-0.2c0,0,0,0,0.2-0.2l0.2-0.2c0,0,0,0,0.2-0.2
		h0.5l0,0h7.4v-6.4h-40.1V641L383,640.6L383,640.6z"/>
</g>
<g>
	<path class="st9" d="M416.1,678.1l-0.2-1.6l0,0l0,0l0,0l0,0l0,0l0,0l0,0l0,0l0,0l0,0l0,0l0,0h8.1v-7.9h-41.5v23.8H424V685l-1.2-0.2
		C419.4,684.5,416.3,681.7,416.1,678.1z"/>
	<path class="st9" d="M424.3,693.4h-42.5v-25h42.5v8.5h-8.1l0.2,1.6c0.5,3.1,3.1,5.9,6.6,6.6l1.7,0.2L424.3,693.4L424.3,693.4z
		 M383,692.2h40.3v-6.6h-0.5c-4-0.5-6.7-4-7.4-7.4l-0.2-1.7l0,0v-0.2l0,0c0,0,0,0,0-0.2v-0.2c0,0,0-0.2,0.2-0.2l0.2-0.2
		c0,0,0,0,0.2-0.2h0.5l0,0h7.4v-6.7h-40.1v23.8h-0.7v-0.2L383,692.2L383,692.2L383,692.2z"/>
</g>
<g>
	<path class="st9" d="M360.7,226.2v-8.1l0,0l0,0l0,0l0,0l0,0c0-0.2,0.2-0.2,0.5-0.2l0,0l0,0l1.6,0.2c4,0.7,6.4,3.1,7.3,6.7l0.2,1.2
		h26.8v-37.8h-36.6V226C359.8,226.2,360.7,226.2,360.7,226.2z"/>
	<path class="st9" d="M396.8,226.7h-27.6L369,225c-0.7-3.6-3.1-5.7-6.6-6.6l-1.6-0.2v8.1h-1.7v-39.2h37.3L396.8,226.7L396.8,226.7z
		 M370.4,225.6h25.9v-37h-35.4v29.2c0.2-0.2,0.5-0.2,0.5-0.2h0.2l1.6,0.2c4.1,0.7,6.6,3.5,7.4,7.4L370.4,225.6L370.4,225.6
		L370.4,225.6z"/>
</g>
<g>
	<path class="st9" d="M420.4,226.5c0.2,0,0.5,0.2,0.5,0.5v1.6c0,0.2-0.2,0.5-0.5,0.5h-9.5v11.4c0,0.2-0.2,0.5-0.5,0.5h-0.5v7.4h0.5
		c0.2,0,0.5,0.2,0.5,0.5v4.8h20.6l0.2-1.2c0.5-3.6,3.5-6.4,6.7-7.3l1.6-0.2l0,0l0,0l0,0l0,0c0,0,0,0,0.2,0l0,0l0,0l0,0l0,0l0,0l0,0
		l0,0v8.1h1.7v-10.7h-15.7c-0.2,0-0.5-0.2-0.5-0.5v-1.7c0-0.2,0.2-0.5,0.5-0.5h15.7v-52.2H406v38.2L420.4,226.5L420.4,226.5z"/>
	<path class="st9" d="M443.3,254h-2.6v-8.3l-1.6,0.2c-3.5,0.7-5.9,3.1-6.6,6.6l-0.2,1.7h-21.9v-5.4h-0.7v-8.3h0.7v-11.6h9.7v-1.6
		h-14.5V188h37.3v53h-16.1v1.6h16.1L443.3,254L443.3,254z M441.5,252.8h0.5v-9.7h-15.4c-0.5,0-0.7-0.5-0.7-0.7v-1.7
		c0-0.5,0.5-0.7,0.7-0.7H442v-50.8h-35.2v36.6h13.8c0.5,0,0.7,0.5,0.7,0.7v1.6c0,0.5-0.5,0.7-0.7,0.7h-8.8V240
		c0,0.5-0.5,0.7-0.7,0.7v6.6c0.5,0.2,0.7,0.5,0.7,0.7v4.3h19.7v-0.7c0.5-4,3.6-6.6,7.4-7.4l1.7-0.2l0,0h0.2c0,0,0,0,0.2,0
		s0.2,0,0.2,0.2s0.2,0.2,0.2,0.2l0,0v0.2v0.2l0,0L441.5,252.8L441.5,252.8z"/>
</g>
<g>
	<path class="st9" d="M638.8,218.2L638.8,218.2L638.8,218.2L638.8,218.2L638.8,218.2C639,218.2,639,218.2,638.8,218.2
		C639,218.2,639,218.2,638.8,218.2L638.8,218.2L638.8,218.2L638.8,218.2L638.8,218.2L638.8,218.2L638.8,218.2v1.7
		c-0.7,3.1-2.4,4.8-5.7,5.7l0,0h-1.2v27.8H676c0.2,0,0.5,0.2,0.5,0.5v1.2h7.4v-1.2c0-0.2,0.2-0.5,0.5-0.5h5.7v-43.9v-16.1V188h-44.2
		v1.6c0,0.2-0.2,0.5-0.5,0.5h-3.1c-0.2,0-0.5-0.2-0.5-0.5V188h-9.5v30.1h6.5V218.2z"/>
	<path class="st9" d="M684.8,255.2h-8.3v-1.6h-44.2v-28.8l1.6-0.2c3.1-0.7,4.7-2.4,5.4-5.4l0.2-1.6h-6.6v-31.1h10.7v1.7h3.1v-1.7
		h45.6v66.7h-5.9v1.7h-0.9v0.2h-0.7V255.2z M677.5,254h6.4v-0.5c0-0.5,0.5-0.7,0.7-0.7h5v-64.4h-43.4v0.7c0,0.5-0.5,0.7-0.7,0.7
		h-3.1c-0.5,0-0.7-0.5-0.7-0.7v-0.7h-8.5v28.8h5.9h0.2c0,0,0,0,0.2,0h0.2c0,0,0.2,0,0.2,0.2l0.2,0.2v0.2v0.2l0,0c0,0,0,0,0,0.2l0,0
		v0.2l-0.2,1.6c-0.7,3.5-2.4,5-5.9,6h-0.2h-0.5v26.8h43.2c0.5,0,0.7,0.5,0.7,0.7L677.5,254L677.5,254L677.5,254z"/>
</g>
<g>
	<path class="st9" d="M598,253.5c0.2,0,0.5,0.2,0.5,0.5v1.2h7.4v-1.6c0-0.2,0.2-0.5,0.5-0.5h23.8v-28.3c0-0.2,0.2-0.5,0.5-0.5h0.5
		v-6h-0.5c-0.2,0-0.5-0.2-0.5-0.5v-30.2H573v65.1L598,253.5L598,253.5z"/>
	<path class="st9" d="M606.3,255.2h-8.5v-1.6h-25.6v-66.2h58.2v30.4h0.7v7.4h-0.7v28.5h-24L606.3,255.2L606.3,255.2z M598.9,254h6.4
		v-0.5c0-0.5,0.5-0.7,0.7-0.7h23.5v-27.5c0-0.5,0.5-0.7,0.7-0.7v-5.4c-0.5,0-0.7-0.5-0.7-0.7v-30.1h-55.8v64.3h24.4
		c0.5,0,0.7,0.5,0.7,0.7L598.9,254L598.9,254z"/>
</g>
<g>
	<path class="st9" d="M716.5,208.2v33.7l1.2,0.2c3.6,0.5,6.4,3.6,7.3,6.7l0.2,1.6l0,0l0,0l0,0l0,0l0,0l0,0l0,0l0,0l0,0l0,0l0,0l0,0
		l0,0h-8.1v2.2h23v-3.5h-7.9l0,0l0,0l0,0l0,0l0,0l0,0l0,0l0,0l0,0l0,0l0,0l0,0l0,0l0.2-1.6c0.5-4,3.5-6.4,7.3-7.3l1.2-0.2v-4.3v-7.4
		v-0.5v-8.1v-11.6V200v-0.5v-8.1v-4.1h-22.8v9.2L716.5,208.2L716.5,208.2z"/>
	<path class="st9" d="M740.2,254h-24v-3.5h8.3l-0.2-1.6c-0.5-3.1-3.1-5.9-6.6-6.6l-1.7-0.2v-55.3h24v53.9l-1.2,0.5
		c-3.5,0.5-5.9,3.1-6.6,6.6l-0.2,1.6h8.1L740.2,254L740.2,254z M717.4,252.8h21.9v-2.2h-7.6c-0.2,0-0.2,0-0.2,0l0,0c0,0,0,0-0.2,0
		h-0.2c0,0-0.2,0-0.2-0.2v-0.2V250v-0.2l0,0c0,0,0,0,0-0.2l0,0l0.2-1.6c0.7-4,3.6-6.6,7.4-7.4h0.5v-52.3h-21.9v53h0.5
		c4,0.7,6.7,4,7.4,7.4l0.2,1.7l0,0v0.2c0,0,0,0,0,0.2v0.2c0,0,0,0.2-0.2,0.2l-0.2,0.2c0,0,0,0-0.2,0.2l0,0c0,0,0,0-0.2,0l0,0h-7.3
		L717.4,252.8L717.4,252.8z"/>
</g>
<g>
	<path class="st9" d="M693.7,209.4v8.1h0.7v-8.1l0,0l0,0l0,0l0,0l0,0l0,0l0,0l0,0l0,0l0,0l0,0l0,0l1.6,0.2c3.6,0.5,6.6,3.6,6.7,7.3
		l0.2,1.6h12.3v-9.2V198v-9.2h-10.5H704h-10.7h-0.2v5.7L693.7,209.4L693.7,209.4z"/>
	<path class="st9" d="M715.9,218h-13.3l-0.2-1.7c-0.5-3.1-3.1-5.9-6.6-6.6l-1.6-0.2v8.3h-1.7v-30.4h23L715.9,218L715.9,218z
		 M703.8,216.8H715v-28.5h-20.6v20.6h0.2h0.2h0.2c0,0,0,0,0.2,0h0.2l1.6,0.2c4,0.7,6.7,4,7.4,7.4L703.8,216.8z"/>
</g>
<g>
	<path class="st9" d="M475.6,193.7L475.6,193.7v7.4l0,0l0,0v0.5l0,0l0,0v7.4l0,0l0,0v4.8h14v-1.2c0.5-2.6,2.6-5,5.7-5.7l1.6-0.2l0,0
		l0,0l0,0l0,0l0,0l0,0l0,0l0,0l0,0l0,0l0,0l0,0v6.6h25v-25.6h-46.3L475.6,193.7L475.6,193.7z"/>
	<path class="st9" d="M522.7,214.1h-26.1v-6.7l-1.6,0.2c-2.4,0.5-4.8,2.6-5.4,5.4l-0.2,1.6h-14.9v-26.8H522L522.7,214.1L522.7,214.1
		z M497.7,212.9h23.8v-24.5h-45.1v24.5H489v-0.5c0.5-3.1,3.1-5.7,6-6l0,0l1.6-0.2l0,0h0.2l0,0c0.2,0,0.2,0,0.2,0.2h0.2l0.2,0.2v0.2
		v0.2l0,0c0,0,0,0,0,0.2l0,0l0,0v5.9L497.7,212.9L497.7,212.9L497.7,212.9z"/>
</g>
<g>
	<path class="st9" d="M451.9,223.4l1.6-0.2l0,0l0,0l0,0l0,0l0,0l0,0l0,0l0,0l0,0l0,0l0,0l0,0v6.6h6.4h12.6h1.2v-0.5h-6.4l0,0l0,0
		l0,0l0,0l0,0l0,0l0,0l0,0l0,0l0,0l0,0l0,0l0,0l0.2-1.6c0.7-3.1,3.1-5,5.7-5.7l1.2-0.2v-33.7h-26.9v0.2v40.3
		C447.4,225.8,449.1,224.1,451.9,223.4z"/>
	<path class="st9" d="M445.7,232.4v-45.1h28.5v35.1l-1.7,0.2c-2.4,0.5-4.7,2.4-5.4,5.4l-0.2,1.6h6.7v1.7h-20.9v-6.7l-1.6,0.2
		c-2.4,0.5-4.3,2.2-5,4.8L445.7,232.4z M454.3,229.4h12.3l0,0v-0.2V229l0,0l0,0l0,0l0,0l0.2-1.6c0.7-3.1,3.1-5.7,6-6h0.5v-33H447
		v37.5c1.2-1.7,2.6-2.6,4.8-3.1l1.7-0.2h0.2c0,0,0,0,0.2,0s0.2,0,0.2,0s0,0,0.2,0.2l0.2,0.2c0,0,0,0.2,0.2,0.2v0.2v0.2l0,0v0.2
		L454.3,229.4L454.3,229.4z"/>
</g>
<g>
	<path class="st9" d="M549,213.5v-6.6l0,0l0,0l0,0l0,0l0,0l0,0l0,0c0,0,0,0,0.2,0l0,0l0,0l0,0l0,0l1.6,0.2l0,0
		c3.1,0.7,4.8,2.4,5.7,5.7l0,0v1.2h14v-25.9h-46.3V214L549,213.5L549,213.5z"/>
	<path class="st9" d="M571.1,214.1h-15l-0.2-1.6c-0.7-3.1-2.2-4.3-5.4-5.4l-1.6-0.2v6.7h-26.1V187h47.5L571.1,214.1L571.1,214.1z
		 M556.7,212.9h12.6v-24.5h-45.6v24.5h23.8v-6v-0.2c0,0,0,0,0-0.2v-0.2c0,0,0-0.2,0.2-0.2l0,0c0,0,0.2,0,0.2-0.2h0.2c0,0,0,0,0.2,0
		h0.2l1.6,0.2h0.2c3.5,1.2,5,2.6,6,6c0,0,0,0,0,0.2L556.7,212.9z"/>
</g>
<g>
	<path class="st10" d="M471.8,821.8c-0.2,0-0.5-0.2-0.5-0.5v-0.5h-7.4v0.5c0,0.2-0.2,0.5-0.5,0.5H458v1.9c0,0.2-0.2,0.5-0.5,0.5h-4
		c-0.2,0-0.5-0.2-0.5-0.5v-1.9h-11.2c-0.2,0-0.5-0.2-0.5-0.5v-0.5H434v0.5c0,0.2-0.2,0.5-0.5,0.5h-15.7v1.9c0,0.2-0.2,0.5-0.5,0.5
		h-3.6c-0.2,0-0.5-0.2-0.5-0.5v-1.9h-1.7c-0.2,0-0.5-0.2-0.5-0.5v-0.5h-7.4v0.5c0,0.2-0.2,0.5-0.5,0.5h-2.2v8.1l0,0l0,0l0,0l0,0l0,0
		l0,0l0,0l0,0c0,0,0,0-0.2,0l0,0l0,0l0,0l0,0l-1.6-0.2c-3.6-0.5-6.4-3.6-7.3-6.7l-0.2-1.6h-9.7v71.9h10.2h0.2h0.2h8.3h0.2h0.2h0.5
		h0.2h0.2h8.3h0.2h0.2h1.7v-2.4c0-0.2,0.2-0.5,0.5-0.5h0.7l5.7-5.7l-5.7-5.7c-0.2-0.2-0.2-0.5,0-0.5l5.7-5.7l-5.7-5.7
		c-0.2-0.2-0.2-0.5,0-0.5l5.7-5.7l-5.7-5.7l0,0l0,0l0,0l0,0l0,0l0,0l0,0l0,0l0,0l0,0l0,0l0,0l5.7-5.7l-5.7-5.7
		c-0.2-0.2-0.2-0.5,0-0.5c0.2-0.2,0.5-0.2,0.5,0l5.9,5.9l0.2,0.2c0,0.2,0,0.2-0.2,0.2l-5.7,5.7l5.7,5.7c0.2,0.2,0.2,0.5,0,0.5
		l-5.7,5.7l5.7,5.7c0.2,0.2,0.2,0.5,0,0.5l-5.7,5.7l5.7,5.7c0.2,0.2,0.2,0.5,0,0.5l-5.9,5.9v2.2h10.2h0.2h0.2h0.5h0.2h0.2h10.2h0.2
		h0.2h0.5h0.2h0.2h10.2h0.2h0.2h0.5h0.2h0.2h10.2h0.2h0.2h3.1h0.2h0.2h8.3h0.2h0.2h0.5h0.2h0.2h8.3h0.2h0.2h10.2v-72L471.8,821.8
		L471.8,821.8z"/>
	<path class="st10" d="M492.7,894.5h-78.1v-3.1h-0.3v3.1h-32v-73.2H393l0.2,1.7c0.5,3.1,3.5,5.9,6.6,6.6l1.6,0.2v-8.3h2.6v-0.7h8.5
		v0.7h1.9v2.2h3.5v-2.2h16.2v-0.7h8.3v0.7h12.3v2.2h3.6v-2.2h5.7v-0.7h8.3v0.7h20.9L492.7,894.5L492.7,894.5z M482.3,893.1h9.5V822
		h-19.9c-0.5,0-0.7-0.5-0.7-0.7h-6.7c0,0.5-0.5,0.7-0.7,0.7h-5v1.6c0,0.5-0.5,0.7-0.7,0.7h-3.8c-0.5,0-0.7-0.5-0.7-0.7V822h-11.2
		c-0.5,0-0.7-0.5-0.7-0.7h-6.4c0,0.5-0.5,0.7-0.7,0.7h-16.1v1.6c0,0.5-0.5,0.7-0.7,0.7h-4c-0.5,0-0.7-0.5-0.7-0.7V822h-1.2
		c-0.5,0-0.7-0.5-0.7-0.7h-6.6c0,0.5-0.5,0.7-0.7,0.7h-1.7v7.4v0.2c0,0,0,0,0,0.2s0,0.2-0.2,0.2v0.2l-0.2,0.2l0,0
		c-0.2,0-0.2,0-0.5,0l0,0l-1.6-0.2c-4-0.5-6.7-4-7.4-7.4v-0.7h-8.5v71h9.7c0.2,0,0.5,0,0.5,0h8.3c0.2,0,0.5,0,0.5,0h0.2
		c0.2,0,0.5,0,0.5,0h8.3c0.2,0,0.5,0,0.5,0h1.6v-1.9c0-0.5,0.5-0.7,0.7-0.7h0.5l5-5l-5.4-5.4c-0.2-0.2-0.2-0.5-0.2-0.5l0.2-0.5
		l5.4-5.4l-5.4-5.4c-0.2-0.2-0.2-0.5-0.2-0.5c0-0.2,0.2-0.5,0.2-0.5l5.4-5.4l-5.7-5.7c0,0,0,0,0-0.2v-0.2c0,0,0,0,0-0.2v-0.2
		c0,0,0,0,0-0.2l0,0l5.7-5.7l-5.4-5.4c-0.5-0.5-0.5-1.2,0-1.6c0.5-0.5,1.2-0.5,1.6,0l5.9,5.9c0.2,0.2,0.2,0.5,0.2,0.5l-0.2,0.5
		l-5.4,5.4l5.4,5.4c0.2,0.2,0.2,0.5,0.2,0.5c0,0.2-0.2,0.5-0.2,0.5l-5.4,5.4l5.4,5.4c0.2,0.2,0.2,0.5,0.2,0.5c0,0.2-0.2,0.5-0.2,0.5
		l-5.4,5.4l5.4,5.4c0.5,0.5,0.5,1.2,0,1.6l-5.7,5.7v1.7h9.5c0.2,0,0.5,0,0.5,0h0.2c0.2,0,0.5,0,0.5,0h10.2c0.2,0,0.5,0,0.5,0h0.2
		c0.2,0,0.5,0,0.5,0h9.8c0.2,0,0.5,0,0.5,0h0.2c0.2,0,0.5,0,0.5,0h9.8c0.2,0,0.5,0,0.5,0h2.6c0.2,0,0.5,0,0.5,0h8.3
		c0.2,0,0.5,0,0.5,0h0.2c0.2,0,0.5,0,0.5,0h8.3C481.8,893.1,482.1,893.1,482.3,893.1z"/>
</g>
<g>
	<path class="st9" d="M451.4,753.9l1.2,0.2c3.6,0.5,6.6,3.6,7.3,7.3l0.2,1.6l0,0l0,0l0,0l0,0l0,0l0,0l0,0l0,0l0,0l0,0l0,0l0,0l0,0
		H452v5.7h11.2v-1.6c0-0.2,0.2-0.5,0.5-0.5h11.2c0.2,0,0.5,0.2,0.5,0.5v1.6h6.4c0.2,0,0.5,0.2,0.5,0.5v24c0,0.2-0.2,0.5-0.5,0.5
		h-0.5v26.4h12.3h1.2v-74.5h-1.2H452L451.4,753.9L451.4,753.9z"/>
	<path class="st9" d="M493.9,820.2h-14.5v-27.5h0.5v-24h-6.6V767h-10.7v1.7h-12.1v-6.6h8.3l-0.2-1.6c-0.5-3.1-3.5-5.9-6.6-6.6
		l-1.7-0.2v-9.5h43.4L493.9,820.2L493.9,820.2z M480.7,819.6H493v-73.4h-41.1v7.4h0.5c4,0.7,6.7,4,7.4,7.4l0.2,1.7l0,0v0.2
		c0,0,0,0,0,0.2v0.2c0,0,0,0.2-0.2,0.2l-0.2,0.2h-0.2h-0.2l0,0c0,0,0,0-0.2,0l0,0h-7.4v4.3h10.2v-0.7c0-0.5,0.5-0.7,0.7-0.7h11.2
		c0.5,0,0.7,0.5,0.7,0.7v0.7h5.7c0.5,0,0.7,0.5,0.7,0.7v24c0,0.5-0.2,0.7-0.5,0.7L480.7,819.6L480.7,819.6z"/>
</g>
<g>
	<path class="st9" d="M451.4,728.2l1.2,0.2c3.6,0.5,6.4,3.5,7.3,6.7l0.2,1.6l0,0l0,0l0,0l0,0l0,0l0,0l0,0l0,0l0,0l0,0l0,0l0,0l0,0
		H452v6.4h41.5v-23.5H452L451.4,728.2L451.4,728.2z"/>
	<path class="st9" d="M492.8,744.1h-42.7v-7.4h8.3l-0.2-1.6c-0.5-3.5-3.5-5.9-6.6-6.6l-1.7-0.2v-8.5h42.5L492.8,744.1L492.8,744.1z
		 M451.9,742.5H492v-21.9h-40.1v6.6h0.5c4,0.5,6.6,3.6,7.4,7.4l0.2,1.7l0,0v0.2l0,0c0,0,0,0,0,0.2v0.2c0,0,0,0.2-0.2,0.2h-0.2
		c0,0-0.2,0-0.2,0.2h-0.2h-7.4L451.9,742.5L451.9,742.5L451.9,742.5z"/>
</g>
<g>
	<path class="st9" d="M406.8,749.2H383c0,4.8,0,10.2,0,15h24.4L406.8,749.2L406.8,749.2z"/>
	<path class="st9" d="M407.1,764.6h-25.6v-16.1h25.6V764.6L407.1,764.6z M382.8,763.4h23.5v-14h-23.5L382.8,763.4L382.8,763.4z"/>
</g>
<g>
	<path class="st9" d="M393,819.7v0.5h7.4v-0.5c0-0.2,0.2-0.5,0.5-0.5h0.5v-10.5c0-0.2,0.2-0.5,0.5-0.5h0.2v-6h-0.2
		c-0.2,0-0.5-0.2-0.5-0.5v-7.9h-18.7v25h10.2C392.6,819.7,393,819.7,393,819.7z"/>
	<path class="st9" d="M400.9,820.8h-8.5v-0.9h-10.7v-26.1h19.9v8.1h0.5v7.3h-0.5v10.7h-0.9L400.9,820.8L400.9,820.8z M393.2,819.7
		h6.6c0-0.5,0.5-0.7,0.7-0.7v-9.8c0-0.5,0.2-0.7,0.5-0.7v-5c-0.5-0.2-0.5-0.5-0.5-0.7v-7.3H383v23.8h9.7
		C393,819,393.2,819.4,393.2,819.7z"/>
</g>
<g>
	<path class="st9" d="M451.4,616.9v7.9l1.2,0.2c3.6,0.5,6.4,3.6,7.3,6.7l0.2,1.6l0,0l0,0l0,0l0,0l0,0l0,0l0,0l0,0l0,0l0,0l0,0l0,0
		l0,0H452v7.4h41.5v-13.8v-10.2L451.4,616.9L451.4,616.9z"/>
	<path class="st9" d="M492.8,641.3h-42.7V633h8.3l-0.2-1.6c-0.5-3.1-3.1-5.9-6.6-6.6l-1.7-0.2v-8.8h42.5L492.8,641.3L492.8,641.3z
		 M451.9,640.4H492v-23h-40.1v6.6h0.5c4,0.7,6.7,4,7.4,7.4l0.2,1.7l0,0v0.2c0,0,0,0,0,0.2v0.2c0,0,0,0.2-0.2,0.2l-0.2,0.2
		c0,0,0,0-0.2,0.2h-0.2c0,0,0,0-0.2,0l0,0h-7.4L451.9,640.4L451.9,640.4z"/>
</g>
<g>
	<path class="st9" d="M451.4,702.1l1.2,0.2c3.6,0.5,6.4,3.6,7.3,6.7l0.2,1.6l0,0l0,0l0,0l0,0l0,0l0,0l0,0l0,0l0,0l0,0l0,0l0,0l0,0
		H452v6.4h41.5v-23.5H452L451.4,702.1L451.4,702.1z"/>
	<path class="st9" d="M492.8,718h-42.7v-7.4h8.3l-0.2-1.6c-0.5-3.1-3.1-5.9-6.6-6.6l-1.7-0.2v-8.8h42.5L492.8,718L492.8,718z
		 M451.9,717.1H492v-22.3h-40.1v6.7h0.5c4,0.7,6.7,4,7.4,7.4l0.2,1.7l0,0v0.2c0,0,0,0,0,0.2v0.2c0,0,0,0.2-0.2,0.2l-0.2,0.2
		c0,0,0,0-0.2,0.2h-0.2c0,0,0,0-0.2,0l0,0h-7.4L451.9,717.1L451.9,717.1z"/>
</g>
<g>
	<path class="st9" d="M451.4,598.6l1.2,0.2c4,0.7,6.4,3.5,7.3,6.7l0.2,1.6l0,0l0,0l0,0l0,0l0,0l0,0l0,0l0,0l0,0l0,0l0,0l0,0l0,0H452
		v7.3h41.5v-23.8H452L451.4,598.6L451.4,598.6z"/>
	<path class="st9" d="M492.8,615.4h-42.7v-8.1h8.3l-0.2-1.6c-0.7-3.5-3.1-5.9-6.6-6.6l-1.7-0.2v-8.5h42.5L492.8,615.4L492.8,615.4z
		 M451.9,614.3H492v-22.6h-40.1v6.6h0.5c4,0.7,6.6,3.6,7.4,7.4l0.2,1.7l0,0v0.2l0,0c0,0,0,0,0,0.2v0.2c0,0,0,0.2-0.2,0.2l-0.2,0.2
		c0,0,0,0-0.2,0.2h-0.2h-7.4L451.9,614.3L451.9,614.3z"/>
</g>
<g>
	<path class="st9" d="M451.4,668.4v8.1l1.2,0.2c4,0.7,6.4,3.5,7.3,6.7l0.2,1.6l0,0l0,0l0,0l0,0l0,0l0,0l0,0l0,0l0,0l0,0l0,0l0,0l0,0
		H452v7.3h41.5v-13.8v-10.2L451.4,668.4L451.4,668.4z"/>
	<path class="st9" d="M492.8,692.9h-42.7v-8.3h8.3l-0.2-1.6c-0.7-3.5-3.1-5.9-6.6-6.6l-1.7-0.2v-8.8h42.5L492.8,692.9L492.8,692.9z
		 M451.9,691.9H492v-23h-40.1v6.7h0.5c4,0.7,6.6,3.6,7.4,7.4l0.2,1.7l0,0v0.2l0,0c0,0,0,0,0,0.2v0.2c0,0,0,0.2-0.2,0.2l-0.2,0.2
		c0,0,0,0-0.2,0.2h-0.2h-7.4L451.9,691.9L451.9,691.9L451.9,691.9z"/>
</g>
<g>
	<path class="st9" d="M451.4,571.8l1.2,0.2c3.6,0.5,6.6,3.6,7.3,7.3l0.2,1.6l0,0l0,0l0,0l0,0l0,0l0,0l0,0l0,0l0,0l0,0l0,0l0,0l0,0
		H452v7.3h41.5v-23.8H452L451.4,571.8L451.4,571.8z"/>
	<path class="st9" d="M492.8,588.6h-42.7v-8.1h8.3l-0.2-1.6c-0.5-3.1-3.5-5.9-6.6-6.6l-1.7-0.2v-8.5h42.5L492.8,588.6L492.8,588.6z
		 M451.9,587.4H492v-23h-40.1v6.6h0.5c4,0.7,6.7,4,7.4,7.4l0.2,1.7l0,0v0.2c0,0,0,0,0,0.2v0.2c0,0,0,0.2-0.2,0.2l-0.2,0.2
		c0,0,0,0-0.2,0.2h-0.2c0,0,0,0-0.2,0l0,0h-7.4L451.9,587.4L451.9,587.4z"/>
</g>
<g>
	<path class="st9" d="M451.4,650.6l1.2,0.2c4,0.7,6.4,3.5,7.3,6.7l0.2,1.6l0,0l0,0l0,0l0,0l0,0l0,0l0,0l0,0l0,0l0,0l0,0l0,0l0,0H452
		v7.3h41.5v-10.2v-13.8H452L451.4,650.6L451.4,650.6z"/>
	<path class="st9" d="M492.8,667.2h-42.7v-8.1h8.3l-0.2-1.6c-0.7-3.5-3.1-5.9-6.6-6.6l-1.7-0.2v-9.2h42.5L492.8,667.2L492.8,667.2z
		 M451.9,666.2H492v-23h-40.1v6.7h0.5c4,0.7,6.6,3.6,7.4,7.4l0.2,1.7l0,0v0.2l0,0c0,0,0,0,0,0.2v0.2c0,0,0,0.2-0.2,0.2h-0.2
		c0,0-0.2,0-0.2,0.2h-0.2h-7.4L451.9,666.2L451.9,666.2L451.9,666.2z"/>
</g>
<g>
	<path class="st9" d="M423.7,737.5l-1.2-0.2c-3.6-0.5-6.6-3.6-6.7-7.3l-0.2-1.6l0,0l0,0l0,0l0,0l0,0l0,0l0,0l0,0l0,0l0,0l0,0l0,0
		h8.1v-6.7h-2.4c-0.2,0-0.5-0.2-0.5-0.5l0,0h-38.2c0,8.3,0,16.4,0,24.5h41.6L423.7,737.5L423.7,737.5z"/>
	<path class="st9" d="M424.3,746h-42.5v-26h39.4v0.5h3.5v8.1h-8.1l0.2,1.6c0.5,3.1,3.1,5.9,6.6,6.6l1.7,0.2L424.3,746L424.3,746z
		 M383,744.6h40.3v-7.4h-0.5c-4-0.5-6.7-4-7.4-7.4l-0.5-1.6l0,0V728l0,0c0,0,0,0,0-0.2v-0.5c0,0,0-0.2,0.2-0.2h0.2
		c0,0,0.2,0,0.2-0.2h0.5l0,0h7.4V721h-2.6c-0.5,0-0.5-0.2-0.7-0.5h-37.5L383,744.6z"/>
</g>
<g>
	<path class="st9" d="M423.7,477.2h-0.9c-3.6-0.5-6.6-3.6-6.7-7.3l-0.2-1.6l0,0l0,0l0,0l0,0l0,0l0,0l0,0l0,0l0,0l0,0l0,0l0,0h8.1
		v-7.4h-41.5c0,8.1,0,16.1,0,24H424v-7.6L423.7,477.2L423.7,477.2z"/>
	<path class="st9" d="M424.3,485.6H382v-25.2h42.3v8.3h-8.1l0.2,1.6c0.5,3.1,3.1,5.9,6.6,6.6h1.7L424.3,485.6L424.3,485.6z
		 M383,484.4h40.3v-6.6h-0.5c-4-0.7-6.7-4-7.4-7.4l-0.2-1.7l0,0v-0.2c0,0,0,0,0-0.2v-0.2c0,0,0-0.2,0.2-0.2l0.2-0.2c0,0,0,0,0.2-0.2
		h0.2c0,0,0,0,0.2,0h0.2l0,0h7.4v-6.4h-40.1L383,484.4z"/>
</g>
<g>
	<path class="st9" d="M423.7,562.2v-7.4l-1.2-0.2c-3.6-0.5-6.6-3.6-6.7-7.3l-0.2-1.6l0,0l0,0l0,0l0,0l0,0l0,0l0,0l0,0l0,0l0,0l0,0
		l0,0h8.1v-7.4h-41.5c0,3.5,0,6.6,0,9.8v14L423.7,562.2L423.7,562.2z"/>
	<path class="st9" d="M424.3,562.8h-42.5v-25h42.5v8.5h-8.1l0.2,1.6c0.5,3.1,3.1,5.9,6.6,6.6l1.7,0.2L424.3,562.8L424.3,562.8z
		 M383,561.5h40.3v-6.4h-0.5c-4-0.5-6.7-4-7.4-7.4l-0.2-1.7l0,0v-0.2l0,0c0,0,0,0,0-0.2v-0.2c0,0,0-0.2,0.2-0.2l0.2-0.2
		c0,0,0,0,0.2-0.2h0.5l0,0h7.4v-6.6h-40.1v23.7L383,561.5L383,561.5z"/>
</g>
<g>
	<path class="st9" d="M423.7,503.4l-1.2-0.2c-3.6-0.5-6.6-3.6-6.7-7.3l-0.2-1.6l0,0l0,0l0,0l0,0l0,0l0,0l0,0l0,0l0,0l0,0l0,0l0,0
		h8.1V487h-41.5c0,8.1,0,16.1,0,23.8h41.5L423.7,503.4L423.7,503.4z"/>
	<path class="st9" d="M424.3,511.4h-42.5v-25h0.5h41.8v8.3H416l0.2,1.6c0.5,3.1,3.1,5.9,6.6,6.6l1.7,0.2L424.3,511.4L424.3,511.4z
		 M383,510.2h40.3v-6.6h-0.5c-4-0.5-6.7-4-7.4-7.4l-0.2-1.7l0,0l0,0l0,0c0,0,0,0,0-0.2v-0.2c0,0,0-0.2,0.2-0.2l0.2-0.2
		c0,0,0,0,0.2-0.2h0.5l0,0h7.4v-6h-40.1v23.7L383,510.2L383,510.2z"/>
</g>
<g>
	<path class="st9" d="M423.7,529l-1.2-0.2c-3.6-0.5-6.6-3.6-6.7-7.3l-0.2-1.6l0,0l0,0l0,0l0,0l0,0l0,0l0,0l0,0l0,0l0,0l0,0l0,0h8.1
		v-7.4h-41.5c0,8.1,0,16.1,0,23.8h41.5L423.7,529L423.7,529z"/>
	<path class="st9" d="M424.3,537.1h-42.5v-25h42.5v8.3h-8.1l0.2,1.6c0.5,3.1,3.1,5.9,6.6,6.6l1.7,0.2L424.3,537.1L424.3,537.1z
		 M383,536.1h40.3v-6.6h-0.5c-4-0.7-6.7-4-7.4-7.4l-0.2-1.7l0,0v-0.2c0,0,0,0,0-0.2v-0.2c0,0,0,0,0.2-0.2l0.2-0.2c0,0,0,0,0.2-0.2
		h0.5l0,0h7.4v-6.4h-40.1v23.7L383,536.1L383,536.1z"/>
</g>
<g>
	<path class="st9" d="M423.7,425.5l-1.2-0.2c-3.5-0.5-6.6-3.6-6.7-6.7V417l0,0l0,0l0,0l0,0l0,0l0,0l0,0l0,0l0,0l0,0l0,0l0,0h8.1
		v-6.7h-3.5c-0.2,0-0.5-0.2-0.5-0.5v-0.2h-37.7c0,8.1,0,16.1,0,24h41.5V425.5L423.7,425.5L423.7,425.5z"/>
	<path class="st9" d="M424.3,434H382v-25h39v0.5h4v8.1h-8.1l0.2,1.6c0.5,3.1,3.5,6,6.6,6.6l1.7,0.2L424.3,434L424.3,434z M383,432.6
		h40.3V426h-0.5c-4-0.5-7.3-4-7.4-7.4l-0.2-1.7l0,0v-0.2c0,0,0,0,0-0.2v-0.2c0,0,0-0.2,0.2-0.2l0.2-0.2c0,0,0,0,0.2-0.2h0.2
		c0,0,0,0,0.2,0h0.2l0,0h7.4V410h-2.6c-0.5,0-0.7-0.2-0.7-0.5h-36.6L383,432.6z"/>
</g>
<g>
	<path class="st9" d="M423.7,451.8l-1.2-0.2c-3.6-0.5-6.6-3.6-6.7-7.3v-1.7l0,0l0,0l0,0l0,0l0,0l0,0l0,0l0,0l0,0l0,0l0,0l0,0h8.1
		v-7.4h-41.5c0,8.1,0,16.1,0,24h41.5v-7.3L423.7,451.8L423.7,451.8L423.7,451.8z"/>
	<path class="st9" d="M424.3,459.4H382v-24.9h42.3v8.5h-8.1l0.2,1.6c0.5,3.1,3.1,5.9,6.6,6.6l1.7,0.2L424.3,459.4L424.3,459.4z
		 M383,458.5h40.3v-6.6h-0.5c-4-0.5-6.7-4-7.4-7.4l-0.2-1.7l0,0v-0.2l0,0c0,0,0,0,0-0.2v-0.2c0,0,0-0.2,0.2-0.2h0.2
		c0,0,0.2,0,0.2-0.2h0.5l0,0h7.4v-6.6h-40.1v23.7L383,458.5L383,458.5z"/>
</g>
<g>
	<path class="st9" d="M420.4,718.3L420.4,718.3c0-0.2,0.2-0.5,0.5-0.5h3.1v-6.7l-1.2-0.2c-3.6-0.5-6.6-4-6.7-7.3l-0.2-1.6l0,0l0,0
		l0,0l0,0l0,0l0,0l0,0l0,0l0,0l0,0l0,0l0,0h8.1v-7.4h-41.6c0,8.1,0,16.1,0,23.8L420.4,718.3L420.4,718.3z"/>
	<path class="st9" d="M421.3,718.7h-39.2v-25h42.5v8.5h-8.1l0.2,1.6c0.5,3.1,3.1,5.9,6.6,6.6l1.7,0.2v8.1L421.3,718.7L421.3,718.7
		L421.3,718.7z M383,718h37.3c0.2-0.2,0.5-0.5,0.7-0.5h2.2v-5.9H423c-4-0.7-7.3-4-7.4-7.4l-0.2-1.7l0,0v-0.2c0,0,0,0,0-0.2v-0.2
		c0,0,0,0,0.2-0.2l0.2-0.2c0,0,0,0,0.2-0.2h0.5l0,0h7.4v-6.6h-40.1v23.7L383,718L383,718z"/>
</g>
<g>
	<path class="st9" d="M741.4,200.2v0.5v8.1v11.6v8.1v0.5v8.1v4.8c0,0.2-0.2,0.5-0.5,0.5l0,0v7.4l0,0c0.2,0,0.5,0.2,0.5,0.5v4h43.5
		c0.2,0,0.5,0.2,0.5,0.5v1.2h7.4v-2.2c0-0.2,0.2-0.5,0.5-0.5h2.4V188h-54.1v4.3L741.4,200.2L741.4,200.2z"/>
	<path class="st9" d="M793.2,255.2h-8.3v-1.6h-44.1v-4.1h-0.5v-0.7v-8.1h0.5v-53.9h55.5v66.3h-2.9L793.2,255.2L793.2,255.2z
		 M786,254h6.4v-0.5c0-0.5,0.5-0.7,0.7-0.7h1.9v-64.4h-53.2v53.2c0,0.5-0.2,0.5-0.5,0.7v6.6c0.2,0.2,0.5,0.5,0.5,0.7v3.1h43
		c0.5,0,0.7,0.5,0.7,0.7L786,254L786,254z"/>
</g>
<g>
	<path class="st9" d="M464.2,461.8c-0.5,3.5-3.5,6.4-6.7,7.3l-1.6,0.2l0,0l0,0l0,0l0,0h-0.2l0,0l0,0l0,0l0,0l0,0l0,0l0,0l0,0v-8.1
		h-4.1v7.9l1.2,0.2c3.6,0.5,6.6,3.6,7.3,7.3l0.2,1.6l0,0l0,0l0,0l0,0l0,0l0,0l0,0l0,0l0,0l0,0l0,0l0,0l0,0h-8.1v7.4h41.5v-24h-29.4
		L464.2,461.8L464.2,461.8z"/>
	<path class="st9" d="M492.8,484.8h-42.7v-8.3h8.3l-0.2-1.6c-0.5-3.1-3.5-5.9-6.6-6.6l-1.7-0.2v-8.8h5.4v8.3l1.6-0.2
		c3.5-0.5,5.9-3.5,6.6-6.6l0.2-1.7h29.7L492.8,484.8L492.8,484.8z M451.9,483.9H492v-23h-27.1v0.5c-0.5,4-3.6,6.7-7.4,7.4l-1.7,0.2
		c2.2,1.6,3.6,3.6,4.1,6l0.2,1.7l0,0v0.2l0,0c0,0,0,0,0,0.2v0.2c0,0,0,0.2-0.2,0.2h-0.2c0,0-0.2,0-0.2,0.2h-0.7h-7.4L451.9,483.9
		L451.9,483.9z M451.9,468.2h0.5c0.7,0.2,1.7,0.5,2.4,0.7v-0.5l0,0V461h-3.1L451.9,468.2L451.9,468.2z"/>
</g>
<g>
	<path class="st9" d="M462.1,410.1c-0.5,3.1-2.6,5-5.7,5.7l-1.6,0.2l0,0l0,0l0,0l0,0h-0.2l0,0l0,0l0,0l0,0l0,0l0,0l0,0l0,0v-6.4H451
		v7.9l1.2,0.2c3.6,0.5,6.4,3.5,7.3,6.7l0.2,1.6l0,0l0,0l0,0l0,0l0,0l0,0l0,0l0,0l0,0l0,0l0,0l0,0l0,0h-8.1v7.3h3.1
		c0.2,0,0.5,0.2,0.5,0.5v0.2h7.4v-0.2c0-0.2,0.2-0.5,0.5-0.5h30.2v-23.8h-30.2L462.1,410.1z"/>
	<path class="st9" d="M462.8,434h-8.5v-0.2h-3.6v-8.5h8.3l-0.2-1.6c-0.5-3.5-3.5-5.9-6.6-6.6l-1.7-0.2v-8.5h4.3v6.7l1.6-0.2
		c2.4-0.5,4.8-2.4,5.4-5.4l0.2-1.6h31.3v25h-30.2L462.8,434L462.8,434L462.8,434z M455.3,432.9h6.6c0.2-0.5,0.5-0.5,0.7-0.5H492v-23
		h-29.4v0.5c-0.5,3.1-3.1,5.7-6,6l-1.6,0.2c-0.2,0-0.2,0-0.5,0h-0.2c0,0,0,0-0.2-0.2l0,0c0,0,0,0-0.2-0.2v-0.5l0,0l0,0v-5.7h-2.2
		v6.6h0.5c4,0.5,6.6,3.6,7.4,7.4l0.2,1.7l0,0v0.2l0,0c0,0,0,0,0,0.2v0.2c0,0,0,0.2-0.2,0.2l-0.2,0.2c0,0,0,0-0.2,0.2h-0.3h-7.4v6
		h2.4C454.7,432.2,455.3,432.4,455.3,432.9z"/>
</g>
<g>
	<path class="st9" d="M463.3,435.7c-0.5,3.6-3.6,6.6-7.3,7.3l-1.6,0.2l0,0l0,0l0,0l0,0l0,0l0,0l0,0l0,0l0,0l0,0l0,0l0,0l0,0v-8.1
		H452v7.9l1.2,0.2c3.5,0.5,6.4,3.5,7.3,6.7l0.2,1.6l0,0l0,0l0,0l0,0l0,0l0,0l0,0l0,0l0,0l0,0l0,0l0,0l0,0h-8.1v7.4h4.7
		c0.2,0,0.5,0.2,0.5,0.5v0.2h7.4v-0.2c0-0.2,0.2-0.5,0.5-0.5h28.5v-24h-29.4L463.3,435.7z"/>
	<path class="st9" d="M464.2,459.9h-8.3v-0.5h-4.8v-8.3h8.3l-0.2-1.6c-0.5-3.5-3.5-5.9-6.6-6.6l-1.7-0.2v-9h4v8.3l1.6-0.2
		c3.1-0.5,5.9-3.5,6.6-6.6l0.2-1.7h30.4v24.7h-29.4L464.2,459.9L464.2,459.9z M456.9,458.7h6.6c0.2-0.5,0.5-0.5,0.7-0.5H492v-23
		h-28.5v0.5c-0.5,4-4,6.7-7.4,7.4l0,0c2.2,1.6,3.6,3.6,4.1,6l0.2,1.7l0,0v0.2c0,0,0,0,0,0.2v0.2c0,0,0,0-0.2,0.2l-0.2,0.2
		c0,0,0,0-0.2,0.2h-0.2l0,0h-7.4v6h4C456.4,458.3,456.7,458.5,456.9,458.7z M451.9,441.9h0.5c0.5,0,0.5,0.2,1.2,0.2v-7.3h-1.7V441.9
		L451.9,441.9z"/>
</g>
<g>
	<path class="st9" d="M451.4,545.7l1.2,0.2c4,0.7,6.4,3.5,7.3,6.7l0.2,1.6l0,0l0,0l0,0l0,0l0,0l0,0l0,0l0,0l0,0l0,0l0,0l0,0l0,0H452
		v7.4h41.5V538H452L451.4,545.7L451.4,545.7z"/>
	<path class="st9" d="M492.8,562.3h-42.7V554h8.3l-0.2-1.6c-0.7-3.5-3.1-5.9-6.6-6.6l-1.7-0.2v-8.5h42.5L492.8,562.3L492.8,562.3z
		 M451.9,561.3H492v-23h-40.1v6.6h0.5c4,0.7,6.6,3.6,7.4,7.4l0.2,1.7l0,0v0.2l0,0c0,0,0,0,0,0.2v0.2c0,0,0,0.2-0.2,0.2h-0.2
		c0,0-0.2,0-0.2,0.2h-0.2h-7.4L451.9,561.3L451.9,561.3L451.9,561.3z"/>
</g>
<g>
	<path class="st9" d="M451.4,494.3l1.2,0.2c3.5,0.5,6.4,3.5,7.3,6.7l0.2,1.6l0,0l0,0l0,0l0,0l0,0l0,0l0,0l0,0l0,0l0,0l0,0l0,0l0,0
		H452v7.3h41.5v-23.8H452L451.4,494.3L451.4,494.3z"/>
	<path class="st9" d="M492.8,510.7h-42.7v-8.3h8.3l-0.2-1.6c-0.5-3.5-3.5-5.9-6.6-6.6l-1.7-0.2v-8.8h42.5L492.8,510.7L492.8,510.7z
		 M451.9,509.8H492v-23h-40.1v6.7h0.5c4,0.5,6.7,3.6,7.4,7.4l0.2,1.7l0,0v0.2c0,0,0,0,0,0.2v0.2c0,0,0,0.2-0.2,0.2l-0.2,0.2
		c0,0,0,0-0.2,0.2h-0.2c0,0,0,0-0.2,0l0,0h-7.4L451.9,509.8L451.9,509.8z"/>
</g>
<g>
	<path class="st9" d="M718.3,286.8v0.7h8.1l0,0l0,0l0,0l0,0l0,0l0,0l0,0l0,0l0,0l0,0l0,0l0,0l-0.2,1.6c-0.5,3.6-3.5,6.4-6.7,7.3
		l-1.2,0.2v31.1h11.2l0,0l0,0h0.7l0,0l0,0h11.4l0,0l0,0h8.1v-4.3v-36.6C750.1,286.8,718.3,286.8,718.3,286.8z"/>
	<path class="st9" d="M750.2,327.9h-32.5v-32l1.7-0.2c3.5-0.5,5.9-3.5,6.6-6.6l0.2-1.6h-8.1v-1.9h32.5L750.2,327.9L750.2,327.9z
		 M742.1,326.9h7.4v-39.6h-22.3l0,0c0,0,0,0.2,0.2,0.2c0,0,0,0,0,0.2v0.5l-0.2,1.7c-0.5,4-3.6,6.6-7.4,7.4h-0.7v30.2
		C719.3,326.9,742.1,326.9,742.1,326.9z"/>
</g>
<g>
	<path class="st9" d="M451.4,519.8l1.2,0.2c3.6,0.5,6.6,3.6,7.3,7.3l0.2,1.6l0,0l0,0l0,0l0,0l0,0l0,0l0,0l0,0l0,0l0,0l0,0l0,0l0,0
		H452v7.3h41.5v-23.8H452L451.4,519.8L451.4,519.8z"/>
	<path class="st9" d="M492.8,536.4h-42.7v-8.3h8.3l-0.2-1.6c-0.5-3.1-3.5-5.9-6.6-6.6l-1.7-0.2v-8.5h42.5L492.8,536.4L492.8,536.4z
		 M451.9,535.6H492V513h-40.1v6.6h0.5c4,0.7,6.7,4,7.4,7.4l0.2,1.7l0,0v0.2c0,0,0,0,0,0.2v0.2c0,0,0,0-0.2,0.2l-0.2,0.2
		c0,0,0,0-0.2,0.2h-0.2l0,0h-7.4L451.9,535.6L451.9,535.6z"/>
</g>
<g>
	<path class="st9" d="M638.3,286.8c-0.2,0-0.5-0.2-0.5-0.5v-1.2h-7.4v1.2c0,0.2-0.2,0.5-0.5,0.5h-2.4v40.8H638l0,0l0,0l0,0v-1.7l0,0
		c0-0.2,0.2-0.5,0.5-0.5h3.1c0.2,0,0.5,0.2,0.5,0.5l0,0v1.7h11.2l0,0l0,0h0.7l0,0l0,0h11.4l0,0l0,0h0.7l0,0l0,0h11.4l0,0l0,0h0.7
		l0,0l0,0h11.4l0,0l0,0h0.7v-40.8H638.3z"/>
	<path class="st9" d="M691.3,327.9h-49.9V326h-3.1v1.9h-11.6v-41.8h3.1v-1.7h8.5v1.6h53V327.9L691.3,327.9z M689.9,326.9
		L689.9,326.9l0.2-39.6h-52.3c-0.5,0-0.7-0.5-0.7-0.7v-0.5h-6.6v0.5c0,0.5-0.5,0.7-0.7,0.7h-1.9v39.6h9.5v-1.2
		c0-0.5,0.5-0.7,0.7-0.7h3.1c0.5,0,0.7,0.5,0.7,0.7v1.2H689.9z"/>
</g>
<g>
	<path class="st9" d="M717.2,296c0-0.2,0.2-0.5,0.2-0.5v-7.4c-0.2,0-0.2-0.2-0.2-0.5V286h-13.1c-0.2,0-0.5-0.2-0.5-0.5v-0.9h-7.4
		v1.2c0,0.2-0.2,0.5-0.5,0.5h-2.9v40.8h0.5l0,0l0,0h11.4l0,0l0,0h0.7l0,0l0,0h11.4L717.2,296L717.2,296z"/>
	<path class="st9" d="M717.6,327.9H692v-41.8h3.5v-1.7h8.3v1.6h13.6v1.7h0.2v8.3h-0.2L717.6,327.9L717.6,327.9z M705.8,326.9H717
		V296c0-0.2,0-0.5,0.2-0.5v-7.3c-0.2-0.2-0.2-0.5-0.2-0.5V287h-12.4c-0.5,0-0.7-0.5-0.7-0.7v-0.5h-6.4v0.5c0,0.5-0.5,0.7-0.7,0.7
		h-2.2v39.6C693.6,326.9,705.8,326.9,705.8,326.9z"/>
</g>
<g>
	<path class="st9" d="M497.7,327.6L497.7,327.6h11.4l0,0l0,0h0.7l0,0l0,0h11.4l0,0l0,0l0,0v-40.8h-9.5c-0.2,0-0.5-0.2-0.5-0.5v-1.2
		h-7.4v1.2c0,0.2-0.2,0.5-0.5,0.5h-6.6v0.5c0,0.2-0.2,0.5-0.5,0.5H496v35.4v4.3L497.7,327.6L497.7,327.6z"/>
	<path class="st9" d="M522,327.9h-26.1v-40.6h0.5v-1.2h6.7v-1.7h8.5v1.6h9.8L522,327.9L522,327.9z M509.9,326.9h11.2v-39.6h-9.2
		c-0.5,0-0.7-0.5-0.7-0.7v-0.5h-6.6v0.5c0,0.5-0.5,0.7-0.7,0.7h-6l0,0c0,0.5-0.2,0.7-0.5,0.7v39.2H510L509.9,326.9L509.9,326.9z"/>
</g>
<g>
	<path class="st9" d="M451.4,339.1l1.2,0.2c3.6,0.5,6.6,3.6,7.3,7.3l0.2,1.6l0,0l0,0l0,0l0,0l0,0l0,0l0,0l0,0l0,0l0,0l0,0l0,0l0,0
		H452v7.4h3.5V349l0,0l0,0l0,0l0,0l0,0l0,0l0,0c0,0,0,0,0.2,0l0,0c0,0,0,0,0.2,0l0,0l0,0l1.6,0.2c3.1,0.5,5,2.6,5.7,5.7l0.2,1.2
		h30.2v-23.8h-41.5L451.4,339.1L451.4,339.1z"/>
	<path class="st9" d="M492.8,355.7h-31.3l-0.2-1.7c-0.5-2.4-2.4-4.8-5.4-5l-1.6-0.2v6.6H450v-8.3h8.3l-0.2-1.6
		c-0.5-3.1-3.5-5.9-6.6-6.6h-1.7v-8.3h42.5L492.8,355.7L492.8,355.7z M462.8,354.9h29.5v-22.6H452v6.4h0.5c4,0.7,6.7,4,7.4,7.4
		l0.2,1.7l0,0v0.2c0,0,0,0,0,0.2v0.2c0,0,0,0.2-0.2,0.2l-0.2,0.2c0,0,0,0-0.2,0.2h-0.2c0,0,0,0-0.2,0l0,0h-1.6
		C460.2,350.4,461.7,352.3,462.8,354.9L462.8,354.9z M451.9,354.9h2.2V349v-0.2l0,0l0,0h-2.2V354.9z"/>
</g>
<g>
	<path class="st9" d="M461.6,356.9L461.6,356.9l-6-0.2v0.2c0,0.2-0.2,0.5-0.5,0.5h-4v7.9l1.2,0.2c4,0.7,6.4,3.5,7.3,6.7l0.2,1.6l0,0
		l0,0l0,0l0,0l0,0l0,0l0,0l0,0l0,0l0,0l0,0l0,0l0,0h-8.1v33.3h4c0.2,0,0.5,0.2,0.5,0.5v0.2h6v-0.7c0-0.2,0.2-0.5,0.5-0.5h30.4V357
		h-30.4C461.7,357.3,461.6,357.1,461.6,356.9z"/>
	<path class="st9" d="M462.1,408.4h-7.4v-0.5h-4.1v-34h8.3l-0.2-1.6c-0.7-3.5-3.1-5.9-6.6-6.6l-1.7-0.2V357h4.1v-0.5h7.4v0.5h31.3
		v50.8h-31.1L462.1,408.4L462.1,408.4z M456,406.9h5c0.2-0.5,0.5-0.5,0.7-0.5h30.2v-48.7h-30.2c-0.5,0-0.7-0.2-0.7-0.5h-5
		c-0.2,0.5-0.5,0.5-0.7,0.5H452v6.6h0.5c4,0.7,6.6,3.6,7.4,7.4l0.2,1.7l0,0v0.2l0,0c0,0,0,0,0,0.2v0.2c0,0,0,0.2-0.2,0.2h-0.2
		c0,0-0.2,0-0.2,0.2h-0.2h-7.4v32h3.1C455.3,406.7,456,406.7,456,406.9z"/>
</g>
<g>
	<path class="st9" d="M399,286.8h-5.7v22.3h20.2v-22.3h-6.4c-0.2,0-0.5-0.2-0.5-0.5v-1.2h-7.4v1.2
		C399.2,286.3,399.2,286.8,399,286.8z"/>
	<path class="st9" d="M414.2,309.4H393v-23.5h5.9v-1.6h8.5v1.6h6.6L414.2,309.4L414.2,309.4z M394.2,308.2h19.3v-21.4h-5.7
		c-0.5,0-0.7-0.5-0.7-0.7v-0.5h-6.6v0.5c0,0.5-0.5,0.7-0.7,0.7H395L394.2,308.2L394.2,308.2z"/>
</g>
<g>
	<path class="st9" d="M248.4,327L248.4,327h0.7l0,0l0,0h11.2v-40.8h-10.7c-0.2,0-0.5-0.2-0.5-0.5v-0.9h-7.4v1.2
		c0,0.2-0.2,0.5-0.5,0.5h-6.6v0.5c0,0.2-0.2,0.5-0.5,0.5l0,0V322v5.4h2.2l0,0l0,0L248.4,327L248.4,327z"/>
	<path class="st9" d="M261,327.9h-26.9v-40.6h0.5v-1.2h6.7v-1.7h8.5v1.6H261V327.9L261,327.9z M249.3,326.7H260v-39.6h-10
		c-0.5,0-0.7-0.5-0.7-0.7v-0.5h-6.6v0.5c0,0.5-0.5,0.7-0.7,0.7h-5.9l0,0c0,0.5-0.2,0.5-0.5,0.7v39L249.3,326.7L249.3,326.7
		L249.3,326.7z"/>
</g>
<g>
	<path class="st9" d="M609.4,287.7L609.4,287.7L609.4,287.7L609.4,287.7C609.8,287.7,609.8,287.7,609.4,287.7
		C609.8,287.7,609.8,287.7,609.4,287.7L609.4,287.7L609.4,287.7L609.4,287.7L609.4,287.7L609.4,287.7L609.4,287.7v1.7
		c-0.5,3.6-3.6,6.6-7.3,7.3l-1.6,0.2v30.9l0,0h11.4h0.7h11.2L624,287h-23.7v1.2L609.4,287.7L609.4,287.7z"/>
	<path class="st9" d="M625.7,327.9h-24.5v-32l1.7-0.2c3.1-0.5,5.9-3.5,6.6-6.6l0.2-1.6h-8.3v-2.2h24.4L625.7,327.9L625.7,327.9z
		 M602.4,326.9h22.3l0.2-39.9h-15l0,0h0.2c0,0,0,0,0.2,0h0.2c0,0,0,0,0.2,0.2s0,0.2,0.2,0.2c0,0,0,0,0,0.2v0.5l-0.2,1.7
		c-0.5,4-4,6.7-7.4,7.4h-0.7L602.4,326.9L602.4,326.9z"/>
</g>
<g>
	<path class="st9" d="M283.6,286.8c-0.2,0-0.5-0.2-0.5-0.5v-1.2h-7.4v1.2c0,0.2-0.2,0.5-0.5,0.5h-13.8v40.8l24-0.2v-40.8
		C285.7,286.8,283.6,286.8,283.6,286.8z"/>
	<path class="st9" d="M261,327.9v-41.8h14.5v-1.7h8.5v1.6h2.4v41.6L261,327.9z M261.9,287v39.6l23.5-0.2v-39.6h-1.7
		c-0.5,0-0.7-0.5-0.7-0.7v-0.5h-6.6v0.5c0,0.5-0.5,0.7-0.7,0.7L261.9,287L261.9,287L261.9,287z"/>
</g>
<g>
	<path class="st9" d="M599.9,295.8h0.5v-7.4h-0.2c-0.2,0-0.5-0.2-0.5-0.5v-1.7h-17.4v1.2h8.1l0,0l0,0l0,0l0,0l0,0l0,0l0,0l0,0l0,0
		l0,0l0,0l0,0l-0.2,1.6c-0.7,4-3.1,6.4-6.7,7.3l-1.2,0.2v30.1c0,0.2-0.2,0.5-0.5,0.5h-7.4v0.7h11.2h3.6h10.5v-30.9
		C599.8,296,599.9,295.8,599.9,295.8z"/>
	<path class="st9" d="M600.1,327.9h-25.9V326h7.4v-30.2l1.7-0.2c3.6-0.7,5.7-3.1,6.6-6.6l0.2-1.6H582v-2.2h18.5v1.7h0.5v8.5h-0.9
		L600.1,327.9L600.1,327.9z M582.8,326.9H599v-30.6c0-0.5,0.5-0.7,0.7-0.7V289c-0.5-0.2-0.5-0.5-0.5-0.7v-0.5h-9l0,0h0.2
		c0,0,0,0,0.2,0h0.2c0,0,0,0,0.2,0.2v0.2v0.2v0.2l0,0c0,0,0,0,0,0.2l0,0l-0.2,1.6c-0.7,4.1-3.5,6.6-7.4,7.4h-0.5L582.8,326.9
		C583.2,326.4,583.2,326.7,582.8,326.9z"/>
</g>
<g>
	<path class="st9" d="M423.7,355.5v-7.4l-1.2-0.2c-3.6-0.5-6.6-3.6-6.7-7.3l-0.2-1.6l0,0l0,0l0,0l0,0l0,0l0,0l0,0l0,0l0,0l0,0l0,0
		l0,0h8.1v-7.4h-41.5c0,8.1,0,16.1,0,23.8L423.7,355.5L423.7,355.5z"/>
	<path class="st9" d="M424.3,355.7h-42.5v-25h42.5v8.3h-8.1l0.2,1.6c0.5,3.1,3.1,5.9,6.6,6.6l1.7,0.2L424.3,355.7L424.3,355.7z
		 M383,354.9h40.3v-6.6h-0.5c-4-0.7-6.7-4-7.4-7.4l-0.2-1.7l0,0V339c0,0,0,0,0-0.2v0.2c0,0,0-0.2,0.2-0.2l0.2-0.2c0,0,0,0,0.2-0.2
		h0.2c0,0,0,0,0.2,0l0,0l0,0h7.4V332h-40.1L383,354.9z"/>
</g>
<g>
	<path class="st9" d="M423.7,374.2l-1.2-0.2c-3.6-0.5-6.6-3.6-6.7-7.3l-0.2-1.6l0,0l0,0l0,0l0,0l0,0l0,0l0,0l0,0l0,0l0,0l0,0l0,0
		h8.1V357h-41.5c0,8.1,0,16.1,0,24h41.5L423.7,374.2L423.7,374.2z"/>
	<path class="st9" d="M424.3,382.2h-42.5v-25h42.5v8.5h-8.1l0.2,1.6c0.5,3.1,3.1,5.9,6.6,6.6l1.7,0.2L424.3,382.2L424.3,382.2z
		 M383,380.9h40.3v-6.6h-0.5c-4-0.5-6.7-4-7.4-7.4l-0.2-1.7l0,0V365l0,0c0,0,0,0,0-0.2v-0.2c0,0,0-0.2,0.2-0.2h0.2
		c0,0,0.2,0,0.2-0.2h0.5l0,0h7.4v-6.6h-40.1L383,380.9L383,380.9z"/>
</g>
<g>
	<path class="st9" d="M337,294.6c-2.6-0.5-5.4-3.1-5.7-5.7l-0.2-1.6l0,0l0,0l0,0l0,0l0,0l0,0l0,0l0,0l0,0l0,0l0,0l0,0h6.6v-0.2h-4
		c-0.2,0-0.5-0.2-0.5-0.5v-1.2h-7.4v1.2c0,0.2-0.2,0.5-0.5,0.5h-12.4v40.6h11.4l0,0l0,0h0.7l0,0l0,0h11.4l0,0l0,0h0.7v-32.5
		L337,294.6z"/>
	<path class="st9" d="M338.7,327.7h-25.9v-41.6h12.6v-1.7h8.5v1.6h4.1v1.7h-6.6l0.2,1.6c0.5,2.4,2.6,4.8,5.4,5l1.6,0.2L338.7,327.7
		L338.7,327.7z M337.4,326.7L337.4,326.7l0.2-31.3h-0.7c-3.1-0.5-5.7-3.1-6.4-6v-1.6l0,0v-0.2l0,0c0,0,0,0,0-0.2v-0.2
		c0,0,0-0.2,0.2-0.2l0.2-0.2c0,0,0,0,0.2-0.2h0.5l0,0h1.7c0-0.2-0.2-0.2-0.2-0.5v-0.5h-6.6v0.5c0,0.5-0.5,0.7-0.7,0.7h-11.6v39.6
		L337.4,326.7L337.4,326.7z"/>
</g>
<g>
	<path class="st9" d="M312.5,286.8H298c-0.2,0-0.5-0.2-0.5-0.5v-1.2H290v1.2c0,0.2-0.2,0.5-0.5,0.5h-1.2v40.8h0.5l0,0l0,0h11.4l0,0
		l0,0h0.7l0,0l0,0h11.4L312.5,286.8L312.5,286.8z"/>
	<path class="st9" d="M313,327.7h-25.2v-41.6h1.7v-1.7h8.3v1.6h14.7L313,327.7L313,327.7z M301.1,326.7h11.2v-39.6h-14
		c-0.5,0-0.7-0.5-0.7-0.7v-0.5H291v0.5c0,0.5-0.5,0.7-0.7,0.7h-0.7v39.6H301.1z"/>
</g>
<g>
	<path class="st9" d="M390.9,286.8H383v0.5c0,0.2-0.2,0.5-0.5,0.5H379c-0.2,0-0.5-0.2-0.5-0.5v-0.5h-5.7c-0.2,0-0.5-0.2-0.5-0.5
		v-1.2H365v1.2c0,0.2-0.2,0.5-0.5,0.5h-14.9c-0.2,0-0.5-0.2-0.5-0.5v-1.2h-6.9v1.2c0,0.2-0.2,0.5-0.5,0.5h-1.4v1.2
		c0,0.2-0.2,0.5-0.5,0.5h-0.5v6h0.5c0.2,0,0.5,0.2,0.5,0.5v33h0.5l0,0l0,0h11.4l0,0l0,0h0.7l0,0l0,0h11.4l0,0l0,0h0.7l0,0l0,0h11.6
		l0,0l0,0h5h8.8L390.9,286.8L390.9,286.8z"/>
	<path class="st9" d="M391.6,327.9h-52.2v-33.3h-0.7v-7.3h0.7v-1.6h1.9v-1.6h8.5v1.6h14.7v-1.6h8.3v1.6h5.9v0.7h2.6v-0.7h9.2
		L391.6,327.9L391.6,327.9z M377.1,326.9h13.6v-39.6h-7.3c0,0.5-0.5,0.7-0.7,0.7h-3.3c-0.5,0-0.7-0.5-0.7-0.7h-5
		c-0.5,0-0.7-0.5-0.7-0.7v-0.5h-6.4v0.5c0,0.5-0.5,0.7-0.7,0.7h-15c-0.5,0-0.7-0.5-0.7-0.7v-0.5h-6.6v0.5c0,0.5-0.5,0.7-0.7,0.7
		h-1.2v0.5c0,0.5-0.5,0.7-0.7,0.7v5c0.5,0.2,0.7,0.5,0.7,0.7v32.5L377.1,326.9L377.1,326.9z"/>
</g>
<g>
	<rect x="393.8" y="311.3" class="st9" width="30.2" height="15.7"/>
	<path class="st9" d="M424.3,327.9H393v-17.3h31.3V327.9z M394.2,326.9h29.4V312h-29.4L394.2,326.9L394.2,326.9z"/>
</g>
<g>
	<path class="st9" d="M573.7,325.3h6.6v-24.5h-0.7c-0.5,2.6-3.1,5-5.7,5.7l-1.6,0.2l0,0l0,0l0,0l0,0h-0.2l0,0l0,0l0,0l0,0l0,0l0,0
		l0,0l0,0v-5.9h-0.5v0.2c0,0.2-0.2,0.5-0.5,0.5h-4.8v0.7c0,0.2-0.2,0.5-0.5,0.5H550v25.6h11.2h0.7h11.4v-2.2
		C573.5,325.5,573.7,325.3,573.7,325.3z"/>
	<path class="st9" d="M574.2,327.9h-24.4V301H566v-1.2h5v-0.5h1.7v6.4l1.6-0.2c2.2-0.5,4.8-2.4,5.4-5V300h1.7v26.1h-7.3L574.2,327.9
		L574.2,327.9z M550.9,326.9h22.3v-1.6c0-0.5,0.5-0.7,0.7-0.7h6v-23.1c-0.7,2.4-3.5,4.7-5.9,4.8l-1.6,0.2c-0.2,0-0.2,0-0.5,0l0,0
		c0,0,0,0-0.2-0.2v-0.2c0,0,0,0-0.2-0.2v-0.5l0,0v-4.8c-0.2,0-0.5,0.2-0.5,0.2h-4.1v0.2c0,0.5-0.5,0.7-0.7,0.7h-15.4L550.9,326.9
		L550.9,326.9z"/>
</g>
<g>
	<path class="st9" d="M423.7,752.5v-5h-8.1v1.7c0,0.2-0.2,0.5-0.5,0.5h-5.4v14.5h3.5c0.2,0,0.5,0.2,0.5,0.5v0.7h9.8v-4.3
		c0-0.2,0.2-0.5,0.5-0.5h1.2v-7.4H424C423.7,752.7,423.7,752.7,423.7,752.5z"/>
	<path class="st9" d="M424.3,765.3H413v-1.6h-4v-15.4h5.7v-1.9h8.8v5.7h1.6v8.5h-1.6v4.3L424.3,765.3L424.3,765.3z M414.4,764.1h8.8
		v-3.5c0-0.5,0.5-0.7,0.7-0.7h0.5v-6.6h-0.5c-0.5,0-0.7-0.5-0.7-0.7v-4.7h-6.6v1.2c0,0.5-0.5,0.7-0.7,0.7h-4.8v13.3h2.6
		C414.4,763.1,414.6,763.4,414.4,764.1L414.4,764.1L414.4,764.1z"/>
</g>
<g>
	<path class="st9" d="M565.4,286.8h-13.8v1.2h8.1l0,0l0,0l0,0l0,0l0,0l0,0l0,0l0,0l0,0l0,0l0,0l0,0l-0.2,1.6c-0.7,4-3.5,6.4-6.7,7.3
		l-1.6,0.2v3.1h12.6v-0.7c0-0.2,0.2-0.5,0.5-0.5h6.4c0.2,0,0.5,0.2,0.5,0.5v0.2h0.5v-0.2c0-0.2,0.2-0.5,0.5-0.5
		c0.2,0,0.5,0.2,0.5,0.5v0.2h6v-0.2l0,0l0,0l0,0l0,0l0,0l0,0l0,0l0,0h1.2v-2.2c0-0.2,0.2-0.5,0.5-0.5h0.2v-7.4h-0.2
		c-0.2,0-0.5-0.2-0.5-0.5v-1.7h-6.7c-0.2,0-0.5-0.2-0.5-0.5V285h-7.4v1.2C565.6,286.3,565.6,286.8,565.4,286.8z"/>
	<path class="st9" d="M565.2,300.1h-14V296l1.7-0.2c3.5-0.5,5.7-3.1,6.6-6.6l0.2-1.6h-8.3v-2.2h14.5v-1.2h8.3v1.6h7.4v1.7h0.5v8.3
		h-0.7v2.6h-1.6v0.5h-8.5v-0.5h-5.9L565.2,300.1L565.2,300.1z M552.4,299.2H564V299c0-0.5,0.5-0.7,0.7-0.7h6.4
		c0.2,0,0.5,0.2,0.7,0.5c0.2-0.2,0.5-0.5,0.7-0.5c0.5,0,0.7,0.2,0.7,0.5h5l0,0v-0.2c0,0,0-0.2,0.2-0.2h0.2c0,0,0.2,0,0.2-0.2h0.5
		h0.5v-1.9c0-0.5,0.2-0.7,0.5-0.7V289c-0.5-0.2-0.5-0.5-0.5-0.7v-0.7h-6.7c-0.5,0-0.7-0.5-0.7-0.7v-0.5H566v0.5
		c0,0.5-0.5,0.7-0.7,0.7h-5.7l0,0h0.2c0,0,0,0,0.2,0h0.2c0,0,0,0,0.2,0.2v0.2v0.2v0.2l0,0c0,0,0,0,0,0.2l0,0v0.9
		c-0.7,4-3.6,6.6-7.4,7.4h-0.7L552.4,299.2L552.4,299.2z"/>
</g>
<g>
	<path class="st9" d="M420.1,406.9c0-0.2,0.2-0.5,0.5-0.5h3.5v-6.7l-1.2-0.2c-3.6-0.5-6.6-4-6.7-7.3l-0.2-1.6l0,0l0,0l0,0l0,0l0,0
		l0,0l0,0l0,0l0,0l0,0l0,0l0,0h8.1v-8.1h-41.5c0,8.1,0,16.1,0,23.8h37.7L420.1,406.9L420.1,406.9L420.1,406.9z"/>
	<path class="st9" d="M420.8,407.7h-39v-25h42.5v8.5h-8.1l0.2,1.6c0.5,3.1,3.1,5.9,6.6,6.6l1.7,0.2v8.1h-4L420.8,407.7L420.8,407.7z
		 M383,406.7h36.6c0.2-0.2,0.5-0.5,0.7-0.5h2.6v-5.9h-0.5c-4-0.7-7.3-4-7.4-7.4l-0.2-1.7l0,0V391c0,0,0,0,0-0.2v-0.2
		c0,0,0,0,0.2-0.2l0.2-0.2c0,0,0,0,0.2-0.2h0.5l0,0h7.4v-6.6h-39.9L383,406.7L383,406.7L383,406.7z"/>
</g>
<g>
	<path class="st9" d="M550.2,288.4c-0.2,0-0.5-0.2-0.5-0.5v-1.6h-26.8v40.8h11.2l0,0l0,0h3.5l0,0l0,0H549l0,0l0,0l0,0v-29.4
		c0-0.2,0.2-0.5,0.5-0.5h0.5v-1.6c0-0.2,0.2-0.5,0.5-0.5h0.2v-7.4h-0.5L550.2,288.4L550.2,288.4z"/>
	<path class="st9" d="M549.3,327.9h-26.9v-41.8h27.8v1.7h0.5v8.3h-0.5v1.7h-0.9V327.9L549.3,327.9z M537.6,326.9h11.2v-29.2
		c0-0.5,0.5-0.7,0.7-0.7l0,0v-0.9c0-0.5,0.2-0.7,0.5-0.7v-6.6c-0.5-0.2-0.5-0.5-0.5-0.7v-0.2h-25.9v39.6L537.6,326.9L537.6,326.9z"
		/>
</g>
<g>
	<path class="st9" d="M250.3,253.5h1.9V188h-0.7h-8.6h-0.7h-8.8h-0.7h-8.8h-1.6h-8.6h-9.8v65.5h38.4c0.2,0,0.5,0.2,0.5,0.5v1.2h7.4
		L250.3,253.5C250.1,253.5,250.3,253.5,250.3,253.5z"/>
	<path class="st9" d="M250.8,255.2h-8.3v-1.6h-39.2v-66.9h49.6v66.9h-2.4L250.8,255.2L250.8,255.2z M243.2,254h6.4v-0.5
		c0-0.5,0.5-0.7,0.7-0.7h1.6v-64.4h-47.3v64.4h37.8c0.5,0,0.7,0.5,0.7,0.7L243.2,254L243.2,254z"/>
</g>
<g>
	<path class="st9" d="M400.4,233.9l-1.2,0.2l0,0l0,0l0,0l0,0H399l0,0l0,0l0,0l0,0l0,0l0,0l0,0l0,0v-5h-23.8v25h33.7v-5.4H401l0,0
		l0,0l0,0l0,0l0,0l0,0l0,0l0,0l0,0l0,0l0,0l0,0l0,0l0.2-1.6c0.7-4,3.1-6.4,6.7-7.3l1.2-0.2v-5.7h-4c-0.2,0-0.5-0.2-0.5-0.5v-4
		C404,231.9,402.3,233.6,400.4,233.9z"/>
	<path class="st9" d="M409.7,254h-35.4v-26.1h25v5.7l1.2-0.2c1.7-0.5,3.5-1.7,4-3.6l1.2-3.1v6.7h4.3v6.6l-1.7,0.2
		c-3.6,0.7-5.7,3.1-6.6,6.6l-0.2,1.6h8.1L409.7,254L409.7,254z M375.4,252.8h33.3v-3.6h-7.9c-0.2,0-0.2,0-0.2,0l0,0c0,0,0,0-0.2,0
		l0,0c0,0-0.2,0-0.2-0.2l-0.2-0.2v-0.2v-0.2l0,0c0,0,0,0,0-0.2l0,0l0.2-1.6c0.7-4.1,3.5-6.6,7.4-7.4h0.5v-4.8h-3.5
		c-0.5,0-0.7-0.5-0.7-0.7v-1.6c-1.2,1.6-2.2,1.9-4,2.2l-1.6,0.2c-0.2,0-0.2,0-0.5,0h-0.2c0,0,0,0-0.2-0.2l-0.2-0.2c0,0,0,0-0.2-0.2
		l0,0l0,0v-4.7h-22.6L375.4,252.8L375.4,252.8z"/>
</g>
<g>
	<path class="st9" d="M474,239.5c-0.2,0-0.5-0.2-0.5-0.5v-6.7h-1.2h-12.6h-6.6c-0.2,0-0.5-0.2-0.5-0.5v-0.9h-6v0.5
		c0,0.2-0.2,0.5-0.5,0.5h-1.6v21.4h25.2v-6c0-0.2,0.2-0.5,0.5-0.5h3.1v-1.6c0-0.2,0.2-0.5,0.5-0.5h0.2V239.5L474,239.5L474,239.5z"
		/>
	<path class="st9" d="M470.9,254h-26.3v-22.3h1.7v-0.9h7.4v0.7h20.7v7.4h0.5v7.4h-0.5v1.7h-3.5L470.9,254L470.9,254L470.9,254z
		 M445.7,253.3h24v-5.7c0-0.5,0.5-0.7,0.7-0.7h2.4v-0.5c0-0.5,0.2-0.7,0.5-0.7v-5c-0.5-0.2-0.5-0.5-0.5-0.7v-6.4h-19.9
		c-0.5,0-0.7-0.5-0.7-0.7h-5c-0.2,0.5-0.5,0.7-0.7,0.7H446L445.7,253.3L445.7,253.3z"/>
</g>
<g>
	<path class="st9" d="M537.9,233.2l-1.6,0.2l0,0l0,0l0,0l0,0h-0.2l0,0l0,0l0,0l0,0l0,0l0,0l0,0l0,0v-6.6h-15.5v1.2
		c-0.5,2.6-3.1,5.4-5.7,5.7l-1.6,0.2l0,0l0,0l0,0l0,0h-0.2l0,0l0,0l0,0l0,0l0,0l0,0l0,0l0,0v-6.6h-0.7v26.9h44.2v-27.1H544v1.2
		C543.3,230.3,540.9,232.7,537.9,233.2z"/>
	<path class="st9" d="M557.1,254H512v-28h1.7v6.7l1.6-0.2c2.4-0.5,4.8-2.6,5.4-5.4l0.2-1.6h16.4v6.7l1.6-0.2c2.4-0.5,4.8-2.6,5-5.4
		l0.2-1.6h13.8L557.1,254L557.1,254z M513.2,252.8h43v-26.1h-11.6v0.5c-0.5,3.1-3.1,5.7-6,6.4l-1.7,0.2c-0.2,0-0.2,0-0.5,0h-0.2l0,0
		c0,0,0,0-0.2-0.2h-0.2c0,0,0,0-0.2-0.2v-0.5l0,0V227h-14.5v0.5c-0.5,3.1-3.1,5.7-6,6.4l-1.6,0.2c-0.2,0-0.2,0-0.5,0h-0.2l0,0
		L513.2,252.8L513.2,252.8z"/>
</g>
<g>
	<path class="st9" d="M509.8,233.2L509.8,233.2L509.8,233.2L509.8,233.2L509.8,233.2L509.8,233.2L509.8,233.2L509.8,233.2
		c-0.2,0.2-0.2,0.2-0.5,0.2l0,0l0,0l0,0l0,0l-1.6-0.2c-2.4-0.5-5.4-3.1-5.7-5.7l-0.2-1.2h-13.1v26.9h21.2v-26.9h-0.5L509.8,233.2
		L509.8,233.2z"/>
	<path class="st9" d="M511.3,254H489v-28h14l0.2,1.6c0.5,2.4,2.6,4.8,5.4,5.4l1.6,0.2v-6.7h1.7L511.3,254L511.3,254z M489.5,252.8
		h20.2v-19.3l0,0h-0.2c-0.2,0-0.2,0-0.5,0l0,0l-1.6-0.2c-3.1-0.5-5.7-3.1-6.4-6v-0.5h-11.9L489.5,252.8L489.5,252.8z"/>
</g>
<g>
	<path class="st9" d="M300.9,253.6c0-0.2,0.2-0.5,0.5-0.5h3.1v-65.5h-49.9v65.1h38.5c0.2,0,0.5,0.2,0.5,0.5v1.2h7.4L300.9,253.6
		L300.9,253.6L300.9,253.6z"/>
	<path class="st9" d="M301.3,255.2h-8.5v-1.6h-39.2v-66.3h51v66.3H301L301.3,255.2L301.3,255.2z M293.7,254h6.6v-0.5
		c0-0.5,0.5-0.7,0.7-0.7h2.4v-64.4h-48.9v64.3h37.8c0.5,0,0.7,0.5,0.7,0.7L293.7,254L293.7,254z"/>
</g>
<g>
	<path class="st10" d="M351.9,253.6c0-0.2,0.2-0.5,0.5-0.5h2.4v-65.5h-48v65.1h37.3c0.2,0,0.5,0.2,0.5,0.5v1.2h7.4L351.9,253.6
		L351.9,253.6z"/>
	<path class="st10" d="M352.2,255.2h-8.5v-1.6h-37.5v-66.3h49.1v66.3h-3.1V255.2L352.2,255.2z M344.4,254h6.6v-0.5
		c0-0.5,0.5-0.7,0.7-0.7h1.9v-64.4h-46.8v64.3h36.6c0.5,0,0.7,0.5,0.7,0.7L344.4,254L344.4,254z"/>
</g>
<g>
	<path class="st9" d="M715.7,242.2v-23.8h-12.4c-0.2,0-0.5-0.2-0.5-0.5h-7.4c0,0.2-0.2,0.5-0.5,0.5h-1.6v34.9h2.2
		c0.2,0,0.5,0.2,0.5,0.5v1.2h7.4v-1.2c0-0.2,0.2-0.5,0.5-0.5h11.4v-2.4c0-0.2,0.2-0.5,0.5-0.5V243
		C715.7,242.7,715.7,242.6,715.7,242.2z"/>
	<path class="st9" d="M704.3,255.2h-8.5v-1.6h-2.4v-35.8h1.7v-0.5h8.3v0.5h13.1v24h0.5v8.3h-0.5v3.1H705L704.3,255.2L704.3,255.2z
		 M696.3,254h6.6v-0.5c0-0.5,0.5-0.7,0.7-0.7h11.2v-2.2c0-0.2,0.2-0.5,0.5-0.7v-6.7c-0.2-0.2-0.5-0.5-0.5-0.7v-23.1h-11.9
		c-0.2,0-0.5-0.2-0.7-0.5h-6.7c-0.2,0.2-0.5,0.5-0.7,0.5h-0.5v33.5h1.7c0.5,0,0.7,0.5,0.7,0.7L696.3,254L696.3,254z"/>
</g>
<g>
	<path class="st11" d="M803.4,180.6V335H498.7v564.4H376.1V335H197.8V180.6H803.4 M817.1,166.9h-13.6H197.8h-13.6v13.6V335v13.6
		h13.6h164.8v550.7v13.6h13.6h122.7h13.6v-13.6V348.2h291.6h13.6v-13.6V180.2L817.1,166.9L817.1,166.9z"/>
</g>
<g>
	<text transform="matrix(1 0 0 1 318.345 223.5391)" class="st1 st6 st12">2141</text>
</g>
<g>
	<text transform="matrix(1 0 0 1 427.2549 864.8147)" class="st1 st6 st12">2240</text>
</g>
<g>
	<g>
		<path class="st13" d="M423.4,197.1c-0.5,0-1.2-0.5-1.2-1.2c0-0.5,0.5-1.2,1.2-1.2s1.2,0.5,1.2,1.2
			C424.3,196.6,423.7,197.1,423.4,197.1z"/>
		<path class="st13" d="M424.1,197.7c1.2,0,1.6,0.7,1.7,1.6l0.7,3.1c0.2,0.5,0,0.5-0.2,0.5s-0.5,0-0.5-0.5l-0.7-2.4
			c0-0.2-0.2-0.2-0.5-0.2s-0.2,0.2-0.2,0.5l1.6,4.8h-1.7c0,1.9,0,3.6,0,3.6c0,0.5-0.2,0.5-0.5,0.5s-0.5,0-0.5-0.5s0-3.6,0-3.6
			c0-0.2,0-0.2-0.2-0.2s-0.2,0-0.2,0.2c0,0,0,3.1,0,3.6s-0.2,0.5-0.5,0.5s-0.5,0-0.5-0.5c0,0,0-1.7,0-3.6h-1.7l1.6-4.8
			c0-0.2,0-0.5-0.2-0.5s-0.2,0-0.5,0.2l-0.7,2.4c0,0.2-0.2,0.5-0.5,0.5c-0.5,0-0.5-0.2-0.2-0.5l0.7-3.1c0.2-0.5,0.5-1.6,1.7-1.6
			H424.1z"/>
	</g>
</g>
<g>
	<g>
		<path class="st13" d="M372.1,195.9c-0.7,0-1.6-0.5-1.6-1.6s0.5-1.6,1.6-1.6c0.7,0,1.6,0.5,1.6,1.6
			C372.9,195.6,372.6,195.9,372.1,195.9z"/>
	</g>
	<path class="st13" d="M369.8,199.2v2.4c0,0.5-0.2,0.5-0.5,0.5c-0.5,0-0.5-0.2-0.5-0.5V198c0-1.6,0.7-1.9,1.9-1.9h1.9
		c1.6,0,1.9,0.5,1.9,1.9v3.5c0,0.5-0.2,0.5-0.5,0.5s-0.5-0.2-0.5-0.5v-2.4c0-0.2-0.2-0.5-0.2-0.5s-0.2,0-0.2,0.5s0,8.8,0,8.8
		c0,0.5-0.5,0.7-0.7,0.7s-0.7,0-0.7-0.7c0-0.5,0-5.4,0-5.4c0-0.2,0-0.2-0.2-0.2s-0.2,0-0.2,0.2c0,0,0,4.8,0,5.4
		c0,0.5-0.5,0.7-0.7,0.7s-0.5,0-0.5-0.7C369.5,207.7,369.5,199.4,369.8,199.2c-0.2-0.5-0.5-0.5-0.5-0.5
		C370.2,198.5,369.8,198.5,369.8,199.2z"/>
</g>
<rect x="768.7" y="305.5" class="st14" width="9.2" height="1.7"/>
<rect x="768.7" y="307.9" class="st14" width="9.2" height="1.7"/>
<rect x="768.7" y="310.6" class="st14" width="9.2" height="1.7"/>
<rect x="768.7" y="313.2" class="st14" width="9.2" height="1.7"/>
<rect x="768.7" y="316" class="st14" width="9.2" height="1.7"/>
<rect x="768.7" y="318.9" class="st14" width="9.2" height="1.7"/>
<rect x="768.7" y="321.3" class="st14" width="9.2" height="1.7"/>
<rect x="768.9" y="291.5" class="st14" width="9.2" height="1.7"/>
<rect x="768.9" y="294.2" class="st14" width="9.2" height="1.7"/>
<rect x="768.9" y="296.8" class="st14" width="9.2" height="1.7"/>
<rect x="768.9" y="299.8" class="st14" width="9.2" height="1.7"/>
<rect x="768.9" y="302.3" class="st14" width="9.2" height="1.7"/>
<rect x="755.2" y="305.5" class="st14" width="9.2" height="1.7"/>
<rect x="755.2" y="307.9" class="st14" width="9.2" height="1.7"/>
<rect x="755.2" y="310.6" class="st14" width="9.2" height="1.7"/>
<rect x="755.2" y="313.2" class="st14" width="9.2" height="1.7"/>
<rect x="755.2" y="316" class="st14" width="9.2" height="1.7"/>
<rect x="755.2" y="318.9" class="st14" width="9.2" height="1.7"/>
<rect x="755.2" y="321.3" class="st14" width="9.2" height="1.7"/>
<rect x="755.6" y="291.5" class="st14" width="9.2" height="1.7"/>
<rect x="755.6" y="294.2" class="st14" width="9.2" height="1.7"/>
<rect x="755.6" y="296.8" class="st14" width="9.2" height="1.7"/>
<rect x="755.6" y="299.8" class="st14" width="9.2" height="1.7"/>
<rect x="755.6" y="302.3" class="st14" width="9.2" height="1.7"/>
<rect x="480.7" y="305.5" class="st14" width="9.2" height="1.7"/>
<rect x="480.7" y="307.9" class="st14" width="9.2" height="1.7"/>
<rect x="480.7" y="310.6" class="st14" width="9.2" height="1.7"/>
<rect x="480.7" y="313.2" class="st14" width="9.2" height="1.7"/>
<rect x="480.7" y="316" class="st14" width="9.2" height="1.7"/>
<rect x="480.7" y="318.9" class="st14" width="9.2" height="1.7"/>
<rect x="480.7" y="321.3" class="st14" width="9.2" height="1.7"/>
<rect x="480.7" y="291.5" class="st14" width="9.2" height="1.7"/>
<rect x="480.7" y="294.2" class="st14" width="9.2" height="1.7"/>
<rect x="480.7" y="296.8" class="st14" width="9.2" height="1.7"/>
<rect x="480.7" y="299.8" class="st14" width="9.2" height="1.7"/>
<rect x="480.7" y="302.3" class="st14" width="9.2" height="1.7"/>
<rect x="467.6" y="305.5" class="st14" width="9.2" height="1.7"/>
<rect x="467.6" y="307.9" class="st14" width="9.2" height="1.7"/>
<rect x="467.6" y="310.6" class="st14" width="9.2" height="1.7"/>
<rect x="467.6" y="313.2" class="st14" width="9.2" height="1.7"/>
<rect x="467.6" y="316" class="st14" width="9.2" height="1.7"/>
<rect x="467.6" y="318.9" class="st14" width="9.2" height="1.7"/>
<rect x="467.6" y="321.3" class="st14" width="9.2" height="1.7"/>
<rect x="467.6" y="291.5" class="st14" width="9.2" height="1.7"/>
<rect x="467.6" y="294.2" class="st14" width="9.2" height="1.7"/>
<rect x="467.6" y="296.8" class="st14" width="9.2" height="1.7"/>
<rect x="467.6" y="299.8" class="st14" width="9.2" height="1.7"/>
<rect x="467.6" y="302.3" class="st14" width="9.2" height="1.7"/>
<rect x="397.8" y="768.8" class="st14" width="1.7" height="9.2"/>
<rect x="400.6" y="768.8" class="st14" width="1.7" height="9.2"/>
<rect x="403.2" y="768.8" class="st14" width="1.7" height="9.2"/>
<rect x="406.1" y="768.8" class="st14" width="1.7" height="9.2"/>
<rect x="408.5" y="768.8" class="st14" width="1.7" height="9.2"/>
<rect x="411.5" y="768.8" class="st14" width="1.7" height="9.2"/>
<rect x="413.9" y="768.8" class="st14" width="1.7" height="9.2"/>
<rect x="384" y="768.8" class="st14" width="1.7" height="9.2"/>
<rect x="386.6" y="768.8" class="st14" width="1.7" height="9.2"/>
<rect x="389" y="768.8" class="st14" width="1.7" height="9.2"/>
<rect x="392.3" y="768.8" class="st14" width="1.7" height="9.2"/>
<rect x="394.9" y="768.8" class="st14" width="1.7" height="9.2"/>
<rect x="397.8" y="781.9" class="st14" width="1.7" height="9.2"/>
<rect x="400.6" y="781.9" class="st14" width="1.7" height="9.2"/>
<rect x="403.2" y="781.9" class="st14" width="1.7" height="9.2"/>
<rect x="406.1" y="781.9" class="st14" width="1.7" height="9.2"/>
<rect x="408.5" y="781.9" class="st14" width="1.7" height="9.2"/>
<rect x="411.5" y="781.9" class="st14" width="1.7" height="9.2"/>
<rect x="413.9" y="781.9" class="st14" width="1.7" height="9.2"/>
<rect x="384" y="781.9" class="st14" width="1.7" height="9.2"/>
<rect x="386.6" y="781.9" class="st14" width="1.7" height="9.2"/>
<rect x="389" y="781.9" class="st14" width="1.7" height="9.2"/>
<rect x="392.3" y="781.9" class="st14" width="1.7" height="9.2"/>
<rect x="394.9" y="781.9" class="st14" width="1.7" height="9.2"/>
</svg>
