<?xml version="1.0" encoding="utf-8"?>
<!-- Generator: Adobe Illustrator 19.1.0, SVG Export Plug-In . SVG Version: 6.00 Build 0)  -->
<svg version="1.1" id="Layer_1" xmlns="http://www.w3.org/2000/svg" xmlns:xlink="http://www.w3.org/1999/xlink" x="0px" y="0px"
	 viewBox="0 0 864 1080" style="enable-background:new 0 0 864 1080;" xml:space="preserve">
<style type="text/css">
	.st0{opacity:0.6;fill:#4B6DB4;enable-background:new    ;}
	.st1{opacity:0.5;}
	.st2{fill:#989898;}
	.st3{font-family:'ArialMT';}
	.st4{font-size:15.8166px;}
	.st5{fill:#FFFFFF;}
	.st6{font-size:50.6131px;}
	.st7{fill:#CDCCCC;}
	.st8{fill:#3A65B0;}
	.st9{fill:#989798;}
	.st10{font-size:11.388px;}
	.st11{fill:#4C6EB5;}
	.st12{fill:#4B6DB4;}
	.st13{font-family:'MyriadPro-Regular';}
	.st14{font-size:14.3525px;}
</style>
<rect x="242.5" y="499.4" class="st0" width="9.2" height="1.7"/>
<rect x="229.7" y="499.4" class="st0" width="9.2" height="1.7"/>
<g>
	<rect x="242.5" y="483.5" class="st0" width="9.2" height="1.7"/>
	<rect x="242.5" y="486.3" class="st0" width="9.2" height="1.7"/>
	<rect x="242.5" y="488.9" class="st0" width="9.2" height="1.7"/>
	<rect x="242.5" y="491.5" class="st0" width="9.2" height="1.7"/>
	<rect x="242.5" y="494.1" class="st0" width="9.2" height="1.7"/>
	<rect x="242.5" y="497" class="st0" width="9.2" height="1.7"/>
	<rect x="242.5" y="469.6" class="st0" width="9.2" height="1.7"/>
	<rect x="242.5" y="472" class="st0" width="9.2" height="1.7"/>
	<rect x="242.5" y="475.1" class="st0" width="9.2" height="1.7"/>
	<rect x="242.5" y="477.7" class="st0" width="9.2" height="1.7"/>
	<rect x="242.5" y="480.1" class="st0" width="9.2" height="1.7"/>
	<rect x="229.7" y="483.5" class="st0" width="9.2" height="1.7"/>
	<rect x="229.7" y="486.3" class="st0" width="9.2" height="1.7"/>
	<rect x="229.7" y="488.9" class="st0" width="9.2" height="1.7"/>
	<rect x="229.7" y="491.5" class="st0" width="9.2" height="1.7"/>
	<rect x="229.7" y="494.1" class="st0" width="9.2" height="1.7"/>
	<rect x="229.7" y="497" class="st0" width="9.2" height="1.7"/>
	<rect x="229.7" y="469.6" class="st0" width="9.2" height="1.7"/>
	<rect x="229.7" y="472" class="st0" width="9.2" height="1.7"/>
	<rect x="229.7" y="475.1" class="st0" width="9.2" height="1.7"/>
	<rect x="229.7" y="477.7" class="st0" width="9.2" height="1.7"/>
	<rect x="229.7" y="480.1" class="st0" width="9.2" height="1.7"/>
</g>
<g>
	<rect x="369.1" y="799.7" class="st0" width="1.7" height="9.2"/>
	<rect x="371.9" y="799.7" class="st0" width="1.7" height="9.2"/>
	<rect x="374.5" y="799.7" class="st0" width="1.7" height="9.2"/>
	<rect x="376.9" y="799.7" class="st0" width="1.7" height="9.2"/>
	<rect x="379.5" y="799.7" class="st0" width="1.7" height="9.2"/>
	<rect x="382.4" y="799.7" class="st0" width="1.7" height="9.2"/>
	<rect x="355.1" y="799.7" class="st0" width="1.7" height="9.2"/>
	<rect x="357.6" y="799.7" class="st0" width="1.7" height="9.2"/>
	<rect x="360.7" y="799.7" class="st0" width="1.7" height="9.2"/>
	<rect x="363.3" y="799.7" class="st0" width="1.7" height="9.2"/>
	<rect x="365.7" y="799.7" class="st0" width="1.7" height="9.2"/>
	<rect x="369.1" y="812.5" class="st0" width="1.7" height="9.2"/>
	<rect x="371.9" y="812.5" class="st0" width="1.7" height="9.2"/>
	<rect x="374.5" y="812.5" class="st0" width="1.7" height="9.2"/>
	<rect x="376.9" y="812.5" class="st0" width="1.7" height="9.2"/>
	<rect x="379.5" y="812.5" class="st0" width="1.7" height="9.2"/>
	<rect x="382.4" y="812.5" class="st0" width="1.7" height="9.2"/>
	<rect x="355.1" y="812.5" class="st0" width="1.7" height="9.2"/>
	<rect x="357.6" y="812.5" class="st0" width="1.7" height="9.2"/>
	<rect x="360.7" y="812.5" class="st0" width="1.7" height="9.2"/>
	<rect x="363.3" y="812.5" class="st0" width="1.7" height="9.2"/>
	<rect x="365.7" y="812.5" class="st0" width="1.7" height="9.2"/>
</g>
<rect x="630.7" y="483.5" class="st0" width="9.2" height="1.7"/>
<rect x="630.7" y="486.3" class="st0" width="9.2" height="1.7"/>
<rect x="630.7" y="488.9" class="st0" width="9.2" height="1.7"/>
<rect x="630.7" y="491.5" class="st0" width="9.2" height="1.7"/>
<rect x="630.7" y="494.1" class="st0" width="9.2" height="1.7"/>
<rect x="630.7" y="497" class="st0" width="9.2" height="1.7"/>
<rect x="630.7" y="499.4" class="st0" width="9.2" height="1.7"/>
<rect x="630.7" y="469.6" class="st0" width="9.2" height="1.7"/>
<rect x="630.7" y="472" class="st0" width="9.2" height="1.7"/>
<rect x="630.7" y="475.1" class="st0" width="9.2" height="1.7"/>
<rect x="630.7" y="477.7" class="st0" width="9.2" height="1.7"/>
<rect x="630.7" y="480.1" class="st0" width="9.2" height="1.7"/>
<rect x="617.9" y="483.5" class="st0" width="9.2" height="1.7"/>
<rect x="617.9" y="486.3" class="st0" width="9.2" height="1.7"/>
<rect x="617.9" y="488.9" class="st0" width="9.2" height="1.7"/>
<rect x="617.9" y="491.5" class="st0" width="9.2" height="1.7"/>
<rect x="617.9" y="494.1" class="st0" width="9.2" height="1.7"/>
<rect x="617.9" y="497" class="st0" width="9.2" height="1.7"/>
<rect x="617.9" y="499.4" class="st0" width="9.2" height="1.7"/>
<rect x="617.9" y="469.6" class="st0" width="9.2" height="1.7"/>
<rect x="617.9" y="472" class="st0" width="9.2" height="1.7"/>
<rect x="617.9" y="475.1" class="st0" width="9.2" height="1.7"/>
<rect x="617.9" y="477.7" class="st0" width="9.2" height="1.7"/>
<rect x="617.9" y="480.1" class="st0" width="9.2" height="1.7"/>
<rect x="421" y="483.5" class="st0" width="9.2" height="1.7"/>
<rect x="421" y="486.3" class="st0" width="9.2" height="1.7"/>
<rect x="421" y="488.9" class="st0" width="9.2" height="1.7"/>
<rect x="421" y="491.5" class="st0" width="9.2" height="1.7"/>
<rect x="421" y="494.1" class="st0" width="9.2" height="1.7"/>
<rect x="421" y="497" class="st0" width="9.2" height="1.7"/>
<rect x="421" y="469.6" class="st0" width="9.2" height="1.7"/>
<rect x="421" y="472" class="st0" width="9.2" height="1.7"/>
<rect x="421" y="475.1" class="st0" width="9.2" height="1.7"/>
<rect x="421" y="477.7" class="st0" width="9.2" height="1.7"/>
<rect x="421" y="480.1" class="st0" width="9.2" height="1.7"/>
<rect x="408.2" y="483.5" class="st0" width="9.2" height="1.7"/>
<rect x="408.2" y="486.3" class="st0" width="9.2" height="1.7"/>
<rect x="408.2" y="488.9" class="st0" width="9.2" height="1.7"/>
<rect x="408.2" y="491.5" class="st0" width="9.2" height="1.7"/>
<rect x="408.2" y="494.1" class="st0" width="9.2" height="1.7"/>
<rect x="408.2" y="497" class="st0" width="9.2" height="1.7"/>
<rect x="408.2" y="469.6" class="st0" width="9.2" height="1.7"/>
<rect x="408.2" y="472" class="st0" width="9.2" height="1.7"/>
<rect x="408.2" y="475.1" class="st0" width="9.2" height="1.7"/>
<rect x="408.2" y="477.7" class="st0" width="9.2" height="1.7"/>
<rect x="408.2" y="480.1" class="st0" width="9.2" height="1.7"/>
<g class="st1">
	<g>
		<text transform="matrix(1 0 0 1 202.6702 200.8499)" class="st2 st3 st4">Level </text>
	</g>
	<circle class="st2" cx="266.2" cy="198.2" r="26.8"/>
	<text transform="matrix(1 0 0 1 252.7145 218.2646)" class="st5 st3 st6">1</text>
</g>
<path class="st7" d="M607.9,824c0-0.2,0.2-0.5,0.5-0.5h2.2l0.2-0.5l0.2-0.5c0,0,0-0.2,0.2-0.2l0.5-0.2h0.2h0.5c0,0,0,0,0.2,0h0.5
	h0.2l0.5,0.2l0,0l0.2,0.5v0.2v0.2h10.7v-8.5c0-0.2,0.2-0.5,0.2-0.5v-4c-0.2,0-0.2-0.2-0.2-0.5v-32.5h-14c0,0.2-0.2,0.5-0.5,0.5h-3.6
	v38.2c0,0.2-0.2,0.5-0.5,0.5h-5v6.7h1.9c0.2,0,0.5,0.2,0.5,0.5v0.2L607.9,824L607.9,824L607.9,824z"/>
<path class="st7" d="M481.1,891.6h0.5h8.3v-24.4h-19.7c-0.2,0-0.5-0.2-0.5-0.5V865l0,0v0.5l0,0l-0.5,1.2l0,0l-0.5,0.7l0,0l-0.7,0.7
	l0,0l-0.7,0.5l0,0l-1.2,0.5l0,0l-1.2,0.2l0,0l0,0l0,0l0,0l0,0l0,0l0,0l0,0l0,0l0,0l0,0l0,0l0,0l0,0l0,0l0,0l0,0l0,0l0,0
	c0,0,0,0-0.2,0l0,0l0,0l0,0l0,0l0,0l0,0l0,0l0,0l0,0l0,0l0,0l0,0l0,0l0,0l0,0l0,0l0,0l0,0V865H464v26.8h6.7h2.2L481.1,891.6
	L481.1,891.6z"/>
<polygon class="st7" points="588,405.6 587.5,405.6 587.5,428.1 593.7,428.1 593.7,405.6 588.9,405.6 "/>
<path class="st7" d="M446.7,891.6h7.4h0.5h7.4v-22.1l-1.2-0.2l0,0l-1.2-0.5l0,0l-0.7-0.5l0,0l-0.7-0.7l0,0l-0.5-0.7l0,0l-0.5-1.2
	l0,0v-0.5V865h-20.4v26.8h2.2L446.7,891.6L446.7,891.6L446.7,891.6z"/>
<path class="st7" d="M559.5,891.6h0.5h7.3v-5.9h-0.7c0,0,0,0-0.2,0l-1.2-0.5l0,0l-0.7-0.5l0,0l-0.7-0.7l0,0l-0.5-0.7l0,0l-0.5-1.2
	l0,0v-0.5v-0.7l0,0l0,0l0,0l0,0v-0.2l0,0l0,0l0,0l0,0l0,0l0,0l0,0l0,0l0,0l0,0l0,0l0,0l0,0l0,0l0,0l0,0l0,0l0,0l0,0l0,0
	c0,0,0,0,0.2,0l0,0l0,0l0,0l0,0l0,0l0,0l0,0c0,0,0,0,0.2,0l0,0l0,0l0,0l0,0l0,0l0,0l0,0h4.3v-11.6h-23v23.5h7.4h0.5L559.5,891.6
	L559.5,891.6z"/>
<polygon class="st7" points="584.2,428.3 584.2,429 583.5,428.3 584.2,427.4 584.2,428.1 587.1,428.1 587.1,405.6 580.7,405.6 
	580.7,450.9 587.1,450.9 587.1,428.3 "/>
<path class="st7" d="M404.5,648.2v5h0.7l0,0l1.2,0.5l0,0l1.2,0.5l1.2,0.7l0,0l0.7,0.7l0,0l0.5,1.2l0.5,1.6c0,0,0,0,0,0.2v1.6v0.2
	l0,0l0,0c0,0,0,0,0,0.2l0,0l0,0l0,0l-0.2,0.2l0,0l0,0l0,0l0,0l0,0h-5.4v4.8h28.5v-6.7v-9.7h-28.5v-0.9L404.5,648.2L404.5,648.2z"/>
<path class="st8" d="M505.8,405.6h-2.2h-7.4h-0.5h-7.4h-0.5h-7.4h-0.5h-7.4H472v45.1h8.3c0.2,0,0.5,0.2,0.5,0.5v0.5h4.8v-0.5
	c0-0.2,0.2-0.5,0.5-0.5h28c0.2,0,0.5,0.2,0.5,0.5v0.5h4.8v-0.5c0-0.2,0.2-0.5,0.5-0.5h1.7v-45.1h-6.7h-0.5H505.8z"/>
<path class="st7" d="M534.3,891.6h0.5h7.4h0.2v-26.8h-12.3v0.7l0,0l-0.5,1.2l0,0l-0.5,1.2l0,0l-0.7,0.7l0,0l-0.7,0.5l0,0l-1.2,0.5
	l0,0l-1.2,0.2l0,0l0,0l0,0l0,0c0,0,0,0-0.2,0l0,0l0,0l0,0l0,0l0,0l0,0l0,0l0,0l0,0l0,0l0,0l0,0l0,0c0,0,0,0,0-0.2l0,0l0,0l0,0l0,0
	l0,0l0,0l0,0l0,0l0,0l0,0l0,0l0,0l0,0l0,0l0,0l0,0l0,0l0,0l0,0l0,0l0,0l0,0l0,0l0,0l0,0l0,0v-4.3h-5v26.8h6.7h0.5L534.3,891.6
	L534.3,891.6z"/>
<path class="st7" d="M404.5,685.5v4.8h0.7l0,0l1.2,0.5l0,0l1.2,0.5l1.2,0.7l0,0l0.7,0.7l0,0l0.5,1.2l0.5,1.6c0,0,0,0,0,0.2v1.6v0.2
	v0.2l0,0l0,0l0,0l0,0c0,0,0,0-0.2,0h-0.2h-5.4v4.8h28.5v-7.4v-9.2h-28.3v-0.2h-0.3L404.5,685.5L404.5,685.5z"/>
<path class="st7" d="M404.5,666.7v5h0.7l0,0l1.2,0.5l0,0l1.2,0.5l0,0l0.7,0.7l0,0l0.7,0.7l0,0l0.5,1.2l0.5,1.6c0,0,0,0,0,0.2v1.6
	v0.2v0.2l0,0l0,0l0,0c0,0-0.2,0-0.2,0.2l0,0l0,0l0,0l0,0l0,0h-5v4.8h28.5v-9.2v-7.3L404.5,666.7L404.5,666.7z"/>
<path class="st7" d="M290.7,777.7h-0.5h-7.9h-0.5h-7.1v45.6h7.4c0.2,0,0.5,0.2,0.5,0.5v0.5h4.8v-0.5c0-0.2,0.2-0.5,0.5-0.5h18.7
	v-45.6H300h-2.2H290.7z"/>
<path class="st7" d="M410.4,576.7v0.7l0,0l-0.5,1.2l0,0l-0.5,1.2l0,0l-0.7,0.7l0,0L408,581l0,0l-1.2,0.5l0,0l-1.2,0.2l0,0
	c0,0,0,0-0.2,0l0,0l0,0c0,0,0,0-0.2,0c0,0,0-0.2-0.2-0.2c0,0,0,0,0-0.2l0,0l0,0V577h-0.2v4.8h0.7l0,0l1.2,0.5l0,0l1.2,0.5l1.2,0.7
	l0,0l0.7,0.7l0,0l0.5,1.2l0.5,1.6c0,0,0,0,0,0.2v1.6v0.2l0,0c0,0,0,0,0,0.2l0,0l0,0l0,0l0,0l0,0c0,0,0,0-0.2,0.2c0,0,0,0-0.2,0H405
	v4.8h28.5v-6.7V578L410.4,576.7L410.4,576.7z"/>
<path class="st7" d="M258.1,777.7h-0.5h-6h-0.7H245h-0.5h-6h-5.7v45.6h28.8c0.2,0,0.5,0.2,0.5,0.5v0.5h4.8v-0.5
	c0-0.2,0.2-0.5,0.5-0.5h6.6v-45.6h-7.3h-2.4H258.1z"/>
<path class="st7" d="M404.5,630.6v5h0.7l0,0l1.2,0.5l0,0l1.2,0.5l0,0l0.7,0.7l0.7,0.7l0,0l0.5,1.2l0.5,1.6c0,0,0,0,0,0.2v1.6v0.2
	l0,0c0,0,0,0,0,0.2l0,0l0,0l0,0c0,0,0,0-0.2,0.2c0,0,0,0-0.2,0h-5.4v4.8h28.5v-9.2v-7.4L404.5,630.6L404.5,630.6L404.5,630.6z"/>
<path class="st7" d="M567.6,783.4v-5.7h-23v46h11.2V823l0,0l0.5-1.2l0,0l0.5-1.2l0,0l0.7-0.7l1.2-0.7l0,0l1.2-0.5l0,0l1.2-0.5l0,0
	l1.2-0.2l0,0l0,0l0,0l0,0l0,0l0,0l0,0l0,0h0.2l0,0l0,0l0,0l0,0l0,0l0,0l0,0l0,0l0,0l0,0l0,0l0,0l0,0l0,0l0,0l0,0l0,0l0,0
	c0,0,0,0,0,0.2l0,0l0,0l0,0l0,0l0,0l0,0v5.4h5.4v-35.1c0-0.2,0.2-0.5,0.2-0.5L567.6,783.4C567.6,784,567.6,783.6,567.6,783.4z"/>
<path class="st7" d="M404.5,594.6v5h0.7l0,0l1.2,0.5l0,0l1.2,0.5l0,0l0.7,0.7l0.7,0.7l0,0l0.5,1.2l0.5,1.6c0,0,0,0,0,0.2v1.6v0.2
	v0.2l0,0l0,0l0,0l0,0l0,0l0,0l0,0h-0.2h-5v4.8h28.5v-9.2v-7.3L404.5,594.6L404.5,594.6z"/>
<path class="st7" d="M404.5,612.6v5h0.7l0,0l1.2,0.5l0,0l1.2,0.5l1.2,0.7l0,0l0.7,0.7l0,0l0.5,1.2l0.5,1.6c0,0,0,0,0,0.2v1.2v0.2
	l0,0l0,0l0,0l0,0c0,0,0,0,0,0.2l0,0l0,0l0,0c0,0-0.2,0-0.2,0.2l0,0l0,0l0,0l0,0l0,0l0,0l0,0l0,0l0,0h-5.4v4.8h28.5v-6.7v-9.5h-28.5
	v-0.9L404.5,612.6L404.5,612.6L404.5,612.6z"/>
<path class="st7" d="M625.1,815.1v8.5h10.7c0.2,0,0.5,0.2,0.5,0.5v0.2h4.8v-0.2c0-0.2,0.2-0.5,0.5-0.5h1.7v-19.9H631
	c-0.2,0-0.2,0-0.5-0.2h-4.8c0,0.2-0.2,0.2-0.5,0.2h-0.5v6.6c0,0.2-0.2,0.5-0.2,0.5v4C625,814.9,625.1,814.9,625.1,815.1z"/>
<path class="st7" d="M631.2,777.7h-5.7v24.5h0.2v-5.4l0,0l0,0l0,0l0,0l0,0l0,0l0,0l0,0l0,0l0,0l0,0l0,0l0,0l0,0l0,0l0,0l0,0
	c0,0,0-0.2,0.2-0.2l0,0l0,0l0,0l0,0l0,0l0,0l0,0l0,0c0,0,0,0,0.2,0l0,0l0,0l0,0l0,0h0.2l0,0l1.6,0.2l0,0l1.2,0.5l0,0l1.2,0.5
	l1.2,0.7l0,0l0.7,0.7l0.5,1.2l0,0l0.5,1.2l0,0v0.7h11.4v-24.5h-5.7h-6.6L631.2,777.7L631.2,777.7z"/>
<path class="st7" d="M482.8,777.7h-2.2h-5.7v45.6h7.9c0.2,0,0.5,0.2,0.5,0.5v0.5h4.8v-0.5c0-0.2,0.2-0.5,0.5-0.5h9.5v-45.6h-6.7
	h-0.5H482.8z"/>
<path class="st7" d="M404.5,703.3v5h0.7c0,0,0,0,0.2,0l1.2,0.5l1.2,0.5l0,0l0.7,0.7l0,0l0.7,0.7l0,0l0.5,1.2l0.5,1.6c0,0,0,0,0,0.2
	v1.2v0.2l0,0l0,0l0,0l0,0v0.2l0,0l0,0l0,0l0,0l0,0l0,0l0,0l0,0l0,0l0,0H410h-5.4v4.8h28.5v-9.2v-7.3L404.5,703.3L404.5,703.3z"/>
<path class="st7" d="M445.5,777.7h-0.3h-6h-2.6v45.6h1.6c0.2,0,0.5,0.2,0.5,0.5v0.5h4.8v-0.5c0-0.2,0.2-0.5,0.5-0.5h14V801h-4
	c-0.2,0-0.5-0.2-0.5-0.5v-23H453h-0.5L445.5,777.7L445.5,777.7L445.5,777.7z"/>
<path class="st7" d="M433,756.8h-25.9v4.1h5.4c0.2,0,0.5,0.2,0.5,0.5v4.8c0,0.2-0.2,0.5-0.5,0.5l0,0v4.8l0,0c0.2,0,0.5,0.2,0.5,0.5
	v1.2h20.2l0,0v-6.6L433,756.8L433,756.8z"/>
<path class="st7" d="M433,720.9h-28.5v23.5h0.7l0,0l1.2,0.5l0,0l1.2,0.5l0,0l0.7,0.7l0,0l0.7,0.7l0,0l0.5,1.2l0.5,1.6c0,0,0,0,0,0.2
	v1.2v0.2l0,0l0,0l0,0l0,0v0.2l0,0l0,0l0,0l0,0l0,0l0,0l0,0l0,0l0,0l0,0h-0.2h-5v4.7h28.5v-9.2v-15.4L433,720.9L433,720.9z"/>
<path class="st7" d="M460.7,777.7h-2.2h-4.3v22.1h4c0.2,0,0.5,0.2,0.5,0.5v23h1.6v-5l0,0c0,0,0,0,0-0.2s0-0.2,0-0.2l0,0
	c0,0,0,0,0.2,0l0,0h0.2l0,0l1.2,0.2l0,0l1.2,0.5l0,0l1.2,0.5l1.2,0.7l0,0l0.7,0.7l0,0l0.5,1.2l0.5,1.6c0,0,0,0,0,0.2v0.7h6.6v-45.6
	h-5h-0.5L460.7,777.7L460.7,777.7z"/>
<path class="st7" d="M573.5,783.3L573.5,783.3L573.5,783.3L573.5,783.3L573.5,783.3L573.5,783.3
	C573.5,783.3,573.7,783.3,573.5,783.3L573.5,783.3L573.5,783.3L573.5,783.3L573.5,783.3L573.5,783.3L573.5,783.3L573.5,783.3
	L573.5,783.3L573.5,783.3L573.5,783.3L573.5,783.3L573.5,783.3C573.7,783.4,573.7,783.4,573.5,783.3L573.5,783.3L573.5,783.3
	L573.5,783.3L573.5,783.3L573.5,783.3L573.5,783.3L573.5,783.3L573.5,783.3L573.5,783.3L573.5,783.3L573.5,783.3L573.5,783.3
	L573.5,783.3L573.5,783.3L573.5,783.3L573.5,783.3L573.5,783.3L573.5,783.3v1.6l0,0l-0.5,1.2l0,0l-0.5,1.2l0,0l-0.7,0.7l0,0
	l-1.2,0.5l0,0l-1.2,0.5l0,0h-0.7v24.5h0.2v-5.4l0,0l0,0c0,0,0,0,0-0.2l0,0c0,0,0,0,0-0.2l0,0l0,0l0,0l0,0l0,0l0,0l0,0c0,0,0,0,0.2,0
	l0,0l0,0c0,0,0,0,0.2,0l0,0l0,0l0,0h1.6l0,0l1.2,0.5l0,0l1.2,0.5l1.2,0.7l0,0l0.7,0.7l0.5,1.2l0,0l0.5,1.2l0,0v0.7h10.7v-35.4h-0.7
	c-0.2,0-0.5-0.2-0.5-0.5h-16.4v5.4L573.5,783.3L573.5,783.3z"/>
<path class="st7" d="M244.2,427.4l-1.2-0.5l0,0l-1.2-0.5l0,0l-0.7-0.7l-0.7-1.2l0,0l-0.5-1.2l0,0l-0.5-1.2l0,0l-0.2-1.6l0,0l0,0l0,0
	c0,0,0,0,0-0.2l0,0l0,0l0,0l0,0c0,0,0,0,0.2,0s0,0,0.2,0l0,0h5.4v-0.2h-12.3v14H245v-7.4L244.2,427.4L244.2,427.4z"/>
<path class="st7" d="M253.9,444l1.2,0.5l0,0l1.2,0.5l0,0l0.7,0.7l0,0l0.7,0.7l0,0l0.5,1.2l0,0l0.5,1.2l0,0l0.2,1.6l0,0l0,0l0,0
	c0,0,0,0,0,0.2v0.2l0,0l0,0l0,0c0,0,0,0-0.2,0.2l0,0l0,0l0,0l0,0l0,0l0,0l0,0h-5.4v0.5h11.2V437h-11.2v7.9L253.9,444L253.9,444z"/>
<path class="st7" d="M253.9,428.4l1.2,0.5l0,0l1.2,0.5l1.2,0.7l0,0l0.7,0.7l0,0l0.5,1.2l0,0l0.5,1.2l0,0l0.2,1.6l0,0l0,0l0,0
	c0,0,0,0.2-0.2,0.2l0,0l0,0l0,0l0,0l0,0H259l0,0l0,0l0,0h-5.4v0.2h10.7v-13.8h-11.2v7.3L253.9,428.4L253.9,428.4z"/>
<path class="st7" d="M244.2,443.1l-1.2-0.5l0,0l-1.2-0.5l0,0l-0.7-0.7l-0.7-1.2l0,0l-0.5-1.2l0,0l-0.5-1.2l0,0l-0.2-1.6l0,0l0,0l0,0
	c0,0,0,0,0-0.2l0,0l0,0c0,0,0-0.2,0.2-0.2l0,0l0,0l0,0l0,0l0,0h0.2l0,0h5.4v-0.5h-12.3v14.5H245v-7.4L244.2,443.1L244.2,443.1z"/>
<path class="st7" d="M385,420.3v-15.4h-0.5c-0.2,0-0.5-0.2-0.5-0.5v-0.2h-3.6v46h3.6v-0.5c0-0.2,0.2-0.5,0.5-0.5h0.5v-23.8
	c0-0.2,0.2-0.5,0.5-0.5h0.5v-4.8h-0.5C385,421.2,385,421,385,420.3z"/>
<path class="st7" d="M380.7,871.5L380.7,871.5L380.7,871.5L380.7,871.5L380.7,871.5L380.7,871.5L380.7,871.5L380.7,871.5
	L380.7,871.5L380.7,871.5L380.7,871.5L380.7,871.5l0.2-1.6l0,0l0.5-1.2l0,0l0.5-1.2l0,0l0.7-0.7l0,0l0.7-0.7l1.2-0.5l0,0l1.2-0.5
	l0,0h0.7v-15h-30.1V871h24C380.7,871.7,380.7,871.7,380.7,871.5L380.7,871.5z"/>
<path class="st7" d="M284.3,421.5h-0.7c-0.2,0-0.2,0-0.5-0.2h-5c0,0.2-0.2,0.2-0.5,0.2h-0.5v7.4c0,0.2,0,0.2-0.2,0.5v5
	c0.2,0,0.2,0.2,0.2,0.5v9.8c0,0.2,0,0.2-0.2,0.5v5c0.2,0,0.2,0.2,0.2,0.5v0.7v0.2v0.5h4.8v-0.5c0-0.2,0.2-0.5,0.5-0.5h1.7
	L284.3,421.5L284.3,421.5z"/>
<path class="st7" d="M277.6,419.6L277.6,419.6l0.5-1.6l0,0l0.5-1.2l0.7-1.2l0,0l0.7-0.7l0,0l1.2-0.5l0,0l1.2-0.5l0,0l1.6-0.2l0,0
	l0,0l0,0l0,0l0,0h0.2l0,0l0,0c0,0,0,0,0,0.2l0,0c0,0,0,0,0,0.2l0,0v5.4h0.5V405h-16.9v14.5L277.6,419.6L277.6,419.6L277.6,419.6z"/>
<path class="st7" d="M270.7,435C270.7,435,270.5,435,270.7,435L270.7,435C270.5,435,270.5,435,270.7,435
	C270.5,435,270.5,434.7,270.7,435L270.7,435L270.7,435L270.7,435c-0.2-0.2-0.2-0.2-0.2-0.5c0,0,0,0,0-0.2l0,0l0.2-1.6l0,0l0.5-1.2
	l0,0l0.5-1.2l0,0l0.7-0.7l0.7-0.7l0,0l1.2-0.5l0,0l1.2-0.5l0,0h0.7v-7.3H265v13.8h11.2l0,0h-5.5V435z"/>
<path class="st7" d="M508.7,891.6L508.7,891.6l0.2-0.5c0-0.2,0.2-0.5,0.5-0.5h1.7c0.2,0,0.5,0.2,0.5,0.5v0.5h7.4l0,0v-26.8h-1.9v4.3
	l0,0l0,0l0,0l0,0l0,0l0,0l0,0l0,0l0,0l0,0l0,0l0,0l0,0c0,0,0,0,0,0.2l0,0l0,0l0,0l0,0l0,0l0,0l0,0l0,0c0,0,0,0-0.2,0l0,0l0,0l0,0
	l0,0c0,0,0,0-0.2,0l0,0l0,0l-1.2-0.2l0,0l-1.2-0.5l0,0l-0.7-0.5l0,0l-0.7-0.7l0,0l-0.5-1.2l0,0l-0.2-0.5v0.5c0,0.2-0.2,0.5-0.5,0.5
	h-20v24.4h8.1h0.5L508.7,891.6L508.7,891.6z"/>
<path class="st7" d="M637.8,891.4h5.9v-46h-12.4c-0.2,0-0.5-0.2-0.5-0.5v-0.2H626v0.2c0,0.2-0.2,0.5-0.5,0.5v46h5.7h0.5H637.8z"/>
<path class="st7" d="M434.1,773.6c0,0.2-0.2,0.5-0.5,0.5h-20.9c-0.2,0-0.5-0.2-0.5-0.5v-1.2l0,0v1.2c0,0.2-0.2,0.5-0.5,0.5h-0.5v0.5
	H433c0.2,0,0.5,0.2,0.5,0.5l0,0h0.2c0.2,0,0.5,0.2,0.5,0.5V791c0,0.2-0.2,0.5-0.5,0.5h-30.1c-0.2,0-0.5-0.2-0.5-0.5v-16
	c0-0.2,0.2-0.5,0.5-0.5h0.7v-0.2H404c-0.2,0-0.5-0.2-0.5-0.5V769h-1.2v19.3c0,0.2-0.2,0.5-0.5,0.5h-1.2v1.2h1.7
	c0.2,0,0.5,0.2,0.5,0.5v12.6h1.2v-11.2c0-0.2,0.2-0.5,0.5-0.5h6.6c0.2,0,0.5,0.2,0.5,0.2h0.5c0-0.2,0.2-0.2,0.5-0.2H432
	c0.2,0,0.5,0.2,0.5,0.5v17.3c0,0.2-0.2,0.5-0.5,0.5h-19.5c-0.2,0-0.5-0.2-0.5-0.5V798h-0.5v11.2c0,0.2-0.2,0.5-0.5,0.5h-6.7
	c-0.2,0-0.5-0.2-0.5-0.5h-1.2v1.7h1.2l0,0c0-0.2,0.2-0.5,0.5-0.5h4.7c0.2,0,0.5,0.2,0.5,0.5v4.3c0,0.2-0.2,0.5-0.5,0.5h-4.7
	c-0.2,0-0.5-0.2-0.5-0.5h-1.2v1.6h6.6c0.2,0,0.5,0.2,0.5,0.5v8.1h5.9v-1.6H413c-0.2,0-0.5-0.2-0.5-0.5v-1.6c0-0.2,0.2-0.5,0.5-0.5
	h2.2H413c-0.2,0-0.5-0.2-0.5-0.5v-10.2c0-0.2,0.2-0.5,0.5-0.5h8.5c0.2,0,0.5,0.2,0.5,0.5v14h14.7v-1.2h-1.6c-0.2,0-0.5-0.2-0.5-0.5
	v-46.1c0-0.2,0.2-0.5,0.5-0.5h2.6v-1.6h-2.6c-0.2,0-0.5-0.2-0.5-0.5v-2.2H433L434.1,773.6L434.1,773.6z"/>
<path class="st7" d="M270.7,450.4C270.7,450.4,270.5,450.4,270.7,450.4L270.7,450.4C270.5,450.4,270.5,450.4,270.7,450.4
	L270.7,450.4C270.5,450.4,270.5,450.4,270.7,450.4L270.7,450.4L270.7,450.4c-0.2-0.2-0.2-0.5-0.5-0.5c0,0,0,0,0-0.2l0,0l0.2-1.6l0,0
	l0.5-1.2l0,0l0.5-1.2l0,0l0.7-0.7l0.7-0.7l0,0l1.2-0.5l0,0l1.2-0.5l0,0h0.7v-7.9h-11.6v14.5h11.2v-0.2h-4.8
	C270.7,449.5,270.7,450.4,270.7,450.4z"/>
<path class="st7" d="M370.7,895.6h6h2.2h7.3v-16.2h-0.7l0,0l-1.2-0.5l0,0l-1.2-0.5l-1.2-0.7l0,0l-0.7-0.7l0,0l-0.5-1.2l-0.5-1.6
	c0,0,0,0,0-0.2v-1.6l0,0l0,0l0,0l0,0l0,0l0,0l0,0l0,0l0,0l0,0l0,0l0,0l0,0l0,0l0,0l0,0l0,0l0,0l0,0l0,0l0,0l0,0h-23.8v22.3h7.3h6
	L370.7,895.6L370.7,895.6z"/>
<path class="st7" d="M323.7,891.6h8.5h0.5V846h-7.9c-0.2,0-0.5-0.2-0.5-0.5v-0.7h-5v0.5c0,0.2-0.2,0.5-0.5,0.5h-4.1v1.9
	c0,0.2-0.2,0.5-0.5,0.5h-0.5v43h0.2h8.5h1.2v0.2L323.7,891.6L323.7,891.6z"/>
<path class="st7" d="M350.6,891.6h2.6V846h-1.7c-0.2,0-0.5-0.2-0.5-0.5v-0.7h-4.8v0.5c0,0.2-0.2,0.5-0.5,0.5h-10.9v45.6h6.6h0.5
	L350.6,891.6L350.6,891.6z"/>
<path class="st7" d="M412,559v0.7l0,0l-0.5,1.2l0,0l-0.5,0.7l0,0l-0.7,0.7l0,0l-1.2,0.5l0,0l-1.2,0.5l0,0l-1.2,0.2l0,0l0,0
	c0,0,0,0-0.2,0c0,0,0,0-0.2,0l0,0l0,0c0,0,0,0-0.2-0.2l0,0l0,0c0,0,0,0,0-0.2l0,0l0,0l0,0v-4.3h-1.7v5h0.7l0,0l1.2,0.5l0,0l1.2,0.5
	l0,0l0.7,0.7l0,0l0.7,0.7l0,0l0.5,1.2l0.5,1.6c0,0,0,0,0,0.2v1.6v0.2c0,0,0,0,0,0.2l0,0l0,0l0,0l0,0l0,0c0,0,0,0-0.2,0h-0.2h-5.9
	v4.8h0.7c0.2,0,0.5,0.2,0.5,0.5h4.1c0-0.2,0.2-0.5,0.5-0.5H433v-9.2v-7.3L412,559L412,559z"/>
<path class="st7" d="M248.6,891.4h8.5h0.5h8.5h0.7h8.5h2.2h8.1h0.5h8.1h0.5h8.1h0.5h7.9v-45.1h-5.7c-0.2,0-0.5-0.2-0.5-0.5v-0.7h-5
	v0.5c0,0.2-0.2,0.5-0.5,0.5h-38c-0.2,0-0.5-0.2-0.5-0.5v-0.5h-4.8v0.5c0,0.2-0.2,0.5-0.5,0.5h-22.9v45.1h6.6L248.6,891.4
	L248.6,891.4z"/>
<path class="st7" d="M347,437.1L347,437.1l0.5-1.6l0,0l0.5-1.2l0,0l0.7-0.7l0.7-0.7l0,0l1.2-0.5l0,0l1.2-0.5l0,0l1.6-0.2l0,0l0,0
	l0,0l0,0l0,0l0,0l0,0c0,0,0.2,0,0.2,0.2l0,0l0,0l0,0l0,0l0,0l0,0l0,0v0.2l0,0l0,0l0,0v5.4h1.7v-4.3c0-0.2,0.2-0.5,0.5-0.5h3.1
	c0.2,0,0.5,0.2,0.5,0.5v17.4H380v-45.1h-20.4v18c0,0.2-0.2,0.5-0.5,0.5H356c-0.2,0-0.5-0.2-0.5-0.5v-18H341v32h6V437.1z"/>
<path class="st7" d="M593.4,891.6h0.5h7.4h0.5h7.4h2.2h6h0.5h5.7v-46H589c-0.2,0-0.5-0.2-0.5-0.5v-0.2h-4.8v0.2
	c0,0.2-0.2,0.5-0.5,0.5h-15.4V857h0.7l0,0l1.2,0.5l0,0l0.7,0.5l0,0l0.7,0.7l0,0l0.5,0.7l0,0l0.5,1.2l0,0l0.2,1.2l0,0l0,0l0,0l0,0
	l0,0l0,0l0,0l0,0l0,0l0,0l0,0l0,0l0,0l0,0l0,0l0,0l0,0l0,0l0,0l0,0l0,0l0,0l0,0l0,0l0,0l0,0l0,0l0,0l0,0l0,0l0,0l0,0l0,0l0,0l0,0
	l0,0l0,0l0,0h-4.7v17.8c0,0.2,0,0.2-0.2,0.5v4.1c0.2,0,0.2,0.2,0.2,0.5v6.4h6.6v-0.5c0-0.2,0.2-0.5,0.5-0.5h2.2
	c0.2,0,0.5,0.2,0.5,0.5v0.5h7.3h0.5L593.4,891.6L593.4,891.6z"/>
<path class="st7" d="M528.6,846v-0.7h-4.8v0.5c0,0.2-0.2,0.5-0.5,0.5h-4.1v12.3h0.7l0,0l1.2,0.5l0,0l0.7,0.5l0,0l0.7,0.7l0,0
	l0.5,1.2l0,0l0.5,1.2l0,0l0.2,1.2l0,0l0,0l0,0l0,0l0,0l0,0l0,0l0,0h1.2c0.2,0,0.5,0.2,0.5,0.2h4.1c0-0.2,0.2-0.2,0.5-0.2h12.4v-17.4
	h-13.1C528.8,846.5,528.6,846.3,528.6,846z"/>
<path class="st7" d="M567.6,857.7v-11.6h-5.9v0.7l0,0l-0.5,1.2l0,0l-0.5,1.2l0,0l-0.7,0.7l-0.7,0.7l0,0l-0.5,0.2l-0.5,0.2l0,0
	l-1.2,0.5l0,0l-1.6,0.2l0,0c0,0,0,0-0.2,0l0,0l0,0l0,0l0,0l0,0l0,0l0,0l0,0l0,0l0,0l0,0l0,0l0,0l0,0l0,0c0,0,0,0,0-0.2l0,0l0,0l0,0
	l0,0l0,0l0,0l0,0l0,0l0,0l0,0l0,0l0,0l0,0l0,0l0,0l0,0l0,0v-5.4h-10.2v21.4h23v-4.8c0-0.2,0.2-0.5,0.2-0.5v-4.3
	C567.6,857.9,567.6,857.9,567.6,857.7z"/>
<path class="st7" d="M586.8,815.4L586.8,815.4L586.8,815.4L586.8,815.4L586.8,815.4L586.8,815.4L586.8,815.4L586.8,815.4
	L586.8,815.4L586.8,815.4L586.8,815.4L586.8,815.4L586.8,815.4L586.8,815.4L586.8,815.4L586.8,815.4L586.8,815.4L586.8,815.4
	L586.8,815.4L586.8,815.4v1.6l0,0l-0.5,1.2l0,0l-0.5,1.2l-0.7,1.2l0,0l-0.7,0.7l-1.2,0.5l0,0l-1.2,0.5l0,0h-0.7v2.2h18v-8.1
	c0-0.2,0.2-0.5,0.5-0.5h5v-37.3h-17.3v37c0,0.2-0.2,0.5-0.5,0.5h-0.7L586.8,815.4L586.8,815.4z"/>
<path class="st7" d="M417.7,426.2V450h0.5c0.2,0,0.5,0.2,0.5,0.5v0.5h3.6v-46h-3.6v0.2c0,0.2-0.2,0.5-0.5,0.5h-0.5v15.5
	c0,0.2-0.2,0.5-0.5,0.5h-0.5v4.8h0.5C417.5,426,417.7,426.2,417.7,426.2z"/>
<path class="st7" d="M443.4,433.3c0-0.2,0.2-0.5,0.5-0.5h1.7c0.2,0,0.5,0.2,0.5,0.5v14.5h9.2v-9.5c0-0.2,0.2-0.5,0.5-0.5h2.2
	c0.2,0,0.5,0.2,0.5,0.5v0.2h9.2v-0.2c0-0.2,0.2-0.5,0.5-0.5h0.7v-32h-23v18.1c0,0.2-0.2,0.5-0.5,0.5h-1.7c-0.2,0-0.5-0.2-0.5-0.5
	v-18.1H423v45.1h20.4V433.3L443.4,433.3z"/>
<path class="st7" d="M425.6,850.8L425.6,850.8l-0.5,1.6l0,0l-0.5,1.2l-0.7,1.2l0,0l-0.7,0.7L422,856l0,0l-1.2,0.5l0,0h-1.6l0,0
	c0,0,0,0-0.2,0l0,0l0,0l0,0l0,0l0,0l0,0l0,0l0,0l0,0l0,0l0,0l0,0l0,0l0,0l0,0l0,0l0,0l0,0l0,0l0,0l0,0l0,0l0,0l0,0l0,0l0,0l0,0l0,0
	l0,0l0,0l0,0l0,0l0,0c0,0,0,0,0-0.2l0,0l0,0l0,0l0,0l0,0l0,0l0,0l0,0l0,0l0,0l0,0l0,0l0,0l0,0l0,0l0,0l0,0l0,0l0,0l0,0l0,0l0,0l0,0
	v-5.4h-7.9v12.6h0.7l0,0l1.2,0.5l0,0l0.7,0.5l0,0l0.7,0.7l0,0l0.5,1.2l0,0l0.5,1.2l0,0l0.2,1.2l0,0l0,0l0,0l0,0c0,0,0,0,0,0.2l0,0
	l0,0l0,0h16.9v-18h-7.4L425.6,850.8z"/>
<path class="st8" d="M445.3,197.1L445.3,197.1v1.6c0,0,0,0,0,0.2l-0.5,1.2l-0.5,1.2l0,0l-0.7,0.7l0,0l-0.7,0.7h-1.2l0,0h-0.2h0.2
	l1.2,0.5l0,0l0.7,0.7l0,0l0.7,0.7l0,0l0.5,1.2l0.5,1.6c0,0,0,0,0,0.2v1.2l0,0c0,0.2,0,0.2-0.2,0.5l0,0l0,0l0,0l0,0l0,0l0,0l0,0l0,0
	l0,0l0,0l0,0l0,0l0,0l0,0l0,0l0,0l0,0l0,0l0,0l0,0l0,0l0,0l0,0l0,0h-5.4v34h9.2c0.2,0,0.5,0.2,0.5,0.5v0.5h4.8v-0.5
	c0-0.2,0.2-0.5,0.5-0.5h4.8v-24c0-0.2,0.2-0.5,0.5-0.5h0.5v-21.6h-20.4v0.2L445.3,197.1C445.1,197,445.3,197,445.3,197.1z"/>
<path class="st7" d="M517.9,857v-11.2h-23v0.5h5.4l0,0l0,0l0,0l0,0l0,0l0,0c0,0,0,0,0.2,0l0,0l0,0l0,0l0,0l0,0l0,0l0,0l0,0l0,0l0,0
	l0,0l0,0l0,0l0,0l0,0l0,0c0,0,0,0,0,0.2l0,0l0,0l0,0l0,0l0,0l0,0l0,0l0,0l0,0l0,0l0,0l0,0l0,0l-0.2,1.2l0,0l-0.5,1.2l0,0l-0.5,1.2
	l-0.7,1.2l0,0l-0.7,0.7l0,0l-1.2,0.5l0,0l-1.2,0.5l0,0l0,0v4.1L517.9,857L517.9,857z"/>
<path class="st7" d="M419.4,895.6h6h7.3v-26.1h-17.3l0,0c0,0,0,0,0.2,0.2l0,0l0,0l0,0l0,0l0,0l0,0l0,0l0,0l0,0l0,0l0,0l0,0l0,0l0,0
	l0,0l0,0l0,0l0,0l0,0l0,0l0,0l0,0l0,0l0,0l0,0l0,0l0,0l0,0l0,0l0,0l0,0l0,0l0,0l0,0l0,0c0,0,0,0,0,0.2l0,0l0,0l0,0l0,0l0,0l0,0v1.2
	c0,0,0,0,0,0.2l-0.5,1.2l0,0l-0.2,0.5l0,0l-0.7,0.7l0,0l-0.7,0.5l0,0l-0.5,0.2l-0.5,0.2l0,0h-0.7v20.6h1.6L419.4,895.6L419.4,895.6
	L419.4,895.6z"/>
<path class="st7" d="M356.2,439.5h-3.1c-0.2,0-0.5-0.2-0.5-0.5v-0.2h-4.8v0.2c0,0.2-0.2,0.5-0.5,0.5h-7.4v8.3h3.5
	c0.2,0,0.5,0.2,0.5,0.5h4.8c0-0.2,0.2-0.5,0.5-0.5h7.4L356.2,439.5L356.2,439.5z"/>
<path class="st7" d="M486.3,853.1h-0.7l0,0l-1.2-0.5l0,0l-1.2-0.5l0,0l-0.7-0.7l-0.7-1.2l0,0l-0.5-1.2l0,0l-0.5-1.2l0,0l-0.2-1.2
	l0,0l0,0l0,0l0,0l0,0l0,0l0,0c0,0,0,0,0-0.2l0,0l0,0l0,0l0,0l0,0l0,0l0,0v-0.2l0,0l0,0l0,0l0,0l0,0l0,0l0,0l0,0l0,0l0,0l0,0l0,0l0,0
	l0,0l0,0l0,0c0,0,0,0,0.2,0l0,0l0,0l0,0l0,0l0,0l0,0l0,0h5.4v-0.5h-22.3v10.7h23L486.3,853.1L486.3,853.1z"/>
<path class="st8" d="M629.6,405.6h-7.4h-0.5h-7.4h-0.5h-8.1h-2.4h-7.4h-0.5h-1.7v45.1h2.2c0.2,0,0.5,0.2,0.5,0.5v0.5h4.8v-0.5
	c0-0.2,0.2-0.5,0.5-0.5h26.8c0.2,0,0.5,0.2,0.5,0.5v0.5h4.8v-0.5c0-0.2,0.2-0.5,0.5-0.5h8.5v-45.1h-5.9H629.6L629.6,405.6z"/>
<path class="st7" d="M449.1,862.4l0.5-1.2l0,0l0.5-0.7l0,0l0.7-0.7l0,0l0.7-0.5l0,0l1.2-0.5l0,0h0.7v-1.6c0-0.2,0.2-0.5,0.5-0.5h8.1
	V846h-9.2c-0.2,0-0.5-0.2-0.5-0.5v-0.9h-4.8v0.5c0,0.2-0.2,0.5-0.5,0.5h-11.2V863h12.6L449.1,862.4L449.1,862.4z"/>
<path class="st7" d="M517.9,858.8v-0.5H494c-0.2,0-0.5-0.2-0.5-0.5v-5.4c0-0.2,0-0.2,0.2-0.5v-4.7c-0.2,0-0.2-0.2-0.2-0.5V846H493
	c-0.2,0-0.5-0.2-0.5-0.5V845h-4.8v0.5c0,0.2-0.2,0.5-0.5,0.5h-0.5v0.7c0,0.2,0,0.2-0.2,0.5v4.8c0.2,0,0.2,0.2,0.2,0.5v5
	c0,0.2-0.2,0.5-0.5,0.5h-32.3v0.7c0,0.2,0,0.2-0.2,0.5v4.1c0.2,0,0.2,0.2,0.2,0.2h2.2c0.2,0,0.5,0.2,0.5,0.2h4.1
	c0-0.2,0.2-0.2,0.5-0.2h2.6c0.2,0,0.5,0.2,0.5,0.2h4.1c0-0.2,0.2-0.2,0.5-0.2h1.6c0.2,0,0.5,0.2,0.5,0.5v1.9h39.2v-1.7
	c0-0.2,0.2-0.5,0.5-0.5h1.2c0.2,0,0.5,0.2,0.5,0.2h4.1c0-0.2,0.2-0.2,0.5-0.2h1.7l0,0c0-0.2,0.2-0.5,0.2-0.5v-4.1
	C518.2,858.9,517.9,858.8,517.9,858.8z"/>
<path class="st7" d="M527.7,823.3v0.5h4.8v-0.5c0-0.2,0.2-0.5,0.5-0.5h8.3v-4.3c0-0.2,0.2-0.5,0.5-0.5h0.5v-40.6H516v0.5
	c0,0.2-0.2,0.5-0.5,0.5h-2.2c-0.2,0-0.5-0.2-0.5-0.5v-0.5h-14.5v45.1h28.5C527.4,822.8,527.7,823,527.7,823.3z"/>
<path class="st8" d="M378.3,312.5l0.5-0.5v0.5h9.2v0.2h-9.2v0.5L378.3,312.5v5.7h11.2c0,0,0.2,0,0.2,0.2l0.5,0.5l0.2,0.2v1.9h0.2
	v-15h-12.4L378.3,312.5L378.3,312.5z"/>
<path class="st8" d="M377.9,306.1H376v1.2l0,0l-0.5,1.6l0,0l-0.5,1.6l0,0l-0.7,1.2l0,0l-1.2,0.7l0,0l-1.6,0.5l-1.2,0.2l0,0h-1.6l0,0
	l0,0l0,0l0,0c0,0-0.2,0-0.2-0.2l0,0l0,0l0,0l0,0l0,0l0,0l0,0l0,0l0,0l0,0v-0.5l0,0l0,0l0,0V306h0.2v11.6v0.5h9.5L377.9,306.1
	L377.9,306.1z"/>
<path class="st8" d="M443.1,264.8H460v-18.7h-5v0.7l0,0l-0.5,1.2l-0.5,1.2l0,0l-0.7,0.7l-0.7,0.7l0,0l-1.2,0.5l-1.2,0.5l0,0
	l-1.2,0.2l0,0h-0.3l0,0l0,0l0,0l0,0l0,0l0,0l0,0l0,0l0,0l0,0c0,0,0,0-0.2-0.2l0,0l0,0l0,0v-0.2l0,0l0,0v-5h-0.2v17.4
	c0,0.2-0.2,0.5-0.5,0.5h-0.9h-4L443.1,264.8L443.1,264.8z"/>
<rect x="356.9" y="488.9" class="st7" width="28.5" height="13.1"/>
<path class="st7" d="M405.4,802.4l1.2,0.5l0,0l1.2,0.5l0,0l0.7,0.7l0,0l0.7,0.7l0,0l0.5,1.2l0.5,1.6c0,0,0,0,0,0.2v1.6l0,0h0.5
	v-11.2c0-0.2,0.2-0.5,0.5-0.5h1.6c0.2,0,0.5,0.2,0.5,0.5v11.2H432v-16.2h-19.3c0,0.2-0.2,0.2-0.5,0.2h-1.9c-0.2,0-0.5-0.2-0.5-0.2
	h-5.4v10.7L405.4,802.4L405.4,802.4z"/>
<path class="st8" d="M425.6,297.5h11.6l0.5-3.6l-1.7-7.4l0,0v-1.9l-1.2-6.4v-7.4l0,0l1.6-5.7v-1.2l0.7-7.4v-5c0-0.2,0.2-0.5,0.5-0.5
	h0.5v-4.8h-0.5c-0.2,0-0.5-0.2-0.5-0.5v-4.8l-0.7-9.8h-10.7L425.6,297.5L425.6,297.5z"/>
<path class="st7" d="M344.3,822.7L344.3,822.7l0.2-4.7h-0.2c-0.2,0-0.5-0.2-0.5-0.5V817h-9.5v6.6h5.7v-0.5c0-0.2,0.2-0.5,0.5-0.5
	h3.5C343.9,822.8,344.1,822.7,344.3,822.7z"/>
<path class="st8" d="M377.4,231.2h-10.7L366,241v15.4l0.7,7.4v1.6l1.6,5.7l0,0v7.4l-1.2,6.6v1.7l-0.2,2.2l1.6,8.8h9.2L377.4,231.2
	L377.4,231.2L377.4,231.2z"/>
<rect x="378.1" y="266.6" class="st8" width="46.8" height="4.8"/>
<rect x="378.1" y="260.9" class="st8" width="46.8" height="4.8"/>
<path class="st8" d="M404.5,306.1v5.4l0,0l0,0l0,0l0,0l0,0l0,0l0,0l0,0l0,0v0.2l0,0l0,0l0,0c0,0-0.2,0-0.2,0.2l0,0l0,0l0,0h-1.2l0,0
	l-1.2-0.5l0,0l-1.2-0.5l-1.2-0.7l0,0l-0.7-0.7l0,0l-0.5-1.2l0,0l-0.5-1.2l0,0v-0.7h-6.2v15h4c0.2,0,0.5,0.2,0.5,0.5v0.7h10.7v-0.7
	c0-0.2,0.2-0.5,0.5-0.5h1.7v-15L404.5,306.1L404.5,306.1z"/>
<polygon class="st8" points="427.7,308.4 428.4,309.1 428.9,310.5 430.1,311 431.1,311.7 432.4,312 433,312.2 433,306 433,304.9 
	427.2,304.9 427.2,306 427.2,306.8 "/>
<path class="st8" d="M395.6,303h2.6c0.2,0,0.5,0.2,0.5,0.5v0.7h4.8v-0.7c0-0.2,0.2-0.5,0.5-0.5h2.4v-7.3H401h-5.7L395.6,303
	L395.6,303z"/>
<path class="st8" d="M434.4,318.2v-0.5v-11.6h-0.2v6.4l0,0l0,0l0,0v0.2l0,0l0,0l0,0l0,0l0,0l0,0l0,0l0,0l0,0l-0.2,0.2l0,0l0,0l0,0
	l0,0l0,0l0,0l-1.6-0.2l0,0l-1.6-0.5l-1.6-0.5l0,0L428,311l0,0l-0.7-1.2l0,0l-0.5-1.6l-0.5-1.6l0,0v-1.2h-1.2v11.9L434.4,318.2
	L434.4,318.2z"/>
<path class="st8" d="M411.5,318.9C411.5,318.7,411.5,318.7,411.5,318.9l0.7-0.7l0,0l0,0l0,0l0,0l0,0l0,0l0,0l0,0c0,0,0,0,0.2,0l0,0
	l0,0c0,0,0,0,0.2,0l0,0l0,0l0,0l0,0l0,0h12.3v-11.9h-15.5v15h2.2L411.5,318.9L411.5,318.9z M414.4,312.5h9.5v-0.2l1.2,0.5l-1.2,0.7
	V313L414.4,312.5L414.4,312.5z"/>
<rect x="378.1" y="231.2" class="st8" width="46.8" height="29.4"/>
<rect x="378.1" y="288.9" class="st8" width="46.8" height="4.8"/>
<polygon class="st7" points="350,822 349.6,821.1 349.4,820.2 348.7,819.4 347.4,818.5 346.7,818.5 345.6,818.5 345.6,818.5 
	345.6,822.7 345.6,822.7 350.3,822.7 "/>
<path class="st7" d="M346.7,817.5l1.2,0.5l0,0l1.2,0.5l0,0l0.7,0.7l0,0l0.5,1.2l0,0l0,0l0,0l0.5,1.2l0,0l0.2,1.6l0,0l0,0l0,0l0,0
	l0,0h1.7v-26.9h-18v19.5H346c0.2,0,0.5,0.2,0.5,0.5v1.7L346.7,817.5L346.7,817.5z"/>
<rect x="378.1" y="272.1" class="st8" width="46.8" height="4.8"/>
<rect x="378.1" y="283.3" class="st8" width="46.8" height="4.8"/>
<rect x="378.1" y="277.5" class="st8" width="46.8" height="4.8"/>
<path class="st7" d="M232.8,420h12.3v-7.9h-0.7c0,0,0,0-0.2,0l-1.2-0.5l-1.2-0.5l0,0l-0.7-0.7l-0.7-1.2l0,0l-0.5-1.2l0,0l-0.5-1.2
	l0,0l-0.2-1.2l0,0l0,0l0,0l0,0l0,0l0,0c0,0,0-0.2,0.2-0.2l0,0l0,0l0,0c0,0,0,0,0.2,0s0,0,0.2,0l0,0h5.4v-0.5h-5.5H233V420H232.8z"/>
<path class="st7" d="M246,406.3c0,0.2,0,0.2-0.2,0.5v4.8c0.2,0,0.2,0.2,0.2,0.5v9.7c0,0.2,0,0.2-0.2,0.5v5c0.2,0,0.2,0.2,0.2,0.5
	v9.7c0,0.2,0,0.2-0.2,0.5v5c0.2,0,0.2,0.2,0.2,0.5v8.1h0.2c0.2,0,0.5,0.2,0.5,0.5v0.5h4.8v-0.5c0-0.2,0.2-0.5,0.5-0.5v-0.7
	c0-0.2,0-0.2,0.2-0.5v-5c-0.2,0-0.2-0.2-0.2-0.5v-10.2c0-0.2,0-0.2,0.2-0.5v-5c-0.2,0-0.2-0.2-0.2-0.5v-9.2c0-0.2,0-0.2,0.2-0.5
	v-4.8c-0.2,0-0.2-0.2-0.2-0.5v-8.1h-5.4h-0.2C246,405.6,246,406.3,246,406.3z"/>
<path class="st7" d="M309.9,435.5l-0.7-0.2l0,0l-1.2-0.5l0,0l-1.2-0.5l-1.2-0.7l0,0l-0.7-0.7l0,0l-0.5-1.2l-0.5-1.6c0,0,0,0,0-0.2
	V429l0,0l0,0v-0.2l0,0l0,0l0,0l0,0l0,0l0,0l0.2-0.2l0,0l0,0l0,0l0,0h5.7v-0.2h-23.5v22.1h7.4c0.2,0,0.5,0.2,0.5,0.5v0.5h4.8V451
	c0-0.2,0.2-0.5,0.5-0.5h11.2v-4.1V439L309.9,435.5L309.9,435.5z"/>
<path class="st7" d="M323.9,405.6h-6h-0.5h-5.7v15.7c0,0.2-0.2,0.5-0.2,0.5v4.8c0.2,0,0.2,0.2,0.2,0.5v2.2c0,0.2,0,0.2-0.2,0.5v5
	c0.2,0,0.2,0.2,0.2,0.5v4.3v7.4v4.1H327c0.2,0,0.5,0.2,0.5,0.5v0.5h4.8v-0.5c0-0.2,0.2-0.5,0.5-0.5h4.8V406H331h-6.2L323.9,405.6
	L323.9,405.6z"/>
<path class="st7" d="M294,405.6h-0.5h-7.3v22.1h24v-0.5h-5l0,0l0,0l0,0l0,0l0,0l0,0l0,0l0,0l0,0l0,0c-0.2,0-0.5-0.2-0.5-0.5v-1.2
	c0,0,0,0,0-0.2l0.5-1.2l0.5-1.2l0,0l0.7-0.7l0,0l0.7-0.7l0,0l1.2-0.5l1.6-0.5c0,0,0,0,0.2,0h0.7v-15.4H305h-2.2h-9L294,405.6
	L294,405.6z"/>
<path class="st8" d="M446.7,246.2h-1.6l-0.2,0.9l0,0l-0.5,1.2l0,0l-0.5,1.2l0,0l-0.7,0.7l0,0l-0.7,0.7l0,0l-1.2,0.5l0,0l-1.2,0.2
	l0,0h-0.7v9.2h6.7v-14.9h0.5L446.7,246.2L446.7,246.2z"/>
<path class="st8" d="M367.7,223.7c0-0.2,0.2-0.5,0.5-0.5h1.9l0.5-0.5l0.5,0.5h1.9c0.2,0,0.5,0.2,0.5,0.5v3.5h0.2v-3.6
	c0-0.2,0.2-0.5,0.5-0.5H426v-0.5v-1.9l-0.5-0.5l0.5-0.5v-1.9c0-0.2,0.2-0.5,0.5-0.5h1.9h1.9h5.9h1.6v-8.8c0-0.2,0.2-0.5,0.5-0.5h1.2
	c0-0.2,0.2-0.2,0.5-0.2V197c-0.2,0-0.5-0.2-0.5-0.2h-1.4c-0.2,0-0.2,0-0.5-0.2l-9.2-2.4h-52.3l-9.5,2.4c0,0.2-0.2,0.2-0.5,0.2H365
	c0,0.2-0.2,0.2-0.5,0.2H364v10.7h0.5c0.2,0,0.5,0.2,0.5,0.2h1.2c0.2,0,0.5,0.2,0.5,0.5v8.8h1.7c0.2,0,0.2,0,0.2,0.2
	c0,0,0.2,0.2,0.2,0.5l-0.7,9.2h0.7L367.7,223.7L367.7,223.7z"/>
<path class="st7" d="M402.6,895.6h0.5h7.3V875c0-0.2,0.2-0.5,0.2-0.5v-4.1c-0.2,0-0.2-0.2-0.2-0.5v-1.7c0-0.2,0.2-0.5,0.5-0.5v-4
	c-0.2,0-0.5-0.2-0.5-0.5v-13.3h-11.9v0.7l0,0l-0.5,1.2l0,0l-0.5,1.2l-0.7,1.2l0,0l-0.7,0.7l-1.2,0.5l0,0l-1.2,0.5l0,0h-1.6l0,0h-0.2
	l0,0l0,0l0,0l0,0l0,0l0,0l0,0l0,0l0,0l0,0l0,0l0,0l0,0l0,0l0,0l0,0l0,0l0,0l0,0l0,0l0,0l0,0l0,0l0,0l0,0l0,0l0,0l0,0
	c0,0,0,0-0.2-0.2l0,0l0,0l0,0l0,0l0,0l0,0l0,0l0,0l0,0l0,0l0,0l0,0l0,0l0,0l0,0l0,0l0,0l0,0l0,0l0,0l0,0l0,0l0,0v-5.4h-4.1v15.4
	c0,0.2-0.2,0.5-0.2,0.5v4.8c0.2,0,0.2,0.2,0.2,0.5v1.7c0,0.2-0.2,0.5-0.5,0.5v4.8c0.2,0,0.5,0.2,0.5,0.5v16.4h6.7h0.5L402.6,895.6
	L402.6,895.6z"/>
<path class="st7" d="M411.5,775.5L411.5,775.5l-0.5,1.6l0,0l-0.5,1.2l0,0l-0.7,0.7l0,0l-0.7,0.7l-1.2,0.5l0,0l-1.2,0.5l0,0l-1.2,0.2
	l0,0c0,0,0,0-0.2,0l0,0l0,0c0,0,0,0-0.2,0l0,0l0,0l-0.2-0.2l0,0l0,0l0,0l0,0v-5.4h-0.2v15.4h29.2v-14.5h-0.2c-0.2,0-0.5-0.2-0.5-0.5
	l0,0L411.5,775.5L411.5,775.5z"/>
<path class="st7" d="M258.7,405.6h-5.9v7.9h0.7l0,0l1.2,0.5l0,0l1.2,0.5l0,0l0.7,0.7l0,0l0.7,0.7l0,0l0.5,1.2l0,0l0.5,1.2l0,0
	l0.2,1.2l0,0l0,0l0,0l0,0l0,0l0,0c0,0,0,0.2-0.2,0.2l0,0c0,0,0,0-0.2,0c-0.2,0,0,0-0.2,0l0,0l0,0H252v0.5h13.6v-14.7h-0.7h-6h-0.2
	V405.6z"/>
<path class="st7" d="M289.3,502h0.5v-28h-0.7c-0.2,0-0.5-0.2-0.5-0.5V473h-4.8v0.5c0,0.2-0.2,0.5-0.5,0.5h-10.2v28h7.9h0.5H289.3
	L289.3,502z"/>
<path class="st7" d="M264.1,502h7.4v-28h-7.3c-0.2,0-0.5-0.2-0.5-0.5V473h-4.8v0.5c0,0.2-0.2,0.5-0.5,0.5h-4.3v28h1.6h8.1H264.1
	L264.1,502z"/>
<path class="st7" d="M300,502h7.4v-28h-9.7c-0.2,0-0.5-0.2-0.5-0.5V473h-4.8v0.5c0,0.2-0.2,0.5-0.5,0.5H291v28h0.5h8.1H300L300,502z
	"/>
<path class="st7" d="M325.3,502h0.5v-28h-1.2c-0.2,0-0.5-0.2-0.5-0.5V473h-4.8v0.5c0,0.2-0.2,0.5-0.5,0.5H309v28h7.4h0.5H325.3
	L325.3,502z"/>
<path class="st7" d="M336,502h8.1h0.5h8.1h0.5v-28h-10.5c-0.2,0-0.5-0.2-0.5-0.5V473h-4.8v0.5c0,0.2-0.2,0.5-0.5,0.5h-10.2v28h0.5
	h8.1H336L336,502z"/>
<path class="st7" d="M497.8,502h2.2h8.1h0.5h8.1h0.5h7.4v-19.7h-0.7l0,0l-1.2-0.5l0,0l-1.2-0.5l0,0l-1.2-0.7l-0.7-0.7l0,0l-0.5-1.2
	l0,0l-0.5-1.2l0,0l-0.2-1.6l0,0c0,0,0,0,0-0.2v-0.2l0,0l0,0l0,0c0,0,0,0,0.2,0c0.2,0,0,0,0.2,0l0,0h5.4v-1.7h-35.4
	c-0.2,0-0.5-0.2-0.5-0.5v-0.5h-4.8v0.5c0,0.2-0.2,0.5-0.5,0.5h-1.7v28h7.4h0.5h8.8v0.2L497.8,502L497.8,502z"/>
<path class="st7" d="M340.1,777.7h-6h-1.6v3.1v6.7v1.2h0.7l0,0l1.2,0.5l0,0l0.7,0.5l0,0l0.7,0.7l0,0l0.5,0.7l0,0l0.5,1.2l0,0
	l0.2,1.2l0,0l0,0l0,0l0,0l0,0l0,0l0,0l0,0l0,0h16.2v-16.2h-6.6h-6L340.1,777.7L340.1,777.7z"/>
<path class="st7" d="M331.5,777.7h-7.3h-0.5h-7.4h-0.7h-6.9v45.6h2.2c0.2,0,0.5,0.2,0.5,0.5v0.5h4.8v-0.5c0-0.2,0.2-0.5,0.5-0.5
	h14.5v-29.2c0-0.2,0-0.2,0.2-0.5v-4.1c-0.2,0-0.2-0.2-0.2-0.5v-1.6v-6.6L331.5,777.7L331.5,777.7z"/>
<path class="st7" d="M385,717.8v-3.1h-0.7c0,0,0,0-0.2,0l-1.2-0.5l-1.2-0.5l0,0L381,713l0,0l-0.7-0.7l-0.5-1.2l0,0l-0.5-1.2l0,0
	l-0.2-1.2l0,0l0,0l0,0c0,0,0,0,0-0.2s0-0.2,0-0.2l0,0l0,0c0,0,0,0,0.2-0.2c0,0,0,0,0.2,0l0,0h5.4v-4.8H356v6.7v7.4L385,717.8
	L385,717.8z"/>
<path class="st7" d="M356.9,788.6h28.3v-17.3c0-0.2,0.2-0.5,0.5-0.5h0.5V766h-0.5c-0.2,0-0.5-0.2-0.5-0.2h-1.7
	c-0.2,0-0.5-0.2-0.5-0.5v-0.7h-26.8v1.7v7.4L356.9,788.6L356.9,788.6L356.9,788.6z"/>
<path class="st7" d="M433,523.3h-21.4c-0.2,0-0.5-0.2-0.5-0.5h-4c0,0.2-0.2,0.5-0.5,0.5h-2.2v5h5.4h0.2l0,0l0,0l0,0l0,0l0,0l0,0
	c0,0,0,0,0.2,0.2v0.2v1.6c0,0,0,0,0,0.2l-0.5,1.2l-0.5,1.2l0,0l-0.7,0.7l-1.2,0.7l0,0l-1.2,0.5l0,0l-1.2,0.5l0,0H404v23h2.2
	c0.2,0,0.5,0.2,0.5,0.5h4.1c0-0.2,0.2-0.5,0.5-0.5H433v-6.7V531V523.3L433,523.3z"/>
<path class="st7" d="M404.5,505.3v4.8h0.7l0,0l1.2,0.5l0,0l1.2,0.5l0,0l0.7,0.7l0,0l0.7,0.7l0,0l0.5,1.2l0.5,1.6c0,0,0,0,0,0.2v1.2
	c0,0.2-0.2,0.5-0.2,0.5l0,0l0,0l0,0l0,0l0,0l0,0l0,0l0,0h-5v4.8h1.9v-4.3l0,0l0,0l0,0v-0.2l0,0c0,0,0,0,0-0.2l0,0l0,0h0.2l0,0
	c0,0,0,0,0.2,0l0,0l1.2,0.2c0,0,0,0,0.2,0l1.2,0.5l1.2,0.5l0,0l0.7,0.7l0,0l0.5,0.7l0,0l0.5,1.2l0,0v0.7h21.2v-7.9v-9.2L404.5,505.3
	L404.5,505.3z"/>
<path class="st7" d="M445.1,502h8.1h0.5h8.1h2.2h8.1h0.5h7.4v-28h-33.7c-0.2,0-0.5-0.2-0.5-0.5V473H441v0.5c0,0.2-0.2,0.5-0.5,0.5
	H436v0.2c0,0.2-0.2,0.5-0.5,0.5v27.5h0.5L445.1,502L445.1,502L445.1,502z"/>
<path class="st7" d="M356.9,763.2h7.9v-7.4c0-0.2,0.2-0.5,0.5-0.5h9.5c0.2,0,0.5,0.2,0.5,0.5h4.8c0-0.2,0.2-0.5,0.5-0.5h5.4v-12.4
	h-1.2l0,0l-1.2-0.5l0,0l-1.2-0.5l0,0l-0.7-0.7l0,0l-0.7-0.7l-0.5-1.2l0,0l-0.5-1.2l0,0l-0.2-1.2l0,0l0,0l0,0c0,0,0,0,0-0.2v-0.2l0,0
	l0,0c0,0,0,0,0.2-0.2c0,0,0,0,0.2,0l0,0h5.4v-17.4H357v11.6v15.4L356.9,763.2L356.9,763.2z"/>
<path class="st7" d="M373.3,575.4c0.2,0,0.5,0.2,0.5,0.5h4.8c0-0.2,0.2-0.5,0.5-0.5h6.4v-5h-1.2l0,0l-1.2-0.5l0,0l-1.2-0.5l0,0
	l-0.7-0.7l-0.7-0.7l0,0l-0.5-1.2l0,0l-0.5-1.2l0,0l-0.2-1.6l0,0c0,0,0,0,0-0.2v-0.2l0,0l0,0c0,0,0.2,0,0.2-0.2l0,0l0,0l0,0h5.4v-4.8
	h-2.2c-0.2,0-0.2,0-0.2-0.2H379v4.3l0,0c0,0,0,0,0,0.2s0,0.2,0,0.2l0,0c0,0,0,0-0.2,0l0,0c0,0,0,0-0.2,0l0,0l0,0l-1.2-0.2l0,0
	l-1.2-0.5l0,0l-0.7-0.5l0,0l-0.7-0.7l0,0l-0.5-0.7l0,0l-0.5-1.2l0,0v-0.7h-17.3v6.7v9.5L373.3,575.4L373.3,575.4z"/>
<path class="st7" d="M385,593.1v-4.8h-0.7c0,0,0,0-0.2,0l-1.2-0.5l-1.2-0.5l0,0l-0.7-0.7l0,0l-0.7-0.7l-0.5-1.2l0,0l-0.5-1.2l0,0
	l-0.2-1.2l0,0l0,0l0,0c0,0,0,0,0-0.2l0,0l0,0l0,0c0,0,0,0,0.2-0.2c0,0,0,0,0.2,0l0,0h5.4v-4.8H379v5.4l0,0l0,0l0,0c0,0,0,0,0,0.2
	l0,0c0,0,0,0.2-0.2,0.2c0,0,0,0-0.2,0c0,0,0,0-0.2,0l0,0l0,0l-1.2-0.2l0,0l-1.2-0.5l0,0l-1.2-0.5l-1.2-0.7l0,0l-0.7-0.7l0,0
	l-0.5-1.2l0,0l-0.5-1.2l0,0v-1.2h-16.2v9.5v6.7L385,593.1L385,593.1z"/>
<path class="st7" d="M356.9,514.8v15.4l0,0l0,0v7.9h28.3v-21.4h-0.7l0,0l-1.2-0.5l0,0l-1.2-0.5l-1.2-0.7l0,0l-0.7-0.7l-0.5-1.2l0,0
	l-0.5-1.2l0,0l-0.2-1.6l0,0c0,0,0,0,0-0.2v-0.2l0,0c0,0,0,0,0.2,0c0,0,0,0,0.2,0l0,0l0,0h5.4v-4.8h-28L356.9,514.8L356.9,514.8
	L356.9,514.8z"/>
<path class="st7" d="M374,557.1c0.2,0,0.5,0.2,0.5,0.5l0,0h4l0,0c0-0.2,0.2-0.5,0.5-0.5h3.6c0-0.2,0.2-0.5,0.5-0.5h2.2v-4.8H380l0,0
	l0,0l0,0c0,0,0,0-0.2,0c-0.2,0-0.2,0-0.2-0.2l0,0l0,0l0,0c0,0,0,0,0-0.2c0,0,0,0,0-0.2l0,0l0.2-1.6l0,0l0.5-1.2l0,0l0.5-1.2l0.7-1.2
	l0,0l0.7-0.7l1.2-0.5l0,0l1.2-0.5l0,0h0.7v-6.4H357v11.2v6.7L374,557.1L374,557.1z"/>
<path class="st7" d="M385,682.9v-4.8h-0.7l0,0l-1.2-0.5l0,0l-1.2-0.5l-1.2-0.7l0,0l-0.7-0.7l-0.5-1.2l0,0l-0.5-1.2l0,0l-0.2-1.6l0,0
	c0,0,0,0,0-0.2s0-0.2,0-0.2l0,0c0,0,0,0,0.2-0.2c0,0,0,0,0.2,0l0,0h5.4v-4.8h-28.8v7.4v9.2L385,682.9L385,682.9z"/>
<path class="st7" d="M385,647.3v-5h-0.7l0,0l-1.2-0.5l0,0l-1.2-0.5l-1.2-0.7l0,0l-0.7-0.7l-0.5-1.2l0,0l-0.5-1.2l0,0l-0.2-1.6l0,0
	c0,0,0,0,0-0.2l0,0l0,0c0,0,0,0,0.2-0.2c0,0,0,0,0.2,0l0,0h5.4v-4.8h-28.8v6.7v9.2L385,647.3L385,647.3z"/>
<path class="st7" d="M385,665.1v-5h-0.7l0,0l-1.2-0.5l0,0l-1.2-0.5l0,0l-0.7-0.7l0,0l-0.7-0.7l-0.5-1.2l0,0l-0.5-1.2l0,0l-0.2-1.6
	l0,0c0,0,0,0,0-0.2l0,0l0,0l0,0c0,0,0,0,0.2,0c0.2,0,0,0,0.2,0l0,0l0,0h5.4v-4.8h-28.7v9.5v6.7L385,665.1L385,665.1z"/>
<path class="st7" d="M385,701.6v-4.8h-0.7l0,0l-1.2-0.5l0,0l-1.2-0.5l0,0l-0.7-0.7l0,0l-0.7-0.7l-0.5-1.2l0,0l-0.5-1.2l0,0l-0.2-1.2
	l0,0l0,0l0,0c0,0,0,0,0-0.2v-0.2l0,0l0,0c0,0,0,0,0.2-0.2c0,0,0,0,0.2,0l0,0h5.4v-5h-28.7v9.5v6.7L385,701.6L385,701.6z"/>
<path class="st7" d="M385,611.6v-5h-0.7l0,0l-1.2-0.5l0,0l-1.2-0.5l0,0l-0.7-0.7l-0.7-0.7l0,0L380,603l0,0l-0.5-1.2l0,0l-0.2-1.6
	l0,0c0,0,0,0,0-0.2v-0.2l0,0c0,0,0,0,0.2,0c0,0,0,0,0.2,0l0,0h5.4V595h-28.7v6.7v9.5L385,611.6L385,611.6z"/>
<path class="st7" d="M385,629.2v-5h-0.7l0,0l-1.2-0.5l0,0l-1.2-0.5l0,0l-0.7-0.7l0,0l-0.7-0.7l-0.5-1.2l0,0l-0.5-1.2l0,0l-0.2-1.2
	l0,0l0,0l0,0c0,0,0,0,0-0.2l0,0l0,0l0,0c0,0,0.2,0,0.2-0.2l0,0l0,0h5.4V613H356v9.5v6.7L385,629.2L385,629.2z"/>
<path class="st7" d="M375.2,475.8v-2.2h-6.4c-0.2,0-0.5-0.2-0.5-0.5l0,0h-4.8v0.5c0,0.2-0.2,0.5-0.5,0.5h-6v11.6h24v-9.2h-5.7
	C375.2,476.6,375.2,475.9,375.2,475.8z"/>
<rect x="572.8" y="405.6" class="st7" width="7.4" height="45.1"/>
<path class="st8" d="M555.2,405.6h-0.5h-7.4h-0.7h-7.3v0.7c0,0.2-0.2,0.5-0.5,0.5h-2.1c-0.2,0-0.5-0.2-0.5-0.5v-0.7h-7.3H528h-6.4
	v45.6h7.4c0.2,0,0.5,0.2,0.5,0.5v0.5h4.8v-0.5c0-0.2,0.2-0.5,0.5-0.5h28c0.2,0,0.5,0.2,0.5,0.5v0.5h4.8v-0.5c0-0.2,0.2-0.5,0.5-0.5
	h1.7v-45.6h-7.4h0.1H555.2z"/>
<path class="st7" d="M611.7,474.4L611.7,474.4c-0.2,0-0.5-0.2-0.5-0.5v-0.2h-12.4v4.8h5.4l0,0c0,0,0,0,0.2,0c0,0,0.2,0,0.2,0.2l0,0
	l0,0c0,0,0,0,0,0.2c0,0,0,0,0,0.2l0,0l-0.2,1.6l0,0l-0.5,1.2l0,0l-0.5,1.2l-0.7,1.2l0,0L602,485l-1.2,0.5l0,0l-1.2,0.5l0,0h-0.7
	v17.3h7.9h5.4L611.7,474.4L611.7,474.4z"/>
<path class="st7" d="M552.4,502h0.5h8.1h0.5h8.1h0.2v-19.7h-0.7l0,0l-1.2-0.5l0,0l-1.2-0.5l0,0l-0.7-0.7l0,0l-0.2-0.7l0,0l-0.5-1.2
	l0,0l-0.2-1.6l0,0l0,0l0,0c0,0,0,0,0-0.2c0,0,0-0.2,0.2-0.2l0,0l0,0c0,0,0,0,0.2,0c0,0,0,0,0.2,0l0,0l0,0h4.8v-2.6h-36.1
	c-0.2,0-0.5-0.2-0.5-0.5v-0.5h-4.8v0.5c0,0.2-0.2,0.5-0.5,0.5h-1.7v2.2c0,0.2-0.2,0.5-0.5,0.5l0,0v4.8h0.2c0.2,0,0.5,0.2,0.5,0.5
	v20.2h7.3v-0.7c0-0.2,0.2-0.5,0.5-0.5h2.2c0.2,0,0.5,0.2,0.5,0.5v0.7h8.1h0.5L552.4,502L552.4,502z"/>
<path class="st7" d="M580.9,502h8.1h0.5h8.1v-17.3c0-0.2,0-0.2,0.2-0.5v-5c-0.2,0-0.2-0.2-0.2-0.5v-5h-17.4c-0.2,0-0.5-0.2-0.5-0.5
	V473h-4.8v0.5c0,0.2-0.2,0.5-0.5,0.5h-1.9v3.1c0,0.2-0.2,0.5-0.5,0.5h-0.2v4.3h0.2c0.2,0,0.5,0.2,0.5,0.5v19.9h0.5h8.1L580.9,502
	L580.9,502z"/>
<path class="st8" d="M448.4,251.2L448.4,251.2L448.4,251.2L448.4,251.2L448.4,251.2L448.4,251.2c0,0.2,0.2,0.2,0.2,0.5l0,0l0,0l0,0
	l0,0l0,0l0,0l0,0l0,0l0,0l0,0h0.2l0,0l1.2-0.2l0,0l1.2-0.5l1.2-0.5l0,0l0.7-0.7l0.7-0.7l0,0l0.5-1.2l0.5-1.2l0,0V246h-0.3
	c-0.2,0-0.5-0.2-0.5-0.5l0,0l-0.2,1.2l-0.2,1.2l-0.5,1.2l-0.5,0.7l-0.2,0.5l-0.7,0.5l-1.2,0.5H450v-5c0,0.2-0.2,0.5-0.5,0.5h-0.3
	v4.8h-0.5v-0.3h-0.2v-0.1H448.4z"/>
<g>
	<g>
		<path class="st9" d="M646.9,402v105h-209v267.1h211.6v121.6H225.6V774.1H352V506.9H226.6V402H646.9 M660.2,388.4h-13.6h-420h-13.3
			V402v105v13.6H227h111.6v239.6H225.4h-13.6v13.6v121.6V909h13.6h423.9H663v-13.6V773.8v-13.6h-13.6H451.5V520.6h195.2h13.6V507
			V402L660.2,388.4L660.2,388.4z"/>
	</g>
	<g>
		<path class="st9" d="M467.3,189.2v80.3l-25.2,0.2l1.2,61.3h-85.9V189.3L467.3,189.2 M480.7,175.9h-13.6H357.2h-13.6v13.6v141.7
			v13.6h13.6h85.9h13.8l-0.2-13.8l-0.9-47.3l11.4-0.2l13.3-0.2V270v-80.7L480.7,175.9L480.7,175.9z"/>
	</g>
</g>
<g>
	<text transform="matrix(1 0 0 1 608.3311 432.0146)" class="st5 st3 st10">1101</text>
</g>
<g>
	<text transform="matrix(1 0 0 1 535.818 432.0146)" class="st5 st3 st10">1111</text>
</g>
<g>
	<text transform="matrix(1 0 0 1 486.8636 432.0146)" class="st5 st3 st10">1117</text>
</g>
<g>
	<text transform="matrix(1 0 0 1 388.59 250.2269)" class="st5 st3 st10">1000</text>
</g>
<g>
	<g>
		<path class="st11" d="M457.4,417.7c-0.5,0-1.2-0.5-1.2-1.2s0.5-1.2,1.2-1.2s1.2,0.5,1.2,1.2S458.1,417.7,457.4,417.7z"/>
		<path class="st11" d="M458.1,418.2c1.2,0,1.6,0.7,1.7,1.6l0.7,3.1c0.2,0.5,0,0.5-0.2,0.5s-0.5,0-0.5-0.5l-0.7-2.4
			c0-0.2-0.2-0.2-0.5-0.2s-0.2,0.2-0.2,0.5l1.6,4.8h-1.7c0,1.9,0,3.6,0,3.6c0,0.5-0.2,0.5-0.5,0.5c-0.2,0-0.5,0-0.5-0.5s0-3.6,0-3.6
			c0-0.2,0-0.2-0.2-0.2s-0.2,0-0.2,0.2c0,0,0,3.1,0,3.6c0,0.3-0.2,0.5-0.5,0.5c-0.2,0-0.5,0-0.5-0.5c0,0,0-1.7,0-3.6h-1.7l1.6-4.8
			c0-0.2,0-0.5-0.2-0.5s-0.2,0-0.5,0.2l-0.7,2.4c0,0.2-0.2,0.5-0.5,0.5c-0.2,0-0.5-0.2-0.2-0.5l0.7-3.1c0.2-0.5,0.5-1.6,1.7-1.6
			H458.1z"/>
	</g>
</g>
<g>
	<g>
		<path class="st11" d="M370,420.1c-0.7,0-1.6-0.5-1.6-1.6c0-0.7,0.5-1.6,1.6-1.6c0.9,0,1.6,0.5,1.6,1.6
			C371.2,420,370.9,420.1,370,420.1z"/>
	</g>
	<path class="st11" d="M367.9,423.4v2.4c0,0.5-0.2,0.5-0.5,0.5c-0.5,0-0.5-0.2-0.5-0.5v-3.5c0-1.6,0.7-1.9,1.9-1.9h1.9
		c1.6,0,1.9,0.5,1.9,1.9v3.5c0,0.5-0.2,0.5-0.5,0.5c-0.2,0-0.5-0.2-0.5-0.5v-2.4c0-0.2-0.2-0.5-0.2-0.5s-0.2,0-0.2,0.5s0,8.8,0,8.8
		c0,0.5-0.5,0.7-0.7,0.7c-0.2,0-0.7,0-0.7-0.7c0-0.5,0-5.4,0-5.4c0-0.2,0-0.2-0.2-0.2c-0.2,0-0.2,0-0.2,0.2c0,0,0,4.8,0,5.4
		c0,0.5-0.5,0.7-0.7,0.7c-0.2,0-0.5,0-0.5-0.7C367.7,432.4,367.7,423.8,367.9,423.4c-0.2-0.5-0.5-0.5-0.5-0.5
		C367.9,423.3,367.9,423.3,367.9,423.4z"/>
</g>
<g>
	<g>
		<path class="st11" d="M421,794.3c-0.5,0-1.2-0.5-1.2-1.2c0-0.5,0.5-1.2,1.2-1.2s1.2,0.5,1.2,1.2C421.8,794,421.5,794.3,421,794.3z
			"/>
		<path class="st11" d="M421.5,795c1.2,0,1.6,0.7,1.7,1.6l0.7,3.1c0.2,0.5,0,0.5-0.2,0.5s-0.5,0-0.5-0.5l-0.7-2.4
			c0-0.2-0.2-0.2-0.5-0.2c-0.2,0-0.2,0.2-0.2,0.5l1.6,4.8h-1.7c0,1.9,0,3.6,0,3.6c0,0.5-0.2,0.5-0.5,0.5c-0.2,0-0.5,0-0.5-0.5
			s0-3.6,0-3.6c0-0.2,0-0.2-0.2-0.2s-0.2,0-0.2,0.2c0,0,0,3.1,0,3.6s-0.2,0.5-0.5,0.5c-0.2,0-0.5,0-0.5-0.5c0,0,0-1.7,0-3.6h-1.6
			l1.6-4.8c0-0.2,0-0.5-0.2-0.5s-0.2,0-0.5,0.2l-0.7,2.4c0,0.2-0.2,0.5-0.5,0.5c-0.2,0-0.5-0.2-0.2-0.5l0.7-3.1
			c0.2-0.5,0.5-1.6,1.7-1.6H421.5z"/>
	</g>
</g>
<g>
	<g>
		<path class="st11" d="M341.7,801.9c-0.7,0-1.6-0.5-1.6-1.6c0-0.9,0.5-1.6,1.6-1.6c1.1,0,1.6,0.5,1.6,1.6
			C343,801.2,342.2,801.9,341.7,801.9z"/>
	</g>
	<path class="st11" d="M339.8,804.9v2.4c0,0.5-0.2,0.5-0.5,0.5c-0.2,0-0.5-0.2-0.5-0.5v-3.5c0-1.6,0.7-1.9,1.9-1.9h1.9
		c1.6,0,1.9,0.5,1.9,1.9v3.5c0,0.5-0.2,0.5-0.5,0.5c-0.3,0-0.5-0.2-0.5-0.5v-2.4c0-0.2-0.2-0.5-0.2-0.5s-0.2,0-0.2,0.5s0,8.8,0,8.8
		c0,0.5-0.5,0.7-0.7,0.7s-0.7,0-0.7-0.7c0-0.5,0-5.4,0-5.4c0-0.2,0-0.2-0.2-0.2s-0.2,0-0.2,0.2c0,0,0,4.8,0,5.4s-0.5,0.7-0.7,0.7
		s-0.5,0-0.5-0.7C339.4,813.8,339.4,805.4,339.8,804.9c-0.2-0.5-0.5-0.5-0.5-0.5C339.8,804.7,339.8,804.7,339.8,804.9z"/>
</g>
<g>
	<rect x="388" y="330.7" class="st5" width="23.7" height="15.5"/>
	<polygon class="st11" points="402.8,345.9 395.2,345.9 399,339.1 	"/>
</g>
<g>
	<rect x="388.7" y="391.3" class="st5" width="23.7" height="15.5"/>
	<polygon class="st11" points="396.9,386.5 404.5,386.5 400.4,393.2 	"/>
</g>
<g>
	<rect x="214.9" y="447.3" class="st5" width="15.5" height="23.7"/>
	<polygon class="st11" points="210.7,462.1 210.7,454.7 217.1,458.7 	"/>
</g>
<g>
	<rect x="637.9" y="449.9" class="st5" width="15.5" height="23.7"/>
	<polygon class="st11" points="658.3,458 658.3,465.8 651.6,461.8 	"/>
</g>
<g>
	<rect x="214.9" y="820.4" class="st5" width="15.5" height="23.7"/>
	<polygon class="st11" points="210.7,835.3 210.7,827.8 217.1,831.6 	"/>
</g>
<g>
	<rect x="637.9" y="822.8" class="st5" width="15.5" height="23.7"/>
	<polygon class="st11" points="658.3,831.1 658.3,838.5 651.6,835.1 	"/>
</g>
<g>
	<rect x="413.2" y="809.9" class="st12" width="11.9" height="14"/>
	<text transform="matrix(1 0 0 1 415.2944 821.7444)" class="st5 st13 st14">E</text>
</g>
<rect x="393.1" y="351" class="st5" width="17.6" height="9.5"/>
<rect x="366.5" y="213.2" class="st8" width="76.4" height="20.7"/>
<rect x="368.8" y="287.5" class="st8" width="66.5" height="25"/>
<rect x="322.5" y="234.3" class="st8" width="0" height="0.9"/>
<rect x="373.4" y="231.3" class="st8" width="7.8" height="60.1"/>
<rect x="375.2" y="258.1" class="st8" width="52.7" height="37.7"/>
<rect x="422.7" y="225.3" class="st8" width="5.5" height="41.1"/>
</svg>
